<svg width="118" height="116" id="Camada_1" data-name="Camada 1" xmlns="http://www.w3.org/2000/svg" viewBox="0 0 87 85"><defs><style>.cls-1,.cls-2{fill:#7367f0;}.cls-2{fill-rule:evenodd;}</style></defs><path class="cls-1" d="M19,4.48A3,3,0,0,1,16.92,8.1L3.48,11.68A3,3,0,1,1,1.94,6L15.39,2.39A3,3,0,0,1,19,4.48Z"/><path class="cls-2" d="M35.65,18.77A33.43,33.43,0,1,0,48,64.47,33.46,33.46,0,0,0,35.65,18.77Zm-4.32,13.4a3,3,0,0,0-5.12-3l-9.83,17a2.94,2.94,0,0,0-.05,2.86l6.55,12.3a3,3,0,0,0,5.22-2.77L22.31,47.78Z"/><path class="cls-1" d="M54.26,29.65A3,3,0,0,1,60,28.13l3.61,13.44a2.95,2.95,0,1,1-5.7,1.52Z"/></svg>
