<?xml version="1.0" encoding="UTF-8"?>
<svg id="Camada_1" data-name="Camada 1" xmlns="http://www.w3.org/2000/svg" xmlns:xlink="http://www.w3.org/1999/xlink" viewBox="0 0 1367.4 769.16">
  <defs>
    <style>
      .cls-1 {
        fill: #6f7f90;
      }

      .cls-1, .cls-2, .cls-3, .cls-4, .cls-5, .cls-6, .cls-7, .cls-8, .cls-9, .cls-10, .cls-11, .cls-12, .cls-13, .cls-14, .cls-15, .cls-16, .cls-17, .cls-18, .cls-19 {
        fill-rule: evenodd;
      }

      .cls-20 {
        fill: url(#Gradiente_sem_nome_38-2);
      }

      .cls-21, .cls-6 {
        fill: #fff;
      }

      .cls-2 {
        fill: #191919;
      }

      .cls-3 {
        fill: #9c3a3a;
      }

      .cls-22 {
        fill: #fab84a;
      }

      .cls-4, .cls-23 {
        fill: #a8a8a8;
      }

      .cls-5 {
        fill: #2e4278;
      }

      .cls-24 {
        fill: #cf7b14;
      }

      .cls-7, .cls-25 {
        fill: #014246;
      }

      .cls-26 {
        fill: #d6d4c8;
      }

      .cls-27 {
        fill: url(#Gradiente_sem_nome_38);
      }

      .cls-8 {
        fill: #adadad;
      }

      .cls-28 {
        fill: url(#Gradiente_sem_nome_10-2);
      }

      .cls-9 {
        fill: #145c60;
      }

      .cls-29 {
        fill: #173c3f;
      }

      .cls-30, .cls-16 {
        fill: #a5bcd5;
      }

      .cls-10 {
        fill: #8f8f8f;
      }

      .cls-11, .cls-31 {
        fill: #505050;
      }

      .cls-12 {
        fill: #ffb93e;
      }

      .cls-32 {
        fill: #1c0e02;
      }

      .cls-13 {
        fill: #6e7d8e;
      }

      .cls-14 {
        fill: #666;
      }

      .cls-33 {
        fill: #519b80;
      }

      .cls-34 {
        fill: url(#Gradiente_sem_nome_8);
      }

      .cls-35 {
        fill: url(#Gradiente_sem_nome_10);
      }

      .cls-36 {
        fill: rgba(81, 155, 128, .59);
      }

      .cls-37, .cls-17 {
        fill: #ebebeb;
      }

      .cls-38, .cls-39 {
        fill: none;
      }

      .cls-40 {
        fill: #c275a2;
      }

      .cls-41 {
        fill: #999;
      }

      .cls-39 {
        clip-path: url(#clippath);
      }

      .cls-15 {
        fill: #596673;
      }

      .cls-42 {
        fill: #2f4d7c;
      }

      .cls-43 {
        fill: #194145;
      }

      .cls-44 {
        fill: #bd628f;
      }

      .cls-45 {
        fill: #72c7a3;
      }

      .cls-46 {
        fill: rgba(148, 71, 109, .59);
      }

      .cls-18 {
        fill: #ccc;
      }

      .cls-47 {
        fill: #888;
      }

      .cls-19 {
        fill: #8496aa;
      }
    </style>
    <linearGradient id="Gradiente_sem_nome_8" data-name="Gradiente sem nome 8" x1="36431.33" y1="535.67" x2="36431.33" y2="-153.45" gradientTransform="translate(-26031.24 440.37) scale(.73 -.81)" gradientUnits="userSpaceOnUse">
      <stop offset="0" stop-color="#1a153b"/>
      <stop offset="1" stop-color="#1a153b" stop-opacity="0"/>
    </linearGradient>
    <linearGradient id="Gradiente_sem_nome_10" data-name="Gradiente sem nome 10" x1="10006.84" y1="112.86" x2="10276.86" y2="-152.42" gradientTransform="translate(-9681.37 690.93) scale(.96)" gradientUnits="userSpaceOnUse">
      <stop offset="0" stop-color="#63c1f4"/>
      <stop offset="1" stop-color="#63c1f4" stop-opacity="0"/>
    </linearGradient>
    <linearGradient id="Gradiente_sem_nome_10-2" data-name="Gradiente sem nome 10" x1="11815.24" y1="112.86" x2="12085.26" y2="-152.41" gradientTransform="translate(12791.74 690.85) rotate(-180) scale(.96 -.96)" xlink:href="#Gradiente_sem_nome_10"/>
    <clipPath id="clippath">
      <rect class="cls-38" x=".7" y=".58" width="1366" height="768"/>
    </clipPath>
    <radialGradient id="Gradiente_sem_nome_38" data-name="Gradiente sem nome 38" cx="11257.66" cy="178.2" fx="11257.66" fy="178.2" r="495.26" gradientTransform="translate(4278.45 78.69) rotate(-180) scale(.36)" gradientUnits="userSpaceOnUse">
      <stop offset="0" stop-color="#fff"/>
      <stop offset="1" stop-color="#fff" stop-opacity="0"/>
    </radialGradient>
    <radialGradient id="Gradiente_sem_nome_38-2" data-name="Gradiente sem nome 38" cx="14679.91" cy="2765.26" fx="14679.91" fy="2765.26" r="360.49" gradientTransform="translate(10306.04 2671.53) rotate(-180) scale(.69 .68)" xlink:href="#Gradiente_sem_nome_38"/>
  </defs>
  <g id="g4049-5-2">
    <rect id="rect30381-4-4-2-4-0" class="cls-42" x="0" width="1367.4" height="769.16"/>
    <rect id="rect30381-3-6-2-4-5-9" class="cls-34" x="0" width="1367.4" height="769.16"/>
    <path id="path30418-0-8-4-5-2-1" class="cls-5" d="m0,272.9s140.39-46.89,237.99-57.06c0,0,54.31-6.37,66.89-.62,0,0,6.47,9.35-12.94,16.53,0,0-63.62,23.72-12.58,40.62,0,0,43.98,15.06,289.47-33.02,0,0,339.45-87.32,552,14.69,0,0,126.99,51.15,246.58-55.22v60.61s-89.34,99.68-238.6,36.98c0,0-186.75-100.05-527.95-37.24,1.26,0-145.71,29.48-284.67,44.73,0,0-211.88,34.96-134.96-29.74,0,0,17.4-17.54,57.05-35.84,0,0,12.73-6.19-3.23-4.78,0,0-122.21,20.54-234.55,80.52L0,272.9Z"/>
    <g id="g3931-7-8">
      <path id="path19434-9-6-9-80-0-5" class="cls-35" d="m454.86,767.76c0-251.21-203.65-454.86-454.86-454.86v454.86h454.86Z"/>
      <path id="path19434-9-6-9-9-7-4" class="cls-28" d="m912.54,767.68c0-251.21,203.65-454.86,454.86-454.86h0v454.86h-454.86Z"/>
      <g id="g31053-1-2-2-4-6">
        <circle id="path30435-2-9-1-4-91-2-3" class="cls-21" cx="1109.66" cy="523.71" r="5.41"/>
        <circle id="path30435-8-0-4-3-1-1-5-6" class="cls-21" cx="1172.98" cy="547.07" r="1.22"/>
        <circle id="path30435-8-8-7-9-0-1-4-59-4" class="cls-21" cx="1062.81" cy="560.34" r="1.63"/>
        <circle id="path30435-8-8-1-1-1-73-8-96-1-5" class="cls-21" cx="1324.15" cy="546.72" r="5.03"/>
        <circle id="path30435-8-8-1-4-8-8-7-2-4-3-9" class="cls-21" cx="1302.02" cy="464.83" r="3.65"/>
        <circle id="path30435-8-8-1-4-0-2-4-7-2-6-6-4" class="cls-21" cx="1193.85" cy="444.55" r="6.47"/>
        <circle id="path30435-8-8-1-4-0-5-5-8-3-4-8-5-5-0-5" class="cls-21" cx="1082.88" cy="424.15" r="2.44"/>
        <circle id="path30435-8-8-1-4-0-5-5-8-5-09-8-7-4-5-2-9" class="cls-21" cx="925.16" cy="456.96" r="3.18"/>
        <circle id="path30435-8-8-1-4-0-5-5-8-5-0-7-0-4-3-0-8-2" class="cls-21" cx="885.85" cy="528.19" r="2.49"/>
        <circle id="path30435-8-8-1-4-0-5-5-8-5-0-6-1-4-9-0-9-4-8" class="cls-21" cx="812.07" cy="541.67" r="2.49"/>
        <circle id="path30435-8-8-1-4-0-5-5-8-5-0-6-2-9-3-8-5-7-59-1" class="cls-21" cx="743.52" cy="521.02" r="2.49"/>
        <circle id="path30435-8-8-1-4-0-5-5-8-5-0-6-7-0-2-69-7-5-8-6" class="cls-21" cx="659.66" cy="474.14" r="3.62"/>
        <circle id="path30435-8-8-1-4-0-5-5-8-5-0-6-7-9-1-8-58-6-9-3-2" class="cls-21" cx="916.82" cy="391.78" r="2.54"/>
        <circle id="path30435-8-8-1-4-0-5-5-8-5-0-6-7-9-9-3-8-63-3-0-9-8" class="cls-21" cx="784.5" cy="426.09" r="3.33"/>
        <circle id="path30435-8-8-1-4-0-5-5-8-5-0-6-7-9-9-1-7-2-8-2-0-90-1" class="cls-21" cx="417.22" cy="531.26" r="6.22"/>
        <circle id="path30435-8-8-1-4-0-5-5-8-5-0-6-7-9-9-1-5-3-8-1-9-9-8-6" class="cls-21" cx="285.56" cy="534.01" r="2.97"/>
        <circle id="path30435-8-8-1-4-0-5-5-8-5-0-6-7-9-9-1-5-0-5-5-3-3-1-8-0" class="cls-21" cx="103.8" cy="523.67" r="2.76"/>
        <circle id="path30435-8-8-1-4-0-5-5-8-5-0-6-7-9-9-1-5-0-7-2-4-0-6-0-9-2" class="cls-21" cx="18.32" cy="499.37" r="3.78"/>
        <circle id="path30435-8-8-1-4-0-5-5-8-5-0-7-1-0-9-1-3-5-0" class="cls-21" cx="284" cy="428.88" r="2.49"/>
        <circle id="path30435-8-8-1-4-0-5-5-8-5-0-6-1-6-1-2-1-6-6-3" class="cls-21" cx="210.23" cy="442.35" r="2.49"/>
        <circle id="path30435-8-8-1-4-0-5-5-8-5-0-6-2-9-7-9-0-2-6-6-9" class="cls-21" cx="141.67" cy="421.7" r="2.49"/>
        <circle id="path30435-8-8-1-4-0-2-1-0-9-2-3-8-7" class="cls-21" cx="620.54" cy="547.49" r="6.47"/>
        <circle id="path30435-8-8-1-4-0-5-5-8-5-0-6-7-9-9-1-5-0-7-2-6-7-5-0-0-1-4" class="cls-21" cx="517.9" cy="470.51" r="3.78"/>
        <circle id="path30435-8-8-1-4-0-5-5-8-5-0-6-7-9-9-1-5-0-7-2-2-7-4-2-79-8-8" class="cls-21" cx="426.66" cy="456.26" r="3.78"/>
      </g>
      <circle id="path30435-8-8-1-4-0-5-3-5-2-2-0-9" class="cls-21" cx="91.63" cy="364.76" r="1.97"/>
      <circle id="path30435-8-8-1-4-0-5-5-5-1-8-9-0-8" class="cls-21" cx="204.51" cy="373.36" r="3.92"/>
      <circle id="path30435-8-8-1-4-0-5-5-8-5-0-6-7-9-9-1-5-0-7-2-7-4-2-79-8-1" class="cls-21" cx="1311.85" cy="379.75" r="3.79"/>
      <circle id="path30435-8-8-1-4-0-5-5-8-5-0-6-7-9-9-1-5-0-7-2-9-8-1-3-6-3" class="cls-21" cx="471.42" cy="379.76" r="3.79"/>
      <circle id="path30435-8-8-1-4-0-5-5-8-5-0-6-7-9-9-1-5-0-7-2-0-3-2-8-3-5" class="cls-21" cx="636.09" cy="394.75" r="3.79"/>
      <g id="g31053-0-2-7-4-9-4">
        <circle id="path30435-2-9-2-0-4-7-7-9" class="cls-21" cx="246.81" cy="693.66" r="5.41"/>
        <circle id="path30435-8-0-4-6-9-8-5-7-5" class="cls-21" cx="183.49" cy="717.03" r="1.22"/>
        <circle id="path30435-8-8-7-9-5-4-6-3-3-6" class="cls-21" cx="293.66" cy="730.3" r="1.63"/>
        <circle id="path30435-8-8-1-1-1-7-7-4-8-1-0" class="cls-21" cx="32.32" cy="716.68" r="5.03"/>
        <circle id="path30435-8-8-1-4-8-8-6-7-5-5-2-1" class="cls-21" cx="54.45" cy="634.79" r="3.65"/>
        <circle id="path30435-8-8-1-4-0-2-4-1-4-3-0-1-5" class="cls-21" cx="162.62" cy="614.51" r="6.47"/>
        <circle id="path30435-8-8-1-4-0-5-5-8-3-4-1-0-0-7-7-3" class="cls-21" cx="273.59" cy="594.1" r="2.44"/>
        <circle id="path30435-8-8-1-4-0-5-5-8-5-09-8-5-0-1-0-8-3" class="cls-21" cx="431.31" cy="626.92" r="3.18"/>
        <circle id="path30435-8-8-1-4-0-5-5-8-5-0-7-0-2-3-6-1-6-8" class="cls-21" cx="470.62" cy="698.15" r="2.49"/>
        <circle id="path30435-8-8-1-4-0-5-5-8-5-0-6-1-4-5-1-1-5-4-0" class="cls-21" cx="544.4" cy="711.62" r="2.49"/>
        <circle id="path30435-8-8-1-4-0-5-5-8-5-0-6-2-9-3-1-2-4-4-7-8" class="cls-21" cx="612.95" cy="690.98" r="2.49"/>
        <circle id="path30435-8-8-1-4-0-5-5-8-5-0-6-7-0-2-6-1-9-9-6-5" class="cls-21" cx="696.81" cy="644.09" r="3.62"/>
        <circle id="path30435-8-8-1-4-0-5-5-8-5-0-6-7-9-1-8-5-4-4-3-1-6" class="cls-21" cx="439.65" cy="561.74" r="2.54"/>
        <circle id="path30435-8-8-1-4-0-5-5-8-5-0-6-7-9-9-3-8-6-0-1-5-6-0" class="cls-21" cx="571.97" cy="596.04" r="3.33"/>
        <circle id="path30435-8-8-1-4-0-5-5-8-5-0-6-7-9-9-1-7-2-1-8-0-1-3-4" class="cls-21" cx="939.25" cy="701.22" r="6.22"/>
        <circle id="path30435-8-8-1-4-0-5-5-8-5-0-6-7-9-9-1-5-3-8-3-2-8-8-8-0" class="cls-21" cx="1070.91" cy="703.97" r="2.97"/>
        <circle id="path30435-8-8-1-4-0-5-5-8-5-0-6-7-9-9-1-5-0-5-5-0-3-7-1-6-7" class="cls-21" cx="1252.67" cy="693.63" r="2.76"/>
        <circle id="path30435-8-8-1-4-0-5-5-8-5-0-6-7-9-9-1-5-0-7-2-4-1-7-3-1-7-4" class="cls-21" cx="1338.15" cy="669.32" r="3.78"/>
        <circle id="path30435-8-8-1-4-0-5-5-8-5-0-7-1-0-5-6-8-7-6-1" class="cls-21" cx="1072.47" cy="598.84" r="2.49"/>
        <circle id="path30435-8-8-1-4-0-5-5-8-5-0-6-1-6-1-5-1-5-8-9-0" class="cls-21" cx="1146.24" cy="612.31" r="2.49"/>
        <circle id="path30435-8-8-1-4-0-5-5-8-5-0-6-2-9-7-9-8-4-0-09-1-2" class="cls-21" cx="1214.8" cy="591.66" r="2.49"/>
        <circle id="path30435-8-8-1-4-0-2-1-0-8-7-4-8-0-1" class="cls-21" cx="735.93" cy="717.45" r="6.47"/>
        <circle id="path30435-8-8-1-4-0-5-5-8-5-0-6-7-9-9-1-5-0-7-2-6-7-4-3-4-9-5-3" class="cls-21" cx="838.57" cy="640.47" r="3.78"/>
        <circle id="path30435-8-8-1-4-0-5-5-8-5-0-6-7-9-9-1-5-0-7-2-2-7-2-4-5-23-8-4" class="cls-21" cx="929.81" cy="626.22" r="3.78"/>
      </g>
    </g>
    <g id="g3960-83-8">
      <ellipse id="path30435-2-1-9-7-7-3" class="cls-21" cx="215.65" cy="53.67" rx="5.65" ry="5.83"/>
      <ellipse id="path30435-8-0-1-9-3-0-9" class="cls-21" cx="149.59" cy="28.51" rx="1.28" ry="1.32"/>
      <ellipse id="path30435-8-8-7-8-5-1-5-4" class="cls-21" cx="264.53" cy="14.22" rx="1.7" ry="1.76"/>
      <ellipse id="path30435-8-8-1-4-8-9-2-4-3-6" class="cls-21" cx="14.98" cy="117.06" rx="3.81" ry="3.93"/>
      <ellipse id="path30435-8-8-1-4-0-2-44-4-7-5-4" class="cls-21" cx="127.82" cy="138.89" rx="6.74" ry="6.96"/>
      <ellipse id="path30435-8-8-1-4-0-5-5-8-3-5-9-3-3-1" class="cls-21" cx="243.58" cy="160.86" rx="2.55" ry="2.63"/>
      <ellipse id="path30435-8-8-1-4-0-5-5-8-5-09-3-8-3-8-1" class="cls-21" cx="408.12" cy="125.52" rx="3.32" ry="3.42"/>
      <ellipse id="path30435-8-8-1-4-0-5-5-8-5-0-7-6-8-5-2-1" class="cls-21" cx="449.13" cy="48.84" rx="2.6" ry="2.69"/>
      <ellipse id="path30435-8-8-1-4-0-5-5-8-5-0-6-1-7-2-1-2-2" class="cls-21" cx="526.09" cy="34.33" rx="2.6" ry="2.69"/>
      <ellipse id="path30435-8-8-1-4-0-5-5-8-5-0-6-2-9-1-5-8-4-5" class="cls-21" cx="597.61" cy="56.56" rx="2.6" ry="2.69"/>
      <ellipse id="path30435-8-8-1-4-0-5-5-8-5-0-6-7-0-1-6-72-4-9" class="cls-21" cx="685.09" cy="107.04" rx="3.77" ry="3.9"/>
      <ellipse id="path30435-8-8-1-4-0-5-5-8-5-0-6-7-9-1-1-2-9-5-9" class="cls-21" cx="416.82" cy="195.7" rx="2.64" ry="2.73"/>
      <ellipse id="path30435-8-8-1-4-0-5-5-8-5-0-6-7-9-9-3-6-2-0-8-6" class="cls-21" cx="554.86" cy="158.77" rx="3.47" ry="3.58"/>
      <ellipse id="path30435-8-8-1-4-0-5-5-8-5-0-6-7-9-9-1-7-1-1-1-0-2" class="cls-21" cx="938" cy="45.53" rx="6.49" ry="6.69"/>
      <ellipse id="path30435-8-8-1-4-0-5-5-8-5-0-6-7-9-9-1-5-3-1-4-6-45-5" class="cls-21" cx="1075.35" cy="42.58" rx="3.1" ry="3.2"/>
      <ellipse id="path30435-8-8-1-4-0-5-5-8-5-0-6-7-9-9-1-5-0-5-7-0-3-0-9" class="cls-21" cx="1264.95" cy="53.7" rx="2.88" ry="2.98"/>
      <ellipse id="path30435-8-8-1-4-0-5-5-8-5-0-6-7-9-9-1-5-0-7-2-3-7-3-5-5" class="cls-21" cx="1354.13" cy="79.87" rx="3.95" ry="4.08"/>
      <ellipse id="path30435-8-8-1-4-0-5-5-8-5-0-7-1-8-0-78-97-9" class="cls-21" cx="1076.97" cy="155.76" rx="2.6" ry="2.69"/>
      <ellipse id="path30435-8-8-1-4-0-5-5-8-5-0-6-1-6-0-9-5-9-0" class="cls-21" cx="1153.93" cy="141.26" rx="2.6" ry="2.69"/>
      <ellipse id="path30435-8-8-1-4-0-5-5-8-5-0-6-2-9-7-5-4-6-0-4" class="cls-21" cx="1225.45" cy="163.49" rx="2.6" ry="2.69"/>
      <ellipse id="path30435-8-8-1-4-0-2-1-8-7-4-2-1" class="cls-21" cx="725.9" cy="28.06" rx="6.74" ry="6.96"/>
      <ellipse id="path30435-8-8-1-4-0-5-5-8-5-0-6-7-9-9-1-5-0-7-2-6-8-6-0-4-2" class="cls-21" cx="832.97" cy="110.94" rx="3.95" ry="4.08"/>
      <ellipse id="path30435-8-8-1-4-0-5-5-8-5-0-6-7-9-9-1-5-0-7-2-2-5-2-0-6-9" class="cls-21" cx="928.15" cy="126.28" rx="3.95" ry="4.08"/>
    </g>
  </g>
  <g id="Layer_13" data-name="Layer 13">
    <g id="g2091">
      <path id="path9304-3-9" class="cls-14" d="m1143.47,371.9s38.05-42.9,57.51-56.08c0,0,2.28-1.26,2.45.68,0,0,.4,1.65-1.43,3.42,0,0-35.2,29.27-54.2,54.25,0,0-1.48,2.34-3.25,1.43.06-.06-2.62-1.37-1.08-3.71Z"/>
      <path id="rect9302-6-6" class="cls-31" d="m1144.83,370.02l4.79,3.19c1.71,1.14,2.17,3.48,1.03,5.13l-8.79,13.01c-1.14,1.71-3.48,2.17-5.13,1.03l-4.79-3.19c-1.71-1.14-2.17-3.48-1.03-5.13l8.79-13.01c1.14-1.71,3.42-2.17,5.13-1.03Z"/>
      <path id="path9166-8-5-89" class="cls-11" d="m1124.52,412.3s13.06,3.82,17.69,9.53c0,0,2.91,2.4,1.37,7.82,0,0-4.96,12.04-10.38,21.62,0,0-6.1,8.33-11.52,32.18,0,0-.29,9.53-6.56,13.75,0,0-7.36,5.36-18.66-2.74,0,0-14.03-10.9.34-53,13.86-33.32,27.73-29.15,27.73-29.15h0Z"/>
      <path id="path9166-5-7-47" class="cls-14" d="m1140.16,419.71c-4.62,4.39-10.84,12.55-16.66,29.38,0,0-9.53,23.5-10.27,48.95,1.2-.46,1.88-.91,1.88-.91,6.22-4.28,6.56-13.75,6.56-13.75,2.22-12.89,11.52-32.18,11.52-32.18,6.39-8.67,10.38-21.62,10.38-21.62,1.54-5.42-1.37-7.82-1.37-7.82-.57-.74-1.26-1.43-2.05-2.05Z"/>
      <path id="path9149-9-2-7" class="cls-11" d="m1057.32,527.99s19.4,6.22,33.72-.8c0,0,6.45-2.74,8.33-6.73,0,0,1.77-3.19,4.05-14.72,0,0,12.95-69.37,39.42-104.12,0,0,5.19-7.19,3.88-16.72,0,0-4.05-10.9-22.36-11.92,0,0-20.31,1.88-29.38,17.46,0,0-31.49,68.52-38.79,117.35,0,0-3.02,13.18,1.14,20.2h0Z"/>
      <path id="path7247-6-5-4" class="cls-14" d="m1061.31,524.51s16.66,4.28,30.41-3.71c0,0,5.13-2.28,7.25-12.55,0,0,11.75-68.35,36.68-103.26,0,0,6.39-8.79,5.93-17.69,0,0-1.37-8.16-11.92-8.5,0,0-7.53-.57-15.92,10.67,0,0-16.43,21.96-26.76,61.44,0,0-8.61,32.86-12.89,43.53,0,0-1.83,5.25-5.53,9.13,0,0-5.76,10.1-7.25,20.94h0Z"/>
      <path id="path9132-0-7-1" class="cls-11" d="m1022.23,529.65s17.4,6.73,25.96,6.1c0,0,7.76,1.26,9.93-7.42,0,0,15.52-83.01,48.09-129.85,0,0-26.13-18.43-58.93-2.74-1.43,2.11-58.48,70.17-25.05,133.9h0Z"/>
      <path id="path7230-4-7-5" class="cls-14" d="m1094.29,411.78s-23.68,13.35-35.43,68c0,0-4.34,26.87-7.13,36.23,0,0-2.05,6.5-5.53,10.5l8.44.4c0-.06,12.27-61.9,39.65-115.13Z"/>
      <circle id="path9306-8-47" class="cls-31" cx="1203.77" cy="316.33" r="5.7"/>
    </g>
    <g id="g7485-9-5">
      <g id="g2095">
        <path id="path9183-0-2-2" class="cls-15" d="m945.61,508.74s-1.82,1.39-1.91,4.98c0,0-.45,2.76,1.89,5.85,0,0,1.66,3.47,8.83,6.41,0,0,32.28,12.11,53.64,11.64,0,0,17.85-.94,24.4-8.37,0,0,3.34-5.1.82-6.25.01,0-67.8-16.72-87.68-14.25h0Z"/>
        <path id="path9183-5-8-9" class="cls-19" d="m1026.56,530.04c-63.96,6.59-80.64-15.74-80.64-15.74,0,0-.5,2.6,1.66,7.25,1.21,1.28,3.47,3.15,7.64,4.86,0,0,32.28,12.11,53.64,11.64,0,0,2.46.05,6-.68,8.79-3.4,11.7-7.32,11.7-7.32Z"/>
      </g>
      <path id="path8427-6-69-1" class="cls-6" d="m968.08,408.87s-42.87,51.14-21.77,96.37c0,0-3.95,3.46.38,6.69,0,0,25.32,19.5,72.25,14.74,0,0,12.89-2.64,16.47-4.71,0,0,11.95-6.33,6.89-20.84,0,0-9.76-44.1,26.1-79.63,0,0-4.91-2.94-4.87-10.63,0,0,.86-32.33-34.23-34.78-33.94-2.14-61.22,32.8-61.22,32.8h0Z"/>
      <path id="path8427-8-7-1" class="cls-18" d="m1036.52,377.92c-2.67-.7-5.63-1.2-8.91-1.43-33.95-2.15-61.23,32.78-61.23,32.78,0,0-41.41,51.01-20.3,96.25,0,0-3.14,3.06-.36,5.68,0,0,8.92,10.62,36.27,14.31-9.32-3.55-28.98-7.14-34.42-17.26l1.33-3.83-1.33-2.83c-7.79-37.53,13.91-62.61,13.91-62.61,38.87,10.02,73.75.12,90.53-4.74,2.9-4.22,6.33-8.4,10.45-12.47,0,0-4.18-2.66-2.12-10.37,0,0,1.94-26.65-23.82-33.48Z"/>
      <g id="g2106">
        <path id="path9115-8-4-3" class="cls-18" d="m965.6,406.84c-28.95-6.32-46.52-24.53-46.52-24.53,0,0-2.73-1.33-4.15.94,0,0-9.32,7.31-13.27,20.55,0,0-5.53,23.2.49,35.21,0,0,1.74,4.8,6.53,5.79,0,0,1.4,21.75,18.82,18.19,0,0,1.88,11.15,10.72,12.09,0,.01,2.38-37.15,27.38-68.24Z"/>
        <path id="path9234-6-9-7" class="cls-18" d="m915.07,379.2c.14-.54,1.13-12.05-1.87-18.64,0,0-1.87-4.04-6.15-2.95,0,0-3.72.96-3.68,7.24,0,0-.15,9.49-.08,10.31,0,0-3.75-9.74-3.95-16.51,0,0-.29-4.05-4.25-3.82,0,0-4.11.27-5.21,8.14,0,0-.99,7.74,1.49,13.04,0,0-3.23-.58-4.43,1.99,0,0-2.5,4.75.69,10.08,0,0,4.49,9.15,13.55,15.48,0,0,4.06,2.9,10.34-8.64,2.46-5.73,3.54-15.71,3.54-15.71h0Z"/>
        <path id="path9217-8-2-7" class="cls-15" d="m901.58,407.52c4.13-13.26,15.08-22.64,15.08-22.64,1.8-1.43,2.82-2.16,2.82-2.16,1.64-3.17-1-4.27-1-4.27-2.91-1.5-5.28.19-5.28.19,0,0-10.05,5.23-13.49,24.03,0,0-.79,2.96.01,4.55,0,0,1.28,1.12,1.87.28Z"/>
        <path id="path6923-7-2-1" class="cls-8" d="m930.83,470.7s-4.33-15.46,5.16-41c0,0-8.49,13.4-8.52,33.3.01,0,.82,4.55,3.36,7.69h0Z"/>
        <path id="path6925-8-8-1" class="cls-8" d="m908.67,444.8s9.6-23.99,20.27-35.22c0,0-14.07,10.77-21.82,34.74,0,.01.77.35,1.55.49h0Z"/>
        <path id="path9234-1-9-7" class="cls-8" d="m906.12,358.06c-1.09.72-2.79,2.51-2.76,6.78,0,0-.15,9.49-.08,10.31,0,0-.21-.61-.39-1.09.51,3.5,1.15,6.32,2.79,9.53-1.87-9.94-1.71-22.07.44-25.52Z"/>
        <path id="path9234-5-97-4" class="cls-8" d="m890.68,359.55c-.32.94-.61,2.05-.8,3.41,0,0-.99,7.74,1.49,13.04,0,0-.87-.15-1.87.06,3.99,11.38,9.12,13.93,9.12,13.93-8.53-15.8-8.29-26.96-7.93-30.44Z"/>
      </g>
      <ellipse id="path8408-8-6" class="cls-47" cx="1013.02" cy="398.99" rx="28.92" ry="56.38" transform="translate(510.11 1364.64) rotate(-83.99)"/>
      <g id="g2116">
        <path id="path9251-7-6-6" class="cls-18" d="m1153.74,435.92s11.71-8.61,22.68-11.09c0,0,9.32-2.41,11.11,5.02,0,0,1.04,6.4-3.06,8.78,0,0,7.91.58,9.01,5.99,0,0,1.47,4.78-1.62,7.94,0,0-1.8,2.49-4.87,3.71,0,0,6.08.92,4,5.66,0,0-1.85,6.14-11,7.47,0,0-12.22,1.01-23.09-1.9.01.02-12.75-11.06-3.17-31.58h0Z"/>
        <path id="path9092-3-1-33" class="cls-18" d="m1051.67,501.18c18.09,17.14,35.69,7.09,35.69,7.09,33.74,8.62,44.55-19.06,44.55-19.06,11.2-.29,20.36-11.77,20.36-11.77,3.2-3.17,1.39-7.71,1.39-7.71l-1.53-3.16c-6.57-10.52-5.63-25.9-5.63-25.9,1.08-6.72-3.11-7.26-3.11-7.26-5.66-1.52-15.61.05-15.61.05-23.5,3.05-56.56-5.55-56.56-5.55,0,0-15.1,11.76-20.5,35.71,0,.01-5.4,26.25.97,37.57h0Z"/>
        <path id="path6884-9-4-8" class="cls-6" d="m1145.66,463.22c-6.66,14.1-22.58,10.42-22.58,10.42-16.92,22.19-39.35,10.41-39.35,10.41-18.52,9.64-28.36,1.8-28.36,1.8,0,0-6.31-23.81,17.18-53.78,0,0,32.35,14.01,71.16,3.47-.03,0,2.29,21.56,1.95,27.68h0Z"/>
        <path id="path9200-2-50-8" class="cls-15" d="m1142.61,434s.7-2.01,4.4-2.54c0,0,6.06-.72,7.88,3.34,0,0,.03,2.76-.44,4.89,0,0-2.06,15.38,2.61,26.74,0,0,1.74,2.42-1.04,4.41l-2.38,1.32s-1.11.64-3.62-1.04c0,0-10.37-8.77-9.79-24.65.53-7.32,2.37-12.47,2.37-12.47h0Z"/>
        <path id="path6901-1-1-0" class="cls-8" d="m1083.95,509.69c-8.93-12.5.54-33.84.54-33.84,0,0-4.05,21.6,2.88,32.4,0,.01-1.39.81-3.41,1.43Z"/>
        <path id="path6903-0-3-7" class="cls-8" d="m1131.99,489.2c-13.87-6.57-9.64-23.11-9.64-23.11,0,0-.93,16.22,15.63,21.89-3.1,1.2-5.99,1.22-5.99,1.22h0Z"/>
        <path id="path9251-4-4-3" class="cls-6" d="m1182.59,427.6c-11.44-3.47-26.04,8.16-26.04,8.16,0,0-2.3,17.14,2.07,28.86,0,0,10.64,4.84,31.52-3.58.42-1.87-.6-2.9-1.57-3.55-19.28.22-23.13-2.17-23.13-2.17,14.07-1.21,20.14-2.28,26.31-7.12.77-2.24.27-3.61.27-3.61-1.1-5.41-9.23-5.18-9.23-5.18-4.88.17-13.31,1.45-19.9,2.79,14.98-4.23,22.09-11.43,22.09-11.43.13-1.95-1.23-2.82-2.41-3.18Z"/>
      </g>
      <g id="g2126">
        <path id="path9308-2-2-8" class="cls-10" d="m1037.53,457.56l-6.65-3.12-1.13,4.87c-12.32-7.98-28.79-11.84-28.79-11.84l.56-2.92c-5.97-3.16-16.95-5.18-16.95-5.18l-1.43,3.11c-8.55-2.67-24.94-5.64-24.94-5.64l1.55-3.45-3.41-.8s-6.26,11.05-8.68,18.95l3.14.45,1.52-3.45s15.92,2.86,26.63,6.61l-1.1,4.38s12.69,4.21,18.82,5.01l1.41-3.92s21.99,6.59,29.64,10.42l-.69,3.93,8.28,3.03s.24-15.27,2.22-20.45Z"/>
        <path id="path7076-9-2-7" class="cls-6" d="m948.2,449.83s1.86.18,2.39.26c0,0,5.21-13.45,6.83-15.71l-1.9-.31s-4.57,8.04-7.32,15.75h0Z"/>
        <path id="path7088-2-1-4" class="cls-6" d="m1032.14,456.84s-2.58,12.99-3.11,16.32l6.41,2.39s1.66-11.62,2.77-16.02l-6.07-2.68Z"/>
        <path id="path7074-4-5-0" class="cls-6" d="m959.47,438.85s19.77,4.17,23.03,5.36c0,0-2.77,8.45-2.88,9.24,0,0-22.69-6.14-26.4-6.61,0,0,3.03-7.15,4.11-8.3l2.15.31Z"/>
        <path id="path7078-6-8-7" class="cls-6" d="m990.59,442.48c-1.56-.43-3.62-.97-5.11-1.21,0,0-4.41,10.58-5.32,16.77,0,0,10.62,3.18,15.19,3.84,0,0,4.29-14.54,4.36-16.72,0,0-4.44-1.38-9.13-2.68h0Zm-.53,1.92c2.53.68,5.22,1.24,7.67,2.2-.1.55-.22,1.3-.46,2.25-.38,1.52-.89,3.37-1.4,5.16-.79,2.79-1.38,4.79-1.69,5.81-3.92-.76-9.59-2.58-11.45-3.16.98-5.07,3.36-11.45,4.01-13.19,1.03.2,2.25.63,3.31.93h0Z"/>
        <path id="path7082-6-9-8" class="cls-6" d="m987.81,445.24l-2.99,10.13,7.32,2.15.95-2.83-5.62-1.51,1.52-5.31,5.55,1.39.58-1.99-7.31-2.03Z"/>
        <path id="path7084-0-6-67" class="cls-6" d="m990.25,449.64l-.67,2.49s3.87,1.17,3.94.91l.66-2.29-3.93-1.11Z"/>
        <path id="path7086-2-8-6" class="cls-6" d="m1000.67,449.03s-2,9.18-2.11,9.59c0,0,26.1,8.96,29.37,10.49,0,0,1.45-6.4,1.63-7.59-8.71-6.24-28.89-12.49-28.89-12.49h0Z"/>
      </g>
      <g id="g2142">
        <path id="path9325-7-0-3-84" class="cls-10" d="m944.4,488.1c-.44.03-2.75-.23-3.58,1,0,0-3.1,3.21-2.15,10.19,0,0,.89,5.58,3.93,6.9,0,0,3.94,2.29,6.91.11,0,0,1.02-1.39,1.15-3.22,0,0,4.04,1.88,9.51,2.77l1.56,3.37s.92,1.7,2.92,2.3c0,0,6.24,2.32,12.01.48,0,0,1.41-1.21,1.59-1.89,0,0,12.07,2.95,15.13,2.03l2.54,4.79s.78,1.15,2.15,1.16c0,0,5.68.36,7.48-1.75,0,0,.69-.68.78-1.82v-2.39s11.4-.26,15.24-1.4c0,0,.33,2.29,1.88,2.75,0,0,2.9.62,6.64-.93,0,0,1.58-.55,1.19-2.69,0,0,10.05-2.04,11.93-3.92,0,0,.25-2.84-1.04-4.78,0,0,1.08-.03-.68.76,0,0-8.11,1.14-9.97.57,0,0-.69-3.68-.99-3.92,0,0-1.52-2.71-5.98-2.07,0,0-3.02.77-3.26,1.68,0,0-1,2.75-.62,5.35,0,0-15.08,1.1-16.18.88,0,0-.27-1.96-1.28-2.52,0,0-1.72-1.4-3.89-1.11l-4.45.62s-2.65,1.09-2.15,2.74c0,0-14.05-1.74-15.52-2.71,0,0-1.64-5.29-1.93-5.51,0,0-1.04-3.13-4.98-3.88,0,0-10.58-1.75-11.82-1.63,0,0-2.04.22-2.99,2.01,0,0-.63.44-.27,1.4l.65,2.17-5.32-1.48c.02-.3-.2-2.86-1.09-3.56-.03,0-1.81-2.53-5.02-2.82h0Z"/>
        <path id="path9325-7-6-5" class="cls-1" d="m943.01,488.92c-.44.03-2.75-.23-3.58,1,0,0-3.1,3.21-2.15,10.19,0,0,.89,5.58,3.93,6.9,0,0,3.94,2.29,6.91.11,0,0,1.02-1.39,1.15-3.22,0,0,4.04,1.88,9.51,2.77l1.56,3.37s.92,1.7,2.92,2.3c0,0,6.24,2.32,12.01.48,0,0,1.41-1.21,1.59-1.89,0,0,12.07,2.95,15.13,2.03l2.54,4.79s.78,1.15,2.15,1.16c0,0,5.68.36,7.48-1.75,0,0,.69-.68.78-1.82v-2.39s11.4-.26,15.24-1.4c0,0,.33,2.29,1.88,2.75,0,0,2.9.62,6.64-.93,0,0,1.58-.55,1.19-2.69,0,0,11.73-2.06,13.61-3.93,0,0,.62-2.3-.68-4.22,0,0-.97-.58-2.74.21,0,0-8.11,1.14-9.97.57,0,0-.69-3.68-.99-3.92,0,0-1.52-2.71-5.98-2.07,0,0-3.02.77-3.26,1.68,0,0-1,2.75-.62,5.35,0,0-15.08,1.1-16.18.88,0,0-.27-1.96-1.28-2.52,0,0-1.72-1.4-3.89-1.11l-4.45.62s-2.65,1.09-2.15,2.74c0,0-14.05-1.74-15.52-2.71,0,0-1.64-5.29-1.93-5.51,0,0-1.04-3.13-4.98-3.88,0,0-10.58-1.75-11.82-1.63,0,0-2.04.22-2.99,2.01,0,0-.63.44-.27,1.4l.65,2.17-5.32-1.48c.02-.3-.2-2.86-1.09-3.56-.02.01-1.8-2.52-5.01-2.82h0Z"/>
        <path id="path7158-1-45-4" class="cls-16" d="m939.29,495.62c-.4-2.71,1.28-4.77,1.28-4.77,0,0,3.85.73,5.21,1.7,0,0,1.57,9.62,1.46,12.44,0,0-1.43,2.83-6.51-.31,0,0,2.3-.2,2.67-.82,0,0,.71-5.68,0-7.81.03,0-2.72-.83-4.1-.43h0Z"/>
        <path id="path7160-3-7-2" class="cls-16" d="m941.9,502.1c-.65.54-2.25,0-2.25,0-.47-.89-.79-4.66-.79-4.66,0,0,1.87-.21,3.09.19-.01,0,.41,2.64-.05,4.46Z"/>
        <path id="path7162-0-6-8" class="cls-16" d="m948.2,496.48s.74,5.25.9,5.76c0,0,3.95,1.46,6.99,1.93l-1.78-5.37s-5.54-1.96-6.11-2.32h0Z"/>
        <path id="path7164-9-2-9" class="cls-16" d="m957.51,501.17l-2.7-6.91s10.84,1.88,14.36,1.7c0,0,1.88.24,2.12,1.8l3.42,13.33s-4.41,1.99-8.61.5c0,0-1.2-9.62-2-10.44h-6.61Z"/>
        <path id="path7166-4-8-6" class="cls-16" d="m958.82,502.95s2.59,7.08,2.78,7.13l2.75.38-1.54-7.61-4,.1Z"/>
        <path id="path7168-3-2-8" class="cls-16" d="m975.96,504.18l.97,5.03s11.45,2.56,14.77,2l-.86-4.34s-11.71-1.33-14.88-2.68Z"/>
        <path id="path7170-6-9-6" class="cls-16" d="m999.08,503.11c2.13.27,2.49,1.18,2.49,1.18.6,1.39.17,6.08.17,6.08-3.17,1.61-8.38.29-8.38.29l-.8-5.92s.19-.86,1.56-1.22l4.96-.41Z"/>
        <path id="path7172-7-0-6" class="cls-16" d="m994.16,512.52l1.46,4.27s.48.84,1.9.91l4.54-.72s1.47-.88,1.19-2.33l-.97-2.87s-4.27,1.61-8.12.74h0Z"/>
        <path id="path7174-8-57-7" class="cls-16" d="m1019.67,509.54c-4.06,1.4-15.26,1.69-15.26,1.69l-.37-4.14s13.74-.37,15.61-1.11l.02,3.55Z"/>
        <path id="path7176-5-99-5" class="cls-16" d="m1027.98,504.83c-.41,1.73-1.13,2.51-1.13,2.51-1.34,1.58-3.8.82-3.8.82-1.24-.33-1.64-2.08-1.64-2.08-.39-.81.2-4.96.2-4.96,0,0,.53-1.23,1.86-1.6,0,0,2.77-.07,3.87.63,0,.01,1.09,1.88.64,4.68h0Z"/>
        <path id="path7178-5-1-70" class="cls-16" d="m1021.5,509.78s-.04,2.44.86,2.88c0,0,.36.56,1.35.3l4.03-.92s.69-.32.55-1.69l-.2-2.3c-2.26,2.48-6.6,1.72-6.6,1.72h0Z"/>
        <path id="path7180-5-8-5" class="cls-16" d="m1030.16,505.06l-.19,4.13s10.53-1.57,12.1-3.04c0,0,.07-1.62-.65-2.17-2.25.68-11.25,1.08-11.25,1.08Z"/>
      </g>
      <g id="g2147">
        <path id="path9268-9-7-6" class="cls-13" d="m973.33,526.96c2.62,2.08,1.37,5.64,1.37,5.64-.54,1.74-6.43,7.01-6.43,7.01-3.1,2.63-4.14,6.26-4.14,6.26-1.57,4.13-5.04,4.93-5.04,4.93-5.07,1.96-7.96-4.99-7.96-4.99-6.94,3.56-9.12-3.92-9.12-3.92-5.24,4.32-8.36-.81-8.36-.81-3.43-4.7.41-13.37.41-13.37,2.76-7.63,11.23-8.33,11.23-8.33,0,0,8.08-.44,8.43,3.42,0,0,4.47-2.7,8.77-.39,0,0,3.9,1.62,3.62,4.29.02,0,4.06-2.18,7.23.26Z"/>
        <path id="path7330-6-0-2" class="cls-16" d="m941.25,539.39s-.91-11.08,7.18-13.81c0,0,1.98-.38,2.1-1.94,0,0,.41-1.73-2.44-2.13,0,0-6.86-1.27-12.25,8.16,0,0-2.76,5.69-1.33,9.19,0,0,.45,1.96,3.26,2.31,0,0,2.6.96,3.49-1.77h0Z"/>
        <path id="path7332-1-69-7" class="cls-16" d="m953.71,525.08s-8.48,3.58-8.5,14.19c0,0,.05,3.04,2.19,4.48,0,0,1.88,1.37,3.34-.91,0,0,1.17-1.93,1.31-3.54,0,0,1.59-5.93,6.99-9.39,0,0,3.07-1.78,2.65-4.2,0,0-1.28-2.43-4.54-1.8,0,.02-2.69.51-3.44,1.18h0Z"/>
      </g>
      <path id="path7334-2-8-8" class="cls-16" d="m955.12,544.1s2.04-8.98,9.7-14.38c0,0,2.48-1.94,4.88-1.23,0,0,3.17.56,1.89,3.97,0,0-1.05,1.75-2.79,2.86,0,0-6.05,4.81-7.27,9.9,0,0-1.66,4.03-3.61,3.51,0,.01-3.59-.08-2.8-4.63h0Z"/>
      <g id="g2154">
        <path id="path9285-3-9-2" class="cls-13" d="m1020.17,559.92c-1.5,5.22-3.92,5.48-3.92,5.48-4.65,1.72-7.14-3.45-7.14-3.45-5.52,5.36-10.04-.65-10.04-.65-3.22-3.61-.62-12.94-.62-12.94-2.43,2.2-2.89,6.58-2.89,6.58-.16,2.1-.91,4.55-.91,4.55-2.1,5.56-6.82,2.97-6.82,2.97-5.41-3.8-3.7-11.71-3.7-11.71,1.13-11.44,15.39-17.43,15.39-17.43,0,0,4.39-1.53,5.65,1.01,0,0,5.64-5.79,8.63-.6,0,0,3.55-3.13,5.93,1.12,0,0,1.09,2.43.49,6.56,0,0-.6,7.76.22,12.17,0,.01.48,3.57-.26,6.33h0Z"/>
        <path id="path7336-9-0-1" class="cls-16" d="m993.19,554.08s2.69-9.24,6.72-11.06c0,0,2.97-2.16,2.87-4.5,0,0-.5-3.02-4.26-2.16,0,0-8.48,4.67-11.46,16.06,0,0-1.25,4.65.56,6,0,0,1.97,1.83,3.73-.45,0,.01,1.54-.95,1.84-3.9h0Z"/>
        <path id="path7338-5-2-6" class="cls-16" d="m1006.76,535.48s-6.22,5.69-5.89,18.14c0,0,.5,4.62,2.41,5.86,0,0,2.7,1.75,4.25-2.13,0,0,1.13-3.07.4-6.85,0,0-.51-6.47.6-10.25,0,0,1.23-2.68.78-4.28-.85-1.54-2.56-.48-2.56-.48h0Z"/>
        <path id="path7340-1-17-6" class="cls-16" d="m1013.89,535.57s-5.48,10.45-3.13,21.91c0,0,.9,3.12,2.42,3.6,0,0,2.57.91,3.73-1.81,0,0,1.29-2.39.86-5.91,0,0-1.02-4.31-.38-8.54,0,0,.58-4.32.21-6.45.01,0-.69-5.75-3.71-2.8h0Z"/>
      </g>
      <g id="g2166">
        <path id="path9058-6-3-0" class="cls-15" d="m1051.58,501.21c-3.97,5.15-10.27,1.14-10.27,1.14-4.82-7.36-5.75-20.98-5.75-20.98-3.55-42.42,27.62-65.28,27.62-65.28,0,0,5.84-2.07,8.64,3.37,0,0,2.31,4.01-.6,8.72,0,0-30.53,27.93-19.64,73.02h0Z"/>
        <path id="path7372-6-0-1" class="cls-16" d="m1050.06,501.23c-1.11-1.2-1.97-7.15-1.97-7.15,0,0-4.81,2.32-7.98,1.79,0,0,1.03,3.98,3.13,6.2,0-.01,4.41,1.11,6.82-.84Z"/>
        <path id="path7374-2-1-3" class="cls-16" d="m1039.77,493.75s5.37-.57,8.13-2.11c0,0-.99-8.32-.91-9.73,0,0-6.73,1.49-9.12,1.06,0-.02,1.03,8.31,1.91,10.78Z"/>
        <path id="path7376-0-4-4" class="cls-16" d="m1047.99,468.76c-.52,1.72-1.11,10.62-1.11,10.62-2.67,1.2-8.81,1.03-8.81,1.03,0,0-.36-7.99.63-11.87,0,0,6.89,1.01,9.28.21Z"/>
        <path id="path7378-7-9-4" class="cls-16" d="m1038.54,466.28s7.48,1.05,9.77.29c0,0,.97-5.36,1.55-6.36,0,0-9.35-1.55-9.96-1.71.01,0-1.28,5.75-1.36,7.79h0Z"/>
        <path id="path7380-1-1-7" class="cls-16" d="m1040.2,456.51s8.97,1.72,10.31,1.94c0,0,1.21-5.15,1.8-6.34l-9.73-3.2s-1.74,4-2.38,7.6Z"/>
        <path id="path7382-5-0-3" class="cls-16" d="m1043.47,446.97l9.62,3.11s2.25-6.49,3.95-8.85c0,0-7.67-3.01-9.73-3.14.01.02-3.44,6.23-3.84,8.88Z"/>
        <path id="path7384-8-5-9" class="cls-16" d="m1048.68,436.07l9.51,3.33s3.23-4.75,4.46-6.15c0,0-2.19-4.48-8-5.97.01,0-4.55,4.59-5.96,8.79h0Z"/>
        <path id="path7386-9-7-6" class="cls-16" d="m1056.14,425.47s5.73,2.62,7.62,6.05l3.24-2.91s-1.62-6.32-5.67-8.23c-2.14,1.11-5.19,5.08-5.19,5.08Z"/>
        <path id="path7388-8-90-6" class="cls-16" d="m1068.16,427.15c-.89-3.83-5.7-7.86-5.7-7.86l1.14-1.16s6.23-.05,7.85,4.65c-.67,2.14-3.28,4.36-3.28,4.36Z"/>
      </g>
      <g id="g2175">
        <path id="path9075-0-5-9" class="cls-15" d="m971.68,411.72s-29.8,29.05-30.62,75.77c0,0-15.62-29.76,17.32-78.74,0,0,6.12-4.46,12.04-1.03,0,0,3.5.45,1.26,4h0Z"/>
        <path id="path7429-2-4-5" class="cls-16" d="m955.58,416.11l7.71,1.43,4.35-4.82s-4.29-4.06-8.59-2.39l-3.47,5.78Z"/>
        <path id="path7431-7-8-0" class="cls-16" d="m954.64,418.17l7.18,1.11s-3.44,5.15-3.61,5.69l-6.45-1.45s1.83-3.62,2.88-5.35h0Z"/>
        <path id="path7433-5-7-7" class="cls-16" d="m951.67,425.79l5.74,1.05s-4.81,7.46-5.6,9.48l-5.32-1.34s2.27-5.76,4.48-9.42l.69.23Z"/>
        <path id="path7435-3-95-1" class="cls-16" d="m945.63,437.02c.38.06,5.36,1.13,5.36,1.13l-3.31,7.53-4.71-1,2.66-7.66Z"/>
        <path id="path7437-1-11-4" class="cls-16" d="m942.62,447.08l3.9.68s-4,10.82-4.07,11.19l-2.82-.44,2.99-11.44Z"/>
        <path id="path7439-6-5-5" class="cls-16" d="m939.63,460.47l2.63.33s-1.77,4.77-2.8,14.4c-.01,0-1.87-8.86.17-14.73h0Z"/>
      </g>
    </g>
    <g id="g2211">
      <path id="path8324-6-61-2" class="cls-17" d="m1153.68,304.24c-2.74,45.41-19.51,74.91-19.51,74.91-8.61,11.7-24.53,22.19-24.53,22.19-31.72,18.88-88.77,19.11-88.77,19.11-54.03-1.2-87.69-20.02-87.69-20.02-5.76-8.79-12.04-30.07-12.04-30.07l62.19-42.33,26.59-21.17-18.08-94.3s52.6-13.64,92.14,1.94c0,0,37.71,12.55,54.77,39.99,0-.06,14.89,19.28,14.95,49.75h0Z"/>
      <path id="path8246-0-8-99" class="cls-4" d="m1081.85,213.65c-42.73-14.72-90.03-1.37-90.03-1.37l.86,3.54-66.35,150.56-5.25,3.94.06.17c1.6,2.51,3.25,4.45,4.68,5.93.57.57,22.65,20.99,75.65,25.22,0,0,63.67,6.1,103.55-16.03,14.55-19.8,26.19-63.78,26.19-63.78,11.07,9.07,15.63,24.02,15.63,24.02,1.43-4.85,1.88-7.47,1.88-7.47-2.28-11.24-15.69-21.34-15.69-21.34,5.08-40.51-14.38-66.52-14.38-66.52-26.7-35.77-68.18-38.74-68.18-38.74,6.33-1.43,31.38,1.88,31.38,1.88h0Z"/>
      <path id="path8229-3-0-8" class="cls-2" d="m992.79,215.76c-60.07,28.35-69.83,73.82-69.83,73.82-16.09,45.98,2.97,77.59,2.97,77.59,0,0,23.05,33.09,123.63,25.44,0,0,35.66-4.34,49.92-13.35,0,0,29.15-47.52,25.16-91.74,0,0-1.6-46.21-52.26-63.84.06,0-34.52-15.18-79.59-7.93h0Z"/>
      <path id="path8763-3-8" class="cls-25" d="m995.48,344.52c-35.54-9.53-67.49-5.59-71.31,8.79-1.65,6.39,3.02,15,12.27,22.59,10.27,8.27,57.85,24.59,105.94,17.29,0,0,5.53-.57,7.99-.74,1.2-1.43,2.05-2.97,2.51-4.62,3.88-14.38-21.79-33.77-57.39-43.3Z"/>
      <ellipse id="path8341-1-8" class="cls-23" cx="1119.37" cy="386.73" rx="19.85" ry="17" transform="translate(179.45 1107.21) rotate(-56.53)"/>
      <ellipse id="path8341-6-2-7" class="cls-37" cx="1122.9" cy="387.56" rx="19.23" ry="16.49" transform="translate(180.34 1110.53) rotate(-56.53)"/>
      <ellipse id="path8341-6-9-5-8" class="cls-23" cx="1122.9" cy="387.56" rx="11.41" ry="9.76" transform="translate(180.34 1110.53) rotate(-56.53)"/>
      <ellipse id="path8341-6-9-4-2-1" class="cls-41" cx="1121.76" cy="386.9" rx="9.81" ry="8.39" transform="translate(180.37 1109.28) rotate(-56.53)"/>
      <ellipse id="path8341-6-9-4-5-5-4" class="cls-30" cx="1120.72" cy="386.39" rx="8.5" ry="7.25" transform="translate(180.34 1108.19) rotate(-56.53)"/>
      <ellipse id="path8410-9-9" class="cls-21" cx="996.1" cy="226.25" rx="7.13" ry="4.74" transform="translate(-3.09 14.04) rotate(-.81)"/>
      <ellipse id="path8410-5-82-6" class="cls-21" cx="1014.59" cy="227.68" rx="5.08" ry="3.42" transform="translate(-3.1 14.3) rotate(-.81)"/>
      <path id="path8229-30-8-5" class="cls-9" d="m1105.41,244.62c-19.34,23.9-71.03,14.72-71.03,14.72-7.19-3.65-9.24-15.06-9.24-15.06-3.37,5.25-3.42,13.92-3.42,13.92-7.76-4.22-9.76-14.26-9.76-14.26-2.8,5.36-2,10.04-2,10.04-29.1-6.33-21.17-27.78-21.17-27.78-15.4,4.11-21.91,18.26-21.91,18.26-1.37-1.37-1.26-4.96-1.26-4.96-10.27,7.53-14.83,20.2-14.83,20.2-4.45,1.26-3.59,6.62-3.59,6.62-.34,17.29-15.35,34.52-15.35,34.52-5.48,3.65-3.54,7.82-3.54,7.82-5.71,9.41-8.33,14.49-9.41,26.07.74,14.21,6.28,29.1,8.84,31.21,5.88,4.91,11.35,4.79,11.35,4.79,24.53,2.28,47.29-21.85,47.29-21.85,5.31-4.51,5.93,1.48,5.93,1.48,9.3,24.82,35.88,37.6,50.15,42.84,2.68-.17,4.85-.29,7.64-.51,0,0,36.51-4.28,49.75-13.52,0,0,4.79-7.64,9.98-19.91-.34-9.7-2.74-15.69-2.74-15.69,3.88-.8,7.87-2.74,10.67-4.91,4.51-14.6,8.61-32.06,7.19-49.52-4.22-6.85-9.13-9.19-9.13-9.19,2.85-1.65,4.79-4.91,5.88-7.76-.29-.91-.63-1.88-.97-2.85-3.19,2.34-7.87,4.11-7.87,4.11,2.28-3.25,4.16-6.67,5.48-9.81-3.08-6.22-7.07-12.84-12.95-19h0Z"/>
      <ellipse id="path8540-3-2-2-0" class="cls-29" cx="1049.47" cy="324.78" rx="49.97" ry="44.78" transform="translate(464.15 1254.44) rotate(-75)"/>
      <ellipse id="path8540-3-12-2" class="cls-29" cx="1050.67" cy="313.35" rx="49.97" ry="44.78" transform="translate(476.08 1247.13) rotate(-75)"/>
      <ellipse id="path8540-51-0" class="cls-26" cx="1049.73" cy="318.51" rx="49.97" ry="44.78" transform="translate(470.4 1250.04) rotate(-75)"/>
      <ellipse id="path4532-4-1-2-4-6-8-4-4-8-4-3-2-3-0-0-3-4-8-8-3-4-5" class="cls-22" cx="1031.98" cy="302.72" rx="25.79" ry="20.54" transform="translate(236.69 1026.7) rotate(-58.66)"/>
      <ellipse id="path4532-4-1-2-4-6-8-4-4-8-4-3-2-3-0-0-3-4-8-8-3-0-2-3-7-6" class="cls-24" cx="1030.77" cy="302.05" rx="22.31" ry="17.74" transform="translate(236.68 1025.34) rotate(-58.66)"/>
      <ellipse id="path4532-4-5-7-4-9-1-2-5-8-9-1-4-8-8-8-1-5-1-6-4-9-5-7" class="cls-32" cx="1029.76" cy="301.26" rx="18.37" ry="14.6" transform="translate(236.87 1024.1) rotate(-58.66)"/>
      <circle id="path8647-8-7" class="cls-21" cx="1047.51" cy="297.15" r="4.96"/>
      <path id="path8701-7-6-3" class="cls-3" d="m973.85,345.49c.17.06,3.94,1.31,1.83,8.04,0,0-3.31,12.67-3.37,12.84,0,0-1.2,3.42.34,4.51,0,0,1.71,1.08,4.62-.4,0,0,8.39-4.68,13.29-15.52,0,0,5.48-10.5,5.19-15.97-1.48,1.2-21.91,6.5-21.91,6.5h0Z"/>
      <path id="path8557-1-6-1" class="cls-7" d="m1105.41,244.62c-1.71,2-4.16,4.45-6.28,5.99,9.87,5.48,15.4,11.7,15.4,11.7-4.11,12.72-9.41,13.64-9.41,13.64,3.48.91,8.33,3.99,8.33,3.99,10.84,8.16,6.22,23.73,6.22,23.73-1.43-2.11-6.56-5.25-6.56-5.25,3.54,3.99,5.25,9.53,5.25,9.53-6.05,25.73-18.14,24.3-18.14,24.3-.17,12.89-10.04,34.34-10.04,34.34-11.81,18.2-26.98,18.54-26.98,18.54-31.55-.17-50.09-14.03-71.08-34.52,9.24,25.05,35.94,37.37,50.2,42.56,2.51-.17,5.31-.23,7.87-.46,0,0,36.63-4.56,49.52-13.06,0,0,4.68-7.64,10.1-20.48-.4-9.41-2.4-15.63-2.4-15.63,3.71-.8,7.53-2.8,10.27-4.85,4.62-14.89,8.61-31.83,7.19-50.03,0,0-.06-.29-.06-.68-4.05-6.16-8.56-8.33-8.56-8.33,2.45-1.43,4.34-4.51,5.48-7.36-.4-1.14-.57-1.6-1.03-2.8-3.14,2.05-7.42,3.59-7.42,3.59,2-2.91,3.77-6.56,5.02-9.41-3.02-6.16-6.9-12.78-12.89-19.05h0Z"/>
      <path id="path8697-4-9-05" class="cls-12" d="m974.14,371.28c13.12-.97,17.74-6.9,17.74-6.9,2.91-4.39,4.85-14.66,4.85-14.66,1.88-12.67-3.25-17.69-3.25-17.69-5.08-5.13-12.89-3.94-12.89-3.94,0,0-12.84,2.62-18.31,17.63,0,0-.8,2.68,5.31,1.94,0,0,18.14-1.88,27.21-7.3,0,0-1.2,11.01-16.49,25.84,0,0-2.28,2.45-5.13,3.82.06,0-2.4.74.97,1.26h0Z"/>
      <path id="path8540-2-2-42" class="cls-43" d="m1039.63,332.82c-20.65-5.71-33.66-6.56-34.86-6.22,1.08,20.6,16.03,36.28,32.06,40.56,15.46,4.11,32.23-1.31,43.99-14.21-15.92-10.95-29.78-17-41.19-20.14h0Z"/>
      <ellipse id="path8540-8-4-7-0" class="cls-29" cx="966.82" cy="289.34" rx="43.53" ry="28.24" transform="translate(267.15 1016.61) rotate(-62.77)"/>
      <path id="path8557-5-9-99" class="cls-7" d="m988.74,226.2c-15.4,4.11-21.91,18.14-21.91,18.14-1.37-1.37-1.26-4.85-1.26-4.85-10.27,7.53-15.52,20.37-15.52,20.37-4.45,1.26-3.59,6.62-3.59,6.62-.34,17.29-15.35,34.52-15.35,34.52-5.48,3.65-3.54,7.82-3.54,7.82-9.58,14.95-9.01,26.3-9.01,26.3,3.37,40.73,19.74,35.83,19.74,35.83,3.37.34,6.73.11,9.98-.46-5.31-2.85-29.72-17.97-10.9-48.61,0,0,13.75-64.41,52.43-80.67-3.77-7.42-1.08-15-1.08-15Z"/>
      <ellipse id="path8540-8-4-8-3-7" class="cls-29" cx="962.38" cy="297.09" rx="43.53" ry="28.24" transform="translate(257.85 1016.87) rotate(-62.77)"/>
      <ellipse id="path8540-8-8-9" class="cls-26" cx="964.38" cy="292.99" rx="43.53" ry="28.24" transform="translate(262.58 1016.42) rotate(-62.77)"/>
      <ellipse id="path4532-4-1-2-4-6-8-4-4-8-4-3-2-3-0-0-3-4-8-8-3-0-2-0" class="cls-22" cx="961.06" cy="280.53" rx="21.96" ry="17.51" transform="translate(221.61 955.47) rotate(-58.66)"/>
      <ellipse id="path4532-4-1-2-4-6-8-4-4-8-4-3-2-3-0-0-3-4-8-8-3-0-2-3-8" class="cls-24" cx="960.24" cy="279.91" rx="19.34" ry="15.4" transform="translate(221.74 954.47) rotate(-58.66)"/>
      <ellipse id="path4532-4-5-7-4-9-1-2-5-8-9-1-4-8-8-8-1-5-1-6-4-9-6-9-3" class="cls-32" cx="959.41" cy="279.33" rx="15.8" ry="12.61" transform="translate(221.78 953.42) rotate(-58.66)"/>
      <circle id="path8647-5-0-0" class="cls-21" cx="974.29" cy="275.72" r="4.22" transform="translate(235.13 967.76) rotate(-58.92)"/>
      <path id="path8540-8-3-0-9" class="cls-43" d="m956.62,304.01c-15.63-4.45-21.51-3.88-21.51-3.88,0,0-.91,0-2.51.23-2,14.49,2.34,26.53,11.24,31.43,12.09,6.62,29.38-2.68,37.94-14.21-9.36-6.62-17.06-11.24-25.16-13.58Z"/>
      <path id="path8989-8-9-1" class="cls-6" d="m1031.08,231.96c4.22,1.83,14.09,3.88,14.09,3.88,10.16,2.4,16.2,4.45,16.2,4.45,9.24,3.19,16.2,7.64,16.2,7.64,9.19,5.82,19.85,15.46,19.85,15.46,7.42,4.11,5.48-3.08,5.48-3.08-1.03-3.54-9.3-10.16-9.3-10.16-24.7-20.71-57.51-22.99-57.51-22.99,0,0-5.36-1.03-6.96,1.48,0-.06-1.37,2,1.94,3.31h0Z"/>
    </g>
  </g>
  <g class="cls-39">
    <g id="g65901-6-4-1-2-7-3">
      <g id="g42469-9-8-8-6-43-8-7">
        <g id="g5591-9-5-5-0-7-5-8-5-5-5-3">
          <ellipse id="path13038-1-8-5-5-1-7-9-50-3-2-2-3-2" class="cls-27" cx="215.65" cy="15.98" rx="178.73" ry="174.28" transform="translate(93.98 194.75) rotate(-60)"/>
        </g>
      </g>
      <g id="g31951-6-36-7-5-6-2-9">
        <circle id="path31795-4-0-8-1-1-9-3-7-0-8" class="cls-44" cx="215.65" cy="15.98" r="108.49"/>
        <path id="path31795-4-6-3-1-3-6-7-1-3" class="cls-40" d="m215.78-92.51c-13.51,0-26.91,2.53-39.49,7.46-.1.88-.22,1.76-.41,2.59,0,0-.73,4.77-.36,7.43,0,0-.92,6.79-3.12,9.36,0,0-3.58,3.85-2.75,9.36,0,0,1.74,8.53,2.38,10.09,0,0,2.21,2.94,2.48-1.56,0,0,1.1-8.17,3.4-12.02,0,0,1.83-3.85,1.83-7.07,0,0-1.92-8.07,4.96-11.65,0,0,5.05-2.02,7.07-3.85,0,0,6.79-4.77,14.59-3.49,0,0,11.93,1.19,14.68-5.14l1.5-1.17c-2.24-.18-4.49-.29-6.75-.34h0Zm21.18,9.12c-2.27-.05-6.14.27-10.65,2.3,0,0-9.57,2.14-11.52,3.5,0,0-11.16,2.86-14.28,2.47,0,0-4.59-1.71-5.37,3.85,0,0-1.46,4.04-4.22,5.23,0,0-2.52,1.38-2.34,4.91,0,0,.65,2.06-1.79,8.39,0,0-3.95,8.99-1.65,14.87,0,0,.37,4.41,7.34.37,0,0,7.98-4.86,16.61-2.11,0,0,6.42,2.3,16.24-.37,0,0,6.51-1.65,11.1-1.65,0,0,12.94-1.65,15.05-6.42,0,0,3.12-10.09-5.5-13.4,0,0-9.27-2.75-16.52.18,0,0,12.48-1.1,12.57,4.77,0,0,2.2,10.65-7.25,11.93,0,0-22.76,3.12-34.13-4.4,0,0-11.93-6.88-.46-14.22,0,0,12.39-10.37,33.49-9.82,0,0,18.82-.55,26.34,12.2,0,0,7.43,14.04-4.5,26.7-.19.28-15.05,17.16-34.32,20.83,0,0-26.08,5.64-41.92-6.43,0,0-22.58-10.38-22.06-28.68,0,0,1.45-16.21,5.95-30.38-11.23,6.21-21.28,14.36-29.66,24.08,1.51.43,2.71,2.04,2.71,6.09,0,0-.37,12.11-3.12,19.09,0,0-4.22,8.63,9.73,10.1,0,0,8.81-1.65,10.09,8.99,0,0-2.02,22.02,20.74,19.09,0,0,20.74-3.67,29-5.69,0,0,15.23-4.41,23.31-.92,0,0,5.33,1.65,11.38-1.83,0,0,13.4-8.08,24.59-6.61,0,0,12.85,2.39,21.47-9.36,0,0,4.96-7.53-.19-13.58,0,0-4.22-5.87-6.06-6.79,0,0-4.96-4.4-4.96-8.99,0,0,.26-2.44,1.01-5.05,0,0,2.2-9.36-1.84-9.54,0,0-5.41.55-7.52-2.93,0,0-2.39-5.96-5.42-6.33,0,0-4.03-1.47-6.14-3.58,0,0-10.56-10.55-13.22-10.64,0,0-.79-.16-2.15-.19h0Zm30.25,3.88c-1.11,1.35-2.76,4.06-1.48,7.25,0,0,1.09,1.82,1.55,2.28,0,0,1.1,1.19,1.47,3.21,0,0,.46,4.41,5.14,2.75,0,0,3.58-.37,3.95-6.88-.04-.83-.14-1.56-.27-2.26-3.33-2.31-6.79-4.43-10.35-6.35Zm15.03,9.91c-.99,1.78-1.9,4.03-2.02,6.5,0,0,.55,4.68-.37,8.07,0,0-2.48,8.63-.28,12.94,0,0,4.59,8.99,13.12,11.75,0,0,11.19,2.47,17.07-6.24,0,0,.14-.56.24-.93-1.99-3.51-4.18-6.9-6.54-10.16-.79.68-1.36,1.71-1.41,3.29,0,0,1.93,9.55-5.14,7.99,0,0-8.63-.09-11.75-6.61,0,0-2.18-7.06,2.2-9.82,0,0,4.22-2.75,10.09-2.39-4.6-5.28-9.7-10.09-15.23-14.39h0Zm-43.25,35.23s-11.29.65-13.11.52c-5.71-.52-7.01,2.46-7.01,2.46-5.58,6.1-11.81,4.67-11.81,4.67-3.63.52-8.95-2.6-8.95-2.6-.52-.13-3.38-1.04-3.77,1.43,0,0-2.21,4.8,1.04,5.58,0,0,11.81,2.98,17.91,2.98,0,0,11.03,1.69,14.27-3.12,0,0,7.27-8.04,12.98-10.12,0,0,3.24-1.43-1.56-1.81Zm-119.94,1.48c-1.2,2.31-2.32,4.66-3.35,7.04,6.16,5.69,5.12,18.17,5.12,18.17-.92,17.99,12.3,26.24,12.3,26.24,10.1,10.28,35.42,10.65,36.34,10.1,16.33-.18,26.43,2.2,26.43,2.2,8.81.37,20.74,13.77,20.74,13.77,8.81,5.87,11.01,18.72,11.01,18.72.92,14.68-4.77,19.09-4.77,19.09-8.45,10.64-19.45,11.93-19.45,11.93-11.19,3.12-35.79.92-35.79.92-9.18-.18-11.02-8.44-11.02-8.44-.19-4.4-2.57-7.71-2.57-7.71-6.06-19.45,5.53-27.07,5.53-27.07,7.14-7.27,19.79-.45,19.79-.45,9.6,4.8,11.48,12.85,11.48,12.85,1.23,3.76-2.46,6.3-2.59,6.62-2.67,4.61.19,6.88.19,6.88.58.84.85,2.53.85,2.53.45,2.79-4.74,2.85-4.74,2.85-7.79.84-10.96-1.56-10.96-1.56-3.31-1.82-1.81-8.17-1.81-8.17.32-4.48,2.46-7.98,2.46-7.98,1.62-2.92,3.96-.65,3.96-.65.39.26,1.62,2.53,1.62,2.53.65,1.23,1.81.13,1.81.13,3.24-2.6.39-5.45.39-5.45-1.69-3.76-4.41-2.08-4.41-2.08-1.95,2.47-4.8,1.69-4.8,1.69-4.67.52-6.75,5.45-6.75,5.45-.78,2.34-2.99,5.19-2.99,5.19-3.5,5.19-1.43,12.33-1.43,12.33,2.73,9.47,24.66,4.02,24.66,4.02,4.67-1.17,11.42-1.95,11.42-1.95,5.71-.52,4.16-9.47,4.16-9.47-.52-3.24.39-10.25.39-10.25.65-2.6,1.04-8.7,1.04-8.7-.91-21.54-15.7-24.01-15.7-24.01l-19.21-1.3c-15.96-.52-19.99,2.98-19.99,2.98-10.77,5.84-12.32,24.66-12.32,24.66-1.65,14.82,2.34,27.67,4.47,33.24,13.44,12.94,29.99,22.2,48.05,26.88,8.07-9.88,24.53-18.99,24.53-18.99,10.1-8.63,17.29-9.21,17.29-9.21,10.25-.39,13.89-15.57,13.89-15.57,2.33-7.79,5.9-9.54,5.9-9.54,3.67-.73,5.14-13.76,5.14-13.76-.55-4.22.74-12.3.74-12.3,0-16.52-13.22-26.24-13.22-26.24-10.28-6.79-22.57-.55-22.57-.55-5.32,2.39-13.77,2.75-13.77,2.75-23.49,2.39-46.07-2.93-46.07-2.93-8.07-1.84-15.05-2.2-15.05-2.2-13.4-.18-10.46-13.21-10.46-13.21.55-10.64-7.52-17.25-7.52-17.25-5.87-4.96-6.79-10.28-6.79-10.28-.39-1.4-.97-2.95-1.58-4.47h0Zm151.81.92c1.5-.11,3.1.34,4.6,1.88,0,0,5.32,7.53.78,9.74,0,0-8.83,6.23-17.91,5.58-1.69.91-5.97-.91-5.97-.91-4.41-1.04-7.27.26-7.27.26,0,0,5.32-4.8,11.42-7.66,0,0,6.62-2.72,8.31-5.71,0,0,2.76-2.95,6.04-3.18Zm43.8,3.66c-2.26.35-4.74,1.2-7.38,2.83,0,0-11.38,4.77-15.05,12.66,0,0-2.21,5.69-2.21,8.08,0,0-.73,5.5-7.16,8.81,0,0-10.46,10.09-11.56,16.52,0,0-1.1,5.14-.55,8.26,0,0,1.1,5.69-2.57,9.18,0,0-1.28,9.18,3.12,13.03,0,0,8.55,8.01,7,19.43,0,0-2.08,12.07,3.11,16.09,0,0,4.67,4.41,12.85,4.02h.06c4.4-4.6,8.39-9.59,11.92-14.91-1-1.2-2.5-2.24-4.72-2.87,0,0-2.2-2.85-2.33-4.93,0,0-3.38-9.22-6.49-10.25,0,0-3.11-2.21-3.5-7.27,0,0-1.42-7.01-3.63-10.9,0,0-4.8-6.49,2.98-15.44,0,0,3.76-5.84,4.54-8.43,0,0,3.25-6.49,8.05-7.92,0,0,4.54-1.82,6.1-4.02,0,0,4.28-4.54,8.44-.52,0,0,4.44,4.23,8.32,5.56-.9-12.79-4.07-25.32-9.34-37h0Zm-35.58,25.87l-5.45,2.08c-6.62,3.76-15.32,3.11-15.32,3.11-7.53-.13-12.98,2.73-12.98,2.73,6.75,1.43,7.14,6.23,7.14,6.23.26,4.02,3.5,6.49,3.5,6.49,4.53,1.69,4.41,12.2,4.41,12.2,3.63-11.94,18.69-32.84,18.69-32.84h0ZM107.83,5.2c-.36,3.58-.54,7.18-.54,10.78.01.37.03.74.04,1.1,2.73.5,7,1.76,8.38,4.87,0,0,.91,1.42,1.04,3.89,0,0,.39,4.41,4.41,5.19,0,0,6.49,2.99,3.38,12.59,0,0-2.95,8.04-10.39,10.14,1.37,3.74,2.95,7.39,4.73,10.96,4.34-4.53,9.22-11.14,10.71-19.15,0,0,4.15-11.42-2.34-19.98,0,0-5.06-7.27-7.14-12.07,0,0-4.06-6.6-12.3-8.31Zm202.37,7.19c-.97.08-2.1.61-3.36,1.96,0,0-8.63,8.9-10,9.91,0,0-7.34,4.58-4.13,14.22,0,0,2.75,5.42,4.31,7.44,0,0,3.21,4.86,3.3,7.62,0,0-.1,5.41,4.68,6.42,0,0,5.79,1.6,9.69.39.98-2.21,1.88-4.45,2.7-6.72-.4-.14-.84-.27-1.38-.37-.46,0-4.22.18-6.15.18,0,0-3.86.28-4.04-2.93,0,0-3.48-7.52-4.77-8.99,0,0-2.66-4.59.91-8.17,0,0,5.33-5.96,6.79-9.45,0,0,1.92-5.23,3.48-1.47,0,0,.28,5.32,1.1,7.99,0,0,1.84,4.04.28,5.5,0,0-2.11,3.49-6.15,2.85,0,0,3.4,4.31,6.61,2.2,0,0,4.59-1.93,4.12-8.72,0,0-1.19-5.32-1.1-7.8,0,0,.37-4.04-.92-5.78l-2.57-4.5s-1.3-1.95-3.42-1.77h0ZM108.23,29.12c.76,6.3,2.07,12.52,3.92,18.58,1.99-.63,4.01-1.8,4.61-4.08,0,0,.19-10.52-8.52-14.5Zm160.85,28.94c-.69.01-1.15.88-1.15.88-1.17,2.85-4.67,4.28-4.67,4.28-5.19,2.73-7.26,8.05-7.26,8.05-1.04,3.37-6.1,7.53-6.1,7.53-4.8,6.36,4.16,5.71,4.16,5.71,0,0,6.88-.91,12.59,1.43,0,0,6.1,1.82,8.05,2.85,2.98.13.91-2.6.91-2.6-2.46-2.08-2.98-5.71-2.98-5.71-1.04-2.6,0-6.23,0-6.23,1.3-2.85.91-5.58.91-5.58.12-2.98-2.98-9.35-2.98-9.35-.53-.97-1.04-1.27-1.45-1.26h0Zm-11.04,38.68c-2.73.07-5.03.35-5.03.35-6.1,1.17-13.89,1.17-13.89,1.17-9.99-.78-14.53,7.39-14.53,7.39-4.54,6.23-8.7,7.01-8.7,7.01-9.21,3.63-6.75,9.6-6.75,9.6l.56,1.9c2.02.16,4.05.26,6.07.31,2.56,0,5.12-.09,7.67-.27-.8-1.81-1.58-3.64-1.19-5.44,0,0-.12-3.37,3.63-3.63,0,0,4.67-1.56,5.32-5.19,0,0,.78-4.41,7.4-5.45,0,0,5.19,0,8.31-2.2,0,0,7.01-5.06,16.09-.39,0,0,6.37.82,5.19,8.93,3.31-1.83,6.53-3.84,9.64-6.01.08-.58.16-1.14.22-1.75-3.11-7.79-5.19-4.41-5.19-4.41-3.37.26-8.57-1.43-8.57-1.43-1-.26-2.21-.4-3.46-.46-.93-.05-1.89-.05-2.8-.02h0Zm-10.69,12.42c-3.49.1-7.38.65-9,2.46,0,0-4.67,1.69-3.25,5.45,0,0-.69,2.39,4.15,4.69,7.27-1.61,14.35-3.97,21.13-7.03-.74-.78-1.45-2.01-2.06-3.88,0,0-.52-1.81-4.41-1.43,0,0-3.08-.36-6.57-.26h0Z"/>
        <path id="path31795-4-0-8-8-8-5-2-6-6-6-5" class="cls-46" d="m139.52-61.12c-20.61,20.37-32.21,48.13-32.23,77.1,0,59.92,48.57,108.49,108.49,108.49,48.88-.06,91.68-32.79,104.54-79.94-20.27,22.15-48.9,34.79-78.93,34.84-59.22,0-107.23-48.01-107.23-107.23h0c.02-11.3,1.83-22.52,5.36-33.25h0Z"/>
      </g>
    </g>
    <g id="g42469-77-3-3-3">
      <g id="g5591-9-5-5-0-95-7-0-0">
        <ellipse id="path13038-1-8-5-5-1-7-3-1-3-7" class="cls-20" cx="112.49" cy="799.21" rx="250.32" ry="244.08" transform="translate(-635.89 497.03) rotate(-60)"/>
      </g>
      <g id="g31951-59-6-7-0-1">
        <circle id="path31795-4-0-8-9-0-8-0-3" class="cls-33" cx="112.52" cy="799.21" r="165.71"/>
        <path id="path31795-4-6-7-3-1-2-1" class="cls-45" d="m69.44,959.22c19.94,5.34,40.7,6.9,61.21,4.61.5-1.26,1.02-2.5,1.62-3.66,0,0,2.97-6.75,3.47-10.82,0,0,4.04-9.66,8.3-12.58,0,0,6.81-4.27,7.76-12.72,0,0,.8-13.28.47-15.83,0,0-2.09-5.21-4.28,1.32,0,0-4.86,11.62-9.77,16.4,0,0-4.22,4.96-5.49,9.7,0,0-.35,12.67-11.92,15.23,0,0-8.24.98-11.95,2.89,0,0-11.9,4.36-22.9-.62,0,0-17.12-6.47-23.69,1.78l-2.67,1.14c3.24,1.16,6.51,2.21,9.82,3.16h0Zm-27.64-21.82c3.33.97,9.17,2.03,16.62.81,0,0,14.96.63,18.37-.61,0,0,17.6.2,22.04,2,0,0,6.1,4.33,9.44-3.55,0,0,3.76-5.38,8.29-6.05,0,0,4.27-1.03,5.4-6.32,0,0-.14-3.3,5.95-11.68,0,0,9.38-11.71,8.32-21.28,0,0,1.2-6.65-10.69-3.45,0,0-13.7,4.02-25.34-3.45,0,0-8.57-5.93-24.11-5.88,0,0-10.26-.13-17.03-1.95,0,0-19.74-2.68-24.74,3.53,0,0-8.6,13.66,2.82,21.94,0,0,12.59,7.72,24.45,6.26,0,0-18.85-3.31-16.66-12.01,0,0,.96-16.58,15.42-14.74,0,0,34.81,4.39,48.62,19.99,0,0,14.88,14.87-4.95,21.17,0,0-22.37,10.4-53.29,1.25,0,0-27.98-6.63-34.04-28.42,0,0-5.41-23.65,17.2-37.61.38-.33,28.98-19.37,58.86-17.17,0,0,40.71,1.99,59.3,26.06,0,0,29.21,24.24,21.21,51.03,0,0-8.55,23.34-20.79,42.47,19.03-4.72,37.07-12.77,53.28-23.8-2.05-1.23-3.19-4.09-1.59-10.05,0,0,5.33-17.72,12.15-26.92,0,0,9.64-11.06-10.36-18.74,0,0-13.65-1.04-11.34-17.26,0,0,11.68-31.69-23.06-36.36,0,0-32.05-2.78-45.03-3.07,0,0-24.21.48-34.75-7.86,0,0-7.21-4.54-17.52-1.79,0,0-22.96,6.62-38.89.03,0,0-18.01-8.6-35.38,5.32,0,0-10.29,9.14-5.1,20.11,0,0,3.91,10.33,6.25,12.41,0,0,5.57,8.46,3.76,15.23,0,0-1.35,3.49-3.49,7.05,0,0-6.95,12.94-1.07,14.8,0,0,8.2,1.32,9.94,7.3,0,0,1.16,9.74,5.49,11.48,0,0,5.37,3.76,7.65,7.71,0,0,11.4,19.74,15.29,20.93,0,0,1.1.55,3.1,1.13h0Zm-43.1-17.69c2.17-1.56,5.67-4.9,5.05-10.11,0,0-.89-3.11-1.39-3.97,0,0-1.15-2.2-.9-5.32,0,0,1.07-6.68-6.49-6.09,0,0-5.43-.87-8.54,8.59-.26,1.24-.4,2.36-.5,3.44,4,4.72,8.26,9.21,12.76,13.46h0Zm-18.26-20.56c2.16-2.24,4.4-5.19,5.56-8.79,0,0,1.04-7.12,3.73-11.77,0,0,7.07-11.75,5.52-18.98,0,0-3.21-15.08-14.72-22.52,0,0-15.54-8.08-27.65,2.46,0,0-.44.77-.73,1.27,1.55,5.96,3.43,11.83,5.64,17.58,1.43-.69,2.67-1.98,3.38-4.29,0,0,.93-14.84,10.74-9.75,0,0,12.69,3.55,14.72,14.39,0,0,.43,11.28-7.13,13.61,0,0-7.31,2.4-15.83-.46,4.7,9.6,10.32,18.73,16.77,27.25h0Zm77.73-34.88s16.91,3.51,19.54,4.42c8.22,3.02,11.31-.87,11.31-.87,10.64-6.79,19.27-2.23,19.27-2.23,5.57.67,12.18,7.37,12.18,7.37.71.4,4.57,2.86,6.12-.62,0,0,5.15-6.21.67-8.64,0,0-16.24-9.07-25.24-11.48,0,0-15.6-6.85-22.29-1.05,0,0-13.9,9-23.15,9.8,0,0-5.35.82,1.58,3.29h0Zm177.54,45.23c2.68-2.93,5.26-5.95,7.73-9.06-6.84-10.83-.38-28.83-.38-28.83,8.46-26.17-7.77-43.58-7.77-43.58-10.83-19.15-48.05-29.71-49.62-29.26-24.17-6.19-38.13-13.7-38.13-13.7-12.85-4.02-25.15-28.51-25.15-28.51-10.68-12.15-8.84-31.97-8.84-31.97,4.45-22.02,14.58-26.27,14.58-26.27,16.67-12.37,33.42-9.91,33.42-9.91,17.75-.18,53.16,12.79,53.16,12.79,13.47,3.9,12.92,16.81,12.92,16.81-1.47,6.57.74,12.39.74,12.39,1.24,31.09-18.86,37.75-18.86,37.75-13.4,7.9-29.38-7.16-29.38-7.16-12.27-10.88-11.86-23.49-11.86-23.49-.33-6.04,6.12-8.31,6.43-8.74,5.76-5.74,2.44-10.22,2.44-10.22-.53-1.48-.25-4.07-.25-4.07.44-4.3,8.13-2.34,8.13-2.34,11.82,1.83,15.56,6.63,15.56,6.63,4.16,3.99-.55,12.78-.55,12.78-2.25,6.48-6.79,10.8-6.79,10.8-3.55,3.67-6.1-.61-6.1-.61-.47-.54-1.39-4.38-1.39-4.38-.47-2.08-2.63-.91-2.63-.91-5.81,2.55-2.73,7.89-2.73,7.89,1,6.22,5.69,4.81,5.69,4.81,3.85-2.87,7.75-.59,7.75-.59,7.1,1.08,12.1-5.38,12.1-5.38,2.07-3.14,6.46-6.48,6.46-6.48,7.22-6.27,6.98-17.62,6.98-17.62-.28-15.05-34.79-15.68-34.79-15.68-7.35-.12-17.61-1.64-17.61-1.64-8.63-1.49-9.88,12.34-9.88,12.34-.51,4.99-4.62,14.97-4.62,14.97-1.98,3.57-4.97,12.42-4.97,12.42-7.18,32.14,13.68,41.63,13.68,41.63l27.82,9.51c23.34,7.08,30.66,3.5,30.66,3.5,18.2-4.36,27.93-31.51,27.93-31.51,8.29-21.21,7.48-41.75,6.55-50.81-14.71-24.41-35.47-44.61-60.27-58.65-15.81,11.38-43.69,18.31-43.69,18.31-18.3,8.74-29.15,6.75-29.15,6.75-15.28-3.48-26.64,17.49-26.64,17.49-6.52,10.56-12.47,11.74-12.47,11.74-5.71-.37-13.02,18.27-13.02,18.27-.86,6.45-5.95,17.85-5.95,17.85-6.53,24.37,9.12,43.94,9.12,43.94,12.48,14.08,33.08,9.74,33.08,9.74,8.8-1.42,21.4,1.38,21.4,1.38,35.6,5.77,66.81,22.54,66.81,22.54,11.19,5.9,21.33,9.2,21.33,9.2,19.69,5.57,10.21,23.63,10.21,23.63-5.02,15.49,4.28,28.43,4.28,28.43,6.71,9.63,5.96,17.85,5.96,17.85.03,2.21.27,4.73.57,7.22h0Zm-223.61-61.36c-2.25-.43-4.44-1.73-6.04-4.6,0,0-4.87-13.21,2.7-14.67,0,0,15.48-5.7,28.63-1.15,2.85-.67,8.45,3.7,8.45,3.7,6.1,3.28,10.82,2.49,10.82,2.49,0,0-9.75,4.98-19.88,6.78,0,0-10.84,1.4-14.51,5.14,0,0-5.23,3.26-10.17,2.31h0Zm-63.18-22.71c3.47.38,7.47.11,12.01-1.26,0,0,18.67-2.54,27.21-12.73,0,0,5.5-7.53,6.45-11.05,0,0,3.26-7.83,14.04-10.17,0,0,19.42-10.76,23.59-19.8,0,0,3.66-7.14,4.08-11.97,0,0,.62-8.83,7.42-12.52,0,0,5.52-13.03.55-20.46,0,0-9.45-15.21-2.64-31.44,0,0,7.83-16.98,1.76-24.97,0,0-5.15-8.36-17.37-11.02l-.08-.04c-8.32,5.06-16.18,10.85-23.48,17.29,1.01,2.16,2.8,4.29,5.84,6.1,0,0,2.12,5.08,1.49,8.2,0,0,1.34,14.93,5.52,17.69,0,0,3.72,4.48,2.3,12.11,0,0-.67,10.91,1.04,17.52,0,0,4.52,11.47-10.51,21.6,0,0-7.86,7.13-10.03,10.65,0,0-7.36,8.29-15.01,8.5,0,0-7.42.89-10.59,3.52,0,0-8.11,5.01-12.65-2.56,0,0-4.87-7.99-10.08-11.49-3.72,19.23-4.01,38.96-.84,58.29h-.01Zm62.71-24.1l8.86-.91c11.25-2.94,23.83,1.46,23.83,1.46,11.05,3.17,20.22,1.11,20.22,1.11-9.39-4.77-8.07-12.01-8.07-12.01,1.2-6.04-2.61-10.96-2.61-10.96-6.02-4.28-1.68-19.74-1.68-19.74-10.08,16.18-40.55,41.06-40.55,41.06h0Zm255.7,56.42c1.94-5.14,3.63-10.38,5.06-15.69.13-.55.25-1.1.37-1.65-3.83-1.82-9.64-5.36-10.44-10.49,0,0-.78-2.46,0-6.15,0,0,1.17-6.66-4.46-9.4,0,0-8.4-6.97,0-19.91,0,0,7.53-10.69,19.33-10.86-.55-6.06-1.44-12.08-2.65-18.03-8.19,4.97-18,12.79-23.38,24.02,0,0-10.64,15.21-4.45,30.41,0,0,4.59,12.73,5.76,20.63,0,0,3.39,11.35,14.86,17.12h0ZM-28.39,767.13c1.46.26,3.34-.06,5.74-1.55,0,0,16.25-9.72,18.68-10.67,0,0,12.64-3.86,11.71-19.35,0,0-1.92-9.08-3.42-12.67,0,0-2.81-8.44-1.86-12.54,0,0,2.29-7.95-4.37-11.33,0,0-7.92-4.65-14.14-4.4-2.31,2.88-4.53,5.83-6.65,8.85.54.36,1.13.73,1.9,1.09.67.18,6.3,1.4,9.14,2.16,0,0,5.8,1.12,4.8,5.93,0,0,2.16,12.48,3.48,15.15,0,0,2.11,7.83-4.58,11.69,0,0-10.22,6.69-13.76,11.26,0,0-4.91,6.96-5.72.79,0,0,1.7-7.96,1.53-12.22,0,0-1.12-6.68,1.77-8.23,0,0,4.49-4.31,10.19-1.77,0,0-3.3-7.71-8.88-5.86,0,0-7.54,1.03-9.53,11.23,0,0-.34,8.32-1.46,11.94,0,0-2.14,5.81-.93,8.89l2.01,7.65s1.15,3.39,4.35,3.97h0Zm304.59,55.15c1.37-9.59,1.89-19.28,1.57-28.97-3.19.14-6.63,1.08-8.41,4.2,0,0-4.43,15.45,6.84,24.76h0Zm-225.88-106.28c1.02.25,2.04-.84,2.04-.84,2.85-3.75,8.59-4.47,8.59-4.47,8.73-1.97,13.89-9,13.89-9,2.86-4.57,11.98-8.69,11.98-8.69,9.6-7.48-3.88-10.07-3.88-10.07,0,0-10.5-1.38-18-7.08,0,0-8.28-5.09-10.74-7.39-4.35-1.37-2.36,3.47-2.36,3.47,2.81,4.04,2.14,9.6,2.14,9.6.5,4.24-2.46,9.19-2.46,9.19-3.04,3.7-3.54,7.87-3.54,7.87-1.36,4.36.71,14.97.71,14.97.4,1.65,1.02,2.29,1.64,2.44h0Zm31.58-52.7c4.05.98,7.55,1.47,7.55,1.47,9.46.69,20.95,3.77,20.95,3.77,14.43,5.1,24.36-5.17,24.36-5.17,9.16-7.39,15.6-6.9,15.6-6.9,15.03-1.72,13.75-11.5,13.75-11.5l-.07-3.02c-2.92-1.03-5.86-1.98-8.83-2.85-3.78-1.01-7.58-1.89-11.42-2.63.47,2.98.9,6-.39,8.5,0,0-1.15,5.03-6.79,3.92,0,0-7.51.45-9.9,5.56,0,0-2.9,6.2-13.07,5.12,0,0-7.66-2.06-13.13-.03,0,0-12.34,4.7-23.89-5.79,0,0-9.08-3.74-4.13-15.23-5.61,1.39-11.15,3.08-16.59,5.06-.35.83-.69,1.62-1.02,2.5,1.52,12.72,5.91,8.56,5.91,8.56,5.08.95,12.08,5.5,12.08,5.5,1.38.78,3.11,1.46,4.92,2.04,1.36.44,2.77.82,4.12,1.14h0Zm20.68-14.1c5.18,1.24,11.14,1.96,14.26-.08,0,0,7.56-.64,6.95-6.76,0,0,1.97-3.25-4.28-8.55-11.36-.49-22.73.19-33.95,2.02.79,1.44,1.34,3.53,1.5,6.54,0,0,.05,2.88,5.95,3.85,0,0,4.41,1.75,9.58,2.98h0Z"/>
        <path id="path31795-4-0-8-8-2-5-4-2-4" class="cls-36" d="m-3.75,681.44c-31.47,31.11-49.2,73.51-49.22,117.76,0,91.52,74.19,165.7,165.7,165.71,74.65-.09,140.03-50.08,159.67-122.1-30.96,33.83-74.69,53.13-120.55,53.21-90.46,0-163.79-73.33-163.79-163.79h0c.04-17.26,2.8-34.4,8.18-50.79h0Z"/>
      </g>
    </g>
  </g>
</svg>