<svg xmlns="http://www.w3.org/2000/svg" width="73" height="81" fill="none" xmlns:v="https://vecta.io/nano"><style><![CDATA[.B{fill-rule:evenodd}.C{fill:#194145}.D{fill:#173c3f}]]></style><path d="M49.163 45.799s5.558 16.133-3.567 27.004c0 0-.884.937 1.326.269 0 0 3.803-1.747 8.736-10.381 0 0 4.214-9.764 4.214-15.725 0 0-.308-3.083-5.242-2.981 0 0-5.467-.858-5.467 1.814z" class="B C"/><path d="M62.496 59.333c3.803 0 6.886-2.876 6.886-6.424s-3.083-6.424-6.886-6.424-6.886 2.876-6.886 6.424 3.083 6.424 6.886 6.424z" class="D"/><path d="M37.147 76.712c7.95 0 14.394-9.203 14.394-20.556S45.097 35.6 37.147 35.6s-14.394 9.203-14.394 20.556 6.445 20.556 14.394 20.556z" fill="#bcb9a8"/><path d="M45.398 55.362c-.436.073-8.358 2.762-9.012 2.762s-8.576-1.017-8.867-1.163-3.925-1.454-3.925-1.454l-.833 1.151a28.68 28.68 0 0 0 .677 5.809l1.682.453 1.381 5.596 7.268 1.236 2.544-4.506s6.032-.218 7.558-1.163l3.997 3.997 1.291-.51c.974-2.112 1.667-4.463 2.044-6.934-.238-.49-.506-.95-.792-1.277-1.017-1.163-4.578-4.07-5.015-3.997z" fill="#a6a390"/><path d="M40.906 69.026c-2.364.822-5.345.411-5.345.411l-2.261 3.7-4.748-.485c2.48 2.647 5.492 4.082 8.589 4.091 3.067-.008 6.052-1.416 8.519-4.016l-2.288.102-2.467-3.803z" fill="#d5d3c7"/><g class="B"><path d="M24.707 45.156s-5.622 16.197 3.504 27.067c0 0 .947.874-1.262.206 0 0-3.803-1.747-8.736-10.381 0 0-4.214-9.764-4.214-15.725 0 0 .308-3.083 5.242-2.981 0 0 5.467-.859 5.467 1.814z" class="C"/><path d="M50.993 16.179c9.353 8.428 8.428 19.836 8.428 19.836.206 6.681-5.131 8.184-5.131 8.184-10.72 3.161-13.954-2.58-13.954-2.58-1.145-1.726-2.271-2.762-2.271-2.762-1.126-1.108-2.998-1.126-2.998-1.126-2.889-.054-3.852 2.398-3.852 2.398s-5.414 12.209-14.862 6.904c0 0-6.164-3.824-4.622-17.596 0 0 .514-9.867 10.997-15.931 0 0 9.25-4.831 18.398-1.85 0 0 7.708 2.056 9.867 4.522z" fill="#004f53"/></g><path d="M20.341 45.463c5.479 0 9.92-4.376 9.92-9.775s-4.441-9.775-9.92-9.775-9.92 4.376-9.92 9.775 4.442 9.775 9.92 9.775z" class="D"/><path d="M34.424 13.53c10.32-.218 16.279 6.831 16.279 6.831-1.89-.945-4.869-.145-4.869-.145-4.396-3.109-10.974-2.779-10.974-2.779-8.648 0-12.21 5.178-12.21 5.178-.218-.073-1.962-1.308-2.98-1.381 0 0 5.451-7.486 14.753-7.704z" class="B C"/><use href="#B" class="D"/><path d="M19.453 43.778c6.001 0 10.865-4.864 10.865-10.865s-4.864-10.865-10.865-10.865S8.588 26.912 8.588 32.913s4.864 10.865 10.865 10.865z" fill="#d6d4c8"/><g class="B"><path d="M30.925 40.32c-4.163 6.886-12.385 6.218-12.385 6.218s.378.756.865 1.599c6.585 1.399 10.68-5.656 11.661-7.577-.082-.144-.141-.24-.141-.24z" class="C"/><path d="M22.308 22.436s-8.582 8.942-4.831 21.121c0 0-2.878-1.439-3.289-2.21s-3.443-7.349-3.289-8.12 1.233-4.574 1.901-5.55 1.85-3.237 2.415-3.854 1.645-2.107 2.364-2.261-.026.694-.026.694 2.055-.578 4.753.18z" fill="#aaa89e"/></g><g class="D"><use href="#B" x="25.001" y="-2.131"/><path d="M46.815 40.529c5.398 0 9.775-4.376 9.775-9.775s-4.376-9.775-9.775-9.775-9.775 4.376-9.775 9.775 4.376 9.775 9.775 9.775z"/></g><path d="M37.377.501a.91.91 0 0 0-.778.522L34.16 6.231c-2.385.092-4.755.496-7.044 1.175L22.87 2.997a.91.91 0 0 0-1.069-.178L16.22 5.675a.91.91 0 0 0-.47 1.019l1.426 6.004c-1.685 1.372-3.212 2.934-4.544 4.65l-6.536-.991a.91.91 0 0 0-.939.471l-2.779 5.215a.91.91 0 0 0 .189 1.099l4.977 4.545a28.68 28.68 0 0 0-.857 5.55L.553 36.094a.91.91 0 0 0-.51.989l1.121 6.078a.91.91 0 0 0 .772.736l6.476.878c.705 1.911 1.613 3.744 2.705 5.463l-1.744 3.243-.825 1.501-.253.443-.029.047a.85.85 0 0 1 .146-.125 1.02 1.02 0 0 0-.37.709c-.006.188.032.284.058.354.051.141.09.189.123.239.067.1.122.164.19.243l.518.555 1.548 1.527 2.281 2.168a.91.91 0 0 0 1.059.133l5.198-2.855a28.69 28.69 0 0 0 6.21 3.25l.885 5.883a.91.91 0 0 0 .763.764l6.018.912a.91.91 0 0 0 .95-.492l2.618-5.238c2.435-.105 4.851-.533 7.181-1.248l4.047 4.288a.91.91 0 0 0 1.072.187l5.577-2.83a.91.91 0 0 0 .476-1.008l-1.321-5.96c1.626-1.341 3.101-2.859 4.394-4.523l6.577.997a.91.91 0 0 0 .939-.472l2.783-5.242a.91.91 0 0 0-.193-1.101l-5.01-4.535c.483-1.882.773-3.811.866-5.751l6.126-2.916a.91.91 0 0 0 .503-.985l-1.045-5.685a.91.91 0 0 0-.758-.735l-6.547-.992a28.69 28.69 0 0 0-2.727-5.508l2.982-5.415a.91.91 0 0 0-.153-1.081l-4.422-4.429a.91.91 0 0 0-1.085-.152l-5.223 2.905c-1.918-1.324-3.995-2.411-6.175-3.233l-.907-5.85v.015l-.321-.578c0 0-.12-.083-.12-.083s-.054-.029-.073-.038c-.077-.036-.102-.041-.124-.047l-.076-.02-.117-.023-.683-.114L37.559.51a.91.91 0 0 0-.181-.009h0zm-1.863 13.006c-.959-.011 2.005.096 1.048.038s1.998.194 1.045.089 1.986.292 1.039.14 1.97.389 1.031.191 1.948.486 1.02.242 1.922.581 1.007.292 1.891.674.992.341 1.856.766.974.389 1.816.857.954.436 1.772.944.931.482 1.723 1.03.906.527 1.671 1.114.879.571 1.614 1.194.85.614 1.553 1.272.819.655 1.489 1.347.786.694 1.421 1.418.751.732 1.35 1.486.714.768 1.276 1.55.676.802 1.198 1.611.635.834 1.117 1.668.594.864 1.034 1.721.551.892.948 1.77.506.918.86 1.814.46.942.77 1.854.414.963.678 1.89.366.983.585 1.921.317.999.49 1.947.268 1.014.394 1.969.218 1.026.297 1.986.167 1.035.199 1.998.116 1.042.101 2.005.065 1.046.002 2.008.014 1.048-.096 2.006-.038 1.048-.194 1.998-.089 1.045-.292 1.986-.141 1.039-.389 1.97-.191 1.031-.486 1.948-.242 1.02-.58 1.922-.291 1.007-.674 1.891-.341.992-.766 1.856-.389.974-.857 1.816-.436.953-.944 1.772-.482.931-1.03 1.723-.527.906-1.114 1.671-.571.879-1.194 1.614-.614.85-1.272 1.553-.655.819-1.347 1.489-.694.786-1.418 1.421-.732.751-1.486 1.35-.768.714-1.55 1.275-.802.676-1.611 1.198-.834.635-1.668 1.117-.864.593-1.721 1.034-.892.551-1.77.948-.918.506-1.814.861-.942.461-1.854.77-.963.414-1.89.678-.983.366-1.921.585-.999.317-1.947.49-1.014.268-1.969.394-1.026.218-1.986.297-1.035.167-1.998.199-1.042.116-2.005.101-1.047.065-2.008.002-1.049.014-2.005-.096-1.048-.038-1.998-.194-1.045-.089-1.986-.292-1.039-.14-1.97-.39-1.031-.191-1.948-.486-1.02-.242-1.922-.581-1.007-.291-1.891-.674-.992-.341-1.856-.766-.974-.389-1.816-.857-.954-.436-1.772-.944-.931-.482-1.723-1.03-.906-.527-1.671-1.114-.879-.571-1.614-1.194-.85-.614-1.553-1.272-.819-.655-1.489-1.347-.786-.694-1.421-1.418-.751-.732-1.35-1.486-.714-.768-1.275-1.551-.675-.802-1.198-1.611-.635-.834-1.117-1.668-.594-.864-1.034-1.721-.55-.892-.948-1.77-.506-.918-.861-1.814-.461-.942-.77-1.854-.414-.963-.678-1.89-.366-.983-.585-1.921-.317-.999-.49-1.947-.268-1.014-.394-1.969-.218-1.026-.297-1.986-.167-1.035-.199-1.998-.116-1.042-.101-2.005-.065-1.046-.002-2.008-.014-1.048.097-2.006.038-1.048.194-1.998.089-1.045.293-1.986.141-1.039.389-1.97.191-1.031.486-1.948.242-1.02.581-1.922.291-1.007.674-1.891.341-.992.766-1.856.389-.974.857-1.816.436-.954.944-1.771.482-.931 1.03-1.723.527-.906 1.114-1.671.571-.879 1.194-1.614.614-.85 1.272-1.554.655-.819 1.347-1.489.694-.786 1.418-1.421.732-.751 1.486-1.35.768-.714 1.551-1.275.802-.676 1.611-1.198.834-.635 1.668-1.117.864-.594 1.721-1.034.892-.55 1.77-.948.918-.506 1.814-.86.942-.46 1.854-.77.964-.414 1.89-.678.983-.366 1.921-.585.999-.317 1.947-.49 1.014-.268 1.969-.394 1.026-.218 1.986-.297 1.035-.167 1.998-.199 1.042-.116 2.005-.101 1.046-.065 2.008-.002 1.049-.013zm-27.268 42c-.027.038.002-.01 0 0h0z" fill="#5b6363"/><use href="#B" x="25.22" y="-0.299" fill="#d6d4c8"/><path d="M45.552 20.25s6.132 1.774 9.548 12.748c0 0 2.144.736 2.071-.572s-.291-3.852-.8-5.669-.218-3.561-1.889-5.16-4.447-.609-4.447-.609-2.244-.969-4.483-.738z" fill="#aaa89e" class="B"/><path d="M37.417 1.413l-2.686 5.734-.51-.006a27.75 27.75 0 0 0-7.388 1.291L22.21 3.631 16.63 6.488l1.556 6.551c-1.954 1.524-3.695 3.304-5.177 5.291L5.954 17.26l-2.779 5.215 5.376 4.909a27.75 27.75 0 0 0-.997 6.454L.932 36.922 2.053 43l7.01.95a27.75 27.75 0 0 0 3.098 6.26l-3.211 5.87c-.153.113 4.426 4.402 4.426 4.402l5.681-3.121a27.75 27.75 0 0 0 6.985 3.659l.963 6.401 6.018.912 2.867-5.736.406.005c2.591-.101 5.156-.565 7.618-1.377l4.428 4.692 5.577-2.83-1.44-6.496c1.89-1.495 3.577-3.23 5.018-5.161l7.095 1.075 2.783-5.242-5.412-4.899c.602-2.168.939-4.402 1.002-6.651l6.61-3.147-1.045-5.686-7.071-1.072c-.769-2.224-1.817-4.341-3.12-6.301l3.238-5.88-4.422-4.429-5.707 3.175a27.75 27.75 0 0 0-6.951-3.644l-.986-6.364s.004-.029-6.094-.953h0zm-2.923 13.02c5.421-.203 10.7 1.756 14.676 5.446s6.324 8.808 6.527 14.228a20.45 20.45 0 0 1-1.263 7.88c-.934 2.518-2.356 4.828-4.182 6.796s-4.024 3.559-6.465 4.679-5.079 1.748-7.763 1.848-5.362-.329-7.88-1.263a20.45 20.45 0 0 1-6.797-4.183c-1.969-1.827-3.559-4.024-4.679-6.465s-1.748-5.079-1.848-7.763a20.45 20.45 0 0 1 1.263-7.88c.934-2.518 2.356-4.828 4.183-6.796s4.024-3.559 6.465-4.678 5.079-1.748 7.763-1.848z" fill="#7c7d7f"/><path d="M38.561 38.854s-.113.138-.224.336c.395.403 1.196 1.274 2.013 2.506 0 0 3.234 5.741 13.954 2.58 0 0 .066-.02.163-.054-.182-.778-.487-1.668-.487-1.668s-7.246 2.004-11.46-.463c0 0-2.724-1.798-3.957-3.237z" class="B C"/><path d="M35.259 13.522a21.35 21.35 0 0 0-21.35 21.35 21.35 21.35 0 0 0 21.35 21.35 21.35 21.35 0 0 0 15.097-6.253 21.35 21.35 0 0 0 6.253-15.097 21.35 21.35 0 0 0-6.253-15.097 21.35 21.35 0 0 0-15.097-6.253zm0 1.437a19.91 19.91 0 0 1 14.081 5.832 19.91 19.91 0 0 1 5.833 14.081c0 5.281-2.098 10.346-5.833 14.081s-8.799 5.832-14.081 5.832-10.346-2.098-14.081-5.833-5.832-8.799-5.832-14.08 2.098-10.346 5.832-14.081 8.799-5.832 14.081-5.832z" fill="#5b6363"/><path d="M21.204 37.955c2.98 0 5.396-2.406 5.396-5.373s-2.416-5.373-5.396-5.373-5.396 2.406-5.396 5.373 2.416 5.373 5.396 5.373z" fill="#e5961c"/><path d="M21.244 36.539c2.221 0 4.021-1.793 4.021-4.005s-1.8-4.005-4.021-4.005-4.021 1.793-4.021 4.005 1.8 4.005 4.021 4.005z" fill="#1c0e02"/><path d="M17.998 32.025a1.29 1.29 0 0 0 1.291-1.286 1.29 1.29 0 1 0-2.582 0 1.29 1.29 0 0 0 1.291 1.286z" fill="#fefefe"/><path d="M46.195 35.055c2.88 0 5.214-2.325 5.214-5.192s-2.334-5.192-5.214-5.192-5.214 2.325-5.214 5.192 2.334 5.192 5.214 5.192z" fill="#e5961c"/><path d="M46.234 33.686c2.146 0 3.886-1.733 3.886-3.87a3.88 3.88 0 0 0-3.886-3.87c-2.146 0-3.886 1.732-3.886 3.87s1.74 3.87 3.886 3.87z" fill="#1c0e02"/><path d="M43.097 29.325c.689 0 1.248-.556 1.248-1.242s-.559-1.242-1.248-1.242-1.248.556-1.248 1.242.559 1.242 1.248 1.242z" fill="#fefefe"/><g class="B"><path d="M31.09 39.04s-.659.918-.119 2.216c0 0 1.192 3.578 4.481 6.096 0 0 .874.874 1.465-.36 0 0 1.876-4.676 1.747-7.657 0 0 .002-.54-.543-1.176 0 0-1.453-1.562-2.78-2.017 0 0-1.09-.472-2.126.436-.845.709-2.125 2.461-2.125 2.461z" fill="#e6961d"/><path d="M34.667 36.019a2.09 2.09 0 0 0-.391.034c.053 1.946.505 5.938 3.047 9.832.544-1.565 1.431-4.47 1.341-6.552 0 0 .002-.54-.543-1.176 0 0-1.454-1.563-2.78-2.017 0 0-.272-.118-.674-.123z" fill="#ffb93e"/><path d="M39.947 44.127c3.125 3.961 9.412 2.871 9.412 2.871-2.943 4.942-11.89 6.375-11.89 6.375-8.12.36-11.357-2.826-11.357-2.826s-.719-.565.257-1.696c0 0 4.111-2.981 4.728-4.368 0 0 1.645 3.032 4.214 4.214 0 0 1.259.771 1.567-.257 0 0 1.542-3.135 1.747-4.754 0 0 .948-.017 1.322.441z" fill="#d5d3c7"/><path d="M.054 51.604s-.462-3.392 1.388-4.008c0 0 5.601-1.439 11.665-1.028 0 0 3.392.231 4.677 1.028 0 0 1.721 1.208-.206 2.313 0 0-3.366 1.876-5.627 2.287 0 0 8.402-.129 9.893.18 0 0 3.52.745 1.619 2.621 0 0-1.85 1.773-3.16 2.57 0 0 4.625-.385 5.858-.026 0 0 2.18.465 1.108 2.373 0 0-2.707 4.597-8.685 6.141 0 0-3.307.836-6.268-.109 0 0-6.658-2.447-9.74-7.715 0 0-2.316-3.877-2.522-6.626zm63.537-4.448c-.106-.28-2.093-4.4-2.087-8.682 0 0-.078-3.138 1.744-2.584 0 0 3.325 1.51 7.672 9.815 0 0 2.095 3.485 1.601 5.812 0 0-.875 7.458-9.359 10.912 0 0-3.277 1.375-5.023-.395 0 0-2.343-2.797-2.975-7.223 0 0-.516-3.744 1.668-1.99 0 0 1.962 1.744 2.538 1.969 0 0 1.006.467.908-.364-.121-.095-1.926-5.773-2.116-7.068 0 0-.864-3.594 1.134-3.098 0 0 .951-.003 2.408 1.801 0 0 1.113 1.369 1.37 1.375 0 0 .561.409.516-.28z" fill="#004f53"/><path d="M29.124 72.601s1.054-.291 1.89.327c0 0 .836-.291 1.235.727 0 0 1.453 3.307-.327 5.487 0 0-1.199 1.635-2.326-.618 0 0 .254 1.417-.509 1.453 0 0-1.417.254-2.435-1.344 0 0-.509 1.108-1.835.527 0 0-1.871-.645-1.89-3.261 0 0 .327-2.416 2.78-3.089 0 0 .609-.163 1.272-.173 0 0 1.108-.654 2.144-.036zm15.298.761s1.485-.897 2.67-.246c0 0 .373-.334 1.118.167 0 0 2.094 1.516 2.158 3.88 0 0 .103 1.876-.938 2.081 0 0-1.092.411-1.67-1.246 0 0-.154 1.927-1.837 1.85 0 0-1.002.013-1.349-.938 0 0-.257 1.722-1.632 1.555 0 0-1.041.013-1.58-2.056 0 0-.604-2.158-.27-4.021 0 0 .499-2.024 2.066-1.587 0 0 .559.046 1.264.561z" fill="#e19525"/><path d="M26.073 74.171c-1.23 1.76-.823 3.536-.823 3.536-1.264-.286-1.951-1.012-2.322-1.658.079 2.505 1.886 3.13 1.886 3.13 1.326.581 1.835-.527 1.835-.527 1.017 1.599 2.435 1.344 2.435 1.344.763-.036.509-1.453.509-1.453 1.127 2.253 2.325.618 2.325.618 1.317-1.612.865-3.837.541-4.888-.141 1.38-.577 2.853-.577 2.853-.381 1.326-1.181 1.036-1.181 1.036-1.399-.4-1.145-4.86-1.145-4.86-.409 3.552-1.09 4.315-1.09 4.315-.691.418-1.599-.345-1.599-.345-1.217-1.889.064-3.806.064-3.806.864-.866-.346-.181-.858.707zm18.339-.386c.136 1.931.352 2.753-.249 4.818-.545.908-1.108.563-1.108.563-1.429-.862-1.689-3.761-1.72-5.381-.174.337-.246.627-.246.627-.334 1.863.27 4.021.27 4.021.54 2.068 1.58 2.056 1.58 2.056 1.375.167 1.631-1.554 1.631-1.554.347.951 1.349.938 1.349.938 1.683.077 1.837-1.85 1.837-1.85.578 1.657 1.67 1.246 1.67 1.246.675-.133.868-.967.921-1.538h-.007c-.4 1.199-1.308.436-1.308.436-.709-.618-1.272-3.47-1.272-3.47.236 1.871-.363 3.343-.363 3.343-.454.908-1.217.545-1.217.545-1.217-.581-1.522-4.037-1.522-4.037-.141-.484-.117-.546-.246-.762z" fill="#b87306"/><g class="D"><path d="M.121 49.443c-.223 1.071-.07 2.194-.07 2.194.206 2.749 2.522 6.626 2.522 6.626 3.082 5.268 9.739 7.715 9.739 7.715 2.961.945 6.268.109 6.268.109a15.08 15.08 0 0 0 8.469-5.814c-4.833 4.367-10.865 4.165-10.865 4.165C2.855 62.882.851 53.717.121 49.443zm15.899-2.459c.133.071 2.036 1.11.703 2.058 0 0-3.706 3.089-10.393 2.907 2.892.436 5.785.218 5.653.256 2.261-.411 5.627-2.287 5.627-2.287 1.927-1.105.206-2.312.206-2.312-.431-.267-1.099-.469-1.795-.622zm5.819 5.395a1.96 1.96 0 0 1 .444 1.024s0 1.671-3.452 3.379c0 0-3.888 1.599-6.359 1.708 0 0 4.258-.16 7.871-.92 1.31-.799 3.152-2.564 3.152-2.564 1.901-1.876-1.619-2.621-1.619-2.621-.011-.002-.025-.004-.037-.006h0z"/><path d="M24.842 57.386c.507.137 1.804.617 1.351 2.419 0 0-.312 1.693-3.885 3.39 0 0 .385.58.737.907 2.915-1.894 4.274-4.198 4.274-4.198 1.072-1.908-1.108-2.373-1.108-2.373-.297-.087-.792-.129-1.369-.145zm46.831-10.194c.327 2.128.138 3.12.138 3.288-.908 5.196-6.577 9.411-6.577 9.411-2.653 2.18-5.16 1.563-5.16 1.563-3.452-1.126-4.379-7.104-4.379-7.104-.127-1.562 1.097-1.56 1.097-1.56l-.05-.039c-2.082-1.585-1.582 2.054-1.582 2.054.633 4.426 2.975 7.223 2.975 7.223 1.746 1.77 5.023.395 5.023.395 8.483-3.454 9.359-10.912 9.359-10.912.287-1.354-.301-3.096-.844-4.319zm-8.901-11.377c-1.344.071-1.28 2.648-1.28 2.648-.007 4.282 1.98 8.401 2.087 8.682.02.299-.075.391-.188.4.98 1.634 1.765 2.476 1.765 2.476s-2.724-8.171-2.313-11.511c0 0 .059-1.553 2.241-1.193-1.159-1.122-1.849-1.437-1.849-1.437a1.35 1.35 0 0 0-.464-.064zm-3.886 8.348c-1.551-.014-.792 3.145-.792 3.145.19 1.295 1.995 6.973 2.116 7.068.035.299-.074.429-.227.473.921 1.457 1.662 2.163 1.662 2.163s-2.58-8.467-2.725-11.156c0 0 .039-1.423 1.531-1.048-.765-.599-1.222-.599-1.222-.599-.125-.031-.239-.046-.342-.047z"/></g></g><path d="M37.519 3.154l-2.671 5.742-.507-.006c-2.496.094-4.967.529-7.346 1.293l-4.597-4.807-5.549 2.861 1.547 6.56c-1.943 1.527-3.674 3.308-5.147 5.298l-7.015-1.071-2.763 5.223 5.345 4.916a27.97 27.97 0 0 0-.992 6.463l-6.584 3.087 1.115 6.087 6.97.952c.761 2.212 1.796 4.318 3.081 6.269l-3.193 5.878c-.152.113 4.401 4.408 4.401 4.408l5.649-3.125c2.13 1.548 4.469 2.782 6.945 3.664l.957 6.41 5.984.913L36 64.422l.404.005a27.42 27.42 0 0 0 7.575-1.379l4.403 4.698 5.545-2.834-1.432-6.505c1.879-1.497 3.557-3.235 4.99-5.168l7.055 1.077 2.767-5.249-5.381-4.906a27.97 27.97 0 0 0 .996-6.66l6.573-3.152-1.039-5.693-7.031-1.073a27.87 27.87 0 0 0-3.102-6.31l3.22-5.888-4.397-4.435-5.675 3.179a27.53 27.53 0 0 0-6.912-3.649l-.981-6.373s.004-.029-6.059-.955zm-2.906 13.038c5.39-.203 10.639 1.759 14.593 5.453s6.288 8.82 6.49 14.248c.1 2.688-.327 5.369-1.256 7.891s-2.342 4.834-4.159 6.806a20.34 20.34 0 0 1-6.428 4.685 20.22 20.22 0 0 1-7.719 1.851 20.21 20.21 0 0 1-7.835-1.265c-2.504-.936-4.8-2.359-6.758-4.188s-3.538-4.029-4.652-6.474a20.6 20.6 0 0 1-1.838-7.774c-.1-2.688.327-5.369 1.256-7.891s2.342-4.834 4.159-6.806 4.001-3.563 6.428-4.685a20.22 20.22 0 0 1 7.719-1.851z" fill="#7c7d7f"/><defs ><path id="B" d="M21.014 39.426a9.45 9.45 0 0 0 9.448-9.448 9.45 9.45 0 0 0-9.448-9.448 9.45 9.45 0 0 0-9.448 9.448 9.45 9.45 0 0 0 9.448 9.448z"/></defs></svg>