<svg width="73" height="85" viewBox="0 0 73 85" fill="none" xmlns="http://www.w3.org/2000/svg">
<g clip-path="url(#clip0_5260_112008)">
<path d="M38.8165 79.3935C46.4872 77.2463 50.3498 67.0922 47.4439 56.7136C44.5379 46.335 35.9639 39.6622 28.2933 41.8094C20.6226 43.9566 16.76 54.1107 19.6659 64.4893C22.5718 74.8679 31.1458 81.5407 38.8165 79.3935Z" fill="#BCB9A8"/>
<path d="M36.277 48.0791C37.4304 54.0712 35.8343 57.4025 35.8343 57.4025C35.6727 57.6283 35.4225 57.5708 35.4225 57.5708C32.9054 57.6482 31.1808 52.2848 29.8371 51.3817C28.9228 56.0589 25.177 59.6515 26.4588 64.2734C28.2166 70.5842 34.4329 74.3716 40.346 72.7313C46.2569 71.0933 49.7724 63.8993 48.0147 57.5885C45.3382 55.6406 41.2648 55.6738 36.277 48.0791Z" fill="#D5D3C7"/>
<path fill-rule="evenodd" clip-rule="evenodd" d="M47.3432 46.672C52.4637 52.83 52.1626 59.65 52.1626 59.65C51.7265 67.7294 46.8428 74.7175 46.8428 74.7175C46.2208 75.5985 45.6031 75.6516 45.6031 75.6516C44.8083 75.6362 45.1758 74.8238 45.1758 74.8238C45.3197 74.3501 46.3381 67.3708 46.3381 67.3708C47.8988 61.0688 45.2445 54.0829 45.2445 54.0829C43.9272 50.6276 40.9386 48.2635 40.9386 48.2635C40.9386 48.2635 39.9955 47.6504 40.4981 46.9531C40.4981 46.9531 44.5538 44.2681 47.3454 46.672H47.3432Z" fill="#194145"/>
<path fill-rule="evenodd" clip-rule="evenodd" d="M29.8337 78.5488C29.8337 78.5488 30.2122 78.6993 30.1613 79.4431C30.1613 79.4431 30.0462 81.5836 31.3878 82.925C31.3878 82.925 32.0873 83.7351 32.8378 82.6018C32.8378 82.6018 33.13 82.3052 33.0194 81.2715C33.0194 81.2715 33.7145 82.4181 34.7196 82.5531C34.7196 82.5531 35.6272 82.8342 36.1098 81.7341C36.1098 81.7341 36.8205 82.4424 37.3894 81.9311C37.3894 81.9311 38.1222 81.5105 37.9495 80.2599C37.9495 80.2599 37.6086 78.8963 36.7076 77.9246C36.7076 77.9246 36.2515 77.4199 35.4833 77.141C35.4833 77.141 34.2746 76.7669 33.9492 77.4487C33.9492 77.4487 33.5108 77.048 32.539 77.3468C32.539 77.3468 31.8195 77.5261 31.7995 78.0928C31.7995 78.0928 31.0623 77.2915 30.1613 77.8095C30.1613 77.8095 29.5016 78.1017 29.8337 78.551V78.5488Z" fill="#FAB84A"/>
<path fill-rule="evenodd" clip-rule="evenodd" d="M18.1717 56.6404C18.1717 56.6404 16.2567 63.8012 19.5442 70.1895C19.5442 70.1895 22.6148 76.8036 27.4608 78.3575C27.4608 78.3575 28.8622 78.7758 29.2717 78.7471C29.2717 78.7471 30.2414 78.9241 30.3897 77.8528C30.3897 77.8528 30.3034 73.335 30.7284 72.0489C30.7284 72.0489 31.3616 69.6339 31.3151 66.4951C31.3151 66.4951 31.0915 61.2933 28.3331 57.4882C28.3331 57.4882 26.3451 54.7545 23.87 53.6676C19.6439 51.2549 18.1695 56.6426 18.1695 56.6426L18.1717 56.6404Z" fill="#194145"/>
<path fill-rule="evenodd" clip-rule="evenodd" d="M29.6813 60.0164C32.2272 65.5502 30.9941 70.2407 30.9941 70.2407C29.958 73.3419 28.2446 74.2074 28.2446 74.2074C26.6019 75.5267 24.8176 74.2384 24.8176 74.2384C20.8283 71.9452 19.9583 67.6177 19.9583 67.6177C18.1961 62.0883 21.7205 59.1066 21.7205 59.1066C21.7205 59.1066 23.4207 58.2765 26.2123 58.9804C26.2123 58.9804 28.7072 58.3363 29.6791 60.0186L29.6813 60.0164Z" fill="#225054"/>
<path fill-rule="evenodd" clip-rule="evenodd" d="M46.3411 67.3563C46.3411 67.3563 46.5116 69.7181 48.4531 68.0248C48.4531 68.0248 49.135 67.1659 49.746 65.2977C49.746 65.2977 51.165 61.6166 50.6094 57.6211C50.6094 57.6211 50.3282 54.4535 47.2798 52.5809C47.2798 52.5809 46.7839 52.1692 45.584 52.0386C45.584 52.0386 44.3266 52.0386 44.8889 53.2826C47.6938 59.558 46.3389 67.3563 46.3389 67.3563H46.3411Z" fill="#225054"/>
<path fill-rule="evenodd" clip-rule="evenodd" d="M40.1448 77.6532C40.1448 77.6532 40.4436 79.0743 40.5167 79.3886C40.5167 79.3886 40.7248 80.4865 41.5284 80.6127C41.5284 80.6127 42.5202 80.8672 42.9895 79.6918C42.9895 79.6918 43.1445 78.7998 42.8545 77.9055C42.8545 77.9055 43.1024 78.045 43.4146 78.864C43.4146 78.864 43.8285 79.7516 44.4528 79.6343C44.4528 79.6343 45.3981 79.6232 45.4978 78.4257C45.4978 78.4257 45.5642 77.9608 45.4446 77.6332C45.4446 77.6332 45.9427 78.7201 46.4763 78.7821C46.4763 78.7821 47.395 78.9724 47.6916 77.8325C47.6916 77.8325 47.9329 76.8452 46.7906 75.5481C46.7906 75.5481 46.0025 74.7224 45.0329 74.6007C45.0329 74.6007 43.5695 74.4634 43.4278 75.506C43.4278 75.506 42.9452 75.1253 42.2191 75.3267C42.2191 75.3267 41.5859 75.4042 41.369 75.8823C41.369 75.8823 40.9196 75.5746 40.5831 75.6676C40.5831 75.6676 39.8924 75.692 39.8857 76.376C39.8857 76.376 39.9079 76.5973 40.0031 76.9448C40.0031 76.9448 40.1425 77.5447 40.1425 77.6554L40.1448 77.6532Z" fill="#FAB84A"/>
<path fill-rule="evenodd" clip-rule="evenodd" d="M37.7092 79.5646C37.8089 80.3438 37.2001 80.4633 37.2001 80.4633C36.5957 80.6006 36.3522 80.0095 36.3522 80.0095C35.6947 78.0749 34.2933 77.1519 34.2933 77.1519C34.0365 77.2227 33.9945 77.4994 33.9945 77.4994C35.7744 78.6792 35.5862 80.6227 35.5862 80.6227C35.2851 81.3864 34.4217 80.906 34.4217 80.906C33.8019 80.6648 33.6181 79.7196 33.6181 79.7196C33.2639 78.5862 32.664 78.3892 32.664 78.3892C32.0352 78.0129 32.126 77.5547 32.126 77.5547C31.7696 77.8004 31.8338 78.0993 31.8338 78.0993C32.5333 79.3344 32.5998 80.1711 32.5998 80.1711C32.4359 81.6055 31.619 81.6453 31.619 81.6453C30.6981 81.8822 30.3594 81.0189 30.3594 81.0189C30.3594 81.0189 30.6272 82.4024 31.3667 82.9558C31.3667 82.9558 31.971 83.6132 32.6706 82.8318C32.6706 82.8318 33.1753 82.4843 33.0492 81.3576C33.0492 81.3576 33.9568 82.6326 34.9929 82.5927C34.9929 82.5927 35.8098 82.6215 36.1131 81.7605C36.1131 81.7605 36.682 82.2829 37.2023 82.0881C37.2023 82.0881 37.9129 81.8711 37.9837 80.8175C37.9837 80.8175 38.0413 80.1025 37.7137 79.5624L37.7092 79.5646Z" fill="#E89C23"/>
<path fill-rule="evenodd" clip-rule="evenodd" d="M40.0527 77.1625C40.0527 77.1625 40.5973 78.0147 40.7922 78.712C40.7922 78.712 41.0755 79.427 41.8238 79.2609C41.8238 79.2609 42.6008 79.241 42.4724 78.1343C42.4724 78.1343 42.4127 76.815 41.733 76.0823C41.733 76.0823 42.1426 75.551 42.8798 75.9871C42.8798 75.9871 43.4974 76.401 43.8029 77.4436C43.8029 77.4436 43.9734 78.1077 44.2811 78.3556C44.2811 78.3556 44.6486 78.8227 44.9652 78.2228C44.9652 78.2228 45.222 77.7978 44.9497 76.8194C44.9497 76.8194 44.6154 75.976 43.9867 75.5599C43.9867 75.5599 43.7874 75.4094 43.9114 75.3253C43.9114 75.3253 44.383 75.1061 44.7615 75.2965C44.7615 75.2965 45.5408 75.7901 46.1142 76.784C46.1142 76.784 46.3643 77.2953 46.7429 77.2688C46.7429 77.2688 47.0373 77.2422 47.1724 76.8017C47.1724 76.8017 47.3008 76.4807 47.2033 76.0934C47.2033 76.0934 47.6594 76.6401 47.7568 77.5897C47.7568 77.5897 47.7856 78.4729 47.1192 78.8072C47.1192 78.8072 46.3466 79.4181 45.5297 77.873C45.5297 77.873 45.7976 79.2322 44.9497 79.6085C44.9497 79.6085 44.1992 79.9361 43.8428 79.5421C43.8428 79.5421 43.4819 79.1702 43.3912 78.8404C43.3912 78.8404 43.1454 78.2095 42.8886 78.0236C42.8886 78.0236 43.2096 79.2454 42.9418 79.8807C42.9418 79.8807 42.6451 80.6909 41.8902 80.713C41.8902 80.713 41.0312 80.8237 40.646 79.8962C40.646 79.8962 40.4844 79.4978 40.4778 79.2919L40.055 77.1625H40.0527Z" fill="#E89C23"/>
<path fill-rule="evenodd" clip-rule="evenodd" d="M29.0811 47.3761C29.0811 47.3761 26.9337 55.3271 19.6281 58.57C19.6281 58.57 16.5797 60.374 11.1404 56.6442C11.1404 56.6442 5.80066 53.9835 5.54386 48.1508C5.54386 48.1508 4.58085 50.0036 5.14537 51.7656C5.14537 51.7656 5.50401 52.7174 4.41481 52.2636C4.41481 52.2636 -0.781004 47.6174 2.82087 41.5633C2.82087 41.5633 1.69404 41.7471 1.1915 42.6679C1.1915 42.6679 0.604843 43.8477 0.126659 42.5971C0.126659 42.5971 -1.11308 38.4268 4.16465 35.5027C4.16465 35.5027 0.438807 33.4839 2.69247 28.9971C2.69247 28.9971 4.71368 33.1585 9.67262 29.9312C9.67262 29.9312 7.10238 24.643 11.6761 20.9752C11.6761 20.9752 13.197 25.876 16.6926 24.9064C16.6926 24.9064 21.3527 23.6137 25.4172 15.8619C25.4172 15.8619 26.7632 18.2548 26.5596 20.7118C26.5596 20.7118 28.1668 17.6571 28.0473 15.9173C28.0473 15.9173 30.6662 17.4357 31.3171 20.3333C31.3171 20.3333 37.5556 19.0738 40.5974 14.7861C40.5974 14.7861 42.2621 17.1945 41.8393 20.1805C41.8393 20.1805 44.4206 19.3084 45.1423 16.0811C45.1423 16.0811 47.624 17.48 46.6256 21.409C46.6256 21.409 52.2951 20.3598 54.3606 25.5262C54.3606 25.5262 54.7901 26.5467 53.8957 26.3873C53.8957 26.3873 52.7136 25.9955 51.6952 26.1859C51.6952 26.1859 55.3635 27.804 55.9037 30.6816C55.9037 30.6816 56.6674 33.236 54.4691 34.7324C54.4691 34.7324 57.0128 38.0438 54.9894 42.0481C54.9894 42.0481 54.6285 43.0088 53.9267 42.0813C53.9267 42.0813 53.7695 41.7072 53.4618 41.8179C53.4618 41.8179 53.0102 45.2334 50.6968 47.4403C50.6968 47.4403 48.3081 51.2675 43.7543 50.1298C43.7543 50.1298 40.4867 50.5282 36.6612 45.4326C36.6612 45.4326 35.0673 43.5445 32.3022 43.0066C32.3022 43.0066 30.115 42.9756 29.0767 47.3761H29.0811Z" fill="#225054"/>
<path d="M49.097 38.843C51.7195 35.4527 50.5566 30.1607 46.4995 27.0232C42.4424 23.8856 37.0274 24.0905 34.4048 27.4809C31.7823 30.8712 32.9452 36.1631 37.0023 39.3007C41.0594 42.4383 46.4744 42.2334 49.097 38.843Z" fill="#1A4346"/>
<path d="M25.1023 38.4461C26.9478 33.6664 25.1984 28.5389 21.1949 26.9934C17.1914 25.448 12.4498 28.0698 10.6043 32.8495C8.75878 37.6292 10.5082 42.7567 14.5117 44.3022C18.5152 45.8476 23.2568 43.2258 25.1023 38.4461Z" fill="#1A4346"/>
<path d="M24.0496 43.0325C25.8951 38.2528 24.1457 33.1253 20.1422 31.5798C16.1386 30.0344 11.3971 32.6563 9.55155 37.4359C7.70604 42.2156 9.45545 47.3432 13.459 48.8886C17.4625 50.434 22.2041 47.8122 24.0496 43.0325Z" fill="#1A4346"/>
<path d="M24.5369 40.5852C26.3824 35.8055 24.633 30.678 20.6295 29.1326C16.6259 27.5871 11.8844 30.209 10.0389 34.9887C8.19335 39.7684 9.94276 44.8959 13.9463 46.4413C17.9498 47.9868 22.6914 45.3649 24.5369 40.5852Z" fill="#D6D4C8"/>
<path d="M45.8235 35.4573C48.4461 32.0669 47.2832 26.775 43.226 23.6374C39.1689 20.4998 33.754 20.7048 31.1314 24.0951C28.5088 27.4855 29.6718 32.7774 33.7289 35.915C37.786 39.0526 43.201 38.8476 45.8235 35.4573Z" fill="#1A4346"/>
<path d="M47.6409 37.0847C50.2635 33.6944 49.1005 28.4024 45.0434 25.2649C40.9863 22.1273 35.5714 22.3322 32.9488 25.7226C30.3262 29.1129 31.4891 34.4048 35.5463 37.5424C39.6034 40.68 45.0183 40.4751 47.6409 37.0847Z" fill="#D6D4C8"/>
<path d="M11.4458 21.1709C7.19307 24.8277 9.67476 29.9321 9.67476 29.9321C4.71582 33.1594 2.69461 28.998 2.69461 28.998C0.440948 33.4848 4.16679 35.5036 4.16679 35.5036C-1.11315 38.4277 0.126587 42.598 0.126587 42.598C0.60477 43.8486 1.19143 42.6688 1.19143 42.6688C1.69397 41.748 2.8208 41.5643 2.8208 41.5643C-0.781076 47.6183 4.41474 52.2645 4.41474 52.2645C5.50172 52.7183 5.1453 51.7665 5.1453 51.7665C4.58078 50.0045 5.54378 48.1518 5.54378 48.1518C5.80059 53.9844 10.9477 56.986 10.9477 56.986C16.5199 60.2842 19.6281 58.5709 19.6281 58.5709C26.9336 55.3281 29.081 47.377 29.081 47.377C29.5216 45.511 30.4624 44.6322 31.4011 44.236C30.9716 43.3284 30.3274 41.9826 30.1747 41.8166C29.9466 41.5643 29.1961 41.1415 28.3505 41.2189C27.5026 41.2964 26.9004 42.1243 26.9004 42.1243C26.9004 42.1243 27.766 50.1971 21.1976 54.5666C13.7216 59.0136 7.76866 52.4814 6.06624 46.1551C6.06624 46.1551 4.81323 46.6687 4.57192 47.4058C4.39924 46.786 3.05325 41.6949 5.2892 39.6562C5.2892 39.6562 3.34768 39.9174 2.78316 40.5859C2.78316 40.5859 3.24142 37.2678 6.24556 36.0016C6.24556 36.0016 4.93499 35.2623 4.60291 33.5025C4.60291 33.5025 9.42017 33.0731 11.034 30.2221C11.034 30.2221 8.08967 25.7994 11.4458 21.1731V21.1709Z" fill="#194145"/>
<path d="M40.5986 14.7842C40.5897 14.7975 40.5787 14.8107 40.5698 14.824V14.8395C41.8295 18.1554 40.6274 21.655 40.6274 21.655C45.2321 20.7962 45.1458 16.0813 45.1458 16.0813C44.4241 19.3064 41.8428 20.1786 41.8428 20.1786C42.2656 17.1925 40.6008 14.7842 40.6008 14.7842H40.5986ZM46.6312 21.3982L46.6091 21.4204C51.3821 21.8299 53.0889 25.2587 53.1753 25.4313C51.6787 25.0196 49.8324 26.4429 49.8324 26.4429C53.6313 28.455 54.3265 33.555 54.3265 33.555C53.7819 33.2053 52.6617 33.7941 52.6617 33.7941C54.8888 36.5765 54.4128 41.3865 54.4128 41.3865C53.6645 40.7025 52.0994 40.8021 52.0994 40.8021C50.2375 48.6978 42.8877 49.1118 38.7235 44.1446C38.7235 44.1446 36.7134 41.4419 33.8155 40.0119C33.8155 40.0119 33.6118 39.6777 33.2421 39.5581C32.8724 39.4386 32.3677 39.5294 32.2149 40.1846C32.0621 40.8398 31.2674 41.2847 31.1257 42.3826C31.0947 42.6173 31.1102 42.8585 31.1523 43.1042C32.3057 42.7478 32.3079 43.0068 32.3079 43.0068C35.0729 43.5447 36.6669 45.4329 36.6669 45.4329C40.4923 50.5284 43.7599 50.13 43.7599 50.13C48.3137 51.2678 50.7024 47.4406 50.7024 47.4406C53.0159 45.2337 53.4675 41.8182 53.4675 41.8182C53.7752 41.7075 53.9324 42.0816 53.9324 42.0816C54.6342 43.009 54.995 42.0484 54.995 42.0484C57.0184 38.0441 54.4748 34.7326 54.4748 34.7326C56.6731 33.2363 55.9093 30.6818 55.9093 30.6818C55.3692 27.8042 51.7009 26.1861 51.7009 26.1861C52.7214 25.9958 53.9014 26.3876 53.9014 26.3876C54.7958 26.5447 54.3685 25.5265 54.3685 25.5265C52.303 20.3601 46.6312 21.4093 46.6312 21.4093V21.3982Z" fill="#194145"/>
<path fill-rule="evenodd" clip-rule="evenodd" d="M25.4492 39.0313C25.4492 39.0313 25.7127 36.0363 27.6387 35.0602C27.6387 35.0602 28.8696 34.4072 30.1137 34.5577C30.1137 34.5577 32.6242 34.4625 34.2646 37.163C34.2646 37.163 34.5568 37.3689 34.4705 38.4624C34.4705 38.4624 35.1612 51.8366 35.1789 52.4586C35.1789 52.4586 35.1856 53.9682 34.3842 54.1542C34.3842 54.1542 33.4566 54.5415 32.6685 52.9699C32.6685 52.9699 26.7421 42.3648 26.3613 41.4551C25.2721 40.1137 25.4514 39.0335 25.4514 39.0335L25.4492 39.0313Z" fill="#FAB84A"/>
<path d="M21.1719 42.5923C24.0909 41.3461 25.4525 37.9826 24.2129 35.0796C22.9733 32.1766 19.602 30.8334 16.6829 32.0796C13.7639 33.3257 12.4023 36.6893 13.6419 39.5923C14.8815 42.4953 18.2528 43.8384 21.1719 42.5923Z" fill="#FAB84A"/>
<path d="M20.9016 41.9548C23.4686 40.8584 24.6657 37.9009 23.5754 35.3488C22.4852 32.7968 19.5205 31.6168 16.9535 32.7131C14.3866 33.8095 13.1895 36.7671 14.2797 39.3191C15.37 41.8711 18.3347 43.0511 20.9016 41.9548Z" fill="#CF7B14"/>
<path d="M20.5396 41.2296C22.7153 40.3004 23.7299 37.7936 22.8058 35.6306C21.8818 33.4675 19.3689 32.4673 17.1933 33.3966C15.0176 34.3258 14.003 36.8326 14.9271 38.9956C15.8511 41.1586 18.364 42.1588 20.5396 41.2296Z" fill="#201E1E"/>
<path d="M21.162 35.0436C21.8604 34.7459 22.1864 33.9411 21.8901 33.2461C21.5937 32.5511 20.7873 32.2291 20.0889 32.5268C19.3904 32.8246 19.0644 33.6293 19.3608 34.3243C19.6571 35.0193 20.4635 35.3413 21.162 35.0436Z" fill="#FEFEFE"/>
<path d="M40.8119 36.7695C43.7028 35.5354 45.0513 32.2043 43.8237 29.3295C42.5961 26.4546 39.2574 25.1245 36.3664 26.3586C33.4754 27.5928 32.127 30.9238 33.3546 33.7987C34.5821 36.6736 37.9209 38.0037 40.8119 36.7695Z" fill="#FAB84A"/>
<path d="M40.5451 36.1378C43.0873 35.052 44.273 32.123 43.1933 29.5957C42.1136 27.0685 39.1775 25.8999 36.6353 26.9857C34.0931 28.0715 32.9075 31.0004 33.9871 33.5277C35.0668 36.055 38.0029 37.2236 40.5451 36.1378Z" fill="#CF7B14"/>
<path d="M40.1825 35.4238C42.3368 34.5037 43.3411 32.0207 42.4257 29.8779C41.5103 27.7352 39.0218 26.744 36.8675 27.6641C34.7132 28.5842 33.7089 31.0672 34.6243 33.2099C35.5397 35.3527 38.0282 36.3439 40.1825 35.4238Z" fill="#201E1E"/>
<path d="M40.7985 29.2949C41.4902 29 41.813 28.2031 41.5196 27.5148C41.2261 26.8266 40.4275 26.5077 39.7358 26.8025C39.0441 27.0974 38.7213 27.8944 39.0147 28.5826C39.3082 29.2708 40.1068 29.5897 40.7985 29.2949Z" fill="#FEFEFE"/>
<path d="M25.4041 15.8887C25.4041 15.8887 25.393 15.9086 25.3886 15.9197C25.4107 16.2229 25.8003 22.1419 22.4619 24.6145C22.4619 24.6145 26.3693 23.3085 26.5553 20.6655C26.5619 20.6478 26.5619 20.6301 26.5663 20.6124C26.7036 18.556 25.7871 16.5793 25.5037 16.0281C25.4461 15.9462 25.4174 15.9064 25.4041 15.8909V15.8887Z" fill="#194145"/>
<path fill-rule="evenodd" clip-rule="evenodd" d="M20.441 55.5412C20.441 55.5412 15.6437 59.8266 14.5301 69.0482C14.5301 69.0482 13.5959 76.0962 20.4565 76.043C20.4565 76.043 23.7528 75.7531 26.3187 74.9429C26.3187 74.9429 29.3649 76.499 30.9278 74.0508C30.9278 74.0508 33.2523 75.9412 35.2115 73.6878C35.2115 73.6878 36.9782 71.8971 37.1597 69.8562C37.1597 69.8562 40.7129 68.9066 39.493 64.5725C39.493 64.5725 41.5895 62.7795 40.2524 60.4221C40.2524 60.4221 39.0481 58.193 35.8757 57.363C35.8757 57.363 31.251 56.3469 28.1694 58.8062C28.1694 58.8062 26.405 58.8549 25.3822 56.7874C25.3822 56.7874 24.1978 54.6027 23.7927 53.3564C23.7927 53.3564 22.0991 54.0958 20.441 55.539V55.5412Z" fill="#194145"/>
<path fill-rule="evenodd" clip-rule="evenodd" d="M25.4489 39.0313C25.4489 39.0313 25.7124 36.0363 27.6384 35.0602C27.6384 35.0602 28.8693 34.4072 30.1134 34.5577C30.1134 34.5577 32.6239 34.4625 34.2643 37.163C34.2643 37.163 34.5565 37.3689 34.4702 38.4624C34.4702 38.4624 35.1609 51.8366 35.1786 52.4586C35.1786 52.4586 35.1853 53.9682 34.3839 54.1542C34.3839 54.1542 33.4563 54.5415 32.6682 52.9699C32.6682 52.9699 26.7418 42.3648 26.361 41.4551C25.274 40.1137 25.4511 39.0335 25.4511 39.0335L25.4489 39.0313Z" fill="#FAB84A"/>
<path d="M35.785 62.1575C36.3841 62.1575 36.8697 61.6739 36.8697 61.0773C36.8697 60.4807 36.3841 59.9971 35.785 59.9971C35.1859 59.9971 34.7002 60.4807 34.7002 61.0773C34.7002 61.6739 35.1859 62.1575 35.785 62.1575Z" fill="#194145"/>
<path fill-rule="evenodd" clip-rule="evenodd" d="M33.4815 40.166C34.1966 43.6722 33.8911 49.0534 33.8911 49.0534C33.6011 52.2386 31.9739 49.5846 31.9739 49.5846C31.571 49.1751 27.502 41.9811 27.502 41.9811C27.502 41.9811 27.046 41.3037 27.8363 41.4189C27.8363 41.4189 30.9046 42.7536 32.7731 39.9712C32.7731 39.9712 33.1716 39.3381 33.4815 40.166Z" fill="#501616"/>
<path d="M31.3065 42.9576C30.421 43.2055 29.6594 43.8363 29.1016 44.7815C30.297 46.8645 31.7404 49.3458 31.9751 49.5871C31.9751 49.5871 33.6022 52.2411 33.8923 49.0559C33.8923 49.0559 34.0539 46.1672 33.8613 43.2453C32.9846 42.838 32.1079 42.7406 31.3065 42.9598V42.9576Z" fill="#9C3A3A"/>
<path d="M33.0987 36.8437C33.2943 36.2956 32.5633 35.5339 31.4659 35.1423C30.3685 34.7507 29.3203 34.8776 29.1247 35.4256C28.9291 35.9737 29.6601 36.7354 30.7575 37.127C31.8549 37.5186 32.9031 37.3917 33.0987 36.8437Z" fill="#FAD28E"/>
<path fill-rule="evenodd" clip-rule="evenodd" d="M33.7443 57.1588C32.1371 57.1433 29.9277 57.4244 28.1965 58.7946C27.7316 59.3657 27.5169 59.8527 27.5169 59.8527C20.5788 61.0148 18.2919 66.4645 18.2919 66.4645C16.3925 70.8031 19.8438 72.5628 19.8814 72.6337C22.8679 74.254 26.5716 71.6885 26.5716 71.6885C26.5716 71.6885 26.5384 69.7229 27.2269 68.5032C27.2269 68.5032 27.6209 70.6968 27.4992 71.217C27.4992 71.217 27.4992 71.5734 28.0039 71.6066C28.0039 71.6066 29.2569 71.6686 29.5956 71.5048C29.5956 71.5048 30.096 71.341 30.1269 70.7854C30.1269 70.7854 29.8325 67.6244 28.7832 66.2587C28.7832 66.2587 30.4568 67.2813 31.0346 70.2076C31.0346 70.2076 31.1298 70.9226 31.8825 71.0399C31.8825 71.0399 33.9812 71.5048 35.2409 70.1014C35.2409 70.1014 35.5774 69.652 35.4135 69.2602C35.4135 69.2602 34.3642 65.6411 33.2595 64.0783C33.2595 64.0783 35.2276 66.0285 35.8474 67.4518C35.8474 67.4518 35.9936 67.9321 36.4407 67.6798C36.4407 67.6798 39.0464 66.4269 37.4414 62.9738C37.4414 62.9738 36.443 61.2317 35.5951 60.5057C35.5951 60.5057 37.1514 60.333 38.2804 62.7701C38.2804 62.7701 39.6153 61.4996 39.4294 59.379C38.7453 58.6839 37.6052 57.8206 35.8806 57.3691C35.8806 57.3691 34.9951 57.1743 33.7421 57.161L33.7443 57.1588Z" fill="#225054"/>
<path d="M66.0361 65.6125L55.6895 67.3345L58.2403 82.6583L68.587 80.9363L66.0361 65.6125Z" fill="#F4570C"/>
<path d="M63.9261 84.8857C66.7835 84.4117 68.8624 82.5961 68.5695 80.8305C68.2765 79.0649 65.7226 78.0178 62.8652 78.4918C60.0078 78.9658 57.9289 80.7814 58.2219 82.547C58.5148 84.3126 61.0687 85.3597 63.9261 84.8857Z" fill="#F4570C"/>
<path d="M63.0202 79.4734C66.0694 78.9675 68.2878 77.0304 67.9753 75.1466C67.6627 73.2628 64.9374 72.1457 61.8882 72.6515C58.839 73.1573 56.6206 75.0945 56.9332 76.9783C57.2457 78.8621 59.971 79.9792 63.0202 79.4734Z" fill="#919297"/>
<path d="M62.8832 78.6479C65.7406 78.1739 67.8195 76.3583 67.5265 74.5927C67.2335 72.8271 64.6796 71.78 61.8222 72.254C58.9648 72.728 56.8859 74.5436 57.1789 76.3092C57.4719 78.0748 60.0257 79.1219 62.8832 78.6479Z" fill="#B3B3B3"/>
<path d="M66.0938 65.9782L55.7471 67.7002L57.1846 76.336L67.5313 74.614L66.0938 65.9782Z" fill="#B3B3B3"/>
<path d="M61.8246 72.3227C64.682 71.8487 66.7609 70.0331 66.4679 68.2675C66.1749 66.5019 63.6211 65.4548 60.7636 65.9288C57.9062 66.4028 55.8273 68.2184 56.1203 69.984C56.4133 71.7497 58.9672 72.7967 61.8246 72.3227Z" fill="#AA8800"/>
<path d="M60.8036 66.1913C59.5174 66.406 58.2953 66.9528 57.5116 67.6367C56.728 68.3229 56.4025 69.1021 56.5132 69.7617C56.6239 70.4214 57.184 71.0545 58.1492 71.4485C59.1144 71.8425 60.4472 71.9642 61.7334 71.7517C63.0196 71.537 64.2416 70.9903 65.0253 70.3063C65.809 69.6201 66.1344 68.8409 66.0237 68.1813C65.9131 67.5216 65.353 66.8886 64.3877 66.4946C63.4225 66.1005 62.0898 65.9788 60.8036 66.1913Z" fill="#999999"/>
<path d="M60.8546 66.498C59.6016 66.7061 58.4106 67.2285 57.6446 67.8793C56.8786 68.5323 56.5576 69.2694 56.6616 69.8936C56.7657 70.5178 57.3081 71.1133 58.2467 71.4807C59.1832 71.8504 60.4783 71.9588 61.7313 71.7508C62.9843 71.5427 64.1753 71.0203 64.9413 70.3695C65.7073 69.7165 66.0283 68.9794 65.922 68.3552C65.818 67.731 65.2756 67.1355 64.3391 66.7681C63.4027 66.3984 62.1076 66.29 60.8546 66.5003V66.498Z" fill="#B3B3B3"/>
<path d="M61.5187 70.4714C62.6477 70.2841 63.4691 69.5672 63.3535 68.8701C63.2378 68.173 62.2288 67.7597 61.0999 67.947C59.9709 68.1343 59.1494 68.8512 59.2651 69.5483C59.3808 70.2454 60.3897 70.6587 61.5187 70.4714Z" fill="#999999"/>
<path d="M63.0909 67.2703L59.0029 67.9507L59.2701 69.5556L63.3581 68.8752L63.0909 67.2703Z" fill="#999999"/>
<path d="M61.2462 68.8493C62.3752 68.662 63.1967 67.9451 63.081 67.248C62.9653 66.5509 61.9564 66.1377 60.8274 66.325C59.6984 66.5122 58.877 67.2292 58.9926 67.9262C59.1083 68.6233 60.1173 69.0366 61.2462 68.8493Z" fill="#CCCCCC"/>
<path d="M62.0612 73.7307C65.1104 73.2249 67.3288 71.2877 67.0163 69.4039C66.7037 67.5201 63.9784 66.403 60.9293 66.9088C57.8801 67.4147 55.6616 69.3518 55.9742 71.2356C56.2867 73.1194 59.012 74.2365 62.0612 73.7307Z" fill="#919297"/>
<path d="M61.9203 72.9003C64.7777 72.4263 66.8566 70.6107 66.5636 68.8451C66.2706 67.0795 63.7168 66.0325 60.8593 66.5065C58.0019 66.9805 55.923 68.7961 56.216 70.5617C56.509 72.3273 59.0629 73.3743 61.9203 72.9003Z" fill="#E78028"/>
<path d="M46.6914 11.8734L57.1074 10.563L66.5759 68.7415L56.2285 70.6407L46.6914 11.8734Z" fill="#E78028"/>
<path opacity="0.5" d="M53.3652 19.5321C54.6559 19.3174 55.8757 20.1873 56.0904 21.4733L63.272 64.4426C63.4868 65.7309 62.6167 66.9483 61.3261 67.1631C60.0354 67.3778 58.8156 66.5078 58.6009 65.2218L51.4193 22.2525C51.2045 20.9642 52.0746 19.7468 53.3652 19.5321Z" fill="#E89A59"/>
<path opacity="0.5" d="M62.4553 78.0496C63.5508 78.0496 64.4388 77.1636 64.4388 76.0707C64.4388 74.9778 63.5508 74.0918 62.4553 74.0918C61.3598 74.0918 60.4717 74.9778 60.4717 76.0707C60.4717 77.1636 61.3598 78.0496 62.4553 78.0496Z" fill="#919297"/>
<path d="M55.8975 37.4442C55.8865 37.4309 55.9219 37.3845 55.9728 37.3424C56.0259 37.3003 56.0769 37.276 56.0879 37.2893C56.099 37.3026 56.0636 37.349 56.0127 37.3911C55.9595 37.4332 55.9086 37.4575 55.8975 37.4442Z" fill="#E89A59"/>
<path fill-rule="evenodd" clip-rule="evenodd" d="M69.8553 44.8753C69.8553 44.8753 72.472 42.6418 71.9849 39.4875C71.9849 39.4875 71.83 35.4699 67.927 36.486C67.927 36.486 50.8807 43.0668 42.0631 54.1722C42.0631 54.1722 39.3556 57.3752 41.193 59.5533C41.193 59.5533 42.7604 61.7712 46.7541 61.6119C46.7541 61.6119 45.0827 64.1087 46.732 65.6228C46.732 65.6228 49.0034 67.9227 53.4044 67.0616C53.4044 67.0616 52.4348 68.3521 54.1615 69.118C54.1615 69.118 57.4535 70.1672 61.6929 68.1772C61.6929 68.1772 67.6835 65.8442 70.7696 59.6883C70.7696 59.6883 72.6092 55.7836 69.6405 54.4134C69.6405 54.4134 72.3657 51.5336 71.9185 48.7423C71.9185 48.7423 71.6529 45.7098 69.853 44.8753H69.8553Z" fill="#225054"/>
<path fill-rule="evenodd" clip-rule="evenodd" d="M68.6287 36.3896C68.414 36.4161 68.1837 36.4604 67.9402 36.5224C67.9402 36.5224 67.7675 36.5932 67.7255 36.6087V36.6176C71.7103 35.4931 71.0108 41.0668 71.0108 41.0668C70.506 43.909 66.5145 48.1966 66.5145 48.1966C66.6496 48.1767 67.9048 47.9044 67.9048 47.9044C70.6743 47.2536 70.5237 48.9337 70.5237 48.9337C70.9554 52.0969 66.8842 57.3341 66.8842 57.3341C67.7985 57.1105 69.8685 55.2932 69.8685 55.2932C70.7584 55.8577 70.8979 57.6329 70.8979 57.6329C70.9709 59.904 69.0715 61.6084 69.0715 61.6084C62.1688 68.01 56.2712 68.559 53.2095 68.2579C53.3158 68.57 53.5881 68.891 54.177 69.1544C54.177 69.1544 57.4689 70.2036 61.7083 68.2137C61.7083 68.2137 67.6989 65.8806 70.785 59.7247C70.785 59.7247 72.6247 55.82 69.6559 54.4499C69.6559 54.4499 72.3811 51.57 71.9339 48.7788C71.9339 48.7788 71.6683 45.7462 69.8685 44.9139C69.8685 44.9139 72.4852 42.6805 71.9981 39.5262C71.9981 39.5262 71.8631 35.9956 68.6287 36.3896ZM64.8586 50.9414C46.7895 63.7954 40.6572 57.5068 40.6572 57.5068L40.5819 57.5112C40.5222 58.2195 40.6661 58.9478 41.2062 59.5875C41.2062 59.5875 42.7736 61.8055 46.7673 61.6461L46.7585 61.6594C61.8766 57.7525 64.8564 50.9392 64.8564 50.9392L64.8586 50.9414ZM66.0076 58.0092C54.9297 65.6238 48.7487 64.5237 46.1032 63.2531C45.9349 64.0345 45.977 64.9531 46.7474 65.6592C46.7474 65.6592 48.9258 67.8617 53.1453 67.1467C59.3263 64.7827 66.0076 58.0092 66.0076 58.0092Z" fill="#173C3F"/>
<path d="M51.5691 9.22335C50.3161 9.42921 49.125 9.9516 48.3591 10.6024C47.5909 11.2532 47.2721 11.9925 47.3739 12.6167C47.478 13.2431 48.0181 13.8386 48.9546 14.2082C49.891 14.5779 51.1861 14.6886 52.4391 14.4827C53.6921 14.2747 54.8832 13.7545 55.6491 13.1037C56.4151 12.4529 56.7361 11.7136 56.6321 11.0872C56.528 10.4629 55.9879 9.86528 55.0514 9.49561C54.115 9.12595 52.8199 9.01528 51.5669 9.22113L51.5691 9.22335Z" fill="#53676C"/>
<path fill-rule="evenodd" clip-rule="evenodd" d="M53.0325 15.0299C53.0325 15.0299 52.3861 17.7061 51.4984 17.6397C51.4984 17.6397 50.345 17.6884 49.8269 15.632C49.8269 15.632 49.0189 15.8202 48.3016 14.6182C48.3016 14.6182 47.2014 14.9967 46.7188 11.8624L49.5724 0L57.1037 10.563C57.1037 10.563 56.951 15.1251 55.0759 15.6232C55.0759 15.6232 53.6701 15.86 53.0303 15.0299H53.0325Z" fill="#CDAA80"/>
<path fill-rule="evenodd" clip-rule="evenodd" d="M52.8862 14.5651C52.8862 14.5651 52.2951 17.1682 51.4096 17.1063C51.4096 17.1063 50.4576 17.135 49.9484 15.1428C49.9484 15.1428 48.9389 15.3509 48.2283 14.1888C48.2283 14.1888 47.4092 14.9237 46.6875 11.8602L49.5721 0L57.1035 10.563C57.1035 10.563 56.871 14.6426 54.9959 15.134C54.9959 15.134 53.5215 15.3686 52.8862 14.5651Z" fill="#D8BD9F"/>
<path fill-rule="evenodd" clip-rule="evenodd" d="M49.5733 0L47.4414 8.7789C48.2583 9.02904 49.0951 9.10651 49.8877 8.97591C51.4617 8.71029 52.8652 7.71198 53.9212 6.09609L49.5733 0Z" fill="#333333"/>
<path fill-rule="evenodd" clip-rule="evenodd" d="M47.8447 8.32289L49.5958 0.568848L48.5222 8.55531C48.5222 8.55531 48.1259 8.55088 47.8469 8.32289H47.8447Z" fill="white"/>
</g>
<defs>
<clipPath id="clip0_5260_112008">
<rect width="72.0596" height="85" fill="white"/>
</clipPath>
</defs>
</svg>
