<svg xmlns="http://www.w3.org/2000/svg" width="68" height="81" fill="none" xmlns:v="https://vecta.io/nano"><style><![CDATA[.B{fill:#f8c789}.C{fill-rule:evenodd}.D{fill:#225054}.E{fill:#173c3f}.F{fill:#bcb9a8}.G{fill:#1a4245}]]></style><g class="C"><path d="M48.083 9.721s.73-3.019-1.364-5.016c0 0 .195 2.435-.828 2.581 0 0-2.386-1.948-1.899-4.48 0 0-3.068 2.143-1.218 5.308l1.607 4.091 3.701-2.484zm-28.674 3.643s7.744 14.093 9.515 20.418c0 0 1.476 3.879-.633 3.963 0 0-1.349-.127-2.53-1.687L23.062 32.6l-5.102-6.451s-1.473 3.224-2.159 6.564c0 0-.239 1.878-1.222 1.759 0 0-1.372-.03-1.878-2.892 0 0-.268 1.431-1.043 1.252 0 0-1.848.268-1.133-7.334 0 0-.656.268-.775-.417 0 0-.388-9.451 5.576-12.91 0 0 2.802-1.55 4.084 1.193z" class="D"/><g class="E"><path d="M22.257 18.751c-1.093 3.558-.633 9.899-.633 9.899-1.771-2.066-2.53-4.427-2.53-4.427-.464-1.497-.907-1.012-.907-1.012-2.909 2.741-3.352 11.152-3.352 11.152l.067.107c.726-.254.914-1.726.914-1.726.686-3.339 2.159-6.564 2.159-6.564.506.97 5.102 6.451 5.102 6.451 1.096 1.223 2.698 3.457 2.698 3.457 1.181 1.56 2.53 1.687 2.53 1.687 2.108-.084.632-3.963.632-3.963-1.064-3.801-4.28-10.394-6.681-15.061z"/><path d="M25.933 28.028s-2.024 4.385.801 10.583c0 0 2.403 6.578 5.734 10.71 0 0 3.057 3.963 3.753-2.699 0 0-.464-12.902-3.162-17.92-3.626-6.873-7.126-.675-7.126-.675z"/></g><path d="M43.82 23.601c5.128 4.174 5.606 10.853 5.606 10.853 0 1.193 1.848 8.706 1.848 8.706l2.684 11.688c1.968 8.587 7.288 18.677 7.288 18.677.127.864-.586 1.189-.586 1.189-.675.148-1.012-.485-1.012-.485-2.403-4.427-6.957-9.529-6.957-9.529-1.37-1.623-1.982-1.139-1.982-1.139-.907.401-.422 1.94-.422 1.94.211 1.075 2.403 7.316 2.403 7.316.19.738-.126.822-.126.822-.422.358-.931-.008-.931-.008-2.028-1.67-6.619-8.468-6.619-8.468-1.073-1.67-9.02-10.372-9.02-10.372-6.62-6.662-4.396-14.911-4.396-14.911.179-1.073 1.002-3.831 1.002-3.831 1.244-4.006.358-7.168.358-7.168s2.017-5.15 6.131-5.687c0 0 3.068-.565 4.732.407h0z" fill="#d6d4c8"/><path d="M30.82 33.257l6.487-4.942s.581 3.361-1.065 4.448c0 0-.968.84.629 1.334 0 0 4.357 1.137 6.681-2.965 0 0 3.679 6.277 6.923 8.006 0 0 .436-3.015.194-4.497s-1.065-4.3-2.178-6.03-1.114-4.151-4.648-6.079-2.614-3.015-4.406-1.977-4.841 2.57-5.228 3.311-.242.099-1.21 2.026-1.791 2.422-1.985 3.855-.194 3.509-.194 3.509z" class="F"/><path d="M54.958 40.168c3.458 6.957 2.695 15.012 2.695 15.012-.179 3.22.417 8.274.417 8.274.411 2.484.099 2.457.099 2.457-.375.254-.576-.146-.576-.146s-2.862-4.621-3.578-8.885c0 0-.358-3.25-.626-4.621L50.736 40.66s-1.154-4.962-1.175-6.016c0 0-.148-3.036 3.184.611 0 0 1.16 1.644 2.214 4.912z" fill="#194145"/><path d="M48.449 35.25c-2.741-1.349-5.889-10.123-5.889-10.123-.97-1.307-2.193-.464-2.193-.464-1.982 1.518-7.452 4.265-7.452 4.265.477 1.55.239 4.353.239 4.353-1.222 1.908-3.13 1.073-3.13 1.073-3.101-1.252-3.22-3.459-3.22-3.459-.895.03-.745 1.103-.745 1.103-1.938-2.594-.596-4.919-.596-4.919-1.55.537-2.832 0-2.832 0 1.759-1.044 1.252-4.562 1.252-4.562-1.52-6.023 1.669-9.302 1.669-9.302-.924-.06-1.878.537-1.878.537.447-2.862 3.131-3.399 3.131-3.399-.865-.775-1.968-.179-1.968-.179.537-2.594 3.16-2.624 3.16-2.624-1.133-1.819.179-2.803.179-2.803 1.699 3.19 3.965 2.445 3.965 2.445 2.803-.507 3.22-2.981 3.22-2.981C37.238.067 40.279.514 40.279.514s-1.669 2.862.746 4.681c0 0 1.163.775 1.58 1.58 0 0 1.014 1.133 1.699 4.144 0 0 .119-1.789-.745-3.786 0 0 1.67.388 2.266 4.085 0 0 2.355-2.385 4.8-1.968 0 0 2.474.06 2.683 1.133 0 0 2.355.388 2.564 1.789 0 0 3.846 1.67 6.977-3.071 0 0 3.697 2.892-.477 8.259 0 0 .342 5.553 4.959 4.879 0 0-.232 2.235-2.34 3.015 0 0 1.644.464 1.982 2.994 0 0-1.328-.506-2.277-.169 0 0 1.244 1.834-.232 4.786 0 0-.759-.991-1.455-1.117 0 0 .257 7.02-2.695 8.541 0 0-1.819 1.222-5.009.298 0 0-4.087-1.513-6.857-5.335z" class="D"/></g><path d="M36.505 22.084c4.04-2.291 5.974-6.566 4.319-9.55s-6.271-3.545-10.311-1.254-5.974 6.567-4.319 9.55 6.271 3.545 10.311 1.254zm8.719 5.666c-2.92-3.345-2.934-8.192-.033-10.826s7.621-2.058 10.541 1.287 2.934 8.192.032 10.826-7.621 2.058-10.541-1.287z" class="G"/><g class="C"><g class="F"><path d="M52.769 49.709c-1.107 5.226.074 9.743.074 9.743l1.005 3.94c-.71-.626-2.985-1.544-2.985-1.544-1.732-.772-2.483.438-2.483.438-.584 1.085-.23 3.777-.23 3.777.397 3.465 4.111 7.639 4.111 7.639v.082a.64.64 0 0 0 .305-.146s.316-.084.126-.822l-2.403-7.316s-.485-1.539.422-1.94c0 0 .611-.485 1.982 1.138 0 0 4.554 5.102 6.957 9.529 0 0 .337.632 1.012.485 0 0 .801-.147.674-1.012 0 0-5.408-10.268-7.376-18.855l-1.193-5.138h.001z"/><path d="M43.934 46.366c-3.689-.02-6.975 1.281-6.27 6.251 0 0 3.381 7.096 9.601 7.513 0 0 2.546.125 3.172-1.878 0 0 1.878.918 3.005.25 0 0 .676-.134 1.26-.85a49.96 49.96 0 0 1-.813-3.062l-1.538-6.64c-1.248-.417-4.987-1.565-8.417-1.584z"/></g><path d="M49.594 34.353s-2.045 1.16-1.834 2.973c0 0 .274 2.403 2.024 5.376 0 0-7.625-.459-11.406 2.182 0 0-3.542 2.098-1.012 7.116 0 0 2.445 4.849 7.547 6.662 0 0 5.018 1.771 2.952-3.036 0 0 3.922.97 5.397.169 0 0 1.855-1.054.042-4.006 0 0 3.12 1.349 4.68-.169 0 0 1.644-1.307.886-4.807 0 0-1.181-4.891-5.693-8.264 0 0-1.159-.78-1.475-2.509 0 0-.295-2.551-2.108-1.687z" class="D"/><g class="E"><path d="M62.85 9.1c-3.127 4.735-6.966 3.076-6.975 3.072l-.031.029c-6.321.179-8.616 2.415-8.616 2.415 2.236-.745 7.722-.626 7.722-.626 5.963-.119 7.387-2.884 7.387-2.884 1.244 3.858-2.676 6.342-2.676 6.342.447.388 1.401.298 1.401.298-1.073 4.085 1.507 8.033 1.507 8.033-.506-.401-1.118-.274-1.118-.274 1.37 2.172 1.355 4.808 1.355 4.808-.328-.999-1.461-1.774-1.461-1.774.015.507-.313 1.893-.313 1.893-.194-.492-.715-.775-.715-.775-.194 3.235-2.415 6.157-2.415 6.157-3.638 4.383-10.729-1.652-10.729-1.652 2.345 3.269 6.377 5.945 8.135 6.422 3.19.924 5.009-.298 5.009-.298 2.952-1.521 2.694-8.541 2.694-8.541.696.127 1.455 1.118 1.455 1.118 1.476-2.951.232-4.786.232-4.786.949-.337 2.277.169 2.277.169-.337-2.53-1.982-2.994-1.982-2.994 2.108-.78 2.34-3.015 2.34-3.015-4.617.675-4.96-4.879-4.96-4.879 4.174-5.367.477-8.258.477-8.258h-.001z"/><path d="M40.5 19.803c-1.759.045-3.247 2.881-3.247 2.881-2.63 5.405-6.7 6.595-6.7 6.595.918 1.023 1.628.96 1.628.96.647.48.98 3.044.981 3.046l.024-.035s.239-2.803-.238-4.353c0 0 5.471-2.747 7.452-4.265 0 0 1.223-.843 2.193.464 0 0 1.513 5.201 4.578 9.074.068.214 1.257.973 1.335 1.174.965-.119 2.041-.083 2.041-.083-4.132-2.337-5.404-8.381-5.404-8.381-1.21-4.132-2.525-5.51-2.525-5.51-.699-1.174-1.429-1.584-2.117-1.566zM39.138 6.295s5.032 6.346 5.003 9.046c0 0 4.644-3.527 10.487-4.487l.005-.051c-.656-.314-1.323-.426-1.323-.426-.095-.489-.66-.766-1.247-.924-1.655.367-4.251 1.332-6.598 3.885 0 0 .502-.597.407-2.17l-.046.044c-.596-3.697-2.266-4.085-2.266-4.085a9.19 9.19 0 0 1 .75 3.548c-.01.9.062 1.588.008 2.319-1.771-4.752-5.18-6.7-5.18-6.7h0zm-11.437-.914c-.219.472-.315 1.197.293 2.172.052-.023 1.383.103 1.731.166 0 0-1.695-.307-2.024-2.338zm-.284 3.933c-.595-.008-1.401.109-2.478.471a3.68 3.68 0 0 0-.106.399s1.103-.596 1.968.179c0 0-2.225.446-2.96 2.687.906-.987 2.52-2.323 5.134-3.182 0 0-.338-.537-1.557-.554zm-1.031 3.392s-1.312-.04-2.694.933l-.023.123s.954-.596 1.879-.537c0 0-3.013 3.064-1.828 8.721.075.166.051.332.161.56 0 0-.021-6.231 2.505-9.8zm29.908 28.967c0 .006-.005.063-.005.063 1.043 3.673-.23 5.072-.23 5.072-1.356 1.398-5.99.981-5.99.981-1.503-.021-1.19 1.294-1.19 1.294.083.501 1.169 2.233 1.169 2.233.459 1.002-.73.939-.73.939-3.235.021-4.32-.751-4.32-.751-1.753-.918-.939.584-.939.584.292.522.459 1.315.459 1.315.271 1.294-.939 1.356-.939 1.356-3.694.167-5.677-1.92-5.677-1.92v.044c.959 1.478 3.271 4.459 7.032 5.795 0 0 5.018 1.771 2.952-3.036 0 0 3.922.97 5.397.169 0 0 1.855-1.054.042-4.006 0 0 3.12 1.349 4.68-.169 0 0 1.644-1.307.885-4.807 0 0-.604-2.499-2.595-5.156h-.001z"/></g><path d="M32.895 34.75l-.355 1.378-1.002 3.831s-2.224 8.249 4.396 14.911l3.628 4.023-.01-.055c-9.058-11.729-6.62-24.084-6.62-24.084-.013-.002-.025-.002-.037-.004h.001z" class="F"/><path d="M50.02 73.703s-.251-.522-.918-.25c0 0-.751.271-.898 1.628 0 0-.084 1.837 1.419 3.151 0 0 1.398 1.211 1.983-.271 0 0 1.357 1.273 1.962.23 0 0 1.085.647 1.524.125 0 0 .334-.146.083-1.252 0 0-.709-2.838-1.523-3.903 0 0-.96-.981-1.712.23 0 0-1.44-.877-1.92.313zm9.371-.167s-1.607 1.231-.981 3.339c0 0 .313 1.106 1.649 1.503 0 0 .563.334.918-.063 0 0 .167.626 1.273.73 0 0 1.023-.021.939-.876 0 0 .476.846 1.144.742 0 0 .755.031.838-1.159 0 0 .229-.939-.981-2.275 0 0-1.273-1.565-3.068-2.212 0 0-1.409-.188-1.732.271z" fill="#ce9434"/><path d="M52.388 73.621c-.158-.02-.239.227-.239.227-.111.701.347 2.76.347 2.76.111.288.044.494.044.494-.17.28-.642.03-.642.03-.502-.251-.687-.945-.687-.945l-.568-2.037c-.398-.487-.568.214-.568.214-.133.605.163 2.347.163 2.347.148.649-.236.517-.236.517-1.225-.62-1.535-2.863-1.535-2.863l-.069-.064c-.086.212-.157.475-.192.802 0 0-.084 1.837 1.419 3.151 0 0 1.398 1.21 1.983-.271 0 0 1.357 1.273 1.962.23 0 0 1.085.647 1.523.125 0 0 .334-.146.084-1.252l-.049-.182-.05.014c-.753.849-1.468-.288-1.468-.288-.133-.575-.959-2.767-.959-2.767-.104-.168-.192-.233-.263-.242h0zm7.508.292c-.264-.002-.313.563-.313.563-.103 1.122.192 3.261.192 3.261-.938-.424-1.384-1.757-1.489-2.111a3.26 3.26 0 0 0 .129 1.264s.313 1.106 1.649 1.503c0 0 .564.334.918-.063 0 0 .167.626 1.273.73 0 0 1.023-.021.939-.877 0 0 .476.846 1.144.742 0 0 .755.03.838-1.159 0 0 .122-.509-.294-1.309-.192.024-1.154.335-1.154.335-.517-1.136-1.564-2.154-1.564-2.154-.886-.576-.561.088-.561.088.059.221.885 2.213.885 2.213-.325.044-1.121.487-1.121.487-.458.221-.502-.31-.502-.31-.222-1.476-.753-3.099-.753-3.099-.086-.075-.158-.105-.219-.106z" fill="#ad7821"/></g><g fill="#782121"><path d="M29.662 74.125H0v2.656h29.662v-2.656z"/><path d="M29.662 76.697c0 1.007-1.556 1.972-4.328 2.685s-6.532 1.115-10.457 1.118-7.696-.393-10.484-1.101S.025 77.727 0 76.721s1.508-1.974 4.263-2.692 6.505-1.125 10.43-1.135 7.705.381 10.511 1.085 4.409 1.664 4.457 2.671"/></g><path d="M29.662 74.163c0 1.007-1.556 1.972-4.328 2.685s-6.532 1.115-10.457 1.118-7.696-.393-10.484-1.101S.025 75.193 0 74.186s1.508-1.975 4.263-2.692 6.505-1.125 10.43-1.135 7.705.381 10.511 1.085 4.409 1.664 4.457 2.671" fill="#c83737"/><g fill="#782121"><path d="M29.662 26.024H0v-2.656h29.662v2.656z"/><path d="M29.662 23.451c0-1.006-1.556-1.972-4.328-2.685s-6.532-1.115-10.457-1.118-7.696.393-10.484 1.101S.025 22.421 0 23.428s1.508 1.974 4.263 2.692 6.505 1.125 10.43 1.135 7.705-.381 10.511-1.085 4.409-1.664 4.457-2.671"/></g><path d="M29.662 25.986c0-1.007-1.556-1.972-4.328-2.685s-6.532-1.115-10.457-1.118-7.696.393-10.484 1.101S.025 24.956 0 25.962s1.508 1.974 4.263 2.692 6.505 1.125 10.43 1.135 7.705-.381 10.511-1.085 4.409-1.664 4.457-2.671" fill="#c83737"/><g class="C"><path d="M14.682 23.2c-6.888.075-11.881 2.48-11.881 2.48-1.166.424-1.272 1.414-1.272 1.414-1.06 6.291 1.908 12.228 1.908 12.228 2.58 4.312 6.786 6.697 6.786 6.697 1.926 1.149 2.492 2.918 2.492 2.918.407 1.378-.125 2.841-.125 2.841-.874 2.224-3.723 3.948-3.723 3.948-9.396 6.498-6.666 17.77-6.666 17.77.106.495.777.813.777.813 11.627 5.443 23.661.159 23.661.159 1.325-.707 1.37-2.049 1.37-2.049 1.367-9.583-4.963-14.873-4.963-14.873-.654-.583-3.669-2.994-3.669-2.994-2.651-1.909-2.509-4.312-2.509-4.312-.283-2.085 1.767-3.711 1.767-3.711 2.722-1.91 4.733-3.7 4.733-3.7 6.897-6.847 4.642-15.519 4.642-15.519-.05-1.099-1.388-1.633-1.388-1.633-4.204-1.919-8.332-2.519-11.94-2.48zm.309.793l.669.007c3.273.073 6.921.709 10.631 2.403a.79.79 0 0 0 .036.015s.867.462.888.93c.003.055.011.11.025.164 0 0 2.161 8.194-4.421 14.742-.03.027-1.98 1.758-4.641 3.626a.71.71 0 0 0-.037.028s-2.386 1.774-2.062 4.395c-.004.141-.007.775.299 1.644.34.964 1.066 2.184 2.505 3.23.006.004 3.074 2.465 3.633 2.964a1.02 1.02 0 0 0 .019.017s5.999 4.947 4.687 14.15a.8.8 0 0 0-.007.086s.009.846-.933 1.361c-.11.048-11.76 5.079-22.964-.164 0 0-.092-.045-.199-.128s-.152-.187-.14-.132c-.001-.007-.002-.013-.004-.02 0 0-2.635-10.711 6.338-16.923l-.032.021.04-.026c.076-.047.78-.485 1.6-1.192.873-.754 1.891-1.799 2.41-3.119a.63.63 0 0 0 .007-.019s.643-1.633.14-3.338c-.006-.017-.672-2.078-2.848-3.376-.015-.009-4.041-2.318-6.493-6.398-.039-.08-2.823-5.784-1.823-11.712.002-.016.004-.032.006-.048 0 0-.054-.457.753-.751a.78.78 0 0 0 .073-.031s4.987-2.399 11.845-2.403h.001z" fill="#93a7ac"/><path d="M15.654 24c-7.2-.16-12.515 2.396-12.515 2.396-.024.012-.048.022-.073.031-.808.294-.753.751-.753.751-.001.016-.003.032-.006.048-.999 5.928 1.784 11.633 1.823 11.713 2.453 4.079 6.479 6.389 6.479 6.389 2.191 1.306 2.857 3.368 2.857 3.368.509 1.722-.134 3.355-.134 3.355a.75.75 0 0 1-.007.019c-.519 1.32-1.537 2.366-2.41 3.119s-1.641 1.219-1.641 1.219l.04-.026C.33 62.593 2.967 73.31 2.967 73.31l.004.02c-.011-.054.033.049.14.132s.198.128.199.128c11.204 5.243 22.854.211 22.964.164.942-.515.933-1.361.933-1.361.001-.029.003-.058.007-.086 1.313-9.202-4.686-14.15-4.686-14.15l-.019-.017c-.559-.499-3.636-2.966-3.636-2.966l.032.024c-1.459-1.051-2.192-2.282-2.534-3.252-.306-.868-.302-1.503-.299-1.644-.324-2.62 2.062-4.395 2.062-4.395a.83.83 0 0 1 .037-.028c2.661-1.868 4.611-3.599 4.641-3.626 6.583-6.548 4.421-14.742 4.421-14.742-.014-.054-.022-.109-.024-.164-.021-.468-.888-.93-.888-.93a1.12 1.12 0 0 1-.036-.015c-3.71-1.694-7.358-2.33-10.631-2.403h0z" fill="#ced2c4" fill-opacity=".761"/><path d="M27.303 29.219s-2.474-2.274-6.597-.65c0 0-1.225.55-2.324 1.224 0 0-3.649 2.024-7.572.675 0 0-1.524.3-1.649 1s-.475.85-.325 1.824 1.349 3.049 1.574 3.299-.525-.125.6.475 3.124.9 3.599 1.05 2.999.55 3.623.325 2.599-.2 3.249-.7 1.599-.925 2.149-1.524 1-.925 1.374-1.424 1.699-2.749 1.75-2.849.774-1.599.55-2.724zM6.357 67.116a7.6 7.6 0 0 0-3.7.976c-.172 2.145.058 3.883.201 4.683a21.74 21.74 0 0 0 3.221 1.856c8.358 2.724 16.39.432 19.155-.543a21.19 21.19 0 0 0 1.559-.806c.408-.459.404-.945.404-.945a.81.81 0 0 1 .007-.086c.178-1.248.218-2.415.16-3.505-3.571-1.358-7.044.105-7.044.105-6.631 2.601-9.549-.158-9.549-.158-1.551-1.196-3.091-1.573-4.41-1.577h-.002 0z" fill="#fa9428"/><path d="M24.029 66.382c-2.534-.046-4.814 1.585-4.814 1.585l-6.451 3.389c-3.876 1.655-7.406-2.286-7.406-2.286-1.098-1.107-2.052-1.117-2.708-.883-.228 2.944.302 5.109.302 5.109l.004.02c-.011-.055.033.049.14.132a1.23 1.23 0 0 0 .199.128c11.221 5.243 22.889.211 22.999.164.943-.515.934-1.361.934-1.361a.8.8 0 0 1 .007-.086 17.61 17.61 0 0 0 .065-4.631 4.9 4.9 0 0 0-3.271-1.282h0zM7.365 28.075c-3.16.02-5.204 1.695-5.275 1.754-.009 4.879 2.005 9.011 2.038 9.078 2.453 4.08 6.479 6.389 6.479 6.389 2.191 1.306 2.857 3.368 2.857 3.368.509 1.722-.134 3.355-.134 3.355l-.007.019-.141.324c.1-.092.205-.166.31-.202 0 0 .275-.05.375.25 0 0 .125.2 0 .7 0 0-.25.625 0 .925 0 0 .375.2.375-.425 0 0-.05-.45.125-.675 0 0 .35-.35.525.275 0 0 .15.75 0 1.374 0 0-.1.275.075.55 0 0 .3.3.475-.175 0 0 .15-.175-.025-.6 0 0-.175-.6-.075-1.149 0 0 .125-.725.375-.7 0 0 .45.225.525.6 0 0 .15.425.3.15 0 0 .125-.113.063-.413 0 0-.35-.475-.375-.675 0 0-.056-.264.177-.168l-.035-.089c-.306-.868-.303-1.503-.3-1.644-.324-2.62 2.062-4.395 2.062-4.395l.037-.028c2.661-1.868 4.611-3.599 4.641-3.626 4.521-4.497 4.917-9.771 4.722-12.633l-.121-.247c-1.149-1.4-3.299.949-3.299.949-.7 1.05-2.649 1.899-2.649 1.899-3.898 1.2-9.096-2.749-9.096-2.749-1.843-1.031-3.539-1.378-5.001-1.369h0z" class="B"/></g><use href="#B" class="B"/><use href="#C" class="B"/><use href="#B" x="2.299" y="2.549" class="B"/><use href="#B" x="2.349" y="-1.499" class="B"/><use href="#B" y="-3.598" class="B"/><use href="#C" x="-2.649" y="-1.1" class="B"/><use href="#C" x="1.7" y="4.798" class="B"/><use href="#D" class="B"/><use href="#B" x="-5.998" y="6.497" class="B"/><use href="#B" x="0.999" y="-1.949" class="B"/><use href="#B" x="3.198" y="-3.998" class="B"/><use href="#B" x="5.747" y="0.65" class="B"/><use href="#B" x="5.397" y="6.098" class="B"/><use href="#D" x="-0.799" y="2.099" class="B"/><use href="#B" x="-2.999" y="9.147" class="B"/><use href="#C" x="-0.7" y="2.249" class="B"/><use href="#C" x="6.447" y="-1.25" class="B"/><use href="#C" x="-1.95" y="-4.349" class="B"/><use href="#C" x="3.898" y="-5.598" class="B"/><use href="#C" x="2.549" y="1.449" class="B"/><use href="#D" x="-6.648" y="4.198" class="B"/><g class="C"><path d="M17.032 11.824c-.934-.001-1.725.436-1.725.436-5.963 3.459-5.575 12.91-5.575 12.91.119.686.775.418.775.418-.716 7.603 1.133 7.334 1.133 7.334.775.179 1.043-1.252 1.043-1.252.507 2.862 1.878 2.892 1.878 2.892.984.119 1.223-1.759 1.223-1.759.686-3.339 2.159-6.564 2.159-6.564l3.051-9.793-1.603-2.993c-.601-1.286-1.536-1.628-2.36-1.629h0z" class="D"/><path d="M13.015 21.284a.76.76 0 0 0-.195.048s-2.066 1.336-2.275 4.132l-.067.054.06-.018c-.715 7.603 1.133 7.334 1.133 7.334.775.179 1.043-1.252 1.043-1.252.418 2.36 1.421 2.794 1.762 2.874l-.008-.038s-1.578-3.536.93-10.325c0 0 .295-.989-.502-.443 0 0-1.712 1.092-2.199 5.859 0 0-.207 2.272-.826 2.582 0 0-.325.074-.428-.767 0 0-.732-3.418 1.042-7.801l.689-1.774c0 0 .208-.495-.16-.465z" class="E"/></g><path d="M36.739 21.606c3.669-2.081 5.425-5.964 3.923-8.673s-5.696-3.219-9.365-1.139-5.425 5.964-3.922 8.673 5.695 3.219 9.365 1.139zm8.82 5.351c-2.679-3.069-2.692-7.516-.03-9.933s6.992-1.888 9.671 1.181 2.692 7.516.03 9.933-6.992 1.888-9.671-1.181z" fill="#d6d4c8"/><path d="M52.852 26.074c-2.512.871-5.25-.451-6.117-2.953s.466-5.235 2.978-6.105 5.25.451 6.117 2.953-.466 5.235-2.978 6.105z" fill="#e5961c"/><use href="#E" fill="#201e1e"/><path d="M53.822 20.139a1.15 1.15 0 0 1-1.464-.706 1.15 1.15 0 0 1 2.176-.754 1.15 1.15 0 0 1-.713 1.461z" fill="#fefefe"/><g class="C"><path d="M39.355 26.043c1.366-.225 1.452-.916 1.452-.916.311-1.158.778-.934.778-.934.553.173.726 1.591.726 1.591.035 2.542-1.314 4.374-1.314 4.374-1.453 2.179-3.389 2.23-3.389 2.23-.795 0-.536-.571-.536-.571s1.356-2.804.681-5.502c0 0-.069-.241.225-.241 0 0 .769.028 1.376-.032z" fill="#a20a0a"/><path d="M41.512 24.179c-.146-.009-.467.082-.7.951 0 0-.087.692-1.453.916-.607.06-1.376.032-1.376.032-.294 0-.225.241-.225.241.115.46.166.892.18 1.344.002 0 .038.041.038.041s.599.709 1.859.55c0 0 1.055-.144 2.349-.99a7.31 7.31 0 0 0 .133-1.478s-.173-1.418-.726-1.591c0 0-.029-.014-.078-.017h0z" fill="#751313"/><path d="M39.892 26.619c1.284-.079 1.81-1.559 1.81-1.559.33 1.32-.293 2.836-.293 2.836-.966 2.335-2.653 3.313-2.653 3.313-1.113.636-1.773-.33-1.773-.33-.367-.575-.497.004-.497.004-.553 2.784 2.213 2.196 2.213 2.196 3.078-.657 4.317-4.404 4.317-4.404 1.296-3.326-.354-5.719-.354-5.719-1.551-2.274-4.054-1.405-4.054-1.405-4.108 1.418-3.864 6.7-3.864 6.7s.135.55.599-.073c0 0 .697-1.033 1.479-1.278 0 0 .721-.239 1.431-.214 0 0 .929.03 1.638-.067h0z" fill="#ffb93e"/><path d="M41.69 23.794c-.142.004-.23.241-.23.241-.138.398-.484.951-.484.951-.986 1.176-2.576 1.038-2.576 1.038-1.331-.069-2.421.484-2.421.484-.919.54-.989 1.468-1.04 1.965.092.009.221-.057.399-.296 0 0 .697-1.033 1.479-1.277 0 0 .721-.238 1.43-.214 0 0 .929.031 1.638-.067 1.284-.079 1.81-1.559 1.81-1.559.33 1.32-.294 2.836-.294 2.836-.966 2.335-2.653 3.313-2.653 3.313-1.113.636-1.773-.33-1.773-.33-.367-.575-.496.004-.496.004-.553 2.784 2.213 2.196 2.213 2.196 1.222-.261 2.154-1.01 2.834-1.817l.331-.552c1.401-3.043.138-6.57.138-6.57-.117-.266-.221-.347-.306-.344h0z" fill="#e6961d"/></g><path d="M49.461 22.034c-2.081.001-4.081.68-5.588 1.897.324 1.165.918 2.263 1.727 3.192.637.73 1.392 1.339 2.223 1.793a7.32 7.32 0 0 0 2.619.854c.898.11 1.787.037 2.615-.215s1.581-.677 2.214-1.252a5.95 5.95 0 0 0 1.542-2.28c-.65-1.19-1.687-2.198-2.989-2.905s-2.816-1.083-4.363-1.085z" class="G"/><path d="M37.037 20.768c-2.512.871-5.251-.451-6.117-2.953s.466-5.235 2.978-6.105 5.251.451 6.117 2.953-.466 5.235-2.978 6.105z" fill="#e5961c"/><use href="#E" x="-15.815" y="-5.306" fill="#201e1e"/><path d="M38.007 14.833a1.15 1.15 0 0 1-1.464-.707 1.15 1.15 0 1 1 2.176-.754 1.15 1.15 0 0 1-.712 1.461z" fill="#fefefe"/><path d="M30.777 15.665c-1.27.003-2.518.262-3.624.754-.554 1.486-.5 2.955.153 4.136.357.644.883 1.185 1.547 1.591s1.453.669 2.323.775 1.803.052 2.745-.159 1.877-.573 2.75-1.068c.509-.291.991-.625 1.438-.993-.245-1.395-1.123-2.672-2.471-3.598s-3.075-1.436-4.862-1.437z" class="G"/><defs ><path id="B" d="M13.681 58.381a.35.35 0 0 1-.349.35.35.35 0 0 1-.351-.348.35.35 0 0 1 .347-.352.35.35 0 0 1 .353.346"/><path id="C" d="M13.881 62.53a.35.35 0 0 1-.349.35.35.35 0 0 1-.351-.348.35.35 0 0 1 .346-.352.35.35 0 0 1 .353.346"/><path id="D" d="M21.328 64.829a.35.35 0 0 1-.349.35.35.35 0 0 1-.351-.348.35.35 0 0 1 .347-.352.35.35 0 0 1 .353.345"/><path id="E" d="M52.405 24.891a3.58 3.58 0 0 1-4.559-2.201 3.58 3.58 0 1 1 6.779-2.349 3.58 3.58 0 0 1-2.219 4.55z"/></defs></svg>