<svg xmlns="http://www.w3.org/2000/svg" width="66" height="81" fill="none" xmlns:v="https://vecta.io/nano"><style><![CDATA[.B{fill-rule:evenodd}.C{fill:#5a5a5a}.D{fill:#0b5d71}.E{fill:#cfcfcf}.F{fill:#3e3e3e}.G{fill:#b3b3b3}.H{fill:#167082}.I{fill:#329cb2}.J{fill:#241c1c}.K{fill:#cac2af}.L{fill:#ece0c7}.M{fill:#b0a695}]]></style><g class="B"><path d="M48.88 54.948s-2.534 2.271-6.719 3.759c0 0-5.807 1.691-1.545 8.312 0 0 2.115 4.46 5.716 4.729 0 0 3.355.44 5.966-.537 0 0 1.539-.611.842-1.546 0 0-1.258-.937-2.647-1.416 0 0 2.371-.129 3.916-1.071 0 0 2.01-1.29.474-2.388 0 0-.988-.751-4.231-.969 0 0 2.856-1.774 3.877-3.468 0 0 1.024-1.581.32-1.739 0 0-1.499.363-2.483 1.16-.742-1.786 2.127-7.582-3.486-4.827z" class="H"/><g class="D"><path d="M45.745 71.684c-3.24-.672-5.126-4.659-5.126-4.659-4.267-6.618 1.553-8.318 1.553-8.318 4.183-1.496 6.727-3.765 6.727-3.765s-.489.51-.185 1.595c1.155 4.266.419 7.475.419 7.475-.363 4.017-2.057 6.238-3.388 7.671z"/><path d="M45.68 71.623s3.256.259 4.616-1.339c0 0 .762-.894-.786-1.913 0 0-.98-.946.856-.858 0 0 4.171-.392 2.893-1.858 0 0-1.288-1.168-3.932-1.123 0 0-.409-.376.142-.87 0 0 1.952-1.087 3.152-2.782 0 0 .53-1.215-1.641-.509 0 0-1.681-.16-1.786.044s-1.233.495-1.207 1.427.079.99.026 2.038-.315 1.601-.603 2.649-.734 2.067-.97 2.707l-.761 2.387h0z"/></g><path d="M21.147 76.827s-1.092-1.282.343-2.355c0 0 1.935-1.593 5.056-.97 0 0 1.873.139 2.746 1.039 0 0 .811 1.178.25 2.84 0 0-.655 2.529-2.996 3.083 0 0-2.06.104-2.653-1.455 0 0-3.495.693-2.746-2.182z" fill="#f1bd6a"/><path d="M24.895 74.357c-.71-.011-1.878.209-3.058 1.465 0 0-.36.317-.69 1.014l.019.025c-.749 2.875 2.746 2.182 2.746 2.182.593 1.559 2.653 1.455 2.653 1.455-.144-.026-2.222-.335-1.607-2.234 0 0 .312-1.628 2.45-2.996 0 0-1.997-.104-3.464 2.321 0 0-.572 1.067-1.211 1.043 0 0-1.473.169-1.083-1.303 0 0 .624-2.581 3.932-2.875 0 0-.261-.09-.687-.097h0z" fill="#e89c23"/><path d="M37.22 75.689s-.156 2.771 2.996 3.914c0 0 2.465 1.178 3.402-.866 0 0 1.904.727 2.621-.97 0 0 .281-.831.125-1.49 0 0 .655-.623.125-1.801 0 0-.811-2.009-4.119-1.871 0 0-2.122-.069-4.307 1.94-.531.45-.843 1.143-.843 1.143z" fill="#f1bd6a"/><path d="M43.835 73.773l-.073.006c2.207.833 2.008 3.16 2.008 3.16-.132.98-1.258 1.274-1.258 1.274-.486.171-.618-.27-.618-.27-.816-2.523-2.692-2.621-2.692-2.621 2.162 2.131 1.633 3.454 1.633 3.454-.596 1.225-2.935.661-2.935.661-.004.007-.009.025-.014.035l.349.14s2.465 1.178 3.402-.866c0 0 1.904.727 2.621-.97 0 0 .216-.642.163-1.244-.14-.654-.299-1.064-.299-1.064-.618-1.672-1.962-1.712-2.289-1.696h0z" fill="#e89c23"/><path d="M52.481 57.284s-.213 1.297-.037 2.367c0 0-2.883 1.793-5.286 2.038v-2.573l5.323-1.832z" class="E"/></g><path d="M34.008 78.305c7.677 0 13.901-9.026 13.901-20.161s-6.224-20.161-13.901-20.161-13.901 9.026-13.901 20.161 6.224 20.161 13.901 20.161z" class="C"/><path d="M33.833 77.555c7.647 0 13.845-9.026 13.845-20.161s-6.199-20.161-13.845-20.161-13.845 9.026-13.845 20.161 6.199 20.161 13.845 20.161z" class="F"/><g class="B"><path d="M33.483 65.015s-1.889 9.142 2.256 12.577l-.525.117s-3.961-3.086-2.466-12.286c0 0 .42-.815.734-.408z" class="C"/><path d="M46.848 60.409c.577-.408 5.037-2.073 5.562-2.306 0 0 .4-1.511-.011-3.359-.581-3.138-1.318-3.974-2.359-5.772 0 0-2.4-3.896-5.33-5.584 0 0-1.373-1.318-1.076.37 0 0 4.444 9.337 3.214 16.65z" class="F"/><path d="M44.289 39.628c-2.623 9.782-9.285 17.759-9.285 17.759-5.928-4.949-9.705-14.44-9.705-14.44s-1.836-3.901-.105-7.569c0 0 4.879-6.696 11.174-3.435 0 0 7.607 3.668 7.921 7.686z" class="E"/><path d="M33.131 48.756l.76.827s1.632-.605 2.629-.044l.862-.805-1.818-3.352s-.492-.481-1.035.055l-1.398 3.32z" fill="#161616"/><path d="M34.961 44.593l-2.125 5.056-5.95-7.217 1.536-1.47 6.539 3.631z" class="G"/><path d="M34.892 44.558l-2.077 4.241-6.029-6.722 1.615-1.965 6.492 4.447z" class="E"/><path d="M28.46 40.312l6.454 4.323 5.861-4.652s-7.085-12.434-12.315.329z" fill="#145c69"/><path d="M34.919 44.633l2.633 4.657 4.774-7.193-1.589-1.955-5.819 4.491z" class="G"/><path d="M34.966 44.601l2.527 3.802 4.853-6.568-1.589-1.955-5.791 4.72z" class="E"/><path d="M35.33 49.18c-.421-.003-.926.078-1.465.34l-1.014 5.799c.682.75 1.403 1.455 2.159 2.086 0 0 .993-1.193 2.359-3.209l-.87-4.779s-.467-.233-1.169-.237z" fill="#161616"/><path d="M34.186 49.765s-1.1 3.763-.476 5.917c0 0 .99 2.716 3.121-1.289.102-.453.2-1.293-.701-4.557-1.029-.783-1.944-.071-1.944-.071z" class="F"/><path d="M24.063 54.757c-1.575-.292-.268-5.136-.268-5.136s-.386 3.474.753 5.397l-.485-.261zm15.142-2.04s2.305 3.947 1.252 7.263c0 0-3.101-1.074-6.458 1.831.03-.01.122-.139.246-.329 2.34-2.934 5.72-2.345 5.72-2.345.8-2.293-.514-5.641-.787-6.372l.026-.048h0z" class="C"/><path d="M6.806 78.412l9.019.615.206-6.395-9.249-.377.024 6.157z" class="F"/><path d="M15.867 78.984l2.789-.784.153-6.063s.076-1.555-.944-1.594c0 0-1.544-.448-1.856 1.795l-.142 6.647zm-5.513-10.081s-.091.496.115.59c0 0 .479.175.68-.017 0 0 .068-.112.089-.411l.002-1.079s-.106-.432.469-.468l1.455.055s.539-.007.577.407l-.034 1.13s-.063.412.26.538c0 0 .399.148.594-.045.054-.069.13-.209.153-.608-.011-.086-.023-1.6-.023-1.6s.068-.611-.672-.782l-2.963-.112s-.626-.024-.694.573l-.009 1.827z" fill="#333"/><path d="M6.692 73.777s-.05 1.536 1.366 1.84l5.246.197s1.75.21 2.329-.732c0 0 .145-.279.197-1.008.054-.749.271-2.014.588-2.364 0 0 1.13-2.005 2.293-.263-.337-1.47-1.26-2.239-2.739-2.263l-6.845-.257s-1.906-.1-2.238 1.564c-.134 1.192-.205 1.743-.199 3.285z" class="C"/></g><path d="M12.181 74.014l-2.256-.084c-.342-.013-.627.275-.637.643s.26.676.602.689l2.256.084c.342.013.627-.275.637-.643s-.26-.676-.602-.689z" fill="#333"/><g class="C"><path d="M11.515 74.318l-1.111-.041c-.168-.006-.309.135-.314.317s.128.333.297.339l1.111.041c.169.006.309-.136.314-.317s-.128-.333-.297-.339z"/><path d="M16.041 78.363l1.596-.489.781.189-.584-.341.207-6.676-.386 6.626-1.614.692z" class="B"/></g><path d="M18.208 51.355s-4.191 4.286-5.062 13.379c0 0-.738 6.952 5.331 6.804 0 0 2.913-.33 5.173-1.163 0 0 2.715 1.489 4.068-.942 0 0 2.079 1.829 3.787-.416 0 0 1.541-1.787 1.676-3.799 0 0 3.133-.984 1.998-5.233 0 0 1.833-1.794.619-4.098 0 0-1.094-2.177-3.912-2.95 0 0-4.105-.937-6.801 1.527 0 0-2.263.703-2.491-1.948 0 0-1.075-2.134-1.45-3.356 0 0-1.49.751-2.938 2.196z" class="B D"/><path d="M25.877 44.488s-2.305 3.948-1.252 7.263c0 0 3.101-1.074 6.458 1.831-.03-.01-.122-.139-.247-.329-2.34-2.934-5.799-2.054-5.799-2.054-.984-2.234.593-5.932.865-6.663l-.026-.048z" class="B C"/><path d="M23.621 54.301s-2.203-1.281-4.8.844c0 0-3.646 2.3-5.482 8.181 0 0 .315-10.131 10.334-19.273 0 0 1.311-.175 1.416 1.281 0 0-2.413 6.288-1.469 8.967zm10.743-5.143s.863-.198 1.523-.057c0 0 .66.142.501-1.062 0 0-.107-.708-.639-1.486 0 0-.607-1.062-1.278 0-.043.085-.639 1.303-.682 1.586 0 0-.416 1.175.575 1.019z" class="F B"/><path d="M43.078 43.523s2.682 4.414 1.479 8.516c0 0-3.688-.799-7.102 2.719.031-.012.129-.171.262-.406 2.475-3.417 6.451-3 6.451-3 1.086-2.762-.879-6.862-1.119-7.769l.029-.059h0z" class="B C"/><path d="M60.565 20.967c.085-6.033 4.809-4.201 4.809-4.201-1.651-4.58-4.951-3.853-4.951-3.853-1.565.379-1.821-.411-1.821-.411-1.366-3.222 2.732-4.043 2.732-4.043-3.813-1.895-6.146 1.011-6.146 1.011 3.415-4.296.057-8.97.057-8.97-1.537 7.833-8.366 8.212-8.366 8.212-4.041.379-5.35 1.263-5.35 1.263 2.618-2.653.342-6.57.342-6.57-.911 3.79-4.895 5.18-4.895 5.18 1.024-2.085-.455-3.285-.455-3.285-.455 1.2-2.277 2.4-2.277 2.4 1.423-4.548-1.138-6.38-1.138-6.38-2.106 8.465-12.578 7.517-12.578 7.517C9.031 8.902 9.543 2.016 9.543 2.016s-4.041 2.969-1.65 10.549c0 0-3.325-2.672-5.84-.148 0 0 2.616 1.184 3.823 5.159 0 0-4.708-.804-5.875 4.333 0 0 3.3-1.519 5.232 2.859 0 0-3.823.313-3.944 4.467 0 0 1.167-1.563 2.656-.849 0 0 .885.893.483 1.831 0 0-2.294 3.037.402 9.112 0 0 .241-2.367 2.374-2.323 0 0 2.777 5.539-2.012 5.986 0 0 2.576 3.752 6.399 1.385 0 0 9.9 12.552 19.961-7.281 0 0 1.6-2.148 4.015.532 0 0 9.708 12.689 17.314 5.364 0 0 1.995 2.169 5.182.526 0 0-2.362-.884-2.077-3.443 0 0 3.301 2.748 6.175-1.8 0 0-3.102.032-3.586-2.211 0 0 6.178 3.086 7.345-5.579 0 0-2.656 2.591-3.743-.402 0 0-.483-1.34-.523-2.501 0 0 .322-2.144-.966-4.109 0 0-.243-.32-.121-2.505z" class="B H"/><path d="M11.231 28.677c.018-3.392 1.113-6.636 3.044-9.02s4.54-3.714 7.255-3.697 5.313 1.379 7.225 3.787 2.98 5.666 2.971 9.058-1.095 6.641-3.02 9.033-4.53 3.733-7.245 3.727-5.317-1.357-7.235-3.757-2.996-5.653-2.996-9.045" class="I"/><path d="M10.229 27.211c.018-3.833 1.142-7.499 3.123-10.193s4.659-4.197 7.444-4.178 5.452 1.559 7.414 4.28 3.058 6.403 3.049 10.236-1.124 7.504-3.098 10.208-4.648 4.218-7.434 4.212-5.456-1.534-7.424-4.246-3.074-6.389-3.074-10.222" class="D"/><path d="M10.479 27.761c.018-3.392 1.113-6.636 3.044-9.02s4.54-3.714 7.255-3.697 5.314 1.379 7.225 3.787 2.98 5.666 2.971 9.058-1.095 6.64-3.02 9.033-4.53 3.733-7.245 3.727-5.317-1.357-7.235-3.757-2.995-5.654-2.995-9.045" fill="#f4f4f4"/><path d="M28.51 25.35c1.054 4.023-.918 8.434-4.403 9.853s-7.166-.691-8.22-4.714.917-8.434 4.403-9.853 7.166.691 8.22 4.714z" fill="#e5aa4d"/><path d="M27.611 25.716c.904 3.45-.787 7.234-3.777 8.452s-6.147-.593-7.051-4.044.787-7.235 3.777-8.452 6.147.593 7.051 4.044z" fill="#d58508"/><path d="M26.856 26.081c.785 2.998-.684 6.286-3.282 7.343s-5.341-.515-6.126-3.513.684-6.286 3.282-7.344 5.341.515 6.126 3.513z" fill="#1c0e02"/><path d="M20.452 23.395c.252.962-.22 2.018-1.054 2.358s-1.715-.165-1.967-1.128.22-2.018 1.054-2.358 1.715.166 1.967 1.128z" fill="#fefefe"/><g class="B"><path d="M9.496 2.113c-.375.3-3.826 3.294-1.594 10.438.64.68 1.435 1.317 2.4 1.737 0 0-2.591-7.372-.805-12.175zM3.373 12.307c-.367-.017-.781.041-1.238.177.292.145 2.569 1.378 3.716 4.987.303.26.567.625.706 1.151 0 0 .243-6.153-3.184-6.315zm-.07 8.118c-.828.038-1.893.454-3.252 1.417l-.027.104s3.3-1.519 5.232 2.858l-.071.009c.207.101.537.38 1.013 1.149 0 0 .391-5.688-2.895-5.538h0zm.004 6.826c-.489.01-1.074.463-1.738 1.74.421-.413 1.322-1.084 2.398-.567 0 0 .507.514.578 1.171a4.72 4.72 0 0 1 .457-.271s-.618-2.095-1.696-2.073zm4.981 6.689c-.788.02-3.725.416-3.523 5.223l.087.205S5.094 37 7.227 37.045l.02.044c.147-1.032.475-2.415 1.232-3.146 0 0-.07-.006-.192-.004v.001zm22.847 3.945s-8.119 9.628-13.584 7.126c-.394-.188-4.113-1.626-5.915-4.815 0 0 .079 4.571-6.365 2.907.279.381 2.743 3.54 6.343 1.311 0 0 9.328 11.824 19.077-5.622.353-.59.445-.907.445-.907zM55.225.512c-.003.01-.004.018-.006.028 1.581 7.972-1.259 9.551-1.259 9.551.446-.067.921-.4 1.347-.796 3.174-4.243-.082-8.783-.082-8.783h0zm4.772 7.886c-4.041-.006-2.769 2.819-2.769 2.819.68 1.104 1.278 1.553 1.767 1.683-.326-.152-.412-.386-.412-.386-1.327-3.131 2.475-3.987 2.693-4.034l-1.279-.083zm2.431 7.2c-.561-.004-.947.09-.947.09-2.423.594-1.664 5.076-1.664 5.076a9.07 9.07 0 0 0 .773 2.467c-.059-.3-.118-.933-.045-2.252.085-6.033 4.809-4.201 4.809-4.201-.923-.974-2.111-1.177-2.928-1.18h.001zm3.471 14.899l-.017.015c-2.498 6.337-8.148 4.655-8.148 4.655a7.52 7.52 0 0 0 .82.911s6.178 3.086 7.345-5.58l-.001-.001zm-3.765 7.8c-3.616 2.038-6.258.717-6.258.717-.048.391-.004.752.105 1.087.092.075 3.321 2.667 6.153-1.803zm-25.985-1.134s1.27 1.846 1.079 2.391c3.107 3.233 9.954 8.919 15.633 3.45 0 0 1.96 2.125 5.097.565-4.719-.097-4.786-3.961-4.786-3.961-6.404 8.438-16.685-2.382-17.023-2.444z" class="D"/><path d="M25.988 15.813c-.39-.016-.64.023-.64.023L11.45 16.863C5.882 17.488 6.748 22 6.748 22l1.938 14.74s.825 5.227 6.063 4.691c7.382-.089 12.949-1.742 12.949-1.742 3.052-.804 3.464-4.199 3.464-4.199.495-6.789-.825-15.499-.825-15.499-.742-3.585-3.178-4.129-4.349-4.177h0zm.307 1.992c.327.013.746-.047 1.178.413.383.266.698.764.961 1.991.024.163 1.428 8.568.784 15.108-.004.071-.228 1.88-1.894 2.319-5.664 1.178-8.876 1.579-12.929 1.727-1.935.198-2.5-.626-3.014-1.364s-.653-1.506-.653-1.506c-.502-2.398-.818-5.081-1.132-7.599l-.897-7.06s-.083-.794.102-1.259c.308-.53.179-1.355 2.491-1.652 5.701-.508 10.514-1.028 15.003-1.117z" class="J"/></g><path d="M35.472 27.152c.018-3.338 1.076-6.53 2.944-8.876s4.391-3.655 7.017-3.638 5.139 1.357 6.988 3.727 2.882 5.576 2.874 8.914-1.059 6.535-2.92 8.889-4.381 3.674-7.007 3.668-5.142-1.335-6.997-3.698-2.897-5.563-2.897-8.901" class="I"/><path d="M35.878 25.699c.018-3.772 1.104-7.38 3.02-10.031s4.505-4.13 7.199-4.111 5.273 1.534 7.17 4.212 2.957 6.301 2.948 10.073-1.087 7.385-2.996 10.045-4.495 4.151-7.189 4.145-5.276-1.509-7.18-4.178-2.972-6.287-2.972-10.059" class="D"/><path d="M36.218 26.205c.017-3.338 1.076-6.53 2.943-8.877s4.391-3.655 7.017-3.638 5.139 1.357 6.988 3.727 2.882 5.576 2.874 8.914-1.059 6.535-2.92 8.889-4.381 3.673-7.007 3.668-5.142-1.335-6.997-3.698-2.897-5.564-2.897-8.901" fill="#f4f4f4"/><path d="M52.578 23.682c1.019 3.959-.887 8.3-4.258 9.697s-6.93-.68-7.949-4.639.887-8.3 4.258-9.696 6.93.68 7.949 4.639z" fill="#e5aa4d"/><path d="M51.71 24.042c.874 3.396-.761 7.119-3.652 8.317s-5.944-.584-6.819-3.979.761-7.119 3.652-8.317 5.944.584 6.819 3.979z" fill="#d58508"/><path d="M50.979 24.402c.76 2.95-.661 6.186-3.173 7.227s-5.165-.507-5.925-3.457.661-6.186 3.173-7.227 5.165.507 5.925 3.457z" fill="#1c0e02"/><path d="M44.786 21.757c.244.947-.212 1.986-1.019 2.32s-1.658-.163-1.902-1.11.212-1.986 1.019-2.32 1.658.163 1.902 1.11z" fill="#fefefe"/><path d="M34.26 41.546c1.606 0 2.908-1.71 2.908-3.819s-1.302-3.819-2.908-3.819-2.908 1.71-2.908 3.819 1.302 3.819 2.908 3.819z" class="D"/><g class="B"><path d="M39.593 14.8c.37-.072.613-.069.613-.069l13.362-.977c5.378-.18 5.083 4.418 5.083 4.418l-.112 14.893s-.171 5.301-5.224 5.522c-7.043.972-12.542.132-12.542.132-3.002-.359-3.794-3.666-3.794-3.666-1.27-6.661-1.037-15.486-1.037-15.486.285-3.661 2.542-4.55 3.652-4.766zm.343 2.146c-.31.06-.925.387-1.263.711s-.658.804-.764 2.057c-.004.165-.213 8.281.771 14.928.012.07.824 2.025 2.463 2.221 4.277.488 8.509.386 11.913-.032 2.41-.524 2.504-1.113 3.024-1.983.815-3.012.681-6.654.683-9.379.098-2.484-.067-5.322-.239-7.471 0 0 .003-.434-.227-.869-.334-.411-.516-1.331-2.65-1.263-4.304.46-9.641.567-13.71 1.079z" class="J"/><path d="M34.141 43.232c-.896-1.728-2.118-2.174-2.118-2.174s-1.273-.43-1.005-2.199c0 0 .117-2.265 1.708-3.472 0 0 1.758-1.306 3.349.132 0 0 1.808 1.786 1.423 4.944 0 0-.318 2.546-1.658 3.77 0 0-.712.686-1.214.074l-.485-1.075z" fill="#fab84a"/><path d="M34.461 34.844c-.97-.02-1.727.543-1.727.543-1.591 1.207-1.708 3.472-1.708 3.472a3.15 3.15 0 0 0-.037.457c.689-2.419 2.214-3.235 2.214-3.235 1.44-.777 1.775.661 1.825.678.469 1.29.536 3.522.536 3.522.162 2.116-.141 3.472-.456 4.278.385.014.74-.326.74-.326 1.34-1.224 1.658-3.77 1.658-3.77.385-3.158-1.423-4.943-1.423-4.943-.547-.495-1.113-.665-1.622-.675z" fill="#d2952f"/></g><g class="J"><path d="M7.193 25.194l-2.78 2.442c-.597.524-.791 1.355-.434 1.856l.04.056c.357.501 1.13.482 1.727-.042l2.78-2.442c.597-.524.791-1.355.434-1.856l-.04-.056c-.357-.501-1.13-.483-1.727.041zm51.136-4.477l1.978.266c.755.102 1.313.686 1.245 1.305l-.009.08c-.068.619-.735 1.039-1.49.938l-1.978-.266c-.755-.101-1.313-.686-1.245-1.305l.009-.08c.067-.619.735-1.039 1.49-.938z"/><path d="M29.903 30.925s1.764-2.387 7.081-1.323c0 0 1.173.123 1.191 1.686 0 0-.06 1.031-.819 1.045 0 0-.194-.3-.33-.293 0 0-3.267-1.495-6.291.739 0 0-.663.641-1.079-.077 0 0-.676-.906.247-1.778z" class="B"/></g><path d="M28.545 10.56s3.456 3.443 4.076 6.984c-.089-5.361-4.076-6.984-4.076-6.984zm9.218.492s-2.658 3.443-3.412 6.541c0 0 .354-5.557 3.412-6.541z" class="I B"/><path d="M17.483 55.946c3.042-3.417 5.75-1.935 5.75-1.935.352.412.887.514.887.514-7.187-.524-11.043 11.188-11.043 11.188s-.171-2.298.641-4.168c0 0 1.836-3.829 3.765-5.599z" class="B E"/><path d="M47.372 61.131c.148-.012 2.472-.577 4.839-2.158-2.384 1.045-4.908 1.688-4.908 1.688l.069.469z" class="B G"/><path d="M46.729 64.84s1.416-7.045-.708-11.121c0 0 3.646 3.61.708 11.121z" class="B C"/><path d="M13.996 62.278s3.646-8.385 9.233-8.035c-5.561-1.397-9.154 7.802-9.233 8.035z" class="B G"/><path d="M34.979 68.363c.608 0 1.102-.547 1.102-1.223s-.493-1.223-1.102-1.223-1.102.547-1.102 1.223.493 1.223 1.102 1.223zm.38 4.105c.558 0 1.01-.502 1.01-1.121s-.452-1.121-1.01-1.121-1.01.502-1.01 1.121.452 1.121 1.01 1.121zm.969 3.551c.471 0 .852-.424.852-.946s-.382-.946-.852-.946-.852.424-.852.946.382.946.852.946z" class="C"/><path d="M44.553 49.774c1.219.354 2.007-.139 2.007-.139.83-.428 1.312-.236 1.312-.236.811.15.454.814.454.814s.888-.118.579-.664c0 0-.444-.375-.444-.578 0 0-.193-.278.434-.525 0 0 1.892-.686 3.966-.985 0 0 4.165-.315 2.678-3.224 0 0-.382-2.303-6.961-3.999 0 0-2.02-.53-4.149-.167-.068-.015-1.856.212-1.761-1 0 0 0-.454 1.583-.591 0 0 1.228-.061 1.87-.439 0 0-1.392.152-3.084-.167 0 0-4.217-.621-4.9 1.818 0 0-.587 1.681 3.112 2.212 0 0 5.432.773 7.042 1.591 0 0 2.457.833.819 1.727 0 0-1.105.636-4.695.788 0 0-3.03-.03-3.972.833 0 0-.996.712.382 1.697 0 0 .73.415 1.597 1.621 0 0-.914-1.56.123-2.424 0 0 .737-.56 2.716-.136 0 0 1.501.197 1.72 1.015 0 0 .104.527-.633.739-.68.266-1.755.397-1.797.42z" fill="#e6e6e6" class="B"/><path d="M50.102 52.2H37.286v14.24h12.816V52.2z" class="K"/><path d="M43.694 53.7c3.164 0 5.73-.664 5.73-1.484s-2.565-1.484-5.73-1.484-5.73.664-5.73 1.484 2.565 1.484 5.73 1.484z" fill="#89816e"/><path d="M43.692 53.993c2.605 0 4.716-.434 4.716-.969s-2.111-.969-4.716-.969-4.716.434-4.716.969 2.111.969 4.716.969z" fill="#483737"/><path d="M43.694 50.351c-1.699 0-3.329.197-4.531.546s-1.877.824-1.877 1.318c0 .245.166.488.487.714s.794.432 1.389.605 1.301.311 2.079.404 1.611.142 2.452.142a20.7 20.7 0 0 0 2.452-.142c.778-.094 1.484-.231 2.079-.404s1.067-.379 1.389-.605.488-.469.487-.714c0-.495-.676-.969-1.877-1.318s-2.831-.546-4.531-.546zm0 .452a20.45 20.45 0 0 1 2.083.103c.66.068 1.26.168 1.766.295s.906.276 1.18.441.414.342.414.52c0 .36-.573.706-1.594.961s-2.405.398-3.849.398-2.828-.143-3.849-.398-1.594-.601-1.594-.961c0-.178.141-.355.414-.52s.674-.315 1.18-.441 1.105-.226 1.766-.295a20.45 20.45 0 0 1 2.083-.103z" class="L"/><path d="M43.694 68.259c3.539 0 6.408-.835 6.408-1.865s-2.869-1.865-6.408-1.865-6.408.835-6.408 1.865 2.869 1.865 6.408 1.865z" class="K"/><g class="B"><path d="M37.581 65.843h.003s.15.642.723.945c4.866 2.117 9.206.638 10.756-.038.048-.038.594-.462.648-.931l.101-12.391c-.737.545-2.047.788-2.047.788.382 2.636-.15 11.721-.15 11.721-3.385 1.333-7.261.111-7.261.111-1.092-5.151.15-11.71.15-11.71-2.556-.346-3.016-1.162-3.016-1.162l.093 12.668z" class="M"/><path d="M40.526 55.719s-1.133 5.09.014 7.817c0 0 .409.999.467.163l-.194-7.541s-.027-1.545-.287-.439z" class="L"/></g><path d="M41.394 53.019c.709 0 1.283-.062 1.283-.139s-.575-.139-1.283-.139-1.284.062-1.284.139.575.139 1.284.139zm2.504-.416c1.169 0 2.116-.062 2.116-.139s-.947-.139-2.116-.139-2.116.062-2.116.139.947.139 2.116.139z" fill="#e6e6e6"/><g class="B"><path d="M35.999 54.879c-1.57.091-2.388 1.697-2.388 1.697-.996 2.333-.287 5.12-.287 5.12.723 3.196 3.084 3.015 3.084 3.015 1.542.136 1.788-1.242 1.788-1.242.273-.939-.096-1.772-.096-1.772-.287-.53-.764-.061-.764-.061-.287.197-.109.879-.109.879.041.651-.568.769-.568.769-1.12.236-1.563-.836-1.563-.836-1.177-2.506-.368-4.754-.368-4.754s.494-1.362 1.541-1.071c0 0 .834.426.612 1.347 0 0-.241.761.106.985 0 0 .473.428.994-.021 0 0 .347-.204.251-1.414 0 0-.027-2.639-2.233-2.641z" class="K"/><path d="M33.578 56.682c-.932 2.311-.247 5.015-.247 5.015.701 3.096 2.919 3.023 3.059 3.015-3.223-1.735-3.047-6.162-2.812-8.03z" class="M"/><path d="M35.986 54.851c-.992.057-1.682.719-2.057 1.199 1.987-1.588 3.442-.38 4.209.819-.156-.78-.634-2.017-2.151-2.018z" class="L"/><path d="M37.684 61.44c-.192.028-.357.183-.357.183-.287.197-.109.879-.109.879.041.651-.568.768-.568.768-1.12.236-1.563-.835-1.563-.835a6.69 6.69 0 0 1-.373-.994v.039c0 .557.157 1.091.435 1.484s.657.615 1.051.615.772-.221 1.051-.615.435-.928.435-1.484v-.04h-.002zm-1.917-5.209c-.394 0-.772.221-1.051.615s-.435.928-.435 1.485a2.81 2.81 0 0 0 .185 1.009c.034-.986.265-1.636.265-1.636s.495-1.362 1.542-1.071c0 0 .834.427.612 1.348 0 0-.241.761.106.985a.79.79 0 0 0 .165.106 2.88 2.88 0 0 0 .098-.74c0-.557-.157-1.091-.435-1.485s-.657-.615-1.051-.615z" class="M"/><path d="M32.838 53.271c-1.821 4.061-3.657 10.234-1.867 16.306.18-.151.358-.335.532-.565 0 0 1.541-1.787 1.677-3.799 0 0 3.133-.983 1.998-5.232 0 0 1.832-1.795.619-4.098 0 0-.845-1.678-2.959-2.611z" class="D"/></g><path d="M34.991 68.038c.496 0 .898-.446.898-.996s-.402-.996-.898-.996-.898.446-.898.996.402.996.898.996z" fill="#333"/><path d="M29.999 52.763c-1.421.006-3.374.314-4.888 1.686-.404.57-.589 1.051-.589 1.051-6.126 1.24-8.08 6.636-8.08 6.636-1.627 4.297 1.45 5.982 1.483 6.051 2.662 1.554 5.908-1.023 5.908-1.023s-.055-1.934.54-3.145c0 0 .375 2.155.275 2.668 0 0 .007.352.451.376 0 0 1.11.044 1.408-.122 0 0 .44-.169.461-.715 0 0-.299-3.107-1.245-4.438 0 0 1.494.984 2.042 3.856 0 0 .093.702.761.809 0 0 1.863.429 2.961-.97 0 0 .292-.447.142-.83 0 0-.974-3.548-1.971-5.072 0 0 1.765 1.892 2.332 3.286 0 0 .136.472.527.216 0 0 2.289-1.27.828-4.647 0 0-.906-1.702-1.665-2.405 0 0 1.375-.192 2.405 2.193 0 0 1.166-1.269.974-3.355a6.61 6.61 0 0 0-3.165-1.93s-.786-.179-1.896-.175z" class="B H"/><path d="M35.381 72.155c.444 0 .805-.4.805-.893s-.36-.893-.805-.893-.805.4-.805.893.36.893.805.893zm1.004 3.626c.39 0 .707-.351.707-.785s-.317-.785-.707-.785-.707.351-.707.785.317.785.707.785z" fill="#333"/><g fill="#999"><use href="#B"/><path d="M35.687 70.996c.094 0 .169-.084.169-.188s-.076-.188-.169-.188-.169.084-.169.188.076.188.169.188z"/><use href="#B" x="-1.245" y="-8.195"/></g><path d="M33.094 1.368l-.016.061c1.215 3.774-1.238 8.088-1.238 8.088a5.23 5.23 0 0 0 2.417-1.851c1.365-4.487-1.162-6.297-1.162-6.297h0zm8.769 2.06c-.911 3.79-4.895 5.18-4.895 5.18 1.024-2.085-.455-3.285-.455-3.285-.004.011-.011.023-.015.034.834 2.028-2.138 3.966-2.499 4.019 0 0 8.86 1.953 7.871-5.935l-.007-.013h0z" class="B D"/><defs ><path id="B" d="M36.565 74.824c.093 0 .169-.084.169-.188s-.076-.188-.169-.188-.169.084-.169.188.076.188.169.188z"/></defs></svg>