<svg xmlns="http://www.w3.org/2000/svg" width="63" height="81" fill="none" xmlns:v="https://vecta.io/nano"><style><![CDATA[.B{fill:#173c3f}.C{fill-rule:evenodd}.D{fill:#225054}.E{fill:#d6d4c8}.F{fill:#fab84a}]]></style><path d="M41.407 63.324c-1.408 5.521-4.109 9.91-7.51 12.203s-7.223 2.304-10.629.03-6.116-6.648-7.535-12.161-1.433-11.715-.038-17.244 4.087-9.934 7.482-12.248 7.218-2.347 10.629-.092 6.13 6.612 7.563 12.117 1.46 11.706.076 17.244" fill="#bcb9a8"/><g class="C"><path d="M21.238 57.765c-2.382-4.185-3.681-17.101-3.681-17.101-.909-3.012-1.348-1.111-1.348-1.111-5.91 7.33-4.164 18.557-4.164 18.557s1.105 3.375 4.902 2.21c0 0 2.741-.567 4.291-2.554z" class="D"/><path d="M15.145 41.05c-2.841 3.466-3.125 9.433-3.125 9.433s3.655-6.763 5.644-8.354l-.87-1.078s-.284-.227-.739-.227-.909.227-.909.227z" class="B"/><path d="M39.509 37.655s8.012 7.273 9.603 15.57c0 0 .341 4.177-1.137 7.075 0 0-2.642 3.097-6.592.852 0 0-2.813-1.449-1.136-5.057 0 0 3.492-6.466-3.78-16.512 0 0-1.326-2.049.482-2.29 0 0 1.679-.319 2.56.362z" class="D"/><path d="M18.27 46.164c.201-.121 4.299-1.045 6.027-3.255 0 0 1.085-1.527 2.089-.643.12.161 1.205 1.085 1.567 1.286 0 0 .603.482 1.366-.121 0 0 1.446-1.205 1.848-1.246 0 0 .723-.241 1.125.482 0 0 3.094 3.174 6.349 2.893 0 0 2.418 6.547-2.304 13.661 0 0-4.534 7.339-13.132.348 0 0-4.342-5.225-4.936-13.406z" class="E"/><path d="M22.87 12.329c-1.065-1.868-.161-3.857-.141-3.938.743 2.069 3.255 2.893 3.255 2.893-.04-3.616 2.692-5.585 2.692-5.585-.723 1.406.321 4.259.321 4.259 2.813-3.014 6.871-3.335 7.072-3.415 2.371-.804 9.87-.496 9.87-.496 4.376-.057 5.313-.682 5.313-.682C55.457 3.774 55.229.507 55.229.507c2.586 2.216 1.733 5.398 1.733 5.398 1.335-.597 2.727-2.358 2.727-2.358 1.222 4.66-1.762 8.325-1.762 8.325 4.66 1.989 4.66 5.114 4.66 5.114-1.279-1.023-2.812-.88-2.812-.88 3.737 7.634 1.647 10.648 1.647 10.648-.603-1.768-2.13-2.411-2.13-2.411 1.125 12.135-1.908 13.22-1.908 13.22-.08-1.025-1.246-1.938-1.246-1.938-3.807 8.41-14.831 7.103-14.831 7.103-7.842-.284-11.081-7.103-11.081-7.103-1.648-1.989-3.068.057-3.068.057-3.125 4.091-6.99 5.512-6.99 5.512-7.444 3.921-13.865-1.591-13.865-1.591-4.432-2.898-4.348-10.397-4.348-10.397-.683.603-1.246 2.331-1.246 2.331-1.688-3.898.164-7.101.164-7.101 1.888-2.993 2.568-5.958 2.568-5.958C1.835 19.32.67 21.329.67 21.329c-.482-4.018 2.111-5.508 2.111-5.508-2.358-1.96-1.733-3.523-1.733-3.523.739.909 2.33.966 2.33.966-1.904-5.143 1.307-7.785 1.307-7.785s-.341 3.949 3.779 5.171c0 0 1.136.54 4.574.625 0 0 7.703-.052 9.832 1.054z" class="B"/><path d="M55.226.5s.227 3.267-3.978 4.858c0 0-.938.625-5.313.682 0 0-7.499-.308-9.869.496-.201.08-4.259.402-7.072 3.415 0 0-1.045-2.853-.321-4.259 0 0-2.732 1.969-2.692 5.585 0 0-2.511-.824-3.255-2.893-.02.08-.924 2.069.141 3.938-2.129-1.105-9.832-1.054-9.832-1.054-3.438-.085-4.575-.625-4.575-.625-4.12-1.222-3.779-5.171-3.779-5.171s-3.21 2.642-1.307 7.785c0 0-1.591-.057-2.33-.966 0 0-.625 1.563 1.733 3.523 0 0-2.577 1.483-2.114 5.475 1.41-4.688 3.941-4.889 3.941-4.889-.121 3.074-2.395 7.597-2.395 7.597-.909 1.79-.71 3.835-.71 3.835.313-.994 1.989-2.614 1.989-2.614-.625 3.779.852 7.416.852 7.416 2.188 6.45 9.319 7.529 9.319 7.529 6.506 1.136 12.53-5.285 12.53-5.285s2.699-3.324 5.086-.114c0 0 2.36 4.475 9.605 5.043 0 0 5.144.902 9.633-1.542 0 0 4.372-2.308 5.282-6.342 0 0 1.25 1.08 1.563 2.444 0 0 1.733-3.012.767-12.842 0 0 2.102 1.335 2.614 2.5 0 0-.403-9.212-5.626-11.583 0 0 5.07-3.554 4.497-8.807-.305.368-1.496 1.747-2.649 2.262 0 0 .852-3.182-1.733-5.398z" class="D"/></g><path d="M32.976 37.114c.818-.797 1.128-1.927.692-2.524s-1.454-.435-2.272.362-1.128 1.927-.692 2.524 1.453.435 2.272-.362z" fill="#b8475f"/><g class="C"><path d="M24.988 36.292s.748-2.556 1.652-3.059c0 0 3.194-1.909 5.264 1.306 0 0 .603 1.105-.301 3.757 0 0-1.447 3.154-2.511 4.38 0 0-.402.723-1.004.1 0 0-2.783-4.324-2.963-5.244-.196-.623-.136-1.241-.136-1.241z" fill="#d2952f"/><path d="M28.7 32.678c-1.155.023-2.057.562-2.057.562-1.443.972-1.608 2.355-1.656 3.052l.009.062s.904 2.833 3.114 4.038c0 0 2.082-1.722 2.141-7.387-.53-.253-1.063-.337-1.55-.327z" class="F"/></g><path d="M32.71 36.406c.354.088.746-.264.876-.785s-.053-1.016-.407-1.104-.746.264-.876.785.052 1.016.407 1.104z" fill="#cd677e"/><path d="M42.311 36.493c5.666.236 10.444-4.65 10.674-10.914s-4.177-11.534-9.843-11.771-10.444 4.65-10.674 10.914 4.177 11.534 9.843 11.771z" class="B"/><path d="M42.286 35.022c5.636.205 10.389-4.037 10.617-9.476s-4.155-10.014-9.791-10.22-10.389 4.037-10.617 9.476 4.156 10.014 9.791 10.22z" class="E"/><use href="#B" class="F"/><use href="#C" fill="#cf7b14"/><path d="M42.128 34.084a4.65 4.65 0 0 1-4.658-4.639 4.65 4.65 0 1 1 9.317 0 4.65 4.65 0 0 1-4.658 4.639z" fill="#201e1e"/><use href="#D" fill="#fefefe"/><path d="M15.324 37.258c5.192.217 9.572-4.264 9.782-10.008s-3.829-10.576-9.021-10.793-9.572 4.264-9.782 10.008 3.829 10.577 9.021 10.793z" class="B"/><path d="M15.339 35.948c5.192.189 9.572-3.72 9.782-8.731s-3.829-9.227-9.021-9.416-9.572 3.72-9.782 8.731 3.829 9.227 9.021 9.416z" class="E"/><use href="#B" x="-24.417" y="0.482" class="F"/><use href="#C" x="-24.417" y="0.567" fill="#cf7b14"/><path d="M18.023 34.822a4.65 4.65 0 0 1-4.658-4.639 4.65 4.65 0 0 1 4.658-4.639 4.65 4.65 0 0 1 4.658 4.639 4.65 4.65 0 0 1-4.658 4.639z" fill="#201e1e"/><use href="#D" x="-24.417" y="0.483" fill="#fefefe"/><g class="C"><path d="M23.932 22.274c-8.566.919-16.213-.369-16.498-.369 0 0 1.975-7.096 10.385-5.448 0 0 5.307 1.581 6.112 5.817z" class="D"/><path d="M7.421 22.464s-1.165-.824-1.392-1.932c0 0 8.524 2.5 16.82 1.534 0 0 1.307.057.597-2.387a2.95 2.95 0 0 0 1.222 2.955s-.057.938-2.16.824c0 0-9.262.313-14.86-1.591l-.227.597zm18.667-1.818s.767 1.818.114 3.353c0 0 1.477-.312 1.392-2.017 0 0-.085-1.279-1.506-1.335z" class="B"/><path d="M25.33 52.714l-8.921-12.303 1.697-1.291 9.157 12.286-1.932 1.307z" fill="#d1a04d"/></g><path d="M17.067 39.596c.619-.41.762-1.319.321-2.032s-1.301-.959-1.92-.549-.762 1.319-.321 2.032 1.301.959 1.92.549z" fill="#bc599e"/><path d="M15.296 37.541c.047.245.42.39.833.323s.709-.32.662-.565-.42-.39-.833-.323-.709.32-.662.565z" fill="#de80bf"/><path d="M16.52 40.569c.835-.178 1.764-1.198 1.764-1.198.373-.483.186-.755.186-.755-.162-.317-.555-.266-.555-.266.12-.354-.023-.71-.567-.687-1.549.377-2.064 1.405-2.064 1.405s-.268.666.371.777c0 0-.094.508.162.65 0 0 .21.204.702.073z" fill="#6c6a6a" class="C"/><g fill="#f5b448"><path d="M21.747 45.623c2.243 3.008 4.184 5.356 4.335 5.243s-1.544-2.643-3.788-5.651-4.184-5.356-4.335-5.243 1.545 2.643 3.787 5.651z"/><path d="M20.939 46.183c2.243 3.008 4.184 5.356 4.335 5.243s-1.544-2.643-3.787-5.651-4.184-5.356-4.335-5.243 1.544 2.643 3.787 5.651z"/></g><g fill="#959595"><path d="M17.34 39.934c.653-.43 1.058-.984.904-1.237s-.809-.11-1.462.32-1.058.984-.904 1.237.809.11 1.462-.32z"/><path d="M16.774 39.083c.591-.39.961-.885.826-1.106s-.722-.084-1.312.306-.961.885-.826 1.106.722.084 1.312-.306z"/></g><g class="C"><path d="M17.196 50.693s11.291.281 14.304 1.085c0 0 4.661 1.446 4.46 5.866 0 0-1.567 4.219-7.192 4.902 0 0-6.67.683-13.38.522 0 0-3.576.161-3.416-5.746 0 0 .161-3.576 2.371-5.505 0 0 1.085-1.025 2.853-1.125z" class="D"/><path d="M15.655 51.773s2.06-2.33 11.081-.511c-7.075-.554-11.081.511-11.081.511zm-3.78.34s.987 6.975 2.976 8.566c0 0 1.307 1.08 6.932-1.477 0 0 5.683-2.955 6.194 0 0 0 .057 2.557-3.523 3.409 0 0-7.046.909-9.376.511 0 0-2.5-.284-2.898-3.466 0 0-.703-5.214-.305-7.543z" class="B"/><path d="M17.085 77.488s-.994-1.051.313-1.932c0 0 1.762-1.307 4.603-.796 0 0 1.705.114 2.5.852 0 0 .739.966.227 2.33 0 0-.597 2.074-2.727 2.529 0 0-1.875.085-2.415-1.193 0 0-3.183.568-2.501-1.79zm14.538-.942s-.142 2.273 2.728 3.211c0 0 2.245.966 3.097-.71 0 0 1.733.597 2.386-.795 0 0 .256-.682.114-1.222 0 0 .597-.511.114-1.478 0 0-.739-1.648-3.751-1.534 0 0-1.932-.057-3.921 1.591-.483.369-.767.938-.767.938z" fill="#ce9434"/><path d="M37.645 74.974l-.066.004c2.009.683 1.828 2.592 1.828 2.592-.12.804-1.145 1.045-1.145 1.045-.442.141-.562-.221-.562-.221-.743-2.069-2.451-2.15-2.451-2.15 1.969 1.748 1.487 2.833 1.487 2.833-.542 1.005-2.672.542-2.672.542s-.009.02-.013.029l.318.115s2.245.966 3.097-.71c0 0 1.733.597 2.387-.796 0 0 .197-.526.148-1.02-.128-.537-.272-.872-.272-.872a2.12 2.12 0 0 0-2.084-1.391h0zm-17.148.488c-.646-.009-1.709.172-2.784 1.202 0 0-.328.26-.628.832l.017.02c-.682 2.358 2.5 1.79 2.5 1.79.54 1.279 2.415 1.193 2.415 1.193-.131-.021-2.023-.275-1.463-1.833 0 0 .284-1.335 2.23-2.458 0 0-1.818-.085-3.154 1.904 0 0-.521.875-1.102.855 0 0-1.341.139-.986-1.069 0 0 .568-2.117 3.58-2.358 0 0-.238-.074-.626-.079z" fill="#ad7821"/><path d="M42.759 40.676c-.968.132-1.768.35-2.037.443-.739.256-2.494 1.025-2.494 1.025 2.87 2.898 6.213 3.736 6.213 3.736 1.162 1.087 2.545 6.306 2.545 6.306 1.205 3.415-.442 6.951-.442 6.951-2.451 4.42-4.922 5.404-4.922 5.404-2.692 1.306-5.063-.121-5.063-.121-2.21-.783-2.612-3.476-2.612-3.476-.201 1.145.904 3.998.904 3.998.08 1.547-2.511 1.828-2.511 1.828-3.657.482-7.012-4.36-7.012-4.36.201 2.069 3.295 4.822 3.295 4.822.221.643-.783.944-.783.944-4.318.26-6.074-3.082-6.474-4.003.633 1.722 1.732 3.51 3.641 4.605 0 0 5.465 3.255 7.474.482 0 0 4.219 3.134 5.947-.603 0 0 6.871.78 10.146-10.204l.049-.168.091-.316c.645-2.544.432-5.169.432-5.169-.917-4.782-3.967-9.222-6.387-12.127z" class="B"/></g><path d="M24.229 50.709s4.772-8.081 17.41-10.376c0 0-.638.652-.645.965l1.405 1.162L27.28 52.646s-.989-1.427-3.052-1.937zm-.665.026c-.27-.201-2.97-6.159-17.057-5.73a2.11 2.11 0 0 0 .688.796l-1.003 1.271 14.513 5.856s.878-1.899 2.859-2.193z" fill="#e6e6e6"/><path d="M23.925 58.291a3.87 3.87 0 1 0 .151-7.741 3.87 3.87 0 1 0-.151 7.741z" fill="#6c5353"/><path d="M9.388 67.22l13.296 4.546s4.469 1.995 8.253-.641l12.294-8.077.914-20.788-16.322 10.75s-3.496 2.583-7.986.256L4.009 46.795 9.388 67.22z" fill="#e2e635"/><path d="M23.935 57.763c1.846.036 3.372-1.431 3.408-3.277s-1.431-3.372-3.277-3.408-3.372 1.431-3.408 3.277 1.431 3.372 3.277 3.408z" fill="#ac9393"/><g fill="#a7aa10"><path d="M27.934 52.935l-.112.074-.04.028-.117.077-.087.054-.227.131-.139.074a7.77 7.77 0 0 1-1.676.631c-1.289.323-3.034.413-5.008-.415l-.205-.089-.411-.196 2.753 18.456.018.006s4.288 1.914 8.02-.486l-2.77-18.345h0z"/><path d="M4.011 46.799s-.198-.443.193-.615c0 0 .301-.167.802-.019l15.298 6.286s3.757 2.008 7.134-.392l15.534-10.361s.418-.383 1.008-.049c0 0 .338.231.154.609L27.952 52.946s-3.365 2.695-8.036.378L4.011 46.799z"/></g><path d="M8.968 45.962l-.804.017c-.01.001-.02.003-.029.008s-.017.01-.024.018-.012.016-.015.025-.005.019-.004.029.003.02.007.029.01.017.018.024.016.012.026.015.019.005.029.004c0 0 4.806-.27 7.989 1.419.009.005.018.008.028.008s.02 0 .029-.003.018-.008.026-.014.014-.014.019-.023.008-.018.009-.028a.07.07 0 0 0-.003-.029c-.003-.009-.008-.018-.014-.026s-.014-.014-.023-.019c-2.433-1.291-5.755-1.453-7.264-1.454zm3.064 2.458c-.02-.001-.04.005-.055.019s-.024.032-.026.051.005.04.018.055.032.025.051.026c0 0 1.38.173 3.087.633s3.737 1.209 5.027 2.344c.007.007.016.012.026.016s.02.005.03.005.02-.003.029-.007.017-.011.024-.018.012-.016.015-.026.004-.02.004-.03-.004-.02-.008-.029-.011-.017-.019-.023c-1.324-1.165-3.371-1.913-5.088-2.376s-3.107-.637-3.107-.637l-.008-.001zm-1.873-1.19c-.02 0-.04.007-.054.021s-.023.033-.023.053.007.04.021.054.033.023.053.023l.82.025 1.89.191c1.525.222 3.489.675 5.338 1.596.009.005.019.008.029.009s.02 0 .03-.003.019-.008.027-.015.014-.015.019-.024.007-.019.008-.029-.001-.02-.004-.03-.009-.018-.016-.026-.015-.014-.025-.018c-1.87-.931-3.848-1.386-5.384-1.61l-1.903-.192-.825-.026zm28.11-4.903l.783-.187c.01-.002.02-.002.03 0s.019.006.027.011.015.013.021.021a.07.07 0 0 1 .011.027c.002.009.002.02 0 .03s-.006.019-.011.027-.013.015-.021.021-.017.009-.027.011c0 0-4.718.956-7.369 3.396-.007.007-.016.012-.025.016s-.019.005-.029.005-.02-.003-.029-.007-.017-.01-.024-.017-.012-.016-.015-.026-.005-.019-.005-.029.003-.02.007-.029.01-.017.018-.024c2.026-1.865 5.199-2.863 6.659-3.246zm-2.342 3.155c.019-.006.04-.005.058.004s.031.024.038.043.005.04-.004.057-.024.032-.043.038c0 0-1.291.517-2.826 1.394s-3.309 2.116-4.27 3.54c-.005.009-.012.016-.021.022s-.018.01-.028.012-.02.002-.03 0-.019-.006-.028-.012-.015-.013-.021-.022-.009-.018-.011-.028-.002-.02.001-.03.006-.019.012-.027c.986-1.462 2.776-2.705 4.321-3.587s2.844-1.403 2.844-1.403l.007-.003zm1.511-1.626c.01-.003.02-.004.03-.003s.02.004.028.009.017.011.023.019.011.017.014.026.003.02.002.03-.004.02-.009.028-.011.016-.019.023-.017.011-.027.013l-.786.232-1.78.663c-1.419.601-3.205 1.536-4.76 2.895-.007.007-.016.013-.026.016s-.02.005-.03.005-.02-.003-.029-.007-.017-.011-.024-.018-.012-.017-.015-.026-.004-.02-.003-.03.004-.02.009-.029.011-.017.019-.023c1.573-1.374 3.371-2.316 4.801-2.921l1.793-.668.791-.234z" fill="#ccc"/><g class="C"><path d="M41.771 52.681s-10.487-2.451-18.082.723c0 0-3.255 1.286-3.174 5.987 0 0-.12 6.71 4.5 9.362 0 0 5.465 3.255 7.474.482 0 0 4.219 3.134 5.947-.603 0 0 7.072.804 10.286-10.688-.08-.161.502-1.647-.924-2.612-2.35-1.889-6.027-2.652-6.027-2.652z" class="D"/><path d="M33.547 51.735c-3.143-.026-6.706.335-9.791 1.625 0 0-.379.15-.875.534.612-.217 8.665-2.902 23.649.502-2.194-1.24-4.692-1.759-4.692-1.759s-3.697-.864-8.291-.902z" class="B"/></g><path d="M47.222 53.01c.713 3.137-.678 6.127-.678 6.127-2.451 4.42-4.922 5.404-4.922 5.404-2.692 1.306-5.063-.12-5.063-.12-2.21-.784-2.612-3.476-2.612-3.476-.201 1.145.904 3.998.904 3.998.08 1.547-2.511 1.828-2.511 1.828-3.657.482-7.012-4.36-7.012-4.36.201 2.069 3.295 4.822 3.295 4.822.221.643-.783.944-.783.944-4.318.26-6.074-3.082-6.474-4.003.633 1.722 1.732 3.51 3.641 4.605 0 0 5.465 3.255 7.474.482 0 0 4.219 3.134 5.947-.602 0 0 6.871.78 10.146-10.205.017-.056.032-.112.049-.168l.091-.316c.543-2.142.478-4.318.444-4.962h-1.935z" class="B"/><defs ><path id="B" d="M42.288 34.816c-3.295 0-5.966-2.66-5.966-5.942s2.671-5.942 5.966-5.942 5.966 2.66 5.966 5.942-2.671 5.942-5.966 5.942z"/><path id="C" d="M42.288 34.515c-2.965 0-5.368-2.393-5.368-5.346s2.403-5.346 5.368-5.346 5.368 2.393 5.368 5.346-2.403 5.346-5.368 5.346z"/><path id="D" d="M45.889 28.855c-.826 0-1.496-.667-1.496-1.489s.67-1.489 1.496-1.489 1.495.667 1.495 1.489-.67 1.489-1.495 1.489z"/></defs></svg>