<svg xmlns="http://www.w3.org/2000/svg" width="82" height="80" fill="none" xmlns:v="https://vecta.io/nano"><style><![CDATA[.B{fill-rule:evenodd}.C{fill:#194145}.D{fill:#fab84a}.E{fill:#a3cfce}.F{fill:#225054}.G{fill:#bcb9a8}.H{fill:#f1a945}]]></style><path d="M60.812 60.185c-9.333-3.856-23.247-1.435-23.247-1.435-8.728.986-14.259 11.793-14.259 11.793-.173 3.229 3.025 2.825 3.025 2.825 7.432-.179 11.191 2.108 11.191 2.108 7.259 2.87 14.648.628 14.648.628 7.389-1.569 15.988-.762 15.988-.762 6.265.449 6.784-2.332 6.784-2.332S68.33 62.428 60.812 60.185z" class="E"/><path d="M50.555 77.406c-9.151 0-16.568-10.436-16.568-23.31s7.418-23.31 16.569-23.31 16.568 10.436 16.568 23.31-7.418 23.31-16.568 23.31z" class="G"/><path d="M43.686 40.549c.57 7.265 3.363 10.591 3.363 10.591.247.209.508.062.508.062 2.81-.713 3.065-7.439 4.273-8.907 2.453 5.091 7.706 8.032 7.711 13.762 0 7.825-5.713 14.169-12.76 14.169s-13.153-7.16-13.153-14.985c2.361-3.096 6.88-4.359 10.058-14.693z" fill="#d5d3c7"/><g class="B"><path d="M31.007 42.464c-3.77 8.722-1.334 16.476-1.334 16.476 2.972 9.161 10.531 15.646 10.531 15.646.962.816 1.661.68 1.661.68.874-.272.218-1.088.218-1.088-.306-.499-3.583-8.208-3.583-8.208-3.671-6.757-2.884-15.646-2.884-15.646.393-4.399 2.972-8.072 2.972-8.072s.855-1.006.083-1.648c0 0-5.315-1.796-7.663 1.86zm35.351 2.164s4.326 7.632 2.657 16.034c0 0-1.36 8.594-6.242 11.929 0 0-1.421.93-1.885 1.026 0 0-1.02.513-1.514-.673 0 0-1.298-5.227-2.163-6.574 0 0-1.444-2.578-2.362-6.206 0 0-1.356-6.059.523-11.32 0 0 1.356-3.782 3.76-5.823 3.933-4.127 7.226 1.606 7.226 1.606z" class="C"/><path d="M60.206 73.566s-.372.295-.087 1.134c0 0 .787 2.426-.284 4.399 0 0-.524 1.156-1.704.091 0 0-.415-.249-.612-1.474 0 0-.415 1.542-1.486 2.018 0 0-.918.612-1.792-.499 0 0-.568 1.043-1.355.635 0 0-.939-.249-1.136-1.746 0 0-.044-1.678.656-3.084 0 0 .349-.726 1.114-1.292 0 0 1.224-.816 1.792-.136 0 0 .361-.601 1.529-.567 0 0 .852-.023 1.049.623 0 0 .568-1.156 1.726-.85 0 0 .819.125.59.748z" class="D"/><path d="M54.664 52.187c-1.112 7.183 1.697 12.189 1.697 12.189 2.101 3.239 4.264 3.688 4.264 3.688 2.225.994 3.801-1.058 3.801-1.058 3.708-3.912 3.337-9.171 3.337-9.171.247-6.927-4.573-9.235-4.573-9.235s-2.137-.412-5.011 1.288c0 0-2.959.055-3.516 2.3zM38.489 65.951s.541 2.774-2.132 1.443c0 0-1.02-.77-2.271-2.726 0 0-2.704-3.784-3.322-8.562 0 0-.665-3.735 2.132-6.864 0 0 .421-.633 1.71-1.166 0 0 1.391-.4 1.151 1.21-1.169 8.118 2.733 16.665 2.733 16.665z" class="F"/><path d="M48.52 75.83l.123 2.116s.108 1.331-.742 1.732c0 0-1.02.609-1.901-.593 0 0-.448-.978-.402-2.1 0 0-.232.24-.324 1.283 0 0-.185 1.154-.912 1.219 0 0-1.051.289-1.529-1.058 0 0-.216-.513-.185-.93 0 0-.216 1.411-.788 1.651 0 0-.958.513-1.638-.706 0 0-.572-1.058.294-2.918 0 0 .618-1.203 1.653-1.651 0 0 1.576-.625 2.055.529 0 0 .417-.593 1.282-.593 0 0 .726-.112 1.112.369 0 0 .402-.497.803-.497 0 0 .773-.192.989.593a4.57 4.57 0 0 0 .044.692l.064.863z" class="D"/><path d="M51.803 77.254c.131.93.841.873.841.873.71-.034.798-.794.798-.794.131-2.438 1.398-3.945 1.398-3.945.306 0 .437.306.437.306-1.606 1.927-.797 4.104-.797 4.104.568.782 1.377-.045 1.377-.045.612-.476.524-1.621.524-1.621.044-1.417.645-1.837.645-1.837.579-.635.339-1.134.339-1.134.47.17.492.533.492.533-.393 1.644-.208 2.63-.208 2.63.623 1.599 1.54 1.383 1.54 1.383 1.093-.023 1.202-1.122 1.202-1.122s.131 1.678-.519 2.551c0 0-.467.95-1.48.272 0 0-.666-.238-.874-1.576 0 0-.612 1.757-1.77 2.041 0 0-.896.295-1.497-.601 0 0-.47.782-1.104.726 0 0-.852-.023-1.256-1.213 0 0-.284-.805-.087-1.531zm-3.332-2.021s-.34 1.154-.34 2.02c0 0-.093.914-.973.962 0 0-.865.224-1.066-1.09 0 0-.34-1.539.185-2.597 0 0-.618-.481-1.298.257 0 0-.556.673-.572 1.972 0 0 .015.818-.247 1.203 0 0-.264.655-.799.065 0 0-.415-.408-.415-1.621 0 0 .109-1.077.677-1.757 0 0 .175-.238.011-.295 0 0-.59-.102-.951.238 0 0-.71.816-1.038 2.143 0 0-.12.669-.546.76 0 0-.335.063-.619-.401 0 0-.24-.329-.251-.805 0 0-.337.776-.151 1.899 0 0 .24 1.027 1.081 1.197 0 0 1.044.457 1.47-1.583 0 0 .122 1.651 1.176 1.812 0 0 .932.138 1.205-.429 0 0 .284-.544.284-.952 0 0 .077-.805.306-1.1 0 0 .022 1.508.513 2.154 0 0 .579.839 1.42.623 0 0 .983-.147 1.125-1.338 0 0 .055-.51 0-.748l-.189-2.587z" fill="#e89c23"/></g><path d="M44.097 41.076s-1.018 12.535-7.466 19.397l-1.058-4.993c-.028-1.13.983-2.722 2.131-4.65s2.022-3.119 2.568-4.48.82-2.268 1.475-3.232 1.038-1.474 1.038-1.474l.984-1.588.328 1.021z" class="G"/><path d="M23.46 71.769c-.657-1.604 1.971-1.845 1.971-1.845 4.231-.702 8.133 3.188 8.133 3.188s-.804-9.236 4.086-15.985c0 0 9.456-16.743 5.085-25.816 0 0-1.639-2.949-4.754-.34 0 0-4.918 5.841-5.628 13.837 0 0 2.237 6.422-1.314 12.603 0 0-9.254 10.967-7.578 14.358zm43.375-10.195c-4.637-6.496-6.646-21.413-6.646-21.413-.155-3.609-3.478-6.656-3.478-6.656-3.323-3.769-4.559 1.684-4.559 1.684-.232 2.486 1.004 12.591 1.004 12.591 2.473 16.761 10.008 25.663 10.008 25.663 4.714-2.085 8.81-1.564 8.964-1.564 3.903.241 1.917 2.351 1.917 2.351s.514-.192.924-1.17c0 0 .341-1.148-.888-2.112 0 0-1.079-.879-1.94-2.056 0 0-4.753-6.272-5.307-7.318z" fill="#eafdff"/><g class="B"><path d="M63.509 44.087s6.63 3.403 10.706 13.662c0 0 3.205 7.816-4.402 9.943 0 0-3.736.719-6.825.606 0 0-2.891 2.763-5.376.445 0 0-1.989 2.917-4.853.95 0 0-2.507-1.497-3.337-3.789 0 0-4.226.042-4.21-5.337 0 0-2.872-1.395-2.119-4.537 0 0 .646-2.949 3.901-4.918 0 0 4.805-2.646 8.972-.799 0 0 1.969-.506 2.461-3.212 0 0 .637-2.892.701-4.457 0 0 2.102.31 4.381 1.444z" class="C"/><path d="M51.433 37.444s4.826 8.467 13.911 9.869c0 0 3.929 1.104 8.798-4.926 0 0 5.09-4.768 3.576-11.563 0 0 1.637 1.826 1.555 4.035 0 0-.102 1.21.962.34 0 0 4.317-7.007-1.535-12.826 0 0 1.303-.149 2.143.752 0 0 1.013 1.171 1.157-.42 0 0 .087-5.195-6.655-6.877 0 0 3.501-3.513-.376-7.958 0 0-.955 5.435-7.436 3.303 0 0 1.215-6.907-4.977-9.67 0 0-.174 6.126-4.341 6.126 0 0-5.556 0-12.443-7.628 0 0-.752 3.183.231 5.946 0 0-2.72-3.003-3.125-5.045 0 0-2.431 2.583-2.257 6.126 0 0-7.292.54-11.98-3.423 0 0-1.1 3.303.289 6.607 0 0-3.125-.18-4.919-3.664 0 0-2.315 2.402 0 6.607 0 0-6.598.601-7.292 7.207 0 0-.16 1.31.781.843 0 0 1.187-.828 2.374-.934 0 0-3.56 3.034-3.271 6.518 0 0-.058 3.183 2.836 4.204 0 0-1.794 4.625 1.678 8.589 0 0 .694.991 1.186-.3 0 0 .058-.48.434-.45 0 0 1.552 3.788 4.793 5.59 0 0 3.823 3.642 8.51.88 0 0 3.739-.583 6.401-7.67 0 0 1.181-2.683 4.075-4.184 0 0 2.411-.734 4.916 4z" class="F"/></g><g fill="#1a4346"><use href="#B"/><path d="M64.972 30.214c-4.6 1.964-10.447-.855-13.061-6.297s-1.002-11.447 3.598-13.411 10.448.855 13.061 6.297 1.002 11.447-3.598 13.411z"/><path d="M67.553 35.156c-4.6 1.965-10.448-.855-13.061-6.297S53.49 17.412 58.09 15.448s10.448.855 13.061 6.297 1.002 11.447-3.598 13.411z"/></g><path d="M66.257 32.497c-4.6 1.965-10.448-.855-13.061-6.297s-1.002-11.447 3.598-13.411 10.447.855 13.061 6.297 1.002 11.447-3.598 13.411z" fill="#d6d4c8"/><path d="M30.88 30.042c4.6 1.964 10.448-.855 13.061-6.297s1.002-11.447-3.598-13.411-10.448.855-13.061 6.297-1.002 11.447 3.598 13.411z" fill="#1a4346"/><use href="#B" x="1.069" y="-2.487" fill="#d6d4c8"/><path d="M54.943 49.327l.574 2.495 2.35.766 4.289.425s6.07-2.467 11.363 3.147c0 0 .759-6.733-7.148-10.546 0 0-6.646-4.17-9.119-2.125 0 0-2.378 2.414-2.309 5.838z" fill="#eafdff"/><path d="M51.882 42.166s.309 7.499.927 8.942l1.777-.401-1.12-4.972-.039-2.286-.618-.762-.927-.521z" class="G"/><path d="M52.274 34.761c9.182 10.155 9.391 14.34 9.391 14.34s-3.47-1.616-6.639-.255c0 0 2.937.073 5.014 1.831 0 0-5.003-.727-3.824 8.254-2.357-4.264-1.66-1.68-3.058-11.151 0 0-1.236-10.105-1.004-12.591 0 0 .04-.173.12-.428z" class="E"/><path d="M62.871 1.65c5.833 2.853 4.66 9.521 4.66 9.521 6.482 2.132 7.436-3.303 7.436-3.303 3.877 4.444.376 7.958.376 7.958C82.087 17.508 82 22.703 82 22.703c-.144 1.592-1.158.42-1.158.42-.839-.901-2.143-.752-2.143-.752 5.852 5.818 1.535 12.826 1.535 12.826-1.064.871-.962-.34-.962-.34.082-2.208-1.555-4.035-1.555-4.035 1.514 6.795-3.257 11.894-3.257 11.894-5.149 5.576-9.117 4.596-9.117 4.596-9.085-1.401-13.91-9.869-13.91-9.869-1.062-2.007-2.376-2.719-3.537-2.875.194-1.183.494-2.936.61-3.177.175-.363.874-1.089 1.835-1.27s1.884.579 1.884.579 1.531 9.569 10.145 12.503c9.643 2.733 14.218-6.686 14.152-14.511 0 0 1.545.192 2.04.962 0-.77-.079-7.06-3.181-8.692 0 0 2.229-.317 3.059.272 0 0-1.529-3.673-5.244-4.172 0 0 1.224-1.27 1.049-3.401 0 0-5.462 1.043-8.128-1.723 0 0 1.894-6.032-3.246-10.286zM36.659 60.451s-1.719 3.308-1.932 6.155c0 0-.869-1.464-.869-1.644a18.49 18.49 0 0 1 .444-2.366c.155-.441.27-1.083.541-1.604l.792-1.624.406-.742.27.642.348 1.183z" class="C"/><path d="M43.827 35.585c.776 9.23-6.178 21.542-6.178 21.542-2.304 3.181-3.344 6.913-3.799 9.971l-.012.009c-1.005-3.208 1.082-9.744 1.082-9.744.695-2.646-.155-5.213-.155-5.213 1.275-1.564 5.062-2.391 5.062-2.391-1.685-1.452-5.739-.975-5.739-.975.488-1.347 1.295-2.801 2.241-4.235 3.026-4.584 7.477-8.96 7.477-8.96l.02-.005z" class="E"/><path d="M28.641 3.603l.044.037.004.019c-.371 4.218 2.038 7.864 2.038 7.864-5.36.481-6.718-4.974-6.719-4.975 1.796 3.481 4.921 3.662 4.921 3.662-1.389-3.303-.289-6.607-.289-6.607h0zm-4.636 9.538l.03.019c-5.157 1.995-5.986 6.485-6.03 6.712 1.529-.952 4.011.097 4.011.097-3.584 3.527-2.781 9.62-2.781 9.62.494-.577 1.916-.256 1.916-.256-1.607 3.912.402 9.299.402 9.299.618-1.026 2.379-1.411 2.379-1.411 4.495 8.494 12.756 6.627 15.832-.421 0 0 1.391-3.754 4.159-6.323 0 0 .123-.449.494-.706s.96-.311 1.331.394 1.389.964 1.883 2.182c.106.26.164.542.194.84-1.386-.042-1.308.255-1.308.255-2.894 1.502-4.075 4.185-4.075 4.185-2.553 5.868-6.401 7.67-6.401 7.67-4.688 2.763-8.51-.88-8.51-.88-3.241-1.802-4.793-5.59-4.793-5.59-.376-.03-.434.45-.434.45-.492 1.291-1.186.3-1.186.3-3.472-3.964-1.678-8.589-1.678-8.589-2.894-1.021-2.836-4.204-2.836-4.204-.289-3.483 3.271-6.518 3.271-6.518-1.187.106-2.374.934-2.374.934-.941.467-.781-.843-.781-.843.695-6.607 7.293-7.207 7.293-7.207z" class="C"/><path d="M16.119 74.562c-4.018-1.353-6.7-4.296-5.988-6.574s4.546-3.028 8.565-1.675 6.7 4.296 5.988 6.574-4.546 3.028-8.565 1.675z" fill="#e3ecf9"/><g class="B"><path d="M29.72 47.113s-2.746 5.118.521 10.22c0 0 2.955 4.395 1.873 8.773 0 0-1.035 5.431-6.927 7.126 0 0-3.325 1.047-6.54.255 0 0-5.659-1.164-8.096-4.236-.217-.151-4.164-4.55-3.436-9.357.107-.234.343-5.633 6.086-7.797 0 0 4.81-1.21 7.015-8.251l9.504 3.267z" fill="#d7e3f4"/><path d="M30.466 42.743l-2.292 5.441c-5.018.248-7.647-2.702-7.647-2.702l1.358-5.762 8.582 3.023z" class="H"/></g><path d="M24.131 47.73c-2.135-.707-3.748-1.643-3.604-2.09s1.992-.238 4.127.469 3.749 1.643 3.604 2.09-1.992.238-4.127-.469z" class="H"/><path d="M27.515 40.091c2.762.977 4.209 1.893 4.209 1.893 1.78.853 1.128 1.718 1.128 1.718l-1.454 3.199c-.175.286-.971.346-2.221.166s-2.86-.585-4.496-1.131c-1.664-.556-3.223-1.215-4.342-1.835s-1.709-1.151-1.644-1.481l.006-.021.003-.011.63-3.909s.266-.538 1.832-.242l-.003.011c2.579.447 4.71 1.055 6.367 1.642l-.015.001z" fill="#cadbf4" class="B"/><path d="M25.784 42.049c-3.736-1.215-6.596-2.739-6.389-3.405s3.404-.221 7.14.994 6.596 2.739 6.389 3.405-3.404.221-7.14-.994z" fill="#e3ecf9"/><g class="H"><path d="M26.004 41.296c-2.408-.791-4.241-1.799-4.095-2.252s2.214-.178 4.622.614 4.243 1.8 4.097 2.252-2.216.177-4.624-.614z"/><path d="M31.862 38.769l-9.163-3.099-.811 3.286 8.688 2.938 1.287-3.125z"/></g><path d="M26.97 38.02c-2.541-.833-4.482-1.875-4.337-2.328s2.321-.144 4.862.69 4.484 1.876 4.339 2.328-2.323.143-4.864-.69z" fill="#fed0a4"/><path d="M29.958 58.747c.688 1.229 2.054 4.153 1.317 7.108l-.015.05s-.845 4.781-6.275 6.327l-.027.006s-3.163.944-6.052.241l-.032-.011s-1.341-.274-2.986-.913-3.541-1.663-4.566-2.941a.99.99 0 0 0-.211-.198c.159.109.086.07.058.044l-.125-.133-.447-.544a14.59 14.59 0 0 1-1.256-1.93c-.863-1.591-1.574-3.669-1.257-5.743l-.083.266c.146-.309.088-.281.108-.346s.018-.139.034-.221l.125-.635a8.39 8.39 0 0 1 .674-1.93c.702-1.449 1.995-3.074 4.577-4.064l16.443 5.568h-.004z" fill="#cf0" class="B"/><path d="M21.267 57.02c-4.589-1.484-8.148-3.205-7.95-3.844s4.078.046 8.667 1.53 8.148 3.205 7.95 3.844-4.078-.046-8.667-1.53z" fill="#aad400"/><g class="B"><path d="M19.365 71.762s6.34 1.739 9.936-3.371c0 0 3.278-4.21-.009-9.524.437 10.364-9.926 12.895-9.926 12.895z" fill="#efa"/><path d="M28.323 55.905s-2.399-3.989-.269-8.139l-1.547-.369s-2.05 5.155 1.817 8.508h0z" fill="#fff"/><path d="M8.099 41.991s-1.46-1.943-.701-4.054c0 0 .653-2.759 3.146-1.464 0 0 10.596 7.143 15.027 16.169 0 0 1.389 2.628-.148 3.858 0 0-1.359 1.298-4.032.583 0 0 .787 1.983-.533 2.782 0 0-1.846 1.249-4.696-.015 0 0 .477 1.041-.792 1.31 0 0-2.363.227-4.95-1.794 0 0-3.721-2.524-4.961-7.255 0 0-.707-2.982 1.482-3.482 0 0-1.445-2.407-.761-4.273 0 0 .594-2.06 1.92-2.364z" class="F"/><path d="M10.082 36.301a3.64 3.64 0 0 1 .446.197l.133.093c-2.535-1.377-2.824 2.589-2.824 2.589-.047 2.044 2.059 5.619 2.059 5.619-.089-.034-.897-.412-.897-.412-1.779-.87-1.907.316-1.907.316-.724 2.125 1.307 6.369 1.307 6.369-.586-.293-1.734-1.866-1.734-1.866-.677.255-1.014 1.465-1.014 1.465-.359 1.561.689 3.03.689 3.03 3.781 5.479 7.682 6.754 9.789 7.01-.115.2-.341.382-.775.473 0 0-2.363.227-4.95-1.794 0 0-3.722-2.524-4.962-7.255 0 0-.707-2.982 1.482-3.482 0 0-1.445-2.407-.761-4.273 0 0 .594-2.06 1.92-2.364 0 0-1.46-1.943-.701-4.054 0 0 .573-2.425 2.7-1.661h0zm.557 10.65c10.43 11.641 15.423 8.216 15.423 8.216l.05.015c-.056.5-.254.983-.705 1.344 0 0-1.359 1.298-4.032.583C11.718 52.12 10.639 46.95 10.639 46.95h0zm-1.739 4.721c6.43 6.953 10.748 7.127 12.707 6.65.008.566-.147 1.196-.763 1.569 0 0-1.769 1.195-4.518.06-3.846-2.574-7.426-8.278-7.426-8.278z" fill="#173c3f"/><g class="D"><path d="M52.879 26.681s-1.215-3.363-3.646-3.874c0 0-1.562-.36-2.893.21 0 0-2.807.691-3.791 4.324 0 0-.26.33.174 1.562l3.53 16.336s.46 1.74 1.401 1.698c0 0 1.146.149 1.535-1.911l3.431-15.268c.791-1.89.26-3.077.26-3.077z"/><path d="M52.879 26.681s-1.215-3.363-3.646-3.874c0 0-1.563-.36-2.894.21 0 0-2.807.691-3.791 4.324 0 0-.261.33.173 1.562l3.53 16.336s.46 1.74 1.402 1.698c0 0 1.146.149 1.535-1.911l3.431-15.268c.791-1.89.26-3.077.26-3.077z"/></g><path d="M44.339 30.551c.289 4.264 2.286 10.36 2.286 10.36 1.302 3.574 2.286 0 2.286 0 .318-.601 2.604-10.18 2.604-10.18s.295-.925-.543-.54c0 0-2.983 2.516-5.91-.09 0 0-.637-.601-.723.45z" fill="#501616"/></g><path d="M47.608 33.069c1.057.004 2.094.486 3.001 1.395l-1.698 6.447s-.984 3.573-2.286 0c0 0-1.07-3.273-1.757-6.699.844-.749 1.785-1.142 2.74-1.144z" fill="#c83737"/><path d="M44.847 32.481c3.201 0 6.382 1.368 8.645 3.717s3.581 5.65 3.581 8.972-1.318 6.623-3.581 8.972-5.444 3.716-8.645 3.716-6.382-1.367-8.646-3.716-3.581-5.65-3.581-8.972 1.318-6.623 3.581-8.972 5.445-3.716 8.646-3.716zm.015 2.258c18.813.015-18.829.015-.016 0 .437 0-.933.035-.493.013s-.931.083-.492.038-.926.13-.49.063-.918.177-.486.088-.909.223-.482.112-.898.269-.476.137-.883.315-.468.161-.868.359-.46.184-.85.403-.451.208-.83.446-.441.23-.808.488-.429.252-.783.528-.417.274-.758.568-.404.295-.73.605-.389.315-.7.642-.373.334-.669.677-.357.353-.636.71-.34.371-.602.741-.322.388-.566.771-.303.404-.529.799-.284.419-.491.825-.264.433-.451.849-.243.445-.41.871-.222.457-.368.891-.2.468-.326.908-.177.477-.283.924-.155.486-.239.938-.132.493-.194.948-.108.5-.149.957-.084.504-.104.964-.061.508-.058.968-.036.511-.012.97-.012.512.034.969.012.512.08.966.036.511.125.961.061.508.17.953.084.504.215.944.108.5.26.931.132.493.303.917.155.486.346.901.177.478.389.882.2.468.43.861.222.457.47.838.243.446.509.813.264.433.547.786.284.419.583.757.303.404.618.727.322.388.652.695.34.371.684.66.357.353.714.625.373.334.743.588.389.315.77.549.404.295.795.509.417.274.818.468.429.252.839.426.441.23.859.383.451.208.875.338.46.184.89.293.468.16.903.248.476.137.914.201.482.112.922.155.486.087.929.108.49.063.932.06.492.038.934.013.493.013.934-.035.493-.013.931-.083.492-.038.926-.13.49-.062.919-.177.486-.088.909-.223.481-.112.897-.269.475-.137.884-.315.468-.161.868-.359.46-.184.85-.403.451-.208.83-.446.441-.23.808-.488.43-.252.783-.528.417-.274.758-.567.404-.295.73-.605.389-.315.7-.642.373-.334.669-.677.358-.353.636-.71.34-.371.602-.741.322-.388.566-.771.303-.404.529-.799.284-.419.491-.825.264-.433.451-.849.243-.446.41-.871.222-.457.369-.891.2-.468.326-.909.178-.478.283-.924.155-.486.239-.937.132-.493.194-.949.108-.5.149-.957.084-.504.104-.964.061-.508.058-.968.036-.511.012-.969.012-.512-.034-.969-.012-.511-.079-.966-.036-.51-.125-.961-.06-.508-.17-.953-.084-.504-.215-.943-.108-.499-.259-.931-.131-.493-.303-.917-.154-.486-.346-.9-.177-.477-.388-.882-.2-.468-.429-.861-.221-.457-.47-.838-.243-.445-.508-.813-.263-.432-.546-.786-.284-.418-.582-.758-.303-.403-.618-.727-.322-.388-.651-.695-.339-.371-.683-.661-.357-.353-.714-.625-.373-.334-.742-.588-.388-.315-.769-.55-.403-.295-.795-.51-.416-.274-.817-.469-.428-.253-.839-.427-.44-.231-.858-.383-.45-.208-.875-.339-.46-.185-.89-.295-.468-.161-.903-.249-.475-.137-.913-.203-.481-.113-.921-.156-.485-.088-.928-.109-.489-.063-.932-.062-.492-.038-.934-.014-.493-.013h0z" fill="#666"/><path d="M44.846 56.445c-6 0-10.864-5.048-10.864-11.275s4.864-11.275 10.864-11.275S55.71 38.943 55.71 45.17s-4.864 11.275-10.864 11.275z" fill="#d5f6ff" fill-opacity=".3"/><path d="M35.55 39.334l17.713 12.965c-.626.796-1.354 1.5-2.164 2.092l-16.72-12.239a11.5 11.5 0 0 1 1.172-2.818zm-1.393 3.816l16.109 11.791c-.505.302-1.032.561-1.577.774L33.984 44.951c.011-.604.069-1.207.174-1.802z" fill="#fff" fill-opacity=".6"/><path d="M44.847 33.034c3.101 0 6.075 1.279 8.268 3.555s3.425 5.362 3.425 8.581c0 1.594-.303 3.172-.89 4.644s-1.449 2.81-2.535 3.937a11.67 11.67 0 0 1-3.793 2.631c-1.419.61-2.939.924-4.475.924-3.101 0-6.076-1.279-8.269-3.554s-3.425-5.362-3.425-8.581 1.232-6.305 3.425-8.581 5.167-3.554 8.269-3.554zm.014 2.258c-2.539 0-4.96 1.041-6.745 2.893s-2.788 4.365-2.788 6.984 1.003 5.132 2.788 6.984 4.206 2.893 6.73 2.893a9.22 9.22 0 0 0 3.642-.752 9.5 9.5 0 0 0 3.088-2.141 9.91 9.91 0 0 0 2.063-3.205c.478-1.198.725-2.483.725-3.78 0-2.617-1.001-5.127-2.783-6.979s-4.199-2.894-6.721-2.898z" fill="#241c1c"/><path d="M50.347 59.841c-.531-1.045-.145-2.34.862-2.891s2.255-.15 2.786.895l7.467 14.698c.531 1.045.145 2.34-.862 2.891s-2.254.15-2.786-.895l-7.466-14.698z" fill="#a05a2c"/><path d="M52.611 49.658c1.095-.01 2.247.164 3.353.655 0 0-.461 1.253-.094 1.026.827 1.715 2.834 3.099 3.266 4.405l1.421 4.196c.437 1.361.874 1.815.601 3.856s-.601 3.799-1.311 5.047l-.451.794c-.589-.084-1.198-.348-1.785-.895 0 0-1.989 2.917-4.853.95 0 0-2.507-1.498-3.337-3.789 0 0-4.226.042-4.21-5.337 0 0-2.873-1.395-2.119-4.537 0 0 .647-2.949 3.901-4.918 0 0 2.592-1.427 5.618-1.454z" class="B C"/><path d="M46.416 26.183c-1.093.802-2.293.991-2.679.424s.187-1.677 1.28-2.479 2.293-.991 2.679-.424-.187 1.677-1.28 2.479z" fill="#fad28e"/><path d="M57.415 29.091c3.446 1.239 7.203-.643 8.393-4.204s-.64-7.453-4.086-8.692-7.203.643-8.393 4.204.64 7.453 4.086 8.692z" class="D"/><path d="M57.641 28.2c3.012 1.152 6.316-.401 7.381-3.471s-.514-6.492-3.525-7.644-6.316.401-7.381 3.471.514 6.492 3.525 7.644z" fill="#cf7b14"/><path d="M58.03 27.407c2.568.924 5.369-.479 6.255-3.133s-.477-5.555-3.045-6.478-5.368.479-6.255 3.133.477 5.555 3.045 6.478z" fill="#201e1e"/><path d="M56.084 20.641c.824.297 1.724-.154 2.008-1.006s-.153-1.783-.977-2.08-1.724.154-2.008 1.006.153 1.783.978 2.08z" fill="#fefefe"/><path d="M33.903 28.661c3.412 1.227 7.133-.636 8.311-4.163s-.633-7.381-4.046-8.608-7.133.636-8.311 4.163.634 7.381 4.046 8.608z" class="D"/><path d="M34.127 27.779c2.982 1.141 6.255-.398 7.309-3.437s-.509-6.429-3.491-7.57-6.255.398-7.309 3.437.509 6.429 3.491 7.57z" fill="#cf7b14"/><path d="M34.512 26.993c2.543.915 5.316-.474 6.194-3.103s-.472-5.501-3.015-6.415-5.316.474-6.194 3.103.472 5.501 3.015 6.415z" fill="#201e1e"/><path d="M32.585 20.292c.816.294 1.707-.152 1.989-.996s-.151-1.766-.968-2.06-1.707.152-1.989.996.152 1.766.968 2.06z" fill="#fefefe"/><path d="M45.796.026l.027.029c.069.356 1.463 7.293 5.919 9.074 0 0-4.728-.256-5.747-3.239-.01-.019-.019-.038-.029-.057-.786-2.324-.379-4.891-.238-5.617a4.15 4.15 0 0 1 .068-.191z" class="C"/><path d="M49.287 50.193c1.773-.532 4.306-.913 6.642.112.691.51 1.079 1.001 1.079 1.001 8.037-.877 12.246 4.666 12.246 4.666 3.439 4.388.162 7.515.143 7.608-2.805 2.818-7.695 1.047-7.695 1.047s-.568-2.273-1.706-3.458c0 0 .241 2.652.535 3.211 0 0 .107.412-.439.609 0 0-1.368.471-1.794.391 0 0-.604-.028-.809-.658 0 0-.65-3.731.09-5.64 0 0-1.536 1.712-1.275 5.264 0 0 .115.852-.682 1.23 0 0-2.179 1.206-4.006-.009 0 0-.511-.41-.45-.913 0 0 .046-4.501.787-6.653 0 0-1.576 2.872-1.824 4.71 0 0-.014.601-.586.451 0 0-3.269-.612-2.559-5.098 0 0 .569-2.325 1.283-3.431 0 0-1.776.297-2.274 3.465 0 0-1.87-1.036-2.316-3.538.542-1.018 1.537-2.376 3.307-3.447 0 0 .919-.507 2.303-.922v.001z" class="B F"/><path d="M62.86 51.839c6.627-2.867 10.114-.144 10.114-.144 1.372 1.243.999 2.551.999 2.551 1.197 1.179 1.233 3.258.307 3.944 0 0-1.109-5.519-9.686-5.64 0 0-.85-.416-1.734-.712zm-33.858.431s2.56.846 6.091 1.091c-1.762.967-5.616-.325-5.616-.325l-.279 1.908-.196-2.675z" class="E"/><path d="M32.329 49.746c.016-.132.131-.226.259-.21s.218.136.202.269l-.695 5.882c-.016.132-.132.226-.259.21a.24.24 0 0 1-.202-.269l.695-5.882zm-1.869-.173c.011-.133.123-.231.251-.22s.223.128.212.261l-.483 5.905c-.011.133-.123.231-.251.22s-.223-.128-.212-.261l.483-5.905z" fill="#b3b3b3"/><path d="M55.584 70.091c-.531-1.045-.145-2.34.862-2.891s2.255-.15 2.786.895l1.69 3.327c.531 1.045.145 2.34-.862 2.891s-2.254.15-2.786-.895l-1.69-3.327z" fill="#a05a2c"/><path d="M60.516 75.17c-.816.461-1.757.303-2.101-.354s.039-1.562.855-2.023 1.757-.303 2.102.354-.039 1.562-.855 2.023z" fill="#784421"/><defs ><path id="B" d="M28.298 34.984c4.6 1.965 10.448-.855 13.061-6.297s1.002-11.447-3.598-13.411-10.448.855-13.061 6.297-1.002 11.447 3.598 13.411z"/></defs></svg>