<?xml version="1.0" encoding="utf-8"?>
<svg width="20" height="20" viewBox="0 0 20 20" fill="none" xmlns="http://www.w3.org/2000/svg">
  <path d="M 2.927 17.069 C -0.976 13.166 -0.976 6.83 2.927 2.927 C 6.83 -0.976 13.166 -0.976 17.069 2.927 C 20.972 6.83 20.972 13.166 17.069 17.069 C 13.166 20.972 6.83 20.972 2.927 17.069 Z" fill="#FFB443" transform="matrix(1, 0, 0, 1, -4.440892098500626e-16, 0)"/>
  <path d="M 6.885 7.856 C 6.885 7.423 7.024 6.985 7.302 6.543 C 7.58 6.096 7.986 5.727 8.519 5.436 C 9.052 5.144 9.674 4.998 10.385 4.998 C 11.046 4.998 11.629 5.121 12.135 5.367 C 12.641 5.609 13.031 5.939 13.304 6.359 C 13.582 6.778 13.721 7.234 13.721 7.726 C 13.721 8.113 13.641 8.453 13.482 8.744 C 13.327 9.036 13.14 9.289 12.921 9.503 C 12.707 9.713 12.32 10.068 11.759 10.569 C 11.604 10.711 11.479 10.836 11.383 10.945 C 11.292 11.05 11.224 11.148 11.178 11.239 C 11.133 11.326 11.096 11.415 11.069 11.506 C 11.046 11.593 11.01 11.747 10.96 11.971 C 10.873 12.445 10.602 12.682 10.146 12.682 C 9.909 12.682 9.709 12.604 9.544 12.449 C 9.385 12.294 9.305 12.064 9.305 11.759 C 9.305 11.376 9.364 11.046 9.483 10.768 C 9.601 10.485 9.759 10.239 9.955 10.029 C 10.151 9.815 10.415 9.562 10.748 9.271 C 11.039 9.015 11.249 8.824 11.377 8.696 C 11.509 8.564 11.618 8.418 11.705 8.259 C 11.796 8.099 11.841 7.926 11.841 7.739 C 11.841 7.375 11.705 7.067 11.431 6.817 C 11.162 6.566 10.814 6.441 10.385 6.441 C 9.884 6.441 9.515 6.568 9.278 6.823 C 9.041 7.074 8.84 7.445 8.676 7.938 C 8.521 8.453 8.227 8.71 7.794 8.71 C 7.539 8.71 7.323 8.621 7.145 8.443 C 6.972 8.261 6.885 8.065 6.885 7.856 Z M 10.221 15.348 C 9.943 15.348 9.699 15.259 9.49 15.081 C 9.285 14.899 9.182 14.646 9.182 14.322 C 9.182 14.035 9.282 13.794 9.483 13.598 C 9.683 13.402 9.93 13.304 10.221 13.304 C 10.508 13.304 10.75 13.402 10.946 13.598 C 11.142 13.794 11.24 14.035 11.24 14.322 C 11.24 14.641 11.137 14.892 10.932 15.074 C 10.727 15.257 10.49 15.348 10.221 15.348 Z" fill="white" transform="matrix(1, 0, 0, 1, -4.440892098500626e-16, 0)"/>
</svg>