<svg width="28" height="28" viewBox="0 0 28 28" fill="none" xmlns="http://www.w3.org/2000/svg">
<g filter="url(#filter0_i_5498_134794)">
<path d="M13.8304 0.590967C13.7497 0.593083 13.6712 0.617571 13.6032 0.661784C13.5353 0.705996 13.4805 0.768254 13.4448 0.841829L9.4071 9.16103L0.378793 10.4954C0.297082 10.5075 0.220342 10.5427 0.157229 10.5968C0.0941167 10.651 0.047145 10.722 0.0216404 10.8018C-0.0038642 10.8817 -0.0068858 10.9672 0.0128999 11.0488C0.0326856 11.1303 0.0744978 11.2046 0.133614 11.2632L6.6663 17.7387L5.12422 26.8826C5.11028 26.9654 5.11939 27.0505 5.15051 27.1283C5.18162 27.2061 5.2335 27.2735 5.3003 27.3228C5.3671 27.3722 5.44615 27.4016 5.52851 27.4077C5.61087 27.4138 5.69326 27.3963 5.76638 27.3573L13.8415 23.0403L21.9169 27.3573C21.99 27.3963 22.0724 27.4138 22.1547 27.4077C22.2371 27.4016 22.3162 27.3722 22.383 27.3228C22.4498 27.2735 22.5016 27.2061 22.5328 27.1283C22.5639 27.0505 22.573 26.9654 22.559 26.8826L21.0169 17.7387L27.5497 11.2632C27.6088 11.2046 27.6506 11.1303 27.6704 11.0488C27.6902 10.9672 27.6871 10.8817 27.6616 10.8018C27.6361 10.722 27.5892 10.6509 27.526 10.5968C27.4629 10.5426 27.3862 10.5075 27.3044 10.4954L18.2761 9.16103L14.2388 0.841829C14.2013 0.764731 14.143 0.700137 14.0707 0.655682C13.9983 0.611227 13.9149 0.58877 13.8304 0.590967Z" fill="#FF9124"/>
</g>
<defs>
<filter id="filter0_i_5498_134794" x="0" y="0.59082" width="27.6831" height="26.8184" filterUnits="userSpaceOnUse" color-interpolation-filters="sRGB">
<feFlood flood-opacity="0" result="BackgroundImageFix"/>
<feBlend mode="normal" in="SourceGraphic" in2="BackgroundImageFix" result="shape"/>
<feColorMatrix in="SourceAlpha" type="matrix" values="0 0 0 0 0 0 0 0 0 0 0 0 0 0 0 0 0 0 127 0" result="hardAlpha"/>
<feOffset dy="6"/>
<feComposite in2="hardAlpha" operator="arithmetic" k2="-1" k3="1"/>
<feColorMatrix type="matrix" values="0 0 0 0 1 0 0 0 0 0.521569 0 0 0 0 0 0 0 0 1 0"/>
<feBlend mode="normal" in2="shape" result="effect1_innerShadow_5498_134794"/>
</filter>
</defs>
</svg>
