<svg width="1008" height="713" fill="none" xmlns="http://www.w3.org/2000/svg"><path fill="#fff" d="M0 0h1008v712.611H0z"/><rect x="114.416" y="93.614" width="779.167" height="526.694" rx="5.674" fill="#fff"/><path fill-rule="evenodd" clip-rule="evenodd" d="M457.033 641.454H87.902a.718.718 0 000 1.436h369.131v-1.436zm98.243 1.436h364.822a.717.717 0 100-1.436H555.276v1.436z" fill="#006B7E"/><path d="M494.526 657.12h-14.062v2.968h14.062v-2.968z" fill="#C9C9C9"/><path d="M489.88 646.389h-4.77v10.772h4.77v-10.772z" fill="#9E9E9E"/><path d="M487.495 662.048c3.883 0 7.031-.887 7.031-1.982 0-1.094-3.148-1.981-7.031-1.981-3.883 0-7.031.887-7.031 1.981 0 1.095 3.148 1.982 7.031 1.982z" fill="#C9C9C9"/><path d="M487.495 659.181c3.883 0 7.031-.887 7.031-1.981s-3.148-1.982-7.031-1.982c-3.883 0-7.031.888-7.031 1.982 0 1.094 3.148 1.981 7.031 1.981z" fill="#9E9E9E"/><path d="M486.609 648.608a.404.404 0 10-.808 0v7.38a.404.404 0 00.808 0v-7.38z" fill="#fff"/><path d="M487.686 648.12a3.679 3.679 0 100-7.358 3.679 3.679 0 000 7.358z" fill="#C9C9C9"/><path fill-rule="evenodd" clip-rule="evenodd" d="M504.151 621.053s.269 2.231-1.463 2.616c0 0-2.096.519-2.327-1.27-.844-4.719 3.588-8.046 7.983-7.848 0 0 4.733.096 6.214 4.924 0 0 1.678 4.907-3.619 8.749-3.318 2.691-7.642 4.176-10.257 7.536 2.087 4.62-3.036 5.976-5.188 3.164-2.137-2.898 3.624-8.887 8.453-12.74 0 0 2.285-1.905 2.693-2.204 0 0 2.313-1.85 1.17-4.19 0 0-.68-1.686-2.639-.816 0 0-1.061.43-1.02 2.079z" fill="#C9C9C9"/><path fill-rule="evenodd" clip-rule="evenodd" d="M505.412 624.973c-.43.442-8.225 8.485-8.899 11.854 0 0 .203-1.925.543-3.844 1.777-2.363 4.451-4.853 6.891-6.799 0 0 .728-.605 1.465-1.211z" fill="#9E9E9E"/><path fill-rule="evenodd" clip-rule="evenodd" d="M500.683 635.76c-.795-2.606 1.141-4.204 1.141-4.204.346-.423 5.193-4.809 5.193-4.809 5.464-4.078 1.732-8.888 1.732-8.888s2.385 1.539 1.885 4.579c0 0 0 2.539-2.732 4.501l-5.578 5.002s-1.628 1.29-1.641 3.819z" fill="#9E9E9E"/><path fill-rule="evenodd" clip-rule="evenodd" d="M513.539 619.302s-1.193-2.866-4.579-3.174c0 0-.539-.019-.635-.365 0 0-.173-.654.655-.481 4.348.654 4.559 4.02 4.559 4.02z" fill="#fff"/><path fill-rule="evenodd" clip-rule="evenodd" d="M469.704 621.066s-.27 2.232 1.462 2.616c0 0 2.096.52 2.327-1.269.844-4.72-3.588-8.047-7.983-7.849 0 0-4.733.096-6.214 4.925 0 0-1.678 4.906 3.62 8.748 3.317 2.691 7.641 4.176 10.256 7.536-2.087 4.621 3.036 5.977 5.188 3.165 2.137-2.899-3.624-8.888-8.453-12.741 0 0-2.285-1.904-2.693-2.204 0 0-2.312-1.85-1.17-4.189 0 0 .681-1.687 2.64-.817 0 0 1.06.43 1.02 2.079z" fill="#C9C9C9"/><path fill-rule="evenodd" clip-rule="evenodd" d="M468.442 624.987c.43.441 8.225 8.485 8.899 11.853 0 0-.203-1.925-.543-3.844-1.777-2.362-4.451-4.853-6.891-6.799 0 0-.728-.605-1.465-1.21z" fill="#9E9E9E"/><path fill-rule="evenodd" clip-rule="evenodd" d="M473.172 635.773c.794-2.606-1.141-4.203-1.141-4.203-.347-.424-5.194-4.81-5.194-4.81-5.464-4.078-1.732-8.888-1.732-8.888s-2.385 1.54-1.885 4.579c0 0 0 2.539 2.732 4.502l5.579 5.001s1.627 1.29 1.641 3.819z" fill="#9E9E9E"/><path fill-rule="evenodd" clip-rule="evenodd" d="M460.316 619.316s1.192-2.867 4.578-3.175c0 0 .539-.019.635-.365 0 0 .173-.654-.655-.481-4.347.654-4.558 4.021-4.558 4.021z" fill="#fff"/><path fill-rule="evenodd" clip-rule="evenodd" d="M471.621 616.037l6.802 22.744 6.638 3.155 5.142-.136 5.387-2.775 6.801-22.662-8.38-3.346h-13.902l-8.488 3.02z" fill="#C9C9C9"/><path fill-rule="evenodd" clip-rule="evenodd" d="M480.109 613.016l-8.488 3.02 8.38 3.319h14.337l8.053-2.992-8.38-3.347h-13.902z" fill="#9E9E9E"/><path fill-rule="evenodd" clip-rule="evenodd" d="M480.316 613.863l-5.305 1.887 5.217 2.066h13.895l4.951-1.84-5.292-2.113h-13.466z" fill="#7C7C7C"/><path fill-rule="evenodd" clip-rule="evenodd" d="M482.993 620.661h9.577l-3.373 17.956h-3.864l-2.34-17.956z" fill="#9E9E9E"/><path fill-rule="evenodd" clip-rule="evenodd" d="M482.994 620.662l7.617 1.523-1.414 16.432 3.373-17.955h-9.576z" fill="#7C7C7C"/><path fill-rule="evenodd" clip-rule="evenodd" d="M491.862 638.944l2.771-1.6 5.717-18.424-4.951 2.122-3.537 17.902zM483.32 638.671l-4.244-18.227-5.442-2.449 5.551 18.609 4.135 2.067z" fill="#9E9E9E"/><path fill-rule="evenodd" clip-rule="evenodd" d="M473.634 617.995l9.686 20.677-4.244-18.229-5.442-2.448zM500.35 618.92l-2.768 1.187-.004.01-2.944 17.227 5.716-18.424z" fill="#7C7C7C"/><path fill-rule="evenodd" clip-rule="evenodd" d="M478.425 638.781l6.636 3.156 5.142-.137 5.387-2.775-5.17 1.769h-5.876l-6.119-2.013z" fill="#9E9E9E"/><path d="M487.685 645.773a1.331 1.331 0 100-2.663 1.331 1.331 0 000 2.663z" fill="#7C7C7C"/><path d="M487.397 645.638a.927.927 0 100-1.854.927.927 0 000 1.854z" fill="#FDFDFD"/><path fill-rule="evenodd" clip-rule="evenodd" d="M484.156 657.968s4.842.68 8.351-.789c0 0 .751-.322 1.178-.015 0 0 .596.512-.212.845 0 0-5.277 2.109-9.317-.041zM487.832 647.376s1.631-.071 1.883-2.044c0 0-.06-.562.307-.712 0 0 .712-.157.573.759 0 0-.676 2.47-2.763 1.997zM480.065 620.68s3.693 12.954 4.097 15.59c0 0 .452 1.548.057 1.818 0 0-.442.259-.875-1.866l-3.279-15.542zM493.74 623.273s-3.401 12.814-3.428 13.249c0 0-.381 1.497-.109 2.041 0 0 .68.707 1.279-1.959l2.258-13.331z" fill="#fff"/><path fill-rule="evenodd" clip-rule="evenodd" d="M515.084 631.532s-.186 1.538 1.008 1.803c0 0 1.445.358 1.604-.875.582-3.253-2.473-5.546-5.502-5.41 0 0-3.262.067-4.283 3.395 0 0-1.157 3.381 2.495 6.029 2.286 1.855 5.266 2.878 7.069 5.194-1.439 3.185 2.092 4.119 3.575 2.181 1.473-1.997-2.498-6.125-5.826-8.781 0 0-1.575-1.313-1.856-1.519 0 0-1.594-1.275-.806-2.887 0 0 .469-1.163 1.819-.563 0 0 .731.297.703 1.433z" fill="#E58C3C"/><path fill-rule="evenodd" clip-rule="evenodd" d="M514.214 634.234c.296.304 5.669 5.848 6.133 8.17 0 0-.14-1.327-.374-2.65-1.225-1.628-3.068-3.344-4.749-4.686 0 0-.502-.417-1.01-.834z" fill="#BC6117"/><path fill-rule="evenodd" clip-rule="evenodd" d="M517.474 641.668c.548-1.796-.786-2.897-.786-2.897-.239-.292-3.579-3.315-3.579-3.315-3.766-2.81-1.194-6.125-1.194-6.125s-1.644 1.061-1.299 3.156c0 0 0 1.75 1.882 3.102l3.845 3.447s1.122.889 1.131 2.632z" fill="#BC6117"/><path fill-rule="evenodd" clip-rule="evenodd" d="M508.613 630.325s.822-1.976 3.156-2.188c0 0 .371-.013.437-.252 0 0 .12-.45-.451-.331-2.996.451-3.142 2.771-3.142 2.771z" fill="#FFBB4D"/><path fill-rule="evenodd" clip-rule="evenodd" d="M541.402 631.532s.186 1.538-1.008 1.803c0 0-1.444.358-1.603-.875-.582-3.253 2.473-5.546 5.501-5.41 0 0 3.262.067 4.283 3.395 0 0 1.157 3.381-2.494 6.029-2.287 1.855-5.267 2.878-7.069 5.194 1.438 3.185-2.093 4.119-3.576 2.181-1.473-1.997 2.498-6.125 5.826-8.781 0 0 1.575-1.313 1.856-1.519 0 0 1.594-1.275.806-2.887 0 0-.469-1.163-1.819-.563 0 0-.731.297-.703 1.433z" fill="#E58C3C"/><path fill-rule="evenodd" clip-rule="evenodd" d="M542.272 634.234c-.296.304-5.669 5.848-6.133 8.17 0 0 .14-1.327.375-2.65 1.224-1.628 3.067-3.344 4.748-4.686 0 0 .502-.417 1.01-.834z" fill="#BC6117"/><path fill-rule="evenodd" clip-rule="evenodd" d="M539.012 641.668c-.548-1.796.786-2.897.786-2.897.239-.292 3.58-3.315 3.58-3.315 3.765-2.81 1.193-6.125 1.193-6.125s1.644 1.061 1.3 3.156c0 0-.001 1.75-1.883 3.102l-3.845 3.447s-1.122.889-1.131 2.632z" fill="#BC6117"/><path fill-rule="evenodd" clip-rule="evenodd" d="M547.873 630.325s-.823-1.976-3.156-2.188c0 0-.371-.013-.437-.252 0 0-.12-.45.451-.331 2.996.451 3.142 2.771 3.142 2.771z" fill="#FFBB4D"/><path fill-rule="evenodd" clip-rule="evenodd" d="M514.346 623.484l6.051 20.418 5.907 2.834 4.575-.123 4.794-2.491 6.051-20.345-7.456-3.004h-12.37l-7.552 2.711z" fill="#E58C3C"/><path fill-rule="evenodd" clip-rule="evenodd" d="M521.898 620.773l-7.552 2.71 7.456 2.98h12.756l7.166-2.686-7.456-3.004h-12.37z" fill="#BC6117" fill-opacity=".996"/><path fill-rule="evenodd" clip-rule="evenodd" d="M522.082 621.533l-4.72 1.694 4.641 1.855h12.364l4.406-1.652-4.709-1.897h-11.982z" fill="#93460C"/><path fill-rule="evenodd" clip-rule="evenodd" d="M524.464 627.636h8.521l-3.002 16.12h-3.437l-2.082-16.12z" fill="#BC6117"/><path fill-rule="evenodd" clip-rule="evenodd" d="M524.464 627.636l6.779 1.368-1.259 14.751 3.001-16.119h-8.521z" fill="#93460C"/><path fill-rule="evenodd" clip-rule="evenodd" d="M532.356 644.049l2.465-1.436 5.088-16.54-4.406 1.905-3.147 16.071zM524.754 643.805l-3.776-16.364-4.841-2.198 4.938 16.705 3.679 1.857z" fill="#BC6117"/><path fill-rule="evenodd" clip-rule="evenodd" d="M516.137 625.243l8.617 18.562-3.776-16.364-4.841-2.198zM539.909 626.073l-2.464 1.065-.004.009-2.618 15.465 5.086-16.539z" fill="#93460C"/><path fill-rule="evenodd" clip-rule="evenodd" d="M520.399 643.903l5.906 2.833 4.575-.123 4.792-2.491-4.599 1.588h-5.229l-5.445-1.807z" fill="#BC6117"/><path fill-rule="evenodd" clip-rule="evenodd" d="M521.858 627.653s3.286 11.629 3.646 13.995c0 0 .402 1.39.051 1.632 0 0-.394.233-.779-1.675l-2.918-13.952zM534.026 629.98s-3.025 11.504-3.049 11.895c0 0-.339 1.343-.097 1.831 0 0 .605.635 1.137-1.758l2.009-11.968z" fill="#FFBB4D"/><path d="M535.587 656.559h-15.105v3.188h15.105v-3.188z" fill="#E58C3C"/><path d="M528.035 661.851c4.171 0 7.553-.953 7.553-2.128 0-1.175-3.382-2.128-7.553-2.128-4.171 0-7.552.953-7.552 2.128 0 1.175 3.381 2.128 7.552 2.128z" fill="#E58C3C"/><path d="M528.035 658.772c4.171 0 7.553-.953 7.553-2.128 0-1.176-3.382-2.128-7.553-2.128-4.171 0-7.552.952-7.552 2.128 0 1.175 3.381 2.128 7.552 2.128z" fill="#BC6117"/><path fill-rule="evenodd" clip-rule="evenodd" d="M521.197 655.824s5.141-3.119 4.937-9.663h4.781s-.495 5.56 4.218 9.663h-13.936z" fill="#BC6117"/><path fill-rule="evenodd" clip-rule="evenodd" d="M524.446 657.469s5.202.731 8.972-.847c0 0 .806-.346 1.265-.017 0 0 .64.55-.228.908 0 0-5.669 2.265-10.009-.044zM526.971 648.033a.598.598 0 00-.54.533c-.385 3.18-2.633 5.517-2.633 5.517a.59.59 0 00-.137.664.602.602 0 00.996.173s2.521-2.551 2.964-6.21a.6.6 0 00-.385-.643.598.598 0 00-.265-.034z" fill="#FFBB4D"/><path d="M512.22 629.365c-.117-.774-3.867.543-4.024 2.955 0 0 .288-1.198 1.975-2.058 1.05-.512 2.142-.225 2.049-.897z" fill="#fff"/><path d="M498.789 659.962s8.843 5.486 17.42-.07c0 0-7.575 3.827-17.42.07z" fill="#FDFDFD"/><path d="M498.789 659.963l-1.476 5.125s11.333 4.557 20.511-.597l-1.615-4.599s-8.183-4.749-17.42.071z" fill="#D6A722"/><path d="M498.789 659.962l-1.476 5.126s11.333 4.557 20.511-.598l-1.616-4.598s-3.244 1.852-8.673 1.91c-5.429.058-8.746-1.84-8.746-1.84z" fill="#FCD535"/><path d="M503.784 661.594c3.616 1.063 7.93 1.079 11.414-.567.359-.188.09-.779-.297-.666-1.795.631-3.541 1.236-5.452 1.429a19.584 19.584 0 01-5.642-.3c-.077-.024-.1.079-.023.104z" fill="#FAFAFA"/><path d="M514.516 635.762c-1.651-1.183-4.542-.941-4.542-.941s-.189 2.152 1.461 3.361c1.652 1.184 3.675 1.608 4.516.942.867-.664.217-2.178-1.435-3.358v-.004z" fill="#FCD535"/><path d="M515.383 639.081c.852-.016.641-1.567-.955-2.518 0 0 .476.561.596 1.257.086.568-.208 1.273.359 1.261z" fill="#FAFAFA"/><path d="M499.893 636.061c1.603-1.248 4.5-1.128 4.5-1.128s.275 2.142-1.327 3.416c-1.604 1.248-3.61 1.756-4.5 1.128-.864-.629-.277-2.168 1.327-3.416z" fill="#FCD535"/><path d="M499.159 639.41c-.853.016-.727-1.539.827-2.552 0 0-.428.577-.519 1.28-.091.572.233 1.262-.312 1.275l.004-.003z" fill="#FAFAFA"/><path d="M493.239 609.285l6.601-2.179 14.5-.036 6.978 2.599-6.552 3.238-15.142.179-6.381-3.804-.004.003z" fill="#B27508"/><path d="M502.04 657.025s5.395 3.667 10.91.166c0 0-4.584 2.19-10.91-.166z" fill="#FDFDFD"/><path d="M505.124 656.055l-3.085.969.019 2.223s5.025 3.109 10.932-.092l-.039-1.967-2.893-1.211-.223-9.984s-3.242.74-4.863-.159l.149 10.217.003.004z" fill="#D6A722"/><path d="M505.124 656.055s2.149 1.483 4.934-.074l-.199-8.742s-1.121.798-2.362.822c-1.216.026-2.496-.829-2.496-.829l.124 8.82-.001.003zM502.04 657.024l-.294 2.23s5.643 3.093 11.553-.106l-.348-1.96s-2.253 1.082-5.742 1.126c-3.488.02-5.169-1.293-5.169-1.293v.003z" fill="#FCD535"/><path d="M504.802 658.184c2.312.652 5.26.671 7.489-.384.23-.108.066-.495-.191-.411-1.155.386-2.416.775-3.651.901-1.211.103-2.428.05-3.647-.185-.026.001-.052.053.001.076l-.001.003z" fill="#FAFAFA"/><path d="M489.622 610.653l3.594-1.265s1.574 1.21 6.682 3.307l14.447-.138 6.975-2.783 2.164.991-7.441 24.99-4.982 2.922-7.105.119-7.098-3.453-5.571-19.084-1.662-5.606h-.003z" fill="#FCD535"/><path d="M521.857 616.181s.284 1.339 1.705 1.207c0 0 2.19-.279 1.778-2.882 0 0-.285-3.902 3.222-3.017 0 0 2.872 1.415.062 5.846l-10.186 10.373-2.351 7.912s2.103 3.088 4.806 1.249c0 0 3.084-2.234.866-4.545 0 0 4.138-1.093 5.177-.829 0 0 4.128-.445 2.289-4.446 0 0 4.529.27 5.141-2.742 0 0 1.023-1.728-.022-3.673 0 0 4.374-2.367 3.188-6.118 0 0-.555-1.955-3.26-1.407 0 0 3.058-4.85-1.127-8.566 0 0-3.521-1.506-3.066 4.461 0 0-4.714-3.061-8.026 1.974l1.44-.287-1.647 5.492.011-.002zM503.956 638.796s-2.83 4.636 1.078 7.456c0 0 4.172 1.907 6.365-.984 0 0 2.684-2.746-.34-6.617l-7.106.144.003.001z" fill="#FCD535"/><path d="M491.782 612.654l6.204 2.745 4.741 20.135-4.594-2.366-6.351-20.517v.003zM502.227 615.547l2.667 19.764 4.314-.034 3.536-19.838-10.517.108zM511.746 635.433l2.964-1.795 6.238-20.488-5.327 2.462-3.872 19.821h-.003z" fill="#B27508"/><path d="M509.253 642.699c-.01.854-.693 1.54-1.52 1.555-.827.015-1.565-.666-1.556-1.52a1.535 1.535 0 011.52-1.556 1.535 1.535 0 011.556 1.521z" fill="#D6A722"/><path d="M492.151 613.138l5.633 2.549 4.301 18.722-9.933-21.275-.001.004zM502.544 615.748l9.845-.096-3.29 19.109 1.563-17.678-8.118-1.335zM515.83 615.89l2.46-1.087-3.32 17.635.861-16.552-.001.004z" fill="#DBB100"/><path d="M508.481 642.921c.114.592-.262 1.195-.826 1.308a1.074 1.074 0 01-1.309-.825 1.091 1.091 0 01.826-1.309c.593-.114 1.169.234 1.309.826z" fill="#FDFDFD"/><path d="M511.06 638.651l5.033-3.026-5.03 1.888-7.179.276-5.883-2.027 5.951 3.036.081.156 7.026-.3.001-.003zM518.441 627.713l-2.351 7.912s2-7.387 12.535-18.289l-10.186 10.373.002.004z" fill="#D6A722"/><path d="M530.451 610.29s2.297 1.143 1.692 5.941c0 0-.296 2.048-2.974 5.027 0 0-6.029 6.202-6.553 7.195 0 0-1.181 1.783-.765 3.068 0 0-1.141-1.454.745-4.052l4.278-4.614s4.155-4.197 4.539-5.68c0 0 1.359-3.106-.961-6.889l-.001.004z" fill="#DBB100"/><path d="M506.802 622.076l.968 1.79 2.022.269-1.421 1.401.427 1.931-1.828-.895-1.766.941.271-1.97-1.499-1.367 1.985-.3.842-1.804-.001.004z" fill="#FAFAFA"/><path d="M505.205 627.491c.102-.053 1.708-2.594 1.708-2.594l.06 1.679-1.765.916-.003-.001zM506.909 624.896l-2.933-.717 1.499 1.367 1.434-.65z" fill="#FCD535"/><path d="M506.909 624.896l1.885 2.573-.427-1.931-1.461-.642h.003z" fill="#FCD535"/><path d="M509.659 624.116l-2.75.78.857-1.027 1.893.247z" fill="#FCD535"/><path d="M506.909 624.896l-.107-2.817-.842 1.804.952 1.017-.003-.004z" fill="#FCD535"/><path d="M524.422 630.878c.959.137 2.175.162 3.07-.322.59-.295 1.298-1.059.742-1.696-.053-.102-.208-.072-.257.004-.204.186-.303.421-.48.631-.279.342-.713.506-1.124.617-.694.196-1.336.339-1.977.688-.026.002-.025.078.026.078zM530.479 626.125c1.059.029 2.158-.641 2.813-1.457.53-.63 1.048-1.884.362-2.568-.133-.102-.337-.046-.387.113-.12.363-.064.726-.134 1.09-.098.441-.343.86-.673 1.206-.531.604-1.297 1.139-2.012 1.464-.077.052-.024.154.03.155l.001-.003zM535.886 618.382c1.145-.876 1.616-3.319.43-4.356-.289-.278-.749-.011-.64.374.196.694.568 1.232.608 1.979.016.726-.182 1.322-.427 2.001 0 0 .002.025.026-.002l.003.004zM534.394 611.065c.365-1.173.448-2.21.063-3.39-.274-.849-.848-2.31-1.808-2.577-.258-.072-.461.19-.405.423.113.437.428.691.693 1.046.321.458.588.944.777 1.46.328.9.607 2.032.576 3.015.002.076.107.074.104.023zM527.341 608.594c-1.413.441-2.637 1.297-3.492 2.476-.729 1.023-1.472 2.643-.494 3.735.316.382.957-.044.79-.482-.027-.103-.054-.178-.082-.282-.081-.282-.575-.402-.697-.064a.932.932 0 00-.099.234c.204-.056.437-.112.67-.169-.84-.577.231-2.619.608-3.193.68-1.023 1.672-1.768 2.826-2.18.051.001.023-.103-.026-.078l-.004.003z" fill="#fff"/><path d="M491.442 616.489s-.257 1.352-1.679 1.249c0 0-2.202-.24-1.84-2.859 0 0 .207-3.886-3.264-2.934 0 0-2.84 1.479.037 5.845l10.383 10.164 2.508 7.865s-2.059 3.12-4.782 1.34c0 0-3.143-2.162-.968-4.534 0 0-4.156-1.003-5.183-.722 0 0-4.141-.357-2.362-4.377 0 0-4.542.324-5.222-2.664 0 0-1.066-1.686-.045-3.646 0 0-4.413-2.289-3.299-6.063 0 0 .506-1.951 3.226-1.462 0 0-3.145-4.801.969-8.585 0 0 3.484-1.596 3.137 4.387 0 0 4.667-3.147 8.072 1.802l-.827-.036 1.136 5.229.003.001z" fill="#FCD535"/><path d="M495.083 627.955l2.508 7.865s-2.162-7.358-12.891-18.029l10.383 10.164z" fill="#D6A722"/><path d="M482.75 610.795s-2.276 1.185-1.612 5.984c0 0 .351 2.011 3.095 4.93 0 0 6.143 6.111 6.706 7.056 0 0 1.199 1.788.809 3.089 0 0 1.106-1.496-.828-4.043l-4.382-4.541s-4.217-4.107-4.632-5.573c0 0-1.405-3.076.847-6.898l-.003-.004z" fill="#DBB100"/><path d="M489.175 631.156c-.651-.322-1.277-.465-1.977-.631-.365-.096-.78-.243-1.042-.496-.238-.23-.347-.536-.584-.737a.202.202 0 00-.283.006c-.53.659.207 1.394.809 1.69.912.449 2.103.424 3.081.248.026-.002.026-.052-.001-.076l-.003-.004zM483.035 626.466c-.732-.347-1.491-.848-2.044-1.434a2.44 2.44 0 01-.666-1.098c-.11-.386-.043-.801-.178-1.185-.056-.154-.262-.203-.391-.095-.683.687-.117 1.944.414 2.579.662.79 1.786 1.438 2.843 1.365.076-.001.103-.103.022-.129v-.003zM477.482 618.972c-.271-.667-.49-1.258-.453-2.008.013-.724.388-1.276.555-1.977.094-.391-.373-.614-.653-.347-1.142 1.058-.628 3.507.526 4.363.026-.002.024-.027.024-.027l.001-.004zM478.916 611.597c-.07-.955.192-2.1.509-3.038.172-.467.422-.939.696-1.359.25-.393.633-.687.726-1.154a.33.33 0 00-.423-.405c-.952.251-1.516 1.763-1.757 2.623-.364 1.199-.241 2.205.116 3.362.028.053.13.05.129-.029h.004zM494.397 636.454c-.544-.121-.992-.499-1.313-.957a1.817 1.817 0 01-.348-.612c-.109-.256-.109-.386-.347-.536-.132-.102-.31-.018-.386.113-.298.497.334 1.259.729 1.564.472.38 1.042.496 1.641.535.05 0 .076-.081.023-.104l.001-.003zM485.793 609.101a5.455 5.455 0 012.858 2.113c.375.589 1.5 2.585.683 3.169l.704.298c-.028-.104-.079-.181-.111-.282-.136-.333-.629-.374-.748.015l-.071.288c-.146.444.508.817.811.447.961-1.105.153-2.719-.591-3.712a6.753 6.753 0 00-3.512-2.44c-.05 0-.075.081-.023.104z" fill="#fff"/><path d="M509.947 645.119c1.664-.758 2.143-2.813 1.567-4.43-.083-.231-.265-.355-.471-.353-.051-.001-.078-.025-.129-.022-.076.001-.181.083-.228.134-.127.21-.148.339-.091.572.14.541.378.897.418 1.466.071.981-.325 1.948-1.112 2.532-.077.052-.022.129.053.102l-.007-.001zM514.435 618.431c-.694 2.86-1.463 5.67-2.106 8.53-.306 1.378-.618 2.729-.902 4.107-.144.677-.282 1.35-.426 2.027-.143.676-.385 1.378-.346 2.077.003.181.291.303.391.094.246-.6.313-1.275.455-1.897.165-.73.334-1.455.501-2.158.306-1.378.592-2.727.902-4.108.614-2.859 1.101-5.765 1.689-8.622.023-.104-.132-.153-.155-.049l-.003-.001zM498.612 615.672c.529 3.276 1.292 6.521 2.104 9.712.759 3.168 1.495 6.36 2.668 9.389.029.129.208.071.178-.054-.579-3.197-1.548-6.333-2.385-9.475-.812-3.19-1.574-6.41-2.515-9.601-.002-.025-.078-.024-.05.029z" fill="#FAFAFA"/><path d="M489.649 610.626l9.243 3.41 15.659-.162 8.956-3.26-2.216-.937-6.951 2.676-14.445.164-6.682-3.227-3.568 1.339.004-.003z" fill="#DBB100"/><path d="M506.44 655.953l-.78-.292-.154-7.681.781.293.153 7.68z" fill="#FAFAFA"/><path d="M508.374 659.766a.584.584 0 01-.583.608.583.583 0 01-.607-.583.607.607 0 01.581-.633c.335-.009.601.27.606.608h.003zM509.398 664.508a1.533 1.533 0 01-1.495 1.557 1.523 1.523 0 01-1.554-1.494c-.017-.853.641-1.567 1.494-1.583a1.533 1.533 0 011.555 1.52z" fill="#D6A722"/><path d="M508.9 664.129a1.037 1.037 0 01-1.011 1.055 1.037 1.037 0 01-1.053-1.015c-.011-.57.446-1.017 1.012-1.029.567-.011 1.043.445 1.052.989z" fill="#FCD535"/><path d="M515.784 663.263a1.531 1.531 0 01-1.495 1.558c-.828.018-1.563-.64-1.579-1.493a1.533 1.533 0 011.52-1.556 1.51 1.51 0 011.553 1.495l.001-.004z" fill="#D6A722"/><path d="M515.415 662.91c.01.57-.447 1.018-1.013 1.029a.992.992 0 01-1.027-.987c-.011-.57.445-1.043.986-1.056a1.052 1.052 0 011.054 1.014z" fill="#FCD535"/><path d="M502.685 663.532a1.524 1.524 0 11-3.049.063 1.517 1.517 0 011.495-1.558 1.508 1.508 0 011.554 1.495z" fill="#D6A722"/><path d="M502.007 663.183a.995.995 0 01-.988 1.03 1.01 1.01 0 01-1.051-.989 1.036 1.036 0 011.011-1.054 1.016 1.016 0 011.028 1.013z" fill="#FCD535"/><path d="M512.904 658.666a.602.602 0 01-.583.608.61.61 0 01-.026-1.217c.334-.009.601.271.606.608l.003.001z" fill="#D6A722"/><path d="M512.639 658.412a.341.341 0 01-.329.343.341.341 0 01-.342-.329c-.003-.182.149-.314.33-.317.182-.003.338.122.341.303z" fill="#FCD535"/><path d="M503.363 658.627a.584.584 0 01-.583.608.584.584 0 01-.607-.583.584.584 0 01.583-.608.583.583 0 01.607.583zM505.734 659.407a.6.6 0 01-.583.608.608.608 0 01-.633-.582c-.009-.335.271-.601.608-.609.309-.007.6.245.608.583zM510.796 659.358a.584.584 0 01-.583.607.584.584 0 01-.608-.583.585.585 0 01.584-.608.585.585 0 01.607.584z" fill="#D6A722"/><path d="M510.534 659.104a.34.34 0 01-.329.343.341.341 0 01-.342-.329c-.003-.182.149-.314.33-.317.182-.003.338.122.341.303zM508.114 659.542c.003.181-.15.314-.331.317-.181.003-.338-.122-.341-.304a.341.341 0 01.329-.342.341.341 0 01.343.329zM505.443 659.205c.003.181-.122.337-.304.34a.34.34 0 01-.342-.329c-.003-.181.149-.313.331-.316a.298.298 0 01.315.305zM503.023 658.403a.341.341 0 01-.329.342.34.34 0 01-.343-.329c-.003-.181.15-.314.331-.317.181-.003.338.122.341.304z" fill="#FCD535"/><path d="M593.011 204.322c-6.342 0-5.2 2.374-10.106 1.669-2.238-.322-4.537-2.236-5.355-2.971a13.54 13.54 0 00-2.7.996 42.86 42.86 0 01-4.783 6.539 37.904 37.904 0 01-3.333 3.338 24.8 24.8 0 011.883.123c3.703-3.078 9.041-3.369 12.266.245 2.13 2.373 2.716 5.942 2.716 5.942-6.373-1.716-5.956.98-10.677-1.042-2.161-.919-3.889-3.476-4.475-4.426-1.018 0-2.021.077-3.009.276-3.441 2.833-7.36 5.13-11.572 6.845.555.169 1.095.368 1.635.582 4.814-2.159 10.462-.98 12.668 3.66 1.451 3.063.957 6.922.957 6.922-6.095-3.552-6.496-.643-10.77-4.058-1.944-1.562-2.947-4.686-3.256-5.834a16.612 16.612 0 00-3.117-.552 45.536 45.536 0 01-6.696 1.853c-.926.184-2.052.383-2.963.521l-.632-2.328a33.703 33.703 0 007.823-1.332c.432-.123.879-.26 1.311-.398a9.63 9.63 0 00.571-1.118c.247-.567.463-1.149.664-1.746-.88-.873-3.133-3.339-3.488-5.712-.771-5.207 2.068-3.967 2.145-10.689 0 0 3.75 1.684 5.709 4.487 2.978 4.242 1.003 9.341-3.533 11.975-.139.781-.34 1.547-.571 2.282a43.025 43.025 0 0011.68-6.478c.108-.413.185-.827.232-1.256.061-.566.108-1.133.123-1.715-1.018-.566-3.688-2.22-4.644-4.257-2.099-4.457.771-4.028-.972-10.046 0 0 3.795.612 6.295 2.634 3.796 3.078 3.425 8.086.093 11.516.077.705.123 1.424.108 2.113a38.684 38.684 0 003.518-3.384 39.674 39.674 0 004.474-5.835c0-.52-.046-1.041-.139-1.562a15.03 15.03 0 00-.37-1.608c-1.096-.275-4.012-1.133-5.462-2.772-3.179-3.598-.417-3.905-3.703-9.02 0 0 3.657-.382 6.526.873 4.352 1.899 5.401 6.601 3.318 10.582.293.674.54 1.363.725 2.052a43.145 43.145 0 004.243-10.352c-.139-.505-.355-.995-.586-1.47-.247-.49-.509-.965-.802-1.424-1.111.015-4.105-.062-5.925-1.241-4.012-2.588-1.513-3.568-6.064-7.55 0 0 3.332-1.271 6.372-.827 4.629.69 6.959 4.855 6.141 9.143.463.551.895 1.133 1.25 1.731a43.972 43.972 0 001.018-11.547 10.196 10.196 0 00-.879-1.134c-.34-.367-.71-.719-1.096-1.056-.972.275-3.626.919-5.554.306-4.228-1.332-2.284-2.802-7.36-5.237 0 0 2.592-1.915 5.4-2.236 4.259-.49 7.437 2.634 7.854 6.615.54.383 1.064.781 1.543 1.21a41.922 41.922 0 00-1.867-9.678 7.804 7.804 0 00-1.127-.873 17.694 17.694 0 00-1.172-.689c-.756.428-2.886 1.531-4.66 1.409-3.919-.276-2.592-1.915-7.499-2.956 0 0 1.759-2.175 4.074-3.017 3.518-1.286 6.943.735 8.224 4.043.586.214 1.157.475 1.681.766a43.032 43.032 0 00-3.672-7.765c-.663-.382-1.419-.643-2.175-.842-.525.49-2.022 1.761-3.488 1.976-3.224.49-2.499-1.088-6.665-1.057 0 0 .987-2.083 2.685-3.185 2.592-1.685 5.77-.659 7.498 1.791.525.077 1.05.184 1.543.322a47.324 47.324 0 00-4.659-6.172c-.556-.183-1.142-.275-1.744-.321-.339.459-1.296 1.654-2.392 2.021-2.422.827-2.113-.505-5.354.108 0 0 .432-1.762 1.59-2.849 1.743-1.669 4.382-1.317 6.11.352.401 0 .802 0 1.188.031a45.525 45.525 0 00-4.521-4.257c-.509.474-1.234.735-2.083.582a4.449 4.449 0 01-1.882-.827c-2.87-2.19-2.978-4.503-2.978-4.503 3.363-.551 5.523.352 6.897 1.501.972.827.972 2.052.37 2.894a47.96 47.96 0 014.706 4.258c0-.398.062-.797.139-1.195-1.512-1.837-1.512-4.349.494-5.727 1.327-.904 3.24-1.072 3.24-1.072-1.111 2.925.339 2.818-.88 4.962-.555.98-1.959 1.699-2.484 1.944-.031.598-.015 1.195.124 1.777a46.037 46.037 0 014.752 6.126c.123-.491.278-.965.478-1.425-1.419-2.618-.787-5.712 2.068-6.983 1.867-.842 4.289-.597 4.289-.597-2.113 3.384-.293 3.568-2.345 5.942-.941 1.087-2.854 1.669-3.564 1.853-.201.719-.324 1.47-.293 2.205a44.987 44.987 0 013.857 7.948c.293-.567.633-1.087 1.003-1.608-.895-3.415.771-6.876 4.475-7.626 2.438-.491 5.184.413 5.184.413-3.456 3.4-1.389 4.089-4.49 6.34-1.42 1.026-3.827 1.21-4.722 1.241-.447.811-.817 1.653-1.002 2.542a44.966 44.966 0 012.129 9.939 15.496 15.496 0 011.558-1.455c.047-3.997 2.916-7.351 7.206-7.198 2.824.107 5.585 1.822 5.585 1.822-4.829 2.818-2.761 4.135-6.85 5.774-1.867.75-4.583.306-5.57.107-.71.735-1.358 1.547-1.821 2.45a44.49 44.49 0 01-.787 11.7c.062-.03.108-.061.17-.092a21.766 21.766 0 011.697-.842c1.311-4.165 5.4-6.891 9.86-5.498 2.931.904 5.276 3.477 5.276 3.477-5.955 1.592-4.212 3.553-9.026 4.119-2.191.26-4.907-.965-5.879-1.455-.879.521-1.712 1.103-2.438 1.792a43.656 43.656 0 01-4.166 10.766 27.845 27.845 0 011.898-.383c2.546-3.752 7.36-5.345 11.341-2.802 2.608 1.669 4.166 4.808 4.166 4.808l.031.031zM416.516 204.322c6.341 0 5.199 2.374 10.106 1.669 2.237-.322 4.536-2.236 5.354-2.971.941.245 1.852.567 2.7.996a42.8 42.8 0 004.784 6.539 37.893 37.893 0 003.332 3.338c-.632.015-1.265.061-1.882.123-3.703-3.078-9.042-3.369-12.267.245-2.129 2.373-2.715 5.942-2.715 5.942 6.372-1.716 5.956.98 10.677-1.042 2.16-.919 3.888-3.476 4.475-4.426 1.018 0 2.021.077 3.009.276 3.44 2.833 7.359 5.13 11.572 6.845-.556.169-1.096.368-1.636.582-4.814-2.159-10.461-.98-12.668 3.66-1.45 3.063-.956 6.922-.956 6.922 6.095-3.552 6.496-.643 10.77-4.058 1.944-1.562 2.947-4.686 3.255-5.834a16.64 16.64 0 013.117-.552 45.583 45.583 0 006.697 1.853c.925.184 2.052.383 2.962.521l.633-2.328a33.693 33.693 0 01-7.823-1.332c-.432-.123-.88-.26-1.312-.398a9.469 9.469 0 01-.57-1.118 21.686 21.686 0 01-.664-1.746c.88-.873 3.132-3.339 3.487-5.712.772-5.207-2.067-3.967-2.145-10.689 0 0-3.749 1.684-5.709 4.487-2.977 4.242-1.002 9.341 3.534 11.975.139.781.339 1.547.571 2.282a43.046 43.046 0 01-11.681-6.478 8.523 8.523 0 01-.231-1.256 20.528 20.528 0 01-.123-1.715c1.018-.566 3.687-2.22 4.644-4.257 2.098-4.457-.772-4.028.972-10.046 0 0-3.796.612-6.295 2.634-3.796 3.078-3.426 8.086-.093 11.516a16.402 16.402 0 00-.108 2.113 38.554 38.554 0 01-3.518-3.384 39.68 39.68 0 01-4.475-5.835c0-.52.047-1.041.139-1.562.093-.536.216-1.072.371-1.608 1.095-.275 4.011-1.133 5.462-2.772 3.178-3.598.416-3.905 3.703-9.02 0 0-3.657-.382-6.527.873-4.351 1.899-5.4 6.601-3.317 10.582-.293.674-.54 1.363-.725 2.052a43.188 43.188 0 01-4.244-10.352c.139-.505.355-.995.587-1.47.247-.49.509-.965.802-1.424 1.111.015 4.104-.062 5.925-1.241 4.012-2.588 1.512-3.568 6.064-7.55 0 0-3.333-1.271-6.373-.827-4.628.69-6.958 4.855-6.141 9.143a13.311 13.311 0 00-1.249 1.731 44.015 44.015 0 01-1.019-11.547c.263-.398.556-.766.88-1.134.339-.367.71-.719 1.095-1.056.972.275 3.626.919 5.555.306 4.228-1.332 2.284-2.802 7.36-5.237 0 0-2.592-1.915-5.4-2.236-4.259-.49-7.438 2.634-7.854 6.615-.54.383-1.065.781-1.543 1.21a41.64 41.64 0 011.867-9.678 7.795 7.795 0 011.126-.873c.386-.245.772-.475 1.173-.689.756.428 2.885 1.531 4.66 1.409 3.919-.276 2.592-1.915 7.499-2.956 0 0-1.759-2.175-4.074-3.017-3.518-1.286-6.943.735-8.224 4.043-.586.214-1.157.475-1.682.766a43.1 43.1 0 013.672-7.765c.664-.382 1.42-.643 2.176-.842.525.49 2.021 1.761 3.487 1.976 3.225.49 2.5-1.088 6.666-1.057 0 0-.988-2.083-2.685-3.185-2.592-1.685-5.771-.659-7.499 1.791a12.59 12.59 0 00-1.543.322 47.332 47.332 0 014.66-6.172c.555-.183 1.142-.275 1.744-.321.339.459 1.296 1.654 2.391 2.021 2.423.827 2.114-.505 5.354.108 0 0-.432-1.762-1.589-2.849-1.744-1.669-4.382-1.317-6.11.352-.401 0-.803 0-1.188.031a45.525 45.525 0 014.521-4.257c.509.474 1.234.735 2.083.582a4.46 4.46 0 001.882-.827c2.87-2.19 2.978-4.503 2.978-4.503-3.364-.551-5.524.352-6.897 1.501-.972.827-.972 2.052-.37 2.894a47.96 47.96 0 00-4.706 4.258c0-.398-.062-.797-.139-1.195 1.512-1.837 1.512-4.349-.494-5.727-1.327-.904-3.24-1.072-3.24-1.072 1.111 2.925-.34 2.818.879 4.962.556.98 1.96 1.699 2.484 1.944.031.598.016 1.195-.123 1.777a45.954 45.954 0 00-4.752 6.126 9.107 9.107 0 00-.479-1.425c1.42-2.618.787-5.712-2.067-6.983-1.867-.842-4.29-.597-4.29-.597 2.114 3.384.293 3.568 2.346 5.942.941 1.087 2.854 1.669 3.564 1.853.2.719.324 1.47.293 2.205a44.987 44.987 0 00-3.857 7.948 13.495 13.495 0 00-1.003-1.608c.895-3.415-.772-6.876-4.475-7.626-2.438-.491-5.184.413-5.184.413 3.456 3.4 1.388 4.089 4.49 6.34 1.419 1.026 3.826 1.21 4.721 1.241.448.811.818 1.653 1.003 2.542a44.966 44.966 0 00-2.129 9.939 15.507 15.507 0 00-1.559-1.455c-.046-3.997-2.916-7.351-7.205-7.198-2.824.107-5.586 1.822-5.586 1.822 4.83 2.818 2.762 4.135 6.851 5.774 1.867.75 4.583.306 5.57.107.71.735 1.358 1.547 1.821 2.45a44.49 44.49 0 00.787 11.7c-.062-.03-.108-.061-.17-.092a21.943 21.943 0 00-1.697-.842c-1.312-4.165-5.401-6.891-9.86-5.498-2.932.904-5.277 3.477-5.277 3.477 5.956 1.592 4.212 3.553 9.027 4.119 2.191.26 4.906-.965 5.878-1.455.88.521 1.713 1.103 2.438 1.792a43.735 43.735 0 004.166 10.766 27.602 27.602 0 00-1.898-.383c-2.546-3.752-7.36-5.345-11.341-2.802-2.607 1.669-4.166 4.808-4.166 4.808l-.03.031z" fill="#D19302"/><path fill-rule="evenodd" clip-rule="evenodd" d="M509.936 183.403c18.824-18.432 9.02-50.785 9.02-50.785s-2.775-8.553-3.122-10.356c0 0-1.733-5.615 3.744-3.397 0 0 8.596 4.645 10.26 17.054 0 0 1.317-12.548.901-14.211 0 0 .347-5.546 3.813-2.358 0 0 10.399 8.319 6.101 25.928 0 0 2.01-1.872 2.634-4.229 0 0 3.328-4.506 5.754 2.288 0 0 4.131 8.595-2.291 22.762 0 0-1.799 4.691-2.284 5.384 0 0 2.703-2.496 3.813-4.922 0 0 1.386-3.12 3.535-1.595 0 0 1.733 2.496-.555 10.399 0 0-8.11 34.385-29.878 42.704 0 0-12.618 4.714-18.441-14.697 0 0-2.646-14.704 6.996-19.969z" fill="#173C3F"/><path fill-rule="evenodd" clip-rule="evenodd" d="M497.982 183.403c-18.824-18.432-9.02-50.785-9.02-50.785s2.774-8.553 3.121-10.356c0 0 1.733-5.615-3.744-3.397 0 0-8.596 4.645-10.26 17.054 0 0-1.317-12.548-.901-14.211 0 0-.347-5.546-3.813-2.358 0 0-10.399 8.319-6.101 25.928 0 0-2.01-1.872-2.634-4.229 0 0-3.327-4.506-5.754 2.288 0 0-4.13 8.595 2.291 22.762 0 0 1.799 4.691 2.285 5.384 0 0-2.704-2.496-3.813-4.922 0 0-1.387-3.12-3.536-1.595 0 0-1.733 2.496.555 10.399 0 0 8.111 34.385 29.879 42.704 0 0 12.617 4.714 18.44-14.697 0 0 2.647-14.704-6.995-19.969z" fill="#173C3F"/><path fill-rule="evenodd" clip-rule="evenodd" d="M512.268 244.122c-4.437-2.496-20.174 2.08-20.381 2.01-.139-1.456.207-4.09.207-4.09-.138-3.05-.901-5.061-.901-5.061-4.09-9.151-6.655-32.721-6.655-32.721s4.298-33.276 32.305-15.945c0 0 8.805 10.676 7.834 25.373 0 0-.781 13.242-4.298 22.808 0 0-1.219 2.32-1.079 5.624 0 0-.048 2.041-.895 3.853 0 0-2.324 1.615-6.137-1.851z" fill="#173C3F"/><path fill-rule="evenodd" clip-rule="evenodd" d="M491.497 246.89c-.294 0-5.981 2.794-7.108 6.029 0 0-1.029 2.696.147 4.314 0 0 1.109.975 1.699-.29 0 0 .155-.364.19-1.126 0 0 .017-.711.381-1.04 0 0-.311 2.079.122 2.842 0 0 .884 1.317 2.218.139 0 0 .745-.572.901-1.196 0 0 .399 1.75 1.491 1.421 0 0 1.144 0 1.646-2.565 0 0 1.524-5.097.641-7.377 0 0 .147-1.887-2.328-1.151zM516.075 249.21s-.174 1.074.589 2.599c0 0 .867 2.288.867 3.016 0 0 .207 2.114 1.178 2.461 0 0 1.456 1.074 2.045-1.109 0 0 1.733 1.941 3.154-.035 0 0 1.976 1.456 2.808.173 0 0 .763-1.352.069-3.258 0 0-.589-1.837-2.738-2.981 0 0-3.986-1.941-4.471-2.149 0 0-1.214-.485-2.115-.416-1.074 0-1.386 1.699-1.386 1.699z" fill="#CE9434"/><path fill-rule="evenodd" clip-rule="evenodd" d="M520.739 256.21c.172-2.01-1.299-5.099-1.299-5.099s2.647 1.471 2.892 5.858c0 0-1.005.147-1.593-.759zM521.376 250.989c.172.147 2.696 2.941 3.015 5.221 0 0 .956.833 1.765.392 0 0-.662-3.873-4.78-5.613z" fill="#AD7821"/><path fill-rule="evenodd" clip-rule="evenodd" d="M490.901 200.63s1.525 23.571 3.466 34.524c0 0 .854 4.598-1.548 8.716 0 0-1.121 2.48-1.329 2.827 0 0-.589 1.525.312 2.079.139.07.936.798 2.323-.45 0 0 3.605-2.427 7.313-2.6 0 0 6.032-.728 8.389.277 0 0 3.189.936 5.996 3.189 0 0 1.531.952 2.511.438 0 0 .981-.221.687-1.398-.025-.073-1.152-3.725-1.201-6.47 0 0-.589-4.559-.049-7.108 0 0 2.316-23.07 1.345-29.864 0 0 .076-16.362-12.081-21.362 0 0-5.514-.677-8.039 0 0 0-9.327 4.796-8.095 17.202z" fill="#BCB9A8"/><path fill-rule="evenodd" clip-rule="evenodd" d="M499.843 191.254s-5.852 12.954-16.741 14.573c0 0-4.709 1.275-10.546-5.69 0 0-6.034-8.682-4.219-16.53 0 0-1.962 2.109-1.864 4.66 0 0 .123 1.398-1.152.392 0 0-5.175-8.093 1.839-14.813 0 0-1.562-.172-2.568.868 0 0-1.214 1.353-1.388-.486 0 0-.104-6 7.978-7.942 0 0-4.197-4.058.451-9.191 0 0 1.144 6.277 8.913 3.815 0 0-1.456-7.978 5.966-11.168 0 0 .208 7.075 5.203 7.075 0 0 6.659 0 14.914-8.81 0 0 .902 3.677-.278 6.868 0 0 3.261-3.469 3.746-5.827 0 0 2.914 2.983 2.706 7.075 0 0 8.74.625 14.359-3.954 0 0 1.318 3.816-.347 7.631 0 0 3.746-.208 5.896-4.232 0 0 2.775 2.775 0 7.631 0 0 7.908.694 8.741 8.324 0 0 .191 1.513-.937.974 0 0-1.422-.957-2.845-1.079 0 0 4.267 3.504 3.92 7.527 0 0 .07 3.677-3.399 4.856 0 0 2.151 5.342-2.011 9.92 0 0-.833 1.144-1.422-.347 0 0-.07-.555-.521-.52 0 0-1.387 8.428-5.272 10.509 0 0-4.717 4.578-10.335 1.387 0 0-3.469-2.497-6.66-10.682 0 0-.976-3.707-4.444-5.441 0 0-4.68-2.841-7.683 2.627z" fill="#225054"/><path d="M527.573 188.413c-5.513 2.269-12.522-.988-15.655-7.273-3.132-6.286-1.201-13.221 4.313-15.49 5.513-2.269 12.522.987 15.654 7.273 3.133 6.286 1.202 13.22-4.312 15.49zM483.615 182.904c5.514 2.269 12.523-.987 15.655-7.273 3.132-6.285 1.202-13.22-4.312-15.489s-12.523.987-15.655 7.272c-3.132 6.286-1.202 13.221 4.312 15.49z" fill="#1A4346"/><path d="M480.52 188.612c5.514 2.269 12.523-.987 15.655-7.273 3.132-6.286 1.201-13.221-4.312-15.49-5.514-2.269-12.523.987-15.655 7.273-3.132 6.286-1.202 13.221 4.312 15.49z" fill="#1A4346"/><path d="M482.075 185.54c5.514 2.27 12.523-.987 15.655-7.272 3.132-6.286 1.201-13.221-4.313-15.49-5.513-2.269-12.522.987-15.654 7.273-3.132 6.286-1.202 13.22 4.312 15.489z" fill="#D6D4C8"/><path d="M524.478 182.705c-5.514 2.269-12.523-.987-15.655-7.273-3.132-6.286-1.201-13.22 4.312-15.489 5.514-2.269 12.523.987 15.655 7.272 3.132 6.286 1.202 13.221-4.312 15.49z" fill="#1A4346"/><path d="M526.291 185.54c-5.514 2.27-12.523-.987-15.655-7.272-3.132-6.286-1.202-13.221 4.312-15.49s12.523.987 15.655 7.273c3.132 6.286 1.201 13.22-4.312 15.489z" fill="#D6D4C8"/><path fill-rule="evenodd" clip-rule="evenodd" d="M498.109 178.823s1.457-3.884 4.37-4.474c0 0 1.873-.416 3.468.243 0 0 3.365.798 4.544 4.994 0 0 .312.382-.208 1.804 0 0-4.023 18.036-4.231 18.868 0 0-.552 2.01-1.68 1.961 0 0-1.374.172-1.84-2.207 0 0-3.944-16.284-4.112-17.635-.948-2.183-.311-3.554-.311-3.554z" fill="#FAB84A"/><path fill-rule="evenodd" clip-rule="evenodd" d="M498.109 178.824s1.457-3.885 4.37-4.474c0 0 1.873-.416 3.469.243 0 0 3.364.797 4.543 4.994 0 0 .312.382-.208 1.804 0 0-4.023 18.035-4.231 18.868 0 0-.552 2.01-1.68 1.961 0 0-1.374.171-1.84-2.208 0 0-3.944-16.283-4.112-17.634-.948-2.184-.311-3.554-.311-3.554z" fill="#FAB84A"/><path fill-rule="evenodd" clip-rule="evenodd" d="M508.346 183.294c-.347 4.925-2.74 11.966-2.74 11.966-1.561 4.127-2.74 0-2.74 0-.382-.694-3.122-11.758-3.122-11.758s-.563-.832.651-.624c0 0 3.576 2.906 7.084-.104 0 0 .763-.694.867.52z" fill="#93671D"/><path d="M504.427 186.201c-1.266.005-2.509.562-3.597 1.612.816 3.211 1.813 7.041 2.036 7.447 0 0 1.179 4.127 2.74 0 0 0 1.282-3.78 2.105-7.738-1.012-.865-2.139-1.318-3.284-1.321z" fill="#9C3A3A"/><path d="M492.52 180.886c-3.802 1.317-7.948-.684-9.261-4.47-1.312-3.787.706-7.924 4.508-9.242 3.802-1.318 7.948.683 9.261 4.47 1.312 3.786-.706 7.924-4.508 9.242z" fill="#FAB84A"/><path d="M492.233 180.058c-3.343 1.159-6.989-.601-8.143-3.931-1.154-3.329.621-6.968 3.964-8.127 3.344-1.159 6.99.601 8.144 3.931 1.154 3.329-.621 6.968-3.965 8.127z" fill="#CF7B14"/><path d="M491.842 179.095c-2.834.982-5.924-.509-6.902-3.331-.978-2.822.526-5.906 3.36-6.888 2.834-.982 5.924.509 6.902 3.331.978 2.822-.527 5.906-3.36 6.888z" fill="#201E1E"/><path d="M493.989 171.901a1.74 1.74 0 01-2.216-1.069 1.74 1.74 0 011.078-2.211 1.74 1.74 0 012.216 1.069 1.74 1.74 0 01-1.078 2.211z" fill="#FEFEFE"/><path d="M520.209 180.768c-3.803 1.318-7.949-.683-9.261-4.469-1.312-3.787.706-7.924 4.508-9.242 3.802-1.318 7.948.683 9.261 4.47 1.312 3.786-.706 7.924-4.508 9.241z" fill="#FAB84A"/><path d="M519.922 179.942c-3.344 1.159-6.99-.601-8.144-3.931s.621-6.968 3.965-8.127c3.343-1.159 6.989.601 8.143 3.931 1.154 3.329-.62 6.968-3.964 8.127z" fill="#CF7B14"/><path d="M519.531 178.978c-2.833.983-5.923-.509-6.902-3.331-.978-2.822.527-5.905 3.36-6.887 2.834-.983 5.924.509 6.902 3.331.978 2.822-.526 5.905-3.36 6.887z" fill="#201E1E"/><path d="M521.677 171.784a1.738 1.738 0 01-2.215-1.069 1.74 1.74 0 011.078-2.211 1.74 1.74 0 012.216 1.069 1.74 1.74 0 01-1.079 2.211z" fill="#FEFEFE"/><path fill-rule="evenodd" clip-rule="evenodd" d="M501.284 243.06s5.962-1.456 8.874-.069c0 0 6.434-7.678 6.63-22.874 0 0 .164-9.709-1.015-13.799 0 0-5.407-6.517-6.724-9.983 0 0-1.941 10.537-2.08 11.161 0 0-1.595 4.922-3.952 1.04 0 0-3.258-7.279-3.327-11.716 0 0-1.941 1.872-2.288 2.149 0 0-2.149 7.071-2.773 8.25 0 0-3.466 21.976 6.655 35.841z" fill="#D5D3C7"/><path fill-rule="evenodd" clip-rule="evenodd" d="M487.552 257.81c-.589-3.813 2.01-7.037 2.01-7.037-4.09 2.357-4.055 6.69-4.055 6.69s.728.225.918-1.438c0 0 .174 1.663 1.127 1.785zM489.909 256.631s.589-3.882 1.594-5.32c0 0-.138 6.117-.26 6.672 0 0-.953-.121-1.334-1.352z" fill="#AD7821"/><path d="M512.149 67.578c-.204-1.351-6.749.946-7.022 5.155 0 0 .502-2.09 3.446-3.592 1.831-.892 3.738-.392 3.576-1.564z" fill="#fff"/><path d="M488.71 120.971s15.431 9.573 30.399-.122c0 0-13.219 6.678-30.399.122z" fill="#FDFDFD"/><path d="M488.709 120.971l-2.574 8.944s19.777 7.953 35.793-1.043l-2.819-8.024s-14.28-8.288-30.4.123z" fill="#D6A722"/><path d="M488.709 120.971l-2.574 8.944s19.776 7.953 35.792-1.043l-2.819-8.024s-5.661 3.232-15.135 3.333c-9.474.101-15.264-3.21-15.264-3.21z" fill="#FCD535"/><path d="M497.428 123.818c6.308 1.856 13.837 1.884 19.917-.99.628-.327.157-1.359-.517-1.162-3.133 1.101-6.18 2.158-9.515 2.495-3.286.291-6.625.135-9.845-.524-.136-.042-.176.138-.04.181z" fill="#FAFAFA"/><path d="M516.156 78.74c-2.883-2.065-7.927-1.641-7.927-1.641s-.33 3.754 2.549 5.863c2.883 2.066 6.413 2.807 7.882 1.645 1.512-1.158.378-3.8-2.506-5.86l.002-.006z" fill="#FCD535"/><path d="M517.667 84.532c1.488-.029 1.119-2.734-1.665-4.394 0 0 .829.98 1.039 2.192.151.993-.362 2.222.626 2.202z" fill="#FAFAFA"/><path d="M490.636 79.26c2.799-2.177 7.853-1.968 7.853-1.968s.48 3.74-2.315 5.962c-2.798 2.178-6.299 3.064-7.853 1.969-1.508-1.099-.483-3.784 2.315-5.962z" fill="#FCD535"/><path d="M489.356 85.106c-1.488.029-1.27-2.685 1.444-4.453 0 0-.747 1.007-.906 2.233-.159.999.405 2.203-.545 2.225l.007-.005z" fill="#FAFAFA"/><path d="M479.025 32.535l11.52-3.802 25.304-.063 12.175 4.535-11.432 5.65-26.425.313-11.135-6.638-.007.005z" fill="#B27508"/><path d="M494.383 115.844s9.415 6.4 19.039.291c0 0-7.999 3.822-19.039-.291z" fill="#FDFDFD"/><path d="M499.765 114.153l-5.383 1.691.033 3.88s8.769 5.424 19.078-.161l-.069-3.434-5.048-2.112-.389-17.422s-5.659 1.29-8.488-.28l.261 17.83.005.008z" fill="#D6A722"/><path d="M499.765 114.152s3.75 2.587 8.61-.129l-.347-15.257s-1.956 1.395-4.121 1.437c-2.123.045-4.357-1.448-4.357-1.448l.217 15.391-.002.006zM494.383 115.844l-.512 3.891s9.847 5.399 20.161-.185l-.608-3.421s-3.932 1.888-10.021 1.966c-6.086.035-9.019-2.257-9.019-2.257l-.001.006z" fill="#FCD535"/><path d="M499.203 117.868c4.035 1.137 9.179 1.17 13.069-.67.401-.189.116-.864-.333-.717-2.016.674-4.216 1.352-6.371 1.573a23.155 23.155 0 01-6.365-.325c-.045.003-.09.094.002.133l-.002.006z" fill="#FAFAFA"/><path d="M472.712 34.922l6.273-2.206s2.746 2.11 11.661 5.77l25.212-.241 12.17-4.856 3.777 1.729-12.986 43.61-8.693 5.099-12.398.208-12.387-6.027-9.722-33.302-2.901-9.783h-.006z" fill="#FCD535"/><path d="M528.966 44.57s.496 2.337 2.974 2.106c0 0 3.822-.488 3.105-5.03 0 0-.498-6.808 5.621-5.265 0 0 5.012 2.47.109 10.203L523 64.686l-4.103 13.806s3.669 5.388 8.386 2.18c0 0 5.382-3.9 1.511-7.932 0 0 7.221-1.907 9.036-1.447 0 0 7.203-.776 3.994-7.758 0 0 7.903.47 8.971-4.785 0 0 1.786-3.015-.038-6.41 0 0 7.633-4.13 5.563-10.675 0 0-.969-3.413-5.689-2.457 0 0 5.336-8.462-1.967-14.948 0 0-6.144-2.627-5.35 7.784 0 0-8.226-5.34-14.007 3.445l2.514-.5-2.875 9.583.02-.002zM497.728 84.034s-4.939 8.09 1.88 13.012c0 0 7.281 3.328 11.107-1.718 0 0 4.685-4.792-.592-11.546l-12.401.251.006.001z" fill="#FCD535"/><path d="M476.482 38.415l10.826 4.79 8.274 35.137-8.017-4.128-11.082-35.805-.001.006zM494.71 43.463l4.654 34.49 7.529-.06 6.17-34.62-18.353.19zM511.321 78.165l5.173-3.133L527.38 39.28l-9.297 4.297-6.756 34.589-.006-.001z" fill="#B27508"/><path d="M506.97 90.844c-.016 1.491-1.209 2.69-2.653 2.715-1.443.026-2.73-1.162-2.714-2.653-.028-1.488 1.165-2.686 2.653-2.715 1.488-.028 2.686 1.165 2.714 2.653z" fill="#D6A722"/><path d="M477.127 39.258l9.83 4.45 7.504 32.67-17.333-37.126-.001.006zM495.263 43.813l17.18-.166-5.741 33.345 2.728-30.85-14.167-2.329zM518.449 44.06l4.293-1.895-5.795 30.773 1.503-28.883-.001.006z" fill="#DBB100"/><path d="M505.623 91.231c.199 1.035-.457 2.087-1.441 2.285-1.033.25-2.085-.407-2.283-1.441-.244-1.032.409-2.04 1.441-2.285 1.034-.199 2.04.41 2.283 1.441z" fill="#FDFDFD"/><path d="M510.123 83.781l8.785-5.28-8.778 3.295-12.529.482-10.266-3.537 10.386 5.298.141.27 12.26-.522.001-.006zM523.005 64.693L518.902 78.5s3.489-12.89 21.874-31.916L523 64.686l.005.007z" fill="#D6A722"/><path d="M543.963 34.288s4.008 1.995 2.953 10.369c0 0-.517 3.574-5.191 8.772 0 0-10.52 10.822-11.435 12.555 0 0-2.06 3.112-1.335 5.354 0 0-1.99-2.536 1.3-7.07l7.465-8.053s7.252-7.324 7.922-9.912c0 0 2.371-5.42-1.678-12.02l-.001.005z" fill="#DBB100"/><path d="M502.694 54.856l1.689 3.125 3.528.469-2.48 2.444.746 3.37-3.19-1.561-3.083 1.642.474-3.439-2.616-2.385 3.465-.523 1.469-3.148-.002.006z" fill="#FAFAFA"/><path d="M499.907 64.306c.178-.092 2.979-4.527 2.979-4.527l.106 2.93-3.079 1.599-.006-.002zM502.88 59.778l-5.119-1.252 2.616 2.385 2.503-1.133z" fill="#FCD535"/><path d="M502.881 59.778l3.289 4.49-.745-3.37-2.55-1.122.006.002z" fill="#FCD535"/><path d="M507.678 58.417l-4.798 1.361 1.496-1.793 3.302.432z" fill="#FCD535"/><path d="M502.88 59.778l-.187-4.916-1.469 3.148 1.661 1.776-.005-.008z" fill="#FCD535"/><path d="M533.441 70.217c1.674.24 3.796.283 5.358-.562 1.029-.515 2.265-1.849 1.295-2.96-.093-.178-.363-.125-.449.007-.356.325-.529.734-.838 1.1-.486.599-1.243.885-1.96 1.078-1.212.343-2.332.592-3.451 1.2-.045.004-.043.136.045.137zM544.012 61.921c1.848.052 3.766-1.117 4.909-2.54.925-1.1 1.828-3.29.63-4.483-.231-.178-.587-.08-.674.197-.21.634-.111 1.268-.234 1.903-.171.769-.598 1.5-1.174 2.104-.928 1.055-2.264 1.987-3.512 2.555-.134.09-.041.268.053.27l.002-.006zM553.447 48.41c1.998-1.53 2.82-5.792.75-7.602-.504-.484-1.307-.02-1.116.654.342 1.21.991 2.15 1.061 3.452.027 1.267-.317 2.307-.745 3.492 0 0 .003.045.045-.003l.005.008zM550.843 35.642c.638-2.047.782-3.856.111-5.916-.478-1.481-1.481-4.031-3.155-4.498-.452-.125-.805.332-.707.739.196.762.747 1.206 1.208 1.826.56.8 1.028 1.647 1.357 2.547.572 1.57 1.059 3.546 1.006 5.262.002.133.185.13.18.04zM538.536 31.33c-2.467.77-4.602 2.262-6.093 4.32-1.274 1.786-2.57 4.613-.863 6.519.552.665 1.669-.077 1.379-.841-.048-.181-.095-.312-.143-.493-.143-.492-1.004-.702-1.217-.113-.088.139-.13.274-.173.41.356-.098.762-.196 1.169-.295-1.466-1.007.404-4.57 1.062-5.572 1.185-1.786 2.918-3.085 4.931-3.804.089 0 .04-.18-.045-.136l-.007.004z" fill="#fff"/><path d="M475.89 45.107s-.449 2.36-2.931 2.18c0 0-3.842-.419-3.21-4.99 0 0 .36-6.78-5.697-5.119 0 0-4.956 2.581.066 10.2l18.118 17.737 4.377 13.725s-3.594 5.444-8.345 2.338c0 0-5.485-3.773-1.69-7.912 0 0-7.253-1.75-9.045-1.26 0 0-7.226-.622-4.122-7.639 0 0-7.925.566-9.111-4.649 0 0-1.862-2.942-.08-6.362 0 0-7.7-3.994-5.756-10.581 0 0 .882-3.405 5.63-2.551 0 0-5.49-8.378 1.69-14.98 0 0 6.08-2.786 5.474 7.655 0 0 8.144-5.492 14.086 3.144l-1.442-.062 1.982 9.125h.006z" fill="#FCD535"/><path d="M482.242 65.117l4.377 13.724S482.846 66 464.124 47.379l18.118 17.738z" fill="#D6A722"/><path d="M460.721 35.17s-3.972 2.068-2.813 10.442c0 0 .613 3.51 5.401 8.605 0 0 10.719 10.663 11.702 12.313 0 0 2.093 3.12 1.412 5.39 0 0 1.929-2.61-1.445-7.056l-7.646-7.924s-7.36-7.167-8.084-9.725c0 0-2.451-5.369 1.478-12.038l-.005-.007z" fill="#DBB100"/><path d="M471.934 70.701c-1.137-.561-2.229-.81-3.45-1.101-.638-.167-1.363-.423-1.82-.865-.415-.401-.605-.935-1.019-1.286a.355.355 0 00-.494.01c-.924 1.15.361 2.433 1.412 2.95 1.592.783 3.669.74 5.377.432.045-.002.046-.09-.002-.133l-.004-.007zM461.219 62.518c-1.278-.606-2.603-1.48-3.568-2.502-.55-.533-.969-1.2-1.162-1.917-.191-.673-.074-1.398-.31-2.068-.098-.268-.457-.354-.682-.165-1.193 1.198-.206 3.392.721 4.5 1.156 1.379 3.118 2.509 4.962 2.383.133-.002.179-.181.037-.225l.002-.006zM451.527 49.441c-.472-1.164-.854-2.195-.79-3.505.022-1.263.678-2.227.968-3.449.164-.682-.651-1.072-1.139-.606-1.993 1.846-1.095 6.12.918 7.614.045-.003.042-.048.042-.048l.001-.006zM454.03 36.57c-.122-1.666.335-3.664.888-5.3.301-.817.737-1.64 1.215-2.373.436-.685 1.105-1.199 1.267-2.014a.575.575 0 00-.738-.706c-1.661.438-2.645 3.076-3.067 4.577-.635 2.092-.42 3.848.203 5.866.049.093.226.088.226-.05h.006zM481.045 79.947c-.949-.21-1.73-.87-2.29-1.67-.278-.307-.462-.67-.607-1.067-.191-.447-.191-.673-.606-.936-.231-.177-.541-.032-.674.197-.521.868.583 2.198 1.272 2.73.824.662 1.819.864 2.863.933.089 0 .133-.141.04-.18l.002-.007zM466.032 32.213c1.995.64 3.781 1.913 4.987 3.688.654 1.029 2.617 4.51 1.192 5.531l1.228.519c-.048-.181-.138-.315-.194-.49-.236-.583-1.097-.655-1.304.025l-.125.502c-.254.776.887 1.426 1.416.78 1.677-1.928.267-4.745-1.032-6.478a11.79 11.79 0 00-6.128-4.257c-.088 0-.132.141-.04.18z" fill="#fff"/><path d="M508.182 95.067c2.904-1.321 3.739-4.907 2.733-7.729-.143-.404-.461-.62-.821-.617-.088-.001-.135-.043-.225-.038-.133.002-.316.144-.398.233-.221.367-.258.592-.159.999.244.944.66 1.566.73 2.559.124 1.711-.567 3.399-1.941 4.418-.133.09-.037.225.093.178l-.012-.002zM516.013 48.496c-1.21 4.99-2.553 9.894-3.675 14.886-.534 2.403-1.077 4.76-1.574 7.167-.25 1.18-.492 2.356-.742 3.536-.25 1.181-.673 2.405-.604 3.625.005.316.507.529.682.164.428-1.046.545-2.225.793-3.311.289-1.273.583-2.538.875-3.766.534-2.404 1.033-4.759 1.574-7.167 1.072-4.99 1.922-10.06 2.948-15.048.04-.18-.231-.265-.271-.085l-.006-.001zM488.401 43.681c.923 5.718 2.256 11.38 3.672 16.949 1.325 5.528 2.609 11.098 4.656 16.384.05.226.363.125.311-.095-1.011-5.578-2.701-11.05-4.162-16.533-1.417-5.568-2.747-11.186-4.39-16.755-.003-.044-.136-.042-.087.05z" fill="#FAFAFA"/><path d="M472.761 34.876l16.129 5.95 27.327-.282 15.627-5.689-3.867-1.635-12.129 4.67-25.208.286-11.661-5.632-6.226 2.337.008-.005z" fill="#DBB100"/><path d="M502.062 113.976l-1.362-.511-.268-13.403 1.362.51.268 13.404z" fill="#FAFAFA"/><path d="M505.437 120.629a1.02 1.02 0 01-1.017 1.06 1.02 1.02 0 01-1.06-1.018c-.014-.589.431-1.089 1.014-1.105.584-.015 1.049.473 1.057 1.061l.006.002zM507.223 128.902a2.676 2.676 0 01-2.609 2.719 2.658 2.658 0 01-2.711-2.609c-.029-1.488 1.118-2.734 2.606-2.762 1.488-.029 2.686 1.164 2.714 2.652z" fill="#D6A722"/><path d="M506.355 128.242a1.809 1.809 0 01-1.765 1.84 1.81 1.81 0 01-1.838-1.77c-.018-.995.779-1.776 1.767-1.796.989-.02 1.82.777 1.836 1.726z" fill="#FCD535"/><path d="M518.368 126.732a2.674 2.674 0 01-2.609 2.718c-1.445.032-2.728-1.117-2.757-2.605-.028-1.489 1.165-2.687 2.653-2.715a2.637 2.637 0 012.712 2.608l.001-.006z" fill="#D6A722"/><path d="M517.723 126.116c.019.994-.779 1.775-1.767 1.795a1.73 1.73 0 01-1.792-1.722c-.019-.995.776-1.821 1.721-1.844.945-.023 1.82.777 1.838 1.771z" fill="#FCD535"/><path d="M495.509 127.2a2.672 2.672 0 01-2.609 2.718 2.66 2.66 0 01-2.711-2.608 2.645 2.645 0 012.609-2.719 2.632 2.632 0 012.711 2.609z" fill="#D6A722"/><path d="M494.326 126.59a1.737 1.737 0 01-1.724 1.799c-.995.025-1.817-.732-1.835-1.726a1.809 1.809 0 011.764-1.84c.988-.02 1.775.779 1.795 1.767z" fill="#FCD535"/><path d="M513.342 118.709a1.05 1.05 0 01-1.018 1.061 1.047 1.047 0 01-1.06-1.018c-.014-.59.432-1.09 1.015-1.105.584-.015 1.049.473 1.057 1.061l.006.001z" fill="#D6A722"/><path d="M512.88 118.266a.595.595 0 01-.574.597.594.594 0 01-.598-.574c-.005-.316.261-.547.577-.553.316-.005.589.213.595.53z" fill="#FCD535"/><path d="M496.692 118.64a1.02 1.02 0 01-1.017 1.061 1.02 1.02 0 01-1.06-1.018 1.019 1.019 0 011.017-1.06 1.018 1.018 0 011.06 1.017zM500.83 120.002a1.046 1.046 0 01-1.018 1.06c-.589.014-1.089-.431-1.105-1.015-.015-.583.473-1.049 1.063-1.063a1.052 1.052 0 011.06 1.018zM509.663 119.916a1.02 1.02 0 01-1.017 1.06 1.019 1.019 0 01-1.06-1.018 1.02 1.02 0 011.017-1.06 1.02 1.02 0 011.06 1.018z" fill="#D6A722"/><path d="M509.206 119.473a.594.594 0 01-.574.598.595.595 0 01-.597-.574c-.006-.317.26-.548.577-.553.316-.006.589.213.594.529zM504.982 120.238c.006.316-.26.547-.576.553-.317.005-.59-.213-.595-.53a.595.595 0 01.574-.597.594.594 0 01.597.574zM500.321 119.649c.006.317-.213.59-.529.595a.596.596 0 01-.598-.574c-.005-.317.261-.548.577-.553a.52.52 0 01.55.532zM496.099 118.25a.596.596 0 01-.575.598.595.595 0 01-.597-.574c-.005-.317.26-.548.577-.553.316-.006.589.213.595.529z" fill="#FCD535"/><path d="M667.035 99.31h-84.056v27.662h84.056l-16.913-13.832 16.913-13.83z" fill="#8E0909"/><mask id="prefix__a" style="mask-type:alpha" maskUnits="userSpaceOnUse" x="582" y="101" width="86" height="24"><path stroke="#fff" stroke-width="2.049" d="M582.979 102.381h84.056M582.979 123.897h84.056"/></mask><g mask="url(#prefix__a)"><path d="M667.035 99.308h-84.056v27.663h84.056l-16.913-13.831 16.913-13.832z" fill="#fff"/></g><path d="M341.062 99.31h84.056v27.662h-84.056l16.914-13.832-16.914-13.83z" fill="#8E0909"/><mask id="prefix__b" style="mask-type:alpha" maskUnits="userSpaceOnUse" x="341" y="101" width="85" height="24"><path stroke="#fff" stroke-width="2.049" d="M425.118 102.384h-84.056"/><path transform="matrix(-1 0 0 1 425.118 124.923)" stroke="#fff" stroke-width="2.049" d="M0-1.024h84.056"/></mask><g mask="url(#prefix__b)"><path d="M341.062 99.31h84.056v27.662h-84.056l16.914-13.832-16.914-13.83z" fill="#fff"/></g><path fill="#BA1919" d="M391.291 85.99h225.516v27.663H391.291z"/><path d="M582.979 113.652h33.828l-33.828 13.319v-13.319zM425.118 113.652h-33.827l33.827 13.319v-13.319z" fill="#6E0A0A"/><path stroke="#fff" stroke-width="2.049" d="M391.291 89.064h225.516M391.291 110.58h225.516"/><path d="M408.46 104.04c-.83 0-1.581-.178-2.256-.535a4.146 4.146 0 01-1.581-1.5c-.38-.643-.569-1.368-.569-2.173 0-.806.189-1.527.569-2.163a4.039 4.039 0 011.581-1.5c.675-.364 1.43-.546 2.267-.546.705 0 1.341.124 1.907.372a3.818 3.818 0 011.441 1.07l-1.209 1.116c-.55-.636-1.232-.953-2.046-.953-.504 0-.953.112-1.348.337a2.345 2.345 0 00-.93.918 2.755 2.755 0 00-.326 1.349c0 .503.109.953.326 1.348.224.395.534.705.93.93.395.217.844.326 1.348.326.814 0 1.496-.322 2.046-.965l1.209 1.116a3.774 3.774 0 01-1.441 1.081c-.574.248-1.213.372-1.918.372zm10.932-1.651v1.511h-6.301v-8.137h6.15v1.511h-4.278v1.767h3.778v1.465h-3.778v1.883h4.429zm6.683 1.511l-1.569-2.267H422.773v2.267h-1.883v-8.137h3.523c.72 0 1.344.12 1.871.36.535.24.946.581 1.233 1.023.286.442.43.965.43 1.57 0 .604-.148 1.127-.442 1.569-.287.434-.698.767-1.232 1l1.825 2.615h-2.023zm-.035-5.184c0-.458-.147-.806-.442-1.047-.294-.248-.724-.372-1.29-.372h-1.535v2.837h1.535c.566 0 .996-.124 1.29-.372.295-.248.442-.597.442-1.046zm4.971-1.419h-2.604v-1.534h7.091v1.534h-2.604v6.603h-1.883v-6.603zm5.5-1.534h1.884v8.137h-1.884v-8.137zm5.698 1.511v2.15h3.767v1.512h-3.767v2.964h-1.883v-8.137h6.15v1.511h-4.267zm5.542-1.511h1.883v8.137h-1.883v-8.137zm7.708 8.277c-.829 0-1.581-.178-2.255-.535a4.146 4.146 0 01-1.581-1.5c-.38-.643-.569-1.368-.569-2.173 0-.806.189-1.527.569-2.163a4.039 4.039 0 011.581-1.5c.674-.364 1.43-.546 2.267-.546.705 0 1.341.124 1.907.372a3.818 3.818 0 011.441 1.07l-1.209 1.116c-.55-.636-1.232-.953-2.046-.953-.504 0-.953.112-1.348.337a2.345 2.345 0 00-.93.918 2.755 2.755 0 00-.326 1.349c0 .503.109.953.326 1.348.224.395.534.705.93.93.395.217.844.326 1.348.326.814 0 1.496-.322 2.046-.965l1.209 1.116a3.774 3.774 0 01-1.441 1.081c-.574.248-1.213.372-1.919.372zm9.832-1.883h-3.778l-.721 1.743h-1.93l3.627-8.137h1.86l3.639 8.137h-1.976l-.721-1.743zm-.593-1.43l-1.29-3.116-1.291 3.116h2.581zm4.134-4.964h3.697c.884 0 1.663.17 2.337.511a3.703 3.703 0 011.581 1.418c.38.613.569 1.326.569 2.14 0 .813-.189 1.526-.569 2.139-.372.612-.899 1.088-1.581 1.429-.674.334-1.453.5-2.337.5h-3.697v-8.137zm3.604 6.591c.814 0 1.461-.225 1.942-.674.488-.457.732-1.074.732-1.849 0-.775-.244-1.387-.732-1.836-.481-.458-1.128-.686-1.942-.686h-1.72v5.045h1.72zm9.942 1.686c-.845 0-1.609-.182-2.291-.547a4.118 4.118 0 01-1.592-1.499 4.173 4.173 0 01-.57-2.162c0-.799.19-1.516.57-2.151a4.09 4.09 0 011.592-1.511c.682-.365 1.446-.547 2.291-.547.844 0 1.604.182 2.278.547a4.1 4.1 0 011.593 1.51c.387.636.581 1.353.581 2.151 0 .799-.194 1.519-.581 2.163a4.128 4.128 0 01-1.593 1.499c-.674.365-1.434.547-2.278.547zm0-1.604c.48 0 .914-.109 1.302-.326.387-.225.689-.535.906-.93.225-.395.338-.845.338-1.349 0-.503-.113-.953-.338-1.348a2.3 2.3 0 00-.906-.918 2.55 2.55 0 00-1.302-.337c-.481 0-.915.112-1.302.337a2.377 2.377 0 00-.919.918 2.755 2.755 0 00-.325 1.349c0 .503.108.953.325 1.348.225.395.531.705.919.93.387.217.821.326 1.302.326zm9.16-6.673h3.696c.884 0 1.663.17 2.337.511a3.703 3.703 0 011.581 1.418c.38.613.57 1.326.57 2.14 0 .813-.19 1.526-.57 2.139-.372.612-.899 1.088-1.581 1.429-.674.334-1.453.5-2.337.5h-3.696v-8.137zm3.603 6.591c.814 0 1.461-.225 1.942-.674.488-.457.732-1.074.732-1.849 0-.775-.244-1.387-.732-1.836-.481-.458-1.128-.686-1.942-.686h-1.72v5.045h1.72zm12.302.035v1.511h-6.301v-8.137h6.15v1.511h-4.278v1.767h3.778v1.465h-3.778v1.883h4.429zm8.313-6.626c.721 0 1.345.12 1.872.36.534.24.945.581 1.232 1.023.287.442.43.965.43 1.57 0 .596-.143 1.12-.43 1.569-.287.442-.698.783-1.232 1.023-.527.232-1.151.349-1.872.349h-1.639v2.243h-1.884v-8.137h3.523zm-.105 4.359c.566 0 .996-.12 1.291-.36.294-.248.441-.597.441-1.046 0-.458-.147-.806-.441-1.047-.295-.248-.725-.372-1.291-.372h-1.534v2.825h1.534zm9.934 2.035h-3.778l-.721 1.743h-1.93l3.627-8.137h1.86l3.639 8.137h-1.976l-.721-1.743zm-.593-1.43l-1.29-3.116-1.291 3.116h2.581zm9.319 3.173l-1.569-2.267H531.009v2.267h-1.883v-8.137h3.523c.72 0 1.344.12 1.871.36.535.24.946.581 1.233 1.023.286.442.43.965.43 1.57 0 .604-.148 1.127-.442 1.569-.287.434-.698.767-1.232 1l1.825 2.615h-2.023zm-.035-5.184c0-.458-.147-.806-.442-1.047-.294-.248-.724-.372-1.29-.372h-1.535v2.837h1.535c.566 0 .996-.124 1.29-.372.295-.248.442-.597.442-1.046zm4.971-1.419h-2.604v-1.534h7.091v1.534h-2.604v6.603h-1.883v-6.603zm5.5-1.534h1.884v8.137h-1.884v-8.137zm7.709 8.277c-.829 0-1.581-.178-2.255-.535a4.146 4.146 0 01-1.581-1.5c-.38-.643-.57-1.368-.57-2.173 0-.806.19-1.527.57-2.163a4.039 4.039 0 011.581-1.5c.674-.364 1.43-.546 2.267-.546.705 0 1.341.124 1.906.372a3.822 3.822 0 011.442 1.07l-1.209 1.116c-.55-.636-1.232-.953-2.046-.953-.504 0-.953.112-1.349.337a2.358 2.358 0 00-.93.918 2.755 2.755 0 00-.325 1.349c0 .503.108.953.325 1.348.225.395.535.705.93.93a2.76 2.76 0 001.349.326c.814 0 1.496-.322 2.046-.965l1.209 1.116a3.777 3.777 0 01-1.442 1.081c-.573.248-1.212.372-1.918.372zm4.632-8.277h1.883v8.137h-1.883v-8.137zm7.337 0c.72 0 1.344.12 1.871.36.535.24.946.581 1.233 1.023.286.442.43.965.43 1.57 0 .596-.144 1.12-.43 1.569-.287.442-.698.783-1.233 1.023-.527.232-1.151.349-1.871.349h-1.64v2.243h-1.883v-8.137h3.523zm-.105 4.359c.566 0 .996-.12 1.29-.36.295-.248.442-.597.442-1.046 0-.458-.147-.806-.442-1.047-.294-.248-.724-.372-1.29-.372h-1.535v2.825h1.535zm9.934 2.035h-3.779l-.72 1.743h-1.93l3.627-8.137h1.86l3.639 8.137h-1.977l-.72-1.743zm-.593-1.43l-1.291-3.116-1.29 3.116h2.581zm7.915 3.313c-.829 0-1.581-.178-2.255-.535a4.132 4.132 0 01-1.581-1.5c-.38-.643-.57-1.368-.57-2.173 0-.806.19-1.527.57-2.163a4.025 4.025 0 011.581-1.5c.674-.364 1.429-.546 2.266-.546.706 0 1.341.124 1.907.372a3.818 3.818 0 011.441 1.07l-1.209 1.116c-.55-.636-1.232-.953-2.046-.953-.503 0-.953.112-1.348.337a2.358 2.358 0 00-.93.918 2.755 2.755 0 00-.326 1.349c0 .503.109.953.326 1.348.225.395.535.705.93.93.395.217.845.326 1.348.326.814 0 1.496-.322 2.046-.965l1.209 1.116a3.774 3.774 0 01-1.441 1.081c-.574.248-1.213.372-1.918.372zm-.628 2.557c-.201 0-.399-.023-.593-.069a1.559 1.559 0 01-.488-.175l.279-.779c.248.117.5.175.756.175.403 0 .604-.124.604-.372 0-.225-.19-.337-.57-.337h-.395l.302-1.233h.965l-.162.675c.341.038.592.143.755.313a.907.907 0 01.256.651c0 .357-.155.636-.465.837-.31.21-.725.314-1.244.314zm10.459-4.44h-3.778l-.72 1.743h-1.93l3.627-8.137h1.86l3.638 8.137h-1.976l-.721-1.743zm-.592-1.43l-1.291-3.116-1.29 3.116h2.581zm-.407-5.592c-.21 0-.396-.039-.558-.116a5.145 5.145 0 01-.523-.337 2.748 2.748 0 00-.314-.21.45.45 0 00-.233-.07.498.498 0 00-.395.175c-.101.108-.155.267-.163.477h-.918c.015-.52.143-.93.383-1.233.248-.31.574-.465.977-.465.201 0 .38.043.535.128.162.078.345.19.546.337.124.093.225.163.302.21a.502.502 0 00.628-.093.691.691 0 00.174-.465h.919c-.016.503-.147.906-.395 1.209a1.17 1.17 0 01-.965.453zm8.368 8.905c-.845 0-1.608-.182-2.29-.547a4.128 4.128 0 01-1.593-1.499 4.182 4.182 0 01-.569-2.162c0-.799.19-1.516.569-2.151a4.1 4.1 0 011.593-1.511c.682-.365 1.445-.547 2.29-.547s1.604.182 2.279.547a4.09 4.09 0 011.592 1.51c.388.636.582 1.353.582 2.151 0 .799-.194 1.519-.582 2.163a4.118 4.118 0 01-1.592 1.499c-.675.365-1.434.547-2.279.547zm0-1.604c.481 0 .915-.109 1.302-.326.388-.225.69-.535.907-.93.225-.395.337-.845.337-1.349 0-.503-.112-.953-.337-1.348a2.295 2.295 0 00-.907-.918 2.544 2.544 0 00-1.302-.337c-.48 0-.914.112-1.302.337a2.38 2.38 0 00-.918.918 2.755 2.755 0 00-.326 1.349c0 .503.109.953.326 1.348.225.395.531.705.918.93.388.217.822.326 1.302.326z" fill="#fff"/><path d="M503.99 218.416l-.039.002.027-.002a.998.998 0 00-.847.522l-4.343 8.474-9.711 1.359c-.446.063-.816.459-.832.893v2.57-.01.04-.01.017c0 .07.016.139.048.202v.001c.044.164.12.321.246.44l6.638 6.231-1.27 7.135a.853.853 0 00-.013.195v-.018 2.506-.019a.482.482 0 000 .076v-.019.027c0 .096.03.189.087.267.083.212.217.404.423.512.279.145.633.147.914.005v-.001l8.686-4.397 8.685 4.397v.001c.281.142.635.14.914-.005.206-.107.34-.3.423-.51a.468.468 0 00.089-.269v-2.59a.928.928 0 00-.014-.158l-1.271-7.135 6.638-6.231v-.001a.915.915 0 00.246-.439.452.452 0 00.048-.203v-.017-.03.01-2.524-.031.011-.009-.017c-.017-.434-.386-.83-.831-.892l-9.711-1.36-4.342-8.474a1 1 0 00-.888-.522z" fill="#9A2201"/><path d="M503.967 221.426a.483.483 0 00-.425.262l-4.456 8.695-9.963 1.394a.497.497 0 00-.244.106.454.454 0 00-.026.696l7.209 6.768-1.702 9.556a.458.458 0 00.194.46.503.503 0 00.515.036l8.91-4.512 8.911 4.512a.508.508 0 00.515-.036.458.458 0 00.194-.46l-1.702-9.556 7.209-6.768a.464.464 0 00.124-.482.47.47 0 00-.15-.214.497.497 0 00-.244-.106l-9.963-1.394-4.455-8.695a.502.502 0 00-.451-.262z" fill="#C95429"/><path d="M519.254 229.681h-2.49v2.59h2.49v-2.59zM491.195 229.681h-2.49v2.59h2.49v-2.59zM495.331 246.438h-.979v2.59h.979v-2.59zM513.607 246.438h-.979v2.59h.979v-2.59z" fill="#C95429"/><path d="M503.967 218.882a.503.503 0 00-.251.074.47.47 0 00-.174.188l-4.456 8.694-9.963 1.395a.497.497 0 00-.244.106.454.454 0 00-.026.696l7.209 6.768-1.702 9.555a.46.46 0 00.194.46.499.499 0 00.515.036l8.91-4.511 8.911 4.511a.499.499 0 00.68-.239.46.46 0 00.029-.257l-1.702-9.555 7.209-6.768a.454.454 0 00-.026-.696.488.488 0 00-.244-.106l-9.963-1.395-4.455-8.694a.502.502 0 00-.451-.262z" fill="#F6A500"/><path d="M503.98 219.353l4.569 8.916 10.216 1.429-7.393 6.941 1.746 9.799-9.138-4.626-9.138 4.626 1.745-9.799-7.393-6.941 10.217-1.429 4.569-8.916z" fill="#FAC51B"/><path d="M503.981 223.055a.477.477 0 00-.431.257l-3.123 6.094-6.984.978a.478.478 0 00-.386.313.454.454 0 00.121.472l5.054 4.744-1.193 6.699a.45.45 0 00.19.45.484.484 0 00.504.035l6.246-3.162 6.246 3.162a.496.496 0 00.504-.035.453.453 0 00.19-.45l-1.193-6.699 5.053-4.744a.445.445 0 00-.025-.681.477.477 0 00-.24-.104l-6.983-.978-3.123-6.094a.472.472 0 00-.176-.187.5.5 0 00-.251-.07z" fill="#FAC51B"/><path d="M503.979 223.516l3.235 6.312 7.232 1.012-5.233 4.913 1.235 6.937-6.469-3.275-6.469 3.275 1.236-6.937-5.233-4.913 7.232-1.012 3.234-6.312z" fill="#F6A500"/><path d="M503.979 223.516l-3.234 6.312-7.232 1.012 2.375 2.23c2.345-.063 7.718.133 13.325 2.683l5.233-4.913-7.232-1.012-3.235-6.312z" fill="#F6AE00"/><path d="M493.513 230.84l.455.465 7.031-.949 2.977-5.77.003-1.07-3.234 6.312-7.232 1.012zM514.447 230.84l-.456.465-7.03-.949-2.978-5.77-.002-1.07 3.234 6.312 7.232 1.012z" fill="#F08700"/><path d="M504.139 231.159c.578 0 1.047-.431 1.047-.962 0-.532-.469-.963-1.047-.963-.579 0-1.048.431-1.048.963 0 .531.469.962 1.048.962zM509.877 233.022c.159-.529-.693-1.19-1.904-1.477-1.211-.287-2.321-.091-2.48.438-.159.53.693 1.191 1.904 1.478 1.21.287 2.321.091 2.48-.439z" fill="#FEEE7B"/><path d="M536.261 212.988a.31.31 0 01-.029.002l.02-.001a.76.76 0 00-.645.398l-3.309 6.456-7.399 1.036c-.339.047-.621.349-.634.68v1.958-.008.031-.008.013c0 .053.013.106.037.154a.7.7 0 00.188.336l5.057 4.748-.968 5.435v.001a.666.666 0 00-.01.148v-.014 1.91-.015a.56.56 0 000 .058v-.014.02a.35.35 0 00.067.204.712.712 0 00.322.389.778.778 0 00.696.004l6.618-3.35 6.618 3.35a.778.778 0 00.696-.004.71.71 0 00.322-.388.352.352 0 00.068-.205v-1.973a.678.678 0 00-.011-.12v-.001l-.968-5.436 5.058-4.747v-.001a.702.702 0 00.187-.335.343.343 0 00.037-.154v-.013-.023.008-1.923-.024.008-.006-.014c-.013-.33-.295-.631-.634-.679l-7.399-1.036-3.308-6.456a.762.762 0 00-.676-.399h-.001z" fill="#9A2201"/><path d="M536.244 215.282a.387.387 0 00-.191.057.365.365 0 00-.133.143l-3.395 6.624-7.59 1.063a.362.362 0 00-.301.244.344.344 0 00.095.367l5.492 5.156-1.297 7.281a.357.357 0 00.148.35.38.38 0 00.392.028l6.789-3.438 6.79 3.438a.383.383 0 00.392-.028.352.352 0 00.148-.35l-1.297-7.281 5.493-5.156a.365.365 0 00.101-.171.344.344 0 00-.007-.196.362.362 0 00-.301-.244l-7.59-1.063-3.395-6.624a.359.359 0 00-.141-.148.386.386 0 00-.202-.052z" fill="#C95429"/><path d="M547.891 221.572h-1.897v1.973h1.897v-1.973zM526.513 221.572h-1.897v1.973h1.897v-1.973zM529.664 234.339h-.745v1.973h.745v-1.973zM543.589 234.339h-.746v1.973h.746v-1.973z" fill="#C95429"/><path d="M536.244 213.344a.368.368 0 00-.324.2l-3.395 6.624-7.59 1.062a.365.365 0 00-.301.244.348.348 0 00.095.368l5.492 5.156-1.297 7.28a.357.357 0 00.148.351.381.381 0 00.392.027l6.789-3.437 6.79 3.437a.383.383 0 00.392-.027.355.355 0 00.148-.351l-1.297-7.28 5.493-5.156a.348.348 0 00-.02-.531.385.385 0 00-.187-.081l-7.59-1.062-3.395-6.624a.376.376 0 00-.343-.2z" fill="#F6A500"/><path d="M536.254 213.703l3.481 6.793 7.784 1.089-5.633 5.288 1.33 7.466-6.962-3.525-6.963 3.525 1.33-7.466-5.633-5.288 7.784-1.089 3.482-6.793z" fill="#FAC51B"/><path d="M536.255 216.524a.364.364 0 00-.329.195l-2.379 4.644-5.321.744a.378.378 0 00-.182.079.343.343 0 00-.02.52l3.85 3.614-.909 5.104a.338.338 0 00.022.191.357.357 0 00.311.218.378.378 0 00.196-.039l4.759-2.41 4.759 2.41a.378.378 0 00.384-.027.357.357 0 00.123-.152.338.338 0 00.022-.191l-.909-5.104 3.85-3.614a.346.346 0 00.092-.36.357.357 0 00-.294-.239l-5.321-.744-2.379-4.644a.367.367 0 00-.325-.195z" fill="#FAC51B"/><path d="M536.253 216.875l2.465 4.808 5.51.771-3.987 3.744.941 5.285-4.929-2.495-4.928 2.495.941-5.285-3.987-3.744 5.51-.771 2.464-4.808z" fill="#F6A500"/><path d="M536.253 216.875l-2.464 4.808-5.51.771 1.81 1.699c1.786-.047 5.88.102 10.152 2.045l3.987-3.744-5.51-.771-2.465-4.808z" fill="#F6AE00"/><path d="M528.279 222.454l.347.355 5.357-.723 2.268-4.396.002-.815-2.464 4.808-5.51.771zM544.229 222.454l-.347.355-5.357-.723-2.268-4.396-.003-.815 2.465 4.808 5.51.771z" fill="#F08700"/><path d="M536.375 222.698c.441 0 .798-.328.798-.733 0-.406-.357-.734-.798-.734-.441 0-.798.328-.798.734 0 .405.357.733.798.733zM540.747 224.118c.121-.404-.528-.908-1.451-1.126-.922-.219-1.768-.069-1.889.334s.528.907 1.45 1.126c.923.218 1.769.069 1.89-.334z" fill="#FEEE7B"/><path d="M471.725 212.988a.319.319 0 01-.03.002l.021-.001a.76.76 0 00-.646.398l-3.308 6.456-7.399 1.036c-.34.047-.622.349-.634.68v1.958-.008.031-.008.013c0 .053.012.106.036.154a.707.707 0 00.188.336l5.058 4.748-.968 5.435v.001a.666.666 0 00-.01.148v-.014 1.91-.015a.281.281 0 000 .058v-.014.02c0 .073.023.144.067.204a.706.706 0 00.321.389.78.78 0 00.697.004l6.617-3.35 6.618 3.35a.78.78 0 00.697-.004.708.708 0 00.321-.388.345.345 0 00.068-.205v-1.973a.678.678 0 00-.011-.12v-.001l-.968-5.436 5.058-4.747v-.001a.702.702 0 00.187-.335.343.343 0 00.037-.154v-.013-.023.008-1.923-.024.008-.006-.014c-.013-.33-.294-.631-.633-.679l-7.399-1.036-3.309-6.456a.762.762 0 00-.676-.399z" fill="#9A2201"/><path d="M471.708 215.282a.387.387 0 00-.191.057.368.368 0 00-.134.143l-3.394 6.624-7.591 1.063a.37.37 0 00-.3.244.35.35 0 00.094.367l5.492 5.156-1.296 7.281a.343.343 0 00.022.195.377.377 0 00.518.183l6.789-3.438 6.789 3.438a.385.385 0 00.392-.028.36.36 0 00.126-.155.343.343 0 00.022-.195l-1.296-7.281 5.492-5.156a.344.344 0 00.094-.367.37.37 0 00-.3-.244l-7.591-1.063-3.394-6.624a.365.365 0 00-.141-.148.386.386 0 00-.202-.052z" fill="#C95429"/><path d="M483.355 221.572h-1.897v1.973h1.897v-1.973zM461.977 221.572h-1.897v1.973h1.897v-1.973zM465.128 234.339h-.746v1.973h.746v-1.973zM479.052 234.339h-.746v1.973h.746v-1.973z" fill="#C95429"/><path d="M471.708 213.344a.37.37 0 00-.325.2l-3.394 6.624-7.591 1.062a.381.381 0 00-.186.081.357.357 0 00-.114.163.35.35 0 00.094.368l5.492 5.156-1.296 7.28a.347.347 0 00.022.196.36.36 0 00.126.155.385.385 0 00.392.027l6.789-3.437 6.789 3.437a.385.385 0 00.392-.027.36.36 0 00.126-.155.347.347 0 00.022-.196l-1.296-7.28 5.492-5.156a.348.348 0 00-.02-.531.381.381 0 00-.186-.081l-7.591-1.062-3.394-6.624a.376.376 0 00-.343-.2z" fill="#F6A500"/><path d="M471.717 213.703l3.481 6.793 7.784 1.089-5.632 5.288 1.33 7.466-6.963-3.525-6.962 3.525 1.33-7.466-5.633-5.288 7.784-1.089 3.481-6.793z" fill="#FAC51B"/><path d="M471.718 216.524a.373.373 0 00-.193.052.357.357 0 00-.135.143l-2.38 4.644-5.32.744a.377.377 0 00-.183.079.35.35 0 00-.119.353.356.356 0 00.1.167l3.85 3.614-.909 5.104a.35.35 0 00.145.343.38.38 0 00.384.027l4.759-2.41 4.759 2.41a.376.376 0 00.383-.027.338.338 0 00.145-.343l-.909-5.104 3.851-3.614a.343.343 0 00-.02-.52.378.378 0 00-.182-.079l-5.321-.744-2.38-4.644a.356.356 0 00-.133-.142.37.37 0 00-.192-.053z" fill="#FAC51B"/><path d="M471.717 216.875l2.464 4.808 5.511.771-3.988 3.744.942 5.285-4.929-2.495-4.929 2.495.942-5.285-3.988-3.744 5.511-.771 2.464-4.808z" fill="#F6A500"/><path d="M471.717 216.875l-2.464 4.808-5.511.771 1.81 1.699c1.787-.047 5.881.102 10.152 2.045l3.988-3.744-5.511-.771-2.464-4.808z" fill="#F6AE00"/><path d="M463.742 222.454l.348.355 5.356-.723 2.269-4.396.002-.815-2.464 4.808-5.511.771zM479.692 222.454l-.347.355-5.356-.723-2.269-4.396-.002-.815 2.464 4.808 5.51.771z" fill="#F08700"/><path d="M471.838 222.698c.441 0 .798-.328.798-.733 0-.406-.357-.734-.798-.734-.441 0-.798.328-.798.734 0 .405.357.733.798.733zM476.21 224.118c.122-.404-.528-.908-1.45-1.126-.923-.219-1.768-.069-1.89.334-.121.403.529.907 1.451 1.126.922.218 1.768.069 1.889-.334z" fill="#FEEE7B"/></svg>