<?xml version="1.0" encoding="utf-8"?>
<!-- Generator: Adobe Illustrator 27.8.1, SVG Export Plug-In . SVG Version: 6.00 Build 0)  -->
<svg version="1.1" id="Layer_1" xmlns="http://www.w3.org/2000/svg" xmlns:xlink="http://www.w3.org/1999/xlink" x="0px" y="0px"
	 viewBox="0 0 860.9 272.78" style="enable-background:new 0 0 860.9 272.78;" xml:space="preserve">
<style type="text/css">
	.st0{fill:#FFFFFF;}
	.st1{fill:#C98274;}
	.st2{fill:#E44748;}
	.st3{fill:#BF8F00;}
	.st4{fill:#DA0001;}
	.st5{fill:none;stroke:#000000;stroke-width:4;stroke-linecap:round;stroke-linejoin:round;stroke-miterlimit:10;}
	.st6{fill:none;stroke:#000000;stroke-miterlimit:10;}
	.st7{fill:url(#SVGID_1_);}
	.st8{fill:#777777;}
	.st9{fill:url(#SVGID_00000080184210334396247750000014170193453540245692_);}
	.st10{fill:url(#SVGID_00000000188910915567604190000010008908079342873736_);}
	
		.st11{fill:url(#SVGID_00000177474044935675924130000000144941905306687650_);stroke:url(#SVGID_00000168092199078552803490000014092588622658294443_);stroke-miterlimit:10;}
	.st12{stroke:url(#SVGID_00000039817677738177292930000003303397459816049812_);stroke-width:0.25;stroke-miterlimit:10;}
	.st13{fill:url(#SVGID_00000135657423923189647610000004603039463732895147_);}
	
		.st14{fill:url(#SVGID_00000104689334554424868430000016560391485123972738_);stroke:url(#SVGID_00000019680631207016461010000010758402332311439250_);stroke-miterlimit:10;}
	.st15{stroke:url(#SVGID_00000067948056009340870520000017134725538648159660_);stroke-width:0.25;stroke-miterlimit:10;}
	.st16{opacity:0.11;}
	.st17{fill:url(#SVGID_00000007413155717654568000000011570275561230128516_);}
</style>
<g>
	<path class="st0" d="M190.34,34.56c-11.28-12.44-25.31-12.46-36.77-2.06c-3.19,2.9-5.61,6.32-7.22,9.98l-0.04,0.06
		c-0.52-0.34-1.04-0.66-1.57-0.99c-1.02-0.63-2.07-1.24-3.12-1.82c0.42-0.42,0.6-0.67,0.6-0.67s-6.8-24.15-33.47-27.55
		c-0.34-1.12-1.89-5.17-6.23-5.17c-4.38,0-5.81,4.07-6.1,5.12c-26.23,3.11-32.58,26.49-32.58,26.49c0.16,0.04,0.33,0.08,0.5,0.11
		c0.04,0.08,0.12,0.22,0.24,0.4c-2.18,1.11-4.3,2.32-6.35,3.62c-1.6-3.52-3.96-6.8-7.04-9.6c-7.29-6.61-15.62-9.01-23.62-6.68
		c-4.58,1.33-9.04,4.21-13.15,8.74c-11.96,13.18-9.94,26.4,1.52,36.8c3.38,3.07,7.25,5.21,11.29,6.43c-0.56,1.26-1.1,2.54-1.6,3.84
		c-0.25,0.65-0.49,1.3-0.73,1.95c-0.94,2.62-1.74,5.3-2.41,8.04c-0.17,0.68-0.32,1.37-0.47,2.06c-0.6,2.76-1.05,5.58-1.36,8.44
		c-0.08,0.72-0.14,1.43-0.2,2.15c-0.17,2.16-0.26,4.35-0.26,6.55l0,0v0c0,11.97,2.09,22.88,6.14,32.46
		c0.31,0.74,0.64,1.47,0.97,2.19c2.01,4.32,4.44,8.36,7.27,12.07c0.47,0.62,0.95,1.23,1.45,1.83c1.98,2.4,4.13,4.66,6.46,6.77
		c4.08,3.69,8.7,6.91,13.83,9.62l-0.03,0.05c0,0-20.96,11.35-26.3,26.49c0,0,0.7,2.67,2.26,5.4l-0.08,0.04
		c0,0-7.98,15.92-7.98,21.73c0,3.63,2.46,7.66,4.04,9.88l-0.38,0.01c0,0,0.15,0.03,0.45,0.08c0.71,1,1.23,1.6,1.23,1.6l0.01-0.11
		c0.2,0.09,7.86,3.39,12.69,0.88l0.02,16.68c0.01,4.38,3.56,7.93,7.95,7.93l96.37-0.12c4.38-0.01,7.93-3.56,7.93-7.95l-0.02-15.61
		c4.32,0.07,8.67-1.81,10.73-7.22c0.8-0.16,1.93-0.46,3.17-1.03c0.14-0.04,0.27-0.07,0.41-0.11l-0.21,0.01
		c1.5-0.73,3.15-1.84,4.52-3.57c3.6-4.56-3.43-23.09-3.43-23.09l-0.08-0.04c1.56-2.73,2.26-5.4,2.26-5.4
		c-5.34-15.14-24.75-24.94-24.75-24.94l-0.27-0.56c24.82-12.11,36.79-35.68,36.79-65.98c0-11.62-2.45-22.68-6.87-32.68l0.19-0.08
		c4.68-1.08,7.97-3.18,11.85-6.7C200.28,60.96,202.3,47.74,190.34,34.56z"/>
	<path class="st0" d="M50.21,272.78c-7.87,0-14.28-6.4-14.29-14.27l-0.01-9.48c-3.13-0.27-5.9-1.13-7.56-1.74
		c-1.37-0.27-2.65-0.99-3.6-2.09c-0.06-0.07-0.25-0.3-0.54-0.65c-1.18-0.84-2.05-2.07-2.44-3.47c-2-3.2-3.91-7.37-3.91-11.6
		c0-5.65,4.6-16.15,7.31-21.83c-0.83-1.97-1.25-3.48-1.31-3.72c-0.33-1.23-0.27-2.53,0.15-3.74c3.68-10.43,13.27-19.02,20.49-24.29
		c-2.2-1.58-4.29-3.26-6.26-5.05c-2.55-2.3-4.94-4.81-7.11-7.45c-0.55-0.66-1.08-1.34-1.6-2.01c-3.09-4.06-5.78-8.51-7.98-13.24
		c-0.36-0.78-0.72-1.58-1.06-2.39c-4.41-10.42-6.64-22.17-6.64-34.94c0-2.35,0.09-4.72,0.28-7.06c0.06-0.78,0.13-1.55,0.22-2.32
		c0.33-3.05,0.82-6.12,1.46-9.11c0.16-0.75,0.33-1.49,0.51-2.22c0.71-2.93,1.59-5.85,2.6-8.68c0.02-0.07,0.05-0.14,0.07-0.2
		c-2.62-1.39-5.07-3.12-7.33-5.17C4.63,69.67,0.61,62.19,0.06,54.45c-0.58-8.2,2.76-16.56,9.65-24.16
		c4.82-5.32,10.24-8.87,16.09-10.57c10.13-2.95,20.66-0.08,29.66,8.08c1.41,1.28,2.71,2.65,3.88,4.1
		c3.31-7.52,12.3-22.34,32.82-26.2C94.2,2.59,97.61,0,102.52,0c4.91,0,8.37,2.64,10.45,5.77c19.57,3.8,28.99,17.47,32.94,25.53
		c1.04-1.23,2.17-2.4,3.38-3.5c14.49-13.15,32.45-12.17,45.75,2.49c0,0,0,0,0,0c6.9,7.6,10.23,15.96,9.65,24.16
		c-0.55,7.74-4.56,15.22-11.61,21.61c-2.28,2.07-4.82,4.13-8.02,5.77c3.27,9.28,4.93,19,4.93,28.99c0,16.42-3.32,30.84-9.86,42.85
		c-5.2,9.55-12.35,17.44-21.32,23.53c6.74,4.87,15.44,12.78,19.04,22.98c0.42,1.2,0.48,2.5,0.15,3.73
		c-0.07,0.25-0.53,1.95-1.48,4.12c0.67,1.97,1.59,4.87,2.38,7.98c2.33,9.29,2.08,15.07-0.81,18.74c-1.49,1.88-3.3,3.44-5.4,4.65
		c-0.64,0.5-1.38,0.88-2.21,1.1c-0.26,0.11-0.53,0.22-0.8,0.32c-2.08,3.47-5.14,5.97-8.84,7.26l0.01,10.26
		c0.01,7.88-6.39,14.3-14.28,14.31l-96.37,0.12C50.23,272.78,50.22,272.78,50.21,272.78z M42.26,235.46c1.14,0,2.28,0.31,3.29,0.92
		c1.9,1.15,3.06,3.21,3.06,5.43l0.02,16.69c0,0.87,0.71,1.58,1.58,1.58c0,0,0,0,0,0l96.37-0.12c0.87,0,1.58-0.71,1.58-1.59
		l-0.02-15.61c0-1.7,0.68-3.34,1.89-4.53c1.21-1.2,2.84-1.86,4.56-1.83c3.06,0.03,4.1-1.55,4.7-3.13c0.78-2.04,2.55-3.54,4.7-3.97
		c0.4-0.08,1.03-0.24,1.71-0.55c0.05-0.02,0.09-0.05,0.14-0.07c0.77-0.37,1.4-0.82,1.93-1.38c0.35-2.52-1.35-10.03-3.76-16.6
		c-0.21-0.39-0.38-0.8-0.5-1.23c-0.48-1.65-0.27-3.43,0.58-4.92c0.41-0.72,0.74-1.44,1-2.06c-5.36-11.47-20.67-19.37-20.84-19.46
		c-1.24-0.63-2.24-1.65-2.85-2.9l-0.27-0.56c-1.53-3.15-0.22-6.94,2.93-8.48c15.16-7.4,33.22-23.85,33.22-60.27
		c0-10.48-2.13-20.62-6.33-30.11c-1.42-3.21,0.03-6.96,3.24-8.38l0.19-0.08c0.37-0.16,0.75-0.29,1.14-0.38
		c3.24-0.75,5.6-2.11,9.01-5.21c9.58-8.69,9.95-18.06,1.09-27.82c-8.61-9.49-18.48-10.07-27.8-1.62c-2.46,2.23-4.37,4.87-5.67,7.83
		c-0.13,0.3-0.29,0.6-0.47,0.87l-0.04,0.06c-0.92,1.43-2.36,2.43-4.02,2.78c-1.66,0.35-3.39,0.03-4.81-0.9
		c-0.47-0.31-0.95-0.6-1.43-0.9c-0.98-0.6-1.92-1.15-2.83-1.65c-1.75-0.96-2.95-2.68-3.23-4.66c-0.09-0.65-0.09-1.3,0.02-1.93
		c-2.17-5.23-9.41-18.61-27.4-20.9c-2.48-0.32-4.54-2.06-5.27-4.45c-0.03-0.09-0.06-0.18-0.11-0.27c-0.01,0.03-0.02,0.06-0.03,0.09
		c-0.7,2.47-2.82,4.28-5.37,4.58c-17.14,2.03-24.13,14.34-26.34,19.54c0.17,0.92,0.14,1.87-0.11,2.78
		c-0.46,1.74-1.64,3.21-3.24,4.03c-2.01,1.03-3.98,2.15-5.85,3.33c-1.55,0.98-3.45,1.24-5.21,0.72c-1.76-0.53-3.21-1.79-3.97-3.46
		c-1.28-2.82-3.14-5.35-5.53-7.52c-3.96-3.59-10.22-7.43-17.57-5.29c-3.57,1.04-7.01,3.36-10.23,6.91
		c-8.86,9.77-8.5,19.13,1.09,27.82c2.6,2.36,5.58,4.06,8.86,5.05c1.75,0.53,3.18,1.78,3.94,3.44c0.76,1.66,0.76,3.57,0.02,5.24
		c-0.52,1.16-1.02,2.35-1.47,3.53c-0.23,0.6-0.45,1.2-0.67,1.8c-0.86,2.42-1.61,4.91-2.22,7.41c-0.15,0.63-0.3,1.26-0.44,1.9
		c-0.55,2.55-0.97,5.17-1.25,7.77c-0.07,0.66-0.13,1.32-0.19,1.99c-0.16,2-0.24,4.03-0.24,6.04c0,11.06,1.9,21.14,5.64,29.98
		c0.28,0.67,0.58,1.34,0.88,1.98c1.81,3.9,4.02,7.57,6.56,10.9c0.42,0.55,0.86,1.1,1.3,1.65c1.78,2.16,3.73,4.21,5.82,6.1
		c3.7,3.35,7.92,6.28,12.54,8.72c3.05,1.61,4.26,5.35,2.73,8.44L62,178.63c-0.58,1.18-1.52,2.14-2.67,2.77
		c-4.91,2.67-17.91,11.38-22.54,21.1c0.25,0.62,0.59,1.34,0.99,2.05c0.85,1.5,1.06,3.28,0.58,4.93c-0.18,0.62-0.46,1.21-0.81,1.74
		c-3.76,7.61-6.99,16.02-6.99,18.25c0,1.07,0.87,3.37,2.81,6.11c2.23,0.73,4.94,1.12,5.95,0.6
		C40.25,235.7,41.25,235.46,42.26,235.46z"/>
</g>
<path class="st1" d="M181.73,42.45c7.77,8.56,6.46,17.15-0.99,23.9c-2.45,2.22-5.3,3.7-8.25,4.42l-0.12,0.07
	c-5.01-8.68-11.59-16.34-19.35-22.62l0.33-0.41c1.03-2.65,2.2-4.63,4.49-6.7C165.29,34.36,174.39,34.37,181.73,42.45z"/>
<path class="st1" d="M50.48,47.37l0.2,0.24c-8.01,6.33-14.8,14.13-19.96,22.99c-2.72-0.77-5.34-2.19-7.61-4.25
	c-7.45-6.76-8.76-15.34-0.99-23.9c7.33-8.08,16.44-8.09,23.89-1.34C48.22,43.12,49.44,44.83,50.48,47.37z"/>
<path d="M115.5,128.07c0,2.51-5.98,10.6-13.36,10.6c-7.38,0-13.36-8.09-13.36-10.6c0-2.51,5.98-4.54,13.36-4.54
	C109.52,123.52,115.5,125.56,115.5,128.07z"/>
<path class="st2" d="M122.48,150.08l0.14,0.61c0,0-8.02,12.02-21.38,11.58s-22.76-12.84-22.76-12.84l0.06-0.2
	C86.85,151.76,102.39,154.67,122.48,150.08z"/>
<path class="st3" d="M169.23,208.23c0,0,7.03,18.53,3.43,23.09c-1.43,1.81-3.16,2.95-4.72,3.67c-4.19,1.1-8.37,2.08-12.55,2.95
	l-0.04-0.19c4.28-3.85,0.34-23.87,0.02-25.48l2.24,2.99l6.23-1.78c2.34-0.98,4.09-3.15,5.31-5.29L169.23,208.23z"/>
<path class="st3" d="M46.07,242.43L46.07,242.43c-9.97-1.06-16.49-2.19-18.2-2.5c-1.58-2.2-4.11-6.3-4.11-9.98
	c0-5.81,7.98-21.73,7.98-21.73l0.08-0.04c1.22,2.14,2.97,4.32,5.31,5.29l6.23,1.78l2.35-3.14l0.24,0.18
	C45.76,212.74,37.08,233.85,46.07,242.43z"/>
<path class="st4" d="M147.43,194.97C147.44,194.97,147.43,194.97,147.43,194.97c-2.62-4.1-8.12-11.53-14.07-12.72
	c4.68-1.34,9.03-3,13.03-4.96l0.27,0.56c0,0,19.4,9.8,24.75,24.94c0,0-0.7,2.67-2.26,5.4c-1.22,2.14-2.97,4.32-5.31,5.29l-6.23,1.78
	l-2.24-2.99l-4.44-5.92C150.93,206.36,149.36,199.83,147.43,194.97z"/>
<path class="st4" d="M50.03,206.36l-4.33,5.77l-2.35,3.14l-6.23-1.78c-2.34-0.98-4.09-3.15-5.31-5.29c-1.56-2.73-2.26-5.4-2.26-5.4
	c5.34-15.14,26.3-26.49,26.3-26.49l0.03-0.05c4.48,2.37,9.36,4.35,14.62,5.91l-0.05,0.33c-15.44,8.86-17.07,12.96-17.07,12.96
	l-0.02-0.01C51.5,200.23,50.03,206.36,50.03,206.36z"/>
<path class="st3" d="M189.88,35.05c11.96,13.18,9.94,26.4-1.52,36.8c-3.88,3.52-7.17,5.62-11.85,6.7l-0.19,0.08
	c-1.18-2.67-2.5-5.27-3.95-7.78l0.12-0.07c2.95-0.73,5.8-2.2,8.25-4.42c7.45-6.76,8.76-15.34,0.99-23.9
	c-7.33-8.08-16.44-8.09-23.89-1.34c-2.29,2.08-3.46,4.05-4.49,6.7l-0.33,0.41c-2.29-1.86-4.68-3.59-7.17-5.19l0.04-0.06
	c1.61-3.66,4.03-7.08,7.22-9.98C164.57,22.59,178.6,22.61,189.88,35.05z"/>
<path class="st3" d="M57.78,42.59c2.06-1.3,4.18-2.51,6.35-3.62c1.51,2.29,9.34,11.6,37.23,11.83c6.17,0.05,11.47-0.34,16-1.01
	c-0.04,0.08-0.06,0.16-0.08,0.25c-0.45,2.23,4.9,2.23,1.34,5.34c-3.56,3.12-13.36-2.67-15.14-1.34c-1.78,1.34,2.23,2.67-0.45,4.9
	c-1.51,1.26-5.61-1.2-8.87-3.57l-0.48,0.45c5.34,10.24,16.92,5.34,16.92,5.34c3.12,1.34,8.02-0.89,12.47-2.67s2.67-7.57,2.67-7.57
	c6.68-0.45,18.34-8.55,18.34-8.55l0.2-0.33c0.53,0.33,1.05,0.65,1.57,0.99c2.48,1.6,4.88,3.33,7.17,5.19
	c7.76,6.28,14.34,13.95,19.35,22.62c1.45,2.51,2.77,5.11,3.95,7.78c4.42,10,6.87,21.06,6.87,32.68c0,30.3-11.97,53.87-36.79,65.98
	c-4.01,1.96-8.35,3.62-13.03,4.96c-1.47,0.42-2.96,0.81-4.49,1.16c-8.18,1.91-17.31,2.9-27.4,2.9c-9.32,0-17.91-0.95-25.74-2.78
	c-0.58-0.49-0.87-0.78-0.87-0.78c-5.05-2.22-9.9-4.91-14.4-8.12c-4.04-2.88-7.78-6.18-11.12-9.84c-3.1-3.41-5.86-7.13-8.23-11.08
	c-2.26-3.77-4.16-7.74-5.73-11.84c-1.51-3.94-2.71-8-3.63-12.12c-0.88-3.93-1.51-7.91-1.91-11.92c-0.38-3.73-0.57-7.48-0.59-11.23
	c-0.02-3.36,0.1-6.71,0.34-10.06c0.2-2.81,0.49-5.62,0.87-8.41c0.14-1.04,0.3-2.08,0.46-3.12c0.07-0.46,0.15-0.92,0.23-1.38
	c0.19-1.09-0.09-2.06-0.77-2.96c-0.35-0.47-0.78-0.87-1.09-1.36c-0.87-1.34-0.71-2.94-0.58-4.45c0.12-1.5,1.25-2.96,2-4.25
	c5.15-8.86,11.94-16.66,19.96-22.99c2.12-1.68,4.33-3.26,6.62-4.72C57.46,42.79,57.62,42.69,57.78,42.59z M78.55,149.23l-0.06,0.2
	c0,0,9.4,12.4,22.76,12.84s21.38-11.58,21.38-11.58l-0.14-0.61C102.39,154.67,86.85,151.76,78.55,149.23z M151.57,111.72
	c0-4.3-3.49-7.79-7.79-7.79s-7.79,3.49-7.79,7.79s3.49,7.79,7.79,7.79S151.57,116.03,151.57,111.72z M102.14,138.67
	c7.38,0,13.36-8.09,13.36-10.6c0-2.51-5.98-4.54-13.36-4.54c-7.38,0-13.36,2.04-13.36,4.54C88.78,130.57,94.76,138.67,102.14,138.67
	z M97.46,118.4c2.67,0,8.91-0.89,8.46-3.56s-7.57-0.45-7.57-0.45s-3.56-1.78-4.9,0C92.12,116.18,94.79,118.4,97.46,118.4z
	 M102.14,152.03c2.67,0.89,1.29-13.29,1.29-13.29l-2.63,0.41C100.8,139.14,99.47,151.14,102.14,152.03z M68.74,111.72
	c0-4.3-3.49-7.79-7.79-7.79s-7.79,3.49-7.79,7.79s3.49,7.79,7.79,7.79S68.74,116.03,68.74,111.72z"/>
<circle cx="143.78" cy="111.72" r="7.79"/>
<path class="st3" d="M144.28,42.05l-0.2,0.33c0,0-11.66,8.11-18.34,8.55c0,0,1.78,5.79-2.67,7.57s-9.35,4.01-12.47,2.67
	c0,0-11.58,4.9-16.92-5.34l0.48-0.45c3.26,2.37,7.36,4.83,8.87,3.57c2.67-2.23-1.34-3.56,0.45-4.9c1.78-1.34,11.58,4.45,15.14,1.34
	c3.56-3.12-1.78-3.12-1.34-5.34c0.02-0.08,0.04-0.17,0.08-0.25c15.4-2.26,21.94-7.67,23.81-9.57
	C142.22,40.81,143.26,41.42,144.28,42.05z"/>
<path class="st4" d="M141.76,39.56L141.76,39.56c-29.56-2.96-55.52-3.05-77.93-1.1c0,0,0.02,0.04,0.06,0.11
	c-0.17-0.04-0.34-0.07-0.5-0.11c0,0,6.34-23.38,32.58-26.49c-0.04,0.16-0.06,0.24-0.06,0.24c3.54,0.97,7.79,1.31,12.47,0.09
	c0,0-0.03-0.11-0.08-0.29C134.97,15.41,141.76,39.56,141.76,39.56z"/>
<path class="st0" d="M141.76,39.56L141.76,39.56c0,0-0.18,0.24-0.6,0.67c-0.24-0.14-0.49-0.28-0.74-0.41
	C140.87,39.74,141.31,39.65,141.76,39.56z"/>
<path class="st4" d="M140.42,39.82c-28.39,5.52-54.18,3.71-75.82-1.1c-0.24-0.05-0.48-0.1-0.71-0.16c-0.04-0.07-0.06-0.11-0.06-0.11
	c22.41-1.96,48.37-1.86,77.92,1.1C141.31,39.65,140.87,39.74,140.42,39.82z"/>
<path class="st4" d="M117.35,49.8c-4.53,0.67-9.83,1.06-16,1.01c-27.88-0.24-35.72-9.54-37.23-11.83c0.16-0.08,0.31-0.16,0.47-0.24
	c21.64,4.81,47.42,6.62,75.82,1.1c0.25,0.13,0.49,0.27,0.74,0.41C139.29,42.12,132.75,47.54,117.35,49.8z"/>
<path class="st2" d="M128.87,183.41l0.04,0.17c0,0-8.29,8.74-29.22,8.3c-13.11-0.28-21.38-6.19-23.96-8.35
	c7.83,1.83,16.42,2.78,25.74,2.78C111.57,186.32,120.69,185.32,128.87,183.41z"/>
<path class="st4" d="M108.29,12.01c0.05,0.18,0.08,0.29,0.08,0.29c-4.68,1.22-8.93,0.88-12.47-0.09c0,0,0.02-0.09,0.06-0.24
	c2.01-0.24,4.14-0.36,6.39-0.34C104.44,11.64,106.42,11.77,108.29,12.01z"/>
<path class="st4" d="M102.07,6.85c4.33,0,5.88,4.04,6.23,5.17c-1.87-0.24-3.85-0.37-5.93-0.39c-2.25-0.02-4.38,0.1-6.39,0.34
	C96.26,10.92,97.68,6.85,102.07,6.85z"/>
<path class="st3" d="M105.92,114.84c0.45,2.67-5.79,3.56-8.46,3.56s-5.34-2.23-4.01-4.01c1.34-1.78,4.9,0,4.9,0
	S105.48,112.17,105.92,114.84z"/>
<path d="M103.43,138.74c0,0,1.38,14.18-1.29,13.29c-2.67-0.89-1.34-12.88-1.34-12.88L103.43,138.74z"/>
<path class="st3" d="M74.86,182.76C19.74,158.57,28.65,95.91,31.7,80.77c-0.47-0.22-0.9-0.53-1.27-0.92
	c-0.01-0.01-0.03-0.03-0.04-0.04c0,0-0.01,0-0.01-0.01c-0.01-0.01-0.02-0.02-0.03-0.03c-0.16-0.15-0.3-0.32-0.43-0.49
	c-0.02-0.02-0.04-0.05-0.05-0.07c-0.07-0.09-0.13-0.18-0.19-0.28c-0.32-0.48-0.57-1-0.73-1.57c-0.01-0.09-0.02-0.17-0.04-0.26
	c-0.06-0.25-0.09-0.52-0.11-0.79c-0.02-0.14-0.04-0.28-0.06-0.43c-0.01-0.18,0-0.35,0.01-0.53c-0.16-0.1-0.31-0.19-0.47-0.29
	c-0.53,1.06-1.04,2.13-1.52,3.22c-4.52,10.1-7.03,21.27-7.03,33.04c0,29.46,12.65,52.54,36.13,64.94c4.48,2.37,9.36,4.35,14.62,5.91
	c1.71,0.5,3.45,0.97,5.24,1.38C75.15,183.05,74.86,182.76,74.86,182.76z"/>
<circle cx="60.94" cy="111.72" r="7.79"/>
<path class="st0" d="M63.89,38.57c0.24,0.06,0.47,0.11,0.71,0.16c-0.16,0.08-0.32,0.16-0.47,0.24
	C64.02,38.79,63.94,38.65,63.89,38.57z"/>
<path class="st3" d="M57.78,42.59c-0.16,0.1-0.32,0.2-0.48,0.3c-2.29,1.47-4.5,3.04-6.62,4.72l-0.2-0.24
	c-1.04-2.55-2.26-4.25-4.47-6.26c-7.45-6.76-16.56-6.75-23.89,1.34c-7.77,8.56-6.46,17.15,0.99,23.9c2.27,2.07,4.89,3.48,7.61,4.25
	c-0.86,1.46-1.66,2.94-2.41,4.45c-12.79-8.14-13.9-16.99-13.9-16.99C10.62,37.8,27.14,26.38,27.14,26.38l-0.02-0.08
	c8-2.33,16.33,0.07,23.62,6.68C53.82,35.79,56.18,39.07,57.78,42.59z"/>
<path class="st3" d="M28.31,75.05c-0.53,1.06-1.04,2.13-1.52,3.22c-4.04-1.22-7.91-3.36-11.29-6.43
	c-11.46-10.4-13.48-23.62-1.52-36.8c4.11-4.53,8.58-7.41,13.16-8.74l0.02,0.08c0,0-16.52,11.41-12.74,31.68
	C14.41,58.06,15.52,66.91,28.31,75.05z"/>
<g>
	<path d="M101.95,61.03c-2.03,0-4.88-1.38-8.82-4.25c-2.53-1.84-5.41-4.46-5.53-4.57c-0.71-0.65-0.76-1.74-0.11-2.45
		c0.64-0.71,1.74-0.76,2.45-0.11c0.03,0.03,2.86,2.6,5.23,4.33c4.86,3.53,6.52,3.6,6.81,3.58c0.13-0.11,0.2-0.2,0.24-0.25
		c-0.05-0.13-0.18-0.35-0.28-0.51c-1.03-1.73-0.87-3.12,0.49-4.14c1.42-1.06,3.49-0.43,6.63,0.52c2.79,0.85,7,2.13,8.41,0.89
		c0.12-0.1,0.21-0.19,0.3-0.27c-0.01,0-0.02-0.01-0.02-0.01c-0.84-0.5-2.59-1.53-2.17-3.65c0.19-0.94,1.1-1.55,2.04-1.36
		c0.83,0.17,1.4,0.9,1.39,1.71c0.14,0.1,0.35,0.22,0.5,0.31c0.77,0.45,1.93,1.14,2.06,2.56c0.13,1.44-0.97,2.58-1.81,3.32
		c-2.86,2.5-7.76,1.01-11.7-0.19c-0.87-0.26-1.93-0.59-2.75-0.78c0.5,1.08,0.9,2.83-1.17,4.55
		C103.54,60.78,102.82,61.03,101.95,61.03z"/>
</g>
<g>
	<path d="M102.46,51.96c-0.37,0-0.74,0-1.11,0c-28.02-0.24-36.31-9.51-38.18-12.35c-0.15-0.22-0.24-0.39-0.3-0.5
		c-0.3-0.56-0.08-1.26,0.48-1.56c0.57-0.3,1.26-0.08,1.56,0.48c0.03,0.07,0.1,0.17,0.19,0.31c1.21,1.84,8.69,11.07,36.27,11.31
		c5.7,0.05,11.01-0.29,15.82-0.99c15.22-2.23,21.57-7.63,23.15-9.23c0.34-0.35,0.5-0.55,0.5-0.55c0.39-0.51,1.11-0.61,1.62-0.23
		c0.51,0.38,0.61,1.1,0.23,1.61c-0.04,0.05-0.25,0.33-0.71,0.79c-2.19,2.22-8.96,7.62-24.46,9.9
		C112.91,51.62,107.85,51.96,102.46,51.96z"/>
</g>
<g>
	<path d="M108.29,13.17c-0.49,0-0.95-0.32-1.1-0.82c-0.31-1.02-1.6-4.35-5.12-4.35c-3.51,0-4.71,3.27-4.99,4.28
		c-0.17,0.61-0.81,0.97-1.43,0.8c-0.61-0.17-0.97-0.81-0.8-1.43c0.81-2.88,3.13-5.96,7.21-5.96c4.06,0,6.45,3.09,7.33,5.98
		c0.19,0.61-0.16,1.26-0.77,1.44C108.52,13.15,108.4,13.17,108.29,13.17z"/>
</g>
<g>
	<path d="M105.23,44.38c-13.63,0-27.29-1.51-40.87-4.52c-0.24-0.05-0.49-0.1-0.74-0.17c-0.14-0.03-0.32-0.07-0.5-0.11
		c-0.3-0.07-0.56-0.27-0.72-0.53c-0.16-0.27-0.2-0.59-0.12-0.89c0.07-0.24,6.85-24.17,33.56-27.34c2.1-0.25,4.29-0.37,6.54-0.35
		c2.09,0.02,4.13,0.15,6.07,0.4c27.12,3.45,34.37,28.13,34.44,28.38c0.1,0.35,0.03,0.72-0.19,1.01c-0.18,0.24-0.45,0.4-0.74,0.44
		c-0.44,0.09-0.87,0.17-1.31,0.26C128.91,43.24,117.08,44.38,105.23,44.38z M64.87,37.61c25.09,5.57,50.42,5.93,75.33,1.09
		c0.01,0,0.03-0.01,0.04-0.01c-1.79-4.82-9.9-22.7-32.1-25.52c-1.85-0.24-3.79-0.37-5.8-0.38c-2.14-0.02-4.25,0.1-6.25,0.33
		C73.98,15.74,66.51,32.91,64.87,37.61z"/>
</g>
<path class="st5" d="M65.29,38.39c-0.23,0.11-0.46,0.23-0.69,0.34c-0.16,0.08-0.32,0.16-0.47,0.24c-2.18,1.11-4.3,2.32-6.35,3.62
	c-0.16,0.1-0.32,0.2-0.48,0.3"/>
<g>
	<path d="M101.47,187.47c-9.26,0-18.01-0.95-26-2.81c-1.75-0.41-3.53-0.88-5.3-1.4c-5.28-1.57-10.27-3.58-14.83-5.99
		c-23.69-12.51-36.74-35.93-36.74-65.96c0-11.67,2.4-22.94,7.13-33.51c0.49-1.1,1.01-2.19,1.54-3.26c0.78-1.56,1.61-3.08,2.45-4.52
		c5.23-8.98,12.03-16.83,20.24-23.31c2.15-1.7,4.41-3.31,6.72-4.79c0.54-0.34,1.25-0.19,1.6,0.35c0.34,0.54,0.19,1.25-0.35,1.6
		c-2.24,1.44-4.44,3-6.53,4.66c-7.97,6.3-14.59,13.93-19.67,22.66c-0.82,1.4-1.62,2.87-2.38,4.39c-0.52,1.04-1.02,2.11-1.5,3.17
		c-4.6,10.27-6.93,21.23-6.93,32.57c0,29.13,12.61,51.83,35.51,63.92c4.42,2.34,9.27,4.3,14.4,5.82c1.72,0.51,3.46,0.97,5.17,1.36
		c7.82,1.82,16.39,2.75,25.48,2.75c9.83,0,18.96-0.97,27.14-2.87c1.5-0.35,2.99-0.73,4.44-1.15c4.57-1.31,8.89-2.95,12.84-4.88
		c23.64-11.54,36.14-33.99,36.14-64.94c0-11.21-2.28-22.05-6.77-32.22c-1.15-2.61-2.46-5.19-3.89-7.67
		c-4.95-8.56-11.36-16.06-19.08-22.3c-2.25-1.83-4.63-3.55-7.06-5.11c-0.51-0.34-1.03-0.66-1.54-0.97
		c-1.06-0.65-2.09-1.25-3.08-1.79c-0.24-0.14-0.48-0.27-0.71-0.39c-0.03-0.02-0.06-0.03-0.09-0.05c-0.01,0-0.08-0.04-0.09-0.05
		c-0.56-0.31-0.76-1.01-0.45-1.57c0.31-0.56,1.01-0.76,1.57-0.45c0.06,0.03,0.12,0.06,0.16,0.09c0.25,0.13,0.49,0.27,0.74,0.41
		c1,0.55,2.07,1.17,3.16,1.84c0.54,0.34,1.07,0.66,1.6,1.01c2.5,1.61,4.94,3.38,7.26,5.26c7.93,6.42,14.53,14.14,19.62,22.94
		c1.48,2.56,2.83,5.22,4.01,7.9c4.62,10.46,6.97,21.61,6.97,33.15c0,31.89-12.95,55.07-37.44,67.02c-4.08,1.99-8.53,3.68-13.22,5.03
		c-1.48,0.42-3.01,0.82-4.55,1.18C120.78,186.48,111.47,187.47,101.47,187.47z"/>
</g>
<path class="st5" d="M57.9,42.84c-0.04-0.08-0.08-0.17-0.12-0.25c-1.6-3.52-3.96-6.8-7.04-9.6c-7.29-6.61-15.62-9.01-23.62-6.68
	c-4.58,1.33-9.04,4.21-13.16,8.74c-11.96,13.18-9.94,26.4,1.52,36.8c3.38,3.07,7.25,5.21,11.29,6.43h0"/>
<g>
	<path d="M30.72,71.76c-0.1,0-0.21-0.01-0.32-0.04c-2.97-0.85-5.76-2.4-8.07-4.51c-4-3.63-6.27-7.79-6.57-12.05
		c-0.32-4.57,1.53-9.1,5.51-13.49c7.54-8.31,17.32-8.85,25.52-1.42c2.32,2.11,3.66,3.98,4.76,6.68c0.24,0.59-0.04,1.27-0.63,1.51
		c-0.59,0.24-1.27-0.04-1.51-0.63c-0.97-2.37-2.1-3.96-4.18-5.84c-7.25-6.58-15.57-6.11-22.25,1.26c-3.54,3.9-5.19,7.86-4.92,11.77
		c0.26,3.7,2.22,7.23,5.82,10.5c2.05,1.87,4.52,3.25,7.15,4c0.61,0.17,0.97,0.81,0.79,1.43C31.69,71.43,31.22,71.76,30.72,71.76z"/>
</g>
<path class="st5" d="M145.89,42.97c1.61-3.66,4.03-7.08,7.22-9.98c11.46-10.4,25.49-10.38,36.77,2.06
	c11.96,13.18,9.94,26.4-1.52,36.8c-3.88,3.52-7.17,5.62-11.85,6.7"/>
<g>
	<path d="M172.49,71.93c-0.52,0-0.99-0.35-1.12-0.88c-0.15-0.62,0.23-1.25,0.85-1.4c2.84-0.7,5.52-2.14,7.75-4.16
		c3.6-3.27,5.56-6.8,5.83-10.5c0.28-3.91-1.38-7.87-4.91-11.77c-6.68-7.37-15-7.84-22.26-1.26c-2.25,2.04-3.27,3.91-4.19,6.27
		c-0.23,0.59-0.9,0.89-1.5,0.66c-0.59-0.23-0.89-0.9-0.66-1.5c1.01-2.59,2.21-4.8,4.79-7.14c8.2-7.44,17.98-6.9,25.52,1.42
		c3.98,4.38,5.83,8.92,5.51,13.48c-0.3,4.25-2.58,8.42-6.58,12.05c-2.51,2.28-5.53,3.9-8.75,4.69
		C172.67,71.92,172.58,71.93,172.49,71.93z"/>
</g>
<g>
	<path d="M54.04,91.86c-0.29,0-0.58-0.07-0.85-0.22c-0.83-0.47-1.13-1.53-0.66-2.36c1.65-2.93,6.83-7.6,14.65-4.31
		c0.88,0.37,1.3,1.39,0.92,2.27c-0.37,0.88-1.39,1.29-2.27,0.92c-6.96-2.93-10.15,2.58-10.29,2.81
		C55.23,91.54,54.65,91.86,54.04,91.86z"/>
</g>
<g>
	<path d="M150.68,91.86c-0.6,0-1.19-0.32-1.51-0.88c-0.35-0.6-3.53-5.67-10.29-2.82c-0.88,0.37-1.9-0.04-2.27-0.92
		c-0.37-0.88,0.04-1.9,0.92-2.27c7.82-3.29,13,1.38,14.65,4.31c0.47,0.83,0.17,1.89-0.66,2.36
		C151.26,91.79,150.97,91.86,150.68,91.86z"/>
</g>
<g>
	<path d="M102.14,140.4c-8.4,0-15.09-8.86-15.09-12.33c0-4.31,7.82-6.28,15.09-6.28s15.09,1.96,15.09,6.28
		C117.23,131.54,110.54,140.4,102.14,140.4z M90.51,128.09c0.09,1.47,5.15,8.85,11.63,8.85c6.51,0,11.58-7.44,11.63-8.87
		c-0.23-0.75-4.16-2.81-11.63-2.81C94.71,125.26,90.79,127.29,90.51,128.09z"/>
</g>
<g>
	<path d="M101.59,154.21c-10.53,0-18.68-1.84-23.55-3.32c-4.44-1.35-6.89-2.61-6.99-2.67c-0.85-0.44-1.18-1.49-0.74-2.34
		c0.44-0.85,1.49-1.18,2.34-0.74c0.07,0.03,2.34,1.19,6.41,2.43c7.45,2.28,22.95,5.41,43.04,0.81c2.97-0.68,5.97-1.51,8.9-2.46
		c0.91-0.29,1.89,0.2,2.18,1.11s-0.2,1.89-1.11,2.18c-3.03,0.99-6.13,1.84-9.2,2.54C115.05,153.55,107.89,154.21,101.59,154.21z"/>
</g>
<g>
	<path d="M72.3,151.98c-0.66,0-1.3-0.38-1.58-1.03c-1.83-4.12,0.09-7.21,1.36-8.27c0.74-0.61,1.83-0.51,2.44,0.22
		c0.61,0.73,0.52,1.81-0.2,2.42c-0.18,0.17-1.61,1.58-0.44,4.22c0.39,0.87-0.01,1.9-0.88,2.29
		C72.77,151.93,72.54,151.98,72.3,151.98z"/>
</g>
<g>
	<path d="M132.25,151.98c-0.24,0-0.47-0.05-0.7-0.15c-0.87-0.39-1.27-1.41-0.88-2.29c1.24-2.78-0.4-4.18-0.41-4.2
		c-0.74-0.61-0.83-1.71-0.22-2.44c0.61-0.73,1.7-0.84,2.44-0.22c1.27,1.06,3.19,4.15,1.36,8.27
		C133.55,151.59,132.91,151.98,132.25,151.98z"/>
</g>
<g>
	<path d="M101.98,164.01c-0.26,0-0.53,0-0.79-0.01c-14.02-0.47-23.68-13-24.08-13.53c-0.58-0.76-0.43-1.85,0.33-2.43
		c0.76-0.58,1.85-0.43,2.43,0.33c0.1,0.14,9.09,11.75,21.43,12.16c12.22,0.41,19.8-10.7,19.88-10.81c0.53-0.79,1.61-1.01,2.4-0.48
		c0.79,0.53,1.01,1.61,0.48,2.4C123.72,152.17,115.66,164.01,101.98,164.01z"/>
</g>
<g>
	<path d="M43.35,217c-0.16,0-0.32-0.02-0.48-0.07l-6.23-1.78c-0.06-0.02-0.13-0.04-0.19-0.07c-2.35-0.98-4.42-3.01-6.15-6.03
		c-1.65-2.89-2.4-5.7-2.43-5.81c-0.09-0.34-0.07-0.69,0.04-1.02c2.33-6.59,7.61-13.22,15.71-19.7c5.96-4.77,11.19-7.62,11.4-7.74
		c0.84-0.45,1.89-0.14,2.35,0.7c0.46,0.84,0.14,1.89-0.7,2.35c-0.2,0.11-19.95,10.95-25.3,25.02c0.27,0.85,0.9,2.66,1.94,4.48
		c1.29,2.27,2.81,3.82,4.38,4.51l4.98,1.42l5.41-7.22c-0.67-2.02-1.97-6.41-1.55-8.89c0.16-0.94,1.05-1.58,1.99-1.42
		c0.94,0.16,1.58,1.05,1.42,1.99c-0.25,1.53,0.84,5.62,1.7,8.04c0.2,0.55,0.1,1.16-0.25,1.62l-6.68,8.91
		C44.41,216.75,43.89,217,43.35,217z"/>
</g>
<g>
	<path d="M50.03,208.09c-0.13,0-0.27-0.02-0.41-0.05c-0.93-0.22-1.5-1.16-1.28-2.09c0.06-0.25,1.52-6.29,3.39-11.14
		c0.77-2,1.49-3.49,2.2-4.56c0.53-0.8,1.61-1.01,2.4-0.48c0.8,0.53,1.01,1.61,0.48,2.4c-0.56,0.84-1.18,2.15-1.85,3.89
		c-1.78,4.63-3.23,10.64-3.25,10.7C51.53,207.56,50.82,208.09,50.03,208.09z"/>
</g>
<g>
	<path d="M29.1,243.27c-0.49,0-0.97-0.2-1.31-0.6c-0.02-0.03-0.58-0.68-1.33-1.73c-2.02-2.81-4.43-7-4.43-10.98
		c0-6.04,7.32-20.84,8.16-22.5c0.43-0.86,1.47-1.2,2.33-0.77c0.86,0.43,1.2,1.47,0.77,2.33c-2.17,4.33-7.79,16.53-7.79,20.95
		c0,2.35,1.38,5.62,3.78,8.96c0.65,0.92,1.14,1.48,1.14,1.49c0.62,0.73,0.54,1.82-0.19,2.44C29.9,243.13,29.5,243.27,29.1,243.27z"
		/>
</g>
<g>
	<path d="M157.61,217c-0.54,0-1.05-0.25-1.39-0.69l-6.68-8.91c-0.35-0.47-0.44-1.07-0.25-1.62c0.86-2.42,1.96-6.51,1.7-8.04
		c-0.16-0.94,0.48-1.84,1.42-1.99c0.94-0.16,1.84,0.48,1.99,1.42c0.41,2.48-0.88,6.86-1.55,8.89l5.41,7.22l4.98-1.42
		c1.58-0.69,3.09-2.25,4.38-4.51c1.05-1.83,1.68-3.63,1.94-4.48c-5.31-14.01-23.52-23.36-23.7-23.45c-0.85-0.43-1.2-1.47-0.76-2.33
		c0.43-0.85,1.47-1.2,2.33-0.77c0.2,0.1,5.07,2.58,10.66,6.98c7.59,5.97,12.61,12.34,14.94,18.93c0.12,0.33,0.13,0.68,0.04,1.02
		c-0.03,0.12-0.78,2.92-2.43,5.81c-1.73,3.02-3.79,5.05-6.15,6.03c-0.06,0.03-0.13,0.05-0.19,0.07l-6.23,1.78
		C157.93,216.97,157.77,217,157.61,217z"/>
</g>
<g>
	<path d="M147.43,196.7c-0.69,0-1.34-0.41-1.61-1.09c-0.59-1.48-1.16-2.66-1.67-3.43c-0.53-0.8-0.31-1.87,0.49-2.4
		c0.8-0.53,1.87-0.31,2.4,0.49c0.65,0.98,1.32,2.35,2.01,4.07c0.35,0.89-0.08,1.9-0.97,2.25
		C147.86,196.66,147.64,196.7,147.43,196.7z"/>
</g>
<g>
	<path d="M150.93,208.09c-0.78,0-1.49-0.53-1.68-1.33c-0.02-0.06-1.56-6.46-3.43-11.15c-0.35-0.89,0.08-1.9,0.97-2.25
		c0.89-0.35,1.9,0.08,2.25,0.97c1.96,4.92,3.51,11.35,3.58,11.62c0.22,0.93-0.35,1.87-1.28,2.09
		C151.2,208.07,151.07,208.09,150.93,208.09z"/>
</g>
<g>
	<path d="M163.59,237.93c-0.91,0-1.67-0.71-1.73-1.63c-0.06-0.96,0.67-1.78,1.63-1.83c0.01,0,1.72-0.12,3.72-1.05
		c1.65-0.76,3.02-1.83,4.09-3.17c2.04-2.58-1-14.3-3.69-21.4c-0.34-0.89,0.11-1.9,1.01-2.24c0.9-0.34,1.9,0.11,2.23,1.01
		c1.23,3.25,7.17,19.7,3.17,24.77c-1.41,1.78-3.21,3.18-5.35,4.17c-2.64,1.21-4.88,1.35-4.97,1.36
		C163.66,237.93,163.63,237.93,163.59,237.93z"/>
</g>
<path class="st6" d="M27.42,239.85c0,0,0.15,0.03,0.45,0.08c1.71,0.31,8.23,1.43,18.2,2.5c23.32,2.51,65.54,4.72,109.32-4.49
	c4.17-0.88,8.36-1.86,12.55-2.95c0.14-0.04,0.27-0.07,0.41-0.11"/>
<path class="st6" d="M45.95,212.3C45.95,212.3,45.95,212.3,45.95,212.3c-0.18,0.45-8.87,21.55,0.12,30.14"/>
<path class="st6" d="M155.35,212.17c0,0,0.01,0.04,0.02,0.1c0.32,1.61,4.26,21.63-0.02,25.48"/>
<path d="M51,195.78l93.73-0.11c5.11-0.01,9.26,4.13,9.27,9.24l0.06,52.62c0.01,5.11-4.13,9.26-9.24,9.27l-93.73,0.11
	c-5.11,0.01-9.26-4.13-9.27-9.24l-0.06-52.62C41.75,199.94,45.89,195.79,51,195.78z"/>
<g>
	<linearGradient id="SVGID_1_" gradientUnits="userSpaceOnUse" x1="80.2979" y1="170.6079" x2="107.9199" y2="265.8054">
		<stop  offset="0" style="stop-color:#FFFFFF"/>
		<stop  offset="1" style="stop-color:#D0D0D0"/>
	</linearGradient>
	<path class="st7" d="M51.14,265.24c-4.21,0-7.64-3.43-7.65-7.64l-0.06-52.49c0-2.04,0.79-3.97,2.23-5.41
		c1.44-1.45,3.36-2.24,5.41-2.25l93.6-0.11c4.22,0,7.65,3.43,7.66,7.64l0.06,52.49c0,2.04-0.79,3.97-2.23,5.41
		c-1.44,1.45-3.36,2.24-5.41,2.25L51.14,265.24L51.14,265.24z"/>
	<path d="M144.67,197.64c4.05,0,7.36,3.3,7.36,7.35l0.06,52.49c0,4.06-3.29,7.36-7.35,7.37l-93.6,0.11c-4.05,0-7.36-3.3-7.36-7.35
		l-0.06-52.49c0-4.06,3.29-7.36,7.35-7.37L144.67,197.64L144.67,197.64 M144.67,197.06C144.67,197.06,144.67,197.06,144.67,197.06
		l-93.61,0.11c-4.38,0.01-7.93,3.56-7.93,7.95l0.06,52.49c0.01,4.38,3.56,7.93,7.94,7.93c0,0,0.01,0,0.01,0l93.6-0.11
		c4.38-0.01,7.93-3.56,7.93-7.95l-0.06-52.49C152.61,200.61,149.05,197.06,144.67,197.06L144.67,197.06z"/>
</g>
<path class="st8" d="M135.59,219.36l7.97-0.01c2.64,0,4.79-2.15,4.78-4.79l-0.01-8.9c0-2.64-2.15-4.79-4.79-4.78l-7.97,0.01
	c-2.64,0-4.79,2.15-4.78,4.79l0.01,8.9C130.8,217.22,132.95,219.36,135.59,219.36z"/>
<g>
	
		<linearGradient id="SVGID_00000120538471721663567470000014789745380745568152_" gradientUnits="userSpaceOnUse" x1="638.0907" y1="147.4867" x2="644.1329" y2="168.3107" gradientTransform="matrix(-1 1.199480e-03 -1.199480e-03 -1 782.2805 369.5258)">
		<stop  offset="0" style="stop-color:#FFFFFF"/>
		<stop  offset="1" style="stop-color:#D0D0D0"/>
	</linearGradient>
	<path style="fill:url(#SVGID_00000120538471721663567470000014789745380745568152_);" d="M136.16,218.63
		c-2.56,0-4.64-2.08-4.64-4.64l-0.01-8.9c0-1.24,0.48-2.41,1.36-3.29c0.88-0.88,2.04-1.36,3.28-1.36l7.97-0.01
		c2.56,0,4.65,2.08,4.65,4.64l0.01,8.9c0,2.56-2.08,4.65-4.64,4.65L136.16,218.63z"/>
	<path class="st8" d="M144.13,200.29v0.29c2.48,0,4.5,2.02,4.5,4.49l0.01,8.9c0,1.2-0.47,2.33-1.31,3.18
		c-0.85,0.85-1.98,1.32-3.18,1.32l-7.98,0.01c-2.48,0-4.5-2.02-4.5-4.49l-0.01-8.9c0-2.48,2.01-4.5,4.49-4.51l7.98-0.01
		L144.13,200.29 M144.13,200.29C144.13,200.29,144.12,200.29,144.13,200.29l-7.98,0.01c-2.64,0-4.79,2.15-4.78,4.79l0.01,8.9
		c0,2.64,2.15,4.78,4.79,4.78c0,0,0,0,0.01,0l7.97-0.01c2.64,0,4.79-2.15,4.78-4.79l-0.01-8.9
		C148.91,202.43,146.77,200.29,144.13,200.29L144.13,200.29z"/>
</g>
<linearGradient id="SVGID_00000057839455586241039230000012945782694191844003_" gradientUnits="userSpaceOnUse" x1="636.5507" y1="157.3994" x2="639.0877" y2="168.0071" gradientTransform="matrix(-1 1.199480e-03 -1.199480e-03 -1 782.2805 369.5258)">
	<stop  offset="0" style="stop-color:#FFFFFF"/>
	<stop  offset="1" style="stop-color:#000000"/>
</linearGradient>
<circle style="fill:url(#SVGID_00000057839455586241039230000012945782694191844003_);" cx="143.84" cy="205.83" r="3.69"/>
<linearGradient id="SVGID_00000158001315484115076200000015894039554100907143_" gradientUnits="userSpaceOnUse" x1="-553.2477" y1="-397.2454" x2="-550.4781" y2="-393.2527" gradientTransform="matrix(0.4578 -0.8891 0.8891 0.4578 745.2158 -103.5333)">
	<stop  offset="0" style="stop-color:#FFFFFF"/>
	<stop  offset="1" style="stop-color:#000000"/>
</linearGradient>
<linearGradient id="SVGID_00000003801333955740671900000006138507094046138291_" gradientUnits="userSpaceOnUse" x1="-551.038" y1="-395.9869" x2="-549.6312" y2="-390.1045" gradientTransform="matrix(0.4578 -0.8891 0.8891 0.4578 745.2158 -103.5333)">
	<stop  offset="0" style="stop-color:#FFFFFF"/>
	<stop  offset="1" style="stop-color:#000000"/>
</linearGradient>
<circle style="fill:url(#SVGID_00000158001315484115076200000015894039554100907143_);stroke:url(#SVGID_00000003801333955740671900000006138507094046138291_);stroke-miterlimit:10;" cx="143.84" cy="205.83" r="2.52"/>
<linearGradient id="SVGID_00000018237925489565152190000009282496634665731725_" gradientUnits="userSpaceOnUse" x1="881.9258" y1="114.1509" x2="884.2812" y2="117.5467" gradientTransform="matrix(0.4306 0.9025 -0.9025 0.4306 -131.8584 -641.0965)">
	<stop  offset="0" style="stop-color:#FFFFFF"/>
	<stop  offset="1" style="stop-color:#000000"/>
</linearGradient>
<circle style="stroke:url(#SVGID_00000018237925489565152190000009282496634665731725_);stroke-width:0.25;stroke-miterlimit:10;" cx="143.84" cy="205.83" r="1.94"/>
<linearGradient id="SVGID_00000154401339066075078360000015697486300882467487_" gradientUnits="userSpaceOnUse" x1="642.6255" y1="150.4568" x2="645.1625" y2="161.0645" gradientTransform="matrix(-1 1.199480e-03 -1.199480e-03 -1 782.2805 369.5258)">
	<stop  offset="0" style="stop-color:#FFFFFF"/>
	<stop  offset="1" style="stop-color:#000000"/>
</linearGradient>
<circle style="fill:url(#SVGID_00000154401339066075078360000015697486300882467487_);" cx="137.78" cy="212.78" r="3.69"/>
<linearGradient id="SVGID_00000113333322802003559630000004910003602593773971_" gradientUnits="userSpaceOnUse" x1="-70.9972" y1="-530.722" x2="-68.2277" y2="-526.7294" gradientTransform="matrix(-0.1648 -0.9863 0.9863 -0.1648 645.8776 58.8462)">
	<stop  offset="0" style="stop-color:#FFFFFF"/>
	<stop  offset="1" style="stop-color:#000000"/>
</linearGradient>
<linearGradient id="SVGID_00000045599957599961164160000010589014064853141175_" gradientUnits="userSpaceOnUse" x1="-68.7876" y1="-529.4636" x2="-67.3807" y2="-523.5812" gradientTransform="matrix(-0.1648 -0.9863 0.9863 -0.1648 645.8776 58.8462)">
	<stop  offset="0" style="stop-color:#FFFFFF"/>
	<stop  offset="1" style="stop-color:#000000"/>
</linearGradient>
<circle style="fill:url(#SVGID_00000113333322802003559630000004910003602593773971_);stroke:url(#SVGID_00000045599957599961164160000010589014064853141175_);stroke-miterlimit:10;" cx="137.78" cy="212.78" r="2.52"/>
<linearGradient id="SVGID_00000060020421873605604560000007473761305053899175_" gradientUnits="userSpaceOnUse" x1="885.5862" y1="122.6187" x2="887.9417" y2="126.0145" gradientTransform="matrix(0.4306 0.9025 -0.9025 0.4306 -131.8584 -641.0965)">
	<stop  offset="0" style="stop-color:#FFFFFF"/>
	<stop  offset="1" style="stop-color:#000000"/>
</linearGradient>
<circle style="stroke:url(#SVGID_00000060020421873605604560000007473761305053899175_);stroke-width:0.25;stroke-miterlimit:10;" cx="137.78" cy="212.78" r="1.94"/>
<ellipse transform="matrix(0.7045 -0.7097 0.7097 0.7045 -109.4848 160.8714)" class="st0" cx="138.45" cy="211.92" rx="0.28" ry="0.56"/>
<ellipse transform="matrix(0.7045 -0.7097 0.7097 0.7045 -102.6882 163.3326)" class="st0" cx="144.81" cy="204.99" rx="0.28" ry="0.56"/>
<g class="st16">
	
		<linearGradient id="SVGID_00000168110134800966430150000011964339359375968929_" gradientUnits="userSpaceOnUse" x1="137.2502" y1="269.7416" x2="83.0572" y2="201.029" gradientTransform="matrix(1 -1.199480e-03 1.199480e-03 1 -0.0284 13.7349)">
		<stop  offset="0" style="stop-color:#FFFFFF"/>
		<stop  offset="1" style="stop-color:#000000"/>
	</linearGradient>
	<path style="fill:url(#SVGID_00000168110134800966430150000011964339359375968929_);" d="M96.7,251.38l-0.07-2.73l-11.76,1.72
		l1.23-3.35c0.27-0.68-0.14-1.57-0.69-2.05l-11.56-8.26l3.01-1.92c0.68-0.48,0.55-1.23,0.27-1.98l-2.06-5.53l6.49,0.4
		c0.55,0.07,1.23-0.28,1.3-0.75l0.95-3.69l5.68,7.24c0.41,0.48,1.85,0.61,1.57-0.82L89,217.14l3.08,2.25
		c0.41,0.27,1.23,0.14,1.44-0.34l2.73-5.27l1.3-2.53l1.3,2.53l2.74,5.26c0.21,0.48,1.03,0.61,1.44,0.34l3.07-2.26l-2.04,12.51
		c-0.27,1.44,1.16,1.3,1.57,0.82l5.66-7.25l0.89,3.69c0.14,0.48,0.82,0.82,1.3,0.75l6.56-0.42l-2.04,5.54
		c-0.27,0.75-0.48,1.5,0.28,1.98l2.87,1.91l-11.41,8.28c-0.61,0.48-0.96,1.37-0.75,2.05l1.3,3.35l-11.83-1.69l0,2.73L96.7,251.38z"
		/>
</g>
<g>
	<path class="st4" d="M96.78,249.5l-0.06-2.48l-10.65,1.56l1.11-3.04c0.25-0.62-0.13-1.42-0.62-1.86l-10.48-7.48l2.72-1.74
		c0.62-0.43,0.49-1.12,0.25-1.8l-1.86-5.01l5.88,0.36c0.5,0.06,1.11-0.25,1.18-0.68l0.86-3.35l5.15,6.56
		c0.37,0.43,1.67,0.56,1.42-0.74l-1.87-11.33l2.79,2.04c0.37,0.25,1.11,0.12,1.3-0.31l2.47-4.77l1.17-2.29l1.18,2.29l2.48,4.77
		c0.19,0.43,0.93,0.56,1.3,0.31l2.78-2.05l-1.84,11.34c-0.25,1.3,1.05,1.17,1.43,0.74l5.13-6.57l0.81,3.34
		c0.12,0.43,0.74,0.74,1.18,0.68l5.95-0.38l-1.85,5.02c-0.25,0.68-0.43,1.36,0.25,1.8l2.6,1.73l-10.33,7.51
		c-0.56,0.43-0.87,1.24-0.68,1.86l1.18,3.03l-10.72-1.54l0,2.48L96.78,249.5z"/>
</g>
<g>
	<path class="st3" d="M164.48,217.04c0,0-11.13-4.9-15.14,1.34c-4.01,6.23-4.55,23.97,3.4,24.79
		C160.7,243.99,169.61,238.64,164.48,217.04z"/>
	<path d="M154.28,244.69c-0.55,0-1.11-0.03-1.68-0.09c-2.49-0.26-4.5-1.83-5.81-4.55c-3.02-6.28-1.79-17.59,1.34-22.45
		c4.62-7.19,16.44-2.1,16.94-1.88l0.66,0.29l0.17,0.7c2.66,11.21,1.92,19.27-2.2,23.96C161.38,243.3,158.09,244.69,154.28,244.69z
		 M156.17,216.65c-2.23,0-4.39,0.6-5.62,2.51c-2.65,4.12-3.69,14.39-1.16,19.64c0.86,1.8,2.04,2.78,3.5,2.93
		c2.06,0.21,5.92,0.11,8.62-2.97c3.33-3.8,3.93-10.93,1.73-20.66C161.97,217.63,159.01,216.65,156.17,216.65z"/>
</g>
<g>
	<path class="st3" d="M29.1,241.42c0,0,11.13,4.9,15.14-1.34c4.01-6.23,4.55-23.97-3.4-24.79C32.89,214.48,23.98,219.82,29.1,241.42
		z"/>
	<path d="M37.42,244.7c-4.37,0-8.6-1.82-8.9-1.95l-0.66-0.29l-0.17-0.7c-2.66-11.21-1.92-19.27,2.2-23.96
		c2.63-3,6.57-4.4,11.09-3.93c2.49,0.26,4.5,1.83,5.81,4.55c3.02,6.28,1.79,17.59-1.34,22.45C43.56,243.81,40.45,244.7,37.42,244.7z
		 M30.34,240.36c2.28,0.86,9.89,3.3,12.69-1.05c2.65-4.12,3.69-14.39,1.16-19.64c-0.86-1.8-2.04-2.78-3.5-2.93
		c-2.06-0.21-5.92-0.11-8.62,2.97C28.73,223.5,28.14,230.63,30.34,240.36z"/>
</g>
<circle class="st0" cx="58.94" cy="109.27" r="1.78"/>
<circle class="st0" cx="140.44" cy="109.27" r="1.78"/>
<path d="M406.94,120.07V89.89c0-9.65-2.06-16.63-6.37-21.15c-4.1-4.31-10.68-6.57-19.71-6.57c-0.82,0-1.85,0-2.67,0
	c-7.39,0.41-13.35,1.85-17.86,4.72c-5.13,3.28-8.42,8.01-10.06,14.37l10.06,1.44c1.03-4.11,2.87-7.19,6.16-9.04
	c2.88-1.85,6.78-2.87,11.7-3.08c0.41,0,0.62,0,0.82,0c5.95,0,10.47,1.44,13.35,3.9c2.88,2.67,4.31,6.57,4.31,11.91v4.31
	c-0.82,0-1.44,0-2.46,0c-0.82,0-2.05,0-3.7,0c-4.31,0-8.42,0.21-12.32,0.62c-8.01,0.82-14.37,2.67-19.1,5.34
	c-7.19,4.11-10.67,10.06-10.67,18.07c0,6.16,2.26,11.29,6.57,15.19c4.52,4.11,10.26,6.16,17.45,6.16c2.05,0,3.9-0.2,5.75-0.61
	c3.08-0.62,5.96-1.64,8.42-3.29c4.31-2.67,7.6-6.36,10.06-11.09c0,2.46,0.2,4.72,0.41,6.98c0.21,2.26,0.62,4.31,1.23,6.37h10.47
	c-0.62-2.05-1.23-4.11-1.43-6.37C406.94,125.82,406.94,123.15,406.94,120.07z M396.67,102.41c0,6.98-2.26,12.73-6.57,17.66
	c-3.29,3.69-7.39,6.16-11.91,6.98c-1.23,0.2-2.47,0.2-3.7,0.2c-4.52,0-8.01-1.03-10.67-3.49c-2.67-2.26-3.9-5.34-3.9-9.24
	c0-5.34,2.26-9.24,7.19-11.91c2.87-1.64,6.57-2.87,11.09-3.49c3.08-0.41,6.57-0.62,10.27-0.62c2.05,0,3.9,0,4.93,0
	c1.23,0,2.26,0.2,3.29,0.41V102.41z M860.49,62.17c-1.64,0-2.67-0.21-3.49-0.21c-4.72,0-8.83,1.44-12.31,4.52
	c-3.29,2.88-5.96,7.39-8.22,13.35V64.02h-10.06v70.42h10.67V99.13c0-8.21,1.85-14.58,5.96-19.3c3.9-4.72,9.24-6.98,16.01-6.98h1.85
	V62.38C860.69,62.38,860.49,62.17,860.49,62.17z M287.65,119.04L258.7,39.38h-16.84v95.06h9.85v-85l30.8,85h8.22l31-84.59v84.59
	h11.09V39.38h-16.43L287.65,119.04z M648.6,83.93c5.34-1.44,9.44-4.11,12.32-7.6c3.08-3.7,4.52-7.8,4.52-12.73
	c0-7.6-2.46-13.55-7.6-17.86c-5.13-4.11-12.32-6.36-21.76-6.36h-2.26h-33.67v95.06h33.67h0.41c11.29,0,19.71-2.26,25.46-6.78
	c5.95-4.31,8.83-10.88,8.83-19.5c0-6.16-1.64-11.29-5.13-15.4C659.89,88.45,654.96,85.58,648.6,83.93z M611.64,48.82h22.17
	c6.16,0,10.88,1.44,14.37,3.9c3.29,2.67,4.93,6.36,4.93,11.09c0,5.54-1.64,9.44-5.13,12.32c-3.29,2.46-8.01,3.9-14.17,4.11
	c-0.41,0-0.82,0-1.44,0h-20.73V48.82z M650.45,120.28c-3.7,2.87-9.24,4.31-16.43,4.31h-0.2h-22.17V89.27h20.32c0.62,0,1.23,0,1.85,0
	c7.19,0.21,12.52,1.64,16.22,4.52c4.11,3.08,6.16,7.6,6.16,13.76C656.2,113.09,654.14,117.4,650.45,120.28z M808.75,120.07V89.89
	c0-9.65-2.05-16.63-6.16-21.15c-4.31-4.31-10.88-6.57-19.92-6.57c-0.82,0-1.64,0-2.67,0c-7.39,0.41-13.35,1.85-17.86,4.72
	c-5.13,3.28-8.42,8.01-9.86,14.37l9.86,1.44c1.03-4.11,3.08-7.19,6.16-9.04c2.87-1.85,6.78-2.87,11.7-3.08c0.41,0,0.62,0,0.82,0
	c5.95,0,10.47,1.44,13.34,3.9c2.88,2.67,4.31,6.57,4.31,11.91v4.31c-0.82,0-1.44,0-2.26,0c-1.03,0-2.26,0-3.9,0
	c-4.31,0-8.42,0.21-12.32,0.62c-8,0.82-14.37,2.67-19.09,5.34c-7.18,4.11-10.68,10.06-10.68,18.07c0,6.16,2.26,11.29,6.57,15.19
	c4.52,4.11,10.27,6.16,17.45,6.16c2.06,0,3.9-0.2,5.75-0.61c3.08-0.62,5.95-1.64,8.42-3.29c4.31-2.67,7.6-6.36,10.06-11.09
	c0,2.46,0.21,4.72,0.41,6.98c0.21,2.26,0.62,4.31,1.23,6.37h10.47c-0.61-2.05-1.23-4.11-1.44-6.37
	C808.75,125.82,808.75,123.15,808.75,120.07z M798.48,102.41c0,6.98-2.26,12.73-6.57,17.66c-3.29,3.69-7.39,6.16-11.91,6.98
	c-1.23,0.2-2.46,0.2-3.69,0.2c-4.52,0-8.01-1.03-10.68-3.49c-2.67-2.26-3.9-5.34-3.9-9.24c0-5.34,2.26-9.24,7.19-11.91
	c2.87-1.64,6.57-2.87,11.09-3.49c3.08-0.41,6.57-0.62,10.27-0.62c2.26,0,3.9,0,4.93,0c1.23,0,2.26,0.2,3.28,0.41V102.41z
	 M553.74,62.17c-9.45,0-16.84,3.49-22.58,10.26c-5.96,6.77-8.83,15.81-8.83,26.9s2.87,20.12,8.62,26.9
	c5.54,6.78,13.14,10.06,22.79,10.06c7.39,0,13.55-1.85,18.68-5.34c5.13-3.49,9.04-8.63,11.5-15.4l-10.06-1.85
	c-1.64,4.31-4.31,7.8-7.6,10.06c-3.49,2.46-7.18,3.7-11.7,3.7c-0.21,0-0.62,0-0.82,0c-6.16-0.21-10.88-2.67-14.37-7.19
	c-3.7-4.93-5.55-11.5-5.55-19.92v-0.41h19.92h31.21v-1.44c0-11.29-2.88-20.12-8.42-26.49C570.99,65.46,563.39,62.17,553.74,62.17z
	 M553.74,92.35h-19.92c0.82-6.98,3.08-12.32,6.57-16.02c3.49-3.49,7.81-5.34,13.35-5.34c0.2,0,0.41,0,0.62,0
	c5.75,0,10.26,1.85,13.76,5.54c3.29,3.9,5.13,9.03,5.34,15.81H553.74z M709.99,62.17h-0.21c-9.24,0-16.84,3.49-22.58,10.26
	c-5.75,6.77-8.62,15.81-8.62,26.9s2.67,20.12,8.42,26.9c5.75,6.78,13.35,10.06,22.79,10.06h0.21c7.18,0,13.55-1.85,18.68-5.34
	c5.13-3.49,8.83-8.63,11.29-15.4l-9.85-1.85c-1.85,4.31-4.31,7.8-7.8,10.06c-3.29,2.46-7.19,3.7-11.5,3.7c-0.41,0-0.61,0-1.02,0
	c-5.96-0.21-10.89-2.67-14.37-7.19c-3.7-4.93-5.54-11.5-5.54-19.92v-0.41h19.92h31.21v-1.44c0-11.29-2.88-20.12-8.42-26.49
	C727.03,65.46,719.44,62.17,709.99,62.17z M709.78,92.35h-19.71c0.82-6.98,3.08-12.32,6.57-16.02c3.29-3.49,7.8-5.34,13.14-5.34
	c0.21,0,0.41,0,0.62,0c5.75,0,10.47,1.85,13.76,5.54c3.28,3.9,5.13,9.03,5.54,15.81H709.78z M455.8,62.17c-0.82,0-1.64,0-2.46,0.2
	c-3.69,0.41-6.98,1.64-10.06,3.7c-3.7,2.67-6.57,6.57-9.04,11.7V64.02h-9.65v94.65h10.27v-35.52c2.46,4.11,5.34,7.19,8.83,9.24
	c3.08,1.85,6.16,2.87,9.65,3.29c0.62,0,1.23,0,1.85,0c8.21,0,14.78-3.29,19.92-10.27c5.34-6.77,7.8-15.81,7.8-26.69
	c0-10.88-2.46-19.71-7.6-26.49C470.38,65.46,463.81,62.17,455.8,62.17z M466.69,119.25c-3.29,4.93-7.81,7.39-13.35,7.39
	c-0.2,0-0.41,0-0.41,0c-5.54,0-9.85-1.85-13.14-5.95c-3.29-3.9-4.93-9.24-4.93-15.81v-11.7c0-6.37,1.85-11.5,5.34-15.6
	c3.49-4.11,8.01-6.16,12.94-6.16c0.2,0,0.2,0,0.2,0c5.54,0,10.06,2.47,13.35,7.39c3.29,4.93,4.93,11.7,4.93,20.12
	C471.62,107.55,469.97,114.32,466.69,119.25z M497.48,134.44h10.48V39.38h-10.48V134.44z"/>
<g>
	<path d="M364.95,183.67h10.27l24.32,67.04h-9.95l-6.8-20.08h-26.52l-7.26,20.08h-9.31L364.95,183.67z M379.88,223.23l-10.18-29.62
		l-10.82,29.62H379.88z"/>
	<path d="M433.56,203.34c1.45,0.91,3.11,2.51,4.96,4.79v-24.69h7.9v67.27h-7.39v-6.8c-1.91,3.01-4.17,5.19-6.77,6.53
		c-2.61,1.34-5.59,2.01-8.96,2.01c-5.42,0-10.12-2.29-14.09-6.87c-3.97-4.58-5.96-10.67-5.96-18.28c0-7.12,1.81-13.29,5.43-18.51
		c3.62-5.22,8.8-7.83,15.53-7.83C427.93,200.96,431.05,201.76,433.56,203.34z M415.23,239.98c2.21,3.53,5.75,5.29,10.63,5.29
		c3.78,0,6.89-1.63,9.33-4.91c2.44-3.27,3.66-7.96,3.66-14.08c0-6.18-1.26-10.75-3.77-13.71c-2.51-2.97-5.62-4.45-9.31-4.45
		c-4.12,0-7.45,1.58-10.01,4.75c-2.56,3.16-3.84,7.82-3.84,13.96C411.91,232.07,413.02,236.45,415.23,239.98z"/>
	<path d="M462.73,201.83l13.05,39.8l13.6-39.8h8.99l-18.4,48.88h-8.75l-18.03-48.88H462.73z"/>
	<path d="M535.61,203.18c3.24,1.63,5.7,3.74,7.39,6.32c1.63,2.46,2.72,5.34,3.27,8.63c0.48,2.25,0.73,5.84,0.73,10.77h-35.55
		c0.15,4.97,1.31,8.96,3.49,11.97c2.17,3,5.54,4.51,10.1,4.51c4.26,0,7.65-1.42,10.19-4.26c1.42-1.65,2.42-3.56,3.02-5.73h8.08
		c-0.21,1.8-0.92,3.8-2.12,6c-1.2,2.21-2.54,4.01-4.02,5.41c-2.48,2.43-5.54,4.08-9.19,4.93c-1.96,0.49-4.18,0.73-6.66,0.73
		c-6.05,0-11.17-2.21-15.37-6.64c-4.2-4.43-6.3-10.63-6.3-18.6c0-7.85,2.12-14.22,6.35-19.12c4.23-4.9,9.77-7.35,16.6-7.35
		C529.04,200.74,532.38,201.55,535.61,203.18z M538.56,222.37c-0.33-3.56-1.1-6.4-2.31-8.53c-2.23-3.95-5.96-5.93-11.18-5.93
		c-3.74,0-6.88,1.36-9.41,4.08c-2.53,2.72-3.88,6.18-4.03,10.38H538.56z"/>
	<path d="M557.4,201.83h7.8v6.94c2.31-2.86,4.76-4.91,7.35-6.16c2.59-1.25,5.46-1.87,8.63-1.87c6.94,0,11.62,2.42,14.06,7.26
		c1.34,2.65,2.01,6.43,2.01,11.36v31.35h-8.35V219.9c0-2.98-0.44-5.39-1.32-7.21c-1.46-3.04-4.11-4.56-7.94-4.56
		c-1.95,0-3.54,0.2-4.79,0.59c-2.25,0.67-4.23,2.01-5.93,4.02c-1.37,1.61-2.26,3.28-2.67,5c-0.41,1.72-0.62,4.18-0.62,7.37v25.6
		h-8.21V201.83z"/>
	<path d="M611.03,188.19h8.31v13.65h7.8v6.71h-7.8v31.9c0,1.7,0.58,2.85,1.73,3.42c0.64,0.33,1.7,0.5,3.2,0.5
		c0.39,0,0.82-0.01,1.28-0.03c0.46-0.02,0.99-0.07,1.6-0.15v6.53c-0.94,0.27-1.92,0.47-2.94,0.59c-1.02,0.12-2.12,0.18-3.31,0.18
		c-3.83,0-6.44-0.98-7.8-2.94c-1.37-1.96-2.05-4.51-2.05-7.64v-32.36h-6.62v-6.71h6.62V188.19z"/>
	<path d="M643.57,201.83v32.45c0,2.5,0.38,4.53,1.16,6.11c1.42,2.92,4.07,4.38,7.96,4.38c5.57,0,9.36-2.56,11.38-7.67
		c1.1-2.74,1.64-6.5,1.64-11.27v-24.01h8.21v48.88h-7.76l0.09-7.21c-1.05,1.86-2.35,3.42-3.9,4.7c-3.07,2.56-6.81,3.83-11.19,3.83
		c-6.84,0-11.49-2.33-13.97-6.98c-1.34-2.49-2.02-5.83-2.02-9.99v-33.22H643.57z"/>
	<path d="M687.56,201.83h7.8v8.44c0.64-1.64,2.21-3.64,4.7-6c2.49-2.36,5.37-3.54,8.62-3.54c0.15,0,0.41,0.02,0.78,0.05
		c0.37,0.03,0.99,0.09,1.87,0.18v8.67c-0.49-0.09-0.94-0.15-1.35-0.18c-0.41-0.03-0.86-0.05-1.35-0.05c-4.14,0-7.32,1.33-9.54,3.99
		c-2.22,2.66-3.33,5.73-3.33,9.2v28.11h-8.21V201.83z"/>
	<path d="M748.65,203.18c3.24,1.63,5.7,3.74,7.39,6.32c1.63,2.46,2.72,5.34,3.27,8.63c0.48,2.25,0.73,5.84,0.73,10.77h-35.55
		c0.15,4.97,1.31,8.96,3.49,11.97c2.17,3,5.54,4.51,10.1,4.51c4.26,0,7.65-1.42,10.19-4.26c1.42-1.65,2.42-3.56,3.02-5.73h8.08
		c-0.21,1.8-0.92,3.8-2.12,6c-1.2,2.21-2.54,4.01-4.02,5.41c-2.48,2.43-5.54,4.08-9.2,4.93c-1.96,0.49-4.18,0.73-6.66,0.73
		c-6.05,0-11.17-2.21-15.38-6.64s-6.3-10.63-6.3-18.6c0-7.85,2.12-14.22,6.35-19.12c4.23-4.9,9.77-7.35,16.6-7.35
		C742.07,200.74,745.41,201.55,748.65,203.18z M751.59,222.37c-0.33-3.56-1.1-6.4-2.31-8.53c-2.23-3.95-5.96-5.93-11.18-5.93
		c-3.74,0-6.88,1.36-9.41,4.08c-2.53,2.72-3.88,6.18-4.03,10.38H751.59z"/>
</g>
</svg>
