<svg width="124" height="125" viewBox="0 0 124 125" fill="none" xmlns="http://www.w3.org/2000/svg">
<path d="M43.2658 116.21C43.2658 116.21 46.7677 121.698 61.3595 120.647C61.3595 120.647 69.531 121.932 77.5855 117.261C77.5855 117.261 82.255 114.692 82.6051 101.264C82.6051 101.264 87.1578 71.9568 77.3523 64.4839C77.3523 64.4839 66.3792 43.3497 51.2036 58.1786C51.2036 58.1786 40.9309 71.8399 41.1644 81.5314C41.1644 81.5314 37.1956 105.468 43.2658 116.21Z" fill="#F2EEE3"/>
<path d="M61.0799 122.403C72.0506 122.403 80.9442 117.57 80.9442 111.607C80.9442 105.645 72.0506 100.812 61.0799 100.812C50.1092 100.812 41.2157 105.645 41.2157 111.607C41.2157 117.57 50.1092 122.403 61.0799 122.403Z" fill="#D5D3C7"/>
<path d="M61.4772 113.462C72.4479 113.462 81.3415 108.629 81.3415 102.666C81.3415 96.7042 72.4479 91.8709 61.4772 91.8709C50.5066 91.8709 41.613 96.7042 41.613 102.666C41.613 108.629 50.5066 113.462 61.4772 113.462Z" fill="#F2EEE3"/>
<path fill-rule="evenodd" clip-rule="evenodd" d="M49.5976 84.8086C49.5976 84.8086 54.5605 74.9739 56.4333 74.5056C56.4333 74.5056 57.4498 78.9323 61.1713 80.7633C61.1713 80.7633 65.32 78.7123 65.2491 74.3558C65.2491 74.3558 67.1713 75.512 70.8793 82.7973C70.8793 82.7973 78.0305 80.678 78.0305 77.6314C78.0305 74.5848 78.5602 72.5316 77.6995 69.8162C76.8387 67.1008 75.6466 64.3191 74.1237 62.4646C72.6008 60.6102 71.409 58.8882 68.5618 57.961C65.7146 57.0338 61.4106 55.9741 60.0864 56.4377C58.7621 56.9013 55.3853 58.0272 53.73 59.8817C52.0746 61.7361 49.7571 62.9282 48.7639 65.3125C47.7707 67.6968 46.1154 69.3525 45.983 70.8758C45.8505 72.3991 43.2683 69.3526 45.8506 74.3198C48.4329 79.2871 49.5976 84.8086 49.5976 84.8086Z" fill="#D5D3C7"/>
<path d="M89.3334 74.9983C93.6258 83.0897 93.1306 93.823 93.1306 93.823C89.6637 112.152 76.4649 118.47 76.4649 118.47C81.4174 99.4801 71.0088 83.0897 71.0088 83.0897C67.3768 76.1542 74.4754 71.5307 74.4754 71.5307C65.2305 66.742 61.1033 51.0548 61.1033 51.0548C57.6365 67.0722 47.071 71.5307 47.071 71.5307C53.8397 76.3195 50.868 81.9337 50.868 81.9337L45.7503 94.8138C41.7882 102.41 45.0667 118.011 45.0667 118.011C16.8367 100.837 33.2037 72.5214 33.2037 72.5214C33.2037 72.5214 33.8579 70.2331 31.3481 71.1088C31.0564 71.284 28.1965 72.6852 26.9123 76.6551C26.7373 76.3049 25.278 72.9771 26.0953 69.3574C25.8618 69.4158 26.854 67.7811 23.819 68.1315C23.819 68.1315 17.982 69.5326 16.231 71.0505C16.231 71.0505 18.6826 68.0147 18.5657 65.6211C18.5657 65.6211 18.7993 64.5118 16.0559 64.4533C16.0559 64.4533 10.793 64.4302 8.52292 63.1092C8.52292 63.1092 11.6183 59.9305 11.6183 58.3205C11.6183 58.3205 12.6091 54.8528 8.60562 55.0179C8.60562 55.0179 4.47847 55.926 3.32283 57.247C3.32283 57.247 3.40526 53.7381 4.80868 52.417C4.80868 52.417 6.89234 50.0914 7.76783 49.391C7.76783 49.391 8.87696 48.7486 7.24268 47.8146C7.24268 47.8146 1.58105 47.1725 0.413605 40.7505C0.413605 40.7505 2.9233 43.9614 5.72508 41.2174C5.72508 41.2174 5.95847 37.3058 0.7055 35.788C0.7055 35.788 2.22304 34.3868 4.44099 34.0365C4.44099 34.0365 7.30111 34.0949 7.70945 32.4018C7.70945 32.4018 8.00145 30.5919 4.14935 28.607C4.14935 28.607 8.64348 29.2493 9.51895 28.1983C9.51895 28.1983 3.91566 27.0307 4.44099 18.5653C4.44099 18.5653 7.18444 22.7104 9.69408 21.4261C9.69408 21.4261 11.3865 20.6671 10.2776 17.748C10.2776 17.748 9.16871 15.9382 7.88459 15.5295C7.88459 15.5295 9.63556 12.0266 16.5813 12.3185C16.5813 12.3185 20.1416 11.7347 17.0481 8.69883C17.0481 8.69883 20.7253 8.11502 23.4687 9.9833C23.4687 9.9833 22.0679 5.19602 24.2274 0.0583294C24.2274 0.0583294 34.4419 10.2681 50.5379 11.1763C50.5379 11.1763 50.4554 7.37827 54.5825 5.23166C54.5825 5.23166 54.0046 8.36913 56.1508 9.44239C56.1508 9.44239 56.9763 9.93781 57.6366 8.61682C57.6366 8.61682 58.8746 4.3235 58.2143 1.43365C58.2143 1.43365 61.3511 3.49772 62.0115 8.36909C62.0115 8.36909 62.4243 10.1855 63.3322 8.94701C63.3322 8.94701 64.8179 4.98398 66.386 3.99317C66.386 3.99317 65.2307 8.36913 67.1294 10.3506C67.1294 10.3506 68.2022 11.3414 68.6974 11.3414C68.6974 11.3414 87.4391 10.6255 98.4123 0C98.4123 0 101.448 4.20349 99.4629 10.9757C99.4629 10.9757 109.227 9.52502 112.528 14.1485C112.528 14.1485 109.392 15.0568 109.144 17.2034C109.144 17.2034 109.227 19.1024 111.373 19.3501C111.373 19.3501 114.592 19.928 116.49 18.2767C116.49 18.2767 117.316 24.7994 111.538 27.3589C111.538 27.3589 110.582 27.5854 111.195 28.0232C111.195 28.0232 113.5 28.2567 115.631 27.2935C115.631 27.2935 114.317 28.7822 113.734 29.6579C113.734 29.6579 112.129 31.0299 113.588 32.3435C113.588 32.3435 121.484 34.1291 122.805 37.5555C122.805 37.5555 117.646 35.9868 115.541 40.8167C115.541 40.8167 116.243 44.0367 120.081 43.2112C120.081 43.2112 120.067 46.822 113.588 49.1574C113.588 49.1574 112.654 49.7996 113.179 51.2591C113.179 51.2591 116.623 54.6452 116.214 58.9655C116.214 58.9655 114.814 57.1556 112.304 56.747C112.304 56.747 109.736 56.1048 109.56 58.8486C109.56 58.8486 109.852 62.2347 112.245 63.4025C112.245 63.4025 110.261 65.154 103.49 63.7528C103.49 63.7528 102.498 63.2273 102.848 64.6285C102.848 64.6285 103.782 68.3649 102.381 71.9846C102.381 71.9846 101.681 69.3574 99.9883 68.54C99.9883 68.54 98.3538 67.1973 97.3031 69.2991C97.3031 69.2991 96.661 74.028 92.9257 75.6042C92.9257 75.6042 93.1592 74.2616 92.3422 73.6776C92.3422 73.6776 90.9942 72.5826 89.3334 74.9983Z" fill="#225054"/>
<path d="M61.3642 44.417C57.7919 45.6994 54.1331 52.7203 54.1331 52.7203C54.6396 59.4474 61.261 65.464 61.3606 65.5541V65.578C61.3606 65.578 61.3723 65.5656 61.3729 65.5654C61.3729 65.5654 61.3782 65.5706 61.3782 65.5706V65.5611C61.477 65.467 67.829 59.3885 68.3353 52.6631C68.3353 52.6631 64.9347 45.7054 61.3634 44.4207V44.417H61.3642Z" fill="#163C3F"/>
<path d="M54.3356 54.1096C54.3356 54.1096 57.8865 47.7808 61.3534 46.6249L61.3675 65.6929C61.3675 65.6929 54.8317 60.2194 54.3364 54.1096H54.3356Z" fill="#FAB84A"/>
<path d="M68.1193 54.0577C68.1193 54.0577 64.8173 47.7829 61.3504 46.627V65.6992C61.3504 65.6992 67.624 60.1674 68.1193 54.0577Z" fill="#E9934C"/>
<path d="M33.7189 62.0651C45.6136 62.0651 55.2561 52.4202 55.2561 40.5225C55.2561 28.6248 45.6136 18.9799 33.7189 18.9799C21.8241 18.9799 12.1816 28.6248 12.1816 40.5225C12.1816 52.4202 21.8241 62.0651 33.7189 62.0651Z" fill="#173C3F"/>
<path d="M35.0117 62.0818C45.7917 62.0818 54.5305 52.8787 54.5305 41.5261C54.5305 30.1735 45.7917 20.9704 35.0117 20.9704C24.2317 20.9704 15.4928 30.1735 15.4928 41.5261C15.4928 52.8787 24.2317 62.0818 35.0117 62.0818Z" fill="#F2EEE3"/>
<path d="M89.1139 62.0483C101.009 62.0483 110.651 52.4033 110.651 40.5057C110.651 28.608 101.009 18.963 89.1139 18.963C77.2191 18.963 67.5766 28.608 67.5766 40.5057C67.5766 52.4033 77.2191 62.0483 89.1139 62.0483Z" fill="#173C3F"/>
<path d="M87.7655 62.1159C98.5455 62.1159 107.284 52.9128 107.284 41.5601C107.284 30.2075 98.5455 21.0043 87.7655 21.0043C76.9856 21.0043 68.2467 30.2075 68.2467 41.5601C68.2467 52.9128 76.9856 62.1159 87.7655 62.1159Z" fill="#F2EEE3"/>
<path d="M39.3537 54.4016C45.6692 54.4016 50.7888 49.3018 50.7888 43.0109C50.7888 36.7199 45.6692 31.6201 39.3537 31.6201C33.0382 31.6201 27.9186 36.7199 27.9186 43.0109C27.9186 49.3018 33.0382 54.4016 39.3537 54.4016Z" fill="#FAB84A"/>
<path d="M39.4377 51.3976C44.1445 51.3976 47.9601 47.5969 47.9601 42.9083C47.9601 38.2198 44.1445 34.4191 39.4377 34.4191C34.7309 34.4191 30.9154 38.2198 30.9154 42.9083C30.9154 47.5969 34.7309 51.3976 39.4377 51.3976Z" fill="#201E1E"/>
<path d="M34.7349 40.1707C36.246 40.1707 37.471 38.9505 37.471 37.4453C37.471 35.9401 36.246 34.7198 34.7349 34.7198C33.2238 34.7198 31.9987 35.9401 31.9987 37.4453C31.9987 38.9505 33.2238 40.1707 34.7349 40.1707Z" fill="#FEFEFE"/>
<path d="M83.9686 54.4367C90.2841 54.4367 95.4037 49.3369 95.4037 43.0459C95.4037 36.755 90.2841 31.6552 83.9686 31.6552C77.6531 31.6552 72.5335 36.755 72.5335 43.0459C72.5335 49.3369 77.6531 54.4367 83.9686 54.4367Z" fill="#FAB84A"/>
<path d="M84.0528 51.433C88.7596 51.433 92.5751 47.6322 92.5751 42.9436C92.5751 38.2551 88.7596 34.4544 84.0528 34.4544C79.346 34.4544 75.5305 38.2551 75.5305 42.9436C75.5305 47.6322 79.346 51.433 84.0528 51.433Z" fill="#201E1E"/>
<path d="M79.3497 40.2064C80.8608 40.2064 82.0859 38.9862 82.0859 37.4809C82.0859 35.9757 80.8608 34.7555 79.3497 34.7555C77.8387 34.7555 76.6136 35.9757 76.6136 37.4809C76.6136 38.9862 77.8387 40.2064 79.3497 40.2064Z" fill="#FEFEFE"/>
<path d="M46.8651 124.499C47.8931 124.499 48.7266 122.418 48.7266 119.851C48.7266 117.284 47.8931 115.203 46.8651 115.203C45.8371 115.203 45.0036 117.284 45.0036 119.851C45.0036 122.418 45.8371 124.499 46.8651 124.499Z" fill="#E9934C"/>
<path d="M51.1162 124.479C52.1442 124.479 52.9776 122.398 52.9776 119.831C52.9776 117.264 52.1442 115.183 51.1162 115.183C50.0882 115.183 49.2547 117.264 49.2547 119.831C49.2547 122.398 50.0882 124.479 51.1162 124.479Z" fill="#E9934C"/>
<path d="M55.4497 124.52C56.4777 124.52 57.3111 122.439 57.3111 119.872C57.3111 117.304 56.4777 115.223 55.4497 115.223C54.4217 115.223 53.5882 117.304 53.5882 119.872C53.5882 122.439 54.4217 124.52 55.4497 124.52Z" fill="#E9934C"/>
<path d="M66.1194 124.644C67.1474 124.644 67.9808 122.563 67.9808 119.996C67.9808 117.428 67.1474 115.347 66.1194 115.347C65.0914 115.347 64.2579 117.428 64.2579 119.996C64.2579 122.563 65.0914 124.644 66.1194 124.644Z" fill="#E9934C"/>
<path d="M70.3703 124.623C71.3983 124.623 72.2318 122.542 72.2318 119.975C72.2318 117.408 71.3983 115.327 70.3703 115.327C69.3423 115.327 68.5088 117.408 68.5088 119.975C68.5088 122.542 69.3423 124.623 70.3703 124.623Z" fill="#E9934C"/>
<path d="M74.7043 124.665C75.7323 124.665 76.5658 122.584 76.5658 120.016C76.5658 117.449 75.7323 115.368 74.7043 115.368C73.6763 115.368 72.8428 117.449 72.8428 120.016C72.8428 122.584 73.6763 124.665 74.7043 124.665Z" fill="#E9934C"/>
<path d="M42.3914 73.4816C42.3914 73.4816 38.0639 75.0329 33.041 72.3281C33.041 72.3281 29.2212 70.6971 27.0574 77.459C26.9029 77.2999 24.309 75.1919 25.3908 69.8222C25.3908 69.8222 26.0477 68.3505 23.1499 68.788C23.1499 68.788 16.3496 70.9758 15.461 72.2088C15.461 72.2088 17.9336 68.3903 17.895 65.9242C17.895 65.9242 17.8951 65.0293 15.4223 65.069C15.4223 65.069 10.0322 65.0094 7.88783 63.5575C7.88783 63.4779 10.689 60.8727 11.1527 58.685C11.1527 58.685 11.7903 55.3637 8.77658 55.5427C8.77658 55.5427 5.20267 55.5427 2.92305 57.7303C2.92305 57.7303 2.20861 53.2319 7.04441 49.7161C7.04441 49.7161 8.08259 49.1255 6.85314 48.5067C6.85314 48.5067 1.27505 46.843 0 40.2004C0 40.2004 2.28537 43.0928 4.4491 41.8995C4.4491 41.8995 4.87433 41.7405 5.14478 41.104C5.14478 41.104 5.04996 37.2564 0.0775827 35.7095C0.0775827 35.7095 1.58998 33.9443 5.29918 33.6261C5.29918 33.6261 7.84937 32.8704 6.61297 31.16C6.61297 31.16 4.83547 29.211 3.71501 28.5746C3.71501 28.5746 7.69485 28.7337 8.96989 27.9381C8.85395 27.8984 3.50531 27.2753 4.31672 18.0871C4.31672 18.0871 8.35162 23.8015 10.013 19.8637C9.89715 19.6249 10.637 17.2481 7.15963 15.299C7.15963 15.299 9.43338 11.7891 16.0018 11.7096C16.0018 11.7096 19.1315 10.9141 16.4655 8.16953C16.4655 8.16953 20.8702 7.41375 22.8408 9.323C22.8795 9.24343 22.0346 5.38137 24.1597 0.130959C24.1597 0.130959 23.4589 9.60149 24.9271 13.3007C24.7339 13.1813 22.5703 10.1185 19.7498 8.96502C19.7498 8.96502 21.1793 13.8575 16.1564 13.9768C16.1564 13.9768 12.0993 13.1415 10.1674 14.6928C10.1674 14.6928 13.22 20.2614 10.8631 22.6081C10.8631 22.6081 8.69942 24.5572 5.87888 21.8127C5.87888 21.8127 5.58649 26.2676 11.3821 27.4609C11.3821 27.4609 10.389 29.7755 7.37522 29.855C7.37522 29.855 9.92984 32.2766 8.0366 34.1063C8.0366 34.1063 6.20545 35.7157 3.75367 35.7342C3.75367 35.7342 7.86712 38.1283 7.32068 41.8409C7.32068 41.8409 5.99331 44.8535 2.64575 43.8097C2.64575 43.8097 4.85813 45.758 8.57379 46.9955C8.57379 46.9955 10.8311 48.4456 9.79283 50.0207C9.79283 50.0207 6.36911 51.2638 5.33093 54.8077C5.33093 54.8077 10.4685 52.3355 12.818 54.1918C12.818 54.1918 14.4656 58.8317 10.5689 62.5415C10.5689 62.5415 17.94 63.7586 20.9453 63.3648C20.9453 63.3648 20.0335 67.4411 19.2139 68.5661C19.651 68.3411 25.2658 66.0308 28.6536 66.8183C28.6536 66.8183 26.1966 71.6543 26.4698 73.4544C26.4698 73.4544 30.8288 68.8366 34.5991 69.5116C34.5991 69.5116 33.3417 72.3276 42.3914 73.4816Z" fill="#163C3F"/>
<path d="M79.9816 74.2705C79.9816 74.2705 83.1781 76.962 89.8818 75.3065C89.8818 75.3065 90.7964 74.9536 91.4823 74.4831C91.4823 74.4831 92.7883 73.376 92.8209 75.5581C92.8209 75.5581 97.3511 74.6007 98.1132 69.6996C98.1132 69.6996 98.4688 67.7223 100.527 69.2123C100.527 69.2123 101.668 70.1674 102.201 72.7552C102.201 72.7552 104.668 68.6802 103.525 64.7201C103.525 64.7201 103.487 63.8575 104.287 64.0535C104.287 64.0535 110.156 65.818 112.823 63.4654C112.823 63.4654 109.698 61.7402 110.384 57.6625C110.384 57.6625 110.974 56.4694 113.413 57.2143C113.413 57.2143 115.955 58.1085 116.298 59.3632C116.298 59.3632 117.235 54.6386 113.678 51.2007C113.678 51.2007 112.695 50.165 114.339 49.2224C114.339 49.2224 119.749 46.9304 120.531 42.938C120.531 42.938 117.148 44.3315 115.948 40.842C115.948 40.842 117.677 36.4637 123.107 37.7575C123.107 37.7575 121.56 33.8074 114.123 32.3102C114.123 32.3102 112.641 31.839 114.123 29.7873L116.564 26.7784C116.564 26.7784 113.242 28.4565 111.679 27.7912C111.679 27.7912 111.267 27.597 112.048 27.3198C112.048 27.3198 117.36 25.013 116.875 17.7769C116.875 17.7769 112.156 21.2758 109.892 17.9766C109.892 17.9766 109.087 15.8929 113.533 14.063C113.533 14.063 111.451 9.6318 100.171 10.8473C100.171 10.8473 102.066 4.6117 98.4438 0.0209198C98.4438 0.0209198 101.431 9.88092 97.6587 13.3743C97.6587 13.3743 104.719 10.3245 111.725 13.7624C111.725 13.7624 107.467 13.7624 108.923 19.141C108.923 19.141 110.539 21.7471 115.605 20.5827C115.605 20.5827 112.911 25.9059 109.677 27.9021C109.677 27.9021 112.048 29.3438 113.665 29.1774C113.585 29.4714 111.68 32.5297 111.032 32.8042C111.032 32.8042 115.982 33.447 119.27 36.0531C119.27 36.0531 116.144 36.7739 114.635 41.1545C114.635 41.1545 116.36 44.3705 118.192 44.8141C118.236 44.645 114.473 48.3075 111.563 49.3055C111.779 49.5828 115.066 55.0723 115.659 57.013C115.659 57.013 112.965 54.6287 109.677 56.514C109.677 56.514 108.447 60.3559 109.971 63.2182C109.971 63.2182 105.758 63.7356 102.572 62.3675C102.572 62.3675 102.825 68.0257 102.482 69.4764C102.482 69.4764 99.8504 67.0334 97.2944 67.3449C97.2944 67.3449 96.7795 72.3658 94.9884 73.1108C94.9884 73.1108 93.9212 71.6993 92.3969 71.1896C92.3969 71.1896 87.5037 76.0398 79.9816 74.2705Z" fill="#163C3F"/>
<path fill-rule="evenodd" clip-rule="evenodd" d="M28.4874 90.7795C28.4874 90.7795 28.8368 78.5045 33.5188 71.6671C33.5188 71.6671 43.7642 75.5736 47.0254 71.5191C47.0254 71.5191 51.0022 73.6625 51.5641 78.252C51.5641 78.252 52.0083 80.3798 49.5915 85.2146C49.5915 85.2146 49.8918 75.8072 41.9407 76.9595C41.9407 76.9595 31.3345 76.9511 28.4874 90.7795Z" fill="#163C3F"/>
<path fill-rule="evenodd" clip-rule="evenodd" d="M43.8342 107.635C43.8342 107.635 31.5881 103.197 28.4979 92.2387C28.4979 92.2387 27.1856 107.066 45.0709 118.024C45.0709 118.024 43.963 111.148 43.8342 107.635Z" fill="#163C3F"/>
<path fill-rule="evenodd" clip-rule="evenodd" d="M93.103 91.3839C93.103 91.3839 93.3389 80.3968 88.6569 73.5594C88.6569 73.5594 81.3379 76.7985 74.4716 71.4795C74.4716 71.4795 70.4946 73.2834 69.9912 78.7393C69.9912 78.7393 69.5423 81.5323 72.1743 85.175C72.1743 85.175 71.6986 76.4115 79.6497 77.5639C79.6497 77.5639 90.2559 77.5555 93.103 91.3839Z" fill="#163C3F"/>
<path fill-rule="evenodd" clip-rule="evenodd" d="M77.7892 108.827C77.7892 108.827 90.0489 103.796 93.1391 92.8369C93.1391 92.8369 94.3467 107.554 76.4614 118.512C76.4614 118.512 77.6605 112.339 77.7892 108.827Z" fill="#163C3F"/>
<path d="M46.9116 123.128C47.7779 123.128 48.4802 121.374 48.4802 119.211C48.4802 117.048 47.7779 115.294 46.9116 115.294C46.0454 115.294 45.3431 117.048 45.3431 119.211C45.3431 121.374 46.0454 123.128 46.9116 123.128Z" fill="#FAB84A"/>
<path d="M51.1311 123.091C51.9974 123.091 52.6997 121.337 52.6997 119.174C52.6997 117.011 51.9974 115.257 51.1311 115.257C50.2649 115.257 49.5626 117.011 49.5626 119.174C49.5626 121.337 50.2649 123.091 51.1311 123.091Z" fill="#FAB84A"/>
<path d="M55.4353 123.191C56.3015 123.191 57.0038 121.437 57.0038 119.274C57.0038 117.111 56.3015 115.357 55.4353 115.357C54.569 115.357 53.8667 117.111 53.8667 119.274C53.8667 121.437 54.569 123.191 55.4353 123.191Z" fill="#FAB84A"/>
<path d="M66.1455 123.306C67.0118 123.306 67.7141 121.553 67.7141 119.39C67.7141 117.226 67.0118 115.473 66.1455 115.473C65.2793 115.473 64.577 117.226 64.577 119.39C64.577 121.553 65.2793 123.306 66.1455 123.306Z" fill="#FAB84A"/>
<path d="M70.383 123.29C71.2492 123.29 71.9515 121.536 71.9515 119.373C71.9515 117.21 71.2492 115.456 70.383 115.456C69.5167 115.456 68.8144 117.21 68.8144 119.373C68.8144 121.536 69.5167 123.29 70.383 123.29Z" fill="#FAB84A"/>
<path d="M74.7198 123.34C75.586 123.34 76.2884 121.586 76.2884 119.423C76.2884 117.26 75.586 115.506 74.7198 115.506C73.8536 115.506 73.1513 117.26 73.1513 119.423C73.1513 121.586 73.8536 123.34 74.7198 123.34Z" fill="#FAB84A"/>
</svg>
