<svg width="456" height="69" viewBox="0 0 456 69" fill="none" xmlns="http://www.w3.org/2000/svg">
<path d="M100.823 36.0669C99.7837 33.183 93.2873 31.7411 93.2873 31.7411C92.1179 30.6924 93.4172 29.5127 93.4172 29.5127C93.9369 28.7262 94.9763 27.5464 94.9763 27.5464C93.2873 28.3329 91.3383 28.2019 91.3383 28.2019C90.8186 27.8086 91.5982 27.6775 91.5982 27.6775C96.2756 25.5802 95.626 20.2058 95.626 20.2058C94.0668 21.5166 91.4683 21.1234 91.4683 21.1234C89.6492 20.8612 89.6492 19.2882 89.6492 19.2882C89.9091 17.453 92.3778 16.7976 92.3778 16.7976C89.6492 12.9962 81.5936 14.176 81.5936 14.176C83.2827 8.53937 80.6841 5.13121 80.6841 5.13121C71.7189 13.9138 56.2573 14.5692 56.2573 14.5692C55.8675 14.5692 54.958 13.7827 54.958 13.7827C53.3989 12.0786 54.3084 8.53937 54.3084 8.53937C53.0091 9.32587 51.8397 12.603 51.8397 12.603C51.0602 13.6516 50.8003 12.0786 50.8003 12.0786C50.2806 8.01504 47.682 6.31095 47.682 6.31095C48.3316 8.53937 47.2922 12.0786 47.2922 12.0786C46.7725 13.1273 46.1228 12.734 46.1228 12.734C44.3038 11.8165 44.8235 9.19479 44.8235 9.19479C41.4454 11.03 41.4454 14.176 41.4454 14.176C28.1925 13.3895 19.8771 5.00012 19.8771 5.00012C18.058 9.19479 19.2274 13.2584 19.2274 13.2584C17.0186 11.6854 14.0302 12.0786 14.0302 12.0786C16.6288 14.5692 13.6404 15.0935 13.6404 15.0935C7.92353 14.8314 6.49431 17.7152 6.49431 17.7152C7.53375 18.1084 8.44325 19.5504 8.44325 19.5504C9.35276 21.9099 7.92353 22.5653 7.92353 22.5653C5.84466 23.6139 3.63586 20.2058 3.63586 20.2058C3.24607 27.2843 7.79361 28.3329 7.79361 28.3329C7.01403 29.2505 3.376 28.7262 3.376 28.7262C6.62424 30.2992 6.36438 31.7411 6.36438 31.7411C5.97459 33.183 3.63586 33.0519 3.63586 33.0519C1.81685 33.3141 0.51755 34.4939 0.51755 34.4939C4.80523 35.8047 4.6753 38.9507 4.6753 38.9507C2.33656 41.1791 0.25769 38.5574 0.25769 38.5574C1.1672 43.9319 5.84466 44.4562 5.84466 44.4562C7.14396 45.2427 6.23445 45.767 6.23445 45.767C5.71473 46.4224 3.89572 48.2576 3.89572 48.2576C2.72635 49.3063 2.72635 52.1901 2.72635 52.1901C3.63586 51.1414 7.01403 50.3549 7.01403 50.3549C10.2623 50.2239 9.48269 53.1077 9.48269 53.1077C9.48269 54.4185 6.8841 57.0402 6.8841 57.0402C8.70311 58.0888 13.1207 58.0888 13.1207 58.0888C15.3295 58.0888 15.1996 59.0064 15.1996 59.0064C15.3295 60.9727 13.2506 63.4633 13.2506 63.4633C14.6799 62.1524 19.4873 61.1038 19.4873 61.1038C21.9559 60.8416 21.1763 62.1524 21.3063 62.1524C20.7866 65.2984 21.9559 68.0512 22.0859 68.4444C23.1253 65.1673 25.464 63.9876 25.7239 63.8565C27.5429 63.2011 27.283 64.7741 27.283 65.0363C27.8028 65.4295 30.2714 67.0025 34.0394 65.9538C36.1183 65.4295 38.5869 64.5119 40.7957 62.8078C41.9651 62.0214 43.3943 60.7105 44.8235 58.7443C45.4732 57.8267 46.2528 56.778 46.9024 55.4672H47.0323C48.3316 53.2388 49.3711 50.486 50.1506 47.0779C50.1506 47.0779 50.9302 51.1414 52.8792 55.4672H53.3989C53.3989 55.4672 56.5172 61.497 60.9348 64.1187C65.8721 67.1336 67.951 68.0512 72.2387 67.5268C72.8883 67.3958 73.2781 67.3958 73.408 67.2647C73.2781 67.1336 73.2781 67.0025 73.1482 66.8714C74.4475 64.9052 75.6168 65.8228 75.6168 65.8228C76.2665 66.3471 76.1366 67.3958 76.1366 67.3958C79.2549 66.0849 79.7746 62.1524 79.7746 62.1524C80.6841 60.4483 81.9834 61.497 81.9834 61.497C83.4126 62.1524 83.9323 64.3808 83.9323 64.3808C85.1017 61.3659 84.3221 58.351 84.3221 58.351C84.0623 57.1713 84.8418 57.5645 84.8418 57.5645C90.4288 58.7443 91.988 57.3023 91.988 57.3023C90.039 56.3848 89.7792 53.5009 89.7792 53.5009C89.9091 51.2725 91.988 51.7969 91.988 51.7969C94.0668 52.1901 95.2362 53.632 95.2362 53.632C95.626 50.0928 92.7675 47.2089 92.7675 47.2089C92.3778 46.0292 93.1573 45.5049 93.1573 45.5049C98.4844 43.5386 98.4845 40.5237 98.4845 40.5237C95.3661 41.1791 94.7165 38.5574 94.7165 38.5574C96.5355 34.756 100.823 36.0669 100.823 36.0669Z" fill="#0A9C9A"/>
<path d="M50.4112 41.6993C47.4228 42.748 44.4344 48.5157 44.4344 48.5157C44.8242 54.0212 50.2813 59.0023 50.4112 59.1334C50.5411 59.0023 55.7383 54.0212 56.1281 48.5157C56.1281 48.5157 53.2697 42.748 50.4112 41.6993Z" fill="#0A5B59"/>
<path d="M44.567 49.6977C44.567 49.6977 47.4255 44.4543 50.2839 43.5367V59.2667C50.4139 59.2667 44.9568 54.8099 44.567 49.6977Z" fill="#FAB84A"/>
<path d="M55.867 49.6977C55.867 49.6977 53.1385 44.4543 50.28 43.5367V59.2667C50.28 59.2667 55.4772 54.6788 55.867 49.6977Z" fill="#E9934C"/>
<path d="M27.6766 56.2534C37.4357 56.2534 45.3471 48.2718 45.3471 38.4261C45.3471 28.5803 37.4357 20.5988 27.6766 20.5988C17.9175 20.5988 10.0062 28.5803 10.0062 38.4261C10.0062 48.2718 17.9175 56.2534 27.6766 56.2534Z" fill="#0A5B59"/>
<path d="M28.7122 56.3806C37.5384 56.3806 44.6935 48.7512 44.6935 39.3398C44.6935 29.9284 37.5384 22.299 28.7122 22.299C19.8859 22.299 12.7308 29.9284 12.7308 39.3398C12.7308 48.7512 19.8859 56.3806 28.7122 56.3806Z" fill="#F2EEE3"/>
<path d="M73.1519 56.2534C82.911 56.2534 90.8223 48.2718 90.8223 38.4261C90.8223 28.5803 82.911 20.5988 73.1519 20.5988C63.3928 20.5988 55.4814 28.5803 55.4814 38.4261C55.4814 48.2718 63.3928 56.2534 73.1519 56.2534Z" fill="#0A5B59"/>
<path d="M71.9806 56.3806C80.8069 56.3806 87.9619 48.7512 87.9619 39.3398C87.9619 29.9284 80.8069 22.299 71.9806 22.299C63.1544 22.299 55.9993 29.9284 55.9993 39.3398C55.9993 48.7512 63.1544 56.3806 71.9806 56.3806Z" fill="#F2EEE3"/>
<path d="M32.3509 49.9616C37.5175 49.9616 41.7058 45.736 41.7058 40.5236C41.7058 35.3111 37.5175 31.0856 32.3509 31.0856C27.1843 31.0856 22.996 35.3111 22.996 40.5236C22.996 45.736 27.1843 49.9616 32.3509 49.9616Z" fill="#FAB84A"/>
<path d="M32.3514 47.4706C36.2263 47.4706 39.3676 44.3014 39.3676 40.3921C39.3676 36.4827 36.2263 33.3136 32.3514 33.3136C28.4765 33.3136 25.3352 36.4827 25.3352 40.3921C25.3352 44.3014 28.4765 47.4706 32.3514 47.4706Z" fill="#201E1E"/>
<path d="M28.4522 38.1615C29.6721 38.1615 30.661 37.1638 30.661 35.9331C30.661 34.7024 29.6721 33.7047 28.4522 33.7047C27.2323 33.7047 26.2434 34.7024 26.2434 35.9331C26.2434 37.1638 27.2323 38.1615 28.4522 38.1615Z" fill="#FEFEFE"/>
<path d="M68.8607 49.9616C74.0272 49.9616 78.2156 45.736 78.2156 40.5236C78.2156 35.3111 74.0272 31.0856 68.8607 31.0856C63.6941 31.0856 59.5057 35.3111 59.5057 40.5236C59.5057 45.736 63.6941 49.9616 68.8607 49.9616Z" fill="#FAB84A"/>
<path d="M68.9925 47.5975C72.8674 47.5975 76.0087 44.4284 76.0087 40.5191C76.0087 36.6097 72.8674 33.4406 68.9925 33.4406C65.1176 33.4406 61.9763 36.6097 61.9763 40.5191C61.9763 44.4284 65.1176 47.5975 68.9925 47.5975Z" fill="#201E1E"/>
<path d="M65.0933 38.1615C66.3132 38.1615 67.3021 37.1638 67.3021 35.9331C67.3021 34.7024 66.3132 33.7047 65.0933 33.7047C63.8734 33.7047 62.8845 34.7024 62.8845 35.9331C62.8845 37.1638 63.8734 38.1615 65.0933 38.1615Z" fill="#FEFEFE"/>
<path d="M34.8211 65.6917C34.8211 65.6917 31.313 67.0025 27.1553 64.7741C27.1553 64.7741 24.037 63.4633 22.218 68.9688C22.088 68.9688 20.0092 67.1336 20.7887 62.6768C20.7887 62.6768 21.3085 61.497 18.9697 61.7592C18.9697 61.7592 13.3827 63.5943 12.6032 64.643C12.6032 64.643 14.682 61.497 14.5521 59.3997C14.5521 59.3997 14.5521 58.6132 12.4732 58.7443C12.4732 58.7443 8.05563 58.7443 6.23662 57.4334C6.49648 57.4334 8.83521 55.3361 9.09507 53.5009C9.09507 53.5009 9.61479 50.7482 7.14613 50.8793C7.14613 50.8793 4.15775 50.8793 2.33873 52.7144C2.33873 52.7144 1.68908 49.0441 5.7169 46.0292C5.7169 46.0292 6.62641 45.5049 5.58697 44.9805C5.58697 44.9805 1.03944 43.5386 0 38.1642C0 38.1642 1.81901 40.5237 3.63803 39.6061C3.63803 39.6061 4.02782 39.475 4.15775 38.9507C4.15775 38.9507 4.02782 35.8047 0 34.4939C0 34.4939 1.2993 33.0519 4.28768 32.7898C4.28768 32.7898 6.36655 32.1344 5.32711 30.6924C5.32711 30.6924 3.89789 29.1194 2.98838 28.5951C2.98838 28.5951 6.23662 28.7262 7.27606 28.0708C7.14613 28.0708 2.72852 27.5464 3.5081 19.9436C3.5081 19.9436 6.75634 24.6626 8.18556 21.3855C8.05563 21.1234 8.70528 19.1571 5.84683 17.5841C5.84683 17.5841 7.66585 14.7003 13.1229 14.5692C13.1229 14.5692 15.7215 13.9138 13.5127 11.6854C13.5127 11.6854 17.1507 11.03 18.7099 12.603C18.7099 12.4719 18.0602 9.32587 19.7493 5.00012C19.7493 5.00012 19.2296 12.8651 20.3989 15.88C20.269 15.749 18.45 13.2584 16.1113 12.3408C16.1113 12.3408 17.2806 16.4044 13.1229 16.5354C13.1229 16.5354 9.74472 15.88 8.18556 17.1909C8.18556 17.1909 10.6542 21.7788 8.70528 23.745C8.70528 23.745 6.88627 25.318 4.67746 23.0896C4.67746 23.0896 4.41761 26.7599 9.225 27.8086C9.225 27.8086 8.44542 29.7749 5.97676 29.7749C5.97676 29.7749 8.05563 31.7411 6.49648 33.3141C6.49648 33.3141 4.93732 34.6249 2.98838 34.6249C2.98838 34.6249 6.36655 36.5912 5.97676 39.7372C5.97676 39.7372 4.93732 42.2278 2.07887 41.3102C2.07887 41.3102 3.89789 42.8832 6.88627 43.9319C6.88627 43.9319 8.70528 45.1116 7.9257 46.4224C7.9257 46.4224 5.06725 47.4711 4.28768 50.3549C4.28768 50.3549 8.44542 48.2576 10.3944 49.8306C10.3944 49.8306 11.6937 53.632 8.57535 56.778C8.57535 56.778 14.682 57.8267 17.1507 57.4334C17.1507 57.4334 16.3711 60.8416 15.7215 61.7592C16.1113 61.6281 20.6588 59.6619 23.5173 60.3173C23.5173 60.3173 21.4384 64.3809 21.6982 65.8228C21.6982 65.8228 25.3363 62.0214 28.3246 62.5457C28.4546 62.4146 27.4151 64.7741 34.8211 65.6917Z" fill="#0A5B59"/>
<path d="M65.6152 66.3471C65.6152 66.3471 68.2138 68.5755 73.8008 67.2647C73.8008 67.2647 74.5804 67.0025 75.1001 66.6093C75.1001 66.6093 76.1395 65.6917 76.1395 67.5268C76.1395 67.5268 79.9075 66.7403 80.4272 62.6768C80.4272 62.6768 80.6871 61.1038 82.3762 62.2835C82.3762 62.2835 83.2857 63.07 83.8054 65.1673C83.8054 65.1673 85.8843 61.7592 84.8448 58.4821C84.8448 58.4821 84.8448 57.8267 85.4945 57.9578C85.4945 57.9578 90.3018 59.3997 92.5107 57.4334C92.5107 57.4334 89.9121 55.9915 90.5617 52.5834C90.5617 52.5834 91.0814 51.5347 93.0304 52.1901C93.0304 52.1901 95.1092 52.9766 95.3691 54.0253C95.3691 54.0253 96.1487 50.0928 93.1603 47.2089C93.1603 47.2089 92.3807 46.2914 93.68 45.6359C93.68 45.6359 98.0976 43.8008 98.7473 40.3926C98.7473 40.3926 96.0188 41.5724 94.9793 38.6885C94.9793 38.6885 96.4085 35.0182 100.826 36.1979C100.826 36.1979 99.5269 32.9209 93.4202 31.7411C93.4202 31.7411 92.2508 31.3479 93.4202 29.6438L95.3691 27.1532C95.3691 27.1532 92.6406 28.5951 91.3413 27.9397C91.3413 27.9397 90.9515 27.8086 91.6011 27.5464C91.6011 27.5464 96.0188 25.5802 95.499 19.6814C95.499 19.6814 91.6011 22.5653 89.7821 19.8125C89.7821 19.8125 89.1325 18.1084 92.7705 16.5354C92.7705 16.5354 91.0814 12.8651 81.8564 13.9138C81.8564 13.9138 83.4156 8.80154 80.4272 5.00012C80.4272 5.00012 82.8959 13.1273 79.7776 16.0111C79.7776 16.0111 85.6244 13.5205 91.3413 16.2733C91.3413 16.2733 87.8332 16.2733 89.0026 20.7301C89.0026 20.7301 90.3018 22.8274 94.4596 21.9099C94.4596 21.9099 92.2508 26.3667 89.6522 27.9397C89.6522 27.9397 91.6011 29.1194 92.9004 28.9884C92.7705 29.2505 91.2114 31.7411 90.6916 32.0033C90.6916 32.0033 94.7195 32.5276 97.448 34.756C97.448 34.756 94.8494 35.4114 93.68 38.9507C93.68 38.9507 95.1092 41.5724 96.5385 41.9656C96.5385 41.8345 93.5501 44.8494 91.0814 45.6359C91.2114 45.8981 93.9399 50.3549 94.4596 52.059C94.4596 52.059 92.2508 50.0928 89.5223 51.6658C89.5223 51.6658 88.4828 54.8118 89.7821 57.1713C89.7821 57.1713 86.274 57.5645 83.6754 56.5159C83.6754 56.5159 83.9353 61.2349 83.5455 62.4146C83.5455 62.4146 81.3367 60.4483 79.2578 60.7105C79.2578 60.7105 78.8681 64.9052 77.3089 65.4295C77.3089 65.4295 76.3994 64.2498 75.23 63.8565C75.8797 63.8565 71.8519 67.9201 65.6152 66.3471Z" fill="#0A5B59"/>
<path d="M128.059 16.6526C125.925 16.6365 123.637 16.8825 121.617 17.6641C121.617 17.6641 111.305 21.6569 110.362 32.9146C110.362 32.9146 109.087 42.2313 113.301 48.2761C113.301 48.2761 116.553 53.7261 123.453 55.2947C123.453 55.2947 137.645 59.3724 145.094 46.5104C145.094 46.5104 145.733 45.3635 144.93 44.4207L140.55 41.7588C140.55 41.7588 139.332 41.232 138.39 42.5907C138.39 42.5907 136.39 46.3137 133.018 47.4509C133.018 47.4509 128.274 49.1763 124.354 47.4509C124.354 47.4509 119.101 45.7255 118.337 37.2358H144.819C144.819 37.2358 146.133 37.3343 146.329 35.805C146.329 35.805 147.232 21.7124 135.644 17.6641C135.644 17.6641 132.133 16.6832 128.059 16.6526ZM128.66 23.7732C131.757 23.7395 133.759 24.818 133.759 24.818C138.194 26.9253 138.083 31.75 138.083 31.75H118.845C120.342 26.1489 123.447 24.8734 123.447 24.8734C125.375 24.0728 127.148 23.7896 128.66 23.7732Z" fill="#0A9C9A"/>
<path d="M179.359 0C179.359 0 178.335 0.0554565 178.113 1.38641V23.7265C178.113 23.7265 176.299 19.1387 171.79 17.5309C171.79 17.5309 165.95 15.5317 160.775 17.5708C160.775 17.5708 154.345 19.3753 151.365 29.6492C151.365 29.6492 149.757 34.7937 151.17 42.4087C151.17 42.4087 152.384 50.0789 159.755 54.4316C159.755 54.4316 165.009 57.6079 172.693 54.4316C172.693 54.4316 176.039 53.1275 178.168 49.6624V52.8634C178.168 52.8634 178.103 54.0781 179.357 54.2742H184.846C184.846 54.2742 186.101 54.079 186.061 52.7458V1.44187C186.061 1.44187 186.068 0.305012 184.682 0H179.359ZM168.521 23.9439C174.094 23.9439 178.612 29.5417 178.612 36.4482C178.612 43.3548 174.094 48.9548 168.521 48.9548C162.948 48.9548 158.431 43.3548 158.431 36.4482C158.431 29.5417 162.948 23.9439 168.521 23.9439Z" fill="#0A9C9A"/>
<path d="M193.431 17.8845H198.488C198.488 17.8845 199.782 17.7277 199.939 19.3746L199.984 40.6503C199.984 40.6503 200.095 46.695 205.196 48.026C205.196 48.026 209.077 48.9965 212.459 48.026C212.459 48.026 217.698 46.8614 217.726 40.5948V19.4104C217.726 19.4104 217.56 17.9408 219.057 17.8854H224.185C224.185 17.8854 225.71 17.7467 225.765 19.1886V38.1824C225.765 38.1824 225.793 49.6619 218.918 53.4884C218.918 53.4884 209.825 58.7568 198.626 53.4884C198.626 53.4884 193.026 51.2147 192.084 39.9016V19.2163C192.084 19.2163 192.098 17.9237 193.431 17.8845Z" fill="#0A9C9A"/>
<path d="M258.672 25.0113V19.5766C258.672 19.5766 258.756 18.8002 257.536 18.2456C257.536 18.2456 249.109 14.1973 239.628 18.8557C239.628 18.8557 232.911 21.8057 230.833 30.0013C230.833 30.0013 229.107 37.184 230.833 42.3969C230.833 42.3969 232.781 51.0482 240.598 54.1537C240.598 54.1537 247.635 57.9136 257.674 53.8764C257.674 53.8764 258.697 53.6196 258.672 52.4346V47.1377C258.672 47.1377 258.315 45.4907 256.767 45.8829C256.767 45.8829 256.296 46.0201 255.747 46.4122C255.747 46.4122 253.905 47.7455 251.709 48.0592C251.709 48.0592 247.122 48.9023 243.888 47.0005C243.888 47.0005 239.323 45.2807 238.325 37.7386C238.325 37.7386 237.965 34.6053 238.325 33.3021C238.325 33.3021 239.34 25.9623 246.005 24.433C246.005 24.433 249.377 23.5311 253.493 24.5506C253.493 24.5506 255.568 25.3995 256.261 25.9818C256.261 25.9818 257.924 27.0078 258.672 25.0113Z" fill="#0A9C9A"/>
<path d="M276.556 16.7661C274.884 16.7578 273.025 16.9813 271.246 17.6823C271.246 17.6823 264.818 19.4867 261.839 29.7607C261.839 29.7607 260.229 34.9051 261.642 42.5201C261.642 42.5201 262.858 50.1903 270.229 54.543C270.229 54.543 275.48 57.7193 283.164 54.543C283.164 54.543 286.51 53.239 288.64 49.7738V52.9747C288.64 52.9747 288.574 54.1917 289.829 54.3878H295.317C295.317 54.3878 296.572 54.1904 296.533 52.8572V19.3016C296.533 19.3016 296.542 18.1647 295.156 17.8597H289.833C289.833 17.8597 288.806 17.9151 288.585 19.2461V23.8402C288.585 23.8402 286.772 19.2523 282.264 17.6445C282.264 17.6445 279.748 16.7819 276.556 16.7661ZM278.993 24.0553C284.566 24.0553 289.084 29.6553 289.084 36.5618C289.084 43.4684 284.566 49.0662 278.993 49.0662C273.42 49.0662 268.902 43.4684 268.902 36.5618C268.902 29.6553 273.42 24.0553 278.993 24.0553Z" fill="#0A9C9A"/>
<path d="M330.256 24.9888V19.554C330.256 19.554 330.339 18.7776 329.119 18.2231C329.119 18.2231 320.692 14.1747 311.211 18.8331C311.211 18.8331 304.495 21.7831 302.417 29.9787C302.417 29.9787 300.691 37.1615 302.417 42.3744C302.417 42.3744 304.364 51.0256 312.182 54.1311C312.182 54.1311 319.219 57.891 329.258 53.8538C329.258 53.8538 330.28 53.597 330.256 52.412V47.1151C330.256 47.1151 329.899 45.4681 328.35 45.8603C328.35 45.8603 327.88 45.9975 327.331 46.3897C327.331 46.3897 325.488 47.7229 323.293 48.0366C323.293 48.0366 318.706 48.8797 315.472 46.9778C315.472 46.9778 310.906 45.2581 309.909 37.716C309.909 37.716 309.548 34.5827 309.909 33.2795C309.909 33.2795 310.924 25.9397 317.589 24.4104C317.589 24.4104 320.96 23.5085 325.077 24.528C325.077 24.528 327.151 25.377 327.844 25.9592C327.844 25.9592 329.507 26.9852 330.256 24.9888Z" fill="#DF2B3C"/>
<path fill-rule="evenodd" clip-rule="evenodd" d="M377.605 16.5972C366.937 16.5972 358.288 25.4467 358.288 36.3619C358.288 47.277 366.937 56.1243 377.605 56.1243C388.272 56.1243 396.921 47.277 396.921 36.3619C396.921 25.4467 388.272 16.5972 377.605 16.5972ZM377.605 24.0017C383.648 24.0017 388.549 29.5356 388.549 36.3619C388.549 43.1881 383.648 48.722 377.605 48.722C371.561 48.722 366.66 43.1881 366.66 36.3619C366.66 29.5356 371.561 24.0017 377.605 24.0017Z" fill="#DF2B3C"/>
<path d="M335.681 20.8246V54.0985C335.681 54.0985 335.57 55.7345 337.344 55.8177H342.445C342.445 55.8177 343.692 55.8176 343.831 54.3481V37.4914C343.831 37.4914 343.7 28.433 347.934 25.9626C347.934 25.9626 350.443 24.5901 354.481 25.8449C354.481 25.8449 355.814 26.4331 356.598 25.5704L358.48 21.1001C358.48 21.1001 358.911 19.4139 357.696 19.1002C357.696 19.1002 351.893 16.3552 347.267 19.9236C347.267 19.9236 344.954 21.5707 343.896 25.0214V20.7959C343.896 20.7959 343.943 19.3077 342.484 19.2963H337.074C337.074 19.2963 335.973 19.2943 335.681 20.8246Z" fill="#DF2B3C"/>
<path d="M417.765 25.2887C417.765 25.2887 418.486 26.2592 419.955 25.5105L423.171 23.0705C423.171 23.0705 424.03 22.2941 423.365 21.2404C423.365 21.2404 420.893 17.1394 415.091 16.6688C415.091 16.6688 410.936 16.3159 408.583 17.0217C408.583 17.0217 401.095 18.3942 399.723 25.2958C399.723 25.2958 399.253 27.2957 399.841 29.9622C399.841 29.9622 400.586 34.2757 406.466 36.903C406.466 36.903 414.023 40.3452 414.411 40.5115C414.411 40.5115 418.68 42.2307 417.848 45.7244C417.848 45.7244 417.571 48.7191 414.189 49.3846C414.189 49.3846 408.035 50.9373 405.152 46.0017C405.152 46.0017 404.428 44.432 403.016 44.785L398.9 47.0986C398.9 47.0986 397.724 47.8436 398.469 49.1573C398.469 49.1573 400.155 52.3924 403.448 54.1178C403.448 54.1178 408.427 57.4118 417.208 55.1766C417.208 55.1766 423.285 53.1767 424.814 49.1769C424.814 49.1769 426.5 45.883 425.441 41.1381C425.441 41.1381 424.422 37.0599 419.561 34.6679C419.561 34.6679 412.857 31.6876 411.955 31.4131C411.955 31.4131 407.486 29.5309 407.564 27.178C407.564 27.178 406.819 24.59 409.916 23.3351C409.916 23.3351 412.308 22.1587 415.405 23.3351C415.405 23.3351 416.91 23.9484 417.765 25.2887Z" fill="#DF2B3C"/>
<path d="M447.548 25.6498C447.548 25.6498 448.269 26.6203 449.738 25.8717L452.953 23.4316C452.953 23.4316 453.813 22.6552 453.148 21.6015C453.148 21.6015 450.676 17.5004 444.874 17.0299C444.874 17.0299 440.719 16.677 438.366 17.3828C438.366 17.3828 430.878 18.7553 429.506 25.6569C429.506 25.6569 429.036 27.6568 429.624 30.3233C429.624 30.3233 430.369 34.6368 436.249 37.2641C436.249 37.2641 443.805 40.7063 444.194 40.8727C444.194 40.8727 448.463 42.5918 447.631 46.0856C447.631 46.0856 447.354 49.0802 443.972 49.7457C443.972 49.7457 437.818 51.2985 434.935 46.3628C434.935 46.3628 434.211 44.7932 432.799 45.1461L428.683 47.4597C428.683 47.4597 427.507 48.2048 428.252 49.5184C428.252 49.5184 429.937 52.7535 433.231 54.4789C433.231 54.4789 438.209 57.7729 446.991 55.5377C446.991 55.5377 453.068 53.5378 454.597 49.538C454.597 49.538 456.283 46.2441 455.224 41.4992C455.224 41.4992 454.205 37.421 449.343 35.029C449.343 35.029 442.64 32.0487 441.738 31.7742C441.738 31.7742 437.269 29.892 437.347 27.5391C437.347 27.5391 436.602 24.951 439.699 23.6962C439.699 23.6962 442.091 22.5198 445.188 23.6962C445.188 23.6962 446.693 24.3095 447.548 25.6498Z" fill="#DF2B3C"/>
</svg>
