<svg width="1920" height="1080" viewBox="0 0 1920 1080" fill="none" xmlns="http://www.w3.org/2000/svg">
<g clip-path="url(#clip0_5887_1664)">
<rect width="1920" height="1080" fill="url(#paint0_linear_5887_1664)"/>
<g filter="url(#filter0_f_5887_1664)">
<path d="M1079.01 836C1056.39 836 1037.23 850.807 1030.68 871.257C1027.52 870.446 1024.2 870.015 1020.78 870.015C998.81 870.015 981 887.826 981 909.796C981 931.572 998.497 949.257 1020.2 949.568L1020.21 949.576H1173.48C1173.51 949.576 1173.54 949.577 1173.56 949.577C1173.59 949.577 1173.61 949.576 1173.64 949.576H1175.29L1175.31 949.531C1192.97 948.622 1207 934.019 1207 916.138C1207 897.67 1192.03 882.699 1173.56 882.699C1168.02 882.699 1162.79 884.05 1158.19 886.438C1152.29 876.927 1141.76 870.592 1129.75 870.592C1128.87 870.592 1128.01 870.625 1127.16 870.69C1120.44 850.534 1101.42 836 1079.01 836Z" fill="#F7F9EC" fill-opacity="0.4"/>
</g>
<g filter="url(#filter1_f_5887_1664)">
<path d="M26 447C65.2386 447 98.4774 472.682 109.828 508.153C115.318 506.747 121.072 506 127 506C165.108 506 196 536.892 196 575C196 612.771 165.651 643.452 128.009 643.991L128 644H-141L-141.028 643.922C-171.653 642.347 -196 617.017 -196 586C-196 553.967 -170.033 528 -138 528C-128.384 528 -119.315 530.341 -111.331 534.482C-101.105 517.987 -82.8355 507 -62 507C-60.4884 507 -58.9903 507.057 -57.5078 507.171C-45.8621 472.209 -12.8754 447 26 447Z" fill="#F7F9EC" fill-opacity="0.4"/>
</g>
<g filter="url(#filter2_f_5887_1664)">
<path d="M1738.19 44.7266C1759.62 44.7268 1777.76 58.7478 1783.96 78.1123C1786.95 77.3443 1790.09 76.9355 1793.33 76.9355C1814.14 76.9358 1831 93.801 1831 114.604C1831 135.223 1814.43 151.968 1793.89 152.265L1793.88 152.272H1647.03L1647.01 152.229C1630.29 151.369 1617 137.542 1617 120.609C1617 103.122 1631.18 88.9464 1648.66 88.9463C1653.91 88.9463 1658.86 90.2248 1663.22 92.4863C1668.81 83.4807 1678.78 77.4814 1690.15 77.4814C1690.98 77.4815 1691.8 77.5132 1692.61 77.5752C1698.96 58.4887 1716.97 44.7266 1738.19 44.7266Z" fill="#F7F9EC" fill-opacity="0.4"/>
</g>
<g opacity="0.6">
<path d="M1738.68 568.717C1736.89 571.481 1733.2 572.271 1730.44 570.482C1727.68 568.693 1726.89 565.002 1728.68 562.238C1730.47 559.475 1734.16 558.685 1736.92 560.474C1739.68 562.263 1740.47 565.953 1738.68 568.717Z" fill="white"/>
<path d="M1276.93 -28.9142C1275.14 -26.1505 1271.45 -25.3603 1268.69 -27.1494C1265.93 -28.9384 1265.14 -32.6292 1266.93 -35.393C1268.72 -38.1568 1272.4 -38.9469 1275.17 -37.1579C1277.93 -35.3688 1278.72 -31.678 1276.93 -28.9142Z" fill="white"/>
<path d="M1183.63 209.147C1181.84 211.911 1178.15 212.701 1175.39 210.912C1172.63 209.123 1171.84 205.432 1173.63 202.668C1175.41 199.904 1179.1 199.114 1181.86 200.903C1184.63 202.692 1185.41 206.383 1183.63 209.147Z" fill="white"/>
<path d="M589.687 926.249C587.899 929.013 584.211 929.803 581.449 928.014C578.688 926.225 577.898 922.535 579.686 919.771C581.473 917.007 585.161 916.217 587.923 918.006C590.685 919.795 591.474 923.486 589.687 926.249Z" fill="white"/>
<path d="M775.441 1039.48C773.653 1042.25 769.965 1043.04 767.203 1041.25C764.442 1039.46 763.652 1035.77 765.44 1033C767.228 1030.24 770.916 1029.45 773.677 1031.24C776.439 1033.03 777.229 1036.72 775.441 1039.48Z" fill="white"/>
<path d="M1209.89 1073.57C1208.1 1076.33 1204.42 1077.12 1201.65 1075.33C1198.89 1073.54 1198.1 1069.85 1199.89 1067.09C1201.68 1064.32 1205.37 1063.53 1208.13 1065.32C1210.89 1067.11 1211.68 1070.8 1209.89 1073.57Z" fill="white"/>
<path d="M1270.86 939.086C1269.07 941.849 1265.39 942.64 1262.62 940.851C1259.86 939.062 1259.07 935.371 1260.86 932.607C1262.65 929.843 1266.34 929.053 1269.1 930.842C1271.86 932.631 1272.65 936.322 1270.86 939.086Z" fill="white"/>
<path d="M1611.33 396.271C1609.54 399.035 1605.86 399.825 1603.09 398.036C1600.33 396.247 1599.54 392.556 1601.33 389.793C1603.12 387.029 1606.81 386.239 1609.57 388.028C1612.33 389.817 1613.12 393.508 1611.33 396.271Z" fill="white"/>
<path d="M1056.28 36.7012C1054.49 39.4649 1050.8 40.2551 1048.04 38.466C1045.28 36.677 1044.49 32.9862 1046.28 30.2224C1048.07 27.4586 1051.75 26.6685 1054.52 28.4576C1057.28 30.2466 1058.07 33.9374 1056.28 36.7012Z" fill="white"/>
<path d="M1528.5 787.615C1526.71 790.379 1523.02 791.169 1520.26 789.38C1517.5 787.591 1516.71 783.9 1518.49 781.136C1520.28 778.372 1523.97 777.582 1526.73 779.371C1529.49 781.16 1530.28 784.851 1528.5 787.615Z" fill="white"/>
<path d="M251.707 -39.5044C249.919 -36.7407 246.231 -35.9505 243.469 -37.7396C240.708 -39.5286 239.918 -43.2194 241.706 -45.9832C243.493 -48.7469 247.182 -49.5371 249.943 -47.748C252.705 -45.959 253.494 -42.2682 251.707 -39.5044Z" fill="white"/>
<path d="M1511.19 -133.368C1509.41 -130.604 1505.72 -129.814 1502.96 -131.603C1500.2 -133.392 1499.41 -137.083 1501.19 -139.847C1502.98 -142.611 1506.67 -143.401 1509.43 -141.612C1512.19 -139.823 1512.98 -136.132 1511.19 -133.368Z" fill="white"/>
<path d="M1381.15 337.102C1379.36 339.866 1375.67 340.656 1372.91 338.867C1370.15 337.078 1369.36 333.387 1371.15 330.623C1372.93 327.859 1376.62 327.069 1379.38 328.858C1382.14 330.647 1382.93 334.338 1381.15 337.102Z" fill="white"/>
<path d="M826.093 -22.4683C824.305 -19.7045 820.617 -18.9143 817.856 -20.7034C815.094 -22.4924 814.304 -26.1832 816.092 -28.947C817.88 -31.7108 821.568 -32.5009 824.329 -30.7119C827.091 -28.9228 827.881 -25.232 826.093 -22.4683Z" fill="white"/>
<path d="M223.876 122.363C222.088 125.126 218.4 125.917 215.639 124.128C212.877 122.339 212.087 118.648 213.875 115.884C215.663 113.12 219.351 112.33 222.113 114.119C224.874 115.908 225.664 119.599 223.876 122.363Z" fill="white"/>
<path d="M183.258 234.523C181.47 237.286 177.782 238.076 175.02 236.287C172.259 234.498 171.469 230.808 173.257 228.044C175.045 225.28 178.733 224.49 181.494 226.279C184.256 228.068 185.046 231.759 183.258 234.523Z" fill="white"/>
<path d="M196.063 1036.52C194.275 1039.28 190.587 1040.07 187.826 1038.28C185.064 1036.49 184.275 1032.8 186.062 1030.04C187.85 1027.27 191.538 1026.48 194.3 1028.27C197.061 1030.06 197.851 1033.75 196.063 1036.52Z" fill="white"/>
<path d="M316.675 913.492C314.887 916.256 311.199 917.046 308.437 915.257C305.676 913.468 304.886 909.777 306.674 907.013C308.462 904.25 312.15 903.459 314.911 905.249C317.673 907.038 318.463 910.728 316.675 913.492Z" fill="white"/>
<path d="M156.632 809.038C154.845 811.802 151.157 812.592 148.395 810.803C145.633 809.014 144.844 805.323 146.632 802.56C148.419 799.796 152.107 799.006 154.869 800.795C157.631 802.584 158.42 806.275 156.632 809.038Z" fill="white"/>
<path d="M1065.86 -207.646C1064.07 -204.883 1060.38 -204.092 1057.62 -205.881C1054.86 -207.671 1054.07 -211.361 1055.86 -214.125C1057.65 -216.889 1061.33 -217.679 1064.1 -215.89C1066.86 -214.101 1067.65 -210.41 1065.86 -207.646Z" fill="white"/>
<path d="M1525.11 61.6126C1523.32 64.3763 1519.64 65.1665 1516.87 63.3774C1514.11 61.5883 1513.32 57.8976 1515.11 55.1338C1516.9 52.3701 1520.59 51.5799 1523.35 53.369C1526.11 55.158 1526.9 58.8488 1525.11 61.6126Z" fill="white"/>
<path d="M1571.18 889.83C1569.39 892.593 1565.71 893.384 1562.94 891.594C1560.18 889.805 1559.39 886.115 1561.18 883.351C1562.97 880.587 1566.66 879.797 1569.42 881.586C1572.18 883.375 1572.97 887.066 1571.18 889.83Z" fill="white"/>
<path d="M294.393 62.7102C292.605 65.474 288.917 66.2641 286.155 64.4751C283.394 62.686 282.604 58.9952 284.392 56.2314C286.18 53.4677 289.868 52.6776 292.629 54.4666C295.391 56.2557 296.18 59.9464 294.393 62.7102Z" fill="white"/>
<path d="M1329.67 1358.28C1327.88 1361.04 1324.19 1361.83 1321.43 1360.04C1318.67 1358.25 1317.88 1354.56 1319.67 1351.8C1321.46 1349.03 1325.14 1348.24 1327.91 1350.03C1330.67 1351.82 1331.46 1355.51 1329.67 1358.28Z" fill="white"/>
<path d="M1870.71 598.624C1868.93 601.388 1865.24 602.178 1862.48 600.389C1859.71 598.6 1858.92 594.909 1860.71 592.145C1862.5 589.381 1866.19 588.591 1868.95 590.38C1871.71 592.169 1872.5 595.86 1870.71 598.624Z" fill="white"/>
<path d="M1728.59 779.951C1727.7 781.333 1725.85 781.729 1724.47 780.834C1723.09 779.939 1722.69 778.093 1723.59 776.711C1724.48 775.328 1726.33 774.933 1727.71 775.828C1729.09 776.723 1729.48 778.569 1728.59 779.951Z" fill="white"/>
<path d="M451.802 -47.1685C450.908 -45.7861 449.063 -45.3909 447.682 -46.2858C446.3 -47.1806 445.905 -49.0266 446.8 -50.4089C447.694 -51.7912 449.538 -52.1864 450.92 -51.2916C452.301 -50.3968 452.696 -48.5508 451.802 -47.1685Z" fill="white"/>
<path d="M1439.63 -41.6174C1438.74 -40.235 1436.89 -39.8398 1435.51 -40.7346C1434.13 -41.6295 1433.74 -43.4755 1434.63 -44.8578C1435.52 -46.2402 1437.37 -46.6354 1438.75 -45.7405C1440.13 -44.8457 1440.53 -42.9997 1439.63 -41.6174Z" fill="white"/>
<path d="M117.858 469.102C116.963 470.484 115.119 470.88 113.738 469.985C112.356 469.09 111.961 467.244 112.855 465.862C113.75 464.479 115.594 464.084 116.976 464.979C118.357 465.874 118.752 467.72 117.858 469.102Z" fill="white"/>
<path d="M1051.17 1126.97C1050.28 1128.36 1048.43 1128.75 1047.05 1127.86C1045.67 1126.96 1045.28 1125.11 1046.17 1123.73C1047.06 1122.35 1048.91 1121.96 1050.29 1122.85C1051.67 1123.74 1052.07 1125.59 1051.17 1126.97Z" fill="white"/>
<path d="M572.699 -250.529C571.805 -249.146 569.961 -248.751 568.579 -249.646C567.198 -250.541 566.803 -252.387 567.697 -253.769C568.591 -255.152 570.436 -255.547 571.817 -254.652C573.199 -253.757 573.594 -251.911 572.699 -250.529Z" fill="white"/>
<path d="M603.883 794.607C602.988 795.989 601.144 796.384 599.763 795.49C598.381 794.595 597.986 792.749 598.88 791.366C599.775 789.984 601.619 789.589 603.001 790.484C604.382 791.379 604.777 793.225 603.883 794.607Z" fill="white"/>
<path d="M1650.69 1006.43C1649.79 1007.81 1647.95 1008.21 1646.57 1007.31C1645.19 1006.42 1644.79 1004.57 1645.69 1003.19C1646.58 1001.81 1648.42 1001.41 1649.81 1002.31C1651.19 1003.2 1651.58 1005.05 1650.69 1006.43Z" fill="white"/>
<path d="M373.899 179.311C373.005 180.693 371.16 181.088 369.779 180.193C368.398 179.299 368.003 177.453 368.897 176.07C369.791 174.688 371.636 174.293 373.017 175.188C374.398 176.082 374.793 177.928 373.899 179.311Z" fill="white"/>
<path d="M1568.91 986.592C1568.02 987.974 1566.17 988.369 1564.79 987.474C1563.41 986.58 1563.01 984.734 1563.91 983.351C1564.8 981.969 1566.65 981.574 1568.03 982.469C1569.41 983.363 1569.8 985.209 1568.91 986.592Z" fill="white"/>
<path d="M292.12 159.472C291.226 160.855 289.381 161.25 288 160.355C286.619 159.46 286.224 157.614 287.118 156.232C288.012 154.849 289.857 154.454 291.238 155.349C292.619 156.244 293.014 158.09 292.12 159.472Z" fill="white"/>
<path d="M328.18 301.185C327.286 302.567 325.441 302.962 324.06 302.068C322.678 301.173 322.284 299.327 323.178 297.944C324.072 296.562 325.917 296.167 327.298 297.062C328.679 297.957 329.074 299.803 328.18 301.185Z" fill="white"/>
<path d="M1550.74 1149.98C1549.84 1151.36 1548 1151.76 1546.62 1150.86C1545.24 1149.97 1544.84 1148.12 1545.74 1146.74C1546.63 1145.36 1548.47 1144.96 1549.86 1145.86C1551.24 1146.75 1551.63 1148.6 1550.74 1149.98Z" fill="white"/>
<path d="M1644.86 697.306C1643.97 698.689 1642.12 699.084 1640.74 698.189C1639.36 697.294 1638.97 695.448 1639.86 694.066C1640.75 692.684 1642.6 692.288 1643.98 693.183C1645.36 694.078 1645.76 695.924 1644.86 697.306Z" fill="white"/>
<path d="M387.544 -117.2C386.65 -115.817 384.806 -115.422 383.424 -116.317C382.043 -117.212 381.648 -119.058 382.542 -120.44C383.436 -121.822 385.281 -122.218 386.662 -121.323C388.044 -120.428 388.439 -118.582 387.544 -117.2Z" fill="white"/>
<path d="M53.6001 399.071C52.7059 400.454 50.8613 400.849 49.48 399.954C48.0987 399.059 47.7038 397.213 48.598 395.831C49.4921 394.448 51.3367 394.053 52.718 394.948C54.0993 395.843 54.4942 397.689 53.6001 399.071Z" fill="white"/>
<path d="M1477.98 919.401C1477.09 920.784 1475.24 921.179 1473.86 920.284C1472.48 919.389 1472.08 917.543 1472.98 916.161C1473.87 914.779 1475.72 914.384 1477.1 915.278C1478.48 916.173 1478.87 918.019 1477.98 919.401Z" fill="white"/>
<path d="M201.19 92.282C200.296 93.6643 198.451 94.0595 197.07 93.1647C195.689 92.2699 195.294 90.4239 196.188 89.0415C197.082 87.6592 198.927 87.2639 200.308 88.1588C201.689 89.0536 202.084 90.8996 201.19 92.282Z" fill="white"/>
<path d="M1905.52 666.148C1904.63 667.531 1902.78 667.926 1901.4 667.031C1900.02 666.136 1899.63 664.29 1900.52 662.908C1901.41 661.526 1903.26 661.13 1904.64 662.025C1906.02 662.92 1906.42 664.766 1905.52 666.148Z" fill="white"/>
<path d="M1350.47 306.578C1349.57 307.961 1347.73 308.356 1346.35 307.461C1344.97 306.566 1344.57 304.72 1345.47 303.338C1346.36 301.956 1348.2 301.56 1349.59 302.455C1350.97 303.35 1351.36 305.196 1350.47 306.578Z" fill="white"/>
<path d="M1551.42 629.674C1550.53 631.056 1548.68 631.452 1547.3 630.557C1545.92 629.662 1545.53 627.816 1546.42 626.434C1547.32 625.051 1549.16 624.656 1550.54 625.551C1551.92 626.446 1552.32 628.292 1551.42 629.674Z" fill="white"/>
<path d="M274.634 -197.445C273.74 -196.063 271.896 -195.668 270.514 -196.563C269.133 -197.457 268.738 -199.303 269.632 -200.686C270.526 -202.068 272.371 -202.463 273.752 -201.568C275.134 -200.674 275.529 -198.828 274.634 -197.445Z" fill="white"/>
<path d="M1396.85 766.248C1395.96 767.63 1394.12 768.026 1392.73 767.131C1391.35 766.236 1390.96 764.39 1391.85 763.008C1392.75 761.625 1394.59 761.23 1395.97 762.125C1397.35 763.02 1397.75 764.866 1396.85 766.248Z" fill="white"/>
<path d="M1824.41 677.516C1823.82 678.438 1822.59 678.701 1821.67 678.105C1820.75 677.508 1820.48 676.278 1821.08 675.356C1821.68 674.434 1822.91 674.171 1823.83 674.767C1824.75 675.364 1825.01 676.595 1824.41 677.516Z" fill="white"/>
<path d="M1269.36 317.946C1268.77 318.868 1267.54 319.131 1266.61 318.535C1265.69 317.938 1265.43 316.707 1266.03 315.786C1266.62 314.864 1267.85 314.601 1268.77 315.197C1269.69 315.794 1269.96 317.024 1269.36 317.946Z" fill="white"/>
<path d="M547.626 -149.603C547.03 -148.682 545.8 -148.418 544.879 -149.015C543.958 -149.611 543.695 -150.842 544.291 -151.763C544.887 -152.685 546.117 -152.948 547.038 -152.352C547.959 -151.755 548.222 -150.525 547.626 -149.603Z" fill="white"/>
<path d="M213.682 366.667C213.085 367.589 211.856 367.852 210.935 367.256C210.014 366.659 209.751 365.429 210.347 364.507C210.943 363.586 212.173 363.322 213.094 363.919C214.014 364.515 214.278 365.746 213.682 366.667Z" fill="white"/>
<path d="M344.203 610.997C343.607 611.919 342.377 612.182 341.456 611.586C340.536 610.989 340.272 609.758 340.868 608.837C341.464 607.915 342.694 607.652 343.615 608.248C344.536 608.845 344.799 610.076 344.203 610.997Z" fill="white"/>
<path d="M917.963 1091.57C917.367 1092.49 916.137 1092.76 915.217 1092.16C914.296 1091.56 914.032 1090.33 914.629 1089.41C915.225 1088.49 916.454 1088.23 917.375 1088.82C918.296 1089.42 918.559 1090.65 917.963 1091.57Z" fill="white"/>
<path d="M439.49 -285.932C438.894 -285.01 437.665 -284.747 436.744 -285.343C435.823 -285.94 435.56 -287.171 436.156 -288.092C436.752 -289.014 437.982 -289.277 438.902 -288.681C439.823 -288.084 440.087 -286.853 439.49 -285.932Z" fill="white"/>
<path d="M1767.73 681.038C1767.14 681.96 1765.91 682.223 1764.99 681.627C1764.07 681.03 1763.8 679.8 1764.4 678.878C1765 677.956 1766.23 677.693 1767.15 678.29C1768.07 678.886 1768.33 680.117 1767.73 681.038Z" fill="white"/>
<path d="M1212.68 321.468C1212.09 322.39 1210.86 322.653 1209.94 322.057C1209.01 321.46 1208.75 320.229 1209.35 319.308C1209.94 318.386 1211.17 318.123 1212.09 318.719C1213.01 319.316 1213.28 320.547 1212.68 321.468Z" fill="white"/>
<path d="M490.946 -146.081C490.35 -145.159 489.12 -144.896 488.199 -145.493C487.278 -146.089 487.015 -147.32 487.611 -148.241C488.207 -149.163 489.437 -149.426 490.358 -148.83C491.279 -148.233 491.542 -147.003 490.946 -146.081Z" fill="white"/>
<path d="M1268.11 -161.913C1267.51 -160.991 1266.28 -160.728 1265.36 -161.324C1264.44 -161.921 1264.17 -163.152 1264.77 -164.073C1265.37 -164.995 1266.6 -165.258 1267.52 -164.662C1268.44 -164.065 1268.7 -162.834 1268.11 -161.913Z" fill="white"/>
<path d="M157.002 370.19C156.406 371.111 155.176 371.375 154.255 370.778C153.334 370.181 153.071 368.951 153.667 368.029C154.263 367.108 155.493 366.844 156.414 367.441C157.335 368.037 157.598 369.268 157.002 370.19Z" fill="white"/>
<path d="M287.524 614.519C286.928 615.441 285.698 615.704 284.777 615.107C283.856 614.511 283.593 613.28 284.189 612.359C284.785 611.437 286.015 611.174 286.936 611.77C287.857 612.367 288.12 613.597 287.524 614.519Z" fill="white"/>
<path d="M1088.46 1237.53C1087.87 1238.45 1086.64 1238.71 1085.72 1238.12C1084.8 1237.52 1084.53 1236.29 1085.13 1235.37C1085.72 1234.45 1086.95 1234.18 1087.87 1234.78C1088.8 1235.38 1089.06 1236.61 1088.46 1237.53Z" fill="white"/>
<path d="M609.99 -139.974C609.394 -139.053 608.164 -138.789 607.244 -139.386C606.323 -139.982 606.059 -141.213 606.655 -142.134C607.252 -143.056 608.481 -143.32 609.402 -142.723C610.323 -142.126 610.586 -140.896 609.99 -139.974Z" fill="white"/>
<path d="M1357.99 926.886C1357.4 927.807 1356.17 928.071 1355.25 927.474C1354.32 926.878 1354.06 925.647 1354.66 924.725C1355.25 923.804 1356.48 923.54 1357.4 924.137C1358.32 924.734 1358.59 925.964 1357.99 926.886Z" fill="white"/>
<path d="M1614.39 581.698C1613.79 582.619 1612.56 582.883 1611.64 582.286C1610.72 581.69 1610.46 580.459 1611.05 579.538C1611.65 578.616 1612.88 578.352 1613.8 578.949C1614.72 579.546 1614.98 580.776 1614.39 581.698Z" fill="white"/>
<path d="M729.659 -67.185C729.063 -66.2634 727.833 -66 726.913 -66.5965C725.992 -67.1931 725.728 -68.4237 726.325 -69.3453C726.921 -70.2668 728.15 -70.5303 729.071 -69.9338C729.992 -69.3372 730.255 -68.1066 729.659 -67.185Z" fill="white"/>
<path d="M1059.33 222.128C1058.74 223.049 1057.51 223.313 1056.59 222.716C1055.67 222.12 1055.4 220.889 1056 219.967C1056.6 219.046 1057.82 218.782 1058.75 219.379C1059.67 219.975 1059.93 221.206 1059.33 222.128Z" fill="white"/>
<path d="M337.598 -245.422C337.002 -244.5 335.772 -244.237 334.851 -244.833C333.93 -245.43 333.667 -246.66 334.263 -247.582C334.859 -248.503 336.089 -248.767 337.01 -248.17C337.931 -247.574 338.194 -246.343 337.598 -245.422Z" fill="white"/>
<path d="M3.65384 270.849C3.05774 271.77 1.828 272.034 0.907136 271.437C-0.0137312 270.841 -0.277013 269.61 0.319087 268.689C0.915188 267.767 2.14494 267.504 3.0658 268.1C3.98667 268.697 4.24994 269.927 3.65384 270.849Z" fill="white"/>
<path d="M1727.58 704.73C1726.98 705.652 1725.75 705.915 1724.83 705.319C1723.91 704.722 1723.64 703.491 1724.24 702.57C1724.84 701.648 1726.07 701.385 1726.99 701.981C1727.91 702.578 1728.17 703.809 1727.58 704.73Z" fill="white"/>
<path d="M450.786 -122.389C450.19 -121.468 448.96 -121.204 448.039 -121.801C447.118 -122.397 446.855 -123.628 447.451 -124.549C448.047 -125.471 449.277 -125.734 450.198 -125.138C451.119 -124.541 451.382 -123.311 450.786 -122.389Z" fill="white"/>
<path d="M1414.23 -122.453C1413.63 -121.531 1412.41 -121.268 1411.48 -121.864C1410.56 -122.461 1410.3 -123.691 1410.9 -124.613C1411.49 -125.534 1412.72 -125.798 1413.64 -125.201C1414.56 -124.605 1414.83 -123.374 1414.23 -122.453Z" fill="white"/>
<path d="M116.842 393.882C116.246 394.803 115.016 395.067 114.095 394.47C113.174 393.873 112.911 392.643 113.507 391.721C114.103 390.8 115.333 390.536 116.254 391.133C117.174 391.729 117.438 392.96 116.842 393.882Z" fill="white"/>
<path d="M247.364 638.211C246.768 639.132 245.538 639.396 244.617 638.799C243.696 638.203 243.433 636.972 244.029 636.05C244.625 635.129 245.855 634.865 246.776 635.462C247.697 636.059 247.96 637.289 247.364 638.211Z" fill="white"/>
<path d="M1203.88 1219.98C1203.29 1220.9 1202.06 1221.17 1201.14 1220.57C1200.22 1219.98 1199.95 1218.74 1200.55 1217.82C1201.15 1216.9 1202.38 1216.64 1203.3 1217.23C1204.22 1217.83 1204.48 1219.06 1203.88 1219.98Z" fill="white"/>
<path d="M725.411 -157.518C724.815 -156.597 723.585 -156.333 722.664 -156.93C721.743 -157.526 721.48 -158.757 722.076 -159.679C722.672 -160.6 723.902 -160.864 724.823 -160.267C725.744 -159.671 726.007 -158.44 725.411 -157.518Z" fill="white"/>
<path d="M1483.53 1067.39C1482.94 1068.31 1481.71 1068.57 1480.79 1067.98C1479.86 1067.38 1479.6 1066.15 1480.2 1065.23C1480.79 1064.31 1482.02 1064.04 1482.94 1064.64C1483.86 1065.24 1484.13 1066.47 1483.53 1067.39Z" fill="white"/>
<path d="M1466.41 1124.94C1465.81 1125.86 1464.58 1126.13 1463.66 1125.53C1462.74 1124.93 1462.48 1123.7 1463.08 1122.78C1463.67 1121.86 1464.9 1121.6 1465.82 1122.19C1466.74 1122.79 1467.01 1124.02 1466.41 1124.94Z" fill="white"/>
<path d="M1437.96 669.789C1437.36 670.711 1436.13 670.974 1435.21 670.377C1434.29 669.781 1434.03 668.55 1434.62 667.629C1435.22 666.707 1436.45 666.444 1437.37 667.04C1438.29 667.637 1438.56 668.867 1437.96 669.789Z" fill="white"/>
<path d="M1643.41 834.841C1642.82 835.762 1641.59 836.026 1640.67 835.429C1639.75 834.833 1639.48 833.602 1640.08 832.68C1640.68 831.759 1641.91 831.495 1642.83 832.092C1643.75 832.689 1644.01 833.919 1643.41 834.841Z" fill="white"/>
<path d="M366.625 7.72131C366.029 8.64288 364.799 8.90634 363.879 8.30978C362.958 7.71323 362.694 6.48257 363.29 5.561C363.887 4.63943 365.116 4.37598 366.037 4.97253C366.958 5.56909 367.221 6.79974 366.625 7.72131Z" fill="white"/>
<path d="M32.6811 523.992C32.085 524.913 30.8553 525.177 29.9344 524.58C29.0136 523.984 28.7503 522.753 29.3464 521.832C29.9425 520.91 31.1722 520.646 32.0931 521.243C33.014 521.84 33.2772 523.07 32.6811 523.992Z" fill="white"/>
<path d="M1447.07 1222.48C1446.48 1223.4 1445.25 1223.67 1444.33 1223.07C1443.41 1222.48 1443.14 1221.24 1443.74 1220.32C1444.33 1219.4 1445.56 1219.14 1446.49 1219.73C1447.41 1220.33 1447.67 1221.56 1447.07 1222.48Z" fill="white"/>
<path d="M1777.01 613.671C1776.42 614.593 1775.19 614.856 1774.27 614.26C1773.35 613.663 1773.08 612.433 1773.68 611.511C1774.28 610.589 1775.51 610.326 1776.43 610.922C1777.35 611.519 1777.61 612.75 1777.01 613.671Z" fill="white"/>
<path d="M1221.96 254.101C1221.36 255.023 1220.14 255.286 1219.21 254.689C1218.29 254.093 1218.03 252.862 1218.63 251.941C1219.22 251.019 1220.45 250.756 1221.37 251.352C1222.29 251.949 1222.56 253.179 1221.96 254.101Z" fill="white"/>
<path d="M380.903 738.922C380.307 739.844 379.077 740.107 378.156 739.511C377.235 738.914 376.972 737.683 377.568 736.762C378.164 735.84 379.394 735.577 380.315 736.173C381.236 736.77 381.499 738.001 380.903 738.922Z" fill="white"/>
<path d="M1775.37 512.004C1774.77 512.925 1773.54 513.189 1772.62 512.592C1771.7 511.996 1771.44 510.765 1772.03 509.843C1772.63 508.922 1773.86 508.658 1774.78 509.255C1775.7 509.851 1775.96 511.082 1775.37 512.004Z" fill="white"/>
<path d="M1220.31 152.433C1219.72 153.355 1218.49 153.618 1217.57 153.022C1216.65 152.425 1216.38 151.195 1216.98 150.273C1217.57 149.352 1218.8 149.088 1219.73 149.685C1220.65 150.281 1220.91 151.512 1220.31 152.433Z" fill="white"/>
<path d="M1585.18 478.749C1584.59 479.671 1583.36 479.935 1582.44 479.338C1581.52 478.741 1581.25 477.511 1581.85 476.589C1582.45 475.668 1583.68 475.404 1584.6 476.001C1585.52 476.597 1585.78 477.828 1585.18 478.749Z" fill="white"/>
<path d="M1030.13 119.179C1029.53 120.101 1028.31 120.364 1027.38 119.768C1026.46 119.171 1026.2 117.94 1026.8 117.019C1027.39 116.097 1028.62 115.834 1029.54 116.43C1030.46 117.027 1030.73 118.258 1030.13 119.179Z" fill="white"/>
<path d="M1532.76 552.487C1532.16 553.409 1530.93 553.672 1530.01 553.076C1529.09 552.479 1528.83 551.249 1529.42 550.327C1530.02 549.406 1531.25 549.142 1532.17 549.739C1533.09 550.335 1533.35 551.566 1532.76 552.487Z" fill="white"/>
<path d="M648.03 -96.3956C647.433 -95.4741 646.204 -95.2106 645.283 -95.8071C644.362 -96.4037 644.099 -97.6344 644.695 -98.5559C645.291 -99.4775 646.521 -99.7409 647.442 -99.1444C648.362 -98.5479 648.626 -97.3172 648.03 -96.3956Z" fill="white"/>
<path d="M533.075 832.767C532.479 833.689 531.249 833.952 530.328 833.356C529.408 832.759 529.144 831.528 529.74 830.607C530.337 829.685 531.566 829.422 532.487 830.018C533.408 830.615 533.671 831.846 533.075 832.767Z" fill="white"/>
<path d="M1758.77 649.193C1758.17 650.114 1756.94 650.378 1756.02 649.781C1755.1 649.184 1754.84 647.954 1755.43 647.032C1756.03 646.111 1757.26 645.847 1758.18 646.444C1759.1 647.04 1759.36 648.271 1758.77 649.193Z" fill="white"/>
<path d="M1203.72 289.622C1203.12 290.544 1201.89 290.807 1200.97 290.211C1200.05 289.614 1199.78 288.383 1200.38 287.462C1200.98 286.54 1202.21 286.277 1203.13 286.873C1204.05 287.47 1204.31 288.701 1203.72 289.622Z" fill="white"/>
<path d="M1437 292.806C1436.4 293.728 1435.17 293.991 1434.25 293.395C1433.33 292.798 1433.07 291.568 1433.67 290.646C1434.26 289.724 1435.49 289.461 1436.41 290.057C1437.33 290.654 1437.6 291.885 1437 292.806Z" fill="white"/>
<path d="M481.979 -177.927C481.383 -177.005 480.153 -176.742 479.233 -177.339C478.312 -177.935 478.048 -179.166 478.644 -180.087C479.241 -181.009 480.47 -181.272 481.391 -180.676C482.312 -180.079 482.575 -178.849 481.979 -177.927Z" fill="white"/>
<path d="M148.035 338.343C147.439 339.265 146.21 339.528 145.289 338.931C144.368 338.335 144.105 337.104 144.701 336.183C145.297 335.261 146.527 334.998 147.447 335.594C148.368 336.191 148.632 337.421 148.035 338.343Z" fill="white"/>
<path d="M278.557 582.673C277.961 583.595 276.731 583.858 275.81 583.262C274.889 582.665 274.626 581.434 275.222 580.513C275.818 579.591 277.048 579.328 277.969 579.924C278.89 580.521 279.153 581.751 278.557 582.673Z" fill="white"/>
<path d="M78.3451 173.661C77.749 174.583 76.5192 174.846 75.5984 174.25C74.6775 173.653 74.4142 172.422 75.0103 171.501C75.6064 170.579 76.8362 170.316 77.757 170.912C78.6779 171.509 78.9412 172.74 78.3451 173.661Z" fill="white"/>
<path d="M696.826 886.771C696.23 887.693 695.001 887.956 694.08 887.359C693.159 886.763 692.896 885.532 693.492 884.611C694.088 883.689 695.318 883.426 696.238 884.022C697.159 884.619 697.423 885.85 696.826 886.771Z" fill="white"/>
<path d="M956.219 1028.77C955.623 1029.69 954.393 1029.96 953.472 1029.36C952.551 1028.76 952.288 1027.53 952.884 1026.61C953.48 1025.69 954.71 1025.43 955.631 1026.02C956.552 1026.62 956.815 1027.85 956.219 1028.77Z" fill="white"/>
<path d="M1130.89 1137.19C1130.3 1138.12 1129.07 1138.38 1128.15 1137.78C1127.23 1137.19 1126.96 1135.96 1127.56 1135.03C1128.15 1134.11 1129.38 1133.85 1130.31 1134.45C1131.23 1135.04 1131.49 1136.27 1130.89 1137.19Z" fill="white"/>
<path d="M1676.87 477.785C1676.27 478.707 1675.05 478.97 1674.12 478.374C1673.2 477.777 1672.94 476.546 1673.54 475.625C1674.13 474.703 1675.36 474.44 1676.28 475.036C1677.2 475.633 1677.47 476.864 1676.87 477.785Z" fill="white"/>
<path d="M1121.82 118.215C1121.22 119.137 1119.99 119.4 1119.07 118.804C1118.15 118.207 1117.89 116.976 1118.48 116.055C1119.08 115.133 1120.31 114.87 1121.23 115.466C1122.15 116.063 1122.41 117.293 1121.82 118.215Z" fill="white"/>
<path d="M1449.05 349.137C1448.46 350.059 1447.23 350.323 1446.3 349.726C1445.38 349.129 1445.12 347.899 1445.72 346.977C1446.31 346.056 1447.54 345.792 1448.46 346.389C1449.38 346.985 1449.65 348.216 1449.05 349.137Z" fill="white"/>
<path d="M893.998 -10.4327C893.402 -9.51117 892.173 -9.24771 891.252 -9.84427C890.331 -10.4408 890.068 -11.6714 890.664 -12.593C891.26 -13.5146 892.49 -13.7781 893.41 -13.1815C894.331 -12.585 894.594 -11.3543 893.998 -10.4327Z" fill="white"/>
<path d="M1500.71 463.081C1500.11 464.003 1498.88 464.266 1497.96 463.67C1497.04 463.073 1496.78 461.842 1497.37 460.921C1497.97 459.999 1499.2 459.736 1500.12 460.332C1501.04 460.929 1501.3 462.16 1500.71 463.081Z" fill="white"/>
<path d="M945.655 103.511C945.059 104.433 943.829 104.696 942.908 104.099C941.987 103.503 941.724 102.272 942.32 101.351C942.916 100.429 944.146 100.166 945.067 100.762C945.987 101.359 946.251 102.589 945.655 103.511Z" fill="white"/>
<path d="M1799.69 723.046C1799.1 723.967 1797.87 724.231 1796.95 723.634C1796.03 723.038 1795.76 721.807 1796.36 720.885C1796.96 719.964 1798.19 719.7 1799.11 720.297C1800.03 720.893 1800.29 722.124 1799.69 723.046Z" fill="white"/>
<path d="M522.906 -104.074C522.31 -103.152 521.08 -102.889 520.159 -103.485C519.239 -104.082 518.975 -105.312 519.571 -106.234C520.167 -107.155 521.397 -107.419 522.318 -106.822C523.239 -106.226 523.502 -104.995 522.906 -104.074Z" fill="white"/>
<path d="M188.962 412.197C188.366 413.118 187.136 413.382 186.215 412.785C185.294 412.189 185.031 410.958 185.627 410.037C186.223 409.115 187.453 408.852 188.374 409.448C189.295 410.045 189.558 411.275 188.962 412.197Z" fill="white"/>
<path d="M319.484 656.527C318.887 657.448 317.658 657.712 316.737 657.115C315.816 656.518 315.553 655.288 316.149 654.366C316.745 653.445 317.975 653.181 318.896 653.778C319.816 654.374 320.08 655.605 319.484 656.527Z" fill="white"/>
<path d="M877.803 1115.26C877.207 1116.18 875.977 1116.45 875.056 1115.85C874.135 1115.25 873.872 1114.02 874.468 1113.1C875.064 1112.18 876.294 1111.92 877.215 1112.51C878.136 1113.11 878.399 1114.34 877.803 1115.26Z" fill="white"/>
<path d="M399.33 -262.24C398.734 -261.319 397.505 -261.055 396.584 -261.652C395.663 -262.248 395.4 -263.479 395.996 -264.401C396.592 -265.322 397.821 -265.586 398.742 -264.989C399.663 -264.392 399.926 -263.162 399.33 -262.24Z" fill="white"/>
<path d="M1331.88 1073.3C1331.28 1074.22 1330.05 1074.48 1329.13 1073.89C1328.21 1073.29 1327.95 1072.06 1328.55 1071.14C1329.14 1070.22 1330.37 1069.95 1331.29 1070.55C1332.21 1071.14 1332.48 1072.38 1331.88 1073.3Z" fill="white"/>
<path d="M1383.69 1157.75C1383.09 1158.67 1381.86 1158.94 1380.94 1158.34C1380.02 1157.74 1379.76 1156.51 1380.35 1155.59C1380.95 1154.67 1382.18 1154.41 1383.1 1155C1384.02 1155.6 1384.29 1156.83 1383.69 1157.75Z" fill="white"/>
<path d="M456.143 70.4456C455.547 71.3671 454.317 71.6306 453.396 71.0341C452.475 70.4375 452.212 69.2068 452.808 68.2853C453.404 67.3637 454.634 67.1002 455.555 67.6968C456.476 68.2933 456.739 69.524 456.143 70.4456Z" fill="white"/>
<path d="M122.199 586.716C121.602 587.638 120.373 587.901 119.452 587.305C118.531 586.708 118.268 585.478 118.864 584.556C119.46 583.635 120.69 583.371 121.611 583.968C122.531 584.564 122.795 585.795 122.199 586.716Z" fill="white"/>
<path d="M316.728 1058.38C316.728 1063.97 312.195 1068.51 306.603 1068.51C301.011 1068.51 296.479 1063.97 296.479 1058.38C296.479 1052.78 301.011 1048.24 306.603 1048.24C312.195 1048.24 316.728 1052.78 316.728 1058.38Z" fill="white"/>
<path d="M581.146 -34.9073C581.146 -29.3114 576.613 -24.7751 571.021 -24.7751C565.429 -24.7751 560.896 -29.3114 560.896 -34.9073C560.896 -40.5032 565.429 -45.0395 571.021 -45.0395C576.613 -45.0395 581.146 -40.5032 581.146 -34.9073Z" fill="white"/>
<path d="M1430.07 1102.48C1430.07 1108.08 1425.53 1112.61 1419.94 1112.61C1414.35 1112.61 1409.82 1108.08 1409.82 1102.48C1409.82 1096.88 1414.35 1092.35 1419.94 1092.35C1425.53 1092.35 1430.07 1096.88 1430.07 1102.48Z" fill="white"/>
<path d="M263.38 522.18C263.38 527.776 258.847 532.312 253.256 532.312C247.664 532.312 243.131 527.776 243.131 522.18C243.131 516.584 247.664 512.048 253.256 512.048C258.847 512.048 263.38 516.584 263.38 522.18Z" fill="white"/>
<path d="M1796.54 -53.4769C1796.54 -47.8811 1792.01 -43.3447 1786.42 -43.3447C1780.82 -43.3447 1776.29 -47.8811 1776.29 -53.4769C1776.29 -59.0728 1780.82 -63.6091 1786.42 -63.6091C1792.01 -63.6091 1796.54 -59.0728 1796.54 -53.4769Z" fill="white"/>
</g>
<path d="M1714.79 269.373L1717.79 282.708L1731.13 285.708H1731.5L1731.31 285.75L1731.5 285.792H1731.13L1717.79 288.792L1714.79 302.127V302.5L1714.75 302.313L1714.71 302.5V302.127L1711.71 288.792L1698.37 285.792H1698L1698.19 285.75L1698 285.708H1698.37L1711.71 282.707L1714.71 269.373V269L1714.75 269.187L1714.79 269V269.373Z" fill="white"/>
<path d="M1716.27 87.2031L1717.93 94.5684L1725.3 96.2266H1725.5L1725.4 96.249L1725.5 96.2725H1725.3L1717.93 97.9297L1716.27 105.297V105.5L1716.25 105.398L1716.23 105.5V105.297L1714.57 97.9287L1707.2 96.2725H1707L1707.1 96.249L1707 96.2266H1707.2L1714.57 94.5693L1716.23 87.2031V87L1716.25 87.1016L1716.27 87V87.2031Z" fill="white"/>
<path d="M245.272 858.203L246.929 865.568L254.297 867.227H254.5L254.398 867.249L254.5 867.272H254.297L246.93 868.93L245.272 876.297V876.5L245.249 876.398L245.227 876.5V876.297L243.568 868.929L236.203 867.272H236L236.102 867.249L236 867.227H236.203L243.569 865.569L245.227 858.203V858L245.249 858.102L245.272 858V858.203Z" fill="white"/>
<path d="M1500.79 89.373L1503.79 102.708L1517.13 105.708H1517.5L1517.31 105.75L1517.5 105.792H1517.13L1503.79 108.792L1500.79 122.127V122.5L1500.75 122.313L1500.71 122.5V122.127L1497.71 108.792L1484.37 105.792H1484L1484.19 105.75L1484 105.708H1484.37L1497.71 102.707L1500.71 89.373V89L1500.75 89.1865L1500.79 89V89.373Z" fill="white"/>
<path d="M330.792 694.373L333.792 707.708L347.127 710.708H347.5L347.313 710.75L347.5 710.792H347.127L333.792 713.792L330.792 727.127V727.5L330.75 727.313L330.708 727.5V727.127L327.708 713.792L314.373 710.792H314L314.187 710.75L314 710.708H314.373L327.707 707.707L330.708 694.373V694L330.75 694.187L330.792 694V694.373Z" fill="white"/>
</g>
<defs>
<filter id="filter0_f_5887_1664" x="961" y="816" width="266.001" height="153.577" filterUnits="userSpaceOnUse" color-interpolation-filters="sRGB">
<feFlood flood-opacity="0" result="BackgroundImageFix"/>
<feBlend mode="normal" in="SourceGraphic" in2="BackgroundImageFix" result="shape"/>
<feGaussianBlur stdDeviation="10" result="effect1_foregroundBlur_5887_1664"/>
</filter>
<filter id="filter1_f_5887_1664" x="-216" y="427" width="432" height="237" filterUnits="userSpaceOnUse" color-interpolation-filters="sRGB">
<feFlood flood-opacity="0" result="BackgroundImageFix"/>
<feBlend mode="normal" in="SourceGraphic" in2="BackgroundImageFix" result="shape"/>
<feGaussianBlur stdDeviation="10" result="effect1_foregroundBlur_5887_1664"/>
</filter>
<filter id="filter2_f_5887_1664" x="1597" y="24.7266" width="254" height="147.546" filterUnits="userSpaceOnUse" color-interpolation-filters="sRGB">
<feFlood flood-opacity="0" result="BackgroundImageFix"/>
<feBlend mode="normal" in="SourceGraphic" in2="BackgroundImageFix" result="shape"/>
<feGaussianBlur stdDeviation="10" result="effect1_foregroundBlur_5887_1664"/>
</filter>
<linearGradient id="paint0_linear_5887_1664" x1="960" y1="-116" x2="960" y2="1596" gradientUnits="userSpaceOnUse">
<stop stop-color="#539FE6"/>
<stop offset="1" stop-color="#4543B3"/>
</linearGradient>
<clipPath id="clip0_5887_1664">
<rect width="1920" height="1080" fill="white"/>
</clipPath>
</defs>
</svg>
