<svg width="80" height="95" viewBox="0 0 80 95" fill="none" xmlns="http://www.w3.org/2000/svg">
<path d="M38.4568 91.7205C49.6479 91.7205 58.72 79.4219 58.72 64.2508C58.72 49.0796 49.6479 36.781 38.4568 36.781C27.2658 36.781 18.1937 49.0796 18.1937 64.2508C18.1937 79.4219 27.2658 91.7205 38.4568 91.7205Z" fill="#BCB9A8"/>
<path d="M46.8576 48.2856C46.1607 56.8473 42.7452 60.7671 42.7452 60.7671C42.4428 61.0128 42.1237 60.8406 42.1237 60.8406C38.6875 60.0006 38.3756 52.0738 36.8975 50.3447C33.8979 56.3446 27.4732 59.8099 27.4675 66.5623C27.4676 75.784 34.4544 83.2596 43.073 83.2595C51.6915 83.2594 59.1591 74.8219 59.1592 65.6003C56.2722 61.9514 50.745 60.4636 46.8576 48.2856Z" fill="#D5D3C7"/>
<path fill-rule="evenodd" clip-rule="evenodd" d="M62.364 50.5414C66.9744 60.8202 63.996 69.9582 63.996 69.9582C60.3619 80.7537 51.1163 88.396 51.1163 88.396C49.9405 89.358 49.0854 89.1977 49.0854 89.1977C48.0166 88.877 48.8182 87.915 48.8182 87.915C49.1923 87.3272 53.2005 78.2418 53.2005 78.2418C57.6898 70.2788 56.7278 59.804 56.7278 59.804C56.2468 54.62 53.0937 50.2911 53.0937 50.2911C53.0937 50.2911 52.0474 49.1053 52.9921 48.3495C52.9921 48.3495 59.492 46.2333 62.364 50.5414Z" fill="#194145"/>
<path fill-rule="evenodd" clip-rule="evenodd" d="M26.6541 87.1946C26.6541 87.1946 27.1084 87.542 26.761 88.5307C26.761 88.5307 25.799 91.3899 27.1083 93.7147C27.1083 93.7147 27.7496 95.0774 29.1926 93.8215C29.1926 93.8215 29.7003 93.5276 29.9408 92.0846C29.9408 92.0846 30.4485 93.9017 31.7579 94.4629C31.7579 94.4629 32.8802 95.1843 33.9491 93.875C33.9491 93.875 34.6438 95.1042 35.6058 94.6232C35.6058 94.6232 36.7548 94.3293 36.9953 92.5656C36.9953 92.5656 37.049 90.5882 36.1936 88.9315C36.1936 88.9315 35.7661 88.0764 34.8309 87.4084C34.8309 87.4084 33.3344 86.4464 32.6397 87.248C32.6397 87.248 32.1988 86.5399 30.7692 86.58C30.7692 86.58 29.727 86.5533 29.4865 87.3149C29.4865 87.3149 28.7918 85.9521 27.3755 86.3128C27.3755 86.3128 26.3735 86.4598 26.6541 87.1946Z" fill="#FAB84A"/>
<path fill-rule="evenodd" clip-rule="evenodd" d="M19.1292 53.0923C19.1292 53.0923 13.8386 62.0863 15.8792 71.9873C15.8792 71.9873 17.542 82.115 23.5129 86.0451C23.5129 86.0451 25.2512 87.141 25.8181 87.2544C25.8181 87.2544 27.0651 87.859 27.6697 86.4608C27.6697 86.4608 29.2569 80.3011 30.315 78.7139C30.315 78.7139 32.0813 75.6761 33.2036 71.4007C33.2036 71.4007 34.8625 64.2605 32.5645 58.0611C32.5645 58.0611 30.9055 53.6042 27.9662 51.1992C23.1563 46.3359 19.1292 53.0923 19.1292 53.0923Z" fill="#194145"/>
<path fill-rule="evenodd" clip-rule="evenodd" d="M33.4321 62C34.7925 70.465 31.356 76.3648 31.356 76.3648C28.7863 80.1816 26.1409 80.7106 26.1409 80.7106C23.42 81.8821 21.4928 79.4636 21.4928 79.4636C16.958 74.8532 17.4115 68.6556 17.4115 68.6556C17.1091 60.493 23.0044 57.7721 23.0044 57.7721C23.0044 57.7721 25.6183 57.2867 29.1328 59.2895C29.1328 59.2895 32.7519 59.3547 33.4321 62Z" fill="#225054"/>
<path fill-rule="evenodd" clip-rule="evenodd" d="M53.213 78.2211C53.213 78.2211 52.5517 81.4899 55.8205 79.9217C55.8205 79.9217 57.0675 79.0147 58.598 76.7095C58.598 76.7095 61.9047 72.2503 62.6605 66.6196C62.6605 66.6196 63.474 62.2184 60.0537 58.5308C60.0537 58.5308 59.5393 57.7849 57.9627 57.1569C57.9627 57.1569 56.2607 56.6851 56.5546 58.5824C57.9842 68.1487 53.213 78.2211 53.213 78.2211Z" fill="#225054"/>
<path fill-rule="evenodd" clip-rule="evenodd" d="M40.9454 89.8621C40.9454 89.8621 40.8132 91.9028 40.7943 92.3563C40.7943 92.3563 40.662 93.9246 41.7012 94.3969C41.7012 94.3969 42.9483 95.1149 44.0253 93.6978C44.0253 93.6978 44.5733 92.5452 44.5166 91.2226C44.5166 91.2226 44.8 91.506 44.9133 92.7342C44.9133 92.7342 45.1401 94.0946 46.0281 94.1702C46.0281 94.1702 47.3131 94.5103 47.8988 92.9231C47.8988 92.9231 48.1633 92.3185 48.1255 91.8272C48.1255 91.8272 48.3901 93.49 49.0892 93.7734C49.0892 93.7734 50.2606 94.378 51.092 92.942C51.092 92.942 51.7911 91.6949 50.733 89.5031C50.733 89.5031 49.9772 88.086 48.7112 87.5569C48.7112 87.5569 46.7839 86.82 46.1982 88.1805C46.1982 88.1805 45.688 87.4814 44.6299 87.4814C44.6299 87.4814 43.7419 87.3491 43.2696 87.916C43.2696 87.916 42.7783 87.3302 42.287 87.3302C42.287 87.3302 41.3422 87.1035 41.0777 88.0293C41.0777 88.0293 41.0234 88.337 41.0234 88.8447C41.0234 88.8447 40.9874 89.7105 40.9454 89.8621Z" fill="#FAB84A"/>
<path fill-rule="evenodd" clip-rule="evenodd" d="M36.9303 91.5403C36.77 92.6359 35.9015 92.569 35.9015 92.569C35.0331 92.529 34.9261 91.6338 34.9261 91.6338C34.7658 88.7612 33.216 86.9843 33.216 86.9843C32.8418 86.9843 32.6815 87.345 32.6815 87.345C34.6456 89.6163 33.6569 92.1816 33.6569 92.1816C32.9621 93.1035 31.9735 92.1281 31.9735 92.1281C31.2252 91.567 31.3321 90.2175 31.3321 90.2175C31.2789 88.5474 30.5438 88.0531 30.5438 88.0531C29.8357 87.3049 30.1297 86.717 30.1297 86.717C29.5552 86.9174 29.5284 87.345 29.5284 87.345C30.0094 89.2823 29.7822 90.4447 29.7822 90.4447C29.0207 92.3285 27.8984 92.0747 27.8984 92.0747C26.5623 92.0479 26.4287 90.752 26.4287 90.752C26.4287 90.752 26.2684 92.7294 27.0633 93.7581C27.0633 93.7581 27.6351 94.8772 28.8737 94.0788C28.8737 94.0788 29.6887 93.7982 29.9426 92.2216C29.9426 92.2216 30.6908 94.2926 32.107 94.6266C32.107 94.6266 33.2026 94.974 33.9374 93.9185C33.9374 93.9185 34.512 94.8404 35.2869 94.7736C35.2869 94.7736 36.329 94.7468 36.8234 93.3439C36.8234 93.3439 37.1708 92.3953 36.9303 91.5402V91.5403Z" fill="#E89C23"/>
<path fill-rule="evenodd" clip-rule="evenodd" d="M41.0063 89.1596C41.0063 89.1596 41.4219 90.5201 41.4219 91.5404C41.4219 91.5404 41.5353 92.6174 42.6123 92.6741C42.6123 92.6741 43.6704 92.9386 43.916 91.3892C43.916 91.3892 44.3317 89.5753 43.6893 88.3282C43.6893 88.3282 44.4451 87.7614 45.2765 88.6306C45.2765 88.6306 45.9567 89.4242 45.9756 90.9546C45.9756 90.9546 45.9567 91.9183 46.2779 92.3718C46.2779 92.3718 46.6002 93.1433 47.2548 92.4485C47.2548 92.4485 47.7626 91.9676 47.7626 90.538C47.7626 90.538 47.629 89.2687 46.9342 88.467C46.9342 88.467 46.7205 88.1865 46.9211 88.1197C46.9211 88.1197 47.6425 87.9994 48.0834 88.4002C48.0834 88.4002 48.9519 89.3622 49.3527 90.9254C49.3527 90.9254 49.4996 91.7137 50.0207 91.8206C50.0207 91.8206 50.4304 91.8952 50.7777 91.3474C50.7777 91.3474 51.0716 90.96 51.085 90.3988C51.085 90.3988 51.4967 91.3137 51.2696 92.6364C51.2696 92.6364 50.9764 93.8468 49.9477 94.0473C49.9477 94.0473 48.6713 94.5863 48.1502 92.1813C48.1502 92.1813 48.0012 94.1274 46.7112 94.3168C46.7112 94.3168 45.5715 94.4794 45.2375 93.8113C45.2375 93.8113 44.8902 93.17 44.8902 92.689C44.8902 92.689 44.7967 91.7404 44.5161 91.393C44.5161 91.393 44.4892 93.17 43.8881 93.9316C43.8881 93.9316 43.18 94.9203 42.1513 94.6664C42.1513 94.6664 40.9487 94.4927 40.7751 93.0899C40.7751 93.0899 40.7082 92.4886 40.7751 92.208L41.0063 89.1596Z" fill="#E89C23"/>
<path fill-rule="evenodd" clip-rule="evenodd" d="M37.3829 44.6256C37.3829 44.6256 31.481 54.6039 20.3704 56.2555C20.3704 56.2555 15.5659 57.5567 9.61014 50.45C9.61014 50.45 3.38535 44.8309 5.23714 36.8233C5.23714 36.8233 3.23516 38.9753 3.33526 41.5778C3.33526 41.5778 3.46038 43.0042 2.15916 41.9782C2.15916 41.9782 -3.12082 33.7203 4.03601 26.8638C4.03601 26.8638 2.44183 26.6879 1.41559 27.7496C1.41559 27.7496 0.176888 29.1298 6.70397e-05 27.2542C6.70397e-05 27.2542 -0.10617 21.1319 8.13952 19.1501C8.13952 19.1501 3.85742 15.0095 8.5996 9.77194C8.5996 9.77194 9.76738 16.1774 17.6946 13.6648C17.6946 13.6648 16.2082 5.52525 23.7814 2.26946C23.7814 2.26946 23.9938 9.48884 29.0899 9.48884C29.0899 9.48884 35.8845 9.48884 44.3072 0.5C44.3072 0.5 45.2273 4.25125 44.024 7.50705C44.024 7.50705 47.3507 3.96813 47.8461 1.56168C47.8461 1.56168 50.8188 4.60514 50.6065 8.78106C50.6065 8.78106 59.5245 9.41806 65.2576 4.74669C65.2576 4.74669 66.6023 8.6395 64.9036 12.5323C64.9036 12.5323 68.7258 12.32 70.9197 8.21483C70.9197 8.21483 73.751 11.046 70.9197 16.0004C70.9197 16.0004 78.9885 16.7082 79.8379 24.4938C79.8379 24.4938 80.0335 26.038 78.8825 25.4874C78.8825 25.4874 77.4312 24.5115 75.9797 24.3864C75.9797 24.3864 80.3333 27.962 79.9794 32.0671C79.9794 32.0671 80.0501 35.8183 76.5112 37.0216C76.5112 37.0216 78.7054 42.4715 74.4587 47.1429C74.4587 47.1429 73.6093 48.3107 73.0078 46.789C73.0078 46.789 72.937 46.2228 72.477 46.2581C72.477 46.2581 70.5789 50.7223 66.6153 52.8456C66.6153 52.8456 61.9402 57.1379 56.2072 53.8821C56.2072 53.8821 51.6343 53.195 48.3786 44.8432C48.3786 44.8432 46.9349 41.6815 43.3957 39.912C43.3957 39.912 40.4471 39.0469 37.3829 44.6256Z" fill="#225054"/>
<path d="M65.6775 41.7267C60.0516 44.0419 52.9003 40.7195 49.7044 34.3061C46.5086 27.8927 48.4784 20.8168 54.1043 18.5016C59.7301 16.1865 66.8815 19.5088 70.0773 25.9222C73.2732 32.3357 71.3033 39.4116 65.6775 41.7267Z" fill="#1A4346"/>
<path d="M20.8258 36.1062C26.4516 38.4213 33.603 35.099 36.7988 28.6856C39.9947 22.2721 38.0248 15.1962 32.399 12.8811C26.7731 10.5659 19.6218 13.8882 16.4259 20.3017C13.2301 26.7151 15.1999 33.791 20.8258 36.1062Z" fill="#1A4346"/>
<path d="M17.6678 41.9297C23.2936 44.2448 30.445 40.9225 33.6408 34.5091C36.8367 28.0956 34.8668 21.0197 29.241 18.7046C23.6151 16.3894 16.4638 19.7118 13.2679 26.1252C10.0721 32.5386 12.0419 39.6145 17.6678 41.9297Z" fill="#1A4346"/>
<path d="M19.2543 38.7962C24.8801 41.1113 32.0315 37.789 35.2274 31.3756C38.4232 24.9621 36.4533 17.8862 30.8275 15.5711C25.2017 13.2559 18.0503 16.5782 14.8545 22.9917C11.6586 29.4051 13.6285 36.481 19.2543 38.7962Z" fill="#D6D4C8"/>
<path d="M62.5195 35.9032C56.8937 38.2183 49.7423 34.896 46.5465 28.4826C43.3506 22.0691 45.3205 14.9932 50.9463 12.6781C56.5721 10.3629 63.7235 13.6852 66.9194 20.0987C70.1152 26.5121 68.1453 33.588 62.5195 35.9032Z" fill="#1A4346"/>
<path d="M64.3689 38.7962C58.743 41.1113 51.5917 37.789 48.3958 31.3756C45.2 24.9621 47.1698 17.8862 52.7957 15.5711C58.4215 13.2559 65.5729 16.5782 68.7687 22.9917C71.9646 29.4051 69.9947 36.481 64.3689 38.7962Z" fill="#D6D4C8"/>
<path d="M23.3942 2.44482C16.2604 5.80732 17.6947 13.6649 17.6947 13.6649C9.76749 16.1775 8.5997 9.77223 8.5997 9.77223C3.85752 15.0098 8.13972 19.1503 8.13972 19.1503C-0.105963 21.1321 0.000127803 27.2545 0.000127803 27.2545C0.176939 29.1301 1.41577 27.7499 1.41577 27.7499C2.44203 26.6882 4.03597 26.8639 4.03597 26.8639C-3.12086 33.7205 2.15917 41.9784 2.15917 41.9784C3.46039 43.0044 3.33538 41.5781 3.33538 41.5781C3.23529 38.9756 5.23728 36.8236 5.23728 36.8236C3.3855 44.8313 9.22021 50.8402 9.22021 50.8402C15.5171 57.4109 20.3705 56.2558 20.3705 56.2558C31.4811 54.6042 37.3829 44.6258 37.3829 44.6258C38.6821 42.2605 40.2882 41.4217 41.7081 41.2371C41.4705 39.8434 41.1042 37.7771 40.962 37.4929C40.7483 37.0654 39.8932 36.2102 38.7174 35.9964C37.5417 35.7826 36.4129 36.6782 36.4129 36.6782C36.4129 36.6782 34.5408 47.955 24.0063 51.4119C12.2133 54.6326 6.61794 43.5329 6.6981 34.3112C6.6981 34.3112 4.80859 34.5379 4.20396 35.4449C4.20396 34.5379 4.30013 27.1251 8.09455 25.2012C8.09455 25.2012 5.36911 24.827 4.35365 25.5218C4.35365 25.5218 6.22405 21.1928 10.7667 20.605C10.7667 20.605 9.27043 19.1084 9.48422 16.5966C9.48422 16.5966 16.1644 17.826 19.4244 14.5659C19.4244 14.5659 17.1075 7.45785 23.3942 2.44482Z" fill="#194145"/>
<path d="M65.2578 4.7467C65.2398 4.76134 65.2214 4.77529 65.2034 4.78981L65.1984 4.81254C65.6527 9.78274 62.7052 14.0805 62.7052 14.0805C69.2609 14.6473 70.9217 8.21905 70.9221 8.21747C70.9221 8.21744 70.9198 8.21512 70.9198 8.21512C68.7258 12.3203 64.9037 12.5326 64.9037 12.5326C66.6024 8.6398 65.2578 4.74671 65.2578 4.74671V4.7467ZM70.9274 15.9866C70.9229 15.9892 70.8902 16.0087 70.8902 16.0087C77.1965 18.3602 78.2118 23.6511 78.2655 23.9183C76.3949 22.796 73.3596 24.0323 73.3596 24.0323C77.7432 28.1892 76.7607 35.3692 76.7607 35.3692C76.156 34.689 74.4177 35.0669 74.4177 35.0669C76.3827 39.6773 73.9264 46.026 73.9264 46.026C73.1706 44.8167 71.0166 44.3633 71.0166 44.3633C65.5197 54.3728 55.4164 52.1725 51.6549 43.8675C51.6549 43.8675 49.9533 39.4439 46.5686 36.4164C46.5686 36.4164 46.4175 35.8874 45.964 35.585C45.5106 35.2827 44.7904 35.2181 44.3369 36.0495C43.8834 36.8808 42.6385 37.1851 42.0339 38.6211C41.9046 38.928 41.8331 39.2603 41.7959 39.611C43.4908 39.5618 43.3958 39.912 43.3958 39.912C46.9349 41.6815 48.3789 44.8433 48.3789 44.8433C51.6346 53.1951 56.2073 53.8824 56.2073 53.8824C61.9404 57.1382 66.6155 52.8458 66.6155 52.8458C70.5791 50.7225 72.4771 46.2584 72.4771 46.2584C72.9372 46.223 73.0079 46.7892 73.0079 46.7892C73.6094 48.3109 74.4587 47.1429 74.4587 47.1429C78.7055 42.4715 76.5115 37.0217 76.5115 37.0217C80.0504 35.8184 79.9796 32.0674 79.9796 32.0674C80.3335 27.9622 75.9798 24.3865 75.9798 24.3865C77.4312 24.5117 78.8825 25.4875 78.8825 25.4875C80.0336 26.038 79.8382 24.494 79.8382 24.494C78.9888 16.7084 70.9198 16.0007 70.9198 16.0007C70.9225 15.9959 70.9247 15.9913 70.9274 15.9866V15.9866Z" fill="#194145"/>
<path fill-rule="evenodd" clip-rule="evenodd" d="M35.6147 31.9424C35.6147 31.9424 37.1009 27.9788 40.0737 27.3772C40.0737 27.3772 41.9847 26.9525 43.6125 27.6249C43.6125 27.6249 47.0453 28.4388 48.2485 32.7209C48.2485 32.7209 48.567 33.1102 48.0362 34.5612C48.0362 34.5612 43.9311 52.9635 43.7188 53.8128C43.7188 53.8128 43.1557 55.8636 42.0046 55.8136C42.0046 55.8136 40.6033 55.9888 40.1278 53.5614C40.1278 53.5614 36.1032 36.9469 35.9322 35.5685C34.9649 33.3406 35.6147 31.9424 35.6147 31.9424Z" fill="#FAB84A"/>
<path fill-rule="evenodd" clip-rule="evenodd" d="M35.6146 31.9424C35.6146 31.9424 37.1009 27.9788 40.0736 27.3772C40.0736 27.3772 41.9846 26.9525 43.6124 27.6249C43.6124 27.6249 47.0452 28.4388 48.2484 32.7209C48.2484 32.7209 48.5669 33.1102 48.0361 34.5611C48.0361 34.5611 43.9309 52.9635 43.7187 53.8128C43.7187 53.8128 43.1557 55.8636 42.0046 55.8136C42.0046 55.8136 40.6032 55.9887 40.1278 53.5614C40.1278 53.5614 36.1032 36.9469 35.9322 35.5685C34.965 33.3406 35.6146 31.9424 35.6146 31.9424Z" fill="#FAB84A"/>
<path fill-rule="evenodd" clip-rule="evenodd" d="M46.059 36.5033C45.7052 41.5286 43.2633 48.7125 43.2633 48.7125C41.6708 52.9238 40.4676 48.7125 40.4676 48.7125C40.0783 48.0048 37.2826 36.7156 37.2826 36.7156C37.2826 36.7156 36.9215 35.6258 37.9464 36.0786C37.9464 36.0786 41.595 39.0435 45.1743 35.9725C45.1743 35.9725 45.9529 35.2647 46.059 36.5033Z" fill="#501616"/>
<path d="M42.0613 39.4702C40.7687 39.4748 39.5007 40.0429 38.3907 41.1146C39.2235 44.3903 40.2402 48.299 40.4676 48.7126C40.4676 48.7126 41.6709 52.9238 43.2634 48.7126C43.2634 48.7126 44.5719 44.8558 45.4119 40.8179C44.3792 39.9353 43.2292 39.4727 42.0613 39.4702Z" fill="#9C3A3A"/>
<path d="M43.5187 31.3555C44.8558 32.3001 46.3226 32.524 46.7949 31.8554C47.2673 31.1868 46.5662 29.8791 45.2291 28.9345C43.892 27.9898 42.4252 27.766 41.9529 28.4346C41.4805 29.1032 42.1816 30.4109 43.5187 31.3555Z" fill="#FAD28E"/>
<path d="M30.0668 34.7826C25.8527 36.2432 21.2572 34.0252 19.8026 29.8284C18.348 25.6317 20.5851 21.0455 24.7992 19.5848C29.0134 18.1242 33.6088 20.3423 35.0634 24.539C36.518 28.7358 34.281 33.322 30.0668 34.7826Z" fill="#FAB84A"/>
<path d="M29.7492 33.8662C26.0433 35.1507 22.002 33.2002 20.7228 29.5095C19.4436 25.8188 21.4109 21.7857 25.1169 20.5012C28.8229 19.2167 32.8641 21.1673 34.1433 24.8579C35.4225 28.5486 33.4552 32.5817 29.7492 33.8662Z" fill="#CF7B14"/>
<path d="M29.3157 32.7982C26.175 33.8868 22.7501 32.2337 21.666 29.106C20.5819 25.9782 22.2492 22.5602 25.3899 21.4716C28.5306 20.3831 31.9555 22.0361 33.0396 25.1639C34.1236 28.2916 32.4564 31.7096 29.3157 32.7982Z" fill="#201E1E"/>
<path d="M31.6948 24.8248C30.6865 25.1742 29.587 24.6435 29.239 23.6394C28.8909 22.6352 29.4262 21.5379 30.4345 21.1884C31.4428 20.8389 32.5423 21.3696 32.8904 22.3738C33.2384 23.3779 32.7031 24.4753 31.6948 24.8248Z" fill="#FEFEFE"/>
<path d="M58.8222 34.2755C54.649 35.7219 50.0981 33.5254 48.6577 29.3694C47.2172 25.2133 49.4325 20.6716 53.6058 19.2252C57.779 17.7787 62.3299 19.9753 63.7703 24.1313C65.2108 28.2873 62.9955 32.829 58.8222 34.2755Z" fill="#FAB84A"/>
<path d="M58.5076 33.3682C54.8376 34.6402 50.8356 32.7086 49.5688 29.0537C48.302 25.3989 50.2502 21.4049 53.9202 20.1328C57.5903 18.8608 61.5923 20.7924 62.8591 24.4473C64.1258 28.1021 62.1776 32.0961 58.5076 33.3682Z" fill="#CF7B14"/>
<path d="M58.0784 32.3102C54.9681 33.3882 51.5765 31.7512 50.5029 28.6538C49.4294 25.5564 51.0804 22.1715 54.1907 21.0935C57.3009 20.0155 60.6926 21.6525 61.7661 24.7499C62.8397 27.8473 61.1886 31.2322 58.0784 32.3102Z" fill="#201E1E"/>
<path d="M60.4345 24.4141C59.436 24.7601 58.3471 24.2346 58.0025 23.2402C57.6578 22.2458 58.1879 21.1591 59.1864 20.813C60.1849 20.4669 61.2738 20.9925 61.6185 21.9869C61.9631 22.9813 61.433 24.068 60.4345 24.4141Z" fill="#FEFEFE"/>
<path d="M44.2776 0.53067C44.2666 0.542506 44.2557 0.553411 44.2446 0.565213C44.1604 0.984383 42.4559 9.15985 37.0057 11.2589C37.0057 11.2589 42.7876 10.9566 44.0347 7.44209C44.0472 7.41995 44.0579 7.39756 44.0701 7.37537C45.0312 4.63647 44.534 1.61155 44.3612 0.755934C44.3144 0.622694 44.2895 0.559486 44.2776 0.53067Z" fill="#194145"/>
</svg>
