<svg width="445" height="94" viewBox="0 0 445 94" fill="none" xmlns="http://www.w3.org/2000/svg">
<path d="M32.6238 87.6249C32.6238 87.6249 35.2643 91.7629 46.2668 90.9705C46.2668 90.9705 52.4283 91.9391 58.5016 88.4173C58.5016 88.4173 62.0224 86.4804 62.2865 76.3556C62.2865 76.3556 65.7193 54.257 58.3257 48.6223C58.3257 48.6223 50.0518 32.6866 38.6091 43.868C38.6091 43.868 30.8632 54.1689 31.0393 61.4764C31.0393 61.4764 28.0467 79.5251 32.6238 87.6249Z" fill="#F2EEE3"/>
<path d="M61.0331 84.1543C61.0331 86.3132 59.455 88.3836 56.6461 89.9102C53.8372 91.4368 50.0275 92.2944 46.0551 92.2944C44.0881 92.2944 42.1405 92.0838 40.3233 91.6747C38.5061 91.2657 36.8549 90.6661 35.464 89.9102C34.0732 89.1543 32.97 88.257 32.2172 87.2694C31.4645 86.2818 31.077 85.2233 31.077 84.1543C31.077 83.0853 31.4645 82.0268 32.2172 81.0392C32.97 80.0516 34.0732 79.1543 35.464 78.3984C36.8549 77.6425 38.5061 77.043 40.3233 76.6339C42.1405 76.2248 44.0881 76.0143 46.0551 76.0143C50.0275 76.0143 53.8372 76.8719 56.6461 78.3984C59.455 79.925 61.0331 81.9954 61.0331 84.1543Z" fill="#D5D3C7"/>
<path d="M61.3332 77.4127C61.3332 78.4816 60.9457 79.5401 60.1929 80.5277C59.4402 81.5153 58.337 82.4127 56.9462 83.1685C55.5553 83.9244 53.9041 84.524 52.0869 84.9331C50.2697 85.3422 48.3221 85.5527 46.3551 85.5527C42.3827 85.5527 38.573 84.6951 35.7641 83.1685C32.9552 81.642 31.3771 79.5715 31.3771 77.4127C31.3771 76.3437 31.7646 75.2852 32.5173 74.2976C33.27 73.31 34.3733 72.4126 35.7641 71.6568C37.1549 70.9009 38.806 70.3013 40.6232 69.8922C42.4404 69.4832 44.3882 69.2726 46.3551 69.2726C48.3221 69.2726 50.2697 69.4832 52.0869 69.8922C53.9041 70.3013 55.5553 70.9009 56.9462 71.6568C58.337 72.4126 59.4402 73.31 60.1929 74.2976C60.9457 75.2852 61.3332 76.3437 61.3332 77.4127Z" fill="#F2EEE3"/>
<path fill-rule="evenodd" clip-rule="evenodd" d="M37.3988 63.9478C37.3988 63.9478 41.141 56.5323 42.5531 56.1791C42.5531 56.1791 43.3196 59.517 46.1256 60.8976C46.1256 60.8976 49.2539 59.3511 49.2004 56.0662C49.2004 56.0662 50.6498 56.938 53.4457 62.4312C53.4457 62.4312 58.8379 60.8332 58.8379 58.536C58.8379 56.2389 59.2373 54.6907 58.5882 52.6432C57.9392 50.5957 57.0404 48.4983 55.8921 47.1C54.7437 45.7017 53.8451 44.4033 51.6983 43.7041C49.5514 43.005 46.3061 42.206 45.3076 42.5556C44.3091 42.9051 41.7629 43.7541 40.5147 45.1524C39.2666 46.5507 37.5191 47.4496 36.7702 49.2474C36.0213 51.0452 34.7732 52.2936 34.6733 53.4422C34.5735 54.5908 32.6264 52.2936 34.5735 56.0391C36.5207 59.7845 37.3988 63.9478 37.3988 63.9478Z" fill="#D5D3C7"/>
<path d="M67.3594 56.5502C70.596 62.6513 70.2226 70.7445 70.2226 70.7445C67.6085 84.565 57.6563 89.3288 57.6563 89.3288C61.3906 75.01 53.5423 62.6513 53.5423 62.6513C50.8037 57.4218 56.1562 53.9356 56.1562 53.9356C49.1854 50.3248 46.0733 38.4964 46.0733 38.4964C43.4593 50.5738 35.4927 53.9356 35.4927 53.9356C40.5965 57.5464 38.3557 61.7797 38.3557 61.7797L34.4969 71.4916C31.5093 77.219 33.9814 88.9825 33.9814 88.9825C12.6954 76.0334 25.0365 54.6826 25.0365 54.6826C25.0365 54.6826 25.5298 52.9572 23.6373 53.6175C23.4174 53.7496 21.261 54.8061 20.2927 57.7995C20.1607 57.5354 19.0604 55.0262 19.6766 52.2969C19.5005 52.3409 20.2487 51.1083 17.9602 51.3725C17.9602 51.3725 13.559 52.429 12.2387 53.5735C12.2387 53.5735 14.0873 51.2844 13.9991 49.4796C13.9991 49.4796 14.1753 48.6432 12.1067 48.5991C12.1067 48.5991 8.13835 48.5817 6.42666 47.5856C6.42666 47.5856 8.76064 45.1888 8.76064 43.9748C8.76064 43.9748 9.50772 41.3601 6.48902 41.4846C6.48902 41.4846 3.37707 42.1694 2.50569 43.1654C2.50569 43.1654 2.56784 40.5196 3.62605 39.5235C3.62605 39.5235 5.19717 37.77 5.85731 37.2418C5.85731 37.2418 6.69361 36.7575 5.46133 36.0532C5.46133 36.0532 1.19235 35.569 0.312073 30.7267C0.312073 30.7267 2.20444 33.1478 4.31703 31.0788C4.31703 31.0788 4.49302 28.1293 0.532168 26.9849C0.532168 26.9849 1.67643 25.9284 3.34881 25.6643C3.34881 25.6643 5.5054 25.7082 5.81329 24.4317C5.81329 24.4317 6.03347 23.0669 3.1289 21.5702C3.1289 21.5702 6.51757 22.0546 7.17769 21.2621C7.17769 21.2621 2.9527 20.3817 3.34881 13.9986C3.34881 13.9986 5.41743 17.1241 7.30975 16.1557C7.30975 16.1557 8.58586 15.5834 7.74974 13.3823C7.74974 13.3823 6.9136 12.0177 5.94535 11.7095C5.94535 11.7095 7.26562 9.06831 12.5028 9.28842C12.5028 9.28842 15.1874 8.84819 12.8548 6.5591C12.8548 6.5591 15.6275 6.11889 17.6961 7.52761C17.6961 7.52761 16.6399 3.91791 18.2682 0.0439816C18.2682 0.0439816 25.9701 7.74238 38.1069 8.42718C38.1069 8.42718 38.0446 5.56337 41.1565 3.94478C41.1565 3.94478 40.7208 6.31049 42.3391 7.11976C42.3391 7.11976 42.9615 7.49331 43.4594 6.49726C43.4594 6.49726 44.3929 3.26001 43.895 1.081C43.895 1.081 46.2602 2.63735 46.7581 6.31047C46.7581 6.31047 47.0694 7.68011 47.754 6.74623C47.754 6.74623 48.8742 3.75802 50.0567 3.01093C50.0567 3.01093 49.1855 6.3105 50.6171 7.80458C50.6171 7.80458 51.4261 8.55164 51.7995 8.55164C51.7995 8.55164 65.9311 8.01183 74.2052 0C74.2052 0 76.4938 3.16951 74.9973 8.27593C74.9973 8.27593 82.3593 7.18206 84.8489 10.6683C84.8489 10.6683 82.4838 11.3532 82.2969 12.9717C82.2969 12.9717 82.3594 14.4036 83.9776 14.5904C83.9776 14.5904 86.4047 15.0262 87.8362 13.781C87.8362 13.781 88.4589 18.6993 84.1021 20.6292C84.1021 20.6292 83.3813 20.7999 83.8432 21.13C83.8432 21.13 85.5819 21.3062 87.1881 20.5799C87.1881 20.5799 86.1979 21.7024 85.7578 22.3626C85.7578 22.3626 84.5475 23.3972 85.6478 24.3877C85.6478 24.3877 91.6018 25.7341 92.5978 28.3176C92.5978 28.3176 88.7077 27.1348 87.1207 30.7766C87.1207 30.7766 87.6496 33.2046 90.5438 32.5821C90.5438 32.5821 90.5329 35.3048 85.6478 37.0657C85.6478 37.0657 84.9436 37.5499 85.3399 38.6504C85.3399 38.6504 87.9364 41.2036 87.6283 44.4612C87.6283 44.4612 86.572 43.0965 84.6796 42.7884C84.6796 42.7884 82.7431 42.3042 82.6111 44.3731C82.6111 44.3731 82.8311 46.9263 84.6356 47.8068C84.6356 47.8068 83.1391 49.1274 78.0339 48.0709C78.0339 48.0709 77.2858 47.6747 77.55 48.7312C77.55 48.7312 78.2539 51.5485 77.1977 54.2778C77.1977 54.2778 76.6698 52.2969 75.3935 51.6806C75.3935 51.6806 74.161 50.6681 73.3688 52.2529C73.3688 52.2529 72.8846 55.8186 70.0681 57.0071C70.0681 57.0071 70.2442 55.9947 69.6282 55.5544C69.6282 55.5544 68.6118 54.7288 67.3594 56.5502Z" fill="#0A9C9A"/>
<path d="M46.2694 33.4907C43.5759 34.4576 40.8171 39.7516 40.8171 39.7516C41.199 44.8239 46.1917 49.3606 46.2667 49.4285V49.4465C46.2667 49.4465 46.2756 49.4372 46.276 49.437C46.2761 49.4371 46.2801 49.441 46.2801 49.441V49.4338C46.3545 49.3629 51.144 44.7795 51.5259 39.7084C51.5259 39.7084 48.9617 34.4622 46.2689 33.4935V33.4907H46.2694Z" fill="#0A5B59"/>
<path d="M40.9694 40.7995C40.9694 40.7995 43.6469 36.0275 46.261 35.1559L46.2716 49.5335C46.2716 49.5335 41.3435 45.4064 40.97 40.7995H40.9694Z" fill="#FAB84A"/>
<path d="M51.3634 40.7606C51.3634 40.7606 48.8737 36.0293 46.2596 35.1577V49.5386C46.2596 49.5386 50.99 45.3675 51.3634 40.7606Z" fill="#E9934C"/>
<path d="M41.6652 30.5549C41.6652 32.688 41.2453 34.8002 40.4292 36.771C39.6131 38.7418 38.4168 40.5325 36.9089 42.0408C35.4009 43.5492 33.6106 44.7457 31.6403 45.562C29.67 46.3783 27.5583 46.7985 25.4257 46.7985C23.2931 46.7985 21.1814 46.3783 19.2111 45.562C17.2408 44.7457 15.4505 43.5492 13.9425 42.0408C12.4345 40.5325 11.2383 38.7418 10.4221 36.771C9.60602 34.8002 9.18613 32.688 9.18613 30.5549C9.18613 26.2468 10.897 22.1152 13.9425 19.0689C16.988 16.0227 21.1187 14.3113 25.4257 14.3113C29.7327 14.3113 33.8633 16.0227 36.9089 19.0689C39.9544 22.1152 41.6652 26.2468 41.6652 30.5549Z" fill="#0A5B59"/>
<path d="M41.1174 31.3121C41.1174 35.4228 39.5669 39.3652 36.8069 42.2719C34.0468 45.1786 30.3032 46.8116 26.3998 46.8116C24.4671 46.8116 22.5533 46.4107 20.7677 45.6318C18.9821 44.8528 17.3595 43.7111 15.9928 42.2719C14.6261 40.8326 13.5422 39.124 12.8026 37.2435C12.063 35.363 11.6822 33.3475 11.6822 31.3121C11.6822 29.2767 12.063 27.2612 12.8026 25.3807C13.5422 23.5002 14.6261 21.7916 15.9928 20.3523C17.3595 18.9131 18.9821 17.7714 20.7677 16.9924C22.5533 16.2135 24.4671 15.8126 26.3998 15.8126C30.3032 15.8126 34.0468 17.4456 36.8069 20.3523C39.5669 23.259 41.1174 27.2014 41.1174 31.3121Z" fill="#F2EEE3"/>
<path d="M83.4333 30.5424C83.4333 32.6756 83.0134 34.7878 82.1973 36.7586C81.3811 38.7294 80.1849 40.52 78.6769 42.0284C77.1689 43.5367 75.3786 44.7332 73.4083 45.5496C71.438 46.3659 69.3263 46.786 67.1937 46.786C62.8867 46.786 58.756 45.0747 55.7105 42.0284C52.665 38.9821 50.9542 34.8505 50.9542 30.5424C50.9542 26.2344 52.665 22.1027 55.7105 19.0565C58.756 16.0102 62.8867 14.2988 67.1937 14.2988C71.5007 14.2988 75.6314 16.0102 78.6769 19.0565C81.7224 22.1027 83.4333 26.2344 83.4333 30.5424Z" fill="#0A5B59"/>
<path d="M80.8954 31.3371C80.8954 33.3726 80.5146 35.388 79.775 37.2685C79.0354 39.149 77.9514 40.8576 76.5848 42.2969C75.2181 43.7362 73.5955 44.8779 71.8099 45.6568C70.0242 46.4357 68.1105 46.8366 66.1778 46.8366C64.245 46.8366 62.3313 46.4357 60.5456 45.6568C58.76 44.8779 57.1374 43.7362 55.7707 42.2969C54.4041 40.8576 53.3199 39.149 52.5803 37.2685C51.8407 35.388 51.4601 33.3726 51.4601 31.3371C51.4601 29.3017 51.8407 27.2862 52.5803 25.4057C53.3199 23.5253 54.4041 21.8166 55.7707 20.3774C57.1374 18.9381 58.76 17.7964 60.5456 17.0175C62.3313 16.2386 64.245 15.8376 66.1778 15.8376C68.1105 15.8376 70.0242 16.2386 71.8099 17.0175C73.5955 17.7964 75.2181 18.9381 76.5848 20.3774C77.9514 21.8166 79.0354 23.5253 79.775 25.4057C80.5146 27.2862 80.8954 29.3017 80.8954 31.3371Z" fill="#F2EEE3"/>
<path d="M38.2965 32.4308C38.2965 33.5587 38.0736 34.6756 37.6403 35.7176C37.207 36.7597 36.5719 37.7065 35.7712 38.5041C34.9706 39.3016 34.02 39.9342 32.9739 40.3659C31.9278 40.7975 30.8065 41.0196 29.6742 41.0196C27.3874 41.0196 25.1942 40.1147 23.5772 38.504C21.9602 36.8933 21.0519 34.7087 21.0519 32.4308C21.0519 30.1529 21.9602 27.9682 23.5772 26.3575C25.1942 24.7468 27.3874 23.8419 29.6742 23.8419C30.8065 23.8419 31.9278 24.0641 32.9739 24.4957C34.02 24.9273 34.9706 25.56 35.7712 26.3575C36.5719 27.1551 37.207 28.1019 37.6403 29.1439C38.0736 30.186 38.2965 31.3029 38.2965 32.4308Z" fill="#FAB84A"/>
<path d="M36.1639 32.3542C36.1639 34.0519 35.487 35.68 34.2819 36.8805C33.0768 38.0809 31.4422 38.7553 29.7379 38.7553C28.0336 38.7553 26.399 38.0809 25.1939 36.8805C23.9888 35.68 23.3119 34.0519 23.3119 32.3542C23.3119 30.6565 23.9888 29.0284 25.1939 27.828C26.399 26.6275 28.0336 25.9531 29.7379 25.9531C31.4422 25.9531 33.0768 26.6275 34.2819 27.828C35.487 29.0284 36.1639 30.6565 36.1639 32.3542Z" fill="#201E1E"/>
<path d="M28.2547 28.2345C28.2547 28.5044 28.2012 28.7716 28.0975 29.0209C27.9938 29.2702 27.8419 29.4968 27.6504 29.6876C27.4588 29.8785 27.2313 30.0298 26.981 30.1331C26.7307 30.2364 26.4625 30.2895 26.1916 30.2895C25.9206 30.2895 25.6524 30.2364 25.4021 30.1331C25.1518 30.0298 24.9243 29.8785 24.7327 29.6876C24.5412 29.4968 24.3893 29.2702 24.2856 29.0209C24.1819 28.7716 24.1284 28.5044 24.1284 28.2345C24.1284 27.9646 24.1819 27.6974 24.2856 27.4481C24.3893 27.1987 24.5412 26.9722 24.7327 26.7814C24.9243 26.5905 25.1518 26.4392 25.4021 26.3359C25.6524 26.2326 25.9206 26.1794 26.1916 26.1794C26.4625 26.1794 26.7307 26.2326 26.981 26.3359C27.2313 26.4392 27.4588 26.5905 27.6504 26.7814C27.8419 26.9722 27.9938 27.1987 28.0975 27.4481C28.2012 27.6974 28.2547 27.9646 28.2547 28.2345Z" fill="#FEFEFE"/>
<path d="M71.9366 32.4575C71.9366 34.7354 71.0283 36.92 69.4112 38.5308C67.7942 40.1415 65.601 41.0464 63.3142 41.0464C62.1819 41.0464 61.0606 40.8242 60.0145 40.3926C58.9684 39.961 58.0179 39.3284 57.2172 38.5308C56.4165 37.7333 55.7814 36.7864 55.3481 35.7444C54.9148 34.7023 54.6919 33.5854 54.6919 32.4575C54.6919 31.3296 54.9148 30.2127 55.3481 29.1707C55.7814 28.1286 56.4165 27.1818 57.2172 26.3842C58.0179 25.5867 58.9684 24.9541 60.0145 24.5224C61.0606 24.0908 62.1819 23.8687 63.3142 23.8687C65.601 23.8687 67.7942 24.7735 69.4112 26.3842C71.0283 27.995 71.9366 30.1796 71.9366 32.4575Z" fill="#FAB84A"/>
<path d="M69.8039 32.3803C69.8039 34.078 69.127 35.7061 67.9219 36.9066C66.7168 38.107 65.0822 38.7814 63.3779 38.7814C61.6736 38.7814 60.039 38.1071 58.8339 36.9066C57.6288 35.7062 56.9519 34.078 56.9519 32.3803C56.9519 31.5397 57.118 30.7074 57.4409 29.9307C57.7639 29.1541 58.2372 28.4485 58.8339 27.8541C59.4306 27.2597 60.1392 26.7882 60.9188 26.4665C61.6985 26.1448 62.534 25.9792 63.3779 25.9792C65.0822 25.9793 66.7168 26.6536 67.9219 27.8541C69.127 29.0545 69.8039 30.6827 69.8039 32.3803Z" fill="#201E1E"/>
<path d="M61.8947 28.2612C61.8947 28.5311 61.8412 28.7983 61.7375 29.0476C61.6339 29.297 61.482 29.5235 61.2904 29.7143C61.0988 29.9051 60.8713 30.0565 60.621 30.1598C60.3707 30.2631 60.1025 30.3162 59.8316 30.3162C59.5607 30.3162 59.2925 30.2631 59.0422 30.1598C58.7918 30.0565 58.5644 29.9051 58.3728 29.7143C58.1812 29.5235 58.0293 29.297 57.9256 29.0476C57.822 28.7983 57.7685 28.5311 57.7685 28.2612C57.7685 27.9913 57.822 27.7241 57.9256 27.4748C58.0293 27.2255 58.1812 26.9989 58.3728 26.8081C58.5644 26.6172 58.7918 26.4659 59.0422 26.3626C59.2925 26.2593 59.5607 26.2062 59.8316 26.2062C60.1025 26.2062 60.3707 26.2593 60.621 26.3626C60.8713 26.4659 61.0988 26.6172 61.2904 26.8081C61.482 26.9989 61.6339 27.2255 61.7375 27.4748C61.8412 27.7241 61.8947 27.9913 61.8947 28.2612Z" fill="#FEFEFE"/>
<path d="M36.7413 90.3706C36.7413 90.8308 36.7049 91.2866 36.6344 91.7118C36.5638 92.1371 36.4604 92.5235 36.3301 92.8489C36.1998 93.1744 36.0451 93.4326 35.8748 93.6088C35.7046 93.7849 35.522 93.8755 35.3377 93.8755C34.9655 93.8755 34.6086 93.5063 34.3454 92.8489C34.0822 92.1916 33.9341 91.3001 33.9341 90.3706C33.9341 89.441 34.0822 88.5495 34.3454 87.8922C34.6086 87.2349 34.9655 86.8656 35.3377 86.8656C35.71 86.8656 36.0669 87.2349 36.3301 87.8922C36.5933 88.5495 36.7413 89.441 36.7413 90.3706Z" fill="#E9934C"/>
<path d="M39.9462 90.3546C39.9462 90.8148 39.9098 91.2706 39.8393 91.6958C39.7687 92.1211 39.6653 92.5075 39.535 92.8329C39.4047 93.1584 39.25 93.4166 39.0797 93.5927C38.9095 93.7689 38.7269 93.8595 38.5426 93.8595C38.3583 93.8595 38.1758 93.7689 38.0055 93.5927C37.8352 93.4166 37.6806 93.1584 37.5503 92.8329C37.4199 92.5075 37.3165 92.1211 37.246 91.6958C37.1755 91.2706 37.139 90.8148 37.139 90.3546C37.139 89.425 37.2871 88.5335 37.5503 87.8762C37.8135 87.2189 38.1704 86.8496 38.5426 86.8496C38.9149 86.8496 39.2718 87.2189 39.535 87.8762C39.7982 88.5335 39.9462 89.425 39.9462 90.3546Z" fill="#E9934C"/>
<path d="M43.2152 90.3861C43.2152 91.3156 43.0672 92.2071 42.804 92.8644C42.5408 93.5217 42.1839 93.891 41.8116 93.891C41.6273 93.891 41.4448 93.8004 41.2745 93.6242C41.1042 93.4481 40.9496 93.1899 40.8193 92.8644C40.689 92.539 40.5855 92.1526 40.515 91.7274C40.4445 91.3021 40.4081 90.8463 40.4081 90.3861C40.4081 89.9258 40.4445 89.47 40.515 89.0448C40.5855 88.6196 40.689 88.2332 40.8193 87.9077C40.9496 87.5822 41.1042 87.324 41.2745 87.1479C41.4448 86.9717 41.6273 86.8811 41.8116 86.8811C42.1839 86.8811 42.5408 87.2504 42.804 87.9077C43.0672 88.565 43.2152 89.4565 43.2152 90.3861Z" fill="#E9934C"/>
<path d="M51.2596 90.4787C51.2596 90.939 51.2232 91.3947 51.1527 91.82C51.0821 92.2452 50.9787 92.6316 50.8484 92.9571C50.7181 93.2826 50.5634 93.5408 50.3932 93.7169C50.2229 93.893 50.0404 93.9837 49.856 93.9837C49.6717 93.9837 49.4892 93.893 49.3189 93.7169C49.1487 93.5408 48.994 93.2826 48.8637 92.9571C48.7334 92.6316 48.6299 92.2452 48.5594 91.82C48.4889 91.3947 48.4525 90.939 48.4525 90.4787C48.4525 89.5491 48.6005 88.6577 48.8637 88.0003C49.1269 87.343 49.4838 86.9738 49.856 86.9738C50.2283 86.9738 50.5852 87.343 50.8484 88.0003C51.1116 88.6577 51.2596 89.5491 51.2596 90.4787Z" fill="#E9934C"/>
<path d="M54.4645 90.4638C54.4645 90.9241 54.4281 91.3799 54.3576 91.8051C54.287 92.2304 54.1836 92.6167 54.0533 92.9422C53.923 93.2676 53.7683 93.5258 53.5981 93.702C53.4278 93.8781 53.2453 93.9688 53.0609 93.9688C52.8766 93.9688 52.6941 93.8781 52.5238 93.702C52.3535 93.5258 52.1989 93.2676 52.0686 92.9422C51.9383 92.6167 51.8348 92.2304 51.7643 91.8051C51.6938 91.3799 51.6573 90.9241 51.6573 90.4638C51.6573 90.0035 51.6938 89.5478 51.7643 89.1225C51.8348 88.6973 51.9383 88.3109 52.0686 87.9855C52.1989 87.66 52.3535 87.4018 52.5238 87.2256C52.6941 87.0495 52.8766 86.9589 53.0609 86.9589C53.2453 86.9589 53.4278 87.0495 53.5981 87.2256C53.7683 87.4018 53.923 87.66 54.0533 87.9855C54.1836 88.3109 54.287 88.6973 54.3576 89.1225C54.4281 89.5478 54.4645 90.0035 54.4645 90.4638Z" fill="#E9934C"/>
<path d="M57.732 90.4953C57.732 91.4249 57.584 92.3164 57.3208 92.9737C57.0576 93.631 56.7007 94.0003 56.3285 94.0003C55.9562 94.0003 55.5993 93.631 55.3361 92.9737C55.0729 92.3164 54.9249 91.4249 54.9249 90.4953C54.9249 90.035 54.9613 89.5793 55.0318 89.154C55.1024 88.7288 55.2058 88.3424 55.3361 88.0169C55.4664 87.6915 55.6211 87.4333 55.7913 87.2571C55.9616 87.081 56.1441 86.9904 56.3285 86.9904C56.5128 86.9904 56.6953 87.081 56.8656 87.2571C57.0359 87.4333 57.1905 87.6915 57.3208 88.0169C57.4511 88.3424 57.5546 88.7288 57.6251 89.154C57.6956 89.5793 57.732 90.035 57.732 90.4953Z" fill="#E9934C"/>
<path d="M31.964 55.4065C31.964 55.4065 28.701 56.5762 24.9136 54.5368C24.9136 54.5368 22.0334 53.307 20.4019 58.4056C20.2854 58.2856 18.3295 56.6962 19.1452 52.6473C19.1452 52.6473 19.6405 51.5376 17.4555 51.8675C17.4555 51.8675 12.328 53.5171 11.6579 54.4468C11.6579 54.4468 13.5223 51.5676 13.4932 49.7081C13.4932 49.7081 13.4933 49.0333 11.6287 49.0633C11.6287 49.0633 7.5645 49.0183 5.94759 47.9236C5.94759 47.8636 8.05976 45.8992 8.40938 44.2496C8.40938 44.2496 8.89016 41.7453 6.61772 41.8802C6.61772 41.8802 3.92292 41.8802 2.20404 43.5298C2.20404 43.5298 1.66534 40.1379 5.31163 37.4869C5.31163 37.4869 6.09444 37.0415 5.16741 36.575C5.16741 36.575 0.961413 35.3205 0 30.3118C0 30.3118 1.72322 32.4927 3.35471 31.593C3.35471 31.593 3.67535 31.4731 3.87927 30.9932C3.87927 30.9932 3.80777 28.092 0.058499 26.9256C0.058499 26.9256 1.19888 25.5946 3.99569 25.3547C3.99569 25.3547 5.91859 24.7849 4.98632 23.4952C4.98632 23.4952 3.64604 22.0256 2.80119 21.5457C2.80119 21.5457 5.80207 21.6657 6.76349 21.0658C6.67606 21.0359 2.64308 20.566 3.2549 13.6379C3.2549 13.6379 6.2973 17.9467 7.55004 14.9775C7.46266 14.7975 8.02054 13.0053 5.39851 11.5357C5.39851 11.5357 7.11297 8.88913 12.0657 8.82915C12.0657 8.82915 14.4255 8.22932 12.4153 6.15989C12.4153 6.15989 15.7366 5.59001 17.2225 7.02962C17.2516 6.96963 16.6146 4.05755 18.2169 0.0986328C18.2169 0.0986328 17.6885 7.23961 18.7956 10.0289C18.6499 9.93887 17.0185 7.62947 14.8918 6.7597C14.8918 6.7597 15.9696 10.4487 12.1823 10.5387C12.1823 10.5387 9.12311 9.90886 7.66646 11.0785C7.66646 11.0785 9.96816 15.2774 8.19102 17.0469C8.19102 17.0469 6.55955 18.5165 4.4328 16.4471C4.4328 16.4471 4.21233 19.8062 8.58236 20.706C8.58236 20.706 7.83349 22.4512 5.56107 22.5112C5.56107 22.5112 7.48731 24.3371 6.05976 25.7167C6.05976 25.7167 4.67904 26.9303 2.83035 26.9442C2.83035 26.9442 5.93197 28.7494 5.51995 31.5488C5.51995 31.5488 4.51908 33.8204 1.99495 33.0333C1.99495 33.0333 3.66313 34.5024 6.46481 35.4355C6.46481 35.4355 8.16685 36.5289 7.384 37.7165C7.384 37.7165 4.80244 38.6539 4.01963 41.3261C4.01963 41.3261 7.89345 39.462 9.66508 40.8617C9.66508 40.8617 10.9074 44.3603 7.96918 47.1575C7.96918 47.1575 13.5271 48.0752 15.7932 47.7783C15.7932 47.7783 15.1057 50.8519 14.4877 51.7002C14.8173 51.5305 19.051 49.7885 21.6054 50.3823C21.6054 50.3823 19.7528 54.0287 19.9588 55.386C19.9588 55.386 23.2456 51.9041 26.0884 52.4131C26.0884 52.4131 25.1403 54.5364 31.964 55.4065Z" fill="#0A5B59"/>
<path d="M60.3076 56.0017C60.3076 56.0017 62.7178 58.0312 67.7725 56.7829C67.7725 56.7829 68.4622 56.5168 68.9794 56.1621C68.9794 56.1621 69.9641 55.3273 69.9887 56.9726C69.9887 56.9726 73.4045 56.2508 73.9792 52.5552C73.9792 52.5552 74.2473 51.0643 75.799 52.1877C75.799 52.1877 76.6594 52.9079 77.0617 54.8592C77.0617 54.8592 78.9215 51.7866 78.0595 48.8006C78.0595 48.8006 78.0308 48.1501 78.6342 48.2979C78.6342 48.2979 83.0594 49.6284 85.0708 47.8545C85.0708 47.8545 82.7145 46.5537 83.2317 43.479C83.2317 43.479 83.6762 42.5793 85.5153 43.141C85.5153 43.141 87.432 43.8153 87.6905 44.7613C87.6905 44.7613 88.3973 41.1989 85.7153 38.6066C85.7153 38.6066 84.9742 37.8257 86.2136 37.1149C86.2136 37.1149 90.2931 35.3867 90.8823 32.3764C90.8823 32.3764 88.3322 33.4271 87.427 30.7959C87.427 30.7959 88.7307 27.4946 92.8253 28.4702C92.8253 28.4702 91.6589 25.4917 86.051 24.3628C86.051 24.3628 84.9335 24.0075 86.051 22.4605L87.8917 20.1917C87.8917 20.1917 85.3867 21.457 84.2082 20.9553C84.2082 20.9553 83.8974 20.809 84.4866 20.5999C84.4866 20.5999 88.492 18.8606 88.1263 13.4044C88.1263 13.4044 84.5677 16.0426 82.861 13.5549C82.861 13.5549 82.2539 11.9838 85.6064 10.604C85.6064 10.604 84.0363 7.2628 75.5309 8.17929C75.5309 8.17929 76.9598 3.47753 74.2284 0.0159912C74.2284 0.0159912 76.4811 7.45064 73.6365 10.0847C73.6365 10.0847 78.96 7.78511 84.2428 10.3774C84.2428 10.3774 81.0325 10.3773 82.1297 14.4329C82.1297 14.4329 83.3486 16.398 87.1685 15.52C87.1685 15.52 85.1368 19.5338 82.6986 21.039C82.6986 21.039 84.4865 22.126 85.7056 22.0006C85.6454 22.2223 84.2086 24.5283 83.7201 24.7352C83.7201 24.7352 87.453 25.22 89.9318 27.185C89.9318 27.185 87.575 27.7286 86.4372 31.0316C86.4372 31.0316 87.7376 33.4565 89.1192 33.791C89.1524 33.6635 86.3151 36.4251 84.1208 37.1776C84.2833 37.3867 86.7623 41.5259 87.2092 42.9893C87.2092 42.9893 85.1775 41.1914 82.6986 42.613C82.6986 42.613 81.7709 45.5098 82.9203 47.6681C82.9203 47.6681 79.7434 48.0582 77.3412 47.0267C77.3412 47.0267 77.5317 51.293 77.2731 52.3869C77.2731 52.3869 75.2891 50.5448 73.3618 50.7797C73.3618 50.7797 72.9735 54.5656 71.623 55.1273C71.623 55.1273 70.8183 54.063 69.669 53.6787C69.669 53.6787 65.9794 57.3359 60.3076 56.0017Z" fill="#0A5B59"/>
<path fill-rule="evenodd" clip-rule="evenodd" d="M21.4803 68.45C21.4803 68.45 21.7438 59.1944 25.2741 54.0389C25.2741 54.0389 32.9993 56.9844 35.4583 53.9272C35.4583 53.9272 38.457 55.5434 38.8806 59.004C38.8806 59.004 39.2156 60.6084 37.3932 64.254C37.3932 64.254 37.6197 57.1606 31.6244 58.0295C31.6244 58.0295 23.6271 58.0231 21.4803 68.45Z" fill="#188683"/>
<path fill-rule="evenodd" clip-rule="evenodd" d="M33.053 81.1592C33.053 81.1592 23.8192 77.813 21.4891 69.5499C21.4891 69.5499 20.4996 80.7297 33.9855 88.9927C33.9855 88.9927 33.1501 83.8076 33.053 81.1592Z" fill="#188683"/>
<path fill-rule="evenodd" clip-rule="evenodd" d="M70.2015 68.9053C70.2015 68.9053 70.3794 60.6208 66.8491 55.4652C66.8491 55.4652 61.3304 57.9076 56.153 53.897C56.153 53.897 53.1543 55.2571 52.7748 59.371C52.7748 59.371 52.4363 61.477 54.4208 64.2237C54.4208 64.2237 54.0622 57.6158 60.0574 58.4847C60.0574 58.4847 68.0548 58.4784 70.2015 68.9053Z" fill="#188683"/>
<path fill-rule="evenodd" clip-rule="evenodd" d="M58.6548 82.0581C58.6548 82.0581 67.8989 78.2643 70.2289 70.0012C70.2289 70.0012 71.1395 81.098 57.6536 89.361C57.6536 89.361 58.5577 84.7065 58.6548 82.0581Z" fill="#188683"/>
<path d="M36.5548 89.8879C36.5548 90.6712 36.4301 91.4225 36.2083 91.9763C35.9865 92.5302 35.6858 92.8413 35.3721 92.8413C35.0585 92.8413 34.7577 92.5302 34.5359 91.9763C34.3142 91.4225 34.1894 90.6712 34.1894 89.8879C34.1894 89.5001 34.2201 89.1161 34.2796 88.7578C34.339 88.3994 34.4261 88.0738 34.5359 87.7996C34.6458 87.5253 34.7761 87.3078 34.9196 87.1594C35.0631 87.011 35.2168 86.9346 35.3721 86.9346C35.5274 86.9346 35.6812 87.011 35.8247 87.1594C35.9681 87.3078 36.0985 87.5253 36.2083 87.7996C36.3181 88.0738 36.4052 88.3994 36.4647 88.7578C36.5241 89.1161 36.5548 89.5001 36.5548 89.8879Z" fill="#FAB84A"/>
<path d="M39.7373 89.86C39.7373 90.6433 39.6125 91.3945 39.3907 91.9483C39.1689 92.5022 38.8682 92.8134 38.5545 92.8134C38.3992 92.8134 38.2455 92.737 38.102 92.5885C37.9585 92.4401 37.8282 92.2226 37.7184 91.9484C37.6086 91.6741 37.5214 91.3485 37.462 90.9902C37.4026 90.6319 37.3718 90.2478 37.3718 89.86C37.3718 89.4722 37.4026 89.0881 37.462 88.7298C37.5214 88.3715 37.6086 88.0459 37.7184 87.7716C37.8282 87.4974 37.9585 87.2798 38.102 87.1314C38.2455 86.983 38.3992 86.9066 38.5545 86.9066C38.8682 86.9066 39.1689 87.2178 39.3907 87.7717C39.6125 88.3255 39.7373 89.0767 39.7373 89.86Z" fill="#FAB84A"/>
<path d="M42.9825 89.9348C42.9825 90.3227 42.9518 90.7067 42.8924 91.065C42.8329 91.4234 42.7458 91.749 42.636 92.0232C42.5262 92.2975 42.3959 92.515 42.2524 92.6634C42.1089 92.8119 41.9551 92.8882 41.7998 92.8882C41.6445 92.8882 41.4908 92.8119 41.3473 92.6634C41.2038 92.515 41.0735 92.2975 40.9636 92.0232C40.8538 91.749 40.7667 91.4234 40.7073 91.065C40.6478 90.7067 40.6171 90.3227 40.6171 89.9348C40.6171 89.547 40.6478 89.163 40.7073 88.8046C40.7667 88.4463 40.8538 88.1207 40.9636 87.8465C41.0735 87.5722 41.2038 87.3547 41.3473 87.2062C41.4908 87.0578 41.6445 86.9814 41.7998 86.9814C41.9551 86.9814 42.1089 87.0578 42.2524 87.2062C42.3959 87.3547 42.5262 87.5722 42.636 87.8465C42.7458 88.1207 42.8329 88.4463 42.8924 88.8046C42.9518 89.163 42.9825 89.547 42.9825 89.9348Z" fill="#FAB84A"/>
<path d="M51.0581 90.0221C51.0581 90.41 51.0274 90.794 50.968 91.1523C50.9085 91.5106 50.8214 91.8362 50.7116 92.1105C50.6018 92.3847 50.4714 92.6023 50.328 92.7507C50.1845 92.8991 50.0307 92.9755 49.8754 92.9755C49.7201 92.9755 49.5663 92.8991 49.4229 92.7507C49.2794 92.6023 49.1491 92.3847 49.0392 92.1105C48.9294 91.8362 48.8423 91.5106 48.7828 91.1523C48.7234 90.794 48.6927 90.41 48.6927 90.0221C48.6927 89.6343 48.7234 89.2502 48.7828 88.8919C48.8423 88.5336 48.9294 88.208 49.0392 87.9337C49.1491 87.6595 49.2794 87.4419 49.4229 87.2935C49.5663 87.1451 49.7201 87.0687 49.8754 87.0687C50.0307 87.0687 50.1845 87.1451 50.328 87.2935C50.4714 87.4419 50.6018 87.6595 50.7116 87.9337C50.8214 88.208 50.9085 88.5336 50.968 88.8919C51.0274 89.2502 51.0581 89.6343 51.0581 90.0221Z" fill="#FAB84A"/>
<path d="M54.2526 90.0097C54.2526 90.3975 54.2219 90.7815 54.1624 91.1399C54.103 91.4982 54.0159 91.8238 53.906 92.098C53.7962 92.3723 53.6659 92.5898 53.5224 92.7383C53.3789 92.8867 53.2252 92.9631 53.0699 92.9631C52.9146 92.9631 52.7608 92.8867 52.6173 92.7383C52.4738 92.5898 52.3435 92.3723 52.2337 92.098C52.1239 91.8238 52.0367 91.4982 51.9773 91.1399C51.9179 90.7815 51.8871 90.3975 51.8871 90.0097C51.8871 89.6218 51.9179 89.2378 51.9773 88.8795C52.0367 88.5211 52.1239 88.1955 52.2337 87.9213C52.3435 87.647 52.4738 87.4295 52.6173 87.2811C52.7608 87.1326 52.9146 87.0563 53.0699 87.0563C53.2252 87.0563 53.3789 87.1326 53.5224 87.2811C53.6659 87.4295 53.7962 87.647 53.906 87.9213C54.0159 88.1955 54.103 88.5211 54.1624 88.8795C54.2219 89.2378 54.2526 89.6218 54.2526 90.0097Z" fill="#FAB84A"/>
<path d="M57.5231 90.0476C57.5231 90.4355 57.4924 90.8195 57.4329 91.1778C57.3735 91.5361 57.2864 91.8617 57.1765 92.136C57.0667 92.4102 56.9364 92.6277 56.7929 92.7762C56.6494 92.9246 56.4957 93.001 56.3404 93.001C56.1851 93.001 56.0313 92.9246 55.8878 92.7762C55.7443 92.6277 55.614 92.4102 55.5042 92.136C55.3944 91.8617 55.3072 91.5361 55.2478 91.1778C55.1884 90.8195 55.1577 90.4355 55.1577 90.0476C55.1577 89.2643 55.2824 88.5131 55.5042 87.9592C55.726 87.4054 56.0267 87.0942 56.3404 87.0942C56.654 87.0942 56.9548 87.4054 57.1765 87.9592C57.3983 88.5131 57.5231 89.2643 57.5231 90.0476Z" fill="#FAB84A"/>
<path d="M117.059 35.4951C114.925 35.4791 112.637 35.725 110.617 36.5066C110.617 36.5066 100.305 40.4995 99.3621 51.7571C99.3621 51.7571 98.0869 61.0739 102.301 67.1186C102.301 67.1186 105.553 72.5686 112.453 74.1372C112.453 74.1372 126.645 78.215 134.094 65.3529C134.094 65.3529 134.733 64.206 133.93 63.2633L129.55 60.6013C129.55 60.6013 128.332 60.0745 127.39 61.4332C127.39 61.4332 125.39 65.1562 122.018 66.2934C122.018 66.2934 117.274 68.0188 113.354 66.2934C113.354 66.2934 108.101 64.5681 107.337 56.0783H133.819C133.819 56.0783 135.133 56.1769 135.329 54.6475C135.329 54.6475 136.232 40.555 124.644 36.5066C124.644 36.5066 121.133 35.5257 117.059 35.4951ZM117.66 42.6157C120.757 42.5821 122.759 43.6605 122.759 43.6605C127.194 45.7678 127.083 50.5926 127.083 50.5926H107.845C109.342 44.9914 112.447 43.7159 112.447 43.7159C114.375 42.9153 116.148 42.6321 117.66 42.6157Z" fill="#0A9C9A"/>
<path d="M168.359 18.8425C168.359 18.8425 167.335 18.898 167.113 20.2289V42.569C167.113 42.569 165.299 37.9812 160.79 36.3735C160.79 36.3735 154.95 34.3742 149.775 36.4134C149.775 36.4134 143.345 38.2178 140.365 48.4918C140.365 48.4918 138.757 53.6363 140.17 61.2512C140.17 61.2512 141.384 68.9214 148.755 73.2742C148.755 73.2742 154.009 76.4505 161.693 73.2742C161.693 73.2742 165.039 71.9701 167.168 68.5049V71.7059C167.168 71.7059 167.103 72.9206 168.357 73.1167H173.846C173.846 73.1167 175.101 72.9215 175.061 71.5883V20.2844C175.061 20.2844 175.068 19.1475 173.682 18.8425H168.359ZM157.521 42.7864C163.094 42.7864 167.612 48.3842 167.612 55.2908C167.612 62.1973 163.094 67.7973 157.521 67.7973C151.948 67.7973 147.431 62.1973 147.431 55.2908C147.431 48.3842 151.948 42.7864 157.521 42.7864Z" fill="#0A9C9A"/>
<path d="M182.431 36.727H187.488C187.488 36.727 188.782 36.5702 188.939 38.2172L188.984 59.4928C188.984 59.4928 189.095 65.5375 194.196 66.8685C194.196 66.8685 198.077 67.839 201.459 66.8685C201.459 66.8685 206.698 65.7039 206.726 59.4373V38.253C206.726 38.253 206.56 36.7834 208.057 36.7279H213.185C213.185 36.7279 214.71 36.5893 214.765 38.0311V57.025C214.765 57.025 214.793 68.5045 207.918 72.331C207.918 72.331 198.825 77.5993 187.626 72.331C187.626 72.331 182.026 70.0572 181.084 58.7441V38.0589C181.084 38.0589 181.098 36.7662 182.431 36.727Z" fill="#0A9C9A"/>
<path d="M247.672 43.8539V38.4191C247.672 38.4191 247.756 37.6427 246.536 37.0882C246.536 37.0882 238.109 33.0399 228.628 37.6982C228.628 37.6982 221.911 40.6482 219.833 48.8439C219.833 48.8439 218.107 56.0266 219.833 61.2395C219.833 61.2395 221.781 69.8907 229.598 72.9963C229.598 72.9963 236.635 76.7562 246.674 72.719C246.674 72.719 247.697 72.4621 247.672 71.2771V65.9802C247.672 65.9802 247.315 64.3333 245.767 64.7254C245.767 64.7254 245.296 64.8626 244.747 65.2548C244.747 65.2548 242.905 66.5881 240.709 66.9018C240.709 66.9018 236.122 67.7449 232.888 65.843C232.888 65.843 228.323 64.1232 227.325 56.5811C227.325 56.5811 226.965 53.4478 227.325 52.1446C227.325 52.1446 228.34 44.8049 235.005 43.2755C235.005 43.2755 238.377 42.3736 242.493 43.3932C242.493 43.3932 244.568 44.2421 245.261 44.8244C245.261 44.8244 246.924 45.8503 247.672 43.8539Z" fill="#0A9C9A"/>
<path d="M265.556 35.6086C263.884 35.6003 262.025 35.8238 260.246 36.5248C260.246 36.5248 253.818 38.3292 250.839 48.6032C250.839 48.6032 249.229 53.7477 250.642 61.3626C250.642 61.3626 251.858 69.0329 259.229 73.3856C259.229 73.3856 264.48 76.5619 272.164 73.3856C272.164 73.3856 275.51 72.0815 277.64 68.6163V71.8173C277.64 71.8173 277.574 73.0342 278.829 73.2303H284.317C284.317 73.2303 285.572 73.033 285.533 71.6997V38.1441C285.533 38.1441 285.542 37.0073 284.156 36.7023H278.833C278.833 36.7023 277.806 36.7577 277.585 38.0886V42.6827C277.585 42.6827 275.772 38.0948 271.264 36.4871C271.264 36.4871 268.748 35.6244 265.556 35.6086ZM267.993 42.8978C273.566 42.8978 278.084 48.4978 278.084 55.4044C278.084 62.3109 273.566 67.9087 267.993 67.9087C262.42 67.9087 257.902 62.3109 257.902 55.4044C257.902 48.4978 262.42 42.8978 267.993 42.8978Z" fill="#0A9C9A"/>
<path d="M319.256 43.8313V38.3965C319.256 38.3965 319.339 37.6202 318.119 37.0656C318.119 37.0656 309.692 33.0173 300.211 37.6756C300.211 37.6756 293.495 40.6256 291.417 48.8213C291.417 48.8213 289.691 56.004 291.417 61.2169C291.417 61.2169 293.364 69.8681 301.182 72.9737C301.182 72.9737 308.219 76.7335 318.258 72.6963C318.258 72.6963 319.28 72.4395 319.256 71.2545V65.9576C319.256 65.9576 318.899 64.3106 317.35 64.7028C317.35 64.7028 316.88 64.84 316.331 65.2322C316.331 65.2322 314.488 66.5654 312.293 66.8791C312.293 66.8791 307.706 67.7222 304.472 65.8204C304.472 65.8204 299.906 64.1006 298.909 56.5585C298.909 56.5585 298.548 53.4253 298.909 52.122C298.909 52.122 299.924 44.7822 306.589 43.2529C306.589 43.2529 309.96 42.351 314.077 43.3706C314.077 43.3706 316.151 44.2195 316.844 44.8018C316.844 44.8018 318.507 45.8277 319.256 43.8313Z" fill="#DF2B3C"/>
<path fill-rule="evenodd" clip-rule="evenodd" d="M366.605 35.4397C355.937 35.4397 347.288 44.2892 347.288 55.2044C347.288 66.1196 355.937 74.9669 366.605 74.9669C377.272 74.9669 385.921 66.1196 385.921 55.2044C385.921 44.2892 377.272 35.4397 366.605 35.4397ZM366.605 42.8442C372.648 42.8442 377.549 48.3781 377.549 55.2044C377.549 62.0307 372.648 67.5645 366.605 67.5645C360.561 67.5645 355.66 62.0307 355.66 55.2044C355.66 48.3781 360.561 42.8442 366.605 42.8442Z" fill="#DF2B3C"/>
<path d="M324.681 39.6671V72.941C324.681 72.941 324.57 74.577 326.344 74.6602H331.445C331.445 74.6602 332.692 74.6602 332.831 73.1906V56.3339C332.831 56.3339 332.7 47.2756 336.934 44.8051C336.934 44.8051 339.443 43.4326 343.481 44.6874C343.481 44.6874 344.814 45.2757 345.598 44.413L347.48 39.9426C347.48 39.9426 347.911 38.2564 346.696 37.9427C346.696 37.9427 340.893 35.1977 336.267 38.7662C336.267 38.7662 333.954 40.4132 332.896 43.864V39.6384C332.896 39.6384 332.943 38.1503 331.484 38.1388H326.074C326.074 38.1388 324.973 38.1368 324.681 39.6671Z" fill="#DF2B3C"/>
<path d="M406.765 44.1312C406.765 44.1312 407.486 45.1017 408.955 44.3531L412.171 41.913C412.171 41.913 413.03 41.1366 412.365 40.0829C412.365 40.0829 409.893 35.9819 404.091 35.5113C404.091 35.5113 399.936 35.1584 397.583 35.8642C397.583 35.8642 390.095 37.2367 388.723 44.1383C388.723 44.1383 388.253 46.1382 388.841 48.8047C388.841 48.8047 389.586 53.1182 395.466 55.7456C395.466 55.7456 403.023 59.1877 403.411 59.354C403.411 59.354 407.68 61.0732 406.848 64.567C406.848 64.567 406.571 67.5616 403.189 68.2271C403.189 68.2271 397.035 69.7799 394.152 64.8442C394.152 64.8442 393.428 63.2746 392.016 63.6275L387.9 65.9411C387.9 65.9411 386.724 66.6862 387.469 67.9998C387.469 67.9998 389.155 71.235 392.448 72.9604C392.448 72.9604 397.427 76.2543 406.208 74.0191C406.208 74.0191 412.285 72.0192 413.814 68.0194C413.814 68.0194 415.5 64.7255 414.441 59.9806C414.441 59.9806 413.422 55.9024 408.561 53.5104C408.561 53.5104 401.857 50.5301 400.955 50.2556C400.955 50.2556 396.486 48.3734 396.564 46.0206C396.564 46.0206 395.819 43.4325 398.916 42.1777C398.916 42.1777 401.308 41.0012 404.405 42.1777C404.405 42.1777 405.91 42.7909 406.765 44.1312Z" fill="#DF2B3C"/>
<path d="M436.548 44.4924C436.548 44.4924 437.269 45.4629 438.738 44.7142L441.953 42.2741C441.953 42.2741 442.813 41.4977 442.147 40.444C442.147 40.444 439.676 36.343 433.874 35.8724C433.874 35.8724 429.719 35.5195 427.366 36.2253C427.366 36.2253 419.878 37.5978 418.506 44.4994C418.506 44.4994 418.036 46.4993 418.624 49.1659C418.624 49.1659 419.369 53.4793 425.249 56.1067C425.249 56.1067 432.805 59.5488 433.193 59.7152C433.193 59.7152 437.463 61.4343 436.631 64.9281C436.631 64.9281 436.354 67.9227 432.972 68.5882C432.972 68.5882 426.818 70.141 423.935 65.2054C423.935 65.2054 423.211 63.6357 421.799 63.9886L417.683 66.3022C417.683 66.3022 416.507 67.0473 417.252 68.361C417.252 68.361 418.937 71.5961 422.231 73.3215C422.231 73.3215 427.209 76.6154 435.991 74.3802C435.991 74.3802 442.068 72.3804 443.597 68.3806C443.597 68.3806 445.283 65.0866 444.224 60.3417C444.224 60.3417 443.205 56.2635 438.343 53.8715C438.343 53.8715 431.64 50.8913 430.738 50.6168C430.738 50.6168 426.269 48.7345 426.347 46.3817C426.347 46.3817 425.602 43.7936 428.699 42.5387C428.699 42.5387 431.091 41.3623 434.188 42.5387C434.188 42.5387 435.693 43.152 436.548 44.4924Z" fill="#DF2B3C"/>
</svg>
