<svg width="346" height="57" viewBox="0 0 346 57" fill="none" xmlns="http://www.w3.org/2000/svg">
<path d="M17.8788 16.6526C15.7447 16.6365 13.4565 16.8825 11.4363 17.6641C11.4363 17.6641 1.12392 21.6569 0.18141 32.9146C0.18141 32.9146 -1.09378 42.2313 3.11988 48.2761C3.11988 48.2761 6.37261 53.7261 13.2725 55.2947C13.2725 55.2947 27.4643 59.3724 34.913 46.5104C34.913 46.5104 35.5528 45.3635 34.7489 44.4207L30.3689 41.7588C30.3689 41.7588 29.1514 41.232 28.2089 42.5907C28.2089 42.5907 26.2091 46.3137 22.8376 47.4509C22.8376 47.4509 18.0934 49.1763 14.173 47.4509C14.173 47.4509 8.92076 45.7255 8.15631 37.2358H34.638C34.638 37.2358 35.9523 37.3343 36.1483 35.805C36.1483 35.805 37.0509 21.7124 25.4633 17.6641C25.4633 17.6641 21.9528 16.6832 17.8788 16.6526ZM18.4798 23.7732C21.5761 23.7395 23.5783 24.818 23.5783 24.818C28.0137 26.9253 27.9028 31.75 27.9028 31.75H8.66417C10.1611 26.1489 13.2659 24.8734 13.2659 24.8734C15.1942 24.0728 16.9675 23.7896 18.4798 23.7732Z" fill="#0A9C9A"/>
<path d="M69.1787 0C69.1787 0 68.1541 0.0554565 67.9323 1.38641V23.7265C67.9323 23.7265 66.1181 19.1387 61.6096 17.5309C61.6096 17.5309 55.7691 15.5317 50.5942 17.5708C50.5942 17.5708 44.164 19.3753 41.1845 29.6492C41.1845 29.6492 39.5766 34.7937 40.9893 42.4087C40.9893 42.4087 42.2037 50.0789 49.5741 54.4316C49.5741 54.4316 54.8282 57.6079 62.5122 54.4316C62.5122 54.4316 65.8579 53.1275 67.9877 49.6624V52.8634C67.9877 52.8634 67.9219 54.0781 69.1764 54.2742H74.6653C74.6653 54.2742 75.9198 54.079 75.8806 52.7458V1.44187C75.8806 1.44187 75.8869 0.305012 74.5012 0H69.1787ZM58.3407 23.9439C63.9136 23.9439 68.4312 29.5417 68.4312 36.4482C68.4312 43.3548 63.9136 48.9548 58.3407 48.9548C52.7678 48.9548 48.2501 43.3548 48.2501 36.4482C48.2501 29.5417 52.7678 23.9439 58.3407 23.9439Z" fill="#0A9C9A"/>
<path d="M83.2501 17.8845H88.3073C88.3073 17.8845 89.6011 17.7277 89.7579 19.3746L89.8036 40.6503C89.8036 40.6503 89.9146 46.695 95.0153 48.026C95.0153 48.026 98.8963 48.9965 102.278 48.026C102.278 48.026 107.518 46.8614 107.545 40.5948V19.4104C107.545 19.4104 107.379 17.9408 108.876 17.8854H114.004C114.004 17.8854 115.529 17.7467 115.585 19.1886V38.1824C115.585 38.1824 115.612 49.6619 108.737 53.4884C108.737 53.4884 99.6447 58.7568 88.4453 53.4884C88.4453 53.4884 82.8456 51.2147 81.9031 39.9016V19.2163C81.9031 19.2163 81.9172 17.9237 83.2501 17.8845Z" fill="#0A9C9A"/>
<path d="M148.492 25.0113V19.5766C148.492 19.5766 148.575 18.8002 147.355 18.2456C147.355 18.2456 138.928 14.1973 129.447 18.8557C129.447 18.8557 122.73 21.8057 120.652 30.0013C120.652 30.0013 118.927 37.184 120.652 42.3969C120.652 42.3969 122.6 51.0482 130.417 54.1537C130.417 54.1537 137.455 57.9136 147.494 53.8764C147.494 53.8764 148.516 53.6196 148.492 52.4346V47.1377C148.492 47.1377 148.135 45.4907 146.586 45.8829C146.586 45.8829 146.116 46.0201 145.567 46.4122C145.567 46.4122 143.724 47.7455 141.529 48.0592C141.529 48.0592 136.942 48.9023 133.707 47.0005C133.707 47.0005 129.142 45.2807 128.144 37.7386C128.144 37.7386 127.784 34.6053 128.144 33.3021C128.144 33.3021 129.16 25.9623 135.824 24.433C135.824 24.433 139.196 23.5311 143.312 24.5506C143.312 24.5506 145.387 25.3995 146.08 25.9818C146.08 25.9818 147.743 27.0078 148.492 25.0113Z" fill="#0A9C9A"/>
<path d="M166.375 16.7661C164.703 16.7578 162.845 16.9813 161.066 17.6823C161.066 17.6823 154.638 19.4867 151.658 29.7607C151.658 29.7607 150.048 34.9051 151.461 42.5201C151.461 42.5201 152.677 50.1903 160.048 54.543C160.048 54.543 165.3 57.7193 172.984 54.543C172.984 54.543 176.329 53.239 178.459 49.7738V52.9747C178.459 52.9747 178.394 54.1917 179.648 54.3878H185.137C185.137 54.3878 186.391 54.1904 186.352 52.8572V19.3016C186.352 19.3016 186.361 18.1647 184.975 17.8597H179.652C179.652 17.8597 178.626 17.9151 178.404 19.2461V23.8402C178.404 23.8402 176.592 19.2523 172.083 17.6445C172.083 17.6445 169.567 16.7819 166.375 16.7661ZM168.812 24.0553C174.385 24.0553 178.903 29.6553 178.903 36.5618C178.903 43.4684 174.385 49.0662 168.812 49.0662C163.239 49.0662 158.722 43.4684 158.722 36.5618C158.722 29.6553 163.239 24.0553 168.812 24.0553Z" fill="#0A9C9A"/>
<path d="M220.075 24.9888V19.554C220.075 19.554 220.159 18.7776 218.939 18.2231C218.939 18.2231 210.511 14.1747 201.031 18.8331C201.031 18.8331 194.314 21.7831 192.236 29.9787C192.236 29.9787 190.51 37.1615 192.236 42.3744C192.236 42.3744 194.184 51.0256 202.001 54.1311C202.001 54.1311 209.038 57.891 219.077 53.8538C219.077 53.8538 220.1 53.597 220.075 52.412V47.1151C220.075 47.1151 219.718 45.4681 218.17 45.8603C218.17 45.8603 217.699 45.9975 217.15 46.3897C217.15 46.3897 215.308 47.7229 213.112 48.0366C213.112 48.0366 208.525 48.8797 205.291 46.9778C205.291 46.9778 200.726 45.2581 199.728 37.716C199.728 37.716 199.368 34.5827 199.728 33.2795C199.728 33.2795 200.743 25.9397 207.408 24.4104C207.408 24.4104 210.78 23.5085 214.896 24.528C214.896 24.528 216.97 25.377 217.664 25.9592C217.664 25.9592 219.327 26.9852 220.075 24.9888Z" fill="#DF2B3C"/>
<path fill-rule="evenodd" clip-rule="evenodd" d="M267.424 16.5972C256.756 16.5972 248.108 25.4467 248.108 36.3619C248.108 47.277 256.756 56.1243 267.424 56.1243C278.091 56.1243 286.74 47.277 286.74 36.3619C286.74 25.4467 278.091 16.5972 267.424 16.5972ZM267.424 24.0017C273.468 24.0017 278.368 29.5356 278.368 36.3619C278.368 43.1881 273.468 48.722 267.424 48.722C261.38 48.722 256.48 43.1881 256.48 36.3619C256.48 29.5356 261.38 24.0017 267.424 24.0017Z" fill="#DF2B3C"/>
<path d="M225.5 20.8246V54.0985C225.5 54.0985 225.389 55.7345 227.163 55.8177H232.264C232.264 55.8177 233.512 55.8176 233.65 54.3481V37.4914C233.65 37.4914 233.519 28.433 237.753 25.9626C237.753 25.9626 240.262 24.5901 244.3 25.8449C244.3 25.8449 245.633 26.4331 246.417 25.5704L248.299 21.1001C248.299 21.1001 248.73 19.4139 247.515 19.1002C247.515 19.1002 241.713 16.3552 237.087 19.9236C237.087 19.9236 234.774 21.5707 233.715 25.0214V20.7959C233.715 20.7959 233.762 19.3077 232.304 19.2963H226.894C226.894 19.2963 225.792 19.2943 225.5 20.8246Z" fill="#DF2B3C"/>
<path d="M307.584 25.2887C307.584 25.2887 308.305 26.2592 309.774 25.5105L312.99 23.0705C312.99 23.0705 313.849 22.2941 313.184 21.2404C313.184 21.2404 310.713 17.1394 304.911 16.6688C304.911 16.6688 300.755 16.3159 298.403 17.0217C298.403 17.0217 290.915 18.3942 289.543 25.2958C289.543 25.2958 289.072 27.2957 289.66 29.9622C289.66 29.9622 290.405 34.2757 296.286 36.903C296.286 36.903 303.842 40.3452 304.23 40.5115C304.23 40.5115 308.499 42.2307 307.667 45.7244C307.667 45.7244 307.39 48.7191 304.008 49.3846C304.008 49.3846 297.854 50.9373 294.971 46.0017C294.971 46.0017 294.247 44.432 292.836 44.785L288.719 47.0986C288.719 47.0986 287.543 47.8436 288.288 49.1573C288.288 49.1573 289.974 52.3924 293.267 54.1178C293.267 54.1178 298.246 57.4118 307.028 55.1766C307.028 55.1766 313.104 53.1767 314.633 49.1769C314.633 49.1769 316.319 45.883 315.26 41.1381C315.26 41.1381 314.241 37.0599 309.38 34.6679C309.38 34.6679 302.676 31.6876 301.774 31.4131C301.774 31.4131 297.305 29.5309 297.384 27.178C297.384 27.178 296.639 24.59 299.736 23.3351C299.736 23.3351 302.127 22.1587 305.224 23.3351C305.224 23.3351 306.729 23.9484 307.584 25.2887Z" fill="#DF2B3C"/>
<path d="M337.367 25.6498C337.367 25.6498 338.088 26.6203 339.557 25.8717L342.773 23.4316C342.773 23.4316 343.632 22.6552 342.967 21.6015C342.967 21.6015 340.496 17.5004 334.693 17.0299C334.693 17.0299 330.538 16.677 328.186 17.3828C328.186 17.3828 320.698 18.7553 319.325 25.6569C319.325 25.6569 318.855 27.6568 319.443 30.3233C319.443 30.3233 320.188 34.6368 326.069 37.2641C326.069 37.2641 333.625 40.7063 334.013 40.8727C334.013 40.8727 338.282 42.5918 337.45 46.0856C337.45 46.0856 337.173 49.0802 333.791 49.7457C333.791 49.7457 327.637 51.2985 324.754 46.3628C324.754 46.3628 324.03 44.7932 322.619 45.1461L318.502 47.4597C318.502 47.4597 317.326 48.2048 318.071 49.5184C318.071 49.5184 319.757 52.7535 323.05 54.4789C323.05 54.4789 328.029 57.7729 336.81 55.5377C336.81 55.5377 342.887 53.5378 344.416 49.538C344.416 49.538 346.102 46.2441 345.043 41.4992C345.043 41.4992 344.024 37.421 339.163 35.029C339.163 35.029 332.459 32.0487 331.557 31.7742C331.557 31.7742 327.088 29.892 327.166 27.5391C327.166 27.5391 326.421 24.951 329.518 23.6962C329.518 23.6962 331.91 22.5198 335.007 23.6962C335.007 23.6962 336.512 24.3095 337.367 25.6498Z" fill="#DF2B3C"/>
</svg>
