<svg width="987" height="556" viewBox="0 0 987 556" fill="none" xmlns="http://www.w3.org/2000/svg">
<path fill-rule="evenodd" clip-rule="evenodd" d="M440.344 137.003H440.328C431.513 136.911 426.326 139.394 426.241 139.438C413.127 144.094 411.553 156.709 411.44 157.751C404.541 164.793 399.292 173.209 396.466 181.927C393.575 190.856 393.208 200.062 395.46 208.223C396.193 211.324 397.755 215.997 401.183 222.055L401.167 222.027C401.167 222.027 401.55 222.787 402.045 223.872C401.333 239.241 408.536 248.859 409.364 249.913C409.896 251.588 410.613 253.201 411.503 254.723V254.742C414.507 259.58 419.305 263.219 425.414 265.374C431.522 267.529 438.939 268.23 447.12 267.477C463.499 265.983 482.941 258.495 500.167 247.153C517.392 235.81 532.175 220.749 540.391 206.081C548.607 191.412 550.222 177.165 544.289 167.446L544.119 167.172V167.157C541.933 163.801 538.937 161.024 535.395 159.073C524.316 150.466 507.436 149.888 499.449 150.091C495.626 149.477 487.667 147.795 480.615 143.944C480.534 143.899 480.447 143.864 480.357 143.839C471.891 138.731 461.1 136.693 450.04 138.07C446.855 137.411 443.613 137.053 440.359 137L440.344 137.003Z" fill="#C19C03"/>
<path fill-rule="evenodd" clip-rule="evenodd" d="M408.024 244.695C414.502 206.224 450.623 181.994 450.623 181.994C494.009 152.215 532.462 158.61 532.462 158.61C532.462 158.61 520.257 151.947 500.333 151.102C500.333 151.102 488.605 149.963 478.539 144.695C478.539 144.695 415.933 154.111 394 201.715C394 201.715 393.937 207.929 400.27 218.701C400.27 218.701 405.472 227.766 408.024 244.689V244.695Z" fill="#D4AA00"/>
<path d="M490.196 148.606C508.445 166.179 504.552 197.45 481.473 218.679C458.394 239.909 424.754 243.157 406.096 225.963C387.437 208.769 390.728 177.556 413.461 156.017C436.193 134.478 469.905 130.675 488.97 147.487" fill="#D4AA00"/>
<path fill-rule="evenodd" clip-rule="evenodd" d="M408.971 252.385C409.42 236.558 419.487 220.565 419.487 220.565C434.559 192.534 466.623 174.593 466.623 174.593C498.139 154.133 532.461 159.726 532.461 159.726C518.315 148.083 492.976 150.797 492.976 150.797C478.927 152.484 473.598 149.014 473.598 149.014C471.759 147.924 464.781 144.355 464.781 144.355C440.558 131.482 425.056 139.422 425.056 139.422C412.073 144.18 411.025 157.739 411.025 157.739C432.95 139.521 450.828 156.072 450.828 156.072C457.709 161.451 446.357 166.464 446.357 166.464C432.511 172.3 422 184.785 422 184.785C406.651 201.323 403.171 216.117 403.171 216.117C397.746 238.12 408.983 252.385 408.983 252.385H408.971Z" fill="#FFCC00"/>
<path d="M544.561 172.276C555.82 191.096 537.218 224.958 502.989 247.966C468.76 270.974 431.822 274.435 420.441 255.716C409.06 236.997 427.495 203.13 461.688 180.047C495.882 156.964 532.882 153.372 544.406 171.999" fill="#AA8800"/>
<path d="M537.923 175.593C546.661 189.113 528.955 215.474 498.38 234.516C467.804 253.558 435.893 258.094 427.056 244.648C418.219 231.203 435.773 204.862 466.313 185.766C496.854 166.67 528.83 162.034 537.798 175.402" fill="black"/>
<path d="M486.307 148.86C486.131 155.188 480.883 160.194 474.553 160.075C468.222 159.956 463.168 154.777 463.231 148.423C463.295 142.07 468.447 136.99 474.778 137C481.108 137.01 486.255 142.115 486.305 148.448" fill="#D4AA00"/>
<path d="M486.292 148.858C486.118 155.189 480.872 160.192 474.542 160.075C468.211 159.958 463.158 154.754 463.231 148.423C463.305 142.092 468.449 136.994 474.78 137C481.111 137.006 486.255 142.115 486.307 148.445" fill="#FFCC00"/>
<path fill-rule="evenodd" clip-rule="evenodd" d="M463.237 158.142C463.085 158.142 465.522 155.208 465.522 155.208C472.98 156.96 476.074 157.525 480.822 154.614C485.155 151.419 482.977 146.329 482.977 146.329L484.448 144.695C485.973 145.806 486.277 148.609 486.277 148.609C486.277 148.609 488.115 165.769 463.237 158.113V158.142Z" fill="#D4AA00"/>
<path d="M439.093 283.229C438.564 283.106 438.011 283.14 437.499 283.326C434.382 284.518 433.849 291.812 436.174 301.414C427.386 296.004 420.29 294.421 417.914 297.348C414.527 301.557 421.743 313.494 434.028 324.041C446.312 334.589 459.018 339.737 462.404 335.541C464.633 332.773 462.285 326.447 456.271 319.03C456.02 314.416 454.765 308.725 452.75 303.078C448.927 292.395 443.214 284.081 439.09 283.236L439.093 283.229Z" fill="#194145"/>
<path d="M461.318 260.194C471.979 239.982 492.664 245.327 492.664 245.327C523.12 252.344 540.997 269.303 540.997 269.303C563.116 285.334 570.759 318.444 570.759 318.444C572.577 332.166 558.898 335.729 558.898 335.729C551.11 341.833 537.346 336.67 536.288 336.532C515.015 328.725 502.039 348.878 502.039 348.878C494.757 359.313 484.717 359.74 484.717 359.74C469.984 362.333 455.483 348.903 455.483 348.903C432.424 326.454 442.226 300.995 442.226 300.995C442.226 300.995 444.344 293.172 450.082 284.493C456.667 274.077 457.022 269.124 461.318 260.194Z" fill="#225054"/>
<path d="M517.442 339.163C527.108 338.546 534.3 327.894 533.506 315.37C532.713 302.847 524.234 293.195 514.568 293.812C504.902 294.429 497.71 305.082 498.503 317.605C499.297 330.129 507.776 339.781 517.442 339.163Z" fill="#BCB9A8"/>
<path d="M482.548 244.765C479.154 244.974 475.826 245.803 472.728 247.21C471.744 251.352 471.535 255.742 471.851 260.147C471.751 260.283 471.659 260.424 471.575 260.571C470.347 262.726 470.883 266.272 472.907 268.5C476.255 285.423 485.308 300.193 485.308 300.193C487.595 305.142 486.082 309.086 486.082 309.086C483.551 316.617 489.383 320.21 489.383 320.21C495.902 324.785 502.226 316.689 502.226 316.689C509.866 324.22 516.306 314.492 516.306 314.492C516.306 314.492 526.669 320.454 528.435 309.014C528.435 309.014 538.024 313.262 539.934 305.757C539.934 305.757 541.075 300.799 538.143 297.137C536.718 295.516 535.172 294.007 533.519 292.621C533.519 292.621 528.883 288.228 527.834 281.544C527.834 281.544 526.847 262.996 514.577 250.539C507.911 247.363 499.714 247.448 490.658 245.339C488.001 244.756 485.273 244.563 482.561 244.765H482.548Z" fill="#D6D4C8"/>
<path d="M533.692 330.403C533.692 330.403 536.267 311.053 524.77 267.766L529.405 267.792C529.405 267.792 537.119 275.175 537.579 275.999C538.04 276.823 541.416 286.017 543.206 292.779C544.997 299.54 548.091 311.766 547.831 315.24C547.571 318.714 545.876 325.045 544.885 326.57C543.893 328.096 535.789 336.996 535.789 336.996L533.572 334.598L533.692 330.403Z" fill="#225054"/>
<path fill-rule="evenodd" clip-rule="evenodd" d="M508.923 255.255C508.923 255.255 504.843 246.45 501.699 245.355C501.699 245.355 490.548 240.991 486.419 254.583C486.419 254.583 485.331 259.165 489.974 268.188C489.974 268.188 496.627 278.623 500.761 282.239C500.761 282.239 502.501 284.571 503.921 281.769C503.921 281.769 509.458 263.485 509.36 259.944C509.449 258.362 509.301 256.774 508.923 255.255Z" fill="#BCB9A8"/>
<path d="M472.105 275.46C472.105 275.46 488.898 267.732 494 256.928L486.471 252.383L463.23 266.738L472.105 275.46Z" fill="#BCB9A8"/>
<path d="M511.714 262.781C511.714 262.781 516.407 272.152 524.767 275.46C524.767 275.46 522.791 269.476 521.799 266.936C520.807 264.396 517.005 252.724 517.005 252.724L511.597 252.383L509.383 258.818L511.714 262.781Z" fill="#BCB9A8"/>
<path d="M440.156 321.617C441.492 329.899 445.521 339.691 455.399 348.968C455.399 348.968 470.355 362.326 485.549 359.749C485.549 359.749 485.837 359.73 486.31 359.671C485.873 356.375 485.438 353.255 485.438 353.255C454.851 349.295 443.461 329.359 440.156 321.617Z" fill="#194145"/>
<path d="M557.024 341.934C557.024 341.934 573.859 344.019 581.201 333.396C581.201 333.396 585.255 328.562 585.547 323.193C585.547 323.193 586.851 316.919 577.128 321.285C577.128 321.285 583.647 317.471 584.423 310.122C584.423 310.122 584.92 304.7 581.241 303.793C581.241 303.793 578.95 302.917 575.653 305.566C575.653 305.566 578.401 301.68 577.392 297.884C577.392 297.884 575.582 290.832 567.836 295.6C567.836 295.6 556.384 303.232 551.361 322.417C551.361 322.417 545.075 336.487 557.011 341.934H557.024Z" fill="#FAB84A"/>
<path d="M571.635 305.216C574.276 302.788 575.162 299.443 573.614 297.747C572.066 296.05 568.669 296.643 566.028 299.071C563.387 301.5 562.501 304.844 564.05 306.541C565.598 308.238 568.994 307.645 571.635 305.216Z" fill="#E9934C"/>
<path d="M576.68 316.327C579.16 314.218 580.079 311.215 578.734 309.621C577.388 308.027 574.287 308.445 571.807 310.555C569.327 312.665 568.407 315.667 569.753 317.261C571.099 318.855 574.2 318.437 576.68 316.327Z" fill="#E9934C"/>
<path d="M577.803 331.438C579.954 329.649 580.772 327.078 579.631 325.696C578.49 324.314 575.822 324.643 573.671 326.433C571.521 328.222 570.702 330.792 571.843 332.175C572.985 333.557 575.653 333.227 577.803 331.438Z" fill="#E9934C"/>
<path opacity="0.45" d="M513.351 316.846C513.968 316.807 514.437 316.272 514.398 315.652C514.359 315.032 513.826 314.561 513.208 314.6C512.591 314.64 512.122 315.175 512.161 315.795C512.2 316.415 512.733 316.885 513.351 316.846Z" fill="#F4D7D7"/>
<path d="M494.001 321.613C498.249 321.613 501.693 314.725 501.693 306.228C501.693 297.732 498.249 290.844 494.001 290.844C489.753 290.844 486.309 297.732 486.309 306.228C486.309 314.725 489.753 321.613 494.001 321.613Z" fill="#194145"/>
<path fill-rule="evenodd" clip-rule="evenodd" d="M489.857 255.555C489.857 255.555 476.74 277.743 449.333 282.795C449.333 282.795 437.571 286.24 421.611 271.823C421.611 271.823 405.217 260.633 408.56 243.224C408.56 243.224 403.931 248.108 404.592 253.67C404.592 253.67 405.131 256.71 401.725 254.688C401.725 254.688 387.266 237.714 404.004 222.047C404.004 222.047 400.006 221.887 397.619 224.302C397.619 224.302 394.752 227.431 394.015 223.435C394.015 223.435 392.778 210.333 413.001 204.959C413.001 204.959 401.679 196.673 412.67 184.803C412.67 184.803 416.595 198.369 435.938 191.914C435.938 191.914 430.948 174.679 449.293 166.669C449.293 166.669 450.966 182.109 463.66 181.412C463.66 181.412 480.582 180.488 500.134 160.078C500.134 160.078 503.02 167.989 500.537 175.131C500.537 175.131 508.261 167.093 509.114 161.87C509.114 161.87 517 167.986 517.136 176.963C517.136 176.963 539.445 177.111 552.985 166.319C552.985 166.319 556.953 174.477 553.335 183.051C553.335 183.051 562.822 182.072 567.636 172.978C567.636 172.978 575.138 178.667 568.873 189.659C568.873 189.659 589.079 190.077 592.428 206.641C592.428 206.641 593.162 209.923 590.206 208.916C590.206 208.916 586.437 207.022 582.803 206.951C582.803 206.951 594.21 214.019 593.982 222.863C593.982 222.863 594.753 230.89 586.129 233.957C586.129 233.957 592.458 245.335 582.621 255.922C582.621 255.922 580.693 258.542 578.951 255.353C578.951 255.353 578.686 254.15 577.546 254.29C577.546 254.29 573.525 264.115 563.989 269.204C563.989 269.204 553.025 279.037 538.231 272.845C538.231 272.845 526.731 271.991 517.298 254.546C514.208 250.146 509.594 246.688 504.105 244.658C504.105 244.658 496.626 243.207 489.887 255.578L489.857 255.555Z" fill="#225054"/>
<path d="M445.236 160.078C428.989 168.751 433.533 186.403 433.533 186.403C415.301 193.262 411.601 178.859 411.601 178.859C401.251 191.451 411.913 200.241 411.913 200.241C392.851 205.939 394.014 219.84 394.014 219.84C394.709 224.065 397.411 220.761 397.411 220.761C399.664 218.199 403.429 218.368 403.429 218.368C387.653 234.988 401.282 252.994 401.282 252.994C404.492 255.139 403.984 251.914 403.984 251.914C403.361 246.014 407.724 240.833 407.724 240.833C404.573 259.301 419.168 272.116 419.168 272.116C434.933 286.138 446.153 282.81 446.153 282.81C471.99 277.448 484.354 253.914 484.354 253.914C487.05 248.35 490.696 246.211 494 245.586C493.236 242.454 492.068 237.81 491.691 237.185C491.126 236.244 488.991 234.424 486.199 234.107C483.406 233.79 482.481 238.736 482.481 238.736C482.481 238.736 478.205 261.914 453.991 271.286C426.786 280.315 411.994 255.897 410.803 234.922C410.803 234.922 406.399 235.713 405.115 237.861C404.981 235.8 404.099 218.935 412.72 214.023C412.72 214.023 406.265 213.567 403.993 215.293C403.993 215.293 407.733 205.184 418.315 203.19C418.315 203.19 414.574 200.006 414.705 194.264C414.705 194.264 430.569 196.092 437.735 188.211C437.735 188.211 431.233 172.39 445.243 160.087L445.236 160.078Z" fill="#194145"/>
<path d="M553.687 160.078C553.648 160.114 553.603 160.147 553.561 160.183V160.233C555.445 171.347 548.901 181.434 548.901 181.434C565.035 181.768 568.099 167.074 568.102 167.071C563.374 176.627 554.051 177.645 554.051 177.645C557.603 168.645 553.707 160.081 553.707 160.081L553.687 160.078ZM569.318 184.545L569.23 184.602C585.029 188.989 588.34 200.727 588.513 201.324C583.759 199.069 576.522 202.282 576.522 202.282C587.895 211.004 586.615 227.296 586.615 227.296C585.029 225.851 580.834 226.95 580.834 226.95C586.358 237.039 581.338 251.671 581.338 251.671C579.3 249.058 573.958 248.347 573.958 248.347C562.061 271.638 536.988 268.145 526.489 250.005C526.489 250.005 521.634 240.297 512.88 233.973C512.561 233.231 511.992 232.603 511.255 232.181C510.098 231.566 508.33 231.524 507.355 233.459C506.38 235.394 503.375 236.257 502.117 239.572C501.855 240.302 501.711 241.063 501.691 241.832C505.831 241.48 505.653 242.28 505.653 242.28C514.595 245.773 515.798 249.425 515.798 249.425C534.245 284.433 564.57 282.848 577.825 252.411C578.949 252.265 579.209 253.528 579.209 253.528C580.919 256.866 582.816 254.125 582.816 254.125C592.484 243.011 586.264 231.067 586.264 231.067C594.739 227.854 593.982 219.422 593.982 219.422C594.206 210.138 582.992 202.718 582.992 202.718C586.566 202.793 590.271 204.779 590.271 204.779C593.173 205.854 592.454 202.408 592.454 202.408C589.163 185.02 569.301 184.584 569.301 184.584C569.301 184.584 569.301 184.56 569.301 184.548L569.318 184.545Z" fill="#194145"/>
<path d="M484.514 229.295C494.436 213.811 492.023 194.507 479.124 186.178C466.226 177.85 447.726 183.651 437.805 199.135C427.883 214.619 430.296 233.924 443.195 242.252C456.093 250.581 474.593 244.78 484.514 229.295Z" fill="#1A4346"/>
<path d="M480.971 236.421C490.893 220.936 488.48 201.632 475.581 193.303C462.683 184.975 444.183 190.776 434.262 206.26C424.34 221.744 426.753 241.049 439.652 249.377C452.55 257.706 471.05 251.905 480.971 236.421Z" fill="#D6D4C8"/>
<path d="M468.849 247.089C479.309 242.683 484.245 230.635 479.875 220.177C475.504 209.72 463.482 204.813 453.022 209.219C442.562 213.624 437.625 225.673 441.996 236.13C446.366 246.588 458.389 251.494 468.849 247.089Z" fill="#FAB84A"/>
<path d="M467.9 244.801C477.1 240.926 481.442 230.33 477.599 221.135C473.756 211.939 463.182 207.625 453.982 211.5C444.782 215.375 440.44 225.97 444.283 235.166C448.126 244.362 458.7 248.675 467.9 244.801Z" fill="#CF7B14"/>
<path d="M466.604 242.148C474.4 238.865 478.079 229.884 474.821 222.09C471.564 214.296 462.603 210.639 454.807 213.922C447.011 217.206 443.332 226.186 446.59 233.98C449.847 241.774 458.808 245.431 466.604 242.148Z" fill="#201E1E"/>
<path d="M471.37 221.468C473.873 220.414 475.054 217.53 474.008 215.027C472.962 212.524 470.085 211.35 467.582 212.404C465.08 213.458 463.899 216.341 464.945 218.844C465.991 221.347 468.868 222.522 471.37 221.468Z" fill="#FEFEFE"/>
<path d="M547.085 233.395C558.347 223.894 558.302 205.232 546.984 191.711C535.667 178.191 517.362 174.931 506.099 184.431C494.837 193.931 494.882 212.594 506.2 226.114C517.518 239.635 535.822 242.895 547.085 233.395Z" fill="#1A4346"/>
<path d="M552.011 240.184C563.273 230.683 563.228 212.021 551.91 198.5C540.592 184.98 522.288 181.72 511.025 191.22C499.763 200.72 499.808 219.383 511.125 232.903C522.443 246.424 540.748 249.684 552.011 240.184Z" fill="#D6D4C8"/>
<path d="M535.202 238.747C545.139 234.562 549.829 223.117 545.677 213.183C541.525 203.25 530.105 198.589 520.168 202.774C510.231 206.959 505.541 218.404 509.693 228.338C513.845 238.272 525.265 242.932 535.202 238.747Z" fill="#FAB84A"/>
<path d="M534.281 236.611C543.019 232.931 547.144 222.866 543.493 214.13C539.842 205.395 529.799 201.297 521.06 204.977C512.322 208.657 508.198 218.722 511.849 227.458C515.499 236.193 525.543 240.291 534.281 236.611Z" fill="#CF7B14"/>
<path d="M533.103 234.071C540.508 230.952 544.003 222.422 540.909 215.018C537.814 207.614 529.303 204.14 521.897 207.259C514.492 210.378 510.997 218.908 514.091 226.312C517.185 233.716 525.697 237.19 533.103 234.071Z" fill="#201E1E"/>
<path d="M537.603 214.414C539.981 213.412 541.103 210.673 540.109 208.295C539.116 205.918 536.383 204.802 534.005 205.804C531.627 206.805 530.505 209.545 531.498 211.922C532.492 214.3 535.225 215.415 537.603 214.414Z" fill="#FEFEFE"/>
<path d="M500.419 160.078L500.35 160.127C500.228 160.712 497.692 172.104 486.309 175.463C486.309 175.463 498.647 174.541 500.839 169.599C500.859 169.568 500.882 169.537 500.908 169.504C502.594 165.654 501.115 161.537 500.623 160.376C500.518 160.2 500.456 160.116 500.419 160.078Z" fill="#194145"/>
<path d="M491.162 252.495C493.688 249.049 493.975 244.955 491.804 243.352C489.633 241.748 485.826 243.243 483.3 246.689C480.774 250.136 480.487 254.229 482.658 255.833C484.829 257.436 488.636 255.942 491.162 252.495Z" fill="#B8475F"/>
<path d="M487.003 252.358C487.351 250.39 486.553 248.603 485.221 248.366C483.889 248.129 482.527 249.532 482.18 251.5C481.832 253.467 482.631 255.255 483.963 255.492C485.295 255.729 486.656 254.326 487.003 252.358Z" fill="#CD677E"/>
<path fill-rule="evenodd" clip-rule="evenodd" d="M512.451 243.428C512.451 243.428 507.866 234.652 504.215 233.483C504.215 233.483 491.22 228.865 486.048 242.103C486.048 242.103 484.667 246.575 489.885 255.585C489.885 255.585 497.445 266.025 502.207 269.714C502.207 269.714 504.194 272.058 505.932 269.343C505.932 269.343 512.883 251.533 512.867 248.049C513.006 246.496 512.866 244.931 512.455 243.428H512.451Z" fill="#E9934C"/>
<path fill-rule="evenodd" clip-rule="evenodd" d="M496.334 232.968C498.968 232.527 501.667 232.712 504.217 233.508C510.171 236.001 511.779 240.918 512.462 243.424C512.462 243.443 512.462 243.658 512.462 243.658C512.462 243.658 511.245 254.649 504.099 260.664C504.099 260.664 495.279 255.908 490.93 235.296C492.519 234.105 494.367 233.307 496.322 232.968H496.334Z" fill="#FAB84A"/>
<path d="M508.56 241.237C509.183 239.601 507.042 237.26 503.78 236.009C500.517 234.758 497.367 235.071 496.745 236.708C496.122 238.345 498.262 240.686 501.525 241.936C504.788 243.187 507.937 242.874 508.56 241.237Z" fill="#FAD28E"/>
<path d="M518.608 345.568L474.696 352.266C472.975 352.529 471.212 352.346 469.587 351.736C467.961 351.126 466.529 350.111 465.434 348.792C464.34 347.473 463.621 345.897 463.351 344.223C463.08 342.549 463.268 340.835 463.894 339.253L479.889 298.917L495.876 258.571C496.502 256.988 497.546 255.594 498.902 254.528C500.258 253.462 501.878 252.763 503.601 252.5C505.323 252.237 507.086 252.42 508.713 253.03C510.339 253.64 511.772 254.657 512.866 255.977L540.794 289.627L568.719 323.277C569.814 324.596 570.532 326.171 570.803 327.846C571.073 329.521 570.885 331.235 570.258 332.816C569.631 334.398 568.588 335.791 567.232 336.856C565.876 337.921 564.255 338.619 562.534 338.882L518.608 345.568Z" fill="white"/>
<path d="M518.358 339.285L480.717 344.587C474.247 345.513 469.135 339.957 471.517 334.633L485.382 303.591L499.24 272.551C501.622 267.215 509.712 266.07 513.799 270.499L537.586 296.236L561.358 321.973C565.446 326.396 562.469 333.084 555.999 333.979L518.358 339.285Z" fill="#EA5455"/>
<path d="M515.091 332.765C514.77 330.032 516.682 327.502 519.308 327.07C521.934 326.638 524.405 328.474 524.73 331.186C525.051 333.993 523.283 336.481 520.658 336.934C517.948 337.393 515.412 335.495 515.091 332.765ZM512.157 305.167C511.241 301.181 510.514 297.096 509.775 292.921C509.579 291.697 509.448 290.462 509.383 289.222C509.383 286.285 510.861 284.148 513.108 283.461C515.467 282.604 518.093 283.583 519.215 286.033C522.502 293.075 523.01 310.992 522.972 317.929C522.933 324.866 516.714 326.235 514.882 319.242C513.927 315.182 512.925 309.178 512.14 305.167H512.157Z" fill="white"/>
<path fill-rule="evenodd" clip-rule="evenodd" d="M573.083 283.454C573.083 283.454 577.047 279.403 575.799 274.27C575.799 274.27 574.967 267.673 568.724 269.907C568.724 269.907 541.756 283.205 528.91 302.766C528.91 302.766 524.936 308.432 528.258 311.757C528.258 311.757 531.142 315.185 537.661 314.35C537.661 314.35 535.283 318.713 538.201 320.963C538.201 320.963 542.237 324.428 549.334 322.375C549.334 322.375 547.934 324.64 550.871 325.656C550.871 325.656 556.412 326.903 563.068 323.02C563.068 323.02 572.543 318.314 576.712 307.728C576.712 307.728 579.161 301.031 574.104 299.198C574.104 299.198 578.14 294.062 577.019 289.537C577.019 289.537 576.147 284.576 573.083 283.464V283.454Z" fill="#225054"/>
<path fill-rule="evenodd" clip-rule="evenodd" d="M569.897 269.656C569.521 269.734 569.151 269.838 568.789 269.967L568.45 270.142C574.814 267.717 574.47 276.998 574.47 276.998C574.051 281.75 568.127 289.389 568.127 289.389C568.348 289.339 570.363 288.709 570.363 288.709C574.805 287.241 574.799 290.031 574.799 290.031C575.96 295.179 570.046 304.394 570.046 304.394C571.511 303.895 574.64 300.605 574.64 300.605C576.193 301.405 576.665 304.31 576.665 304.31C577.108 308.05 574.243 311.122 574.243 311.122C563.859 322.653 554.285 324.417 549.225 324.361C549.445 324.859 549.932 325.352 550.935 325.698C550.935 325.698 556.477 326.944 563.132 323.064C563.132 323.064 572.607 318.359 576.792 307.772C576.792 307.772 579.244 301.075 574.184 299.243C574.184 299.243 578.22 294.107 577.099 289.582C577.099 289.582 576.227 284.624 573.163 283.511C573.163 283.511 577.13 279.46 575.879 274.327C575.879 274.327 575.15 268.528 569.912 269.653L569.897 269.656ZM565.812 294.175C538.058 317.953 527.118 308.473 527.118 308.473L526.994 308.492C526.977 309.109 527.086 309.723 527.313 310.296C527.541 310.869 527.882 311.39 528.316 311.827C528.316 311.827 531.197 315.255 537.717 314.419V314.444C561.912 305.831 565.815 294.188 565.815 294.188L565.812 294.175ZM568.708 305.656C551.662 319.795 541.389 318.87 536.866 317.159C536.701 318.471 536.906 319.979 538.266 321.032C538.266 321.032 542.15 324.348 548.958 322.563C558.74 317.779 568.708 305.656 568.708 305.656Z" fill="#173C3F"/>
<path d="M464.093 346.904C464.093 346.904 461.209 355.941 468.272 361.756C468.272 361.756 472.618 368.647 482.593 367.677C482.593 367.677 495.821 366.945 497.55 355.523C497.55 355.523 498.757 347.327 491.002 347.262C491.002 347.262 486.858 347.025 489.419 341.652C489.419 341.652 499.276 339.68 498.782 331.873C498.782 331.873 498.562 325.214 492.014 325.329C492.014 325.329 487.584 325.136 484.679 327.822C484.215 326.79 483.437 325.933 482.457 325.375C481.476 324.816 480.344 324.585 479.224 324.715C479.224 324.715 473.195 324.783 472.121 329.645C472.121 329.645 463.597 328.682 460.734 335.473C460.734 335.473 458.133 342.806 464.081 346.907L464.093 346.904Z" fill="#FAB84A"/>
<path d="M462.633 332.736C462.633 332.736 474.389 326.347 476.267 337.884C476.267 337.884 477.295 342.805 473.089 345.401C473.089 345.401 477.671 344.581 477.857 337.71C477.857 337.71 478.428 331.629 471.99 329.548C471.99 329.548 466.144 327.809 462.633 332.736Z" fill="#E9934C"/>
<path d="M483.517 341.527C490.893 328.949 480.059 324.68 480.059 324.68C480.059 324.68 487.509 325.197 487.239 334.169C487.239 334.169 487.342 337.959 483.514 341.527H483.517Z" fill="#E9934C"/>
<path d="M490.744 358.145C493.478 355.69 494.426 352.274 492.86 350.517C491.294 348.759 487.808 349.325 485.073 351.781C482.338 354.236 481.391 357.651 482.956 359.409C484.522 361.166 488.009 360.601 490.744 358.145Z" fill="#E9934C"/>
<path d="M470.934 340.161C473.134 338.186 473.895 335.44 472.636 334.026C471.376 332.612 468.572 333.067 466.373 335.042C464.174 337.016 463.412 339.763 464.671 341.177C465.931 342.591 468.735 342.136 470.934 340.161Z" fill="#E9934C"/>
<path d="M481.807 333.489C483.649 331.836 484.286 329.536 483.231 328.352C482.176 327.168 479.828 327.548 477.987 329.202C476.145 330.855 475.508 333.155 476.563 334.339C477.618 335.523 479.966 335.143 481.807 333.489Z" fill="#E9934C"/>
<path d="M495.165 335.421C497.319 333.486 498.065 330.795 496.831 329.409C495.596 328.024 492.849 328.469 490.694 330.403C488.54 332.338 487.794 335.029 489.028 336.415C490.263 337.8 493.01 337.355 495.165 335.421Z" fill="#E9934C"/>
<path fill-rule="evenodd" clip-rule="evenodd" d="M448.299 296.959C448.299 296.959 443.363 293.955 443.31 288.573C443.31 288.573 442.475 281.844 449.209 282.471C449.209 282.471 479.188 288.782 496.79 304.856C496.79 304.856 502.136 309.449 499.69 313.582C499.69 313.582 497.703 317.698 491.053 318.524C491.053 318.524 494.496 322.223 492.18 325.193C492.18 325.193 489.051 329.64 481.535 329.407C481.535 329.407 483.488 331.277 480.843 333.034C480.843 333.034 475.683 335.677 468.13 333.52C468.13 333.52 457.575 331.267 450.814 321.865C450.814 321.865 446.71 315.869 451.248 312.781C451.248 312.781 445.955 308.73 445.94 303.961C445.94 303.961 445.555 298.841 448.302 296.968L448.299 296.959Z" fill="#225054"/>
<path fill-rule="evenodd" clip-rule="evenodd" d="M448.02 282.499C448.412 282.483 448.806 282.495 449.197 282.533L449.572 282.621C442.68 281.854 445.363 290.932 445.363 290.932C446.968 295.522 454.738 301.571 454.738 301.571C454.508 301.571 452.36 301.465 452.36 301.465C447.604 301.135 448.309 303.89 448.309 303.89C448.455 309.272 456.61 316.879 456.61 316.879C455.039 316.754 451.118 314.296 451.118 314.296C449.802 315.477 450.053 318.471 450.053 318.471C450.55 322.267 454.154 324.589 454.154 324.589C467.311 333.358 477.211 332.67 482.193 331.333C482.103 331.881 481.743 332.492 480.84 333.087C480.84 333.087 475.68 335.73 468.127 333.57C468.127 333.57 457.572 331.32 450.811 321.918C450.811 321.918 446.707 315.922 451.242 312.831C451.242 312.831 445.965 308.78 445.934 304.015C445.934 304.015 445.552 298.894 448.299 297.018C448.299 297.018 443.363 294.017 443.311 288.635C443.311 288.635 442.575 282.714 448.029 282.499H448.02ZM458.215 305.688C491.591 322.155 500.019 310.02 500.019 310.02H500.146C500.318 310.623 500.366 311.255 500.288 311.877C500.21 312.5 500.006 313.1 499.69 313.641C499.69 313.641 497.703 317.758 491.053 318.584L491.072 318.605C464.995 316.218 458.227 305.694 458.227 305.694L458.215 305.688ZM458.237 317.761C478.626 327.422 488.548 323.9 492.578 321.067C493.071 322.314 493.248 323.872 492.168 325.247C492.168 325.247 489.166 329.504 481.992 329.463C471.129 327.213 458.237 317.761 458.237 317.761Z" fill="#194145"/>
<path d="M238.42 398.73H248.86V401.94H238.42V398.73ZM238.72 407.73H250.57V411H234.82V390H250.15V393.27H238.72V407.73ZM259.361 411.21C258.021 411.21 256.731 411.04 255.491 410.7C254.271 410.34 253.301 409.91 252.581 409.41L254.021 406.56C254.741 407.02 255.601 407.4 256.601 407.7C257.601 408 258.601 408.15 259.601 408.15C260.781 408.15 261.631 407.99 262.151 407.67C262.691 407.35 262.961 406.92 262.961 406.38C262.961 405.94 262.781 405.61 262.421 405.39C262.061 405.15 261.591 404.97 261.011 404.85C260.431 404.73 259.781 404.62 259.061 404.52C258.361 404.42 257.651 404.29 256.931 404.13C256.231 403.95 255.591 403.7 255.011 403.38C254.431 403.04 253.961 402.59 253.601 402.03C253.241 401.47 253.061 400.73 253.061 399.81C253.061 398.79 253.351 397.91 253.931 397.17C254.511 396.41 255.321 395.83 256.361 395.43C257.421 395.01 258.671 394.8 260.111 394.8C261.191 394.8 262.281 394.92 263.381 395.16C264.481 395.4 265.391 395.74 266.111 396.18L264.671 399.03C263.911 398.57 263.141 398.26 262.361 398.1C261.601 397.92 260.841 397.83 260.081 397.83C258.941 397.83 258.091 398 257.531 398.34C256.991 398.68 256.721 399.11 256.721 399.63C256.721 400.11 256.901 400.47 257.261 400.71C257.621 400.95 258.091 401.14 258.671 401.28C259.251 401.42 259.891 401.54 260.591 401.64C261.311 401.72 262.021 401.85 262.721 402.03C263.421 402.21 264.061 402.46 264.641 402.78C265.241 403.08 265.721 403.51 266.081 404.07C266.441 404.63 266.621 405.36 266.621 406.26C266.621 407.26 266.321 408.13 265.721 408.87C265.141 409.61 264.311 410.19 263.231 410.61C262.151 411.01 260.861 411.21 259.361 411.21ZM275.881 411.21C274.121 411.21 272.761 410.76 271.801 409.86C270.841 408.94 270.361 407.59 270.361 405.81V391.44H274.111V405.72C274.111 406.48 274.301 407.07 274.681 407.49C275.081 407.91 275.631 408.12 276.331 408.12C277.171 408.12 277.871 407.9 278.431 407.46L279.481 410.13C279.041 410.49 278.501 410.76 277.861 410.94C277.221 411.12 276.561 411.21 275.881 411.21ZM267.721 398.1V395.1H278.401V398.1H267.721ZM292.435 411V407.76L292.225 407.07V401.4C292.225 400.3 291.895 399.45 291.235 398.85C290.575 398.23 289.575 397.92 288.235 397.92C287.335 397.92 286.445 398.06 285.565 398.34C284.705 398.62 283.975 399.01 283.375 399.51L281.905 396.78C282.765 396.12 283.785 395.63 284.965 395.31C286.165 394.97 287.405 394.8 288.685 394.8C291.005 394.8 292.795 395.36 294.055 396.48C295.335 397.58 295.975 399.29 295.975 401.61V411H292.435ZM287.395 411.21C286.195 411.21 285.145 411.01 284.245 410.61C283.345 410.19 282.645 409.62 282.145 408.9C281.665 408.16 281.425 407.33 281.425 406.41C281.425 405.51 281.635 404.7 282.055 403.98C282.495 403.26 283.205 402.69 284.185 402.27C285.165 401.85 286.465 401.64 288.085 401.64H292.735V404.13H288.355C287.075 404.13 286.215 404.34 285.775 404.76C285.335 405.16 285.115 405.66 285.115 406.26C285.115 406.94 285.385 407.48 285.925 407.88C286.465 408.28 287.215 408.48 288.175 408.48C289.095 408.48 289.915 408.27 290.635 407.85C291.375 407.43 291.905 406.81 292.225 405.99L292.855 408.24C292.495 409.18 291.845 409.91 290.905 410.43C289.985 410.95 288.815 411.21 287.395 411.21ZM321.008 394.8C322.288 394.8 323.418 395.05 324.398 395.55C325.398 396.05 326.178 396.82 326.738 397.86C327.298 398.88 327.578 400.2 327.578 401.82V411H323.828V402.3C323.828 400.88 323.518 399.82 322.898 399.12C322.278 398.42 321.388 398.07 320.228 398.07C319.408 398.07 318.678 398.25 318.038 398.61C317.418 398.97 316.928 399.5 316.568 400.2C316.228 400.9 316.058 401.79 316.058 402.87V411H312.308V402.3C312.308 400.88 311.998 399.82 311.378 399.12C310.758 398.42 309.868 398.07 308.708 398.07C307.888 398.07 307.158 398.25 306.518 398.61C305.898 398.97 305.408 399.5 305.048 400.2C304.708 400.9 304.538 401.79 304.538 402.87V411H300.788V394.98H304.358V399.24L303.728 397.98C304.268 396.94 305.048 396.15 306.068 395.61C307.108 395.07 308.288 394.8 309.608 394.8C311.108 394.8 312.408 395.17 313.508 395.91C314.628 396.65 315.368 397.77 315.728 399.27L314.258 398.76C314.778 397.56 315.638 396.6 316.838 395.88C318.038 395.16 319.428 394.8 321.008 394.8ZM339.599 411.21C337.959 411.21 336.499 410.86 335.219 410.16C333.939 409.44 332.929 408.46 332.189 407.22C331.449 405.98 331.079 404.57 331.079 402.99C331.079 401.39 331.449 399.98 332.189 398.76C332.929 397.52 333.939 396.55 335.219 395.85C336.499 395.15 337.959 394.8 339.599 394.8C341.259 394.8 342.729 395.15 344.009 395.85C345.309 396.55 346.319 397.51 347.039 398.73C347.779 399.95 348.149 401.37 348.149 402.99C348.149 404.57 347.779 405.98 347.039 407.22C346.319 408.46 345.309 409.44 344.009 410.16C342.729 410.86 341.259 411.21 339.599 411.21ZM339.599 408C340.519 408 341.339 407.8 342.059 407.4C342.779 407 343.339 406.42 343.739 405.66C344.159 404.9 344.369 404.01 344.369 402.99C344.369 401.95 344.159 401.06 343.739 400.32C343.339 399.56 342.779 398.98 342.059 398.58C341.339 398.18 340.529 397.98 339.629 397.98C338.709 397.98 337.889 398.18 337.169 398.58C336.469 398.98 335.909 399.56 335.489 400.32C335.069 401.06 334.859 401.95 334.859 402.99C334.859 404.01 335.069 404.9 335.489 405.66C335.909 406.42 336.469 407 337.169 407.4C337.889 407.8 338.699 408 339.599 408ZM356.685 411.21C355.345 411.21 354.055 411.04 352.815 410.7C351.595 410.34 350.625 409.91 349.905 409.41L351.345 406.56C352.065 407.02 352.925 407.4 353.925 407.7C354.925 408 355.925 408.15 356.925 408.15C358.105 408.15 358.955 407.99 359.475 407.67C360.015 407.35 360.285 406.92 360.285 406.38C360.285 405.94 360.105 405.61 359.745 405.39C359.385 405.15 358.915 404.97 358.335 404.85C357.755 404.73 357.105 404.62 356.385 404.52C355.685 404.42 354.975 404.29 354.255 404.13C353.555 403.95 352.915 403.7 352.335 403.38C351.755 403.04 351.285 402.59 350.925 402.03C350.565 401.47 350.385 400.73 350.385 399.81C350.385 398.79 350.675 397.91 351.255 397.17C351.835 396.41 352.645 395.83 353.685 395.43C354.745 395.01 355.995 394.8 357.435 394.8C358.515 394.8 359.605 394.92 360.705 395.16C361.805 395.4 362.715 395.74 363.435 396.18L361.995 399.03C361.235 398.57 360.465 398.26 359.685 398.1C358.925 397.92 358.165 397.83 357.405 397.83C356.265 397.83 355.415 398 354.855 398.34C354.315 398.68 354.045 399.11 354.045 399.63C354.045 400.11 354.225 400.47 354.585 400.71C354.945 400.95 355.415 401.14 355.995 401.28C356.575 401.42 357.215 401.54 357.915 401.64C358.635 401.72 359.345 401.85 360.045 402.03C360.745 402.21 361.385 402.46 361.965 402.78C362.565 403.08 363.045 403.51 363.405 404.07C363.765 404.63 363.945 405.36 363.945 406.26C363.945 407.26 363.645 408.13 363.045 408.87C362.465 409.61 361.635 410.19 360.555 410.61C359.475 411.01 358.185 411.21 356.685 411.21ZM381.496 411.21C379.736 411.21 378.376 410.76 377.416 409.86C376.456 408.94 375.976 407.59 375.976 405.81V391.44H379.726V405.72C379.726 406.48 379.916 407.07 380.296 407.49C380.696 407.91 381.246 408.12 381.946 408.12C382.786 408.12 383.486 407.9 384.046 407.46L385.096 410.13C384.656 410.49 384.116 410.76 383.476 410.94C382.836 411.12 382.176 411.21 381.496 411.21ZM373.336 398.1V395.1H384.016V398.1H373.336ZM388.181 411V394.98H391.751V399.39L391.331 398.1C391.811 397.02 392.561 396.2 393.581 395.64C394.621 395.08 395.911 394.8 397.451 394.8V398.37C397.291 398.33 397.141 398.31 397.001 398.31C396.861 398.29 396.721 398.28 396.581 398.28C395.161 398.28 394.031 398.7 393.191 399.54C392.351 400.36 391.931 401.59 391.931 403.23V411H388.181ZM409.359 411V407.76L409.149 407.07V401.4C409.149 400.3 408.819 399.45 408.159 398.85C407.499 398.23 406.499 397.92 405.159 397.92C404.259 397.92 403.369 398.06 402.489 398.34C401.629 398.62 400.899 399.01 400.299 399.51L398.829 396.78C399.689 396.12 400.709 395.63 401.889 395.31C403.089 394.97 404.329 394.8 405.609 394.8C407.929 394.8 409.719 395.36 410.979 396.48C412.259 397.58 412.899 399.29 412.899 401.61V411H409.359ZM404.319 411.21C403.119 411.21 402.069 411.01 401.169 410.61C400.269 410.19 399.569 409.62 399.069 408.9C398.589 408.16 398.349 407.33 398.349 406.41C398.349 405.51 398.559 404.7 398.979 403.98C399.419 403.26 400.129 402.69 401.109 402.27C402.089 401.85 403.389 401.64 405.009 401.64H409.659V404.13H405.279C403.999 404.13 403.139 404.34 402.699 404.76C402.259 405.16 402.039 405.66 402.039 406.26C402.039 406.94 402.309 407.48 402.849 407.88C403.389 408.28 404.139 408.48 405.099 408.48C406.019 408.48 406.839 408.27 407.559 407.85C408.299 407.43 408.829 406.81 409.149 405.99L409.779 408.24C409.419 409.18 408.769 409.91 407.829 410.43C406.909 410.95 405.739 411.21 404.319 411.21ZM426.592 411.21C425.232 411.21 424.022 410.91 422.962 410.31C421.902 409.71 421.062 408.81 420.442 407.61C419.842 406.39 419.542 404.85 419.542 402.99C419.542 401.11 419.852 399.57 420.472 398.37C421.112 397.17 421.962 396.28 423.022 395.7C424.102 395.1 425.292 394.8 426.592 394.8C428.172 394.8 429.562 395.14 430.762 395.82C431.982 396.5 432.942 397.45 433.642 398.67C434.362 399.89 434.722 401.33 434.722 402.99C434.722 404.65 434.362 406.09 433.642 407.31C432.942 408.53 431.982 409.49 430.762 410.19C429.562 410.87 428.172 411.21 426.592 411.21ZM417.712 411V388.74H421.462V398.7L421.162 402.96L421.282 407.22V411H417.712ZM426.172 408C427.072 408 427.872 407.8 428.572 407.4C429.292 407 429.862 406.42 430.282 405.66C430.702 404.9 430.912 404.01 430.912 402.99C430.912 401.95 430.702 401.06 430.282 400.32C429.862 399.56 429.292 398.98 428.572 398.58C427.872 398.18 427.072 397.98 426.172 397.98C425.272 397.98 424.462 398.18 423.742 398.58C423.022 398.98 422.452 399.56 422.032 400.32C421.612 401.06 421.402 401.95 421.402 402.99C421.402 404.01 421.612 404.9 422.032 405.66C422.452 406.42 423.022 407 423.742 407.4C424.462 407.8 425.272 408 426.172 408ZM447.943 411V407.76L447.733 407.07V401.4C447.733 400.3 447.403 399.45 446.743 398.85C446.083 398.23 445.083 397.92 443.743 397.92C442.843 397.92 441.953 398.06 441.073 398.34C440.213 398.62 439.483 399.01 438.883 399.51L437.413 396.78C438.273 396.12 439.293 395.63 440.473 395.31C441.673 394.97 442.913 394.8 444.193 394.8C446.513 394.8 448.303 395.36 449.563 396.48C450.843 397.58 451.483 399.29 451.483 401.61V411H447.943ZM442.903 411.21C441.703 411.21 440.653 411.01 439.753 410.61C438.853 410.19 438.153 409.62 437.653 408.9C437.173 408.16 436.933 407.33 436.933 406.41C436.933 405.51 437.143 404.7 437.563 403.98C438.003 403.26 438.713 402.69 439.693 402.27C440.673 401.85 441.973 401.64 443.593 401.64H448.243V404.13H443.863C442.583 404.13 441.723 404.34 441.283 404.76C440.843 405.16 440.623 405.66 440.623 406.26C440.623 406.94 440.893 407.48 441.433 407.88C441.973 408.28 442.723 408.48 443.683 408.48C444.603 408.48 445.423 408.27 446.143 407.85C446.883 407.43 447.413 406.81 447.733 405.99L448.363 408.24C448.003 409.18 447.353 409.91 446.413 410.43C445.493 410.95 444.323 411.21 442.903 411.21ZM456.296 411V388.74H460.046V411H456.296ZM474.058 394.8C475.338 394.8 476.478 395.05 477.478 395.55C478.498 396.05 479.298 396.82 479.878 397.86C480.458 398.88 480.748 400.2 480.748 401.82V411H476.998V402.3C476.998 400.88 476.658 399.82 475.978 399.12C475.318 398.42 474.388 398.07 473.188 398.07C472.308 398.07 471.528 398.25 470.848 398.61C470.168 398.97 469.638 399.51 469.258 400.23C468.898 400.93 468.718 401.82 468.718 402.9V411H464.968V388.74H468.718V399.3L467.908 397.98C468.468 396.96 469.278 396.18 470.338 395.64C471.418 395.08 472.658 394.8 474.058 394.8ZM495.375 411V407.76L495.165 407.07V401.4C495.165 400.3 494.835 399.45 494.175 398.85C493.515 398.23 492.515 397.92 491.175 397.92C490.275 397.92 489.385 398.06 488.505 398.34C487.645 398.62 486.915 399.01 486.315 399.51L484.845 396.78C485.705 396.12 486.725 395.63 487.905 395.31C489.105 394.97 490.345 394.8 491.625 394.8C493.945 394.8 495.735 395.36 496.995 396.48C498.275 397.58 498.915 399.29 498.915 401.61V411H495.375ZM490.335 411.21C489.135 411.21 488.085 411.01 487.185 410.61C486.285 410.19 485.585 409.62 485.085 408.9C484.605 408.16 484.365 407.33 484.365 406.41C484.365 405.51 484.575 404.7 484.995 403.98C485.435 403.26 486.145 402.69 487.125 402.27C488.105 401.85 489.405 401.64 491.025 401.64H495.675V404.13H491.295C490.015 404.13 489.155 404.34 488.715 404.76C488.275 405.16 488.055 405.66 488.055 406.26C488.055 406.94 488.325 407.48 488.865 407.88C489.405 408.28 490.155 408.48 491.115 408.48C492.035 408.48 492.855 408.27 493.575 407.85C494.315 407.43 494.845 406.81 495.165 405.99L495.795 408.24C495.435 409.18 494.785 409.91 493.845 410.43C492.925 410.95 491.755 411.21 490.335 411.21ZM512.818 394.8C514.098 394.8 515.238 395.05 516.238 395.55C517.258 396.05 518.058 396.82 518.638 397.86C519.218 398.88 519.508 400.2 519.508 401.82V411H515.758V402.3C515.758 400.88 515.418 399.82 514.738 399.12C514.078 398.42 513.148 398.07 511.948 398.07C511.068 398.07 510.288 398.25 509.608 398.61C508.928 398.97 508.398 399.51 508.018 400.23C507.658 400.93 507.478 401.82 507.478 402.9V411H503.728V394.98H507.298V399.3L506.668 397.98C507.228 396.96 508.038 396.18 509.098 395.64C510.178 395.08 511.418 394.8 512.818 394.8ZM531.074 411.21C529.534 411.21 528.144 410.87 526.904 410.19C525.684 409.49 524.724 408.53 524.024 407.31C523.324 406.09 522.974 404.65 522.974 402.99C522.974 401.33 523.324 399.89 524.024 398.67C524.724 397.45 525.684 396.5 526.904 395.82C528.144 395.14 529.534 394.8 531.074 394.8C532.414 394.8 533.614 395.1 534.674 395.7C535.734 396.28 536.574 397.17 537.194 398.37C537.814 399.57 538.124 401.11 538.124 402.99C538.124 404.85 537.824 406.39 537.224 407.61C536.624 408.81 535.794 409.71 534.734 410.31C533.674 410.91 532.454 411.21 531.074 411.21ZM531.524 408C532.424 408 533.224 407.8 533.924 407.4C534.644 407 535.214 406.42 535.634 405.66C536.074 404.9 536.294 404.01 536.294 402.99C536.294 401.95 536.074 401.06 535.634 400.32C535.214 399.56 534.644 398.98 533.924 398.58C533.224 398.18 532.424 397.98 531.524 397.98C530.624 397.98 529.814 398.18 529.094 398.58C528.394 398.98 527.824 399.56 527.384 400.32C526.964 401.06 526.754 401.95 526.754 402.99C526.754 404.01 526.964 404.9 527.384 405.66C527.824 406.42 528.394 407 529.094 407.4C529.814 407.8 530.624 408 531.524 408ZM536.384 411V407.22L536.534 402.96L536.234 398.7V388.74H539.954V411H536.384ZM552.09 411.21C550.45 411.21 548.99 410.86 547.71 410.16C546.43 409.44 545.42 408.46 544.68 407.22C543.94 405.98 543.57 404.57 543.57 402.99C543.57 401.39 543.94 399.98 544.68 398.76C545.42 397.52 546.43 396.55 547.71 395.85C548.99 395.15 550.45 394.8 552.09 394.8C553.75 394.8 555.22 395.15 556.5 395.85C557.8 396.55 558.81 397.51 559.53 398.73C560.27 399.95 560.64 401.37 560.64 402.99C560.64 404.57 560.27 405.98 559.53 407.22C558.81 408.46 557.8 409.44 556.5 410.16C555.22 410.86 553.75 411.21 552.09 411.21ZM552.09 408C553.01 408 553.83 407.8 554.55 407.4C555.27 407 555.83 406.42 556.23 405.66C556.65 404.9 556.86 404.01 556.86 402.99C556.86 401.95 556.65 401.06 556.23 400.32C555.83 399.56 555.27 398.98 554.55 398.58C553.83 398.18 553.02 397.98 552.12 397.98C551.2 397.98 550.38 398.18 549.66 398.58C548.96 398.98 548.4 399.56 547.98 400.32C547.56 401.06 547.35 401.95 547.35 402.99C547.35 404.01 547.56 404.9 547.98 405.66C548.4 406.42 548.96 407 549.66 407.4C550.38 407.8 551.19 408 552.09 408ZM581.607 394.8C582.887 394.8 584.027 395.05 585.027 395.55C586.047 396.05 586.847 396.82 587.427 397.86C588.007 398.88 588.297 400.2 588.297 401.82V411H584.547V402.3C584.547 400.88 584.207 399.82 583.527 399.12C582.867 398.42 581.937 398.07 580.737 398.07C579.857 398.07 579.077 398.25 578.397 398.61C577.717 398.97 577.187 399.51 576.807 400.23C576.447 400.93 576.267 401.82 576.267 402.9V411H572.517V394.98H576.087V399.3L575.457 397.98C576.017 396.96 576.827 396.18 577.887 395.64C578.967 395.08 580.207 394.8 581.607 394.8ZM602.924 411V407.76L602.714 407.07V401.4C602.714 400.3 602.384 399.45 601.724 398.85C601.064 398.23 600.064 397.92 598.724 397.92C597.824 397.92 596.934 398.06 596.054 398.34C595.194 398.62 594.464 399.01 593.864 399.51L592.394 396.78C593.254 396.12 594.274 395.63 595.454 395.31C596.654 394.97 597.894 394.8 599.174 394.8C601.494 394.8 603.284 395.36 604.544 396.48C605.824 397.58 606.464 399.29 606.464 401.61V411H602.924ZM597.884 411.21C596.684 411.21 595.634 411.01 594.734 410.61C593.834 410.19 593.134 409.62 592.634 408.9C592.154 408.16 591.914 407.33 591.914 406.41C591.914 405.51 592.124 404.7 592.544 403.98C592.984 403.26 593.694 402.69 594.674 402.27C595.654 401.85 596.954 401.64 598.574 401.64H603.224V404.13H598.844C597.564 404.13 596.704 404.34 596.264 404.76C595.824 405.16 595.604 405.66 595.604 406.26C595.604 406.94 595.874 407.48 596.414 407.88C596.954 408.28 597.704 408.48 598.664 408.48C599.584 408.48 600.404 408.27 601.124 407.85C601.864 407.43 602.394 406.81 602.714 405.99L603.344 408.24C602.984 409.18 602.334 409.91 601.394 410.43C600.474 410.95 599.304 411.21 597.884 411.21ZM619.567 411V394.98H623.317V411H619.567ZM621.457 392.34C620.757 392.34 620.177 392.12 619.717 391.68C619.277 391.24 619.057 390.71 619.057 390.09C619.057 389.45 619.277 388.92 619.717 388.5C620.177 388.06 620.757 387.84 621.457 387.84C622.157 387.84 622.727 388.05 623.167 388.47C623.627 388.87 623.857 389.38 623.857 390C623.857 390.66 623.637 391.22 623.197 391.68C622.757 392.12 622.177 392.34 621.457 392.34ZM648.459 394.8C649.739 394.8 650.869 395.05 651.849 395.55C652.849 396.05 653.629 396.82 654.189 397.86C654.749 398.88 655.029 400.2 655.029 401.82V411H651.279V402.3C651.279 400.88 650.969 399.82 650.349 399.12C649.729 398.42 648.839 398.07 647.679 398.07C646.859 398.07 646.129 398.25 645.489 398.61C644.869 398.97 644.379 399.5 644.019 400.2C643.679 400.9 643.509 401.79 643.509 402.87V411H639.759V402.3C639.759 400.88 639.449 399.82 638.829 399.12C638.209 398.42 637.319 398.07 636.159 398.07C635.339 398.07 634.609 398.25 633.969 398.61C633.349 398.97 632.859 399.5 632.499 400.2C632.159 400.9 631.989 401.79 631.989 402.87V411H628.239V394.98H631.809V399.24L631.179 397.98C631.719 396.94 632.499 396.15 633.519 395.61C634.559 395.07 635.739 394.8 637.059 394.8C638.559 394.8 639.859 395.17 640.959 395.91C642.079 396.65 642.819 397.77 643.179 399.27L641.709 398.76C642.229 397.56 643.089 396.6 644.289 395.88C645.489 395.16 646.879 394.8 648.459 394.8ZM669.691 411V407.76L669.481 407.07V401.4C669.481 400.3 669.151 399.45 668.491 398.85C667.831 398.23 666.831 397.92 665.491 397.92C664.591 397.92 663.701 398.06 662.821 398.34C661.961 398.62 661.231 399.01 660.631 399.51L659.161 396.78C660.021 396.12 661.041 395.63 662.221 395.31C663.421 394.97 664.661 394.8 665.941 394.8C668.261 394.8 670.051 395.36 671.311 396.48C672.591 397.58 673.231 399.29 673.231 401.61V411H669.691ZM664.651 411.21C663.451 411.21 662.401 411.01 661.501 410.61C660.601 410.19 659.901 409.62 659.401 408.9C658.921 408.16 658.681 407.33 658.681 406.41C658.681 405.51 658.891 404.7 659.311 403.98C659.751 403.26 660.461 402.69 661.441 402.27C662.421 401.85 663.721 401.64 665.341 401.64H669.991V404.13H665.611C664.331 404.13 663.471 404.34 663.031 404.76C662.591 405.16 662.371 405.66 662.371 406.26C662.371 406.94 662.641 407.48 663.181 407.88C663.721 408.28 664.471 408.48 665.431 408.48C666.351 408.48 667.171 408.27 667.891 407.85C668.631 407.43 669.161 406.81 669.481 405.99L670.111 408.24C669.751 409.18 669.101 409.91 668.161 410.43C667.241 410.95 666.071 411.21 664.651 411.21ZM685.333 417.03C683.853 417.03 682.403 416.83 680.983 416.43C679.583 416.05 678.433 415.49 677.533 414.75L679.213 411.93C679.913 412.51 680.793 412.97 681.853 413.31C682.933 413.67 684.023 413.85 685.123 413.85C686.883 413.85 688.173 413.44 688.993 412.62C689.813 411.82 690.223 410.61 690.223 408.99V406.14L690.523 402.51L690.403 398.88V394.98H693.973V408.57C693.973 411.47 693.233 413.6 691.753 414.96C690.273 416.34 688.133 417.03 685.333 417.03ZM684.853 410.28C683.333 410.28 681.953 409.96 680.713 409.32C679.493 408.66 678.523 407.75 677.803 406.59C677.103 405.43 676.753 404.07 676.753 402.51C676.753 400.97 677.103 399.62 677.803 398.46C678.523 397.3 679.493 396.4 680.713 395.76C681.953 395.12 683.333 394.8 684.853 394.8C686.213 394.8 687.433 395.07 688.513 395.61C689.593 396.15 690.453 396.99 691.093 398.13C691.753 399.27 692.083 400.73 692.083 402.51C692.083 404.29 691.753 405.76 691.093 406.92C690.453 408.06 689.593 408.91 688.513 409.47C687.433 410.01 686.213 410.28 684.853 410.28ZM685.423 407.1C686.363 407.1 687.203 406.91 687.943 406.53C688.683 406.13 689.253 405.59 689.653 404.91C690.073 404.21 690.283 403.41 690.283 402.51C690.283 401.61 690.073 400.82 689.653 400.14C689.253 399.44 688.683 398.91 687.943 398.55C687.203 398.17 686.363 397.98 685.423 397.98C684.483 397.98 683.633 398.17 682.873 398.55C682.133 398.91 681.553 399.44 681.133 400.14C680.733 400.82 680.533 401.61 680.533 402.51C680.533 403.41 680.733 404.21 681.133 404.91C681.553 405.59 682.133 406.13 682.873 406.53C683.633 406.91 684.483 407.1 685.423 407.1ZM706.433 411.21C704.653 411.21 703.093 410.86 701.753 410.16C700.433 409.44 699.403 408.46 698.663 407.22C697.943 405.98 697.583 404.57 697.583 402.99C697.583 401.39 697.933 399.98 698.633 398.76C699.353 397.52 700.333 396.55 701.573 395.85C702.833 395.15 704.263 394.8 705.863 394.8C707.423 394.8 708.813 395.14 710.033 395.82C711.253 396.5 712.213 397.46 712.913 398.7C713.613 399.94 713.963 401.4 713.963 403.08C713.963 403.24 713.953 403.42 713.933 403.62C713.933 403.82 713.923 404.01 713.903 404.19H700.553V401.7H711.923L710.453 402.48C710.473 401.56 710.283 400.75 709.883 400.05C709.483 399.35 708.933 398.8 708.233 398.4C707.553 398 706.763 397.8 705.863 397.8C704.943 397.8 704.133 398 703.433 398.4C702.753 398.8 702.213 399.36 701.813 400.08C701.433 400.78 701.243 401.61 701.243 402.57V403.17C701.243 404.13 701.463 404.98 701.903 405.72C702.343 406.46 702.963 407.03 703.763 407.43C704.563 407.83 705.483 408.03 706.523 408.03C707.423 408.03 708.233 407.89 708.953 407.61C709.673 407.33 710.313 406.89 710.873 406.29L712.883 408.6C712.163 409.44 711.253 410.09 710.153 410.55C709.073 410.99 707.833 411.21 706.433 411.21ZM737.785 394.8C739.065 394.8 740.195 395.05 741.175 395.55C742.175 396.05 742.955 396.82 743.515 397.86C744.075 398.88 744.355 400.2 744.355 401.82V411H740.605V402.3C740.605 400.88 740.295 399.82 739.675 399.12C739.055 398.42 738.165 398.07 737.005 398.07C736.185 398.07 735.455 398.25 734.815 398.61C734.195 398.97 733.705 399.5 733.345 400.2C733.005 400.9 732.835 401.79 732.835 402.87V411H729.085V402.3C729.085 400.88 728.775 399.82 728.155 399.12C727.535 398.42 726.645 398.07 725.485 398.07C724.665 398.07 723.935 398.25 723.295 398.61C722.675 398.97 722.185 399.5 721.825 400.2C721.485 400.9 721.315 401.79 721.315 402.87V411H717.565V394.98H721.135V399.24L720.505 397.98C721.045 396.94 721.825 396.15 722.845 395.61C723.885 395.07 725.065 394.8 726.385 394.8C727.885 394.8 729.185 395.17 730.285 395.91C731.405 396.65 732.145 397.77 732.505 399.27L731.035 398.76C731.555 397.56 732.415 396.6 733.615 395.88C734.815 395.16 736.205 394.8 737.785 394.8ZM749.388 404.04L748.667 390H753.108L752.358 404.04H749.388ZM750.888 411.21C750.188 411.21 749.608 410.98 749.148 410.52C748.688 410.06 748.458 409.51 748.458 408.87C748.458 408.23 748.688 407.69 749.148 407.25C749.608 406.79 750.188 406.56 750.888 406.56C751.588 406.56 752.158 406.79 752.598 407.25C753.038 407.69 753.258 408.23 753.258 408.87C753.258 409.51 753.038 410.06 752.598 410.52C752.158 410.98 751.588 411.21 750.888 411.21Z" fill="#283046"/>
</svg>
