<svg
        viewBox="0 0 24 25"
        fill="none"
        xmlns="http://www.w3.org/2000/svg"
>
    <rect y="0.5" width="24" height="24" rx="4" fill="#00BDB8"/>
    <g clip-path="url(#clip0_14060_308724)">
        <path
                d="M18.1523 5H5.84766C5.10459 5 4.5 5.60459 4.5 6.34766V18.6523C4.5 19.3954 5.10459 20 5.84766 20H18.1523C18.8954 20 19.5 19.3954 19.5 18.6523V6.34766C19.5 5.60459 18.8954 5 18.1523 5ZM18.6211 6.34766V12.0605H12.4395V5.87891H18.1523C18.4108 5.87891 18.6211 6.08925 18.6211 6.34766ZM5.84766 5.87891H11.5605V12.0605H5.37891V6.34766C5.37891 6.08925 5.58925 5.87891 5.84766 5.87891ZM5.37891 18.6523V12.9395H11.5605V19.1211H5.84766C5.58925 19.1211 5.37891 18.9108 5.37891 18.6523ZM18.1523 19.1211H12.4395V12.9395H18.6211V18.6523C18.6211 18.9108 18.4108 19.1211 18.1523 19.1211Z"
                fill="white"
        />
        <path
                d="M6.72656 9.42383H8.04492V10.7422C8.04492 10.9849 8.24165 11.1816 8.48438 11.1816C8.7271 11.1816 8.92383 10.9849 8.92383 10.7422V9.42383H10.2422C10.4849 9.42383 10.6816 9.2271 10.6816 8.98438C10.6816 8.74165 10.4849 8.54492 10.2422 8.54492H8.92383V7.22656C8.92383 6.98383 8.7271 6.78711 8.48438 6.78711C8.24165 6.78711 8.04492 6.98383 8.04492 7.22656V8.54492H6.72656C6.48383 8.54492 6.28711 8.74165 6.28711 8.98438C6.28711 9.2271 6.48383 9.42383 6.72656 9.42383Z"
                fill="white"
        />
        <path
                d="M13.7578 9.42383H17.2734C17.5162 9.42383 17.7129 9.2271 17.7129 8.98437C17.7129 8.74165 17.5162 8.54492 17.2734 8.54492H13.7578C13.5151 8.54492 13.3184 8.74165 13.3184 8.98437C13.3184 9.2271 13.5151 9.42383 13.7578 9.42383Z"
                fill="white"
        />
        <path
                d="M10.2422 15.5762H6.72656C6.48383 15.5762 6.28711 15.7729 6.28711 16.0156C6.28711 16.2584 6.48383 16.4551 6.72656 16.4551H10.2422C10.4849 16.4551 10.6816 16.2584 10.6816 16.0156C10.6816 15.7729 10.4849 15.5762 10.2422 15.5762Z"
                fill="white"
        />
        <path
                d="M17.3801 14.1511C17.2084 13.9796 16.9302 13.9796 16.7585 14.1511L15.5156 15.3941L14.2726 14.1511C14.101 13.9796 13.8228 13.9796 13.6511 14.1511C13.4796 14.3228 13.4796 14.601 13.6511 14.7726L14.8941 16.0156L13.6511 17.2585C13.4796 17.4302 13.4796 17.7084 13.6511 17.8801C13.8228 18.0516 14.101 18.0517 14.2726 17.8801L15.5156 16.6371L16.7585 17.8801C16.9302 18.0516 17.2084 18.0517 17.3801 17.8801C17.5516 17.7084 17.5516 17.4302 17.3801 17.2585L16.1371 16.0156L17.3801 14.7726C17.5516 14.601 17.5516 14.3228 17.3801 14.1511Z"
                fill="white"
        />
        <path
                d="M8.92383 14.2578C8.92383 14.5005 8.7271 14.6973 8.48437 14.6973C8.24165 14.6973 8.04492 14.5005 8.04492 14.2578C8.04492 14.0151 8.24165 13.8184 8.48437 13.8184C8.7271 13.8184 8.92383 14.0151 8.92383 14.2578Z"
                fill="white"
        />
        <path
                d="M8.92383 17.7734C8.92383 18.0162 8.7271 18.2129 8.48437 18.2129C8.24165 18.2129 8.04492 18.0162 8.04492 17.7734C8.04492 17.5307 8.24165 17.334 8.48437 17.334C8.7271 17.334 8.92383 17.5307 8.92383 17.7734Z"
                fill="white"
        />
    </g>
    <defs>
        <clipPath id="clip0_14060_308724">
            <rect x="4.5" y="5" width="15" height="15" fill="white"/>
        </clipPath>
    </defs>
</svg>
