<svg
        viewBox="0 0 24 25"
        fill="none"
        xmlns="http://www.w3.org/2000/svg"
>
    <rect y="0.5" width="24" height="24" rx="4" fill="#EC6300"/>
    <g clip-path="url(#clip0_12798_167038)">
        <path
                d="M16.0224 10.1621L13.8493 4.61528C13.7286 4.31971 13.3938 4.1748 13.0956 4.289L7.54881 6.46205C7.25059 6.58008 7.10454 6.91754 7.22253 7.21576L9.41189 12.7626C9.52993 13.0608 9.86739 13.2069 10.1656 13.0889L15.6961 10.9158C15.9943 10.7978 16.1404 10.4603 16.0224 10.1621ZM9.99268 12.4526L7.87184 7.05588L13.2686 4.93178L15.3894 10.3318L9.99268 12.4526Z"
                fill="white"
        />
        <path
                d="M10.665 13.6426H4.72336C4.40259 13.6426 4.14258 13.9026 4.14258 14.2234V20.1682C4.14258 20.489 4.40259 20.749 4.72336 20.749H10.665C10.9858 20.749 11.2458 20.489 11.2458 20.1682V14.2234C11.2458 13.9026 10.9857 13.6426 10.665 13.6426ZM10.5932 20.0932H4.79515V14.2951H10.5932V20.0932Z"
                fill="white"
        />
        <path
                d="M19.4383 13.6104L13.6957 12.0834C13.3826 12.007 13.066 12.1957 12.9844 12.5075L11.4574 18.2501C11.3744 18.56 11.5584 18.8784 11.8682 18.9613C11.8683 18.9614 11.8684 18.9614 11.8685 18.9614L17.6111 20.4884C17.921 20.5714 18.2394 20.3874 18.3223 20.0776C18.3224 20.0775 18.3224 20.0774 18.3224 20.0773L19.8364 14.3217C19.9203 14.0157 19.743 13.6989 19.4383 13.6104ZM17.7123 19.8098L12.1067 18.3382L13.5978 12.7359L19.2001 14.227L17.7123 19.8098Z"
                fill="white"
        />
        <path
                d="M13.5719 9.33321C13.5126 9.22048 13.4342 9.11893 13.3402 9.03303L11.7088 7.31352L11.5163 7.1047C11.4679 7.05453 11.4143 7.00971 11.3564 6.97092C11.2978 6.93107 11.2308 6.90538 11.1606 6.89587C10.9937 6.88421 10.8304 6.94902 10.7169 7.07207C10.672 7.12713 10.6408 7.19194 10.6255 7.26131C10.609 7.34288 10.6013 7.42604 10.6027 7.50929C10.6027 7.60391 10.6027 7.68548 10.6027 7.754V10.1293C10.6092 10.2272 10.6146 10.3023 10.619 10.3545C10.6215 10.4035 10.6314 10.452 10.6484 10.498C10.6801 10.5746 10.743 10.634 10.8213 10.6612C10.9008 10.6938 10.9898 10.6938 11.0693 10.6612C11.1501 10.6382 11.2146 10.5773 11.2422 10.498C11.2667 10.3724 11.2755 10.2441 11.2683 10.1163V9.64971L12.5571 9.14397L12.8638 9.47025L13.0041 9.61056C13.0441 9.65281 13.089 9.69005 13.1379 9.72149C13.1746 9.7436 13.2159 9.75697 13.2586 9.76065C13.3066 9.76411 13.3546 9.75628 13.3989 9.73781C13.4756 9.70632 13.5375 9.64681 13.5719 9.5714C13.6043 9.49534 13.6043 9.40928 13.5719 9.33321ZM11.239 9.09503L11.1933 7.6137L12.1852 8.72306L11.239 9.09503Z"
                fill="white"
        />
        <path
                d="M8.50866 16.9415C8.81949 16.8255 9.02342 16.5261 9.01766 16.1944C9.01795 16.0987 9.00135 16.0037 8.96872 15.9138C8.93671 15.8246 8.88919 15.7417 8.82842 15.669C8.76851 15.5966 8.69681 15.5349 8.61634 15.4863C8.51621 15.4264 8.40539 15.3865 8.29005 15.3689C8.15077 15.3476 8.01002 15.3378 7.86915 15.3395H6.78588C6.66838 15.3267 6.55067 15.362 6.4596 15.4374C6.38516 15.5289 6.35001 15.6462 6.36171 15.7637V18.3217C6.3498 18.4387 6.3837 18.5556 6.45634 18.648C6.54733 18.7262 6.66675 18.7628 6.78588 18.7492H7.82673C7.97865 18.7445 8.13009 18.7303 8.28026 18.7067C8.40339 18.6923 8.52412 18.6616 8.63917 18.6154C8.80028 18.5483 8.93772 18.4347 9.03398 18.2891C9.13227 18.1353 9.18334 17.9561 9.18081 17.7736C9.18831 17.3699 8.90489 17.0191 8.50866 16.9415ZM7.0567 15.8648H7.60159C7.79141 15.855 7.98122 15.8839 8.15954 15.9496C8.28291 16.0092 8.35592 16.1396 8.34226 16.2759C8.34299 16.3528 8.32268 16.4284 8.28353 16.4945C8.23866 16.5822 8.16141 16.6489 8.06818 16.6805C7.93893 16.7179 7.80454 16.7344 7.67011 16.7295H7.04038L7.0567 15.8648ZM8.4793 17.7279C8.4793 18.0629 8.24653 18.2304 7.78105 18.2304H7.04038L7.0567 17.2385H7.76473C7.95267 17.2266 8.14021 17.2673 8.30637 17.3559C8.42615 17.4402 8.49202 17.582 8.4793 17.7279Z"
                fill="white"
        />
        <path
                d="M17.2886 15.3203C17.2054 15.1144 17.0719 14.9326 16.9003 14.7917C16.711 14.6338 16.4876 14.5221 16.2477 14.4654C16.0355 14.4067 15.8138 14.3901 15.5952 14.4164C15.3849 14.4421 15.1824 14.5122 15.0013 14.622C14.8139 14.7374 14.6527 14.8908 14.5282 15.0723C14.3879 15.2789 14.2852 15.5086 14.2248 15.7509C14.1824 15.9055 14.1561 16.0641 14.1465 16.2241C14.1381 16.3737 14.1479 16.5238 14.1758 16.6711C14.2021 16.8109 14.246 16.9468 14.3063 17.0757C14.3691 17.2079 14.4528 17.3291 14.5543 17.4346C14.6554 17.5381 14.7721 17.6251 14.9002 17.6923C15.0463 17.7684 15.2007 17.8275 15.3602 17.8685C15.5647 17.9273 15.7789 17.9439 15.99 17.9175C16.1678 17.8901 16.3379 17.8256 16.4892 17.7282C16.6142 17.6501 16.7246 17.5507 16.8155 17.4346C16.8927 17.3384 16.9493 17.2273 16.9819 17.1083C17.0048 17.0314 16.9941 16.9484 16.9525 16.8799C16.9128 16.8112 16.8469 16.7617 16.7698 16.7428C16.6944 16.7157 16.6105 16.7266 16.5446 16.7722C16.4816 16.8238 16.4276 16.8856 16.3848 16.9549C16.2834 17.1024 16.1403 17.216 15.9736 17.2812C15.804 17.3365 15.6212 17.3365 15.4516 17.2812C15.2975 17.2513 15.1543 17.1803 15.0372 17.0757C14.924 16.9468 14.8533 16.7861 14.8349 16.6156C14.8131 16.3961 14.8341 16.1745 14.8969 15.963C14.9551 15.6354 15.1231 15.3374 15.3733 15.118C15.5823 14.9553 15.8572 14.9042 16.1107 14.9809C16.2653 15.0164 16.4054 15.0984 16.512 15.2158C16.6164 15.3459 16.688 15.4993 16.7208 15.6628C16.7375 15.7495 16.7672 15.8331 16.8089 15.9108C16.851 15.9693 16.9142 16.0091 16.9851 16.0218C17.0597 16.0424 17.1396 16.0293 17.2037 15.9859C17.27 15.9458 17.318 15.8814 17.3375 15.8064C17.3719 15.6432 17.3548 15.4733 17.2886 15.3203Z"
                fill="white"
        />
    </g>
    <defs>
        <clipPath id="clip0_12798_167038">
            <rect width="16.5" height="16.5" fill="white" transform="translate(3.75 4.25)"/>
        </clipPath>
    </defs>
</svg>
