<svg width="139" height="19" viewBox="0 0 139 19" fill="none" xmlns="http://www.w3.org/2000/svg">
<path d="M30.5028 9.22746C30.1884 8.3709 28.223 7.94262 28.223 7.94262C27.8692 7.63115 28.2623 7.28074 28.2623 7.28074C28.4195 7.04713 28.734 6.69672 28.734 6.69672C28.223 6.93033 27.6334 6.89139 27.6334 6.89139C27.4761 6.77459 27.712 6.73565 27.712 6.73565C29.1271 6.1127 28.9305 4.51639 28.9305 4.51639C28.4588 4.90574 27.6727 4.78893 27.6727 4.78893C27.1224 4.71106 27.1224 4.24385 27.1224 4.24385C27.201 3.69877 27.9478 3.5041 27.9478 3.5041C27.1224 2.375 24.6853 2.72541 24.6853 2.72541C25.1963 1.05123 24.4101 0.0389344 24.4101 0.0389344C21.6979 2.64754 17.0203 2.84221 17.0203 2.84221C16.9023 2.84221 16.6272 2.60861 16.6272 2.60861C16.1555 2.10246 16.4306 1.05123 16.4306 1.05123C16.0376 1.28484 15.6838 2.2582 15.6838 2.2582C15.448 2.56967 15.3693 2.10246 15.3693 2.10246C15.2121 0.895492 14.4259 0.389344 14.4259 0.389344C14.6225 1.05123 14.308 2.10246 14.308 2.10246C14.1508 2.41393 13.9543 2.29713 13.9543 2.29713C13.4039 2.02459 13.5612 1.2459 13.5612 1.2459C12.5392 1.79098 12.5392 2.72541 12.5392 2.72541C8.52978 2.4918 6.01409 0 6.01409 0C5.46378 1.2459 5.81755 2.45287 5.81755 2.45287C5.14932 1.98566 4.24524 2.10246 4.24524 2.10246C5.03139 2.84221 4.12731 2.99795 4.12731 2.99795C2.39777 2.92008 1.96539 3.77664 1.96539 3.77664C2.27985 3.89344 2.555 4.32172 2.555 4.32172C2.83016 5.02254 2.39777 5.21721 2.39777 5.21721C1.76885 5.52869 1.10062 4.51639 1.10062 4.51639C0.982692 6.61885 2.35846 6.93033 2.35846 6.93033C2.12262 7.20287 1.022 7.04713 1.022 7.04713C2.00469 7.51434 1.92608 7.94262 1.92608 7.94262C1.80816 8.3709 1.10062 8.33197 1.10062 8.33197C0.550306 8.40983 0.157229 8.76024 0.157229 8.76024C1.45439 9.14959 1.41508 10.084 1.41508 10.084C0.707538 10.7459 0.0786133 9.96721 0.0786133 9.96721C0.353768 11.5635 1.76885 11.7193 1.76885 11.7193C2.16193 11.9529 1.88677 12.1086 1.88677 12.1086C1.72954 12.3033 1.17923 12.8484 1.17923 12.8484C0.825461 13.1598 0.825461 14.0164 0.825461 14.0164C1.10062 13.7049 2.12262 13.4713 2.12262 13.4713C3.10531 13.4324 2.86946 14.2889 2.86946 14.2889C2.86946 14.6783 2.08331 15.457 2.08331 15.457C2.63362 15.7684 3.97008 15.7684 3.97008 15.7684C4.63831 15.7684 4.59901 16.041 4.59901 16.041C4.63831 16.625 4.00939 17.3648 4.00939 17.3648C4.44178 16.9754 5.89616 16.6639 5.89616 16.6639C6.64301 16.5861 6.40716 16.9754 6.44647 16.9754C6.28924 17.9098 6.64301 18.7275 6.68232 18.8443C6.99678 17.8709 7.70432 17.5205 7.78294 17.4816C8.33324 17.2869 8.25463 17.7541 8.25463 17.832C8.41186 17.9488 9.15871 18.416 10.2986 18.1045C10.9276 17.9488 11.6744 17.6762 12.3426 17.1701C12.6964 16.9365 13.1288 16.5471 13.5612 15.9631C13.7577 15.6906 13.9936 15.3791 14.1901 14.9898H14.2294C14.6225 14.3279 14.9369 13.5102 15.1728 12.498C15.1728 12.498 15.4086 13.7049 15.9983 14.9898H16.1555C16.1555 14.9898 17.0989 16.7807 18.4353 17.5594C19.929 18.4549 20.558 18.7275 21.8551 18.5717C22.0517 18.5328 22.1696 18.5328 22.2089 18.4939C22.1696 18.4549 22.1696 18.416 22.1303 18.377C22.5233 17.793 22.8771 18.0656 22.8771 18.0656C23.0737 18.2213 23.0343 18.5328 23.0343 18.5328C23.9777 18.1434 24.135 16.9754 24.135 16.9754C24.4101 16.4693 24.8032 16.7807 24.8032 16.7807C25.2356 16.9754 25.3928 17.6373 25.3928 17.6373C25.7466 16.7418 25.5107 15.8463 25.5107 15.8463C25.4321 15.4959 25.668 15.6127 25.668 15.6127C27.3582 15.9631 27.8299 15.5348 27.8299 15.5348C27.2403 15.2623 27.1617 14.4057 27.1617 14.4057C27.201 13.7439 27.8299 13.8996 27.8299 13.8996C28.4588 14.0164 28.8126 14.4447 28.8126 14.4447C28.9305 13.3934 28.0657 12.5369 28.0657 12.5369C27.9478 12.1865 28.1837 12.0307 28.1837 12.0307C29.7953 11.4467 29.7953 10.5512 29.7953 10.5512C28.8519 10.7459 28.6554 9.96721 28.6554 9.96721C29.2057 8.83811 30.5028 9.22746 30.5028 9.22746Z" fill="#225054"/>
<path d="M15.252 10.9004C14.3479 11.2119 13.4438 12.925 13.4438 12.925C13.5618 14.5602 15.2127 16.0397 15.252 16.0787C15.2913 16.0397 16.8636 14.5602 16.9815 12.925C16.9815 12.925 16.1168 11.2119 15.252 10.9004Z" fill="#225054"/>
<path d="M13.4829 13.2761C13.4829 13.2761 14.3477 11.7187 15.2125 11.4462V16.1183C15.2518 16.1183 13.6008 14.7945 13.4829 13.2761Z" fill="#FAB84A"/>
<path d="M16.9017 13.2761C16.9017 13.2761 16.0762 11.7187 15.2114 11.4462V16.1183C15.2114 16.1183 16.7837 14.7556 16.9017 13.2761Z" fill="#E9934C"/>
<path d="M8.37369 15.2232C11.3261 15.2232 13.7195 12.8525 13.7195 9.92814C13.7195 7.00374 11.3261 4.63306 8.37369 4.63306C5.42125 4.63306 3.02783 7.00374 3.02783 9.92814C3.02783 12.8525 5.42125 15.2232 8.37369 15.2232Z" fill="#225054"/>
<path d="M8.68691 15.2611C11.3571 15.2611 13.5218 12.995 13.5218 10.1997C13.5218 7.40428 11.3571 5.13818 8.68691 5.13818C6.01669 5.13818 3.85205 7.40428 3.85205 10.1997C3.85205 12.995 6.01669 15.2611 8.68691 15.2611Z" fill="white"/>
<path d="M22.1315 15.2232C25.0839 15.2232 27.4774 12.8525 27.4774 9.92814C27.4774 7.00374 25.0839 4.63306 22.1315 4.63306C19.1791 4.63306 16.7856 7.00374 16.7856 9.92814C16.7856 12.8525 19.1791 15.2232 22.1315 15.2232Z" fill="#225054"/>
<path d="M21.7768 15.2611C24.447 15.2611 26.6116 12.995 26.6116 10.1997C26.6116 7.40428 24.447 5.13818 21.7768 5.13818C19.1065 5.13818 16.9419 7.40428 16.9419 10.1997C16.9419 12.995 19.1065 15.2611 21.7768 15.2611Z" fill="white"/>
<path d="M9.78768 13.3544C11.3507 13.3544 12.6178 12.0994 12.6178 10.5511C12.6178 9.00294 11.3507 7.74786 9.78768 7.74786C8.22462 7.74786 6.95752 9.00294 6.95752 10.5511C6.95752 12.0994 8.22462 13.3544 9.78768 13.3544Z" fill="#FAB84A"/>
<path d="M9.78815 12.6147C10.9604 12.6147 11.9108 11.6734 11.9108 10.5122C11.9108 9.35109 10.9604 8.40979 9.78815 8.40979C8.61586 8.40979 7.66553 9.35109 7.66553 10.5122C7.66553 11.6734 8.61586 12.6147 9.78815 12.6147Z" fill="#201E1E"/>
<path d="M8.60817 9.84959C8.97723 9.84959 9.27641 9.55325 9.27641 9.1877C9.27641 8.82215 8.97723 8.52582 8.60817 8.52582C8.23912 8.52582 7.93994 8.82215 7.93994 9.1877C7.93994 9.55325 8.23912 9.84959 8.60817 9.84959Z" fill="white"/>
<path d="M20.8326 13.3544C22.3957 13.3544 23.6628 12.0994 23.6628 10.5511C23.6628 9.00294 22.3957 7.74786 20.8326 7.74786C19.2695 7.74786 18.0024 9.00294 18.0024 10.5511C18.0024 12.0994 19.2695 13.3544 20.8326 13.3544Z" fill="#FAB84A"/>
<path d="M20.8731 12.6522C22.0454 12.6522 22.9957 11.7109 22.9957 10.5498C22.9957 9.38863 22.0454 8.44733 20.8731 8.44733C19.7008 8.44733 18.7505 9.38863 18.7505 10.5498C18.7505 11.7109 19.7008 12.6522 20.8731 12.6522Z" fill="#201E1E"/>
<path d="M19.6931 9.84959C20.0622 9.84959 20.3614 9.55325 20.3614 9.1877C20.3614 8.82215 20.0622 8.52582 19.6931 8.52582C19.3241 8.52582 19.0249 8.82215 19.0249 9.1877C19.0249 9.55325 19.3241 9.84959 19.6931 9.84959Z" fill="white"/>
<path d="M10.535 18.0266C10.535 18.0266 9.47366 18.416 8.21581 17.7541C8.21581 17.7541 7.27243 17.3648 6.72212 19C6.68281 19 6.05388 18.4549 6.28973 17.1311C6.28973 17.1311 6.44696 16.7807 5.73942 16.8586C5.73942 16.8586 4.04919 17.4037 3.81334 17.7152C3.81334 17.7152 4.44227 16.7807 4.40296 16.1578C4.40296 16.1578 4.40296 15.9242 3.77403 15.9631C3.77403 15.9631 2.43757 15.9631 1.88726 15.5738C1.96588 15.5738 2.67342 14.9508 2.75203 14.4057C2.75203 14.4057 2.90926 13.5881 2.16242 13.627C2.16242 13.627 1.25834 13.627 0.708028 14.1721C0.708028 14.1721 0.511489 13.082 1.73003 12.1865C1.73003 12.1865 2.00518 12.0307 1.69072 11.875C1.69072 11.875 0.31495 11.4467 0.000488281 9.85041C0.000488281 9.85041 0.550797 10.5512 1.10111 10.2787C1.10111 10.2787 1.21903 10.2398 1.25834 10.084C1.25834 10.084 1.21903 9.14959 0.000488281 8.76025C0.000488281 8.76025 0.393566 8.33197 1.29764 8.2541C1.29764 8.2541 1.92657 8.05943 1.61211 7.63115C1.61211 7.63115 1.17972 7.16393 0.904567 7.0082C0.904567 7.0082 1.88726 7.04713 2.20172 6.85246C2.16242 6.85246 0.825951 6.69672 1.0618 4.43852C1.0618 4.43852 2.04449 5.84016 2.47688 4.8668C2.43757 4.78893 2.63411 4.20492 1.76934 3.7377C1.76934 3.7377 2.31965 2.88115 3.97057 2.84221C3.97057 2.84221 4.75673 2.64754 4.0885 1.98566C4.0885 1.98566 5.18911 1.79098 5.66081 2.2582C5.66081 2.21926 5.46427 1.28484 5.97527 0C5.97527 0 5.81804 2.33607 6.17181 3.23156C6.1325 3.19262 5.58219 2.45287 4.87465 2.18033C4.87465 2.18033 5.22842 3.38729 3.97057 3.42623C3.97057 3.42623 2.94857 3.23156 2.47688 3.6209C2.47688 3.6209 3.22373 4.98361 2.63411 5.56762C2.63411 5.56762 2.0838 6.03484 1.41557 5.37295C1.41557 5.37295 1.33695 6.46311 2.79134 6.77459C2.79134 6.77459 2.55549 7.35861 1.80865 7.35861C1.80865 7.35861 2.43757 7.94262 1.96588 8.40984C1.96588 8.40984 1.49418 8.79918 0.904567 8.79918C0.904567 8.79918 1.92657 9.3832 1.80865 10.3176C1.80865 10.3176 1.49418 11.0574 0.629413 10.7848C0.629413 10.7848 1.17972 11.252 2.0838 11.5635C2.0838 11.5635 2.63411 11.9139 2.39826 12.3033C2.39826 12.3033 1.53349 12.6148 1.29764 13.4713C1.29764 13.4713 2.55549 12.8484 3.14511 13.3156C3.14511 13.3156 3.53819 14.4447 2.5948 15.3791C2.5948 15.3791 4.44227 15.6906 5.18911 15.5738C5.18911 15.5738 4.95327 16.5861 4.75673 16.8586C4.87465 16.8197 6.25042 16.2357 7.11519 16.4303C7.11519 16.4303 6.48627 17.6373 6.56489 18.0656C6.56489 18.0656 7.6655 16.9365 8.56958 17.0922C8.60889 17.0533 8.29443 17.7541 10.535 18.0266Z" fill="#173C3F"/>
<path d="M19.8511 18.2213C19.8511 18.2213 20.6372 18.8832 22.3275 18.4939C22.3275 18.4939 22.5633 18.416 22.7205 18.2992C22.7205 18.2992 23.035 18.0266 23.035 18.5717C23.035 18.5717 24.1749 18.3381 24.3322 17.1311C24.3322 17.1311 24.4108 16.6639 24.9218 17.0143C24.9218 17.0143 25.1969 17.2479 25.3542 17.8709C25.3542 17.8709 25.9831 16.8586 25.6686 15.8852C25.6686 15.8852 25.6686 15.6906 25.8652 15.7295C25.8652 15.7295 27.3195 16.1578 27.9878 15.5738C27.9878 15.5738 27.2016 15.1455 27.3982 14.1332C27.3982 14.1332 27.5554 13.8217 28.145 14.0164C28.145 14.0164 28.7739 14.25 28.8526 14.5615C28.8526 14.5615 29.0884 13.3934 28.1843 12.5369C28.1843 12.5369 27.9485 12.2643 28.3416 12.0697C28.3416 12.0697 29.678 11.5246 29.8746 10.5123C29.8746 10.5123 29.0491 10.8627 28.7346 10.0061C28.7346 10.0061 29.167 8.91598 30.5035 9.26639C30.5035 9.26639 30.1104 8.29303 28.2629 7.94262C28.2629 7.94262 27.9092 7.82582 28.2629 7.31967L28.8526 6.57992C28.8526 6.57992 28.0271 7.0082 27.634 6.81352C27.634 6.81352 27.5161 6.77459 27.7126 6.69672C27.7126 6.69672 29.0491 6.1127 28.8919 4.36066C28.8919 4.36066 27.7126 5.21721 27.1623 4.39959C27.1623 4.39959 26.9658 3.89344 28.0664 3.42623C28.0664 3.42623 27.5554 2.33607 24.7645 2.64754C24.7645 2.64754 25.2362 1.1291 24.3322 0C24.3322 0 25.079 2.41393 24.1356 3.27049C24.1356 3.27049 25.9045 2.53074 27.634 3.34836C27.634 3.34836 26.5727 3.34836 26.9265 4.67213C26.9265 4.67213 27.3195 5.29508 28.5774 5.02254C28.5774 5.02254 27.9092 6.34631 27.123 6.81352C27.123 6.81352 27.7126 7.16393 28.1057 7.125C28.0664 7.20287 27.5947 7.94262 27.4375 8.02049C27.4375 8.02049 28.656 8.17623 29.4815 8.83811C29.4815 8.83811 28.6953 9.03279 28.3416 10.084C28.3416 10.084 28.7739 10.8627 29.2063 10.9795C29.2063 10.9406 28.3022 11.8361 27.5554 12.0697C27.5947 12.1475 28.4202 13.4713 28.5774 13.9775C28.5774 13.9775 27.9092 13.3934 27.0837 13.8607C27.0837 13.8607 26.7692 14.7951 27.1623 15.4959C27.1623 15.4959 26.101 15.6127 25.3149 15.3012C25.3149 15.3012 25.3935 16.7029 25.2755 17.0533C25.2755 17.0533 24.6073 16.4693 23.9784 16.5471C23.9784 16.5471 23.8605 17.793 23.3888 17.9488C23.3888 17.9488 23.1136 17.5984 22.7598 17.4816C22.9564 17.4816 21.7378 18.6885 19.8511 18.2213Z" fill="#173C3F"/>
<path d="M39.2508 6.02901C38.6008 6.02369 37.9026 6.09813 37.2902 6.33223C37.2902 6.33223 34.148 7.53464 33.8633 10.929C33.8633 10.929 33.4765 13.7381 34.7602 15.563C34.7602 15.563 35.7487 17.207 37.8542 17.6805C37.8542 17.6805 42.1781 18.9095 44.4448 15.031C44.4448 15.031 44.6383 14.6851 44.3966 14.4031L43.0644 13.5998C43.0644 13.5998 42.6939 13.4402 42.4092 13.8499C42.4092 13.8499 41.8022 14.9725 40.7709 15.3183C40.7709 15.3183 39.3259 15.8397 38.1335 15.3183C38.1335 15.3183 36.5328 14.7969 36.3018 12.2378H44.3697C44.3697 12.2378 44.7671 12.2697 44.8315 11.8069C44.8315 11.8069 45.1056 7.55588 41.5766 6.33753C41.5605 6.33221 40.4916 6.03433 39.2508 6.02901ZM39.4333 8.17304C40.3787 8.1624 40.9858 8.48696 40.9858 8.48696C42.334 9.12008 42.3017 10.5779 42.3017 10.5779H36.4415C36.8981 8.88603 37.8435 8.50296 37.8435 8.50296C38.429 8.26355 38.9714 8.17836 39.4333 8.17304Z" fill="#225054"/>
<path d="M54.8706 1.00598C54.8706 1.00598 54.559 1.02196 54.4891 1.42631V8.16183C54.4891 8.16183 53.936 6.77856 52.5609 6.29441C52.5609 6.29441 50.783 5.69317 49.2038 6.30501C49.2038 6.30501 47.2431 6.84768 46.3354 9.94944C46.3354 9.94944 45.8467 11.503 46.2764 13.7961C46.2764 13.7961 46.647 16.1104 48.8922 17.4245C48.8922 17.4245 50.4928 18.3822 52.8347 17.4245C52.8347 17.4245 53.8553 17.0308 54.4998 15.988V16.951C54.4998 16.951 54.4783 17.3181 54.8597 17.3766H56.5302C56.5302 17.3766 56.9115 17.3181 56.9008 16.9138V1.44221C56.9008 1.44221 56.9009 1.10175 56.482 1.00598H54.8706ZM51.5724 8.22563C53.2698 8.22563 54.6448 9.91219 54.6448 11.9978C54.6448 14.0833 53.2698 15.7699 51.5724 15.7699C49.8751 15.7699 48.5001 14.0833 48.5001 11.9978C48.5001 9.91219 49.8751 8.22563 51.5724 8.22563Z" fill="#225054"/>
<path d="M59.1577 6.39524H60.6994C60.6994 6.39524 61.0915 6.34738 61.1398 6.84217L61.156 13.2585C61.156 13.2585 61.1881 15.0834 62.7458 15.4824C62.7458 15.4824 63.9274 15.775 64.9587 15.4824C64.9587 15.4824 66.5541 15.1313 66.5649 13.2426V6.85287C66.5649 6.85287 66.5165 6.4112 66.9677 6.39524H68.5307C68.5307 6.39524 68.9926 6.3527 69.0141 6.78896V12.519C69.0141 12.519 69.025 15.9825 66.9302 17.137C66.9302 17.137 64.1585 18.7278 60.7477 17.137C60.7477 17.137 59.0395 16.4507 58.7548 13.0404V6.79967C58.7494 6.79967 58.7548 6.4112 59.1577 6.39524Z" fill="#225054"/>
<path d="M79.0259 8.54559V6.90699C79.0259 6.90699 79.0526 6.6729 78.682 6.50796C78.682 6.50796 76.1145 5.28961 73.2301 6.69418C73.2301 6.69418 71.1837 7.58263 70.5499 10.0566C70.5499 10.0566 70.0235 12.222 70.5499 13.7968C70.5499 13.7968 71.1406 16.4038 73.5255 17.3401C73.5255 17.3401 75.6687 18.4734 78.725 17.255C78.725 17.255 79.0365 17.1752 79.0311 16.8187V15.2226C79.0311 15.2226 78.9239 14.7278 78.4512 14.8449C78.4512 14.8449 78.3061 14.8874 78.1396 15.0045C78.1396 15.0045 77.5809 15.4089 76.9095 15.4993C76.9095 15.4993 75.5131 15.7547 74.5301 15.1801C74.5301 15.1801 73.1389 14.664 72.8381 12.3869C72.8381 12.3869 72.7307 11.4398 72.8381 11.0461C72.8381 11.0461 73.1497 8.83295 75.1747 8.37008C75.1747 8.37008 76.2006 8.0987 77.4575 8.40728C77.4575 8.40728 78.0913 8.66264 78.3008 8.83821C78.2954 8.83821 78.8003 9.15211 79.0259 8.54559Z" fill="#225054"/>
<path d="M84.4719 6.06006C83.9616 6.06006 83.3978 6.12386 82.8552 6.33667C82.8552 6.33667 80.9 6.87935 79.9923 9.9811C79.9923 9.9811 79.5034 11.5347 79.9331 13.8277C79.9331 13.8277 80.3037 16.142 82.5489 17.4562C82.5489 17.4562 84.1496 18.4138 86.4861 17.4562C86.4861 17.4562 87.5067 17.0625 88.1513 16.0197V16.9826C88.1513 16.9826 88.1297 17.3497 88.5111 17.4083H90.1817C90.1817 17.4083 90.563 17.3498 90.5522 16.9454V6.82621C90.5522 6.82621 90.5524 6.48564 90.1334 6.38988H88.5111C88.5111 6.38988 88.1997 6.40586 88.1299 6.8102V8.19349C88.1299 8.19349 87.5766 6.81023 86.2069 6.32608C86.2123 6.32608 85.4441 6.06538 84.4719 6.06006ZM85.2132 8.25729C86.9105 8.25729 88.2855 9.94386 88.2855 12.0294C88.2855 14.1097 86.9105 15.8016 85.2132 15.8016C83.5158 15.8016 82.1408 14.115 82.1408 12.0294C82.1408 9.94918 83.5158 8.25729 85.2132 8.25729Z" fill="#225054"/>
<path d="M100.828 8.53941V6.9007C100.828 6.9007 100.855 6.66661 100.484 6.50168C100.484 6.50168 97.9165 5.28332 95.0321 6.68789C95.0321 6.68789 92.9854 7.57645 92.3516 10.0504C92.3516 10.0504 91.8252 12.2157 92.3516 13.7905C92.3516 13.7905 92.9426 16.3976 95.3275 17.334C95.3275 17.334 97.4707 18.4671 100.527 17.2487C100.527 17.2487 100.838 17.169 100.833 16.8125V15.2164C100.833 15.2164 100.726 14.7217 100.253 14.8387C100.253 14.8387 100.108 14.8813 99.9414 14.9983C99.9414 14.9983 99.3828 15.4026 98.7114 15.493C98.7114 15.493 97.3148 15.7484 96.3319 15.1738C96.3319 15.1738 94.9407 14.6577 94.6399 12.3806C94.6399 12.3806 94.5325 11.4336 94.6399 11.0453C94.6399 11.0453 94.9514 8.83207 96.9764 8.3692C96.9764 8.3692 98.0024 8.09782 99.2593 8.4064C99.2593 8.4064 99.893 8.66175 100.103 8.83732C100.092 8.832 100.602 9.1406 100.828 8.53941Z" fill="#DF2B3C"/>
<path fill-rule="evenodd" clip-rule="evenodd" d="M115.249 6.00671C112 6.00671 109.368 8.67752 109.368 11.9655C109.368 15.2534 112 17.9243 115.249 17.9243C118.499 17.9243 121.131 15.2534 121.131 11.9655C121.131 8.67752 118.499 6.00671 115.249 6.00671ZM115.249 8.24125C117.092 8.24125 118.585 9.91182 118.585 11.9708C118.585 14.0298 117.092 15.7003 115.249 15.7003C113.407 15.7003 111.914 14.0298 111.914 11.9708C111.914 9.91182 113.407 8.24125 115.249 8.24125Z" fill="#DF2B3C"/>
<path d="M102.482 7.28341V17.3175C102.482 17.3175 102.45 17.8123 102.987 17.8336H104.54C104.54 17.8336 104.921 17.8336 104.964 17.392V12.3058C104.964 12.3058 104.926 9.57647 106.215 8.8263C106.215 8.8263 106.978 8.41125 108.208 8.789C108.208 8.789 108.616 8.96459 108.853 8.70389L109.428 7.35791C109.428 7.35791 109.556 6.84712 109.191 6.75667C109.191 6.75667 107.424 5.92666 106.017 7.00669C106.017 7.00669 105.313 7.5015 104.991 8.54428V7.2674C104.991 7.2674 105.007 6.8205 104.561 6.81518H102.912C102.907 6.8205 102.568 6.82054 102.482 7.28341Z" fill="#DF2B3C"/>
<path d="M127.48 8.62957C127.48 8.62957 127.7 8.92223 128.146 8.69878L129.124 7.96453C129.124 7.96453 129.387 7.73052 129.183 7.4113C129.183 7.4113 128.431 6.17696 126.663 6.03332C126.663 6.03332 125.396 5.92691 124.681 6.13972C124.681 6.13972 122.399 6.55473 121.985 8.63498C121.985 8.63498 121.84 9.23617 122.023 10.0449C122.023 10.0449 122.248 11.3483 124.042 12.1357C124.042 12.1357 126.341 13.1732 126.459 13.2264C126.459 13.2264 127.759 13.7424 127.507 14.7959C127.507 14.7959 127.421 15.7004 126.39 15.8972C126.39 15.8972 124.515 16.3654 123.639 14.8757C123.639 14.8757 123.419 14.4021 122.989 14.5085L121.738 15.2056C121.738 15.2056 121.378 15.429 121.609 15.828C121.609 15.828 122.125 16.8016 123.124 17.323C123.124 17.323 124.638 18.3179 127.313 17.6422C127.313 17.6422 129.166 17.041 129.628 15.8333C129.628 15.8333 130.144 14.8384 129.822 13.4073C129.822 13.4073 129.51 12.1783 128.033 11.4548C128.033 11.4548 125.992 10.5556 125.718 10.4758C125.718 10.4758 124.359 9.90652 124.381 9.19891C124.381 9.19891 124.155 8.41678 125.095 8.03904C125.095 8.03904 125.826 7.68258 126.766 8.03904C126.76 8.03904 127.217 8.22523 127.48 8.62957Z" fill="#DF2B3C"/>
<path d="M136.547 8.74101C136.547 8.74101 136.767 9.03356 137.213 8.81011L138.191 8.07597C138.191 8.07597 138.454 7.84185 138.25 7.52263C138.25 7.52263 137.498 6.28829 135.73 6.14464C135.73 6.14464 134.463 6.03824 133.748 6.25105C133.748 6.25105 131.465 6.66606 131.052 8.74631C131.052 8.74631 130.907 9.3475 131.09 10.1562C131.09 10.1562 131.315 11.4596 133.109 12.247C133.109 12.247 135.408 13.2845 135.526 13.3377C135.526 13.3377 136.826 13.8538 136.574 14.9126C136.574 14.9126 136.488 15.817 135.462 16.0139C135.462 16.0139 133.587 16.4821 132.712 14.9924C132.712 14.9924 132.491 14.5189 132.062 14.6253L130.81 15.3222C130.81 15.3222 130.45 15.5456 130.681 15.9447C130.681 15.9447 131.197 16.9184 132.196 17.4397C132.196 17.4397 133.711 18.4347 136.386 17.759C136.386 17.759 138.239 17.1578 138.701 15.9501C138.701 15.9501 139.216 14.9551 138.894 13.5239C138.894 13.5239 138.583 12.2949 137.106 11.5714C137.106 11.5714 135.064 10.6722 134.79 10.5924C134.79 10.5924 133.432 10.0231 133.453 9.31554C133.453 9.31554 133.227 8.53351 134.167 8.15577C134.167 8.15577 134.898 7.79931 135.838 8.15577C135.832 8.15045 136.289 8.33666 136.547 8.74101Z" fill="#DF2B3C"/>
</svg>
