<svg width="257" height="238" viewBox="0 0 257 238" fill="none" xmlns="http://www.w3.org/2000/svg">
<path d="M188.127 122C180.738 122.032 173.506 125.97 169.81 131.973C169.81 131.974 169.81 131.975 169.81 131.976L122.996 208.057C122.996 208.058 122.996 208.059 122.996 208.059C119.286 214.091 119.287 221.98 122.996 228.01C126.707 234.04 133.989 237.985 141.411 237.985H235.04C242.461 237.985 249.744 234.04 253.455 228.01C257.167 221.98 257.167 214.091 253.455 208.059C253.455 208.059 253.455 208.058 253.455 208.057L206.638 131.976C206.638 131.975 206.638 131.974 206.638 131.973C202.91 125.917 195.581 121.968 188.127 122Z" fill="#163246"/>
<path d="M188.225 134.054C186.748 134.054 185.296 134.419 184.017 135.113C182.737 135.806 181.675 136.803 180.936 138.004L134.122 214.085C133.383 215.286 132.995 216.647 132.995 218.033C132.995 219.419 133.384 220.781 134.123 221.981C134.862 223.181 135.924 224.178 137.204 224.871C138.483 225.564 139.934 225.928 141.411 225.929H235.039C236.517 225.928 237.967 225.564 239.247 224.871C240.526 224.178 241.589 223.181 242.327 221.981C243.066 220.781 243.455 219.419 243.455 218.033C243.455 216.647 243.067 215.286 242.329 214.085L195.511 138.004C194.773 136.804 193.711 135.807 192.432 135.113C191.153 134.42 189.702 134.055 188.225 134.054Z" fill="#FFB843"/>
<path d="M195.057 161.017C195.057 157.245 192 154.188 188.228 154.188C184.456 154.188 181.398 157.245 181.398 161.017V189.359C181.398 193.131 184.456 196.189 188.228 196.189C192 196.189 195.057 193.131 195.057 189.359V161.017Z" fill="#163246"/>
<path d="M188.228 215.253C191.999 215.253 195.057 212.196 195.057 208.424C195.057 204.652 191.999 201.594 188.228 201.594C184.456 201.594 181.398 204.652 181.398 208.424C181.398 212.196 184.456 215.253 188.228 215.253Z" fill="#163246"/>
<path fill-rule="evenodd" clip-rule="evenodd" d="M120.399 91.7626C120.399 91.7626 135.698 76.1562 134.4 56.9982C134.4 56.9982 134.297 53.8224 131.156 54.5738C131.156 54.5738 117.565 57.5445 102.026 68.1993C102.026 68.1993 81.605 83.9425 72.5895 52.3881C72.5895 52.3881 64.5301 33.7426 73.17 20.6291C73.17 20.6291 82.9709 6.62777 90.4839 1.40285C90.4839 1.40285 96.3919 -2.35356 97.4164 2.42736C97.4164 2.42736 96.9724 9.15469 94.7868 15.165C94.7868 15.165 101.412 7.3108 108.345 4.37397C108.345 4.37397 117.565 0.719773 116.882 8.81312C116.882 8.81312 114.73 15.8479 106.875 27.5954C106.875 27.5954 118.145 24.2832 125.999 25.0686C125.999 25.0686 131.225 25.5465 129.859 28.3808C129.859 28.3808 129.073 29.9861 124.053 31.352C124.053 31.352 146.25 30.3274 151.612 32.4789C151.612 32.4789 158.919 33.4009 158.646 40.7088C158.646 40.7088 156.939 78.0345 134.229 99.6168C134.229 99.6168 127.126 107.096 122.687 103.749C122.687 103.749 113.877 99.1385 120.399 91.7626Z" fill="#225054"/>
<path fill-rule="evenodd" clip-rule="evenodd" d="M71.9408 22.9853C65.4865 35.8597 72.6915 52.4905 72.6915 52.4905C81.673 84.0109 102.129 68.2678 102.129 68.2678C117.667 57.6472 131.258 54.6419 131.258 54.6419C134.366 53.9248 134.469 57.0667 134.469 57.0667C135.766 76.2248 120.467 91.8654 120.467 91.8654C113.978 99.2413 122.755 103.817 122.755 103.817C127.195 107.198 134.332 99.6849 134.332 99.6849C157.007 78.1026 158.749 40.7773 158.749 40.7773C158.92 36.1329 156.016 34.084 153.865 33.1961C155.709 40.8798 154.411 47.1288 154.411 47.1288C152.363 58.7397 148.163 64.3407 148.163 64.3407C145.294 68.7801 142.118 67.7553 142.118 67.7553C139.625 67.4139 139.625 61.6083 139.625 61.6083C139.966 57.6127 138.942 54.9834 138.942 54.9834C137.78 51.705 128.117 51.8075 128.117 51.8075C110.939 52.2515 93.864 47.607 93.864 47.607C72.6232 41.9042 71.7699 26.9808 71.9408 22.9853Z" fill="#173C3F"/>
<path fill-rule="evenodd" clip-rule="evenodd" d="M87.2404 82.3377C93.6944 81.3132 115.721 86.1281 115.721 86.1281C115.721 86.1281 147.719 93.6406 148.402 121.882C148.402 121.882 151.476 148.69 131.054 179.732C131.054 179.732 121.492 194.758 116.369 201.69C116.369 201.69 105.886 218.867 103.598 227.2C103.598 227.2 102.949 229.659 100.695 229.01C100.695 229.01 97.8604 228.942 99.2265 225.048C99.2265 225.048 104.964 206.642 104.964 205.617C104.964 205.617 98.6458 206.574 97.0751 206.198C97.0751 206.198 85.8059 223.99 82.6642 227.815C82.6642 227.815 81.7084 228.771 80.1716 228.429C80.1716 228.429 78.8054 228.156 79.3177 225.936C79.3177 225.936 90.2113 203.261 92.2263 197.866C92.2263 197.866 102.847 177.478 102.71 163.169C102.71 163.169 104.486 145.31 82.2545 134.996C82.2545 134.996 65.9995 132.093 70.9853 108.12C70.9853 108.12 74.1953 83.6354 87.2404 82.3377Z" fill="#D5D3C7"/>
<path fill-rule="evenodd" clip-rule="evenodd" d="M146.012 110.067C146.012 110.067 148.334 160.711 121.253 162.862C121.253 162.862 112.681 163.613 102.675 164.706C102.128 178.912 92.2258 197.9 92.2258 197.9C90.2108 203.295 79.2833 225.97 79.2833 225.97C78.7711 228.19 80.1373 228.498 80.1373 228.498C81.674 228.839 82.6637 227.848 82.6637 227.848C85.7714 224.058 97.0407 206.232 97.0407 206.232C98.6457 206.642 104.963 205.652 104.963 205.652C104.963 206.676 99.226 225.116 99.226 225.116C97.86 228.975 100.661 229.044 100.661 229.044C102.914 229.693 103.597 227.234 103.597 227.234C105.886 218.936 116.335 201.724 116.335 201.724C121.458 194.792 131.019 179.766 131.019 179.766C151.817 149.305 148.402 120.824 148.402 120.824C148.334 117.272 147.446 114.301 146.524 111.433C146.456 111.365 146.012 110.067 146.012 110.067Z" fill="#BCB9A8"/>
<path fill-rule="evenodd" clip-rule="evenodd" d="M89.5628 82.2351C88.709 82.2351 87.9575 82.3027 87.3428 82.4056C74.3318 83.6692 71.0877 108.154 71.0877 108.154C66.1019 132.127 82.357 135.03 82.357 135.03C92.6356 139.811 97.7579 146.163 100.319 151.661C106.466 152.549 115.243 154.427 115.448 150.398C115.653 145.378 112.921 133.767 110.667 131.718C108.379 129.669 100.866 120.346 100.866 120.346C100.866 120.346 104.964 103.715 102.471 93.0257C102.471 93.0257 115.312 96.2361 127.708 90.9432C121.288 87.4599 115.857 86.1622 115.857 86.1622C115.857 86.1622 97.7241 82.2009 89.5628 82.2351Z" fill="#BCB9A8"/>
<path fill-rule="evenodd" clip-rule="evenodd" d="M92.7379 192.982C92.7379 192.982 88.6406 201.349 88.6406 203.534C88.6406 203.534 86.6937 210.228 94.0354 208.281C94.0354 208.281 102.402 210.842 119.784 174.814C119.784 174.814 128.185 159.788 124.941 140.016C124.941 140.016 124.121 129.156 110.359 122.634C110.359 122.634 85.3276 117.648 100.968 155.964C100.968 155.964 105.476 171.433 92.7379 192.982Z" fill="#194145"/>
<path fill-rule="evenodd" clip-rule="evenodd" d="M70.3358 152.686C70.3358 152.686 90.2114 150.159 97.6214 162.93C97.6214 162.93 103.87 173.38 96.9723 179.254C96.9723 179.254 89.0499 187.109 80.5124 191.89C80.5124 191.89 71.4975 196.909 75.8345 198.036C75.8345 198.036 83.928 201.247 95.5386 192.914C95.5386 192.914 115.004 181.986 121.356 162.999C121.356 162.999 127.502 148.349 119.272 131.137C119.272 131.137 111.725 116.146 92.8743 121.951C92.8743 121.951 64.0521 128.474 62.447 142.646C62.447 142.646 61.9009 151.969 70.3358 152.686Z" fill="#173C3F"/>
<path fill-rule="evenodd" clip-rule="evenodd" d="M89.6648 79.5032C89.6648 79.5032 100.763 96.2361 96.4263 113.14C96.4263 113.14 88.3668 150.671 61.1495 157.842C61.1495 157.842 64.9402 152.754 61.7301 149.441C61.7301 149.441 58.4857 148.588 57.0514 147.085C57.0514 147.085 56.0272 151.354 57.7006 154.905C57.7006 154.905 50.1872 154.154 45.4064 145.685C45.4064 145.685 46.909 158.218 34.342 158.559C34.342 158.559 35.7427 155.827 33.9671 153.164C33.9671 153.164 28.6394 145.582 28.2297 138.923C28.2297 138.923 23.4826 146.06 23.0728 149.715C23.0728 149.715 12.1109 144.763 14.1599 123.829C14.1599 123.829 2.20757 122.566 0.261032 107.881C0.261032 107.881 44.0753 94.3234 28.7078 56.4176C28.7078 56.4176 35.3323 57.579 37.4837 63.0429C37.4837 63.0429 39.4307 56.7592 38.4062 52.1148C38.4062 52.1148 43.0504 53.8223 44.3138 57.9203C44.3138 57.9203 52.407 49.5878 52.851 40.7089C52.851 40.7089 62.0716 44.4657 63.8815 53.686C63.8815 53.686 95.436 44.7045 117.053 67.9263C117.053 67.9263 123.199 77.2492 121.048 84.762C121.048 84.762 119.204 88.0746 112.032 85.9232C112.032 85.9232 100.08 82.6105 93.5919 78.854C93.5919 78.854 87.889 76.6346 89.6648 79.5032Z" fill="#225054"/>
<path d="M114.183 63.9987C113.056 70.0774 100.797 72.9461 86.8299 70.3848C72.8286 67.8236 62.4125 60.7889 63.5053 54.7103C64.6322 48.6316 76.8921 45.7972 90.8594 48.3584C104.86 50.9197 115.276 57.92 114.183 63.9987Z" fill="#173C3F"/>
<path d="M110.017 60.8915C109.164 65.6042 98.7132 67.6531 86.6587 65.4335C74.6379 63.2478 65.5882 57.6129 66.4419 52.9002C67.2957 48.1876 77.7798 46.1388 89.8004 48.3244C101.855 50.5441 110.905 56.1788 110.017 60.8915Z" fill="#225054"/>
<path fill-rule="evenodd" clip-rule="evenodd" d="M88.0254 80.4937C88.0254 80.4937 83.7909 76.5322 84.2007 70.4876C84.2007 70.4876 85.2598 64.1018 94.2749 63.1455C94.2749 63.1455 104.485 62.0185 111.657 64.6139C111.657 64.6139 113.365 65.126 113.535 66.3896C113.535 66.3896 113.398 67.9266 110.906 68.4729C110.906 68.4729 105.783 70.4193 104.247 73.4245C104.247 73.4245 108.959 77.9324 117.906 77.181C117.906 77.181 120.194 77.181 120.297 74.3466C120.297 74.3466 120.194 71.888 121.936 72.7076C121.936 72.7076 125.146 74.5859 125.863 80.0497C125.863 80.0497 126.785 86.0257 121.663 87.3233C121.663 87.3233 102.163 93.0604 88.0254 80.4937Z" fill="#FAB84A"/>
<path fill-rule="evenodd" clip-rule="evenodd" d="M106.739 63.7261C106.739 63.7261 106.739 63.7261 106.705 63.7261C106.705 63.7261 97.1436 67.312 96.4264 73.9712C96.4264 73.9712 96.6998 76.7028 100.9 78.5127C100.9 78.5127 111.213 83.1229 117.872 80.2202C117.872 80.2202 120.912 78.5129 120.297 73.8002C120.263 74.1076 120.263 74.3465 120.263 74.3465C120.16 77.2151 117.873 77.2153 117.873 77.2153C108.96 77.8642 104.281 73.4587 104.281 73.4587C105.818 70.4193 110.872 68.5071 110.872 68.5071C113.365 67.9266 113.57 66.3896 113.57 66.3896C113.399 65.126 111.589 64.5458 111.589 64.5458C110.189 64.136 109.165 63.7261 107.423 63.5212L106.739 63.7261Z" fill="#D2952F"/>
<path d="M83.8249 117.716C73.1701 130.898 54.8655 134.62 42.8791 126.015C30.8927 117.375 29.7999 99.7196 40.4204 86.5382C51.041 73.3564 69.3796 69.6682 81.3662 78.2739C93.3523 86.8797 94.4449 104.568 83.8249 117.716Z" fill="#173C3F"/>
<path d="M86.523 83.7718C91.6114 93.1284 85.7029 106.14 73.3749 112.799C61.0468 119.492 46.9429 117.307 41.8888 107.915C36.8006 98.5583 42.7089 85.5476 55.0369 78.8884C67.3649 72.2292 81.4689 74.3807 86.523 83.7718Z" fill="#225054"/>
<path fill-rule="evenodd" clip-rule="evenodd" d="M80.8877 78.3419C80.8877 78.3419 56.9148 90.1577 48.3775 122.599C48.3775 122.599 50.2212 125.537 47.1477 126.732C47.1477 126.732 43.7669 127.619 43.6303 123.146C43.6303 123.146 45.3719 102.417 64.2907 85.855C64.2907 85.855 71.7014 79.6397 79.112 77.7956C79.112 77.7956 81.5023 77.1808 80.8877 78.3419Z" fill="#173C3F"/>
<path fill-rule="evenodd" clip-rule="evenodd" d="M80.5472 77.8296C80.5472 77.8296 55.993 88.4503 45.8848 120.448C45.8848 120.448 47.5926 123.419 44.451 124.478C44.451 124.478 41.0353 125.195 41.1037 120.722C41.1037 120.722 43.8702 100.129 63.5744 84.523C63.5744 84.523 71.2919 78.6836 78.7707 77.1809C78.7707 77.1809 81.1959 76.7027 80.5472 77.8296Z" fill="#0A1E20"/>
<path fill-rule="evenodd" clip-rule="evenodd" d="M85.3957 66.5261C85.3957 66.5261 81.4348 57.0326 84.5425 48.6659C84.5425 48.6659 85.8055 46.4119 87.3423 47.5729C87.3423 47.5729 88.8106 48.4267 88.2301 50.7488C88.2301 50.7488 85.8058 57.6815 86.6254 64.5457C86.6254 64.5457 86.7283 68.3362 85.3957 66.5261Z" fill="#173C3F"/>
<path fill-rule="evenodd" clip-rule="evenodd" d="M85.7381 65.6726C85.7381 65.6726 82.6648 55.9056 86.4896 47.812C86.4896 47.812 87.9235 45.6951 89.3918 46.9928C89.3918 46.9928 90.7578 47.9489 89.9724 50.2368C89.9724 50.2368 86.9331 56.9301 87.138 63.8284C87.138 63.8284 86.8992 67.6192 85.7381 65.6726Z" fill="#0A1E20"/>
<path fill-rule="evenodd" clip-rule="evenodd" d="M100.524 122.736C100.524 122.736 93.5231 141.724 93.4549 148.895C93.4549 148.895 92.7034 150.739 96.016 149.066C96.016 149.066 105.681 145.856 108.754 140.119C108.754 140.119 111.623 136.738 108.345 129.737C106.091 124.58 100.524 122.736 100.524 122.736Z" fill="#225054"/>
<path fill-rule="evenodd" clip-rule="evenodd" d="M9.24203 103.988C4.222 106.686 0.329063 107.881 0.329063 107.881C2.27544 122.566 14.2279 123.829 14.2279 123.829C12.1789 144.763 23.1409 149.715 23.1409 149.715C23.5507 146.061 28.2969 138.923 28.2969 138.923C28.7067 145.583 34.0343 153.164 34.0343 153.164C35.776 155.827 34.4101 158.559 34.4101 158.559C46.977 158.252 45.4745 145.685 45.4745 145.685C50.2552 154.154 57.7686 154.905 57.7686 154.905C56.0952 151.354 57.1195 147.085 57.1195 147.085C58.5538 148.588 61.7981 149.476 61.7981 149.476C65.0081 152.754 61.2175 157.842 61.2175 157.842C84.4395 151.729 93.6933 123.59 95.913 115.428C90.3128 133.459 74.3309 146.402 74.3309 146.402C58.7246 146.88 52.6803 139.401 52.6803 139.401C52.851 142.134 54.7971 146.71 54.7971 146.71C50.8358 143.841 44.5528 129.908 44.5528 129.908C45.3041 137.387 41.9909 148.964 41.9909 148.964C33.1462 141.246 32.4973 121.37 32.4973 121.37C25.9065 126.459 28.2969 138.582 28.2969 138.582C21.3987 129.566 24.9165 109.555 24.9165 109.555C10.5055 111.194 9.34448 105.217 9.24203 103.988Z" fill="#173C3F"/>
<path fill-rule="evenodd" clip-rule="evenodd" d="M80.137 224.161C80.137 224.161 71.633 221.804 67.1252 228.122C67.1252 228.122 64.6329 232.186 66.0672 235.737C66.0672 235.737 66.8863 237.582 68.5597 236.864C68.5597 236.864 69.9253 236.523 69.379 234.713C69.379 234.713 68.8673 232.356 69.9943 230.41C69.9943 230.41 69.3791 235.601 71.4281 237.343C71.4281 237.343 72.9993 238.606 74.1262 236.284C74.1262 236.284 74.8773 233.995 76.0043 232.835C76.0043 232.835 74.8091 235.601 76.072 237.035C76.072 237.035 77.6432 238.743 79.7604 236.864C79.7604 236.864 80.7846 236.01 80.5797 233.961C80.5797 233.961 80.4095 232.356 81.3998 231.229C81.3998 231.229 83.8581 227.644 83.8923 225.902C83.8923 225.902 83.5853 224.605 80.1362 224.161H80.137Z" fill="#CE9434"/>
<path fill-rule="evenodd" clip-rule="evenodd" d="M104.69 224.126C108.208 223.717 111.554 224.536 111.554 224.536C116.335 226.756 116.028 230.82 116.028 230.82C115.994 234.849 113.296 234.44 113.296 234.44C111.349 234.473 111.178 231.776 111.178 231.776C110.871 235.737 108.139 236.591 108.139 236.591C105.407 237.411 103.666 233.825 103.666 233.825C102.232 238.093 99.2261 236.42 99.2261 236.42C97.3478 235.123 98.5092 230.478 98.5092 230.478C98.7823 229.317 98.6463 228.361 98.6463 228.361C98.4414 226.414 99.3293 224.809 99.3293 224.809C99.3293 224.809 99.6705 224.468 100.627 224.468C100.797 224.4 104.691 224.126 104.691 224.126H104.69Z" fill="#CE9434"/>
<path fill-rule="evenodd" clip-rule="evenodd" d="M79.0436 224.843C78.2582 224.843 77.4389 225.219 77.4389 225.219C73.4433 227.302 71.7361 234.303 71.7361 234.303C71.2239 232.903 71.9748 229.454 71.9748 229.454C72.2139 228.258 72.1119 227.609 72.1119 227.609C71.9412 225.594 70.0967 226.551 70.0967 226.551C66.8184 228.497 67.2965 236.113 67.3647 236.932C67.7063 237.034 68.1164 237.034 68.5944 236.829C68.5944 236.829 69.9604 236.522 69.3799 234.712C69.3799 234.712 68.8674 232.321 69.9943 230.409C69.9943 230.409 69.3799 235.6 71.4289 237.342C71.4289 237.342 73.0001 238.605 74.127 236.283C74.127 236.283 74.912 233.995 76.039 232.834C76.039 232.834 74.8096 235.6 76.0729 237.034C76.0729 237.034 77.644 238.741 79.7613 236.829C79.7613 236.829 80.7854 236.009 80.5806 233.96C80.5806 233.96 80.4103 232.355 81.4006 231.228C81.4006 231.228 83.8594 227.643 83.9278 225.901C83.9278 225.901 83.86 225.8 83.7569 225.628C82.6641 226.687 80.683 230.033 80.683 230.033C79.8293 231.263 79.8298 232.799 79.8298 232.799C79.5907 235.429 78.3267 236.692 78.3267 236.692C77.712 237.58 77.1316 236.966 77.1316 236.966C75.7656 233.79 78.6339 228.941 78.6339 228.941C80.1707 227.267 80.3419 225.935 80.3419 225.935C80.2047 225.116 79.625 224.877 79.0444 224.843L79.0436 224.843Z" fill="#AD7821"/>
<path fill-rule="evenodd" clip-rule="evenodd" d="M109.778 224.741C109.437 224.707 109.266 224.912 109.266 224.912C109.061 225.219 109.54 225.97 109.54 225.97C111.93 231.468 109.13 234.883 109.13 234.883C108.345 235.566 108.379 234.713 108.379 234.713C107.969 229.181 104.588 226.039 104.588 226.039C102.3 224.399 101.685 225.424 101.685 225.424C101.07 226.039 101.617 226.824 101.617 226.824C103.495 229.761 103.291 233.073 103.291 233.073C103.291 234.986 102.301 234.576 102.301 234.576C99.9785 233.688 98.7484 229.351 98.6802 229.112C98.6802 229.488 98.6463 229.966 98.5431 230.512C98.5431 230.512 97.3826 235.123 99.2607 236.42C99.2607 236.42 102.231 238.128 103.7 233.859C103.7 233.859 105.408 237.445 108.14 236.625C108.14 236.625 110.871 235.737 111.213 231.81C111.213 231.81 111.384 234.474 113.296 234.439C113.296 234.439 113.808 234.507 114.355 234.302C113.979 228.599 110.564 225.15 110.564 225.15C110.222 224.877 109.983 224.775 109.778 224.74V224.741Z" fill="#AD7821"/>
</svg>
