<svg width="465" height="65" viewBox="0 0 465 65" fill="none" xmlns="http://www.w3.org/2000/svg">
<path d="M100.823 31.8482C99.7838 28.9644 93.2873 27.5225 93.2873 27.5225C92.118 26.4738 93.4172 25.294 93.4172 25.294C93.937 24.5075 94.9764 23.3278 94.9764 23.3278C93.2873 24.1143 91.3384 23.9832 91.3384 23.9832C90.8186 23.59 91.5982 23.4589 91.5982 23.4589C96.2757 21.3615 95.626 15.9871 95.626 15.9871C94.0669 17.298 91.4683 16.9047 91.4683 16.9047C89.6493 16.6426 89.6493 15.0696 89.6493 15.0696C89.9091 13.2344 92.3778 12.579 92.3778 12.579C89.6493 8.77755 81.5936 9.9573 81.5936 9.9573C83.2827 4.32072 80.6841 0.912558 80.6841 0.912558C71.719 9.69514 56.2574 10.3506 56.2574 10.3506C55.8676 10.3506 54.9581 9.56405 54.9581 9.56405C53.3989 7.85997 54.3084 4.32072 54.3084 4.32072C53.0091 5.10722 51.8398 8.3843 51.8398 8.3843C51.0602 9.43297 50.8003 7.85997 50.8003 7.85997C50.2806 3.79639 47.682 2.09231 47.682 2.09231C48.3317 4.32072 47.2922 7.85997 47.2922 7.85997C46.7725 8.90864 46.1229 8.51539 46.1229 8.51539C44.3039 7.5978 44.8236 4.97614 44.8236 4.97614C41.4454 6.81131 41.4454 9.9573 41.4454 9.9573C28.1926 9.1708 19.8771 0.781474 19.8771 0.781474C18.0581 4.97614 19.2274 9.03972 19.2274 9.03972C17.0186 7.46672 14.0303 7.85997 14.0303 7.85997C16.6289 10.3506 13.6405 10.8749 13.6405 10.8749C7.92358 10.6127 6.49435 13.4966 6.49435 13.4966C7.53379 13.8898 8.4433 15.3317 8.4433 15.3317C9.3528 17.6912 7.92358 18.3466 7.92358 18.3466C5.8447 19.3953 3.6359 15.9871 3.6359 15.9871C3.24611 23.0656 7.79365 24.1143 7.79365 24.1143C7.01407 25.0319 3.37604 24.5075 3.37604 24.5075C6.62428 26.0805 6.36442 27.5225 6.36442 27.5225C5.97463 28.9644 3.6359 28.8333 3.6359 28.8333C1.81689 29.0955 0.517592 30.2752 0.517592 30.2752C4.80527 31.586 4.67534 34.732 4.67534 34.732C2.33661 36.9605 0.257733 34.3388 0.257733 34.3388C1.16724 39.7132 5.84471 40.2375 5.84471 40.2375C7.144 41.024 6.23449 41.5484 6.23449 41.5484C5.71478 42.2038 3.89576 44.039 3.89576 44.039C2.7264 45.0876 2.72639 47.9715 2.72639 47.9715C3.6359 46.9228 7.01407 46.1363 7.01407 46.1363C10.2623 46.0052 9.48273 48.889 9.48273 48.889C9.48273 50.1999 6.88414 52.8215 6.88414 52.8215C8.70316 53.8702 13.1208 53.8702 13.1208 53.8702C15.3296 53.8702 15.1996 54.7878 15.1996 54.7878C15.3296 56.754 13.2507 59.2446 13.2507 59.2446C14.6799 57.9338 19.4873 56.8851 19.4873 56.8851C21.956 56.623 21.1764 57.9338 21.3063 57.9338C20.7866 61.0798 21.956 63.8325 22.0859 64.2258C23.1253 60.9487 25.4641 59.769 25.7239 59.6379C27.5429 58.9825 27.2831 60.5555 27.2831 60.8176C27.8028 61.2109 30.2715 62.7839 34.0394 61.7352C36.1183 61.2109 38.587 60.2933 40.7958 58.5892C41.9651 57.8027 43.3943 56.4919 44.8236 54.5256C45.4732 53.608 46.2528 52.5594 46.9024 51.2485H47.0324C48.3317 49.0201 49.3711 46.2674 50.1507 42.8592C50.1507 42.8592 50.9303 46.9228 52.8792 51.2485H53.3989C53.3989 51.2485 56.5172 57.2784 60.9348 59.9C65.8722 62.915 67.951 63.8325 72.2387 63.3082C72.8884 63.1771 73.2782 63.1771 73.4081 63.046C73.2782 62.9149 73.2782 62.7839 73.1482 62.6528C74.4475 60.6865 75.6169 61.6041 75.6169 61.6041C76.2665 62.1284 76.1366 63.1771 76.1366 63.1771C79.2549 61.8663 79.7746 57.9338 79.7746 57.9338C80.6841 56.2297 81.9834 57.2784 81.9834 57.2784C83.4127 57.9338 83.9324 60.1622 83.9324 60.1622C85.1017 57.1473 84.3222 54.1324 84.3222 54.1324C84.0623 52.9526 84.8419 53.3459 84.8419 53.3459C90.4289 54.5256 91.988 53.0837 91.988 53.0837C90.0391 52.1661 89.7792 49.2823 89.7792 49.2823C89.9091 47.0539 91.988 47.5782 91.988 47.5782C94.0669 47.9715 95.2363 49.4134 95.2363 49.4134C95.626 45.8741 92.7676 42.9903 92.7676 42.9903C92.3778 41.8105 93.1574 41.2862 93.1574 41.2862C98.4845 39.32 98.4845 36.305 98.4845 36.305C95.3662 36.9605 94.7165 34.3388 94.7165 34.3388C96.5356 30.5374 100.823 31.8482 100.823 31.8482Z" fill="#225054"/>
<path d="M50.4112 37.4806C47.4228 38.5292 44.4345 44.2969 44.4345 44.2969C44.8242 49.8024 50.2813 54.7835 50.4112 54.9146C50.5411 54.7835 55.7383 49.8024 56.1281 44.2969C56.1281 44.2969 53.2697 38.5292 50.4112 37.4806Z" fill="#0A5B59"/>
<path d="M44.567 45.479C44.567 45.479 47.4255 40.2357 50.2839 39.3181V55.0481C50.4138 55.0481 44.9568 50.5913 44.567 45.479Z" fill="#FAB84A"/>
<path d="M55.8671 45.479C55.8671 45.479 53.1385 40.2357 50.2801 39.3181V55.0481C50.2801 55.0481 55.4773 50.4602 55.8671 45.479Z" fill="#E9934C"/>
<path d="M27.6766 52.0345C37.4357 52.0345 45.347 44.0529 45.347 34.2072C45.347 24.3614 37.4357 16.3799 27.6766 16.3799C17.9175 16.3799 10.0062 24.3614 10.0062 34.2072C10.0062 44.0529 17.9175 52.0345 27.6766 52.0345Z" fill="#0A5B59"/>
<path d="M28.7121 52.1619C37.5384 52.1619 44.6935 44.5325 44.6935 35.1211C44.6935 25.7097 37.5384 18.0803 28.7121 18.0803C19.8859 18.0803 12.7308 25.7097 12.7308 35.1211C12.7308 44.5325 19.8859 52.1619 28.7121 52.1619Z" fill="#F2EEE3"/>
<path d="M73.1518 52.0345C82.9109 52.0345 90.8222 44.0529 90.8222 34.2072C90.8222 24.3614 82.9109 16.3799 73.1518 16.3799C63.3927 16.3799 55.4814 24.3614 55.4814 34.2072C55.4814 44.0529 63.3927 52.0345 73.1518 52.0345Z" fill="#0A5B59"/>
<path d="M71.9807 52.1619C80.8069 52.1619 87.962 44.5325 87.962 35.1211C87.962 25.7097 80.8069 18.0803 71.9807 18.0803C63.1544 18.0803 55.9993 25.7097 55.9993 35.1211C55.9993 44.5325 63.1544 52.1619 71.9807 52.1619Z" fill="#F2EEE3"/>
<path d="M32.3509 45.7428C37.5175 45.7428 41.7058 41.5173 41.7058 36.3048C41.7058 31.0924 37.5175 26.8668 32.3509 26.8668C27.1843 26.8668 22.9959 31.0924 22.9959 36.3048C22.9959 41.5173 27.1843 45.7428 32.3509 45.7428Z" fill="#FAB84A"/>
<path d="M32.3514 43.252C36.2263 43.252 39.3676 40.0829 39.3676 36.1735C39.3676 32.2642 36.2263 29.095 32.3514 29.095C28.4764 29.095 25.3352 32.2642 25.3352 36.1735C25.3352 40.0829 28.4764 43.252 32.3514 43.252Z" fill="#201E1E"/>
<path d="M28.4522 33.9427C29.6721 33.9427 30.661 32.945 30.661 31.7143C30.661 30.4836 29.6721 29.4859 28.4522 29.4859C27.2323 29.4859 26.2434 30.4836 26.2434 31.7143C26.2434 32.945 27.2323 33.9427 28.4522 33.9427Z" fill="#FEFEFE"/>
<path d="M68.8606 45.7428C74.0272 45.7428 78.2156 41.5173 78.2156 36.3048C78.2156 31.0924 74.0272 26.8668 68.8606 26.8668C63.6941 26.8668 59.5057 31.0924 59.5057 36.3048C59.5057 41.5173 63.6941 45.7428 68.8606 45.7428Z" fill="#FAB84A"/>
<path d="M68.9925 43.3787C72.8674 43.3787 76.0087 40.2096 76.0087 36.3002C76.0087 32.3909 72.8674 29.2217 68.9925 29.2217C65.1175 29.2217 61.9763 32.3909 61.9763 36.3002C61.9763 40.2096 65.1175 43.3787 68.9925 43.3787Z" fill="#201E1E"/>
<path d="M65.0933 33.9427C66.3132 33.9427 67.3021 32.945 67.3021 31.7143C67.3021 30.4836 66.3132 29.4859 65.0933 29.4859C63.8734 29.4859 62.8845 30.4836 62.8845 31.7143C62.8845 32.945 63.8734 33.9427 65.0933 33.9427Z" fill="#FEFEFE"/>
<path d="M34.8211 61.473C34.8211 61.473 31.313 62.7838 27.1553 60.5554C27.1553 60.5554 24.037 59.2445 22.218 64.75C22.088 64.75 20.0092 62.9149 20.7887 58.458C20.7887 58.458 21.3085 57.2783 18.9697 57.5405C18.9697 57.5405 13.3827 59.3756 12.6032 60.4243C12.6032 60.4243 14.682 57.2783 14.5521 55.181C14.5521 55.181 14.5521 54.3945 12.4732 54.5255C12.4732 54.5255 8.05563 54.5255 6.23662 53.2147C6.49648 53.2147 8.83521 51.1174 9.09507 49.2822C9.09507 49.2822 9.61479 46.5295 7.14613 46.6605C7.14613 46.6605 4.15775 46.6605 2.33873 48.4957C2.33873 48.4957 1.68909 44.8254 5.7169 41.8105C5.7169 41.8105 6.62641 41.2861 5.58697 40.7618C5.58697 40.7618 1.03944 39.3199 0 33.9455C0 33.9455 1.81901 36.305 3.63803 35.3874C3.63803 35.3874 4.02782 35.2563 4.15775 34.732C4.15775 34.732 4.02782 31.586 0 30.2751C0 30.2751 1.2993 28.8332 4.28768 28.5711C4.28768 28.5711 6.36655 27.9156 5.32711 26.4737C5.32711 26.4737 3.89789 24.9007 2.98838 24.3764C2.98838 24.3764 6.23662 24.5075 7.27606 23.8521C7.14613 23.8521 2.72852 23.3277 3.5081 15.7249C3.5081 15.7249 6.75634 20.4439 8.18556 17.1668C8.05563 16.9046 8.70528 14.9384 5.84683 13.3654C5.84683 13.3654 7.66585 10.4816 13.1229 10.3505C13.1229 10.3505 15.7215 9.69506 13.5127 7.46665C13.5127 7.46665 17.1507 6.81123 18.7099 8.38423C18.7099 8.25315 18.0602 5.10715 19.7493 0.781399C19.7493 0.781399 19.2296 8.64639 20.3989 11.6613C20.269 11.5302 18.45 9.03965 16.1113 8.12206C16.1113 8.12206 17.2806 12.1856 13.1229 12.3167C13.1229 12.3167 9.74472 11.6613 8.18556 12.9721C8.18556 12.9721 10.6542 17.5601 8.70528 19.5263C8.70528 19.5263 6.88627 21.0993 4.67746 18.8709C4.67746 18.8709 4.41761 22.5412 9.225 23.5899C9.225 23.5899 8.44542 25.5561 5.97676 25.5561C5.97676 25.5561 8.05563 27.5224 6.49648 29.0954C6.49648 29.0954 4.93732 30.4062 2.98838 30.4062C2.98838 30.4062 6.36655 32.3725 5.97676 35.5185C5.97676 35.5185 4.93732 38.0091 2.07887 37.0915C2.07887 37.0915 3.89789 38.6645 6.88627 39.7131C6.88627 39.7131 8.70528 40.8929 7.9257 42.2037C7.9257 42.2037 5.06725 43.2524 4.28768 46.1362C4.28768 46.1362 8.44542 44.0389 10.3944 45.6119C10.3944 45.6119 11.6937 49.4133 8.57535 52.5593C8.57535 52.5593 14.682 53.608 17.1507 53.2147C17.1507 53.2147 16.3711 56.6229 15.7215 57.5405C16.1113 57.4094 20.6588 55.4431 23.5173 56.0985C23.5173 56.0985 21.4384 60.1621 21.6982 61.604C21.6982 61.604 25.3363 57.8026 28.3246 58.327C28.4546 58.1959 27.4151 60.5554 34.8211 61.473Z" fill="#163C3F"/>
<path d="M65.6152 62.1285C65.6152 62.1285 68.2138 64.3569 73.8008 63.046C73.8008 63.046 74.5804 62.7839 75.1001 62.3906C75.1001 62.3906 76.1395 61.473 76.1395 63.3082C76.1395 63.3082 79.9075 62.5217 80.4272 58.4581C80.4272 58.4581 80.687 56.8851 82.3761 58.0649C82.3761 58.0649 83.2856 58.8514 83.8054 60.9487C83.8054 60.9487 85.8842 57.5405 84.8448 54.2635C84.8448 54.2635 84.8448 53.608 85.4944 53.7391C85.4944 53.7391 90.3018 55.181 92.5106 53.2148C92.5106 53.2148 89.912 51.7729 90.5617 48.3647C90.5617 48.3647 91.0814 47.316 93.0304 47.9715C93.0304 47.9715 95.1092 48.758 95.3691 49.8066C95.3691 49.8066 96.1487 45.8741 93.1603 42.9903C93.1603 42.9903 92.3807 42.0727 93.68 41.4173C93.68 41.4173 98.0976 39.5821 98.7473 36.174C98.7473 36.174 96.0187 37.3537 94.9793 34.4699C94.9793 34.4699 96.4085 30.7995 100.826 31.9793C100.826 31.9793 99.5268 28.7022 93.4202 27.5225C93.4202 27.5225 92.2508 27.1292 93.4202 25.4251L95.3691 22.9345C95.3691 22.9345 92.6406 24.3765 91.3413 23.721C91.3413 23.721 90.9515 23.59 91.6011 23.3278C91.6011 23.3278 96.0187 21.3615 95.499 15.4628C95.499 15.4628 91.6011 18.3466 89.7821 15.5939C89.7821 15.5939 89.1325 13.8898 92.7705 12.3168C92.7705 12.3168 91.0814 8.64647 81.8564 9.69514C81.8564 9.69514 83.4156 4.58289 80.4272 0.781474C80.4272 0.781474 82.8959 8.90864 79.7775 11.7925C79.7775 11.7925 85.6244 9.30189 91.3413 12.0546C91.3413 12.0546 87.8332 12.0546 89.0025 16.5115C89.0025 16.5115 90.3018 18.6088 94.4596 17.6912C94.4596 17.6912 92.2508 22.148 89.6522 23.721C89.6522 23.721 91.6011 24.9008 92.9004 24.7697C92.7705 25.0319 91.2113 27.5225 90.6916 27.7846C90.6916 27.7846 94.7194 28.309 97.448 30.5374C97.448 30.5374 94.8494 31.1928 93.68 34.732C93.68 34.732 95.1092 37.3537 96.5385 37.747C96.5385 37.6159 93.5501 40.6308 91.0814 41.4173C91.2113 41.6795 93.9399 46.1363 94.4596 47.8404C94.4596 47.8404 92.2508 45.8741 89.5223 47.4471C89.5223 47.4471 88.4828 50.5931 89.7821 52.9526C89.7821 52.9526 86.274 53.3459 83.6754 52.2972C83.6754 52.2972 83.9353 57.0162 83.5455 58.196C83.5455 58.196 81.3367 56.2297 79.2578 56.4919C79.2578 56.4919 78.868 60.6865 77.3089 61.2109C77.3089 61.2109 76.3994 60.0311 75.23 59.6379C75.8797 59.6379 71.8518 63.7015 65.6152 62.1285Z" fill="#163C3F"/>
<path d="M135.223 16.9143C133.074 16.8964 130.766 17.1471 128.741 17.9354C128.741 17.9354 118.353 21.9844 117.412 33.4145C117.412 33.4145 116.133 42.8738 120.377 49.0189C120.377 49.0189 123.645 54.5549 130.606 56.1494C130.606 56.1494 144.901 60.2877 152.395 47.2273C152.395 47.2273 153.034 46.0626 152.235 45.1131L147.831 42.4079C147.831 42.4079 146.606 41.8707 145.665 43.2502C145.665 43.2502 143.658 47.0303 140.248 48.1948C140.248 48.1948 135.471 49.9505 131.529 48.1948C131.529 48.1948 126.237 46.439 125.473 37.8216H152.146C152.146 37.8216 153.46 37.9292 153.673 36.3705C153.673 36.3705 154.579 22.0559 142.912 17.9532C142.859 17.9353 139.325 16.9322 135.223 16.9143ZM135.826 24.1341C138.952 24.0983 140.959 25.1912 140.959 25.1912C145.416 27.3231 145.309 32.2321 145.309 32.2321H125.935C127.445 26.535 130.57 25.2451 130.57 25.2451C132.506 24.4389 134.299 24.152 135.826 24.1341Z" fill="#0C5257"/>
<path d="M186.861 0C186.861 0 185.831 0.0538167 185.6 1.4154V24.0964C185.6 24.0964 183.772 19.4384 179.225 17.8081C179.225 17.8081 173.348 15.7835 168.127 17.8438C168.127 17.8438 161.645 19.6712 158.644 30.116C158.644 30.116 157.028 35.3474 158.449 43.069C158.449 43.069 159.674 50.8622 167.097 55.2873C167.097 55.2873 172.388 58.5121 180.131 55.2873C180.131 55.2873 183.505 53.9616 185.636 50.4501V53.6927C185.636 53.6927 185.564 54.9289 186.825 55.126H192.348C192.348 55.126 193.609 54.9291 193.573 53.5675V1.46893C193.573 1.46893 193.574 0.32248 192.189 0H186.861ZM175.958 24.3113C181.569 24.3113 186.115 29.9906 186.115 37.0134C186.115 44.0363 181.569 49.7156 175.958 49.7156C170.346 49.7156 165.8 44.0363 165.8 37.0134C165.8 29.9906 170.346 24.3113 175.958 24.3113Z" fill="#0C5257"/>
<path d="M201.035 18.1477H206.132C206.132 18.1477 207.429 17.9866 207.588 19.6527L207.642 41.2588C207.642 41.2588 207.748 47.404 212.898 48.7476C212.898 48.7476 216.804 49.733 220.214 48.7476C220.214 48.7476 225.488 47.5653 225.524 41.2053V19.6888C225.524 19.6888 225.364 18.2015 226.856 18.1477H232.023C232.023 18.1477 233.55 18.0045 233.621 19.4736V38.7688C233.621 38.7688 233.657 50.4316 226.732 54.3193C226.732 54.3193 217.568 59.676 206.292 54.3193C206.292 54.3193 200.645 52.0082 199.704 40.5243V19.5096C199.686 19.5096 199.704 18.2015 201.035 18.1477Z" fill="#0C5257"/>
<path d="M266.722 25.389V19.8712C266.722 19.8712 266.81 19.0829 265.585 18.5275C265.585 18.5275 257.096 14.4249 247.56 19.1546C247.56 19.1546 240.795 22.1463 238.7 30.4771C238.7 30.4771 236.959 37.7688 238.7 43.0718C238.7 43.0718 240.653 51.8504 248.537 55.0035C248.537 55.0035 255.623 58.8196 265.727 54.7169C265.727 54.7169 266.757 54.448 266.739 53.2476V47.873C266.739 47.873 266.384 46.2069 264.822 46.6011C264.822 46.6011 264.342 46.7444 263.792 47.1385C263.792 47.1385 261.944 48.5002 259.725 48.8048C259.725 48.8048 255.108 49.6647 251.858 47.7299C251.858 47.7299 247.259 45.9921 246.265 38.3242C246.265 38.3242 245.909 35.135 246.265 33.8093C246.265 33.8093 247.295 26.3566 253.989 24.798C253.989 24.798 257.381 23.8841 261.536 24.9232C261.536 24.9232 263.632 25.7831 264.324 26.3743C264.306 26.3743 265.976 27.4313 266.722 25.389Z" fill="#0C5257"/>
<path d="M284.729 17.019C283.042 17.019 281.177 17.2338 279.384 17.9505C279.384 17.9505 272.92 19.7778 269.919 30.2226C269.919 30.2226 268.303 35.4541 269.723 43.1757C269.723 43.1757 270.948 50.9688 278.371 55.394C278.371 55.394 283.663 58.6187 291.388 55.394C291.388 55.394 294.762 54.0682 296.893 50.5568V53.7994C296.893 53.7994 296.822 55.0356 298.082 55.2326H303.605C303.605 55.2326 304.866 55.0357 304.83 53.6741V19.5989C304.83 19.5989 304.831 18.4521 303.446 18.1296H298.082C298.082 18.1296 297.053 18.1834 296.822 19.545V24.2031C296.822 24.2031 294.993 19.5451 290.464 17.9148C290.482 17.9148 287.943 17.0369 284.729 17.019ZM287.179 24.4179C292.791 24.4179 297.337 30.0972 297.337 37.1201C297.337 44.1251 292.791 49.8223 287.179 49.8223C281.568 49.8223 277.022 44.143 277.022 37.1201C277.022 30.1151 281.568 24.4179 287.179 24.4179Z" fill="#0C5257"/>
<path d="M338.8 25.3678V19.8497C338.8 19.8497 338.889 19.0614 337.663 18.5061C337.663 18.5061 329.175 14.4034 319.639 19.1331C319.639 19.1331 312.873 22.1252 310.778 30.4559C310.778 30.4559 309.037 37.7473 310.778 43.0503C310.778 43.0503 312.731 51.8292 320.616 54.9824C320.616 54.9824 327.701 58.7981 337.806 54.6954C337.806 54.6954 338.836 54.4269 338.818 53.2265V47.8519C338.818 47.8519 338.462 46.1858 336.9 46.5799C336.9 46.5799 336.42 46.7232 335.87 47.1174C335.87 47.1174 334.023 48.4788 331.803 48.7833C331.803 48.7833 327.186 49.6433 323.937 47.7084C323.937 47.7084 319.337 45.9706 318.343 38.3027C318.343 38.3027 317.988 35.1138 318.343 33.806C318.343 33.806 319.373 26.3533 326.067 24.7947C326.067 24.7947 329.459 23.8809 333.615 24.92C333.615 24.92 335.71 25.7798 336.402 26.371C336.367 26.3531 338.054 27.3923 338.8 25.3678Z" fill="#DF2B3C"/>
<path fill-rule="evenodd" clip-rule="evenodd" d="M386.478 16.8395C375.735 16.8395 367.033 25.8331 367.033 36.9049C367.033 47.9767 375.735 56.9703 386.478 56.9703C397.222 56.9703 405.923 47.9767 405.923 36.9049C405.923 25.8331 397.222 16.8395 386.478 16.8395ZM386.478 24.364C392.569 24.364 397.506 29.9894 397.506 36.9228C397.506 43.8561 392.569 49.4815 386.478 49.4815C380.387 49.4815 375.451 43.8561 375.451 36.9228C375.451 29.9894 380.387 24.364 386.478 24.364Z" fill="#DF2B3C"/>
<path d="M344.271 21.1385V54.9272C344.271 54.9272 344.164 56.5932 345.939 56.6648H351.072C351.072 56.6648 352.332 56.6651 352.474 55.1781V38.0509C352.474 38.0509 352.35 28.8601 356.612 26.334C356.612 26.334 359.134 24.9364 363.201 26.2084C363.201 26.2084 364.55 26.7997 365.332 25.9218L367.232 21.3894C367.232 21.3894 367.657 19.6694 366.45 19.3648C366.45 19.3648 360.608 16.5698 355.955 20.2067C355.955 20.2067 353.629 21.8729 352.563 25.3844V21.0846C352.563 21.0846 352.617 19.5797 351.143 19.5618H345.691C345.673 19.5797 344.555 19.5799 344.271 21.1385Z" fill="#DF2B3C"/>
<path d="M426.913 25.6716C426.913 25.6716 427.641 26.6571 429.115 25.9047L432.347 23.4322C432.347 23.4322 433.217 22.6442 432.543 21.5693C432.543 21.5693 430.056 17.4128 424.214 16.9291C424.214 16.9291 420.023 16.5708 417.661 17.2874C417.661 17.2874 410.114 18.6849 408.747 25.6898C408.747 25.6898 408.267 27.7143 408.871 30.4375C408.871 30.4375 409.617 34.8266 415.548 37.4781C415.548 37.4781 423.148 40.9716 423.539 41.1507C423.539 41.1507 427.836 42.8886 427.002 46.4358C427.002 46.4358 426.718 49.4817 423.308 50.1446C423.308 50.1446 417.11 51.7209 414.216 46.7046C414.216 46.7046 413.488 45.11 412.068 45.4683L407.93 47.8155C407.93 47.8155 406.74 48.5679 407.504 49.9115C407.504 49.9115 409.209 53.19 412.512 54.9457C412.512 54.9457 417.519 58.2959 426.363 56.0207C426.363 56.0207 432.489 53.9962 434.016 49.9294C434.016 49.9294 435.721 46.5792 434.655 41.7599C434.655 41.7599 433.625 37.6216 428.742 35.1851C428.742 35.1851 421.994 32.1573 421.089 31.8886C421.089 31.8886 416.596 29.9716 416.667 27.5888C416.667 27.5888 415.921 24.9551 419.029 23.6831C419.029 23.6831 421.444 22.4828 424.552 23.6831C424.534 23.6831 426.043 24.3101 426.913 25.6716Z" fill="#DF2B3C"/>
<path d="M456.889 26.0466C456.889 26.0466 457.618 27.0318 459.092 26.2793L462.324 23.8072C462.324 23.8072 463.193 23.0188 462.519 21.9439C462.519 21.9439 460.033 17.7874 454.19 17.3037C454.19 17.3037 450 16.9454 447.638 17.662C447.638 17.662 440.09 19.0595 438.723 26.0645C438.723 26.0645 438.244 28.0889 438.848 30.8121C438.848 30.8121 439.593 35.2012 445.524 37.8527C445.524 37.8527 453.125 41.3462 453.515 41.5254C453.515 41.5254 457.813 43.2635 456.978 46.8287C456.978 46.8287 456.694 49.8742 453.303 50.537C453.303 50.537 447.105 52.1138 444.211 47.0974C444.211 47.0974 443.482 45.5028 442.062 45.8612L437.924 48.208C437.924 48.208 436.734 48.9603 437.498 50.304C437.498 50.304 439.203 53.5828 442.506 55.3386C442.506 55.3386 447.513 58.6888 456.357 56.4135C456.357 56.4135 462.483 54.389 464.011 50.3222C464.011 50.3222 465.715 46.9717 464.65 42.1524C464.65 42.1524 463.62 38.0141 458.737 35.5776C458.737 35.5776 451.988 32.5498 451.083 32.281C451.083 32.281 446.59 30.3641 446.661 27.9813C446.661 27.9813 445.915 25.3479 449.023 24.0759C449.023 24.0759 451.438 22.8756 454.546 24.0759C454.528 24.058 456.037 24.6851 456.889 26.0466Z" fill="#DF2B3C"/>
</svg>
