<svg width="158" height="98" viewBox="0 0 158 98" fill="none" xmlns="http://www.w3.org/2000/svg">
<path d="M15.5318 13.9861C13.7395 13.9726 11.8177 14.1792 10.1211 14.8356C10.1211 14.8356 1.46019 18.189 0.668613 27.6438C0.668613 27.6438 -0.402357 35.4685 3.1365 40.5452C3.1365 40.5452 5.86832 45.1225 11.6632 46.4398C11.6632 46.4398 23.5823 49.8646 29.8381 39.0623C29.8381 39.0623 30.3754 38.0991 29.7003 37.3073L26.0217 35.0717C26.0217 35.0717 24.9992 34.6292 24.2076 35.7703C24.2076 35.7703 22.5281 38.8971 19.6965 39.8522C19.6965 39.8522 15.7121 41.3013 12.4195 39.8522C12.4195 39.8522 8.0084 38.4032 7.36637 31.273H29.6072C29.6072 31.273 30.7109 31.3558 30.8756 30.0713C30.8756 30.0713 31.6336 18.2356 21.9018 14.8356C21.9018 14.8356 18.9534 14.0118 15.5318 13.9861ZM16.0366 19.9663C18.6371 19.9381 20.3186 20.8438 20.3186 20.8438C24.0437 22.6137 23.9506 26.6657 23.9506 26.6657H7.7929C9.05014 21.9616 11.6577 20.8904 11.6577 20.8904C13.2772 20.218 14.7665 19.9801 16.0366 19.9663Z" fill="#0C5257"/>
<path d="M58.6167 0.000183105C58.6167 0.000183105 57.7562 0.0467585 57.5699 1.16457V19.927C57.5699 19.927 56.0462 16.0739 52.2598 14.7236C52.2598 14.7236 47.3546 13.0446 43.0084 14.7571C43.0084 14.7571 37.608 16.2726 35.1056 24.9013C35.1056 24.9013 33.7552 29.2219 34.9417 35.6173C34.9417 35.6173 35.9616 42.0592 42.1516 45.7149C42.1516 45.7149 46.5644 48.3825 53.0178 45.7149C53.0178 45.7149 55.8277 44.6197 57.6164 41.7094V44.3978C57.6164 44.3978 57.5612 45.418 58.6147 45.5826H63.2246C63.2246 45.5826 64.2783 45.4187 64.2453 44.299V1.21114C64.2453 1.21114 64.2506 0.256349 63.0868 0.000183105H58.6167ZM49.5143 20.1096C54.1948 20.1096 57.9889 24.8109 57.9889 30.6114C57.9889 36.412 54.1948 41.1151 49.5143 41.1151C44.8339 41.1151 41.0397 36.412 41.0397 30.6114C41.0397 24.8109 44.8339 20.1096 49.5143 20.1096Z" fill="#0C5257"/>
<path d="M70.435 15.0203H74.6824C74.6824 15.0203 75.7689 14.8886 75.9007 16.2718L75.939 34.1403C75.939 34.1403 76.0322 39.217 80.3161 40.3348C80.3161 40.3348 83.5755 41.1499 86.416 40.3348C86.416 40.3348 90.8162 39.3567 90.8395 34.0937V16.3019C90.8395 16.3019 90.6998 15.0676 91.957 15.0211H96.2642C96.2642 15.0211 97.5447 14.9046 97.5913 16.1156V32.0677C97.5913 32.0677 97.6146 41.7088 91.8406 44.9225C91.8406 44.9225 84.2041 49.3472 74.7983 44.9225C74.7983 44.9225 70.0953 43.0129 69.3037 33.5115V16.1389C69.3037 16.1389 69.3155 15.0533 70.435 15.0203Z" fill="#0C5257"/>
<path d="M125.227 21.0059V16.4415C125.227 16.4415 125.297 15.7895 124.273 15.3237C124.273 15.3237 117.195 11.9237 109.232 15.836C109.232 15.836 103.591 18.3136 101.846 25.1968C101.846 25.1968 100.397 31.2292 101.846 35.6073C101.846 35.6073 103.482 42.873 110.047 45.4813C110.047 45.4813 115.958 48.639 124.389 45.2484C124.389 45.2484 125.248 45.0327 125.227 44.0374V39.5888C125.227 39.5888 124.927 38.2056 123.627 38.535C123.627 38.535 123.231 38.6502 122.771 38.9795C122.771 38.9795 121.223 40.0993 119.379 40.3628C119.379 40.3628 115.527 41.0709 112.81 39.4736C112.81 39.4736 108.976 38.0292 108.138 31.695C108.138 31.695 107.836 29.0634 108.138 27.9689C108.138 27.9689 108.991 21.8046 114.588 20.5202C114.588 20.5202 117.42 19.7627 120.877 20.619C120.877 20.619 122.62 21.3319 123.202 21.821C123.202 21.821 124.598 22.6826 125.227 21.0059Z" fill="#0C5257"/>
<path d="M140.247 14.0807C138.842 14.0737 137.282 14.2615 135.788 14.8501C135.788 14.8501 130.389 16.3656 127.887 24.9942C127.887 24.9942 126.535 29.3149 127.721 35.7103C127.721 35.7103 128.743 42.1522 134.933 45.8079C134.933 45.8079 139.344 48.4755 145.797 45.8079C145.797 45.8079 148.607 44.7126 150.396 41.8024V44.4907C150.396 44.4907 150.341 45.5128 151.394 45.6775H156.004C156.004 45.6775 157.058 45.5117 157.025 44.392V16.2101C157.025 16.2101 157.032 15.2553 155.868 14.9992H151.398C151.398 14.9992 150.535 15.0457 150.349 16.1635V20.0219C150.349 20.0219 148.827 16.1687 145.041 14.8184C145.041 14.8184 142.928 14.094 140.247 14.0807ZM142.294 20.2026C146.974 20.2026 150.768 24.9057 150.768 30.7063C150.768 36.5068 146.974 41.2081 142.294 41.2081C137.613 41.2081 133.819 36.5068 133.819 30.7063C133.819 24.9057 137.613 20.2026 142.294 20.2026Z" fill="#0C5257"/>
<path d="M29.1138 65.2131V59.682C29.1138 59.682 29.1984 58.8918 27.9571 58.3274C27.9571 58.3274 19.3802 54.2072 9.73125 58.9482C9.73125 58.9482 2.89529 61.9506 0.780586 70.2916C0.780586 70.2916 -0.975733 77.6018 0.780586 82.9072C0.780586 82.9072 2.76266 91.7119 10.7188 94.8726C10.7188 94.8726 17.8809 98.6992 28.0982 94.5904C28.0982 94.5904 29.1385 94.329 29.1138 93.1229V87.7321C29.1138 87.7321 28.7503 86.0559 27.1742 86.455C27.1742 86.455 26.6954 86.5947 26.1368 86.9937C26.1368 86.9937 24.2615 88.3506 22.0272 88.6699C22.0272 88.6699 17.3589 89.528 14.0671 87.5924C14.0671 87.5924 9.42094 85.8421 8.4053 78.1662C8.4053 78.1662 8.03853 74.9773 8.4053 73.651C8.4053 73.651 9.43882 66.181 16.2218 64.6245C16.2218 64.6245 19.6531 63.7066 23.8425 64.7442C23.8425 64.7442 25.9539 65.6082 26.6592 66.2008C26.6592 66.2008 28.352 67.245 29.1138 65.2131Z" fill="#DF2B3C"/>
<path fill-rule="evenodd" clip-rule="evenodd" d="M77.3037 56.6725C66.4469 56.6725 57.6447 65.6791 57.6447 76.7879C57.6447 87.8968 66.4469 96.9011 77.3037 96.9011C88.1605 96.9011 96.9627 87.8968 96.9627 76.7879C96.9627 65.6791 88.1605 56.6725 77.3037 56.6725ZM77.3037 64.2085C83.4548 64.2085 88.4422 69.8405 88.4422 76.7879C88.4422 83.7353 83.4548 89.3674 77.3037 89.3674C71.1526 89.3674 66.1651 83.7353 66.1651 76.7879C66.1651 69.8405 71.1526 64.2085 77.3037 64.2085Z" fill="#DF2B3C"/>
<path d="M34.6184 59.4412V94.6321C34.6184 94.6321 34.5018 96.3623 36.3676 96.4503H41.732C41.732 96.4503 43.0439 96.4503 43.1897 94.896V77.0682C43.1897 77.0682 43.0518 67.488 47.5047 64.8752C47.5047 64.8752 50.1435 63.4236 54.3902 64.7507C54.3902 64.7507 55.792 65.3729 56.6167 64.4605L58.5957 59.7325C58.5957 59.7325 59.0492 57.9492 57.7711 57.6174C57.7711 57.6174 51.669 54.7143 46.8038 58.4883C46.8038 58.4883 44.3712 60.2302 43.258 63.8798V59.4108C43.258 59.4108 43.3072 57.837 41.7737 57.8248H36.0839C36.0839 57.8248 34.9257 57.8228 34.6184 59.4412Z" fill="#DF2B3C"/>
<path d="M118.175 65.518C118.175 65.518 118.909 66.5057 120.404 65.7438L123.677 63.2604C123.677 63.2604 124.552 62.4702 123.875 61.3978C123.875 61.3978 121.36 57.224 115.454 56.7451C115.454 56.7451 111.225 56.3859 108.831 57.1043C108.831 57.1043 101.21 58.5011 99.8139 65.5252C99.8139 65.5252 99.335 67.5606 99.9336 70.2744C99.9336 70.2744 100.692 74.6645 106.677 77.3384C106.677 77.3384 114.367 80.8416 114.762 81.0109C114.762 81.0109 119.107 82.7606 118.26 86.3163C118.26 86.3163 117.978 89.3641 114.536 90.0414C114.536 90.0414 108.273 91.6217 105.339 86.5985C105.339 86.5985 104.602 85.001 103.165 85.3602L98.976 87.7148C98.976 87.7148 97.779 88.4731 98.5371 89.8101C98.5371 89.8101 100.253 93.1026 103.604 94.8586C103.604 94.8586 108.672 98.211 117.609 95.9362C117.609 95.9362 123.793 93.9008 125.35 89.83C125.35 89.83 127.065 86.4776 125.988 81.6486C125.988 81.6486 124.951 77.498 120.003 75.0636C120.003 75.0636 113.18 72.0304 112.263 71.7511C112.263 71.7511 107.714 69.8354 107.794 67.4408C107.794 67.4408 107.036 64.8068 110.188 63.5297C110.188 63.5297 112.622 62.3325 115.774 63.5297C115.774 63.5297 117.306 64.1539 118.175 65.518Z" fill="#DF2B3C"/>
<path d="M148.487 65.8858C148.487 65.8858 149.221 66.8735 150.716 66.1116L153.989 63.6282C153.989 63.6282 154.864 62.838 154.187 61.7657C154.187 61.7657 151.672 57.5918 145.766 57.1129C145.766 57.1129 141.537 56.7537 139.143 57.4721C139.143 57.4721 131.522 58.869 130.126 65.893C130.126 65.893 129.647 67.9284 130.245 70.6422C130.245 70.6422 131.004 75.0323 136.989 77.7062C136.989 77.7062 144.679 81.2094 145.074 81.3787C145.074 81.3787 149.419 83.1284 148.572 86.6841C148.572 86.6841 148.29 89.7319 144.848 90.4092C144.848 90.4092 138.585 91.9895 135.65 86.9663C135.65 86.9663 134.914 85.3688 133.477 85.728L129.288 88.0827C129.288 88.0827 128.091 88.8409 128.849 90.1779C128.849 90.1779 130.565 93.4704 133.916 95.2264C133.916 95.2264 138.983 98.5788 147.921 96.304C147.921 96.304 154.105 94.2686 155.662 90.1979C155.662 90.1979 157.377 86.8455 156.3 82.0164C156.3 82.0164 155.263 77.8658 150.315 75.4314C150.315 75.4314 143.492 72.3983 142.574 72.1189C142.574 72.1189 138.026 70.2032 138.106 67.8087C138.106 67.8087 137.348 65.1746 140.5 63.8975C140.5 63.8975 142.934 62.7003 146.086 63.8975C146.086 63.8975 147.618 64.5217 148.487 65.8858Z" fill="#DF2B3C"/>
</svg>
