<svg width="541" height="218" viewBox="0 0 541 218" fill="none" xmlns="http://www.w3.org/2000/svg">
<path d="M5.46259 183.608V151.243L69.5447 58.4647H121.76L60.0511 151.243L36.3169 144.123H153.261V183.608H5.46259ZM83.7852 209.5V183.608L85.2955 144.123V121.036H133.195V209.5H83.7852ZM228.761 212.952C215.383 212.952 203.516 209.86 193.159 203.674C182.946 197.489 174.891 188.499 168.994 176.704C163.24 164.909 160.363 150.668 160.363 133.982C160.363 117.297 163.24 103.056 168.994 91.2609C174.891 79.4658 182.946 70.4756 193.159 64.2903C203.516 58.1051 215.383 55.0124 228.761 55.0124C242.138 55.0124 253.933 58.1051 264.146 64.2903C274.503 70.4756 282.558 79.4658 288.312 91.2609C294.209 103.056 297.158 117.297 297.158 133.982C297.158 150.668 294.209 164.909 288.312 176.704C282.558 188.499 274.503 197.489 264.146 203.674C253.933 209.86 242.138 212.952 228.761 212.952ZM228.761 172.173C232.069 172.173 235.018 171.022 237.607 168.72C240.196 166.419 242.21 162.463 243.648 156.853C245.231 151.243 246.022 143.62 246.022 133.982C246.022 124.201 245.231 116.577 243.648 111.111C242.21 105.501 240.196 101.546 237.607 99.2442C235.018 96.9427 232.069 95.792 228.761 95.792C225.452 95.792 222.503 96.9427 219.914 99.2442C217.325 101.546 215.239 105.501 213.657 111.111C212.219 116.577 211.499 124.201 211.499 133.982C211.499 143.62 212.219 151.243 213.657 156.853C215.239 162.463 217.325 166.419 219.914 168.72C222.503 171.022 225.452 172.173 228.761 172.173ZM308.46 183.608V151.243L372.542 58.4647H424.757L363.049 151.243L339.315 144.123H456.259V183.608H308.46ZM386.783 209.5V183.608L388.293 144.123V121.036H436.193V209.5H386.783Z" fill="#7367F0"/>
<g clip-path="url(#clip0_5801_441)">
<path fill-rule="evenodd" clip-rule="evenodd" d="M488.913 69.1788C488.913 69.1788 491.966 47.6492 495.362 39.4171C495.362 39.4171 495.819 38.5535 496.284 39.1088C496.284 39.1088 496.746 39.5484 496.544 40.4788C496.544 40.4788 491.54 57.0968 490.768 68.9549C490.768 68.9549 490.785 70.01 490.032 70.0944C490.032 70.0944 488.9 70.2339 488.913 69.1788Z" fill="#666666"/>
<path d="M487.483 75.6536L487.531 69.6981C487.537 68.923 488.173 68.2974 488.948 68.3038L491.134 68.3216C491.909 68.3279 492.535 68.9637 492.528 69.7388L492.48 75.6943C492.474 76.4695 491.838 77.095 491.063 77.0887L488.877 77.0709C488.102 77.0646 487.476 76.4288 487.483 75.6536Z" fill="#505050"/>
<path fill-rule="evenodd" clip-rule="evenodd" d="M491.37 85.897C491.37 85.897 496.295 84.3673 498.945 85.2176C498.945 85.2176 500.376 85.3687 501.016 87.4037C501.016 87.4037 501.955 92.2476 502.257 96.4008C502.257 96.4008 502.059 100.305 505.352 108.986C505.352 108.986 507.247 112.059 506.164 114.71C506.164 114.71 504.962 117.95 499.69 117.743C499.69 117.743 492.973 117.226 488.701 100.907C486.112 87.497 491.37 85.897 491.37 85.897Z" fill="#505050"/>
<path fill-rule="evenodd" clip-rule="evenodd" d="M497.868 84.9886C497.334 87.3398 497.068 91.2362 498.752 97.7603C498.752 97.7603 500.657 107.18 505.744 115.384C506.036 114.981 506.147 114.691 506.147 114.691C507.23 112.039 505.335 108.967 505.335 108.967C503.346 104.428 502.24 96.381 502.24 96.381C502.434 92.3005 500.999 87.3839 500.999 87.3839C500.359 85.3489 498.928 85.1978 498.928 85.1978C498.604 85.093 498.247 85.0294 497.868 84.9886Z" fill="#666666"/>
<path fill-rule="evenodd" clip-rule="evenodd" d="M494.316 136.55C494.316 136.55 501.736 134.466 504.808 129.256C504.808 129.256 506.272 127.031 506.033 125.374C506.033 125.374 505.925 123.989 504.232 119.864C504.232 119.864 493.827 95.2234 494.92 78.6894C494.92 78.6894 495.056 75.3291 492.642 72.5876C492.642 72.5876 489.092 69.9871 483.09 73.4909C483.09 73.4909 477.067 78.3422 477.452 85.1582C477.452 85.1582 481.821 113.4 489.732 130.387C489.732 130.387 491.533 135.181 494.314 136.546L494.316 136.55Z" fill="#505050"/>
<path fill-rule="evenodd" clip-rule="evenodd" d="M494.853 134.604C494.853 134.604 500.998 132.469 503.688 127.077C503.688 127.077 504.822 125.276 503.352 121.59C503.352 121.59 492.769 97.5263 493.356 81.2683C493.356 81.2683 493.544 77.1543 491.529 74.4368C491.529 74.4368 489.386 72.1579 485.985 74.239C485.985 74.239 483.494 75.6251 483.177 80.9344C483.177 80.9344 482.583 91.3063 487.565 105.967C487.565 105.967 491.717 118.144 492.594 122.424C492.594 122.424 493.117 124.458 492.764 126.469C492.764 126.469 493.052 130.871 494.853 134.604Z" fill="#666666"/>
<path fill-rule="evenodd" clip-rule="evenodd" d="M483.57 144.406C483.57 144.406 490.474 142.886 493.047 140.924C493.047 140.924 495.766 139.69 494.629 136.501C494.629 136.501 482.184 107.015 482.683 85.3943C482.683 85.3943 470.579 85.0239 463.497 96.8538C463.498 97.7978 459.698 131.248 483.57 144.406Z" fill="#505050"/>
<path fill-rule="evenodd" clip-rule="evenodd" d="M481.699 92.0637C481.699 92.0637 477.01 101.241 484.721 120.969C484.721 120.969 488.979 130.364 490.052 133.909C490.052 133.909 490.773 136.399 490.49 138.393L493.231 136.751C493.231 136.751 484.182 114.631 481.698 92.0591L481.699 92.0637Z" fill="#666666"/>
<path fill-rule="evenodd" clip-rule="evenodd" d="M454.998 153.815C454.998 153.815 454.714 154.636 455.433 155.787C455.433 155.787 455.869 156.758 457.258 157.238C457.258 157.238 458.515 157.99 461.391 157.42C461.391 157.42 474.127 154.503 480.775 149.879C480.775 149.879 486.221 145.851 486.735 142.135C486.735 142.135 486.724 139.824 485.691 139.982C485.691 139.982 460.762 148.873 455.001 153.809L454.998 153.815Z" fill="#596673"/>
<path fill-rule="evenodd" clip-rule="evenodd" d="M485.03 143.624C466.194 159.079 456.258 155.506 456.258 155.506C456.258 155.506 456.644 156.433 458.3 157.453C458.946 157.608 460.056 157.724 461.727 157.394C461.727 157.394 474.463 154.477 481.111 149.853C481.111 149.853 481.9 149.356 482.869 148.382C484.932 145.474 485.025 143.626 485.025 143.626L485.03 143.624Z" fill="#8496AA"/>
<path fill-rule="evenodd" clip-rule="evenodd" d="M441.216 117.536C441.216 117.536 438.362 142.67 454.491 152.558C454.491 152.558 453.964 154.476 456.011 154.599C456.011 154.599 468.091 155.475 481.927 144.154C481.927 144.154 485.443 140.623 486.147 139.22C486.147 139.22 488.602 134.719 483.966 131.192C483.966 131.192 471.657 119.29 475.568 100.556C475.568 100.556 473.401 100.65 471.805 98.214C471.805 98.214 465.313 87.8146 453.713 94.3728C442.537 100.789 441.222 117.539 441.222 117.539L441.216 117.536Z" fill="white"/>
<path fill-rule="evenodd" clip-rule="evenodd" d="M440.008 117.417C429.539 121.47 420.177 119.386 420.177 119.386C420.177 119.386 419.04 119.537 419.065 120.554C419.065 120.554 417.651 124.814 419.169 129.825C419.169 129.825 422.272 138.317 426.684 140.857C426.684 140.857 428.243 142.011 429.963 141.325C429.963 141.325 434.952 147.911 439.713 143.142C439.713 143.142 442.639 146.276 445.628 144.723C445.628 144.723 438.609 132.474 440.008 117.417Z" fill="#CCCCCC"/>
<path fill-rule="evenodd" clip-rule="evenodd" d="M418.26 119.24C418.193 119.039 416.101 115.195 413.772 113.739C413.772 113.739 412.334 112.855 411.214 114.092C411.214 114.092 410.235 115.171 411.567 117.152C411.567 117.152 413.5 120.186 413.692 120.426C413.692 120.426 410.472 118.127 408.99 116.033C408.99 116.033 408.054 114.813 406.849 115.719C406.849 115.719 405.606 116.662 406.901 119.382C406.901 119.382 408.207 122.042 410.098 123.191C410.098 123.191 408.954 123.686 409.116 124.748C409.116 124.748 409.32 126.771 411.444 127.793C411.444 127.793 414.772 129.746 418.961 129.854C418.961 129.854 420.85 129.918 420.417 124.961C419.994 122.62 418.256 119.241 418.256 119.241L418.26 119.24Z" fill="#CCCCCC"/>
<path fill-rule="evenodd" clip-rule="evenodd" d="M419.921 131.01C418.453 125.952 419.952 120.7 419.952 120.7C420.222 119.868 420.395 119.43 420.395 119.43C420.249 118.082 419.187 118.29 419.187 118.29C417.947 118.425 417.56 119.453 417.56 119.453C417.56 119.453 415.48 123.21 418.323 129.874C418.323 129.874 418.692 130.979 419.275 131.312C419.275 131.312 419.919 131.402 419.927 131.013L419.921 131.01Z" fill="#596673"/>
<path fill-rule="evenodd" clip-rule="evenodd" d="M456.375 93.4372C455.384 93.7684 454.346 94.2321 453.258 94.8497C442.082 101.266 440.767 118.016 440.767 118.016C440.767 118.016 438.352 142.805 454.476 152.695C454.476 152.695 454.126 154.32 455.548 154.566C455.548 154.566 460.584 156.055 470.003 151.505C466.318 152.326 459.35 155.31 455.518 153.246L455.136 151.754L454.123 151.138C443.818 140.902 445.427 128.434 445.427 128.434C459.808 123.48 468.76 113.055 473.042 108.004C473.074 106.065 473.29 104.023 473.736 101.879C473.736 101.879 471.855 101.918 470.894 99.0415C470.894 99.0415 465.935 90.2059 456.367 93.4296L456.375 93.4372Z" fill="#CCCCCC"/>
<path fill-rule="evenodd" clip-rule="evenodd" d="M450.301 147.542C450.167 147.643 449.382 148.042 449.372 148.604C449.372 148.604 449.066 150.27 450.821 152.272C450.821 152.272 452.268 153.85 453.505 153.634C453.505 153.634 455.227 153.531 455.71 152.227C455.71 152.227 455.742 151.577 455.4 150.965C455.4 150.965 457.072 150.711 458.986 149.847L460.184 150.589C460.184 150.589 460.826 150.933 461.587 150.704C461.587 150.704 464.046 150.131 465.479 148.342C465.479 148.342 465.668 147.665 465.584 147.413C465.584 147.413 470.012 145.822 470.788 144.892L472.594 145.877C472.594 145.877 473.077 146.076 473.515 145.793C473.515 145.793 475.386 144.721 475.513 143.673C475.513 143.673 475.585 143.314 475.378 142.937L474.878 142.185C474.878 142.185 478.428 139.714 479.406 138.554C479.406 138.554 479.99 139.207 480.58 139.03C480.58 139.03 481.626 138.619 482.48 137.349C482.48 137.349 482.865 136.845 482.291 136.25C482.291 136.25 485.038 133.504 485.241 132.517C485.241 132.517 484.724 131.563 483.914 131.22C483.914 131.22 484.247 130.986 483.858 131.599C483.858 131.599 481.536 133.659 480.824 133.867C480.824 133.867 479.833 132.848 479.692 132.834C479.692 132.834 478.644 132.296 477.369 133.433C477.369 133.433 476.575 134.307 476.688 134.645C476.688 134.645 476.951 135.72 477.611 136.464C477.611 136.464 473.075 139.965 472.681 140.122C472.681 140.122 472.188 139.561 471.753 139.595C471.753 139.595 470.919 139.513 470.293 140.057L469.015 141.185C469.015 141.185 468.407 142.084 468.907 142.501C468.907 142.501 464.105 144.887 463.435 144.888C463.435 144.888 461.813 143.557 461.673 143.548C461.673 143.548 460.682 142.772 459.285 143.361C459.285 143.361 455.575 145.018 455.208 145.318C455.208 145.318 454.607 145.813 454.685 146.579C454.685 146.579 454.579 146.853 454.894 147.083L455.55 147.631L453.557 148.276C453.504 148.177 452.893 147.412 452.469 147.376C452.469 147.376 451.376 146.944 450.301 147.527L450.301 147.542Z" fill="#8F8F8F"/>
<path fill-rule="evenodd" clip-rule="evenodd" d="M442.947 117.689C442.947 117.689 439.606 133.101 449.116 148.05C449.116 148.05 437.96 141.905 438.125 119.529C438.125 119.529 439.124 116.839 441.713 116.685C441.713 116.685 442.907 116.098 442.947 117.689Z" fill="#596673"/>
<path d="M458.449 114.759C468.915 109.314 475.135 100.546 472.341 95.1749C469.547 89.8035 458.797 89.863 448.33 95.3078C437.863 100.753 431.644 109.521 434.438 114.892C437.232 120.264 447.982 120.204 458.449 114.759Z" fill="#888888"/>
<path fill-rule="evenodd" clip-rule="evenodd" d="M505.545 87.2705C505.545 87.2705 507.443 82.103 510.398 79.0234C510.398 79.0234 512.843 76.3128 514.959 78.2857C514.959 78.2857 516.629 80.0931 515.827 81.7015C515.827 81.7015 518.447 80.2316 519.927 81.7118C519.927 81.7118 521.396 82.9164 521.077 84.561C521.077 84.561 521.033 85.7181 520.312 86.751C520.312 86.751 522.426 85.7702 522.759 87.7096C522.759 87.7096 523.457 90.04 520.85 92.3686C520.85 92.3686 517.201 95.2432 513.16 96.5941C513.16 96.5941 506.809 95.7575 505.55 87.2689L505.545 87.2705Z" fill="#CCCCCC"/>
<path fill-rule="evenodd" clip-rule="evenodd" d="M450.034 148.094C449.9 148.194 449.115 148.594 449.104 149.156C449.104 149.156 448.798 150.821 450.554 152.824C450.554 152.824 452 154.401 453.238 154.186C453.238 154.186 454.96 154.082 455.443 152.778C455.443 152.778 455.474 152.128 455.133 151.516C455.133 151.516 456.804 151.262 458.719 150.399L459.916 151.141C459.916 151.141 460.559 151.484 461.32 151.255C461.32 151.255 463.778 150.682 465.211 148.894C465.211 148.894 465.401 148.216 465.317 147.965C465.317 147.965 469.744 146.373 470.52 145.444L472.327 146.429C472.327 146.429 472.81 146.628 473.248 146.344C473.248 146.344 475.118 145.272 475.245 144.225C475.245 144.225 475.318 143.865 475.11 143.488L474.61 142.736C474.61 142.736 478.16 140.265 479.138 139.106C479.138 139.106 479.722 139.759 480.313 139.581C480.313 139.581 481.358 139.171 482.213 137.9C482.213 137.9 482.598 137.396 482.023 136.801C482.023 136.801 485.302 133.7 485.505 132.714C485.505 132.714 485.219 131.86 484.409 131.516C484.409 131.516 483.98 131.538 483.59 132.15C483.59 132.15 481.269 134.211 480.556 134.418C480.556 134.418 479.566 133.399 479.424 133.386C479.424 133.386 478.376 132.847 477.101 133.984C477.101 133.984 476.312 134.857 476.425 135.195C476.425 135.195 476.688 136.27 477.348 137.014C477.348 137.014 472.812 140.515 472.418 140.672C472.418 140.672 471.926 140.111 471.49 140.145C471.49 140.145 470.656 140.063 470.03 140.607L468.752 141.735C468.752 141.735 468.144 142.634 468.644 143.05C468.644 143.05 463.842 145.437 463.172 145.438C463.172 145.438 461.55 144.107 461.41 144.098C461.41 144.098 460.419 143.322 459.022 143.911C459.022 143.911 455.312 145.568 454.945 145.868C454.945 145.868 454.344 146.363 454.422 147.129C454.422 147.129 454.316 147.403 454.631 147.633L455.287 148.18L453.294 148.826C453.241 148.727 452.63 147.962 452.206 147.926C452.206 147.926 451.113 147.494 450.038 148.077L450.034 148.094Z" fill="#6F7F90"/>
<path fill-rule="evenodd" clip-rule="evenodd" d="M486.93 129.247C496.229 130.885 499.687 124.023 499.687 124.023C512.156 119.698 509.779 108.684 509.779 108.684C513.256 106.253 513.754 100.71 513.754 100.71C514.104 99.04 512.582 97.98 512.582 97.98L511.437 97.302C507.158 95.3461 504.245 90.2892 504.245 90.2892C503.18 87.9394 501.745 88.6425 501.745 88.6425C499.64 89.3461 496.821 91.9231 496.821 91.9231C490.034 97.8012 477.785 101.997 477.785 101.997C477.785 101.997 475.474 108.872 478.775 117.576C478.775 117.576 482.554 126.999 486.934 129.245L486.93 129.247Z" fill="#CCCCCC"/>
<path fill-rule="evenodd" clip-rule="evenodd" d="M473.343 118.412L470.589 118.815L471.253 120.588C465.693 120.644 459.677 122.863 459.677 122.863L459.243 121.821C456.693 122.074 452.804 123.729 452.804 123.729L453.003 125.008C449.741 125.956 443.941 128.438 443.941 128.438L443.707 127.024L442.463 127.48C442.463 127.48 442.795 132.284 443.682 135.287L444.764 134.773L444.522 133.366C444.522 133.366 450.149 130.942 454.321 129.893L454.89 131.505C454.89 131.505 459.778 130.18 461.887 129.156L461.516 127.62C461.516 127.62 469.844 125.105 473.059 124.716L473.665 126.102L476.914 125.33C476.914 125.33 473.804 120.461 473.346 118.406L473.343 118.412Z" fill="#8F8F8F"/>
<path fill-rule="evenodd" clip-rule="evenodd" d="M443.498 134.648C443.498 134.648 444.122 134.312 444.31 134.234C444.31 134.234 443.148 128.891 443.182 127.839L442.515 128.138C442.515 128.138 442.751 131.638 443.5 134.652L443.498 134.648Z" fill="white"/>
<path fill-rule="evenodd" clip-rule="evenodd" d="M471.486 119.312C471.486 119.312 473.386 123.962 473.912 125.126L476.437 124.541C476.437 124.541 474.535 120.521 473.968 118.899L471.488 119.317L471.486 119.312Z" fill="white"/>
<path fill-rule="evenodd" clip-rule="evenodd" d="M486.91 129.279C486.727 131.736 483.902 131.792 483.902 131.792C480.842 130.475 477.7 126.357 477.7 126.357C467.707 113.686 472.778 99.9397 472.778 99.9397C472.778 99.9397 474.191 98.0613 476.215 99.1969C476.215 99.1969 477.787 99.9812 477.85 102.082C477.85 102.082 474.045 117.294 486.915 129.277L486.91 129.279Z" fill="#596673"/>
<path fill-rule="evenodd" clip-rule="evenodd" d="M438.782 122.436L441.517 121.278L441.882 118.847C441.882 118.847 439.677 118.462 438.67 119.885L438.782 122.436Z" fill="#A5BCD5"/>
<path fill-rule="evenodd" clip-rule="evenodd" d="M477.984 45.6422C486.618 60.5799 487.489 73.4064 487.489 73.4064C487.202 78.9136 484.364 85.5482 484.364 85.5482C478.291 98.1476 460.312 110.153 460.312 110.153C443 121.067 428.409 122.157 428.409 122.157C424.753 120.577 418.324 115.178 418.324 115.178L429.125 88.7937L433.102 76.5295L407.662 50.4778C407.662 50.4778 421.437 35.1618 437.174 31.8354C437.174 31.8354 451.723 27.9163 462.85 33.0348C462.85 33.0348 471.601 36.0237 477.98 45.6437L477.984 45.6422Z" fill="#EBEBEB"/>
<path fill-rule="evenodd" clip-rule="evenodd" d="M436.352 32.0188C419.774 36.3066 407.622 50.4048 407.622 50.4048L408.634 51.3509L419.155 112.834L418.318 115.174L418.371 115.212C419.407 115.668 420.331 115.943 421.084 116.113C421.391 116.168 432.626 118.006 450.259 108.264C450.259 108.264 471.647 96.8758 479.626 81.5479C480.085 72.2464 474.567 55.8916 474.567 55.8916C479.959 56.455 484.525 60.2132 484.525 60.2132C483.97 58.3836 483.564 57.4583 483.564 57.4583C480.486 54.3854 474.144 53.9873 474.144 53.9873C467.276 40.1092 455.684 35.9534 455.684 35.9534C439.785 30.2315 426.049 37.9654 426.049 37.9654C427.749 36.2146 436.353 32.0234 436.353 32.0234L436.352 32.0188Z" fill="#A8A8A8"/>
<path fill-rule="evenodd" clip-rule="evenodd" d="M408.643 51.3022C395.595 72.8326 402.022 89.249 402.022 89.249C406.542 107.146 419.185 113.169 419.185 113.169C419.185 113.169 433.388 118.813 463.57 95.3723C463.57 95.3723 473.931 86.5329 476.554 80.7116C476.554 80.7116 475.831 59.5964 465.319 46.4339C465.319 46.4339 455.161 32.1582 435.465 37.1733C435.465 37.1733 421.363 39.5878 408.637 51.2991L408.643 51.3022Z" fill="#191919"/>
<path d="M436.428 91.4595C423.204 95.8799 413.931 103.797 415.72 109.149C416.521 111.516 419.817 113.267 424.312 113.729C429.293 114.201 447.736 109.402 461.407 97.0397C461.407 97.0397 463.044 95.7107 463.777 95.1254C463.866 94.4204 463.812 93.7582 463.606 93.1417C461.819 87.7946 449.647 87.0406 436.423 91.461L436.428 91.4595Z" fill="#173C3F"/>
<path d="M490.83 78.9042C490.824 74.7507 487.936 71.3874 484.378 71.392C480.82 71.3965 477.941 74.7672 477.946 78.9207C477.951 83.0741 480.84 86.4374 484.397 86.4329C487.955 86.4283 490.835 83.0576 490.83 78.9042Z" fill="#A8A8A8"/>
<path d="M491.924 78.4404C491.919 74.4119 489.117 71.1498 485.665 71.1542C482.214 71.1586 479.42 74.4279 479.425 78.4564C479.43 82.4848 482.232 85.747 485.684 85.7425C489.135 85.7381 491.929 82.4688 491.924 78.4404Z" fill="#EBEBEB"/>
<path d="M489.372 78.4436C489.369 76.0584 487.711 74.127 485.669 74.1296C483.627 74.1322 481.974 76.0679 481.977 78.4531C481.98 80.8382 483.638 82.7697 485.68 82.7671C487.722 82.7644 489.375 80.8288 489.372 78.4436Z" fill="#A8A8A8"/>
<path d="M488.363 78.4614C488.36 76.4113 486.933 74.7511 485.176 74.7534C483.418 74.7557 481.995 76.4194 481.998 78.4696C482.001 80.5197 483.428 82.1798 485.185 82.1776C486.943 82.1753 488.366 80.5115 488.363 78.4614Z" fill="#999999"/>
<path d="M487.506 78.5194C487.503 76.7431 486.268 75.3048 484.747 75.3067C483.227 75.3087 481.995 76.7502 481.998 78.5264C482 80.3027 483.235 81.741 484.756 81.7391C486.277 81.7371 487.508 80.2956 487.506 78.5194Z" fill="#A5BCD5"/>
<path d="M412.903 55.4307C414.133 54.5913 414.676 53.2467 414.117 52.4275C413.558 51.6083 412.108 51.6247 410.878 52.4641C409.648 53.3035 409.104 54.6481 409.663 55.4673C410.222 56.2865 411.673 56.2702 412.903 55.4307Z" fill="white"/>
<path d="M418.761 51.5852C419.642 50.9841 420.031 50.0215 419.631 49.435C419.231 48.8486 418.192 48.8605 417.312 49.4616C416.431 50.0627 416.041 51.0254 416.442 51.6118C416.842 52.1982 417.88 52.1863 418.761 51.5852Z" fill="white"/>
<path fill-rule="evenodd" clip-rule="evenodd" d="M450.264 36.8868C449.147 48.5046 430.89 56.3945 430.89 56.3945C427.853 56.7396 424.825 53.5738 424.825 53.5738C424.865 55.9261 426.648 58.6804 426.648 58.6804C423.317 58.9664 420.579 56.2114 420.579 56.2114C420.829 58.4934 422.042 59.814 422.042 59.814C411.53 63.8865 409.549 55.4564 409.549 55.4564C405.541 59.9741 406.432 65.8137 406.432 65.8137C405.712 65.6636 404.991 64.5086 404.991 64.5086C403.323 69.0258 404.528 73.9989 404.528 73.9989C403.392 75.3229 404.767 76.8382 404.767 76.8382C408.272 82.3726 407.12 90.9561 407.12 90.9561C406.151 93.2498 407.642 94.1727 407.642 94.1727C407.809 98.3306 408.05 100.494 410.12 104.396C413.329 108.725 418.181 112.291 419.436 112.43C422.32 112.75 424.023 111.572 424.023 111.572C432.247 107.168 434.407 94.7697 434.407 94.7697C435.139 92.2357 436.584 93.9914 436.584 93.9914C444.701 99.898 455.785 98.3859 461.388 97.0459C462.196 96.4408 462.867 95.9424 463.696 95.2946C463.696 95.2946 474.331 86.3027 476.593 80.6172C476.593 80.6172 476.504 77.2053 475.582 72.229C473.44 69.239 471.429 67.84 471.429 67.84C472.486 66.7657 473.338 65.3339 473.77 64.0622C472.149 58.4972 469.797 52.1305 465.683 46.9163C462.916 45.623 460.885 45.9261 460.885 45.9261C461.441 44.8112 461.361 43.3709 461.13 42.2399C460.835 42.0087 460.55 41.7791 460.222 41.5434C459.692 42.9491 458.59 44.4802 458.59 44.4802C458.623 42.9713 458.512 41.5007 458.263 40.2235C456.056 38.8596 453.4 37.6104 450.255 36.8746L450.264 36.8868Z" fill="#004F53"/>
<path d="M455.362 91.8973C464.252 88.9257 468.768 78.468 465.449 68.5394C462.13 58.6107 452.233 52.9709 443.344 55.9424C434.454 58.914 429.938 69.3717 433.257 79.3004C436.576 89.229 446.473 94.8689 455.362 91.8973Z" fill="#173C3F"/>
<path d="M453.372 88.0242C462.262 85.0526 466.778 74.5949 463.459 64.6663C460.14 54.7376 450.243 49.0978 441.353 52.0693C432.464 55.0409 427.948 65.4986 431.267 75.4273C434.585 85.3559 444.482 90.9958 453.372 88.0242Z" fill="#173C3F"/>
<path d="M454.147 89.8414C463.037 86.8698 467.553 76.4121 464.234 66.4834C460.915 56.5548 451.018 50.9149 442.128 53.8865C433.239 56.8581 428.723 67.3158 432.042 77.2444C435.36 87.1731 445.257 92.8129 454.147 89.8414Z" fill="#D6D4C8"/>
<path fill-rule="evenodd" clip-rule="evenodd" d="M429.783 96.2901C429.856 96.2657 431.301 95.8793 432.044 98.4532C432.044 98.4532 433.652 103.14 433.676 103.213C433.676 103.213 434.023 104.539 434.716 104.561C434.716 104.561 435.477 104.545 436.102 103.468C436.102 103.468 437.762 100.233 437.057 95.7724C437.057 95.7724 436.592 91.3133 435.361 89.6335C435.125 90.3417 429.783 96.2901 429.783 96.2901Z" fill="#9C3A3A"/>
<path fill-rule="evenodd" clip-rule="evenodd" d="M450.267 36.8807C450.139 37.8628 449.876 39.1587 449.528 40.0923C453.796 39.7522 456.838 40.5779 456.838 40.5779C458.19 45.4564 456.707 46.8508 456.707 46.8508C458.008 46.4158 460.17 46.3683 460.17 46.3683C465.289 46.6776 467.097 52.5865 467.097 52.5865C466.19 52.2142 463.934 52.2984 463.934 52.2984C465.891 52.822 467.587 54.2197 467.587 54.2197C471.062 63.6123 466.937 65.7016 466.937 65.7016C469.573 69.8209 470.951 78.6503 470.951 78.6503C471.022 86.881 466.291 90.1478 466.291 90.1478C456.294 96.6879 447.514 96.1807 436.605 94.101C444.766 100.079 455.776 98.4042 461.359 97.0657C462.119 96.4972 462.978 95.8798 463.76 95.2732C463.76 95.2732 474.38 86.1595 476.687 80.7892C476.687 80.7892 476.576 77.3895 475.589 72.2061C473.489 69.309 471.561 67.7653 471.561 67.7653C472.571 66.7322 473.348 65.3049 473.783 64.0835C472.121 58.415 469.852 52.2035 465.584 46.7565C465.584 46.7565 465.499 46.6683 465.417 46.5587C462.844 45.454 460.969 45.7053 460.969 45.7053C461.451 44.732 461.39 43.3663 461.161 42.2399C460.803 41.9585 460.653 41.846 460.253 41.5586C459.7 42.8653 458.675 44.2487 458.675 44.2487C458.701 42.9149 458.494 41.385 458.297 40.2326C456.088 38.8946 453.488 37.6164 450.276 36.8776L450.267 36.8807Z" fill="#194145"/>
<path fill-rule="evenodd" clip-rule="evenodd" d="M435.268 104.391C439.209 101.343 439.435 98.5109 439.435 98.5109C439.435 96.5057 437.906 92.8591 437.906 92.8591C435.855 88.4683 433.171 87.9438 433.171 87.9438C430.502 87.3843 428.273 89.3883 428.273 89.3883C428.273 89.3883 424.767 92.9006 426.177 98.7901C426.177 98.7901 426.49 99.8023 428.267 98.2844C428.267 98.2844 433.606 93.9056 435.349 90.2821C435.349 90.2821 437.268 94.0167 435.552 101.9C435.552 101.9 435.34 103.164 434.732 104.185C434.732 104.185 434.107 104.927 435.274 104.394L435.268 104.391Z" fill="#FFB93E"/>
<path d="M453.701 80.8624C458.481 77.3623 459.53 70.6657 456.044 65.9051C452.558 61.1445 445.857 60.1227 441.077 63.6228C436.297 67.1228 435.248 73.8194 438.734 78.58C442.22 83.3406 448.921 84.3625 453.701 80.8624Z" fill="#FAB84A"/>
<path d="M452.94 79.8207C457.143 76.7432 458.064 70.8535 454.998 66.6658C451.931 62.478 446.038 61.5779 441.835 64.6554C437.633 67.7329 436.711 73.6226 439.778 77.8104C442.844 81.9981 448.737 82.8982 452.94 79.8207Z" fill="#CF7B14"/>
<path d="M451.976 78.6264C455.537 76.0186 456.318 71.028 453.719 67.4796C451.121 63.9311 446.128 63.1685 442.566 65.7763C439.005 68.3841 438.224 73.3747 440.823 76.9232C443.421 80.4716 448.414 81.2342 451.976 78.6264Z" fill="#201E1E"/>
<path d="M452.124 67.6964C453.267 66.8589 453.517 65.2566 452.683 64.1175C451.849 62.9785 450.245 62.734 449.102 63.5716C447.959 64.4091 447.708 66.0114 448.543 67.1504C449.377 68.2895 450.98 68.5339 452.124 67.6964Z" fill="#FEFEFE"/>
<path d="M447.93 78.5328C440.207 81.0484 435.913 83.4942 435.624 83.8598C440.273 90.1591 448.267 91.9794 454.233 89.9905C459.989 88.0612 464.158 82.8399 465.16 76.3014C457.829 76.1477 452.185 77.1513 447.93 78.5328Z" fill="#194145"/>
<path d="M426.45 78.8598C425.455 69.8044 419.883 62.9875 414.004 63.6337C408.126 64.2799 404.168 72.1446 405.163 81.1999C406.159 90.2553 411.731 97.0722 417.609 96.426C423.487 95.7798 427.446 87.9151 426.45 78.8598Z" fill="#173C3F"/>
<path fill-rule="evenodd" clip-rule="evenodd" d="M409.555 55.4595C405.547 59.9771 406.423 65.7863 406.423 65.7863C405.703 65.6362 405.011 64.5223 405.011 64.5223C403.343 69.0395 404.375 74.2076 404.375 74.2076C403.239 75.5316 404.613 77.0469 404.613 77.0469C408.118 82.5814 406.967 91.1648 406.967 91.1648C405.997 93.4585 407.489 94.3814 407.489 94.3814C407.59 101.109 410.15 104.574 410.15 104.574C419.738 116.751 423.869 111.781 423.869 111.781C425.001 111.174 426.016 110.413 426.928 109.555C424.659 109.77 413.792 110.093 413.329 96.4547C413.329 96.4547 404.197 73.2212 413.018 59.9875C410.277 58.4217 409.555 55.4595 409.555 55.4595Z" fill="#173C3F"/>
<path d="M426.668 82.2376C425.673 73.1823 420.1 66.3653 414.222 67.0115C408.344 67.6577 404.385 75.5224 405.381 84.5778C406.376 93.6331 411.949 100.45 417.827 99.8039C423.705 99.1577 427.664 91.293 426.668 82.2376Z" fill="#173C3F"/>
<path d="M426.443 80.5206C425.447 71.4652 419.875 64.6482 413.996 65.2945C408.118 65.9407 404.16 73.8053 405.155 82.8607C406.151 91.9161 411.723 98.733 417.601 98.0868C423.48 97.4406 427.438 89.5759 426.443 80.5206Z" fill="#D6D4C8"/>
<path d="M421.296 89.0053C425.409 85.9938 426.31 80.2307 423.31 76.133C420.309 72.0353 414.543 71.1548 410.43 74.1663C406.318 77.1779 405.416 82.941 408.417 87.0387C411.417 91.1363 417.183 92.0168 421.296 89.0053Z" fill="#FAB84A"/>
<path d="M420.648 88.1036C424.263 85.4565 425.055 80.3906 422.417 76.7885C419.78 73.1864 414.711 72.4122 411.096 75.0593C407.481 77.7063 406.689 82.7722 409.326 86.3743C411.964 89.9764 417.033 90.7506 420.648 88.1036Z" fill="#CF7B14"/>
<path d="M419.807 87.0777C422.871 84.8344 423.542 80.5409 421.307 77.4881C419.071 74.4352 414.775 73.7789 411.712 76.0222C408.648 78.2656 407.977 82.559 410.212 85.6119C412.448 88.6647 416.744 89.321 419.807 87.0777Z" fill="#201E1E"/>
<path d="M419.94 77.6702C420.924 76.9489 421.14 75.5695 420.422 74.5892C419.704 73.6089 418.324 73.3989 417.339 74.1201C416.355 74.8414 416.139 76.2208 416.857 77.2011C417.575 78.1814 418.955 78.3914 419.94 77.6702Z" fill="#FEFEFE"/>
<path d="M415.68 86.7802C409.804 88.6426 408.07 90.0448 408.07 90.0448C408.07 90.0448 407.784 90.2369 407.333 90.6362C409.733 95.6417 413.616 98.5419 417.471 98.228C422.673 97.7836 426.189 91.2475 426.483 85.8088C422.125 85.6663 418.722 85.8138 415.684 86.7786L415.68 86.7802Z" fill="#194145"/>
<path fill-rule="evenodd" clip-rule="evenodd" d="M424.135 48.413C425.848 48.1147 429.394 46.6957 429.394 46.6957C433.117 45.3345 435.434 44.7174 435.434 44.7174C439.028 43.7902 442.166 43.7465 442.166 43.7465C446.296 43.6653 451.665 44.4799 451.665 44.4799C454.876 44.229 452.755 42.3642 452.755 42.3642C451.687 41.4622 447.699 41.0896 447.699 41.0896C435.57 39.7021 424.709 45.8456 424.709 45.8456C424.709 45.8456 422.8 46.6359 422.819 47.7716C422.819 47.7716 422.823 48.7095 424.135 48.413Z" fill="white"/>
<path fill-rule="evenodd" clip-rule="evenodd" d="M508.692 97.5951C509.531 103.447 503.735 105.608 503.735 105.608C503.029 116.159 493.479 117.128 493.479 117.128C489.645 124.05 484.889 123.629 484.889 123.629C484.889 123.629 477.914 117.417 479.071 103.034C479.071 103.034 492.225 100.698 502.28 89.2556C502.28 89.2556 507.519 95.5909 508.692 97.5951Z" fill="white"/>
<path fill-rule="evenodd" clip-rule="evenodd" d="M501.623 88.9927C501.623 88.9927 501.423 88.2118 502.482 87.2639C502.482 87.2639 504.245 85.7658 505.674 86.669C505.674 86.669 506.26 87.5394 506.557 88.308C506.557 88.308 509.118 93.5996 512.972 96.2151C512.972 96.2151 514.025 96.6146 513.567 97.8285L513.09 98.7394C513.09 98.7394 512.874 99.1719 511.731 99.1683C511.731 99.1683 506.624 98.5606 503.485 93.4217C502.118 91.0051 501.623 88.9927 501.623 88.9927Z" fill="#596673"/>
<path fill-rule="evenodd" clip-rule="evenodd" d="M467.566 153.782C468.83 153.888 469.183 155.277 469.183 155.277C469.378 155.938 468.618 158.842 468.618 158.842C468.194 160.324 468.619 161.685 468.619 161.685C468.987 163.318 468.056 164.299 468.056 164.299C466.865 165.977 464.495 164.383 464.495 164.383C463.051 166.957 460.793 165.047 460.793 165.047C460.036 167.508 457.982 166.54 457.982 166.54C455.914 165.774 455.317 162.227 455.317 162.227C454.591 159.236 457.12 157.249 457.12 157.249C457.12 157.249 459.58 155.421 460.496 156.567C460.496 156.567 461.344 154.775 463.186 154.606C463.186 154.606 464.756 154.305 465.225 155.209C465.225 155.209 466.054 153.678 467.563 153.788L467.566 153.782Z" fill="#6E7D8E"/>
<path fill-rule="evenodd" clip-rule="evenodd" d="M489.259 154.409C489.875 156.371 489.169 156.963 489.169 156.963C488.06 158.475 486.191 157.364 486.191 157.364C485.565 160.213 482.884 159.256 482.884 159.256C481.111 158.783 479.982 155.297 479.982 155.297C479.675 156.506 480.447 157.979 480.447 157.979C480.837 158.676 481.109 159.611 481.109 159.611C481.606 161.811 479.575 161.977 479.575 161.977C477.069 161.906 475.955 159.044 475.955 159.044C473.916 155.193 477.175 150.316 477.175 150.316C477.175 150.316 478.244 148.913 479.17 149.451C479.17 149.451 479.743 146.442 481.773 147.459C481.773 147.459 482.239 145.725 483.884 146.576C483.884 146.576 484.736 147.119 485.412 148.548C485.412 148.548 486.846 151.124 488.023 152.35C488.023 152.35 488.917 153.371 489.262 154.403L489.259 154.409Z" fill="#6E7D8E"/>
<path d="M497.041 41.0235C498.176 40.6441 498.788 39.4166 498.409 38.2818C498.03 37.1469 496.802 36.5345 495.667 36.9138C494.532 37.2932 493.92 38.5207 494.299 39.6555C494.679 40.7903 495.906 41.4028 497.041 41.0235Z" fill="#505050"/>
<path fill-rule="evenodd" clip-rule="evenodd" d="M498.91 125.191C493.476 123.104 492.003 114.383 492.003 114.383C492.003 114.383 495.238 122.058 499.684 124.029C499.684 124.029 499.415 124.576 498.906 125.193L498.91 125.191Z" fill="#ADADAD"/>
<path fill-rule="evenodd" clip-rule="evenodd" d="M509.81 108.669C504.052 109.487 501.934 103.377 501.934 103.377C501.934 103.377 505.034 108.702 511.45 107.029C510.718 108.061 509.811 108.674 509.811 108.674L509.81 108.669Z" fill="#ADADAD"/>
<path fill-rule="evenodd" clip-rule="evenodd" d="M442.374 144.877C442.374 144.877 437.775 140.896 435.437 130.834C435.437 130.834 435.553 136.847 439.71 143.148C439.71 143.148 440.915 144.415 442.376 144.881L442.374 144.877Z" fill="#ADADAD"/>
<path fill-rule="evenodd" clip-rule="evenodd" d="M429.957 141.322C429.957 141.322 427.974 131.73 428.995 125.946C428.995 125.946 426.802 132.294 429.365 141.494C429.365 141.494 429.683 141.444 429.957 141.322Z" fill="#ADADAD"/>
<path fill-rule="evenodd" clip-rule="evenodd" d="M411.012 114.428C410.815 114.885 410.656 115.807 411.561 117.149C411.561 117.149 413.494 120.183 413.686 120.423C413.686 120.423 413.49 120.276 413.334 120.16C414.227 121.161 415.02 121.922 416.208 122.591C413.544 119.831 411.058 115.962 411.011 114.424L411.012 114.428Z" fill="#ADADAD"/>
<path fill-rule="evenodd" clip-rule="evenodd" d="M406.446 118.128C406.538 118.493 406.68 118.902 406.902 119.371C406.902 119.371 408.208 122.031 410.1 123.181C410.1 123.181 409.796 123.318 409.522 123.592C413.166 126.354 415.317 126.092 415.317 126.092C409.323 122.877 407.062 119.302 406.446 118.128Z" fill="#ADADAD"/>
<path fill-rule="evenodd" clip-rule="evenodd" d="M512.919 78.6072C508.581 79.905 506.393 86.6318 506.393 86.6318C506.393 86.6318 509.25 92.5353 513.081 95.3258C513.081 95.3258 517.458 94.6294 522.293 87.6065C522.036 86.9261 521.495 86.8124 521.058 86.8112C515.011 90.9089 513.292 90.9606 513.292 90.9606C517.485 87.6349 519.179 86.0333 520.119 83.2113C519.893 82.3375 519.449 82.0136 519.449 82.0136C517.971 80.538 515.445 82.3063 515.445 82.3063C513.937 83.384 511.544 85.5495 509.74 87.3507C513.593 82.8849 514.334 79.1191 514.334 79.1191C513.976 78.4723 513.364 78.4789 512.915 78.6087L512.919 78.6072Z" fill="white"/>
<path fill-rule="evenodd" clip-rule="evenodd" d="M444.763 128.818C444.763 128.818 451.885 126.006 453.157 125.698C453.157 125.698 454.046 128.949 454.177 129.22C454.177 129.22 445.724 132.025 444.454 132.648C444.454 132.648 443.913 129.752 444.016 129.165L444.763 128.818Z" fill="white"/>
<path fill-rule="evenodd" clip-rule="evenodd" d="M455.359 123.459C454.773 123.65 454.012 123.91 453.493 124.149C453.493 124.149 454.305 128.416 455.322 130.563C455.322 130.563 459.342 129.347 460.925 128.599C460.925 128.599 459.236 123.107 458.808 122.403C458.808 122.403 457.114 122.893 455.36 123.464L455.359 123.459ZM455.588 124.175C456.528 123.86 457.496 123.476 458.467 123.268C458.55 123.469 458.67 123.723 458.794 124.078C458.991 124.636 459.218 125.332 459.437 126C459.771 127.046 460.003 127.801 460.117 128.189C458.717 128.768 456.547 129.382 455.842 129.582C455.096 127.776 454.507 125.257 454.35 124.573C454.717 124.425 455.19 124.307 455.589 124.179L455.588 124.175Z" fill="white"/>
<path fill-rule="evenodd" clip-rule="evenodd" d="M455.052 124.912L456.226 128.743L458.989 127.896L458.696 126.806L456.604 127.505L455.977 125.506L458.02 124.783L457.789 124.033L455.057 124.91L455.052 124.912Z" fill="white"/>
<path fill-rule="evenodd" clip-rule="evenodd" d="M456.748 125.792L457.057 126.719C457.057 126.719 458.525 126.279 458.493 126.183L458.221 125.325L456.748 125.792Z" fill="white"/>
<path fill-rule="evenodd" clip-rule="evenodd" d="M459.911 123.425C459.911 123.425 461.203 126.744 461.254 126.895C461.254 126.895 471.373 124.274 472.727 124.07C472.727 124.07 471.851 121.738 471.659 121.331C467.593 121.182 459.913 123.429 459.913 123.429L459.911 123.425Z" fill="white"/>
<path fill-rule="evenodd" clip-rule="evenodd" d="M450.256 150.989C449.565 150.215 449.663 149.217 449.663 149.217C449.663 149.217 451.03 148.644 451.667 148.665C451.667 148.665 454.167 151.377 454.733 152.295C454.733 152.295 454.879 153.49 452.612 153.557C452.612 153.557 453.298 153.013 453.282 152.739C453.282 152.739 452.317 150.793 451.65 150.269C451.65 150.269 450.61 150.576 450.256 150.989Z" fill="#A5BCD5"/>
<path fill-rule="evenodd" clip-rule="evenodd" d="M452.433 152.49C452.337 152.796 451.724 152.966 451.724 152.966C451.388 152.783 450.5 151.659 450.5 151.659C450.5 151.659 451.048 151.202 451.516 151.07C451.516 151.07 452.198 151.817 452.433 152.49Z" fill="#A5BCD5"/>
<path fill-rule="evenodd" clip-rule="evenodd" d="M453.252 149.399C453.252 149.399 454.584 150.908 454.741 151.028C454.741 151.028 456.295 150.666 457.354 150.175L455.666 148.845C455.666 148.845 453.503 149.391 453.252 149.399Z" fill="#A5BCD5"/>
<path fill-rule="evenodd" clip-rule="evenodd" d="M457.178 148.934L454.886 147.314C454.886 147.314 458.703 145.642 459.778 144.851C459.778 144.851 460.425 144.539 460.825 144.974L464.695 148.472C464.695 148.472 463.715 150.023 462.081 150.433C462.081 150.433 459.691 147.642 459.263 147.547L457.183 148.932L457.178 148.934Z" fill="#A5BCD5"/>
<path fill-rule="evenodd" clip-rule="evenodd" d="M457.964 149.22C457.964 149.22 460.268 150.917 460.336 150.894L461.286 150.439L459.207 148.352L457.96 149.221L457.964 149.22Z" fill="#A5BCD5"/>
<path fill-rule="evenodd" clip-rule="evenodd" d="M463.634 146.03L464.992 147.419C464.992 147.419 469.144 145.838 470.081 144.966L468.9 143.772C468.9 143.772 464.922 145.797 463.636 146.034L463.634 146.03Z" fill="#A5BCD5"/>
<path fill-rule="evenodd" clip-rule="evenodd" d="M470.717 140.855C471.445 140.495 471.749 140.708 471.749 140.708C472.229 141.019 473.076 142.594 473.076 142.594C472.407 143.767 470.487 144.434 470.487 144.434L468.998 142.729C468.998 142.729 468.873 142.415 469.234 142.021L470.717 140.855Z" fill="#A5BCD5"/>
<path fill-rule="evenodd" clip-rule="evenodd" d="M471.127 144.86L472.482 145.905C472.482 145.905 472.811 146.069 473.273 145.798L474.554 144.618C474.554 144.618 474.831 144.033 474.442 143.63L473.537 142.927C473.537 142.927 472.529 144.331 471.126 144.856L471.127 144.86Z" fill="#A5BCD5"/>
<path fill-rule="evenodd" clip-rule="evenodd" d="M478.564 138.587C477.574 139.878 474.099 142.313 474.099 142.313L473.114 141.084C473.114 141.084 477.378 138.09 477.811 137.473L478.559 138.589L478.564 138.587Z" fill="#A5BCD5"/>
<path fill-rule="evenodd" clip-rule="evenodd" d="M480.21 135.356C480.442 135.99 480.377 136.387 480.377 136.387C480.283 137.17 479.349 137.441 479.349 137.441C478.887 137.596 478.397 137.13 478.397 137.13C478.1 136.955 477.427 135.52 477.427 135.52C477.427 135.52 477.34 135.016 477.682 134.628C477.682 134.628 478.546 134.024 479.037 134.018C479.037 134.018 479.768 134.382 480.216 135.359L480.21 135.356Z" fill="#A5BCD5"/>
<path fill-rule="evenodd" clip-rule="evenodd" d="M479.197 138.279C479.197 138.279 479.696 139.057 480.072 139.012C480.072 139.012 480.303 139.112 480.563 138.827L481.643 137.7C481.643 137.7 481.798 137.45 481.466 137.048L480.922 136.362C480.73 137.609 479.197 138.279 479.197 138.279Z" fill="#A5BCD5"/>
<path fill-rule="evenodd" clip-rule="evenodd" d="M480.95 134.972L481.756 136.322C481.756 136.322 484.758 133.623 484.945 132.83C484.945 132.83 484.632 132.305 484.289 132.282C483.711 132.968 480.951 134.977 480.951 134.977L480.95 134.972Z" fill="#A5BCD5"/>
<path fill-rule="evenodd" clip-rule="evenodd" d="M460.031 164.423C460.031 164.423 457.428 161.116 459.411 158.559C459.411 158.559 459.961 158.02 459.669 157.508C459.669 157.508 459.437 156.875 458.451 157.342C458.451 157.342 456.018 158.373 456.285 162.482C456.285 162.482 456.607 164.857 457.782 165.668C457.782 165.668 458.333 166.194 459.295 165.715C459.295 165.715 460.315 165.471 460.026 164.425L460.031 164.423Z" fill="#A5BCD5"/>
<path fill-rule="evenodd" clip-rule="evenodd" d="M460.975 157.285C460.975 157.285 459.047 160.188 461.256 163.547C461.256 163.547 461.91 164.501 462.887 164.509C462.887 164.509 463.764 164.551 463.756 163.523C463.756 163.523 463.72 162.672 463.426 162.126C463.426 162.126 462.688 159.92 463.67 157.694C463.67 157.694 464.272 156.487 463.624 155.81C463.624 155.81 462.715 155.307 461.813 156.192C461.813 156.192 461.069 156.913 460.969 157.282L460.975 157.285Z" fill="#A5BCD5"/>
<path fill-rule="evenodd" clip-rule="evenodd" d="M465.4 163.004C465.4 163.004 464.17 159.735 465.461 156.43C465.461 156.43 465.835 155.3 466.748 155.025C466.748 155.025 467.87 154.539 468.178 155.887C468.178 155.887 468.212 156.658 467.895 157.378C467.895 157.378 466.988 160.163 467.667 162.028C467.667 162.028 467.987 163.652 467.261 163.895C467.261 163.895 466.106 164.616 465.406 163.007L465.4 163.004Z" fill="#A5BCD5"/>
<path fill-rule="evenodd" clip-rule="evenodd" d="M479.511 158.201C479.511 158.201 478.427 154.715 479.319 153.3C479.319 153.3 479.803 151.996 479.283 151.277C479.283 151.277 478.495 150.423 477.485 151.487C477.485 151.487 475.782 154.731 477.223 158.966C477.223 158.966 477.802 160.696 478.656 160.746C478.656 160.746 479.661 160.912 479.744 159.824C479.744 159.824 480.037 159.198 479.506 158.202L479.511 158.201Z" fill="#A5BCD5"/>
<path fill-rule="evenodd" clip-rule="evenodd" d="M479.913 149.487C479.913 149.487 479.136 152.585 481.845 156.451C481.845 156.451 482.97 157.811 483.833 157.797C483.833 157.797 485.052 157.785 484.727 156.234C484.727 156.234 484.441 155.03 483.423 153.989C483.423 153.989 481.907 152.049 481.47 150.622C481.47 150.622 481.298 149.516 480.825 149.101C480.228 148.788 479.908 149.489 479.908 149.489L479.913 149.487Z" fill="#A5BCD5"/>
<path fill-rule="evenodd" clip-rule="evenodd" d="M482.185 148.022C482.185 148.022 482.641 152.469 485.78 155.603C485.78 155.603 486.718 156.406 487.301 156.236C487.301 156.236 488.303 155.983 488.103 154.882C488.103 154.882 488.007 153.853 487.139 152.834C487.139 152.834 485.915 151.679 485.23 150.208C485.23 150.208 484.509 148.718 483.951 148.127C483.951 148.127 482.529 146.455 482.189 148.021L482.185 148.022Z" fill="#A5BCD5"/>
<path fill-rule="evenodd" clip-rule="evenodd" d="M486.438 129.599C485.835 129.45 484.322 127.748 484.322 127.748C484.322 127.748 483.288 129.484 482.17 129.98C482.17 129.98 483.326 131.025 484.458 131.282C484.458 131.282 486.082 130.718 486.437 129.594L486.438 129.599Z" fill="#A5BCD5"/>
<path fill-rule="evenodd" clip-rule="evenodd" d="M481.616 129.388C481.616 129.388 483.191 128.085 483.743 127.018C483.743 127.018 481.688 124.592 481.417 124.13C481.417 124.13 479.602 126.006 478.755 126.37C478.755 126.37 480.823 128.791 481.615 129.384L481.616 129.388Z" fill="#A5BCD5"/>
<path fill-rule="evenodd" clip-rule="evenodd" d="M478.989 119.768C479.186 120.418 480.859 123.357 480.859 123.357C480.263 124.292 478.294 125.524 478.294 125.524C478.294 125.524 476.509 123.07 476.012 121.642C476.012 121.642 478.393 120.521 478.989 119.768Z" fill="#A5BCD5"/>
<path fill-rule="evenodd" clip-rule="evenodd" d="M475.489 120.959C475.489 120.959 478.071 119.725 478.639 119.007C478.639 119.007 477.827 117.111 477.796 116.67C477.796 116.67 474.52 118.135 474.291 118.212C474.291 118.212 475.086 120.302 475.486 120.965L475.489 120.959Z" fill="#A5BCD5"/>
<path fill-rule="evenodd" clip-rule="evenodd" d="M473.969 117.522C473.969 117.522 477.161 116.197 477.636 115.977C477.636 115.977 476.937 114.099 476.88 113.595L473.139 114.612C473.139 114.612 473.419 116.239 473.973 117.516L473.969 117.522Z" fill="#A5BCD5"/>
<path fill-rule="evenodd" clip-rule="evenodd" d="M473.007 113.823L476.7 112.797C476.7 112.797 476.054 110.272 476.097 109.171C476.097 109.171 473.045 109.821 472.365 110.216C472.365 110.216 472.579 112.906 473.003 113.825L473.007 113.823Z" fill="#A5BCD5"/>
<path fill-rule="evenodd" clip-rule="evenodd" d="M472.373 109.284L476.077 108.35C476.077 108.35 476.099 106.17 476.2 105.471C476.2 105.471 474.571 104.513 472.423 105.257C472.423 105.257 471.942 107.661 472.373 109.284Z" fill="#A5BCD5"/>
<path fill-rule="evenodd" clip-rule="evenodd" d="M472.52 104.377C472.52 104.377 474.879 104.009 476.195 104.696L476.609 103.096C476.609 103.096 474.77 101.436 473.1 101.68C472.656 102.478 472.524 104.375 472.524 104.375L472.52 104.377Z" fill="#A5BCD5"/>
<path fill-rule="evenodd" clip-rule="evenodd" d="M476.665 102.397C475.585 101.367 473.222 101.101 473.222 101.101L473.34 100.498C473.34 100.498 475.295 99.1794 476.796 100.328C477.03 101.148 476.665 102.397 476.665 102.397Z" fill="#A5BCD5"/>
<path fill-rule="evenodd" clip-rule="evenodd" d="M438.915 123.29L441.414 122.14C441.414 122.14 441.407 124.488 441.462 124.698L439.12 125.588C439.12 125.588 438.945 124.062 438.917 123.295L438.915 123.29Z" fill="#A5BCD5"/>
<path fill-rule="evenodd" clip-rule="evenodd" d="M439.568 126.321L441.601 125.449C441.601 125.449 441.641 128.816 441.812 129.617L439.848 130.304C439.848 130.304 439.361 128.01 439.297 126.391L439.568 126.321Z" fill="#A5BCD5"/>
<path fill-rule="evenodd" clip-rule="evenodd" d="M440.009 131.133C440.141 131.074 441.942 130.371 441.942 130.371L442.473 133.447L440.777 134.115L440.015 131.136L440.009 131.133Z" fill="#A5BCD5"/>
<path fill-rule="evenodd" clip-rule="evenodd" d="M441.16 134.942L442.533 134.341C442.533 134.341 443.529 138.597 443.589 138.729L442.607 139.179L441.16 134.942Z" fill="#A5BCD5"/>
<path fill-rule="evenodd" clip-rule="evenodd" d="M443.014 139.805L443.91 139.358C443.91 139.358 444.346 141.238 446.036 144.501C446.036 144.501 443.595 142.088 443.009 139.806L443.014 139.805Z" fill="#A5BCD5"/>
</g>
<defs>
<clipPath id="clip0_5801_441">
<rect width="120" height="137.145" fill="white" transform="translate(383.5 49.5437) rotate(-18.4834)"/>
</clipPath>
</defs>
</svg>
