<svg width="356" height="159" viewBox="0 0 356 159" fill="none" xmlns="http://www.w3.org/2000/svg">
<g clip-path="url(#clip0_9697_68)">
<path d="M328.397 88.4787C328.059 88.999 327.363 89.1478 326.841 88.8109C326.32 88.4741 326.171 87.7793 326.508 87.2589C326.846 86.7386 327.542 86.5899 328.064 86.9267C328.586 87.2635 328.735 87.9584 328.397 88.4787Z" fill="url(#paint0_linear_9697_68)"/>
<path d="M241.183 -24.0348C240.845 -23.5145 240.149 -23.3657 239.627 -23.7025C239.105 -24.0393 238.956 -24.7342 239.294 -25.2545C239.632 -25.7748 240.328 -25.9236 240.85 -25.5868C241.371 -25.25 241.521 -24.5551 241.183 -24.0348Z" fill="url(#paint1_linear_9697_68)"/>
<path d="M223.56 20.7839C223.223 21.3042 222.526 21.453 222.004 21.1162C221.483 20.7794 221.334 20.0845 221.671 19.5642C222.009 19.0439 222.705 18.8951 223.227 19.2319C223.749 19.5687 223.898 20.2636 223.56 20.7839Z" fill="url(#paint2_linear_9697_68)"/>
<path d="M111.378 155.79C111.041 156.31 110.344 156.459 109.822 156.122C109.301 155.785 109.152 155.09 109.489 154.57C109.827 154.05 110.524 153.901 111.045 154.238C111.567 154.575 111.716 155.269 111.378 155.79Z" fill="url(#paint3_linear_9697_68)"/>
<path d="M146.463 177.108C146.125 177.628 145.429 177.777 144.907 177.44C144.386 177.103 144.237 176.408 144.574 175.888C144.912 175.368 145.608 175.219 146.13 175.556C146.652 175.892 146.801 176.587 146.463 177.108Z" fill="url(#paint4_linear_9697_68)"/>
<path d="M228.521 183.525C228.183 184.045 227.487 184.194 226.965 183.857C226.444 183.52 226.294 182.825 226.632 182.305C226.97 181.785 227.666 181.636 228.188 181.973C228.71 182.309 228.859 183.004 228.521 183.525Z" fill="url(#paint5_linear_9697_68)"/>
<path d="M240.037 158.206C239.699 158.727 239.003 158.875 238.481 158.539C237.959 158.202 237.81 157.507 238.148 156.987C238.486 156.466 239.182 156.318 239.704 156.654C240.225 156.991 240.375 157.686 240.037 158.206Z" fill="url(#paint6_linear_9697_68)"/>
<path d="M304.344 56.013C304.006 56.5334 303.31 56.6821 302.788 56.3453C302.266 56.0085 302.117 55.3136 302.455 54.7933C302.793 54.273 303.489 54.1242 304.011 54.4611C304.533 54.7979 304.682 55.4927 304.344 56.013Z" fill="url(#paint7_linear_9697_68)"/>
<path d="M199.507 -11.6817C199.169 -11.1613 198.473 -11.0126 197.951 -11.3494C197.43 -11.6862 197.28 -12.3811 197.618 -12.9014C197.956 -13.4217 198.652 -13.5705 199.174 -13.2337C199.696 -12.8968 199.845 -12.202 199.507 -11.6817Z" fill="url(#paint8_linear_9697_68)"/>
<path d="M288.698 129.69C288.36 130.21 287.664 130.359 287.142 130.022C286.621 129.685 286.471 128.99 286.809 128.47C287.147 127.95 287.843 127.801 288.365 128.138C288.887 128.474 289.036 129.169 288.698 129.69Z" fill="url(#paint9_linear_9697_68)"/>
<path d="M47.5417 -26.0286C47.204 -25.5082 46.5074 -25.3595 45.9858 -25.6963C45.4642 -26.0331 45.3151 -26.728 45.6527 -27.2483C45.9904 -27.7686 46.687 -27.9174 47.2086 -27.5805C47.7302 -27.2437 47.8793 -26.5489 47.5417 -26.0286Z" fill="url(#paint10_linear_9697_68)"/>
<path d="M285.43 -43.6999C285.092 -43.1795 284.396 -43.0308 283.874 -43.3676C283.353 -43.7044 283.204 -44.3993 283.541 -44.9196C283.879 -45.4399 284.575 -45.5887 285.097 -45.2518C285.619 -44.915 285.768 -44.2202 285.43 -43.6999Z" fill="url(#paint11_linear_9697_68)"/>
<path d="M260.867 44.8735C260.529 45.3938 259.833 45.5426 259.311 45.2057C258.79 44.8689 258.64 44.1741 258.978 43.6538C259.316 43.1334 260.012 42.9847 260.534 43.3215C261.056 43.6583 261.205 44.3532 260.867 44.8735Z" fill="url(#paint12_linear_9697_68)"/>
<path d="M156.03 -22.8212C155.692 -22.3009 154.996 -22.1521 154.474 -22.489C153.953 -22.8258 153.804 -23.5206 154.141 -24.041C154.479 -24.5613 155.175 -24.71 155.697 -24.3732C156.219 -24.0364 156.368 -23.3416 156.03 -22.8212Z" fill="url(#paint13_linear_9697_68)"/>
<path d="M42.2851 4.44546C41.9474 4.96577 41.2508 5.11453 40.7292 4.77772C40.2076 4.4409 40.0585 3.74605 40.3961 3.22572C40.7338 2.70541 41.4304 2.55665 41.952 2.89347C42.4736 3.23029 42.6227 3.92513 42.2851 4.44546Z" fill="url(#paint14_linear_9697_68)"/>
<path d="M34.6132 25.5613C34.2756 26.0816 33.579 26.2304 33.0574 25.8936C32.5357 25.5567 32.3866 24.8619 32.7243 24.3416C33.0619 23.8212 33.7585 23.6725 34.2801 24.0093C34.8018 24.3461 34.9509 25.041 34.6132 25.5613Z" fill="url(#paint15_linear_9697_68)"/>
<path d="M37.0319 176.549C36.6942 177.069 35.9976 177.218 35.476 176.881C34.9544 176.544 34.8053 175.85 35.1429 175.329C35.4806 174.809 36.1772 174.66 36.6988 174.997C37.2204 175.334 37.3695 176.029 37.0319 176.549Z" fill="url(#paint16_linear_9697_68)"/>
<path d="M59.8127 153.388C59.475 153.908 58.7784 154.057 58.2568 153.72C57.7352 153.383 57.5861 152.689 57.9237 152.168C58.2614 151.648 58.958 151.499 59.4796 151.836C60.0012 152.173 60.1503 152.868 59.8127 153.388Z" fill="url(#paint17_linear_9697_68)"/>
<path d="M29.5843 133.723C29.2467 134.243 28.5501 134.392 28.0284 134.055C27.5068 133.718 27.3577 133.023 27.6954 132.503C28.033 131.983 28.7296 131.834 29.2512 132.171C29.7728 132.508 29.922 133.203 29.5843 133.723Z" fill="url(#paint18_linear_9697_68)"/>
<path d="M201.316 -57.6839C200.979 -57.1636 200.282 -57.0148 199.761 -57.3516C199.239 -57.6885 199.09 -58.3833 199.427 -58.9036C199.765 -59.4239 200.462 -59.5727 200.983 -59.2359C201.505 -58.8991 201.654 -58.2042 201.316 -57.6839Z" fill="url(#paint19_linear_9697_68)"/>
<path d="M288.059 -6.99171C287.721 -6.47138 287.024 -6.32263 286.503 -6.65945C285.981 -6.99626 285.832 -7.69111 286.17 -8.21143C286.507 -8.73175 287.204 -8.88052 287.726 -8.54369C288.247 -8.20688 288.396 -7.51202 288.059 -6.99171Z" fill="url(#paint20_linear_9697_68)"/>
<path d="M296.76 148.933C296.423 149.453 295.726 149.602 295.205 149.265C294.683 148.929 294.534 148.234 294.872 147.713C295.209 147.193 295.906 147.044 296.427 147.381C296.949 147.718 297.098 148.413 296.76 148.933Z" fill="url(#paint21_linear_9697_68)"/>
<path d="M55.6041 -6.78506C55.2664 -6.26474 54.5698 -6.11597 54.0482 -6.45279C53.5266 -6.78961 53.3775 -7.48447 53.7151 -8.00478C54.0528 -8.52511 54.7494 -8.67386 55.271 -8.33704C55.7926 -8.00023 55.9417 -7.30538 55.6041 -6.78506Z" fill="url(#paint22_linear_9697_68)"/>
<path d="M251.144 237.126C250.806 237.646 250.11 237.795 249.588 237.458C249.067 237.121 248.917 236.426 249.255 235.906C249.593 235.386 250.289 235.237 250.811 235.574C251.333 235.911 251.482 236.605 251.144 237.126Z" fill="url(#paint23_linear_9697_68)"/>
<path d="M353.335 94.1091C352.997 94.6294 352.301 94.7782 351.779 94.4413C351.258 94.1045 351.108 93.4097 351.446 92.8894C351.784 92.369 352.48 92.2203 353.002 92.5571C353.524 92.8939 353.673 93.5888 353.335 94.1091Z" fill="url(#paint24_linear_9697_68)"/>
<path d="M326.491 128.247C326.323 128.507 325.974 128.581 325.713 128.413C325.452 128.244 325.378 127.897 325.547 127.637C325.715 127.376 326.064 127.302 326.325 127.47C326.586 127.639 326.66 127.986 326.491 128.247Z" fill="url(#paint25_linear_9697_68)"/>
<path d="M85.3351 -27.4714C85.1662 -27.2112 84.8178 -27.1368 84.5569 -27.3052C84.296 -27.4737 84.2214 -27.8213 84.3903 -28.0815C84.5591 -28.3417 84.9076 -28.4161 85.1684 -28.2477C85.4293 -28.0792 85.5039 -27.7317 85.3351 -27.4714Z" fill="url(#paint26_linear_9697_68)"/>
<path d="M271.914 -26.4264C271.745 -26.1661 271.396 -26.0917 271.136 -26.2602C270.875 -26.4286 270.8 -26.7762 270.969 -27.0364C271.138 -27.2967 271.486 -27.3711 271.747 -27.2026C272.008 -27.0341 272.083 -26.6866 271.914 -26.4264Z" fill="url(#paint27_linear_9697_68)"/>
<path d="M22.2606 69.7246C22.0917 69.9848 21.7433 70.0592 21.4824 69.8907C21.2215 69.7223 21.1469 69.3747 21.3158 69.1145C21.4847 68.8542 21.8331 68.7798 22.094 68.9483C22.3549 69.1168 22.4295 69.4643 22.2606 69.7246Z" fill="url(#paint28_linear_9697_68)"/>
<path d="M198.543 193.579C198.374 193.839 198.025 193.914 197.764 193.745C197.503 193.577 197.429 193.229 197.598 192.969C197.767 192.709 198.115 192.634 198.376 192.803C198.637 192.971 198.711 193.319 198.543 193.579Z" fill="url(#paint29_linear_9697_68)"/>
<path d="M108.17 -65.7572C108.001 -65.4969 107.653 -65.4225 107.392 -65.591C107.131 -65.7595 107.056 -66.107 107.225 -66.3672C107.394 -66.6275 107.742 -66.7019 108.003 -66.5334C108.264 -66.365 108.339 -66.0174 108.17 -65.7572Z" fill="url(#paint30_linear_9697_68)"/>
<path d="M114.06 131.006C113.891 131.266 113.542 131.341 113.281 131.172C113.021 131.004 112.946 130.656 113.115 130.396C113.284 130.136 113.632 130.061 113.893 130.23C114.154 130.398 114.229 130.746 114.06 131.006Z" fill="url(#paint31_linear_9697_68)"/>
<path d="M311.777 170.885C311.608 171.145 311.26 171.22 310.999 171.051C310.738 170.883 310.664 170.535 310.833 170.275C311.001 170.015 311.35 169.94 311.611 170.109C311.872 170.277 311.946 170.625 311.777 170.885Z" fill="url(#paint32_linear_9697_68)"/>
<path d="M70.621 15.1668C70.4521 15.427 70.1037 15.5014 69.8428 15.333C69.5819 15.1645 69.5073 14.817 69.6762 14.5567C69.8451 14.2965 70.1935 14.2221 70.4544 14.3905C70.7153 14.559 70.7899 14.9066 70.621 15.1668Z" fill="url(#paint33_linear_9697_68)"/>
<path d="M296.331 167.15C296.162 167.41 295.814 167.485 295.553 167.316C295.292 167.148 295.218 166.8 295.386 166.54C295.555 166.28 295.904 166.205 296.165 166.374C296.426 166.542 296.5 166.89 296.331 167.15Z" fill="url(#paint34_linear_9697_68)"/>
<path d="M55.1748 11.4319C55.006 11.6922 54.6576 11.7666 54.3967 11.5981C54.1358 11.4296 54.0612 11.0821 54.2301 10.8218C54.3989 10.5616 54.7473 10.4872 55.0082 10.6557C55.2691 10.8241 55.3437 11.1717 55.1748 11.4319Z" fill="url(#paint35_linear_9697_68)"/>
<path d="M61.9857 38.1115C61.8168 38.3718 61.4684 38.4462 61.2075 38.2777C60.9466 38.1093 60.872 37.7617 61.0409 37.5015C61.2098 37.2412 61.5582 37.1668 61.8191 37.3353C62.08 37.5037 62.1546 37.8513 61.9857 38.1115Z" fill="url(#paint36_linear_9697_68)"/>
<path d="M292.899 197.911C292.73 198.171 292.382 198.245 292.121 198.077C291.86 197.909 291.785 197.561 291.954 197.301C292.123 197.04 292.471 196.966 292.732 197.135C292.993 197.303 293.068 197.651 292.899 197.911Z" fill="url(#paint37_linear_9697_68)"/>
<path d="M310.677 112.688C310.508 112.948 310.16 113.022 309.899 112.854C309.638 112.685 309.563 112.338 309.732 112.078C309.901 111.817 310.25 111.743 310.51 111.911C310.771 112.08 310.846 112.427 310.677 112.688Z" fill="url(#paint38_linear_9697_68)"/>
<path d="M73.1983 -40.6559C73.0294 -40.3956 72.681 -40.3212 72.4201 -40.4897C72.1592 -40.6582 72.0846 -41.0057 72.2535 -41.266C72.4224 -41.5262 72.7708 -41.6006 73.0317 -41.4321C73.2926 -41.2637 73.3672 -40.9161 73.1983 -40.6559Z" fill="url(#paint39_linear_9697_68)"/>
<path d="M10.1238 56.5402C9.95495 56.8004 9.60655 56.8748 9.34565 56.7064C9.08475 56.5379 9.01016 56.1904 9.17905 55.9301C9.34793 55.6699 9.69634 55.5954 9.95723 55.7639C10.2181 55.9324 10.2927 56.2799 10.1238 56.5402Z" fill="url(#paint40_linear_9697_68)"/>
<path d="M279.157 154.5C278.988 154.761 278.639 154.835 278.378 154.667C278.118 154.498 278.043 154.151 278.212 153.89C278.381 153.63 278.729 153.556 278.99 153.724C279.251 153.893 279.325 154.24 279.157 154.5Z" fill="url(#paint41_linear_9697_68)"/>
<path d="M38.0002 -1.21771C37.8313 -0.957466 37.4829 -0.883057 37.222 -1.05152C36.9611 -1.21999 36.8865 -1.56753 37.0554 -1.82777C37.2243 -2.08802 37.5727 -2.16242 37.8336 -1.99397C38.0945 -1.8255 38.1691 -1.47796 38.0002 -1.21771Z" fill="url(#paint42_linear_9697_68)"/>
<path d="M359.91 106.822C359.741 107.082 359.392 107.156 359.131 106.988C358.871 106.819 358.796 106.472 358.965 106.212C359.134 105.951 359.482 105.877 359.743 106.045C360.004 106.214 360.078 106.561 359.91 106.822Z" fill="url(#paint43_linear_9697_68)"/>
<path d="M255.073 39.1269C254.904 39.3872 254.555 39.4616 254.295 39.2931C254.034 39.1246 253.959 38.7771 254.128 38.5169C254.297 38.2566 254.645 38.1822 254.906 38.3507C255.167 38.5191 255.242 38.8667 255.073 39.1269Z" fill="url(#paint44_linear_9697_68)"/>
<path d="M293.029 99.9548C292.86 100.215 292.511 100.289 292.25 100.121C291.989 99.9525 291.915 99.6049 292.084 99.3447C292.253 99.0844 292.601 99.0101 292.862 99.1785C293.123 99.347 293.197 99.6945 293.029 99.9548Z" fill="url(#paint45_linear_9697_68)"/>
<path d="M51.8722 -55.7634C51.7033 -55.5031 51.3549 -55.4287 51.094 -55.5972C50.8331 -55.7657 50.7585 -56.1132 50.9274 -56.3734C51.0963 -56.6337 51.4447 -56.7081 51.7056 -56.5396C51.9665 -56.3712 52.0411 -56.0236 51.8722 -55.7634Z" fill="url(#paint46_linear_9697_68)"/>
<path d="M263.834 125.667C263.665 125.927 263.317 126.002 263.056 125.833C262.795 125.665 262.72 125.317 262.889 125.057C263.058 124.797 263.406 124.722 263.667 124.891C263.928 125.059 264.003 125.407 263.834 125.667Z" fill="url(#paint47_linear_9697_68)"/>
<path d="M344.59 108.962C344.478 109.135 344.246 109.185 344.072 109.073C343.898 108.96 343.848 108.729 343.961 108.555C344.073 108.382 344.305 108.332 344.479 108.444C344.653 108.557 344.703 108.788 344.59 108.962Z" fill="url(#paint48_linear_9697_68)"/>
<path d="M239.753 41.2671C239.641 41.4406 239.409 41.4902 239.235 41.3779C239.061 41.2656 239.011 41.0339 239.124 40.8604C239.236 40.6869 239.468 40.6373 239.642 40.7496C239.816 40.8619 239.866 41.0936 239.753 41.2671Z" fill="url(#paint49_linear_9697_68)"/>
<path d="M103.434 -46.7564C103.321 -46.5829 103.089 -46.5333 102.915 -46.6456C102.741 -46.7579 102.692 -46.9896 102.804 -47.1631C102.917 -47.3366 103.149 -47.3862 103.323 -47.2739C103.497 -47.1616 103.547 -46.9299 103.434 -46.7564Z" fill="url(#paint50_linear_9697_68)"/>
<path d="M40.3596 50.4396C40.247 50.6131 40.0147 50.6627 39.8408 50.5504C39.6669 50.4381 39.6171 50.2064 39.7297 50.0329C39.8423 49.8594 40.0746 49.8098 40.2485 49.9221C40.4224 50.0344 40.4722 50.2661 40.3596 50.4396Z" fill="url(#paint51_linear_9697_68)"/>
<path d="M65.0121 96.4385C64.8995 96.612 64.6673 96.6616 64.4933 96.5493C64.3194 96.437 64.2697 96.2053 64.3823 96.0318C64.4949 95.8583 64.7271 95.8087 64.9011 95.921C65.075 96.0333 65.1247 96.265 65.0121 96.4385Z" fill="url(#paint52_linear_9697_68)"/>
<path d="M173.382 186.914C173.27 187.087 173.037 187.137 172.864 187.025C172.69 186.912 172.64 186.681 172.752 186.507C172.865 186.334 173.097 186.284 173.271 186.396C173.445 186.509 173.495 186.74 173.382 186.914Z" fill="url(#paint53_linear_9697_68)"/>
<path d="M83.0097 -72.4224C82.8971 -72.2489 82.6649 -72.1993 82.4909 -72.3116C82.317 -72.4239 82.2673 -72.6556 82.3799 -72.8291C82.4925 -73.0026 82.7247 -73.0522 82.8987 -72.9399C83.0726 -72.8276 83.1223 -72.5959 83.0097 -72.4224Z" fill="url(#paint54_linear_9697_68)"/>
<path d="M333.885 109.625C333.772 109.798 333.54 109.848 333.366 109.736C333.192 109.623 333.142 109.392 333.255 109.218C333.368 109.045 333.6 108.995 333.774 109.107C333.948 109.22 333.997 109.451 333.885 109.625Z" fill="url(#paint55_linear_9697_68)"/>
<path d="M229.048 41.9302C228.935 42.1037 228.703 42.1533 228.529 42.041C228.355 41.9287 228.306 41.697 228.418 41.5235C228.531 41.35 228.763 41.3004 228.937 41.4127C229.111 41.525 229.161 41.7567 229.048 41.9302Z" fill="url(#paint56_linear_9697_68)"/>
<path d="M92.7285 -46.0933C92.6159 -45.9198 92.3836 -45.8702 92.2097 -45.9825C92.0358 -46.0948 91.986 -46.3265 92.0986 -46.5C92.2112 -46.6735 92.4435 -46.7231 92.6174 -46.6108C92.7914 -46.4985 92.8411 -46.2668 92.7285 -46.0933Z" fill="url(#paint57_linear_9697_68)"/>
<path d="M239.516 -49.0739C239.404 -48.9004 239.171 -48.8508 238.997 -48.9631C238.823 -49.0754 238.774 -49.3071 238.886 -49.4806C238.999 -49.6541 239.231 -49.7037 239.405 -49.5914C239.579 -49.4791 239.629 -49.2474 239.516 -49.0739Z" fill="url(#paint58_linear_9697_68)"/>
<path d="M29.6541 51.1027C29.5415 51.2762 29.3092 51.3258 29.1353 51.2135C28.9613 51.1012 28.9116 50.8695 29.0242 50.696C29.1368 50.5225 29.3691 50.4729 29.543 50.5852C29.7169 50.6975 29.7666 50.9292 29.6541 51.1027Z" fill="url(#paint59_linear_9697_68)"/>
<path d="M54.3067 97.1016C54.1941 97.2751 53.9618 97.3247 53.7879 97.2124C53.614 97.1001 53.5643 96.8684 53.6769 96.6949C53.7894 96.5214 54.0217 96.4718 54.1956 96.5841C54.3696 96.6964 54.4193 96.9281 54.3067 97.1016Z" fill="url(#paint60_linear_9697_68)"/>
<path d="M205.586 214.393C205.473 214.566 205.241 214.616 205.067 214.504C204.893 214.391 204.843 214.16 204.956 213.986C205.069 213.813 205.301 213.763 205.475 213.875C205.649 213.988 205.698 214.219 205.586 214.393Z" fill="url(#paint61_linear_9697_68)"/>
<path d="M115.213 -44.9436C115.101 -44.7701 114.868 -44.7205 114.694 -44.8328C114.521 -44.9451 114.471 -45.1768 114.583 -45.3503C114.696 -45.5238 114.928 -45.5734 115.102 -45.4611C115.276 -45.3488 115.326 -45.1171 115.213 -44.9436Z" fill="url(#paint62_linear_9697_68)"/>
<path d="M256.494 155.909C256.381 156.083 256.149 156.133 255.975 156.02C255.801 155.908 255.751 155.676 255.864 155.503C255.976 155.329 256.209 155.28 256.383 155.392C256.557 155.504 256.606 155.736 256.494 155.909Z" fill="url(#paint63_linear_9697_68)"/>
<path d="M304.921 90.9225C304.808 91.096 304.576 91.1456 304.402 91.0333C304.228 90.921 304.178 90.6893 304.291 90.5158C304.404 90.3423 304.636 90.2927 304.81 90.405C304.984 90.5173 305.034 90.749 304.921 90.9225Z" fill="url(#paint64_linear_9697_68)"/>
<path d="M137.816 -31.2399C137.703 -31.0664 137.471 -31.0168 137.297 -31.1291C137.123 -31.2414 137.074 -31.4731 137.186 -31.6466C137.299 -31.8201 137.531 -31.8697 137.705 -31.7574C137.879 -31.6451 137.929 -31.4134 137.816 -31.2399Z" fill="url(#paint65_linear_9697_68)"/>
<path d="M200.084 23.2278C199.971 23.4013 199.739 23.4509 199.565 23.3386C199.391 23.2262 199.342 22.9945 199.454 22.8211C199.567 22.6476 199.799 22.5979 199.973 22.7103C200.147 22.8226 200.197 23.0543 200.084 23.2278Z" fill="url(#paint66_linear_9697_68)"/>
<path d="M63.7646 -64.7957C63.652 -64.6222 63.4197 -64.5726 63.2458 -64.6849C63.0718 -64.7972 63.0221 -65.0289 63.1347 -65.2024C63.2473 -65.3759 63.4796 -65.4255 63.6535 -65.3132C63.8274 -65.2009 63.8772 -64.9692 63.7646 -64.7957Z" fill="url(#paint67_linear_9697_68)"/>
<path d="M0.690128 32.4003C0.577538 32.5738 0.345268 32.6234 0.171337 32.5111C-0.00259351 32.3988 -0.0523215 32.1671 0.0602684 31.9936C0.172858 31.8201 0.40513 31.7705 0.57906 31.8828C0.752991 31.9951 0.802718 32.2268 0.690128 32.4003Z" fill="url(#paint68_linear_9697_68)"/>
<path d="M326.3 114.085C326.187 114.259 325.955 114.308 325.781 114.196C325.607 114.084 325.557 113.852 325.67 113.679C325.782 113.505 326.015 113.455 326.189 113.568C326.362 113.68 326.412 113.912 326.3 114.085Z" fill="url(#paint69_linear_9697_68)"/>
<path d="M85.1432 -41.6329C85.0306 -41.4594 84.7983 -41.4098 84.6244 -41.5221C84.4504 -41.6344 84.4007 -41.8661 84.5133 -42.0396C84.6259 -42.2131 84.8582 -42.2627 85.0321 -42.1504C85.206 -42.0381 85.2558 -41.8064 85.1432 -41.6329Z" fill="url(#paint70_linear_9697_68)"/>
<path d="M267.116 -41.6448C267.003 -41.4713 266.771 -41.4217 266.597 -41.5341C266.423 -41.6464 266.374 -41.8781 266.486 -42.0516C266.599 -42.2251 266.831 -42.2747 267.005 -42.1623C267.179 -42.05 267.229 -41.8183 267.116 -41.6448Z" fill="url(#paint71_linear_9697_68)"/>
<path d="M22.0687 55.5631C21.9561 55.7366 21.7239 55.7862 21.5499 55.6739C21.376 55.5616 21.3263 55.3299 21.4389 55.1564C21.5514 54.9829 21.7837 54.9333 21.9577 55.0456C22.1316 55.1579 22.1813 55.3896 22.0687 55.5631Z" fill="url(#paint72_linear_9697_68)"/>
<path d="M46.7214 101.562C46.6088 101.735 46.3765 101.785 46.2026 101.673C46.0286 101.56 45.9789 101.329 46.0915 101.155C46.2041 100.982 46.4364 100.932 46.6103 101.044C46.7842 101.157 46.834 101.388 46.7214 101.562Z" fill="url(#paint73_linear_9697_68)"/>
<path d="M227.386 211.09C227.274 211.263 227.041 211.313 226.867 211.2C226.694 211.088 226.644 210.856 226.756 210.683C226.869 210.509 227.101 210.46 227.275 210.572C227.449 210.685 227.499 210.916 227.386 211.09Z" fill="url(#paint74_linear_9697_68)"/>
<path d="M137.014 -48.2465C136.901 -48.073 136.669 -48.0234 136.495 -48.1357C136.321 -48.248 136.271 -48.4797 136.384 -48.6532C136.496 -48.8267 136.729 -48.8763 136.902 -48.764C137.076 -48.6517 137.126 -48.42 137.014 -48.2465Z" fill="url(#paint75_linear_9697_68)"/>
<path d="M280.205 182.361C280.093 182.535 279.861 182.584 279.687 182.472C279.513 182.36 279.463 182.128 279.576 181.955C279.688 181.781 279.92 181.732 280.094 181.844C280.268 181.956 280.318 182.188 280.205 182.361Z" fill="url(#paint76_linear_9697_68)"/>
<path d="M276.971 193.197C276.859 193.37 276.627 193.42 276.453 193.307C276.279 193.195 276.229 192.963 276.342 192.79C276.454 192.616 276.686 192.567 276.86 192.679C277.034 192.791 277.084 193.023 276.971 193.197Z" fill="url(#paint77_linear_9697_68)"/>
<path d="M271.598 107.507C271.485 107.68 271.253 107.73 271.079 107.618C270.905 107.505 270.855 107.274 270.968 107.1C271.081 106.927 271.313 106.877 271.487 106.99C271.661 107.102 271.71 107.334 271.598 107.507Z" fill="url(#paint78_linear_9697_68)"/>
<path d="M310.404 138.581C310.291 138.754 310.059 138.804 309.885 138.691C309.711 138.579 309.661 138.347 309.774 138.174C309.886 138 310.119 137.951 310.292 138.063C310.466 138.175 310.516 138.407 310.404 138.581Z" fill="url(#paint79_linear_9697_68)"/>
<path d="M69.2472 -17.1376C69.1346 -16.9641 68.9023 -16.9145 68.7284 -17.0268C68.5544 -17.1391 68.5047 -17.3708 68.6173 -17.5443C68.7299 -17.7178 68.9622 -17.7674 69.1361 -17.6551C69.31 -17.5428 69.3597 -17.3111 69.2472 -17.1376Z" fill="url(#paint80_linear_9697_68)"/>
<path d="M6.17272 80.0584C6.06013 80.2319 5.82786 80.2815 5.65393 80.1692C5.48 80.0569 5.43027 79.8252 5.54286 79.6517C5.65545 79.4782 5.88772 79.4286 6.06166 79.5409C6.23559 79.6532 6.28531 79.8849 6.17272 80.0584Z" fill="url(#paint81_linear_9697_68)"/>
<path d="M273.319 211.56C273.207 211.734 272.974 211.783 272.8 211.671C272.626 211.559 272.577 211.327 272.689 211.154C272.802 210.98 273.034 210.931 273.208 211.043C273.382 211.155 273.432 211.387 273.319 211.56Z" fill="url(#paint82_linear_9697_68)"/>
<path d="M335.638 96.942C335.525 97.1155 335.293 97.1651 335.119 97.0528C334.945 96.9404 334.895 96.7088 335.008 96.5353C335.12 96.3618 335.353 96.3122 335.526 96.4245C335.7 96.5368 335.75 96.7685 335.638 96.942Z" fill="url(#paint83_linear_9697_68)"/>
<path d="M230.801 29.2473C230.688 29.4207 230.456 29.4703 230.282 29.358C230.108 29.2457 230.058 29.014 230.171 28.8405C230.283 28.667 230.516 28.6174 230.69 28.7297C230.863 28.8421 230.913 29.0738 230.801 29.2473Z" fill="url(#paint84_linear_9697_68)"/>
<path d="M71.9439 120.522C71.8313 120.696 71.599 120.746 71.4251 120.633C71.2512 120.521 71.2014 120.289 71.314 120.116C71.4266 119.942 71.6589 119.893 71.8328 120.005C72.0067 120.117 72.0565 120.349 71.9439 120.522Z" fill="url(#paint85_linear_9697_68)"/>
<path d="M335.326 77.8015C335.214 77.975 334.981 78.0246 334.807 77.9122C334.634 77.7999 334.584 77.5682 334.696 77.3947C334.809 77.2212 335.041 77.1716 335.215 77.284C335.389 77.3963 335.439 77.628 335.326 77.8015Z" fill="url(#paint86_linear_9697_68)"/>
<path d="M230.489 10.1067C230.377 10.2802 230.145 10.3298 229.971 10.2175C229.797 10.1052 229.747 9.87354 229.859 9.70004C229.972 9.52654 230.204 9.47694 230.378 9.58925C230.552 9.70155 230.602 9.93324 230.489 10.1067Z" fill="url(#paint87_linear_9697_68)"/>
<path d="M299.405 71.5408C299.293 71.7143 299.06 71.7639 298.886 71.6516C298.713 71.5393 298.663 71.3076 298.775 71.1341C298.888 70.9606 299.12 70.911 299.294 71.0233C299.468 71.1356 299.518 71.3673 299.405 71.5408Z" fill="url(#paint88_linear_9697_68)"/>
<path d="M194.568 3.8461C194.456 4.01959 194.223 4.0692 194.049 3.95689C193.876 3.84458 193.826 3.61288 193.938 3.43938C194.051 3.26588 194.283 3.21629 194.457 3.3286C194.631 3.4409 194.681 3.6726 194.568 3.8461Z" fill="url(#paint89_linear_9697_68)"/>
<path d="M289.503 85.4232C289.39 85.5966 289.158 85.6463 288.984 85.534C288.81 85.4216 288.76 85.1899 288.873 85.0164C288.986 84.8429 289.218 84.7934 289.392 84.9057C289.566 85.018 289.616 85.2496 289.503 85.4232Z" fill="url(#paint90_linear_9697_68)"/>
<path d="M122.398 -36.7392C122.285 -36.5657 122.053 -36.5161 121.879 -36.6284C121.705 -36.7407 121.656 -36.9724 121.768 -37.1459C121.881 -37.3194 122.113 -37.369 122.287 -37.2567C122.461 -37.1444 122.511 -36.9127 122.398 -36.7392Z" fill="url(#paint91_linear_9697_68)"/>
<path d="M100.686 138.19C100.573 138.364 100.341 138.413 100.167 138.301C99.993 138.189 99.9433 137.957 100.056 137.783C100.168 137.61 100.401 137.56 100.575 137.673C100.749 137.785 100.798 138.017 100.686 138.19Z" fill="url(#paint92_linear_9697_68)"/>
<path d="M332.191 103.629C332.079 103.803 331.846 103.852 331.672 103.74C331.499 103.628 331.449 103.396 331.561 103.223C331.674 103.049 331.906 103 332.08 103.112C332.254 103.224 332.304 103.456 332.191 103.629Z" fill="url(#paint93_linear_9697_68)"/>
<path d="M227.354 35.9347C227.242 36.1082 227.01 36.1578 226.836 36.0455C226.662 35.9332 226.612 35.7015 226.724 35.528C226.837 35.3545 227.069 35.3049 227.243 35.4172C227.417 35.5295 227.467 35.7612 227.354 35.9347Z" fill="url(#paint94_linear_9697_68)"/>
<path d="M271.417 36.5341C271.304 36.7076 271.072 36.7572 270.898 36.6449C270.724 36.5326 270.674 36.3009 270.787 36.1274C270.899 35.9539 271.132 35.9043 271.306 36.0166C271.48 36.1289 271.529 36.3606 271.417 36.5341Z" fill="url(#paint95_linear_9697_68)"/>
<path d="M91.0349 -52.0888C90.9223 -51.9153 90.69 -51.8657 90.5161 -51.978C90.3422 -52.0903 90.2924 -52.322 90.405 -52.4955C90.5176 -52.669 90.7499 -52.7186 90.9238 -52.6063C91.0978 -52.494 91.1475 -52.2623 91.0349 -52.0888Z" fill="url(#paint96_linear_9697_68)"/>
<path d="M27.9605 45.1071C27.8479 45.2806 27.6157 45.3302 27.4417 45.2179C27.2678 45.1056 27.2181 44.8739 27.3307 44.7004C27.4433 44.5269 27.6755 44.4773 27.8495 44.5896C28.0234 44.7019 28.0731 44.9336 27.9605 45.1071Z" fill="url(#paint97_linear_9697_68)"/>
<path d="M52.6131 91.1061C52.5005 91.2796 52.2682 91.3292 52.0943 91.2169C51.9204 91.1046 51.8706 90.8729 51.9832 90.6994C52.0958 90.5259 52.3281 90.4763 52.502 90.5886C52.6759 90.7009 52.7257 90.9326 52.6131 91.1061Z" fill="url(#paint98_linear_9697_68)"/>
<path d="M14.7976 14.1032C14.685 14.2767 14.4527 14.3263 14.2788 14.214C14.1049 14.1017 14.0552 13.87 14.1677 13.6965C14.2803 13.523 14.5126 13.4734 14.6865 13.5857C14.8605 13.698 14.9102 13.9297 14.7976 14.1032Z" fill="url(#paint99_linear_9697_68)"/>
<path d="M131.615 148.357C131.502 148.531 131.27 148.58 131.096 148.468C130.922 148.356 130.872 148.124 130.985 147.951C131.097 147.777 131.33 147.727 131.504 147.84C131.678 147.952 131.727 148.184 131.615 148.357Z" fill="url(#paint100_linear_9697_68)"/>
<path d="M180.608 175.091C180.495 175.265 180.263 175.314 180.089 175.202C179.915 175.09 179.865 174.858 179.978 174.684C180.091 174.511 180.323 174.461 180.497 174.574C180.671 174.686 180.721 174.918 180.608 175.091Z" fill="url(#paint101_linear_9697_68)"/>
<path d="M213.6 195.503C213.487 195.677 213.255 195.726 213.081 195.614C212.907 195.502 212.857 195.27 212.97 195.097C213.083 194.923 213.315 194.874 213.489 194.986C213.663 195.098 213.713 195.33 213.6 195.503Z" fill="url(#paint102_linear_9697_68)"/>
<path d="M316.723 71.3593C316.61 71.5328 316.378 71.5824 316.204 71.4701C316.03 71.3578 315.98 71.1261 316.093 70.9526C316.205 70.7791 316.438 70.7295 316.612 70.8418C316.786 70.9541 316.835 71.1858 316.723 71.3593Z" fill="url(#paint103_linear_9697_68)"/>
<path d="M211.886 3.6646C211.773 3.83809 211.541 3.8877 211.367 3.77538C211.193 3.66308 211.143 3.43139 211.256 3.25789C211.369 3.08439 211.601 3.03479 211.775 3.14709C211.949 3.25941 211.998 3.4911 211.886 3.6646Z" fill="url(#paint104_linear_9697_68)"/>
<path d="M273.693 47.1394C273.58 47.3129 273.348 47.3624 273.174 47.2501C273 47.1378 272.95 46.9061 273.063 46.7326C273.176 46.5591 273.408 46.5095 273.582 46.6219C273.756 46.7342 273.805 46.9659 273.693 47.1394Z" fill="url(#paint105_linear_9697_68)"/>
<path d="M168.856 -20.5554C168.743 -20.3819 168.511 -20.3323 168.337 -20.4446C168.163 -20.5569 168.113 -20.7886 168.226 -20.9621C168.339 -21.1356 168.571 -21.1852 168.745 -21.0729C168.919 -20.9606 168.969 -20.7289 168.856 -20.5554Z" fill="url(#paint106_linear_9697_68)"/>
<path d="M283.45 68.591C283.337 68.7645 283.105 68.8141 282.931 68.7018C282.757 68.5895 282.707 68.3578 282.82 68.1843C282.932 68.0108 283.165 67.9612 283.338 68.0735C283.512 68.1859 283.562 68.4175 283.45 68.591Z" fill="url(#paint107_linear_9697_68)"/>
<path d="M178.613 0.896332C178.5 1.06983 178.268 1.11944 178.094 1.00713C177.92 0.894814 177.87 0.663124 177.983 0.489624C178.095 0.316124 178.328 0.266525 178.502 0.37883C178.675 0.491142 178.725 0.722839 178.613 0.896332Z" fill="url(#paint108_linear_9697_68)"/>
<path d="M339.921 117.533C339.809 117.707 339.577 117.757 339.403 117.644C339.229 117.532 339.179 117.3 339.292 117.127C339.404 116.953 339.636 116.904 339.81 117.016C339.984 117.128 340.034 117.36 339.921 117.533Z" fill="url(#paint109_linear_9697_68)"/>
<path d="M98.765 -38.1847C98.6525 -38.0112 98.4202 -37.9616 98.2462 -38.0739C98.0723 -38.1862 98.0226 -38.4179 98.1352 -38.5914C98.2478 -38.7649 98.48 -38.8145 98.654 -38.7022C98.8279 -38.5899 98.8776 -38.3582 98.765 -38.1847Z" fill="url(#paint110_linear_9697_68)"/>
<path d="M35.6906 59.0113C35.578 59.1848 35.3457 59.2344 35.1718 59.1221C34.9979 59.0098 34.9482 58.778 35.0607 58.6046C35.1733 58.4311 35.4056 58.3815 35.5795 58.4938C35.7535 58.6061 35.8032 58.8378 35.6906 59.0113Z" fill="url(#paint111_linear_9697_68)"/>
<path d="M60.3432 105.01C60.2306 105.184 59.9983 105.233 59.8244 105.121C59.6504 105.009 59.6007 104.777 59.7133 104.603C59.8259 104.43 60.0582 104.38 60.2321 104.493C60.406 104.605 60.4558 104.837 60.3432 105.01Z" fill="url(#paint112_linear_9697_68)"/>
<path d="M165.797 191.374C165.684 191.548 165.452 191.598 165.278 191.485C165.104 191.373 165.054 191.141 165.167 190.968C165.28 190.794 165.512 190.745 165.686 190.857C165.86 190.969 165.91 191.201 165.797 191.374Z" fill="url(#paint113_linear_9697_68)"/>
<path d="M75.4244 -67.9621C75.3118 -67.7886 75.0795 -67.739 74.9056 -67.8513C74.7317 -67.9636 74.682 -68.1953 74.7945 -68.3688C74.9071 -68.5423 75.1394 -68.5919 75.3133 -68.4796C75.4873 -68.3672 75.537 -68.1356 75.4244 -67.9621Z" fill="url(#paint114_linear_9697_68)"/>
<path d="M251.562 183.474C251.449 183.647 251.217 183.697 251.043 183.585C250.869 183.472 250.819 183.241 250.932 183.067C251.045 182.894 251.277 182.844 251.451 182.956C251.625 183.069 251.674 183.3 251.562 183.474Z" fill="url(#paint115_linear_9697_68)"/>
<path d="M261.347 199.374C261.235 199.547 261.003 199.597 260.829 199.484C260.655 199.372 260.605 199.14 260.718 198.967C260.83 198.793 261.062 198.744 261.236 198.856C261.41 198.968 261.46 199.2 261.347 199.374Z" fill="url(#paint116_linear_9697_68)"/>
<path d="M86.155 -5.32876C86.0424 -5.15526 85.8101 -5.10565 85.6362 -5.21796C85.4623 -5.33027 85.4126 -5.56197 85.5251 -5.73546C85.6377 -5.90896 85.87 -5.95856 86.0439 -5.84625C86.2179 -5.73394 86.2676 -5.50225 86.155 -5.32876Z" fill="url(#paint117_linear_9697_68)"/>
<path d="M23.0805 91.8673C22.9679 92.0408 22.7357 92.0904 22.5617 91.9781C22.3878 91.8658 22.3381 91.6341 22.4507 91.4606C22.5633 91.2871 22.7955 91.2375 22.9695 91.3498C23.1434 91.4621 23.1931 91.6938 23.0805 91.8673Z" fill="url(#paint118_linear_9697_68)"/>
<path d="M59.8227 180.665C59.8227 181.718 58.9665 182.572 57.9104 182.572C56.8542 182.572 55.998 181.718 55.998 180.665C55.998 179.611 56.8542 178.757 57.9104 178.757C58.9665 178.757 59.8227 179.611 59.8227 180.665Z" fill="url(#paint119_linear_9697_68)"/>
<path d="M109.765 -25.1631C109.765 -24.1096 108.909 -23.2555 107.853 -23.2555C106.797 -23.2555 105.941 -24.1096 105.941 -25.1631C105.941 -26.2166 106.797 -27.0706 107.853 -27.0706C108.909 -27.0706 109.765 -26.2166 109.765 -25.1631Z" fill="url(#paint120_linear_9697_68)"/>
<path d="M270.107 188.968C270.107 190.021 269.251 190.875 268.195 190.875C267.138 190.875 266.282 190.021 266.282 188.968C266.282 187.914 267.138 187.06 268.195 187.06C269.251 187.06 270.107 187.914 270.107 188.968Z" fill="url(#paint121_linear_9697_68)"/>
<path d="M49.7465 79.7173C49.7465 80.7709 48.8904 81.6249 47.8342 81.6249C46.7781 81.6249 45.9219 80.7709 45.9219 79.7173C45.9219 78.6638 46.7781 77.8098 47.8342 77.8098C48.8904 77.8098 49.7465 78.6638 49.7465 79.7173Z" fill="url(#paint122_linear_9697_68)"/>
<path d="M339.325 -28.6591C339.325 -27.6056 338.469 -26.7516 337.413 -26.7516C336.357 -26.7516 335.501 -27.6056 335.501 -28.6591C335.501 -29.7126 336.357 -30.5667 337.413 -30.5667C338.469 -30.5667 339.325 -29.7126 339.325 -28.6591Z" fill="url(#paint123_linear_9697_68)"/>
<path fill-rule="evenodd" clip-rule="evenodd" d="M57.6235 45.9722L46.2744 43.4187H45.9575L46.116 43.383L45.9575 43.3474H46.2744L57.6235 40.7938L60.1771 29.4444V29.1277L60.2127 29.286L60.2484 29.1276V29.4445L62.802 40.7938L74.1513 43.3474H74.4682L74.3097 43.383L74.4682 43.4186H74.1513L62.802 45.9722L60.2484 57.3215V57.6383L60.2127 57.4799L60.1771 57.6383V57.3215L57.6235 45.9722Z" fill="#7367F0"/>
<path fill-rule="evenodd" clip-rule="evenodd" d="M302.613 69.9191L296.346 68.5091H296.17L296.258 68.4893L296.17 68.4696H296.346L302.613 67.0595L304.023 60.7918V60.6172L304.043 60.7045L304.062 60.6171V60.7919L305.472 67.0595L311.739 68.4696H311.915L311.827 68.4893L311.915 68.5091H311.739L305.473 69.9191L304.062 76.187V76.3617L304.043 76.2743L304.023 76.3617V76.187L302.613 69.9191Z" fill="#7367F0"/>
</g>
<defs>
<linearGradient id="paint0_linear_9697_68" x1="163.668" y1="387.072" x2="461.779" y2="60.5657" gradientUnits="userSpaceOnUse">
<stop stop-color="#7367F0"/>
<stop offset="1" stop-color="#9E95F5"/>
</linearGradient>
<linearGradient id="paint1_linear_9697_68" x1="163.668" y1="387.072" x2="461.779" y2="60.5657" gradientUnits="userSpaceOnUse">
<stop stop-color="#7367F0"/>
<stop offset="1" stop-color="#9E95F5"/>
</linearGradient>
<linearGradient id="paint2_linear_9697_68" x1="163.668" y1="387.072" x2="461.779" y2="60.5657" gradientUnits="userSpaceOnUse">
<stop stop-color="#7367F0"/>
<stop offset="1" stop-color="#9E95F5"/>
</linearGradient>
<linearGradient id="paint3_linear_9697_68" x1="163.668" y1="387.072" x2="461.779" y2="60.5657" gradientUnits="userSpaceOnUse">
<stop stop-color="#7367F0"/>
<stop offset="1" stop-color="#9E95F5"/>
</linearGradient>
<linearGradient id="paint4_linear_9697_68" x1="163.668" y1="387.072" x2="461.779" y2="60.5657" gradientUnits="userSpaceOnUse">
<stop stop-color="#7367F0"/>
<stop offset="1" stop-color="#9E95F5"/>
</linearGradient>
<linearGradient id="paint5_linear_9697_68" x1="163.668" y1="387.072" x2="461.779" y2="60.5657" gradientUnits="userSpaceOnUse">
<stop stop-color="#7367F0"/>
<stop offset="1" stop-color="#9E95F5"/>
</linearGradient>
<linearGradient id="paint6_linear_9697_68" x1="163.668" y1="387.072" x2="461.779" y2="60.5657" gradientUnits="userSpaceOnUse">
<stop stop-color="#7367F0"/>
<stop offset="1" stop-color="#9E95F5"/>
</linearGradient>
<linearGradient id="paint7_linear_9697_68" x1="163.668" y1="387.072" x2="461.779" y2="60.5657" gradientUnits="userSpaceOnUse">
<stop stop-color="#7367F0"/>
<stop offset="1" stop-color="#9E95F5"/>
</linearGradient>
<linearGradient id="paint8_linear_9697_68" x1="163.668" y1="387.072" x2="461.779" y2="60.5657" gradientUnits="userSpaceOnUse">
<stop stop-color="#7367F0"/>
<stop offset="1" stop-color="#9E95F5"/>
</linearGradient>
<linearGradient id="paint9_linear_9697_68" x1="163.668" y1="387.072" x2="461.779" y2="60.5657" gradientUnits="userSpaceOnUse">
<stop stop-color="#7367F0"/>
<stop offset="1" stop-color="#9E95F5"/>
</linearGradient>
<linearGradient id="paint10_linear_9697_68" x1="163.668" y1="387.072" x2="461.779" y2="60.5657" gradientUnits="userSpaceOnUse">
<stop stop-color="#7367F0"/>
<stop offset="1" stop-color="#9E95F5"/>
</linearGradient>
<linearGradient id="paint11_linear_9697_68" x1="163.668" y1="387.072" x2="461.779" y2="60.5657" gradientUnits="userSpaceOnUse">
<stop stop-color="#7367F0"/>
<stop offset="1" stop-color="#9E95F5"/>
</linearGradient>
<linearGradient id="paint12_linear_9697_68" x1="163.668" y1="387.072" x2="461.779" y2="60.5657" gradientUnits="userSpaceOnUse">
<stop stop-color="#7367F0"/>
<stop offset="1" stop-color="#9E95F5"/>
</linearGradient>
<linearGradient id="paint13_linear_9697_68" x1="163.668" y1="387.072" x2="461.779" y2="60.5657" gradientUnits="userSpaceOnUse">
<stop stop-color="#7367F0"/>
<stop offset="1" stop-color="#9E95F5"/>
</linearGradient>
<linearGradient id="paint14_linear_9697_68" x1="163.668" y1="387.072" x2="461.779" y2="60.5657" gradientUnits="userSpaceOnUse">
<stop stop-color="#7367F0"/>
<stop offset="1" stop-color="#9E95F5"/>
</linearGradient>
<linearGradient id="paint15_linear_9697_68" x1="163.668" y1="387.072" x2="461.779" y2="60.5657" gradientUnits="userSpaceOnUse">
<stop stop-color="#7367F0"/>
<stop offset="1" stop-color="#9E95F5"/>
</linearGradient>
<linearGradient id="paint16_linear_9697_68" x1="163.668" y1="387.072" x2="461.779" y2="60.5657" gradientUnits="userSpaceOnUse">
<stop stop-color="#7367F0"/>
<stop offset="1" stop-color="#9E95F5"/>
</linearGradient>
<linearGradient id="paint17_linear_9697_68" x1="163.668" y1="387.072" x2="461.779" y2="60.5657" gradientUnits="userSpaceOnUse">
<stop stop-color="#7367F0"/>
<stop offset="1" stop-color="#9E95F5"/>
</linearGradient>
<linearGradient id="paint18_linear_9697_68" x1="163.668" y1="387.072" x2="461.779" y2="60.5657" gradientUnits="userSpaceOnUse">
<stop stop-color="#7367F0"/>
<stop offset="1" stop-color="#9E95F5"/>
</linearGradient>
<linearGradient id="paint19_linear_9697_68" x1="163.668" y1="387.072" x2="461.779" y2="60.5657" gradientUnits="userSpaceOnUse">
<stop stop-color="#7367F0"/>
<stop offset="1" stop-color="#9E95F5"/>
</linearGradient>
<linearGradient id="paint20_linear_9697_68" x1="163.668" y1="387.072" x2="461.779" y2="60.5657" gradientUnits="userSpaceOnUse">
<stop stop-color="#7367F0"/>
<stop offset="1" stop-color="#9E95F5"/>
</linearGradient>
<linearGradient id="paint21_linear_9697_68" x1="163.668" y1="387.072" x2="461.779" y2="60.5657" gradientUnits="userSpaceOnUse">
<stop stop-color="#7367F0"/>
<stop offset="1" stop-color="#9E95F5"/>
</linearGradient>
<linearGradient id="paint22_linear_9697_68" x1="163.668" y1="387.072" x2="461.779" y2="60.5657" gradientUnits="userSpaceOnUse">
<stop stop-color="#7367F0"/>
<stop offset="1" stop-color="#9E95F5"/>
</linearGradient>
<linearGradient id="paint23_linear_9697_68" x1="163.668" y1="387.072" x2="461.779" y2="60.5657" gradientUnits="userSpaceOnUse">
<stop stop-color="#7367F0"/>
<stop offset="1" stop-color="#9E95F5"/>
</linearGradient>
<linearGradient id="paint24_linear_9697_68" x1="163.668" y1="387.072" x2="461.779" y2="60.5657" gradientUnits="userSpaceOnUse">
<stop stop-color="#7367F0"/>
<stop offset="1" stop-color="#9E95F5"/>
</linearGradient>
<linearGradient id="paint25_linear_9697_68" x1="163.668" y1="387.072" x2="461.779" y2="60.5657" gradientUnits="userSpaceOnUse">
<stop stop-color="#7367F0"/>
<stop offset="1" stop-color="#9E95F5"/>
</linearGradient>
<linearGradient id="paint26_linear_9697_68" x1="163.668" y1="387.072" x2="461.779" y2="60.5657" gradientUnits="userSpaceOnUse">
<stop stop-color="#7367F0"/>
<stop offset="1" stop-color="#9E95F5"/>
</linearGradient>
<linearGradient id="paint27_linear_9697_68" x1="163.668" y1="387.072" x2="461.779" y2="60.5657" gradientUnits="userSpaceOnUse">
<stop stop-color="#7367F0"/>
<stop offset="1" stop-color="#9E95F5"/>
</linearGradient>
<linearGradient id="paint28_linear_9697_68" x1="163.668" y1="387.072" x2="461.779" y2="60.5657" gradientUnits="userSpaceOnUse">
<stop stop-color="#7367F0"/>
<stop offset="1" stop-color="#9E95F5"/>
</linearGradient>
<linearGradient id="paint29_linear_9697_68" x1="163.668" y1="387.072" x2="461.779" y2="60.5657" gradientUnits="userSpaceOnUse">
<stop stop-color="#7367F0"/>
<stop offset="1" stop-color="#9E95F5"/>
</linearGradient>
<linearGradient id="paint30_linear_9697_68" x1="163.668" y1="387.072" x2="461.779" y2="60.5657" gradientUnits="userSpaceOnUse">
<stop stop-color="#7367F0"/>
<stop offset="1" stop-color="#9E95F5"/>
</linearGradient>
<linearGradient id="paint31_linear_9697_68" x1="163.668" y1="387.072" x2="461.779" y2="60.5657" gradientUnits="userSpaceOnUse">
<stop stop-color="#7367F0"/>
<stop offset="1" stop-color="#9E95F5"/>
</linearGradient>
<linearGradient id="paint32_linear_9697_68" x1="163.668" y1="387.072" x2="461.779" y2="60.5657" gradientUnits="userSpaceOnUse">
<stop stop-color="#7367F0"/>
<stop offset="1" stop-color="#9E95F5"/>
</linearGradient>
<linearGradient id="paint33_linear_9697_68" x1="163.668" y1="387.072" x2="461.779" y2="60.5657" gradientUnits="userSpaceOnUse">
<stop stop-color="#7367F0"/>
<stop offset="1" stop-color="#9E95F5"/>
</linearGradient>
<linearGradient id="paint34_linear_9697_68" x1="163.668" y1="387.072" x2="461.779" y2="60.5657" gradientUnits="userSpaceOnUse">
<stop stop-color="#7367F0"/>
<stop offset="1" stop-color="#9E95F5"/>
</linearGradient>
<linearGradient id="paint35_linear_9697_68" x1="163.668" y1="387.072" x2="461.779" y2="60.5657" gradientUnits="userSpaceOnUse">
<stop stop-color="#7367F0"/>
<stop offset="1" stop-color="#9E95F5"/>
</linearGradient>
<linearGradient id="paint36_linear_9697_68" x1="163.668" y1="387.072" x2="461.779" y2="60.5657" gradientUnits="userSpaceOnUse">
<stop stop-color="#7367F0"/>
<stop offset="1" stop-color="#9E95F5"/>
</linearGradient>
<linearGradient id="paint37_linear_9697_68" x1="163.668" y1="387.072" x2="461.779" y2="60.5657" gradientUnits="userSpaceOnUse">
<stop stop-color="#7367F0"/>
<stop offset="1" stop-color="#9E95F5"/>
</linearGradient>
<linearGradient id="paint38_linear_9697_68" x1="163.668" y1="387.072" x2="461.779" y2="60.5657" gradientUnits="userSpaceOnUse">
<stop stop-color="#7367F0"/>
<stop offset="1" stop-color="#9E95F5"/>
</linearGradient>
<linearGradient id="paint39_linear_9697_68" x1="163.668" y1="387.072" x2="461.779" y2="60.5657" gradientUnits="userSpaceOnUse">
<stop stop-color="#7367F0"/>
<stop offset="1" stop-color="#9E95F5"/>
</linearGradient>
<linearGradient id="paint40_linear_9697_68" x1="163.668" y1="387.072" x2="461.779" y2="60.5657" gradientUnits="userSpaceOnUse">
<stop stop-color="#7367F0"/>
<stop offset="1" stop-color="#9E95F5"/>
</linearGradient>
<linearGradient id="paint41_linear_9697_68" x1="163.668" y1="387.072" x2="461.779" y2="60.5657" gradientUnits="userSpaceOnUse">
<stop stop-color="#7367F0"/>
<stop offset="1" stop-color="#9E95F5"/>
</linearGradient>
<linearGradient id="paint42_linear_9697_68" x1="163.668" y1="387.072" x2="461.779" y2="60.5657" gradientUnits="userSpaceOnUse">
<stop stop-color="#7367F0"/>
<stop offset="1" stop-color="#9E95F5"/>
</linearGradient>
<linearGradient id="paint43_linear_9697_68" x1="163.668" y1="387.072" x2="461.779" y2="60.5657" gradientUnits="userSpaceOnUse">
<stop stop-color="#7367F0"/>
<stop offset="1" stop-color="#9E95F5"/>
</linearGradient>
<linearGradient id="paint44_linear_9697_68" x1="163.668" y1="387.072" x2="461.779" y2="60.5657" gradientUnits="userSpaceOnUse">
<stop stop-color="#7367F0"/>
<stop offset="1" stop-color="#9E95F5"/>
</linearGradient>
<linearGradient id="paint45_linear_9697_68" x1="163.668" y1="387.072" x2="461.779" y2="60.5657" gradientUnits="userSpaceOnUse">
<stop stop-color="#7367F0"/>
<stop offset="1" stop-color="#9E95F5"/>
</linearGradient>
<linearGradient id="paint46_linear_9697_68" x1="163.668" y1="387.072" x2="461.779" y2="60.5657" gradientUnits="userSpaceOnUse">
<stop stop-color="#7367F0"/>
<stop offset="1" stop-color="#9E95F5"/>
</linearGradient>
<linearGradient id="paint47_linear_9697_68" x1="163.668" y1="387.072" x2="461.779" y2="60.5657" gradientUnits="userSpaceOnUse">
<stop stop-color="#7367F0"/>
<stop offset="1" stop-color="#9E95F5"/>
</linearGradient>
<linearGradient id="paint48_linear_9697_68" x1="163.668" y1="387.072" x2="461.779" y2="60.5657" gradientUnits="userSpaceOnUse">
<stop stop-color="#7367F0"/>
<stop offset="1" stop-color="#9E95F5"/>
</linearGradient>
<linearGradient id="paint49_linear_9697_68" x1="163.668" y1="387.072" x2="461.779" y2="60.5657" gradientUnits="userSpaceOnUse">
<stop stop-color="#7367F0"/>
<stop offset="1" stop-color="#9E95F5"/>
</linearGradient>
<linearGradient id="paint50_linear_9697_68" x1="163.668" y1="387.072" x2="461.779" y2="60.5657" gradientUnits="userSpaceOnUse">
<stop stop-color="#7367F0"/>
<stop offset="1" stop-color="#9E95F5"/>
</linearGradient>
<linearGradient id="paint51_linear_9697_68" x1="163.668" y1="387.072" x2="461.779" y2="60.5657" gradientUnits="userSpaceOnUse">
<stop stop-color="#7367F0"/>
<stop offset="1" stop-color="#9E95F5"/>
</linearGradient>
<linearGradient id="paint52_linear_9697_68" x1="163.668" y1="387.072" x2="461.779" y2="60.5657" gradientUnits="userSpaceOnUse">
<stop stop-color="#7367F0"/>
<stop offset="1" stop-color="#9E95F5"/>
</linearGradient>
<linearGradient id="paint53_linear_9697_68" x1="163.668" y1="387.072" x2="461.779" y2="60.5657" gradientUnits="userSpaceOnUse">
<stop stop-color="#7367F0"/>
<stop offset="1" stop-color="#9E95F5"/>
</linearGradient>
<linearGradient id="paint54_linear_9697_68" x1="163.668" y1="387.072" x2="461.779" y2="60.5657" gradientUnits="userSpaceOnUse">
<stop stop-color="#7367F0"/>
<stop offset="1" stop-color="#9E95F5"/>
</linearGradient>
<linearGradient id="paint55_linear_9697_68" x1="163.668" y1="387.072" x2="461.779" y2="60.5657" gradientUnits="userSpaceOnUse">
<stop stop-color="#7367F0"/>
<stop offset="1" stop-color="#9E95F5"/>
</linearGradient>
<linearGradient id="paint56_linear_9697_68" x1="163.668" y1="387.072" x2="461.779" y2="60.5657" gradientUnits="userSpaceOnUse">
<stop stop-color="#7367F0"/>
<stop offset="1" stop-color="#9E95F5"/>
</linearGradient>
<linearGradient id="paint57_linear_9697_68" x1="163.668" y1="387.072" x2="461.779" y2="60.5657" gradientUnits="userSpaceOnUse">
<stop stop-color="#7367F0"/>
<stop offset="1" stop-color="#9E95F5"/>
</linearGradient>
<linearGradient id="paint58_linear_9697_68" x1="163.668" y1="387.072" x2="461.779" y2="60.5657" gradientUnits="userSpaceOnUse">
<stop stop-color="#7367F0"/>
<stop offset="1" stop-color="#9E95F5"/>
</linearGradient>
<linearGradient id="paint59_linear_9697_68" x1="163.668" y1="387.072" x2="461.779" y2="60.5657" gradientUnits="userSpaceOnUse">
<stop stop-color="#7367F0"/>
<stop offset="1" stop-color="#9E95F5"/>
</linearGradient>
<linearGradient id="paint60_linear_9697_68" x1="163.668" y1="387.072" x2="461.779" y2="60.5657" gradientUnits="userSpaceOnUse">
<stop stop-color="#7367F0"/>
<stop offset="1" stop-color="#9E95F5"/>
</linearGradient>
<linearGradient id="paint61_linear_9697_68" x1="163.668" y1="387.072" x2="461.779" y2="60.5657" gradientUnits="userSpaceOnUse">
<stop stop-color="#7367F0"/>
<stop offset="1" stop-color="#9E95F5"/>
</linearGradient>
<linearGradient id="paint62_linear_9697_68" x1="163.668" y1="387.072" x2="461.779" y2="60.5657" gradientUnits="userSpaceOnUse">
<stop stop-color="#7367F0"/>
<stop offset="1" stop-color="#9E95F5"/>
</linearGradient>
<linearGradient id="paint63_linear_9697_68" x1="163.668" y1="387.072" x2="461.779" y2="60.5657" gradientUnits="userSpaceOnUse">
<stop stop-color="#7367F0"/>
<stop offset="1" stop-color="#9E95F5"/>
</linearGradient>
<linearGradient id="paint64_linear_9697_68" x1="163.668" y1="387.072" x2="461.779" y2="60.5657" gradientUnits="userSpaceOnUse">
<stop stop-color="#7367F0"/>
<stop offset="1" stop-color="#9E95F5"/>
</linearGradient>
<linearGradient id="paint65_linear_9697_68" x1="163.668" y1="387.072" x2="461.779" y2="60.5657" gradientUnits="userSpaceOnUse">
<stop stop-color="#7367F0"/>
<stop offset="1" stop-color="#9E95F5"/>
</linearGradient>
<linearGradient id="paint66_linear_9697_68" x1="163.668" y1="387.072" x2="461.779" y2="60.5657" gradientUnits="userSpaceOnUse">
<stop stop-color="#7367F0"/>
<stop offset="1" stop-color="#9E95F5"/>
</linearGradient>
<linearGradient id="paint67_linear_9697_68" x1="163.668" y1="387.072" x2="461.779" y2="60.5657" gradientUnits="userSpaceOnUse">
<stop stop-color="#7367F0"/>
<stop offset="1" stop-color="#9E95F5"/>
</linearGradient>
<linearGradient id="paint68_linear_9697_68" x1="163.668" y1="387.072" x2="461.779" y2="60.5657" gradientUnits="userSpaceOnUse">
<stop stop-color="#7367F0"/>
<stop offset="1" stop-color="#9E95F5"/>
</linearGradient>
<linearGradient id="paint69_linear_9697_68" x1="163.668" y1="387.072" x2="461.779" y2="60.5657" gradientUnits="userSpaceOnUse">
<stop stop-color="#7367F0"/>
<stop offset="1" stop-color="#9E95F5"/>
</linearGradient>
<linearGradient id="paint70_linear_9697_68" x1="163.668" y1="387.072" x2="461.779" y2="60.5657" gradientUnits="userSpaceOnUse">
<stop stop-color="#7367F0"/>
<stop offset="1" stop-color="#9E95F5"/>
</linearGradient>
<linearGradient id="paint71_linear_9697_68" x1="163.668" y1="387.072" x2="461.779" y2="60.5657" gradientUnits="userSpaceOnUse">
<stop stop-color="#7367F0"/>
<stop offset="1" stop-color="#9E95F5"/>
</linearGradient>
<linearGradient id="paint72_linear_9697_68" x1="163.668" y1="387.072" x2="461.779" y2="60.5657" gradientUnits="userSpaceOnUse">
<stop stop-color="#7367F0"/>
<stop offset="1" stop-color="#9E95F5"/>
</linearGradient>
<linearGradient id="paint73_linear_9697_68" x1="163.668" y1="387.072" x2="461.779" y2="60.5657" gradientUnits="userSpaceOnUse">
<stop stop-color="#7367F0"/>
<stop offset="1" stop-color="#9E95F5"/>
</linearGradient>
<linearGradient id="paint74_linear_9697_68" x1="163.668" y1="387.072" x2="461.779" y2="60.5657" gradientUnits="userSpaceOnUse">
<stop stop-color="#7367F0"/>
<stop offset="1" stop-color="#9E95F5"/>
</linearGradient>
<linearGradient id="paint75_linear_9697_68" x1="163.668" y1="387.072" x2="461.779" y2="60.5657" gradientUnits="userSpaceOnUse">
<stop stop-color="#7367F0"/>
<stop offset="1" stop-color="#9E95F5"/>
</linearGradient>
<linearGradient id="paint76_linear_9697_68" x1="163.668" y1="387.072" x2="461.779" y2="60.5657" gradientUnits="userSpaceOnUse">
<stop stop-color="#7367F0"/>
<stop offset="1" stop-color="#9E95F5"/>
</linearGradient>
<linearGradient id="paint77_linear_9697_68" x1="163.668" y1="387.072" x2="461.779" y2="60.5657" gradientUnits="userSpaceOnUse">
<stop stop-color="#7367F0"/>
<stop offset="1" stop-color="#9E95F5"/>
</linearGradient>
<linearGradient id="paint78_linear_9697_68" x1="163.668" y1="387.072" x2="461.779" y2="60.5657" gradientUnits="userSpaceOnUse">
<stop stop-color="#7367F0"/>
<stop offset="1" stop-color="#9E95F5"/>
</linearGradient>
<linearGradient id="paint79_linear_9697_68" x1="163.668" y1="387.072" x2="461.779" y2="60.5657" gradientUnits="userSpaceOnUse">
<stop stop-color="#7367F0"/>
<stop offset="1" stop-color="#9E95F5"/>
</linearGradient>
<linearGradient id="paint80_linear_9697_68" x1="163.668" y1="387.072" x2="461.779" y2="60.5657" gradientUnits="userSpaceOnUse">
<stop stop-color="#7367F0"/>
<stop offset="1" stop-color="#9E95F5"/>
</linearGradient>
<linearGradient id="paint81_linear_9697_68" x1="163.668" y1="387.072" x2="461.779" y2="60.5657" gradientUnits="userSpaceOnUse">
<stop stop-color="#7367F0"/>
<stop offset="1" stop-color="#9E95F5"/>
</linearGradient>
<linearGradient id="paint82_linear_9697_68" x1="163.668" y1="387.072" x2="461.779" y2="60.5657" gradientUnits="userSpaceOnUse">
<stop stop-color="#7367F0"/>
<stop offset="1" stop-color="#9E95F5"/>
</linearGradient>
<linearGradient id="paint83_linear_9697_68" x1="163.668" y1="387.072" x2="461.779" y2="60.5657" gradientUnits="userSpaceOnUse">
<stop stop-color="#7367F0"/>
<stop offset="1" stop-color="#9E95F5"/>
</linearGradient>
<linearGradient id="paint84_linear_9697_68" x1="163.668" y1="387.072" x2="461.779" y2="60.5657" gradientUnits="userSpaceOnUse">
<stop stop-color="#7367F0"/>
<stop offset="1" stop-color="#9E95F5"/>
</linearGradient>
<linearGradient id="paint85_linear_9697_68" x1="163.668" y1="387.072" x2="461.779" y2="60.5657" gradientUnits="userSpaceOnUse">
<stop stop-color="#7367F0"/>
<stop offset="1" stop-color="#9E95F5"/>
</linearGradient>
<linearGradient id="paint86_linear_9697_68" x1="163.668" y1="387.072" x2="461.779" y2="60.5657" gradientUnits="userSpaceOnUse">
<stop stop-color="#7367F0"/>
<stop offset="1" stop-color="#9E95F5"/>
</linearGradient>
<linearGradient id="paint87_linear_9697_68" x1="163.668" y1="387.072" x2="461.779" y2="60.5657" gradientUnits="userSpaceOnUse">
<stop stop-color="#7367F0"/>
<stop offset="1" stop-color="#9E95F5"/>
</linearGradient>
<linearGradient id="paint88_linear_9697_68" x1="163.668" y1="387.072" x2="461.779" y2="60.5657" gradientUnits="userSpaceOnUse">
<stop stop-color="#7367F0"/>
<stop offset="1" stop-color="#9E95F5"/>
</linearGradient>
<linearGradient id="paint89_linear_9697_68" x1="163.668" y1="387.072" x2="461.779" y2="60.5657" gradientUnits="userSpaceOnUse">
<stop stop-color="#7367F0"/>
<stop offset="1" stop-color="#9E95F5"/>
</linearGradient>
<linearGradient id="paint90_linear_9697_68" x1="163.668" y1="387.072" x2="461.779" y2="60.5657" gradientUnits="userSpaceOnUse">
<stop stop-color="#7367F0"/>
<stop offset="1" stop-color="#9E95F5"/>
</linearGradient>
<linearGradient id="paint91_linear_9697_68" x1="163.668" y1="387.072" x2="461.779" y2="60.5657" gradientUnits="userSpaceOnUse">
<stop stop-color="#7367F0"/>
<stop offset="1" stop-color="#9E95F5"/>
</linearGradient>
<linearGradient id="paint92_linear_9697_68" x1="163.668" y1="387.072" x2="461.779" y2="60.5657" gradientUnits="userSpaceOnUse">
<stop stop-color="#7367F0"/>
<stop offset="1" stop-color="#9E95F5"/>
</linearGradient>
<linearGradient id="paint93_linear_9697_68" x1="163.668" y1="387.072" x2="461.779" y2="60.5657" gradientUnits="userSpaceOnUse">
<stop stop-color="#7367F0"/>
<stop offset="1" stop-color="#9E95F5"/>
</linearGradient>
<linearGradient id="paint94_linear_9697_68" x1="163.668" y1="387.072" x2="461.779" y2="60.5657" gradientUnits="userSpaceOnUse">
<stop stop-color="#7367F0"/>
<stop offset="1" stop-color="#9E95F5"/>
</linearGradient>
<linearGradient id="paint95_linear_9697_68" x1="163.668" y1="387.072" x2="461.779" y2="60.5657" gradientUnits="userSpaceOnUse">
<stop stop-color="#7367F0"/>
<stop offset="1" stop-color="#9E95F5"/>
</linearGradient>
<linearGradient id="paint96_linear_9697_68" x1="163.668" y1="387.072" x2="461.779" y2="60.5657" gradientUnits="userSpaceOnUse">
<stop stop-color="#7367F0"/>
<stop offset="1" stop-color="#9E95F5"/>
</linearGradient>
<linearGradient id="paint97_linear_9697_68" x1="163.668" y1="387.072" x2="461.779" y2="60.5657" gradientUnits="userSpaceOnUse">
<stop stop-color="#7367F0"/>
<stop offset="1" stop-color="#9E95F5"/>
</linearGradient>
<linearGradient id="paint98_linear_9697_68" x1="163.668" y1="387.072" x2="461.779" y2="60.5657" gradientUnits="userSpaceOnUse">
<stop stop-color="#7367F0"/>
<stop offset="1" stop-color="#9E95F5"/>
</linearGradient>
<linearGradient id="paint99_linear_9697_68" x1="163.668" y1="387.072" x2="461.779" y2="60.5657" gradientUnits="userSpaceOnUse">
<stop stop-color="#7367F0"/>
<stop offset="1" stop-color="#9E95F5"/>
</linearGradient>
<linearGradient id="paint100_linear_9697_68" x1="163.668" y1="387.072" x2="461.779" y2="60.5657" gradientUnits="userSpaceOnUse">
<stop stop-color="#7367F0"/>
<stop offset="1" stop-color="#9E95F5"/>
</linearGradient>
<linearGradient id="paint101_linear_9697_68" x1="163.668" y1="387.072" x2="461.779" y2="60.5657" gradientUnits="userSpaceOnUse">
<stop stop-color="#7367F0"/>
<stop offset="1" stop-color="#9E95F5"/>
</linearGradient>
<linearGradient id="paint102_linear_9697_68" x1="163.668" y1="387.072" x2="461.779" y2="60.5657" gradientUnits="userSpaceOnUse">
<stop stop-color="#7367F0"/>
<stop offset="1" stop-color="#9E95F5"/>
</linearGradient>
<linearGradient id="paint103_linear_9697_68" x1="163.668" y1="387.072" x2="461.779" y2="60.5657" gradientUnits="userSpaceOnUse">
<stop stop-color="#7367F0"/>
<stop offset="1" stop-color="#9E95F5"/>
</linearGradient>
<linearGradient id="paint104_linear_9697_68" x1="163.668" y1="387.072" x2="461.779" y2="60.5657" gradientUnits="userSpaceOnUse">
<stop stop-color="#7367F0"/>
<stop offset="1" stop-color="#9E95F5"/>
</linearGradient>
<linearGradient id="paint105_linear_9697_68" x1="163.668" y1="387.072" x2="461.779" y2="60.5657" gradientUnits="userSpaceOnUse">
<stop stop-color="#7367F0"/>
<stop offset="1" stop-color="#9E95F5"/>
</linearGradient>
<linearGradient id="paint106_linear_9697_68" x1="163.668" y1="387.072" x2="461.779" y2="60.5657" gradientUnits="userSpaceOnUse">
<stop stop-color="#7367F0"/>
<stop offset="1" stop-color="#9E95F5"/>
</linearGradient>
<linearGradient id="paint107_linear_9697_68" x1="163.668" y1="387.072" x2="461.779" y2="60.5657" gradientUnits="userSpaceOnUse">
<stop stop-color="#7367F0"/>
<stop offset="1" stop-color="#9E95F5"/>
</linearGradient>
<linearGradient id="paint108_linear_9697_68" x1="163.668" y1="387.072" x2="461.779" y2="60.5657" gradientUnits="userSpaceOnUse">
<stop stop-color="#7367F0"/>
<stop offset="1" stop-color="#9E95F5"/>
</linearGradient>
<linearGradient id="paint109_linear_9697_68" x1="163.668" y1="387.072" x2="461.779" y2="60.5657" gradientUnits="userSpaceOnUse">
<stop stop-color="#7367F0"/>
<stop offset="1" stop-color="#9E95F5"/>
</linearGradient>
<linearGradient id="paint110_linear_9697_68" x1="163.668" y1="387.072" x2="461.779" y2="60.5657" gradientUnits="userSpaceOnUse">
<stop stop-color="#7367F0"/>
<stop offset="1" stop-color="#9E95F5"/>
</linearGradient>
<linearGradient id="paint111_linear_9697_68" x1="163.668" y1="387.072" x2="461.779" y2="60.5657" gradientUnits="userSpaceOnUse">
<stop stop-color="#7367F0"/>
<stop offset="1" stop-color="#9E95F5"/>
</linearGradient>
<linearGradient id="paint112_linear_9697_68" x1="163.668" y1="387.072" x2="461.779" y2="60.5657" gradientUnits="userSpaceOnUse">
<stop stop-color="#7367F0"/>
<stop offset="1" stop-color="#9E95F5"/>
</linearGradient>
<linearGradient id="paint113_linear_9697_68" x1="163.668" y1="387.072" x2="461.779" y2="60.5657" gradientUnits="userSpaceOnUse">
<stop stop-color="#7367F0"/>
<stop offset="1" stop-color="#9E95F5"/>
</linearGradient>
<linearGradient id="paint114_linear_9697_68" x1="163.668" y1="387.072" x2="461.779" y2="60.5657" gradientUnits="userSpaceOnUse">
<stop stop-color="#7367F0"/>
<stop offset="1" stop-color="#9E95F5"/>
</linearGradient>
<linearGradient id="paint115_linear_9697_68" x1="163.668" y1="387.072" x2="461.779" y2="60.5657" gradientUnits="userSpaceOnUse">
<stop stop-color="#7367F0"/>
<stop offset="1" stop-color="#9E95F5"/>
</linearGradient>
<linearGradient id="paint116_linear_9697_68" x1="163.668" y1="387.072" x2="461.779" y2="60.5657" gradientUnits="userSpaceOnUse">
<stop stop-color="#7367F0"/>
<stop offset="1" stop-color="#9E95F5"/>
</linearGradient>
<linearGradient id="paint117_linear_9697_68" x1="163.668" y1="387.072" x2="461.779" y2="60.5657" gradientUnits="userSpaceOnUse">
<stop stop-color="#7367F0"/>
<stop offset="1" stop-color="#9E95F5"/>
</linearGradient>
<linearGradient id="paint118_linear_9697_68" x1="163.668" y1="387.072" x2="461.779" y2="60.5657" gradientUnits="userSpaceOnUse">
<stop stop-color="#7367F0"/>
<stop offset="1" stop-color="#9E95F5"/>
</linearGradient>
<linearGradient id="paint119_linear_9697_68" x1="163.668" y1="387.072" x2="461.779" y2="60.5657" gradientUnits="userSpaceOnUse">
<stop stop-color="#7367F0"/>
<stop offset="1" stop-color="#9E95F5"/>
</linearGradient>
<linearGradient id="paint120_linear_9697_68" x1="163.668" y1="387.072" x2="461.779" y2="60.5657" gradientUnits="userSpaceOnUse">
<stop stop-color="#7367F0"/>
<stop offset="1" stop-color="#9E95F5"/>
</linearGradient>
<linearGradient id="paint121_linear_9697_68" x1="163.668" y1="387.072" x2="461.779" y2="60.5657" gradientUnits="userSpaceOnUse">
<stop stop-color="#7367F0"/>
<stop offset="1" stop-color="#9E95F5"/>
</linearGradient>
<linearGradient id="paint122_linear_9697_68" x1="163.668" y1="387.072" x2="461.779" y2="60.5657" gradientUnits="userSpaceOnUse">
<stop stop-color="#7367F0"/>
<stop offset="1" stop-color="#9E95F5"/>
</linearGradient>
<linearGradient id="paint123_linear_9697_68" x1="163.668" y1="387.072" x2="461.779" y2="60.5657" gradientUnits="userSpaceOnUse">
<stop stop-color="#7367F0"/>
<stop offset="1" stop-color="#9E95F5"/>
</linearGradient>
<clipPath id="clip0_9697_68">
<rect width="356" height="159" fill="white"/>
</clipPath>
</defs>
</svg>
