<svg width="336" height="166" viewBox="0 0 336 166" fill="none" xmlns="http://www.w3.org/2000/svg">
<path d="M149.543 116.21C149.543 116.21 153.045 121.698 167.637 120.647C167.637 120.647 175.809 121.932 183.863 117.261C183.863 117.261 188.533 114.692 188.883 101.264C188.883 101.264 193.435 71.9568 183.63 64.4839C183.63 64.4839 172.657 43.3497 157.481 58.1786C157.481 58.1786 147.208 71.8399 147.442 81.5314C147.442 81.5314 143.473 105.468 149.543 116.21Z" fill="#F2EEE3"/>
<path d="M167.358 122.403C178.328 122.403 187.222 117.57 187.222 111.607C187.222 105.645 178.328 100.812 167.358 100.812C156.387 100.812 147.493 105.645 147.493 111.607C147.493 117.57 156.387 122.403 167.358 122.403Z" fill="#D5D3C7"/>
<path d="M167.755 113.462C178.726 113.462 187.619 108.629 187.619 102.666C187.619 96.7042 178.726 91.8709 167.755 91.8709C156.784 91.8709 147.891 96.7042 147.891 102.666C147.891 108.629 156.784 113.462 167.755 113.462Z" fill="#F2EEE3"/>
<path fill-rule="evenodd" clip-rule="evenodd" d="M155.875 84.8086C155.875 84.8086 160.838 74.9739 162.711 74.5056C162.711 74.5056 163.727 78.9323 167.449 80.7633C167.449 80.7633 171.598 78.7123 171.527 74.3558C171.527 74.3558 173.449 75.512 177.157 82.7973C177.157 82.7973 184.308 80.678 184.308 77.6314C184.308 74.5848 184.838 72.5316 183.977 69.8162C183.116 67.1008 181.924 64.3191 180.401 62.4646C178.878 60.6102 177.687 58.8882 174.839 57.961C171.992 57.0338 167.688 55.9741 166.364 56.4377C165.04 56.9013 161.663 58.0272 160.008 59.8817C158.352 61.7361 156.035 62.9282 155.042 65.3125C154.048 67.6968 152.393 69.3525 152.261 70.8758C152.128 72.3991 149.546 69.3526 152.128 74.3198C154.711 79.2871 155.875 84.8086 155.875 84.8086Z" fill="#D5D3C7"/>
<path d="M195.611 74.9983C199.903 83.0897 199.408 93.823 199.408 93.823C195.941 112.152 182.742 118.47 182.742 118.47C187.695 99.4801 177.286 83.0897 177.286 83.0897C173.654 76.1542 180.753 71.5307 180.753 71.5307C171.508 66.742 167.381 51.0548 167.381 51.0548C163.914 67.0722 153.349 71.5307 153.349 71.5307C160.117 76.3195 157.146 81.9337 157.146 81.9337L152.028 94.8138C148.066 102.41 151.344 118.011 151.344 118.011C123.114 100.837 139.481 72.5214 139.481 72.5214C139.481 72.5214 140.136 70.2331 137.626 71.1088C137.334 71.284 134.474 72.6852 133.19 76.6551C133.015 76.3049 131.556 72.9771 132.373 69.3574C132.139 69.4158 133.132 67.7811 130.097 68.1315C130.097 68.1315 124.26 69.5326 122.509 71.0505C122.509 71.0505 124.96 68.0147 124.843 65.6211C124.843 65.6211 125.077 64.5118 122.333 64.4533C122.333 64.4533 117.071 64.4302 114.801 63.1092C114.801 63.1092 117.896 59.9305 117.896 58.3205C117.896 58.3205 118.887 54.8528 114.883 55.0179C114.883 55.0179 110.756 55.926 109.6 57.247C109.6 57.247 109.683 53.7381 111.086 52.417C111.086 52.417 113.17 50.0914 114.045 49.391C114.045 49.391 115.155 48.7486 113.52 47.8146C113.52 47.8146 107.859 47.1725 106.691 40.7505C106.691 40.7505 109.201 43.9614 112.003 41.2174C112.003 41.2174 112.236 37.3058 106.983 35.788C106.983 35.788 108.501 34.3868 110.719 34.0365C110.719 34.0365 113.579 34.0949 113.987 32.4018C113.987 32.4018 114.279 30.5919 110.427 28.607C110.427 28.607 114.921 29.2493 115.797 28.1983C115.797 28.1983 110.193 27.0307 110.719 18.5653C110.719 18.5653 113.462 22.7104 115.972 21.4261C115.972 21.4261 117.664 20.6671 116.555 17.748C116.555 17.748 115.446 15.9382 114.162 15.5295C114.162 15.5295 115.913 12.0266 122.859 12.3185C122.859 12.3185 126.419 11.7347 123.326 8.69883C123.326 8.69883 127.003 8.11502 129.746 9.9833C129.746 9.9833 128.345 5.19602 130.505 0.0583294C130.505 0.0583294 140.719 10.2681 156.816 11.1763C156.816 11.1763 156.733 7.37827 160.86 5.23166C160.86 5.23166 160.282 8.36913 162.428 9.44239C162.428 9.44239 163.254 9.93781 163.914 8.61682C163.914 8.61682 165.152 4.3235 164.492 1.43365C164.492 1.43365 167.629 3.49772 168.289 8.36909C168.289 8.36909 168.702 10.1855 169.61 8.94701C169.61 8.94701 171.095 4.98398 172.664 3.99317C172.664 3.99317 171.508 8.36913 173.407 10.3506C173.407 10.3506 174.48 11.3414 174.975 11.3414C174.975 11.3414 193.717 10.6255 204.69 0C204.69 0 207.725 4.20349 205.741 10.9757C205.741 10.9757 215.504 9.52502 218.806 14.1485C218.806 14.1485 215.669 15.0568 215.421 17.2034C215.421 17.2034 215.504 19.1024 217.65 19.3501C217.65 19.3501 220.869 19.928 222.768 18.2767C222.768 18.2767 223.594 24.7994 217.815 27.3589C217.815 27.3589 216.859 27.5854 217.472 28.0232C217.472 28.0232 219.778 28.2567 221.908 27.2935C221.908 27.2935 220.595 28.7822 220.011 29.6579C220.011 29.6579 218.406 31.0299 219.865 32.3435C219.865 32.3435 227.762 34.1291 229.083 37.5555C229.083 37.5555 223.924 35.9868 221.819 40.8167C221.819 40.8167 222.52 44.0367 226.359 43.2112C226.359 43.2112 226.344 46.822 219.865 49.1574C219.865 49.1574 218.932 49.7996 219.457 51.2591C219.457 51.2591 222.901 54.6452 222.492 58.9655C222.492 58.9655 221.091 57.1556 218.581 56.747C218.581 56.747 216.013 56.1048 215.838 58.8486C215.838 58.8486 216.13 62.2347 218.523 63.4025C218.523 63.4025 216.538 65.154 209.768 63.7528C209.768 63.7528 208.776 63.2273 209.126 64.6285C209.126 64.6285 210.06 68.3649 208.659 71.9846C208.659 71.9846 207.959 69.3574 206.266 68.54C206.266 68.54 204.631 67.1973 203.581 69.2991C203.581 69.2991 202.939 74.028 199.203 75.6042C199.203 75.6042 199.437 74.2616 198.62 73.6776C198.62 73.6776 197.272 72.5826 195.611 74.9983Z" fill="#225054"/>
<path d="M167.642 44.417C164.069 45.6994 160.411 52.7203 160.411 52.7203C160.917 59.4474 167.539 65.464 167.638 65.5541V65.578C167.638 65.578 167.65 65.5656 167.65 65.5654C167.651 65.5654 167.656 65.5706 167.656 65.5706V65.5611C167.755 65.467 174.107 59.3885 174.613 52.6631C174.613 52.6631 171.212 45.7054 167.641 44.4207V44.417H167.642Z" fill="#163C3F"/>
<path d="M160.613 54.1096C160.613 54.1096 164.164 47.7808 167.631 46.6249L167.645 65.6929C167.645 65.6929 161.109 60.2194 160.614 54.1096H160.613Z" fill="#FAB84A"/>
<path d="M174.397 54.0577C174.397 54.0577 171.095 47.7829 167.628 46.627V65.6992C167.628 65.6992 173.902 60.1674 174.397 54.0577Z" fill="#E9934C"/>
<path d="M139.996 62.0651C151.891 62.0651 161.534 52.4202 161.534 40.5225C161.534 28.6248 151.891 18.9799 139.996 18.9799C128.102 18.9799 118.459 28.6248 118.459 40.5225C118.459 52.4202 128.102 62.0651 139.996 62.0651Z" fill="#173C3F"/>
<path d="M141.289 62.0818C152.069 62.0818 160.808 52.8787 160.808 41.5261C160.808 30.1735 152.069 20.9704 141.289 20.9704C130.509 20.9704 121.77 30.1735 121.77 41.5261C121.77 52.8787 130.509 62.0818 141.289 62.0818Z" fill="#F2EEE3"/>
<path d="M195.391 62.0483C207.286 62.0483 216.929 52.4033 216.929 40.5057C216.929 28.608 207.286 18.963 195.391 18.963C183.497 18.963 173.854 28.608 173.854 40.5057C173.854 52.4033 183.497 62.0483 195.391 62.0483Z" fill="#173C3F"/>
<path d="M194.043 62.1159C204.823 62.1159 213.562 52.9128 213.562 41.5601C213.562 30.2075 204.823 21.0043 194.043 21.0043C183.263 21.0043 174.524 30.2075 174.524 41.5601C174.524 52.9128 183.263 62.1159 194.043 62.1159Z" fill="#F2EEE3"/>
<path d="M145.631 54.4016C151.947 54.4016 157.066 49.3018 157.066 43.0109C157.066 36.7199 151.947 31.6201 145.631 31.6201C139.316 31.6201 134.196 36.7199 134.196 43.0109C134.196 49.3018 139.316 54.4016 145.631 54.4016Z" fill="#FAB84A"/>
<path d="M145.715 51.3976C150.422 51.3976 154.238 47.5969 154.238 42.9083C154.238 38.2198 150.422 34.4191 145.715 34.4191C141.009 34.4191 137.193 38.2198 137.193 42.9083C137.193 47.5969 141.009 51.3976 145.715 51.3976Z" fill="#201E1E"/>
<path d="M141.012 40.1707C142.524 40.1707 143.749 38.9505 143.749 37.4453C143.749 35.9401 142.524 34.7198 141.012 34.7198C139.501 34.7198 138.276 35.9401 138.276 37.4453C138.276 38.9505 139.501 40.1707 141.012 40.1707Z" fill="#FEFEFE"/>
<path d="M190.246 54.4367C196.562 54.4367 201.681 49.3369 201.681 43.0459C201.681 36.755 196.562 31.6552 190.246 31.6552C183.931 31.6552 178.811 36.755 178.811 43.0459C178.811 49.3369 183.931 54.4367 190.246 54.4367Z" fill="#FAB84A"/>
<path d="M190.33 51.433C195.037 51.433 198.853 47.6322 198.853 42.9436C198.853 38.2551 195.037 34.4544 190.33 34.4544C185.624 34.4544 181.808 38.2551 181.808 42.9436C181.808 47.6322 185.624 51.433 190.33 51.433Z" fill="#201E1E"/>
<path d="M185.627 40.2064C187.138 40.2064 188.363 38.9862 188.363 37.4809C188.363 35.9757 187.138 34.7555 185.627 34.7555C184.116 34.7555 182.891 35.9757 182.891 37.4809C182.891 38.9862 184.116 40.2064 185.627 40.2064Z" fill="#FEFEFE"/>
<path d="M153.143 124.499C154.171 124.499 155.004 122.418 155.004 119.851C155.004 117.284 154.171 115.203 153.143 115.203C152.115 115.203 151.281 117.284 151.281 119.851C151.281 122.418 152.115 124.499 153.143 124.499Z" fill="#E9934C"/>
<path d="M157.394 124.479C158.422 124.479 159.255 122.398 159.255 119.831C159.255 117.264 158.422 115.183 157.394 115.183C156.366 115.183 155.532 117.264 155.532 119.831C155.532 122.398 156.366 124.479 157.394 124.479Z" fill="#E9934C"/>
<path d="M161.727 124.52C162.755 124.52 163.589 122.439 163.589 119.872C163.589 117.304 162.755 115.223 161.727 115.223C160.699 115.223 159.866 117.304 159.866 119.872C159.866 122.439 160.699 124.52 161.727 124.52Z" fill="#E9934C"/>
<path d="M172.397 124.644C173.425 124.644 174.258 122.563 174.258 119.996C174.258 117.428 173.425 115.347 172.397 115.347C171.369 115.347 170.535 117.428 170.535 119.996C170.535 122.563 171.369 124.644 172.397 124.644Z" fill="#E9934C"/>
<path d="M176.648 124.623C177.676 124.623 178.509 122.542 178.509 119.975C178.509 117.408 177.676 115.327 176.648 115.327C175.62 115.327 174.786 117.408 174.786 119.975C174.786 122.542 175.62 124.623 176.648 124.623Z" fill="#E9934C"/>
<path d="M180.982 124.665C182.01 124.665 182.843 122.584 182.843 120.016C182.843 117.449 182.01 115.368 180.982 115.368C179.954 115.368 179.12 117.449 179.12 120.016C179.12 122.584 179.954 124.665 180.982 124.665Z" fill="#E9934C"/>
<path d="M148.669 73.4816C148.669 73.4816 144.342 75.0329 139.319 72.3281C139.319 72.3281 135.499 70.6971 133.335 77.459C133.181 77.2999 130.587 75.1919 131.668 69.8222C131.668 69.8222 132.325 68.3505 129.427 68.788C129.427 68.788 122.627 70.9758 121.739 72.2088C121.739 72.2088 124.211 68.3903 124.173 65.9242C124.173 65.9242 124.173 65.0293 121.7 65.069C121.7 65.069 116.31 65.0094 114.165 63.5575C114.165 63.4779 116.967 60.8727 117.43 58.685C117.43 58.685 118.068 55.3637 115.054 55.5427C115.054 55.5427 111.48 55.5427 109.201 57.7303C109.201 57.7303 108.486 53.2319 113.322 49.7161C113.322 49.7161 114.36 49.1255 113.131 48.5067C113.131 48.5067 107.553 46.843 106.278 40.2004C106.278 40.2004 108.563 43.0928 110.727 41.8995C110.727 41.8995 111.152 41.7405 111.422 41.104C111.422 41.104 111.328 37.2564 106.355 35.7095C106.355 35.7095 107.868 33.9443 111.577 33.6261C111.577 33.6261 114.127 32.8704 112.891 31.16C112.891 31.16 111.113 29.211 109.993 28.5746C109.993 28.5746 113.972 28.7337 115.247 27.9381C115.132 27.8984 109.783 27.2753 110.594 18.0871C110.594 18.0871 114.629 23.8015 116.291 19.8637C116.175 19.6249 116.915 17.2481 113.437 15.299C113.437 15.299 115.711 11.7891 122.279 11.7096C122.279 11.7096 125.409 10.9141 122.743 8.16953C122.743 8.16953 127.148 7.41375 129.118 9.323C129.157 9.24343 128.312 5.38137 130.437 0.130959C130.437 0.130959 129.736 9.60149 131.205 13.3007C131.012 13.1813 128.848 10.1185 126.027 8.96502C126.027 8.96502 127.457 13.8575 122.434 13.9768C122.434 13.9768 118.377 13.1415 116.445 14.6928C116.445 14.6928 119.498 20.2614 117.141 22.6081C117.141 22.6081 114.977 24.5572 112.156 21.8127C112.156 21.8127 111.864 26.2676 117.66 27.4609C117.66 27.4609 116.667 29.7755 113.653 29.855C113.653 29.855 116.207 32.2766 114.314 34.1063C114.314 34.1063 112.483 35.7157 110.031 35.7342C110.031 35.7342 114.145 38.1283 113.598 41.8409C113.598 41.8409 112.271 44.8535 108.923 43.8097C108.923 43.8097 111.136 45.758 114.851 46.9955C114.851 46.9955 117.109 48.4456 116.07 50.0207C116.07 50.0207 112.647 51.2638 111.609 54.8077C111.609 54.8077 116.746 52.3355 119.096 54.1918C119.096 54.1918 120.743 58.8317 116.847 62.5415C116.847 62.5415 124.218 63.7586 127.223 63.3648C127.223 63.3648 126.311 67.4411 125.491 68.5661C125.929 68.3411 131.543 66.0308 134.931 66.8183C134.931 66.8183 132.474 71.6543 132.747 73.4544C132.747 73.4544 137.106 68.8366 140.877 69.5116C140.877 69.5116 139.619 72.3276 148.669 73.4816Z" fill="#163C3F"/>
<path d="M186.259 74.2705C186.259 74.2705 189.456 76.962 196.159 75.3065C196.159 75.3065 197.074 74.9536 197.76 74.4831C197.76 74.4831 199.066 73.376 199.099 75.5581C199.099 75.5581 203.629 74.6007 204.391 69.6996C204.391 69.6996 204.746 67.7223 206.804 69.2123C206.804 69.2123 207.945 70.1674 208.479 72.7552C208.479 72.7552 210.945 68.6802 209.802 64.7201C209.802 64.7201 209.764 63.8575 210.564 64.0535C210.564 64.0535 216.433 65.818 219.101 63.4654C219.101 63.4654 215.976 61.7402 216.662 57.6625C216.662 57.6625 217.251 56.4694 219.69 57.2143C219.69 57.2143 222.232 58.1085 222.575 59.3632C222.575 59.3632 223.512 54.6386 219.955 51.2007C219.955 51.2007 218.973 50.165 220.616 49.2224C220.616 49.2224 226.027 46.9304 226.808 42.938C226.808 42.938 223.426 44.3315 222.226 40.842C222.226 40.842 223.955 36.4637 229.385 37.7575C229.385 37.7575 227.838 33.8074 220.401 32.3102C220.401 32.3102 218.919 31.839 220.401 29.7873L222.842 26.7784C222.842 26.7784 219.52 28.4565 217.957 27.7912C217.957 27.7912 217.545 27.597 218.326 27.3198C218.326 27.3198 223.638 25.013 223.153 17.7769C223.153 17.7769 218.434 21.2758 216.17 17.9766C216.17 17.9766 215.365 15.8929 219.811 14.063C219.811 14.063 217.729 9.6318 206.449 10.8473C206.449 10.8473 208.344 4.6117 204.721 0.0209198C204.721 0.0209198 207.709 9.88092 203.936 13.3743C203.936 13.3743 210.996 10.3245 218.003 13.7624C218.003 13.7624 213.745 13.7624 215.2 19.141C215.2 19.141 216.817 21.7471 221.883 20.5827C221.883 20.5827 219.188 25.9059 215.955 27.9021C215.955 27.9021 218.326 29.3438 219.943 29.1774C219.863 29.4714 217.957 32.5297 217.309 32.8042C217.309 32.8042 222.26 33.447 225.548 36.0531C225.548 36.0531 222.422 36.7739 220.913 41.1545C220.913 41.1545 222.637 44.3705 224.47 44.8141C224.514 44.645 220.751 48.3075 217.841 49.3055C218.056 49.5828 221.344 55.0723 221.937 57.013C221.937 57.013 219.242 54.6287 215.955 56.514C215.955 56.514 214.724 60.3559 216.249 63.2182C216.249 63.2182 212.035 63.7356 208.85 62.3675C208.85 62.3675 209.102 68.0257 208.759 69.4764C208.759 69.4764 206.128 67.0334 203.572 67.3449C203.572 67.3449 203.057 72.3658 201.266 73.1108C201.266 73.1108 200.199 71.6993 198.675 71.1896C198.675 71.1896 193.781 76.0398 186.259 74.2705Z" fill="#163C3F"/>
<path fill-rule="evenodd" clip-rule="evenodd" d="M134.765 90.7795C134.765 90.7795 135.114 78.5045 139.796 71.6671C139.796 71.6671 150.042 75.5736 153.303 71.5191C153.303 71.5191 157.28 73.6625 157.842 78.252C157.842 78.252 158.286 80.3798 155.869 85.2146C155.869 85.2146 156.169 75.8072 148.218 76.9595C148.218 76.9595 137.612 76.9511 134.765 90.7795Z" fill="#163C3F"/>
<path fill-rule="evenodd" clip-rule="evenodd" d="M150.112 107.635C150.112 107.635 137.866 103.197 134.776 92.2387C134.776 92.2387 133.463 107.066 151.349 118.024C151.349 118.024 150.241 111.148 150.112 107.635Z" fill="#163C3F"/>
<path fill-rule="evenodd" clip-rule="evenodd" d="M199.381 91.3839C199.381 91.3839 199.617 80.3968 194.935 73.5594C194.935 73.5594 187.616 76.7985 180.749 71.4795C180.749 71.4795 176.772 73.2834 176.269 78.7393C176.269 78.7393 175.82 81.5323 178.452 85.175C178.452 85.175 177.976 76.4115 185.927 77.5639C185.927 77.5639 196.534 77.5555 199.381 91.3839Z" fill="#163C3F"/>
<path fill-rule="evenodd" clip-rule="evenodd" d="M184.067 108.827C184.067 108.827 196.326 103.796 199.417 92.8369C199.417 92.8369 200.624 107.554 182.739 118.512C182.739 118.512 183.938 112.339 184.067 108.827Z" fill="#163C3F"/>
<path d="M153.189 123.128C154.055 123.128 154.758 121.374 154.758 119.211C154.758 117.048 154.055 115.294 153.189 115.294C152.323 115.294 151.621 117.048 151.621 119.211C151.621 121.374 152.323 123.128 153.189 123.128Z" fill="#FAB84A"/>
<path d="M157.409 123.091C158.275 123.091 158.977 121.337 158.977 119.174C158.977 117.011 158.275 115.257 157.409 115.257C156.543 115.257 155.84 117.011 155.84 119.174C155.84 121.337 156.543 123.091 157.409 123.091Z" fill="#FAB84A"/>
<path d="M161.713 123.191C162.579 123.191 163.281 121.437 163.281 119.274C163.281 117.111 162.579 115.357 161.713 115.357C160.847 115.357 160.144 117.111 160.144 119.274C160.144 121.437 160.847 123.191 161.713 123.191Z" fill="#FAB84A"/>
<path d="M172.423 123.306C173.289 123.306 173.992 121.553 173.992 119.39C173.992 117.226 173.289 115.473 172.423 115.473C171.557 115.473 170.855 117.226 170.855 119.39C170.855 121.553 171.557 123.306 172.423 123.306Z" fill="#FAB84A"/>
<path d="M176.661 123.29C177.527 123.29 178.229 121.536 178.229 119.373C178.229 117.21 177.527 115.456 176.661 115.456C175.794 115.456 175.092 117.21 175.092 119.373C175.092 121.536 175.794 123.29 176.661 123.29Z" fill="#FAB84A"/>
<path d="M180.997 123.34C181.864 123.34 182.566 121.586 182.566 119.423C182.566 117.26 181.864 115.506 180.997 115.506C180.131 115.506 179.429 117.26 179.429 119.423C179.429 121.586 180.131 123.34 180.997 123.34Z" fill="#FAB84A"/>
<path d="M17.375 126.947C15.3011 126.932 13.0773 127.171 11.114 127.931C11.114 127.931 1.09214 131.811 0.176181 142.751C0.176181 142.751 -1.06308 151.806 3.03187 157.68C3.03187 157.68 6.19297 162.977 12.8985 164.501C12.8985 164.501 26.6905 168.464 33.9294 155.964C33.9294 155.964 34.5511 154.85 33.7699 153.933L29.5133 151.346C29.5133 151.346 28.3301 150.834 27.4141 152.155C27.4141 152.155 25.4707 155.773 22.1941 156.878C22.1941 156.878 17.5836 158.555 13.7736 156.878C13.7736 156.878 8.66934 155.201 7.92642 146.951H33.6621C33.6621 146.951 34.9394 147.047 35.1299 145.56C35.1299 145.56 36.007 131.865 24.7459 127.931C24.7459 127.931 21.3343 126.977 17.375 126.947ZM17.9591 133.867C20.9682 133.835 22.914 134.883 22.914 134.883C27.2244 136.931 27.1167 141.62 27.1167 141.62H8.41997C9.87478 136.176 12.8921 134.937 12.8921 134.937C14.7661 134.159 16.4894 133.883 17.9591 133.867Z" fill="#0C5257"/>
<path d="M67.2297 110.764C67.2297 110.764 66.234 110.818 66.0184 112.111V133.822C66.0184 133.822 64.2553 129.364 59.8738 127.801C59.8738 127.801 54.1979 125.858 49.1688 127.84C49.1688 127.84 42.9197 129.594 40.0241 139.578C40.0241 139.578 38.4615 144.578 39.8344 151.978C39.8344 151.978 41.0146 159.432 48.1774 163.662C48.1774 163.662 53.2835 166.749 60.751 163.662C60.751 163.662 64.0025 162.395 66.0722 159.027V162.138C66.0722 162.138 66.0083 163.319 67.2274 163.509H72.5617C72.5617 163.509 73.7809 163.32 73.7428 162.024V112.165C73.7428 112.165 73.749 111.06 72.4022 110.764H67.2297ZM56.697 134.033C62.1129 134.033 66.5033 139.474 66.5033 146.186C66.5033 152.898 62.1129 158.34 56.697 158.34C51.2811 158.34 46.8907 152.898 46.8907 146.186C46.8907 139.474 51.2811 134.033 56.697 134.033Z" fill="#0C5257"/>
<path d="M80.9055 128.145H85.8203C85.8203 128.145 87.0776 127.992 87.23 129.593L87.2744 150.269C87.2744 150.269 87.3822 156.143 92.3393 157.437C92.3393 157.437 96.1109 158.38 99.3977 157.437C99.3977 157.437 104.489 156.305 104.516 150.215V129.628C104.516 129.628 104.355 128.199 105.809 128.145H110.794C110.794 128.145 112.275 128.011 112.329 129.412V147.871C112.329 147.871 112.356 159.027 105.675 162.746C105.675 162.746 96.8383 167.865 85.9544 162.746C85.9544 162.746 80.5124 160.536 79.5964 149.541V129.439C79.5964 129.439 79.6101 128.183 80.9055 128.145Z" fill="#0C5257"/>
<path d="M144.307 135.071V129.789C144.307 129.789 144.388 129.035 143.203 128.496C143.203 128.496 135.013 124.561 125.799 129.089C125.799 129.089 119.272 131.955 117.252 139.92C117.252 139.92 115.575 146.901 117.252 151.967C117.252 151.967 119.145 160.374 126.742 163.392C126.742 163.392 133.581 167.046 143.338 163.123C143.338 163.123 144.331 162.873 144.307 161.721V156.574C144.307 156.574 143.96 154.973 142.455 155.354C142.455 155.354 141.998 155.488 141.465 155.869C141.465 155.869 139.674 157.164 137.541 157.469C137.541 157.469 133.083 158.289 129.94 156.44C129.94 156.44 125.503 154.769 124.533 147.439C124.533 147.439 124.183 144.394 124.533 143.128C124.533 143.128 125.52 135.995 131.997 134.509C131.997 134.509 135.274 133.632 139.274 134.623C139.274 134.623 141.29 135.448 141.964 136.014C141.964 136.014 143.58 137.011 144.307 135.071Z" fill="#0C5257"/>
<path d="M161.688 127.058C160.063 127.05 158.257 127.267 156.528 127.948C156.528 127.948 150.281 129.702 147.385 139.686C147.385 139.686 145.821 144.686 147.194 152.086C147.194 152.086 148.376 159.541 155.539 163.771C155.539 163.771 160.643 166.858 168.11 163.771C168.11 163.771 171.362 162.503 173.431 159.136V162.247C173.431 162.247 173.368 163.429 174.587 163.62H179.921C179.921 163.62 181.14 163.428 181.102 162.132V129.522C181.102 129.522 181.111 128.417 179.764 128.121H174.591C174.591 128.121 173.593 128.175 173.378 129.468V133.933C173.378 133.933 171.617 129.474 167.235 127.912C167.235 127.912 164.79 127.073 161.688 127.058ZM164.056 134.142C169.472 134.142 173.863 139.584 173.863 146.296C173.863 153.008 169.472 158.448 164.056 158.448C158.64 158.448 154.25 153.008 154.25 146.296C154.25 139.584 158.64 134.142 164.056 134.142Z" fill="#0C5257"/>
<path d="M213.875 135.049V129.767C213.875 129.767 213.956 129.013 212.771 128.474C212.771 128.474 204.581 124.54 195.367 129.067C195.367 129.067 188.839 131.934 186.82 139.899C186.82 139.899 185.143 146.879 186.82 151.945C186.82 151.945 188.713 160.352 196.31 163.371C196.31 163.371 203.149 167.025 212.905 163.101C212.905 163.101 213.899 162.851 213.875 161.7V156.552C213.875 156.552 213.528 154.952 212.023 155.333C212.023 155.333 211.566 155.466 211.032 155.847C211.032 155.847 209.242 157.143 207.108 157.448C207.108 157.448 202.65 158.267 199.507 156.419C199.507 156.419 195.071 154.747 194.101 147.418C194.101 147.418 193.751 144.373 194.101 143.106C194.101 143.106 195.088 135.973 201.565 134.487C201.565 134.487 204.841 133.611 208.842 134.601C208.842 134.601 210.858 135.426 211.531 135.992C211.531 135.992 213.148 136.989 213.875 135.049Z" fill="#DF2B3C"/>
<path fill-rule="evenodd" clip-rule="evenodd" d="M259.891 126.894C249.524 126.894 241.119 135.494 241.119 146.102C241.119 156.709 249.524 165.308 259.891 165.308C270.258 165.308 278.663 156.709 278.663 146.102C278.663 135.494 270.258 126.894 259.891 126.894ZM259.891 134.09C265.765 134.09 270.527 139.468 270.527 146.102C270.527 152.736 265.765 158.114 259.891 158.114C254.017 158.114 249.255 152.736 249.255 146.102C249.255 139.468 254.017 134.09 259.891 134.09Z" fill="#DF2B3C"/>
<path d="M219.148 131.002V163.338C219.148 163.338 219.041 164.928 220.765 165.009H225.722C225.722 165.009 226.934 165.009 227.069 163.581V147.199C227.069 147.199 226.941 138.396 231.056 135.995C231.056 135.995 233.495 134.661 237.419 135.88C237.419 135.88 238.714 136.452 239.476 135.614L241.305 131.269C241.305 131.269 241.724 129.631 240.543 129.326C240.543 129.326 234.904 126.658 230.409 130.126C230.409 130.126 228.161 131.727 227.132 135.08V130.974C227.132 130.974 227.177 129.527 225.76 129.516H220.503C220.503 129.516 219.432 129.514 219.148 131.002Z" fill="#DF2B3C"/>
<path d="M298.919 135.34C298.919 135.34 299.62 136.283 301.048 135.556L304.173 133.185C304.173 133.185 305.008 132.43 304.361 131.406C304.361 131.406 301.96 127.421 296.321 126.963C296.321 126.963 292.282 126.62 289.996 127.306C289.996 127.306 282.719 128.64 281.386 135.347C281.386 135.347 280.929 137.291 281.5 139.882C281.5 139.882 282.224 144.074 287.939 146.627C287.939 146.627 295.282 149.973 295.659 150.134C295.659 150.134 299.808 151.805 299 155.2C299 155.2 298.731 158.111 295.444 158.757C295.444 158.757 289.463 160.266 286.661 155.47C286.661 155.47 285.958 153.944 284.586 154.287L280.586 156.536C280.586 156.536 279.443 157.26 280.167 158.536C280.167 158.536 281.805 161.68 285.005 163.357C285.005 163.357 289.844 166.558 298.378 164.386C298.378 164.386 304.284 162.443 305.77 158.556C305.77 158.556 307.408 155.354 306.379 150.743C306.379 150.743 305.389 146.78 300.664 144.455C300.664 144.455 294.149 141.559 293.273 141.292C293.273 141.292 288.93 139.463 289.006 137.176C289.006 137.176 288.282 134.661 291.292 133.442C291.292 133.442 293.616 132.298 296.626 133.442C296.626 133.442 298.089 134.038 298.919 135.34Z" fill="#DF2B3C"/>
<path d="M327.863 135.691C327.863 135.691 328.564 136.634 329.992 135.907L333.117 133.535C333.117 133.535 333.952 132.781 333.305 131.757C333.305 131.757 330.904 127.771 325.265 127.314C325.265 127.314 321.226 126.971 318.94 127.657C318.94 127.657 311.663 128.991 310.33 135.698C310.33 135.698 309.873 137.641 310.444 140.233C310.444 140.233 311.168 144.425 316.883 146.978C316.883 146.978 324.226 150.323 324.603 150.485C324.603 150.485 328.752 152.156 327.944 155.551C327.944 155.551 327.675 158.461 324.388 159.108C324.388 159.108 318.407 160.617 315.605 155.82C315.605 155.82 314.902 154.295 313.53 154.638L309.53 156.886C309.53 156.886 308.387 157.611 309.111 158.887C309.111 158.887 310.749 162.031 313.949 163.708C313.949 163.708 318.788 166.909 327.322 164.737C327.322 164.737 333.228 162.793 334.714 158.906C334.714 158.906 336.352 155.705 335.323 151.094C335.323 151.094 334.333 147.131 329.608 144.806C329.608 144.806 323.093 141.91 322.217 141.643C322.217 141.643 317.874 139.814 317.95 137.527C317.95 137.527 317.226 135.012 320.236 133.792C320.236 133.792 322.56 132.649 325.57 133.792C325.57 133.792 327.033 134.388 327.863 135.691Z" fill="#DF2B3C"/>
</svg>
