<svg width="20" height="20" viewBox="0 0 20 20" fill="none" xmlns="http://www.w3.org/2000/svg">
<path d="M3.07107 3.07107C-0.832162 6.9743 -0.832162 13.31 3.07107 17.2132C6.9743 21.1164 13.31 21.1164 17.2132 17.2132C21.1164 13.31 21.1164 6.9743 17.2132 3.07107C13.31 -0.832162 6.9743 -0.832162 3.07107 3.07107ZM13.6777 8.02082L11.5563 10.1421L13.6777 12.2635C14.0666 12.6524 14.0666 13.2888 13.6777 13.6777C13.2888 14.0666 12.6524 14.0666 12.2635 13.6777L10.1421 11.5563L8.02082 13.6777C7.63191 14.0666 6.99551 14.0666 6.6066 13.6777C6.21769 13.2888 6.21769 12.6524 6.6066 12.2635L8.72792 10.1421L6.6066 8.02082C6.21769 7.63191 6.21769 6.99551 6.6066 6.6066C6.99551 6.21769 7.63191 6.21769 8.02082 6.6066L10.1421 8.72792L12.2635 6.6066C12.6524 6.21769 13.2888 6.21769 13.6777 6.6066C14.0666 6.99551 14.0666 7.63191 13.6777 8.02082Z" fill="#EA5455"/>
</svg>
