<svg width="51" height="50" viewBox="0 0 34 33" fill="none" xmlns="http://www.w3.org/2000/svg">
<rect x="0.75" width="33" height="33" rx="5" fill="#62D2CD"/>
<g clip-path="url(#clip0_15455_351543)">
<path d="M17.75 8.5V7C15.6485 7 13.8515 8.50037 13.4758 10.5678L12.6241 15.25H10.625V16.75H12.3515L11.5486 21.1641C11.3027 22.5178 10.1259 23.5 8.75 23.5V25C10.8515 25 12.6485 23.4996 13.0242 21.4322L13.8759 16.75H15.5V15.25H14.1485L14.9514 10.8359C15.1973 9.48218 16.3741 8.5 17.75 8.5Z" fill="white"/>
<path d="M18.5 11.5L17.9 11.0499C17.848 11.1193 16.625 12.787 16.625 16C16.625 19.213 17.848 20.8807 17.9 20.9501L19.0997 20.0499C19.0903 20.0373 18.125 18.6752 18.125 16C18.125 13.3256 19.0936 11.959 19.1033 11.9451L18.5 11.5Z" fill="white"/>
<path d="M24.2748 11.9501C24.2845 11.9627 25.2498 13.3248 25.2498 16C25.2498 18.6744 24.2812 20.041 24.2715 20.0549L24.8748 20.5L25.4749 20.9501C25.5274 20.8803 26.7498 19.213 26.7498 16C26.7498 12.787 25.5269 11.1193 25.4749 11.0499L24.2748 11.9501Z" fill="white"/>
<path d="M22.3936 13.6837L21.5 14.9125L20.6064 13.6837L19.3936 14.5663L20.5726 16.1875L19.3936 17.8087L20.6064 18.6913L21.5 17.4625L22.3936 18.6913L23.6064 17.8087L22.4274 16.1875L23.6064 14.5663L22.3936 13.6837Z" fill="white"/>
</g>
<defs>
<clipPath id="clip0_15455_351543">
<rect width="18" height="18" fill="white" transform="translate(8.75 7)"/>
</clipPath>
</defs>
</svg>
