<svg width="50" height="50" viewBox="0 0 33 33" fill="none" xmlns="http://www.w3.org/2000/svg">
<rect width="33" height="33" rx="5" fill="#7CD7D3"/>
<path d="M16.7397 10.3869C16.738 10.3824 16.7362 10.3778 16.7343 10.3733C16.6432 10.1518 16.4297 10.0088 16.1902 10.0088C16.19 10.0088 16.1898 10.0088 16.1896 10.0088C15.9499 10.009 15.7364 10.1525 15.6456 10.3744C15.6441 10.3781 15.6426 10.3819 15.6412 10.3857L14.1451 14.3139C14.0471 14.571 14.1762 14.8587 14.4332 14.9566C14.6903 15.0545 14.978 14.9255 15.0759 14.6684L15.3264 14.0109H17.0427L17.2903 14.6671C17.3656 14.8665 17.5551 14.9894 17.7563 14.9894C17.8148 14.9894 17.8742 14.979 17.9321 14.9572C18.1894 14.8601 18.3194 14.5727 18.2222 14.3154L16.7397 10.3869ZM15.7057 13.0148L16.1884 11.7474L16.6668 13.0148H15.7057Z" fill="white"/>
<path d="M13.6277 20.1939C13.7715 19.9725 13.8554 19.7088 13.8554 19.4256C13.8554 18.6454 13.2207 18.0107 12.4406 18.0107H11.2832C11.0081 18.0107 10.7852 18.2337 10.7852 18.5088V22.4932C10.7852 22.6256 10.8379 22.7526 10.9318 22.8461C11.0252 22.939 11.1515 22.9912 11.2832 22.9912H11.2854C11.2961 22.9912 12.3534 22.9865 12.6427 22.9865C13.5087 22.9865 14.2132 22.2819 14.2132 21.416C14.2132 20.9227 13.9845 20.4821 13.6277 20.1939ZM11.7813 19.0068H12.4406C12.6715 19.0068 12.8593 19.1947 12.8593 19.4256C12.8593 19.6565 12.6715 19.8535 12.4406 19.8535C12.354 19.8535 11.7813 19.8535 11.7813 19.8535V19.0068ZM12.6427 21.9904C12.4847 21.9904 12.1012 21.9918 11.7813 21.993V20.8424C11.8601 20.8421 12.6427 20.8415 12.6427 20.8415C12.9595 20.8415 13.2171 21.0992 13.2171 21.416C13.2171 21.7327 12.9595 21.9904 12.6427 21.9904Z" fill="white"/>
<path d="M23.1738 16.002H20.4824C20.6102 15.7527 20.6828 15.4707 20.6828 15.1719V9.82617C20.6828 8.81922 19.8636 8 18.8566 8H13.5109C12.504 8 11.6847 8.81922 11.6847 9.82617V15.1719C11.6847 15.4707 11.7574 15.7527 11.8851 16.002H9.82617C8.81922 16.002 8 16.8212 8 17.8281V23.1738C8 24.1808 8.81922 25 9.82617 25H15.1719C15.6948 25 16.1668 24.7787 16.5 24.4253C16.8332 24.7787 17.3052 25 17.8281 25H23.1738C24.1808 25 25 24.1808 25 23.1738V17.8281C25 16.8212 24.1808 16.002 23.1738 16.002ZM16.002 23.1738C16.002 23.6315 15.6296 24.0039 15.1719 24.0039H9.82617C9.36847 24.0039 8.99609 23.6315 8.99609 23.1738V17.8281C8.99609 17.3704 9.36847 16.998 9.82617 16.998H15.1719C15.6296 16.998 16.002 17.3704 16.002 17.8281V23.1738ZM13.5109 16.002C13.0532 16.002 12.6808 15.6296 12.6808 15.1719V9.82617C12.6808 9.36847 13.0532 8.99609 13.5109 8.99609H18.8566C19.3143 8.99609 19.6867 9.36847 19.6867 9.82617V15.1719C19.6867 15.6296 19.3143 16.002 18.8566 16.002H13.5109ZM24.0039 23.1738C24.0039 23.6315 23.6315 24.0039 23.1738 24.0039H17.8281C17.3704 24.0039 16.998 23.6315 16.998 23.1738V17.8281C16.998 17.3704 17.3704 16.998 17.8281 16.998H23.1738C23.6315 16.998 24.0039 17.3704 24.0039 17.8281V23.1738Z" fill="white"/>
<path d="M22.4443 21.5492C22.2335 21.3724 21.9194 21.4 21.7426 21.6107C21.708 21.6521 21.6705 21.6907 21.6313 21.7257C21.4305 21.9045 21.1741 21.9951 20.8691 21.9951C20.0453 21.9951 19.375 21.3248 19.375 20.501C19.375 19.6771 20.0453 19.0068 20.8691 19.0068C21.1686 19.0068 21.4574 19.095 21.7042 19.2617C21.9322 19.4157 22.2417 19.3558 22.3957 19.1278C22.5497 18.8999 22.4898 18.5903 22.2618 18.4363C21.8497 18.1579 21.3681 18.0107 20.8691 18.0107C19.496 18.0107 18.3789 19.1279 18.3789 20.501C18.3789 21.8741 19.496 22.9912 20.8691 22.9912C21.418 22.9912 21.9106 22.8108 22.2938 22.4695C22.3689 22.4026 22.4402 22.329 22.5058 22.2508C22.6826 22.04 22.655 21.7259 22.4443 21.5492Z" fill="white"/>
</svg>
