<svg width="50" height="50" viewBox="0 0 33 33" fill="none" xmlns="http://www.w3.org/2000/svg">
<rect width="33" height="33" rx="5" fill="#645CD5"/>
<path d="M27.8869 21.8081L25.2104 17.224C24.907 16.7021 24.4145 16.3135 23.8324 16.1367L19.7687 9.18148L19.891 8.97169C19.9487 8.87324 19.9856 8.76421 19.9994 8.65123C20.0132 8.53825 20.0036 8.42368 19.9713 8.31447C19.9066 8.0929 19.7571 7.90494 19.5545 7.79044C19.4047 7.70485 19.2332 7.66339 19.0603 7.67094C19.0806 7.55079 19.0743 7.4277 19.0418 7.31018C19.0115 7.19701 18.9586 7.09097 18.8862 6.99825C18.8139 6.90553 18.7235 6.828 18.6205 6.77018C18.5181 6.71122 18.405 6.6728 18.2875 6.65715C18.1701 6.6415 18.0507 6.64891 17.9362 6.67897C17.8169 6.71023 17.7058 6.76637 17.6104 6.84361C17.531 6.69103 17.4087 6.56434 17.2582 6.47875C17.0565 6.36187 16.8164 6.32797 16.5896 6.38434C16.3785 6.43524 16.195 6.56398 16.0769 6.74419C15.9751 6.57943 15.8224 6.45141 15.6413 6.37905C15.4602 6.30669 15.2604 6.29384 15.0713 6.34238C14.9624 6.37073 14.8603 6.42011 14.7708 6.48766C14.6813 6.55521 14.6062 6.63961 14.5499 6.73598L11.8733 11.32C11.5679 11.8399 11.4734 12.4548 11.6089 13.0408L7.5479 19.9943H7.29501C6.81693 19.9943 6.4279 20.3892 6.4279 20.8749C6.42764 21.0461 6.47714 21.2138 6.5705 21.3579C6.40232 21.4232 6.25795 21.5371 6.15619 21.6847C6.05443 21.8322 6 22.0067 6 22.1853C6 22.3638 6.05443 22.5383 6.15619 22.6859C6.25795 22.8334 6.40232 22.9473 6.5705 23.0126C6.47706 23.1567 6.42756 23.3244 6.4279 23.4956C6.42541 23.7185 6.5094 23.9338 6.66261 24.0974C6.81582 24.2609 7.02661 24.3602 7.25164 24.3749C7.1781 24.5071 7.13968 24.6555 7.13996 24.8064C7.13725 25.0367 7.22705 25.2587 7.38967 25.4237C7.5523 25.5887 7.77449 25.6832 8.00753 25.6866H13.3629C13.9714 25.6883 14.5578 25.4616 15.0035 25.0522H23.1314L23.2551 25.2634C23.3318 25.3931 23.4417 25.5005 23.5739 25.5748C23.7061 25.649 23.8557 25.6874 24.0078 25.6861C24.1739 25.6856 24.3366 25.6402 24.4785 25.5549C24.6204 25.4695 24.7359 25.3474 24.8126 25.2018C24.9697 25.3288 25.1666 25.3979 25.3696 25.3974C25.5658 25.3971 25.7565 25.334 25.9134 25.2176C26.0703 25.1012 26.1848 24.9377 26.2399 24.7516C26.2761 24.6292 26.2838 24.5003 26.2625 24.3745H26.3041C26.5028 24.3739 26.696 24.309 26.8538 24.1897C27.0117 24.0703 27.1256 23.9031 27.1781 23.7136C27.2342 23.5115 27.2118 23.2959 27.1153 23.1093C27.268 23.106 27.4173 23.0648 27.5496 22.9893C27.9741 22.7499 28.1255 22.2167 27.8869 21.8081ZM12.0473 13.1882C12.0773 13.1365 12.0855 13.0752 12.0699 13.0176C12.0026 12.7716 11.9852 12.5149 12.0189 12.2623C12.0526 12.0097 12.1366 11.7662 12.266 11.5458L14.9426 6.96174C14.969 6.91683 15.0041 6.87756 15.046 6.84624C15.088 6.81491 15.1358 6.79216 15.1867 6.77931C15.2431 6.76419 15.3021 6.76043 15.36 6.76827C15.418 6.7761 15.4738 6.79537 15.524 6.82491C15.6214 6.87706 15.6943 6.96488 15.7269 7.06952C15.7595 7.17415 15.7493 7.28724 15.6985 7.38453L14.356 9.68272C14.3411 9.70838 14.3314 9.7367 14.3275 9.76606C14.3236 9.79543 14.3257 9.82526 14.3335 9.85385C14.3413 9.88245 14.3547 9.90924 14.373 9.9327C14.3913 9.95616 14.414 9.97582 14.44 9.99057C14.4926 10.0197 14.5546 10.0274 14.6128 10.012C14.671 9.99658 14.7208 9.95926 14.7515 9.90802L14.7594 9.8948V9.89206L16.0889 7.61667L16.0963 7.60344L16.4447 7.00689C16.4716 6.96086 16.5078 6.92074 16.5509 6.88898C16.5941 6.85722 16.6434 6.83449 16.6957 6.82218C16.8081 6.79585 16.9264 6.81297 17.0264 6.87003C17.1265 6.92709 17.2006 7.01978 17.2338 7.12912C17.2492 7.18014 17.2538 7.23373 17.2475 7.28659C17.2411 7.33945 17.2239 7.39048 17.1969 7.43652L15.5023 10.3377C15.4727 10.3897 15.4649 10.4511 15.4806 10.5088C15.4963 10.5664 15.5343 10.6157 15.5863 10.646C15.5938 10.6501 15.6015 10.6537 15.6094 10.6569L15.6232 10.6619L15.6306 10.6647C15.6531 10.6719 15.6766 10.6756 15.7003 10.6756C15.7318 10.6754 15.7629 10.6688 15.7917 10.6562C15.8205 10.6437 15.8464 10.6254 15.8678 10.6026L15.8734 10.5962C15.877 10.5926 15.8802 10.5886 15.8831 10.5844C15.8888 10.5778 15.8937 10.5706 15.8978 10.563L17.8065 7.2965C17.8328 7.25153 17.8679 7.21221 17.9099 7.18088C17.9518 7.14955 17.9996 7.12683 18.0506 7.11407C18.1654 7.08434 18.2873 7.10032 18.3903 7.15858C18.4933 7.21684 18.569 7.31271 18.6011 7.42557C18.6155 7.47565 18.6195 7.52807 18.6129 7.5797C18.6063 7.63134 18.5893 7.68114 18.5628 7.72613L18.3519 8.08689L18.3487 8.09191L16.6542 10.9926C16.6246 11.0446 16.6168 11.106 16.6325 11.1637C16.6482 11.2213 16.6861 11.2706 16.7382 11.3009C16.7455 11.305 16.753 11.3087 16.7608 11.3118L16.7765 11.3178H16.7815C16.8194 11.3305 16.8601 11.3329 16.8993 11.3249C16.9384 11.3169 16.9748 11.2987 17.0044 11.2722L17.0072 11.2699L17.0178 11.2594C17.021 11.2557 17.0243 11.2525 17.027 11.2489C17.0298 11.2453 17.0321 11.243 17.0344 11.2402C17.0399 11.2331 17.045 11.2256 17.0497 11.2179L18.7456 8.31356C18.8055 8.22063 18.8999 8.1546 19.0085 8.12962C19.1171 8.10465 19.2313 8.1227 19.3266 8.17993C19.4273 8.23617 19.5017 8.32917 19.5338 8.43899C19.5492 8.49 19.5538 8.54359 19.5475 8.59646C19.5411 8.64932 19.5239 8.70034 19.4969 8.74638L17.68 11.8569C17.6757 11.8642 17.672 11.8715 17.669 11.8787L17.1844 12.7116C17.1548 12.7636 17.147 12.825 17.1627 12.8827C17.1784 12.9403 17.2164 12.9896 17.2684 13.0199C17.321 13.0492 17.3831 13.0569 17.4414 13.0415C17.4997 13.0261 17.5496 12.9887 17.5804 12.9373L18.2403 11.8076C18.3499 11.6201 18.5304 11.4833 18.742 11.4271C18.9536 11.3709 19.1791 11.4 19.369 11.508L19.471 11.5878L18.1817 13.7947C18.0195 14.0728 17.7716 14.2924 17.4742 14.4214C17.4582 14.4261 17.4427 14.4325 17.4281 14.4406C17.3819 14.4593 17.333 14.4757 17.2841 14.4903L15.6615 15.0339C15.6089 15.0517 15.5645 15.0876 15.5365 15.1352L13.3629 18.8563C13.0628 18.6872 12.7232 18.5987 12.3777 18.5996H9.80082C9.67488 18.5997 9.55412 18.6491 9.46502 18.7371C9.37592 18.8251 9.32575 18.9444 9.3255 19.0689V19.176C9.32521 19.476 9.43303 19.7662 9.62961 19.9947H8.07121L12.0473 13.1882ZM19.2795 20.1703L19.2754 20.1908H14.9601L13.7455 19.1377L13.7317 19.1254L15.8877 15.4339L17.4175 14.9213L17.4391 14.9144L19.5952 18.605L19.2795 20.1703ZM14.9116 24.6011C14.8816 24.6012 14.8519 24.6071 14.8242 24.6185C14.7965 24.6299 14.7713 24.6466 14.7501 24.6677C14.3814 25.0302 13.883 25.2344 13.3629 25.236H8.00984C7.89932 25.2289 7.79569 25.1805 7.71996 25.1006C7.64424 25.0207 7.6021 24.9154 7.6021 24.8059C7.6021 24.6965 7.64424 24.5911 7.71996 24.5112C7.79569 24.4313 7.89932 24.3829 8.00984 24.3758H10.6864C10.7163 24.3758 10.746 24.37 10.7736 24.3587C10.8013 24.3474 10.8264 24.3308 10.8476 24.3098C10.8688 24.2889 10.8855 24.2641 10.897 24.2367C10.9085 24.2094 10.9144 24.1801 10.9144 24.1505C10.9144 24.1209 10.9085 24.0916 10.897 24.0643C10.8855 24.037 10.8688 24.0121 10.8476 23.9912C10.8264 23.9703 10.8013 23.9537 10.7736 23.9424C10.746 23.931 10.7163 23.9252 10.6864 23.9252H7.29501C7.1839 23.919 7.07941 23.871 7.00296 23.7911C6.92652 23.7112 6.88393 23.6053 6.88393 23.4954C6.88393 23.3854 6.92652 23.2796 7.00296 23.1996C7.07941 23.1197 7.1839 23.0717 7.29501 23.0655H10.6841C10.7445 23.0655 10.8025 23.0418 10.8453 22.9995C10.888 22.9573 10.9121 22.9 10.9121 22.8402C10.9121 22.7804 10.888 22.7231 10.8453 22.6809C10.8025 22.6386 10.7445 22.6149 10.6841 22.6149H6.86769C6.75586 22.6098 6.65032 22.5623 6.57301 22.4823C6.4957 22.4023 6.45255 22.2959 6.45255 22.1853C6.45255 22.0746 6.4957 21.9682 6.57301 21.8882C6.65032 21.8082 6.75586 21.7607 6.86769 21.7556H10.6841C10.7149 21.757 10.7457 21.7522 10.7746 21.7415C10.8035 21.7308 10.8299 21.7144 10.8522 21.6933C10.8745 21.6722 10.8923 21.6469 10.9044 21.6188C10.9165 21.5908 10.9228 21.5606 10.9228 21.5301C10.9228 21.4996 10.9165 21.4694 10.9044 21.4414C10.8923 21.4133 10.8745 21.388 10.8522 21.3669C10.8299 21.3458 10.8035 21.3295 10.7746 21.3187C10.7457 21.308 10.7149 21.3032 10.6841 21.3046H7.29501C7.18462 21.2975 7.0811 21.2491 7.00546 21.1693C6.92982 21.0895 6.88773 20.9843 6.88773 20.8749C6.88773 20.7656 6.92982 20.6604 7.00546 20.5806C7.0811 20.5008 7.18462 20.4524 7.29501 20.4453H10.9291C10.9368 20.4458 10.9445 20.4458 10.9522 20.4453H11.9268C11.9873 20.4453 12.0453 20.4216 12.088 20.3793C12.1308 20.3371 12.1548 20.2798 12.1548 20.22C12.1548 20.1603 12.1308 20.103 12.088 20.0607C12.0453 20.0184 11.9873 19.9947 11.9268 19.9947H10.607C10.3878 19.9943 10.1776 19.908 10.0227 19.7547C9.86773 19.6014 9.78064 19.3936 9.78052 19.177L9.79944 19.0511H12.3777C12.7733 19.051 13.1535 19.202 13.4391 19.4725L14.7243 20.5876C14.7661 20.6234 14.8195 20.6431 14.8747 20.6433H19.2241C19.2268 20.9829 19.3191 21.316 19.4918 21.6097L20.7811 23.8162C20.8439 23.9243 20.9474 24.0033 21.0691 24.036C21.1907 24.0687 21.3205 24.0523 21.43 23.9904L21.5223 23.9366C21.7851 23.7869 21.9853 23.5495 22.0871 23.2671L22.867 24.6011H14.9116ZM27.3207 22.6003C27.2251 22.6582 27.1102 22.6764 27.0011 22.6507C26.892 22.6251 26.7977 22.5577 26.7388 22.4635L25.958 21.1267L25.3987 20.1717C25.368 20.1202 25.3182 20.0827 25.2598 20.0672C25.2015 20.0517 25.1393 20.0594 25.0867 20.0887C25.0347 20.119 24.9967 20.1682 24.981 20.2259C24.9653 20.2835 24.9731 20.3449 25.0027 20.397L25.0115 20.412L25.3807 21.0419L26.6996 23.2972C26.7257 23.3423 26.7425 23.3921 26.749 23.4437C26.7555 23.4953 26.7516 23.5477 26.7374 23.5977C26.7222 23.6536 26.6959 23.7059 26.66 23.7515C26.6241 23.7972 26.5793 23.8353 26.5283 23.8636C26.4337 23.921 26.3201 23.9393 26.2119 23.9148C26.1037 23.8902 26.0095 23.8247 25.9497 23.7323L24.2519 20.8257C24.2363 20.7996 24.2156 20.7768 24.191 20.7586L24.1827 20.7532L24.173 20.7468C24.138 20.7255 24.0978 20.7139 24.0567 20.7133C24.0156 20.7127 23.9751 20.7231 23.9395 20.7434C23.9039 20.7637 23.8745 20.7931 23.8545 20.8285C23.8344 20.864 23.8244 20.9041 23.8255 20.9447C23.8266 20.9822 23.8371 21.0189 23.8559 21.0514L25.5514 23.9526L25.556 23.9594L25.7655 24.3188C25.7922 24.365 25.8091 24.416 25.8153 24.4689C25.8215 24.5217 25.8168 24.5752 25.8015 24.6262C25.7692 24.7361 25.6947 24.8291 25.5939 24.8853C25.4984 24.9433 25.3835 24.9615 25.2745 24.9358C25.1654 24.9102 25.0712 24.8428 25.0124 24.7484L23.1037 21.482C23.0844 21.4494 23.0571 21.4221 23.0244 21.4026C23.0193 21.3995 23.0141 21.3968 23.0087 21.3944H23.0054C22.9616 21.3733 22.9121 21.3666 22.8641 21.3753C22.8161 21.3841 22.7723 21.4078 22.7389 21.4431C22.7056 21.4783 22.6846 21.5231 22.679 21.571C22.6734 21.6189 22.6835 21.6673 22.7078 21.7091L24.4033 24.6103C24.4295 24.6553 24.4463 24.7052 24.4528 24.7568C24.4593 24.8084 24.4553 24.8607 24.4411 24.9108C24.426 24.9667 24.3997 25.019 24.3638 25.0646C24.3279 25.1103 24.2831 25.1484 24.232 25.1767C24.1848 25.2056 24.1322 25.2249 24.0773 25.2337C24.0225 25.2424 23.9664 25.2404 23.9123 25.2277C23.8583 25.215 23.8073 25.1918 23.7623 25.1596C23.7173 25.1274 23.6792 25.0867 23.6501 25.0399L21.8328 21.9289C21.8296 21.9235 21.8259 21.918 21.8222 21.9125L21.3335 21.0756C21.3193 21.0487 21.2996 21.0249 21.2758 21.0056C21.252 20.9863 21.2245 20.972 21.1949 20.9635C21.1653 20.9551 21.1344 20.9526 21.1038 20.9562C21.0732 20.9598 21.0437 20.9696 21.0171 20.9847C20.9904 20.9999 20.9671 21.0203 20.9486 21.0446C20.9301 21.0689 20.9168 21.0967 20.9094 21.1262C20.902 21.1557 20.9007 21.1864 20.9057 21.2164C20.9106 21.2465 20.9216 21.2752 20.938 21.3009L21.597 22.4306C21.7067 22.6183 21.7365 22.8414 21.6798 23.0507C21.6232 23.2601 21.4846 23.4387 21.2948 23.5471L21.1757 23.5927L19.8836 21.3858C19.7224 21.1083 19.6547 20.7875 19.6902 20.4695C19.6945 20.4526 19.6967 20.4353 19.6967 20.418C19.7036 20.3682 19.7133 20.3185 19.7253 20.2693L20.0594 18.6114C20.0701 18.5577 20.0609 18.5021 20.0336 18.4545L17.8595 14.732C18.1563 14.56 18.4027 14.3147 18.5744 14.02L19.8642 11.8126C19.9266 11.7047 19.9433 11.5768 19.9107 11.4568C19.8781 11.3368 19.7989 11.2344 19.6902 11.1718L19.5956 11.1198C19.3325 10.97 19.0239 10.9177 18.7253 10.9725L19.5061 9.63483L23.4831 16.4427C23.5135 16.4944 23.5632 16.5323 23.6215 16.5481C23.8708 16.6134 24.1044 16.7269 24.309 16.882C24.5135 17.0372 24.6848 17.231 24.813 17.4521L27.4919 22.0338C27.5447 22.1315 27.5563 22.2458 27.5242 22.3519C27.4921 22.458 27.419 22.5472 27.3207 22.6003Z" fill="white"/>
</svg>
