<svg width="51" height="50" viewBox="0 0 34 33" fill="none" xmlns="http://www.w3.org/2000/svg">
<rect x="0.5" width="33" height="33" rx="5" fill="#7367F0"/>
<g clip-path="url(#clip0_15455_351544)">
<path d="M8.83216 9.2678C8.98054 9.2678 9.10622 9.17595 9.14876 9.04923C9.27379 9.11039 9.43163 9.09155 9.53656 8.99261C9.66626 8.87042 9.66626 8.67216 9.53656 8.54985L9.06692 8.10709C8.97198 8.01756 8.82905 7.99077 8.70506 8.03921C8.58093 8.08764 8.5 8.20175 8.5 8.32847V8.95469C8.5 9.12763 8.64864 9.2678 8.83216 9.2678Z" fill="white"/>
<path d="M8.83216 10.5547C9.01543 10.5547 9.16419 10.4144 9.16419 10.2416C9.16419 10.0688 9.01543 9.92847 8.83216 9.92847C8.64877 9.92847 8.5 10.0688 8.5 10.2416C8.5 10.4144 8.64877 10.5547 8.83216 10.5547Z" fill="white"/>
<path d="M8.83216 14.4143C9.01504 14.4143 9.16419 14.274 9.16419 14.1012C9.16419 13.9286 9.01504 13.7881 8.83216 13.7881C8.64915 13.7881 8.5 13.9286 8.5 14.1012C8.5 14.274 8.64903 14.4143 8.83216 14.4143Z" fill="white"/>
<path d="M8.83216 13.1279C9.01504 13.1279 9.16419 12.9876 9.16419 12.8148V11.5282C9.16419 11.3556 9.01504 11.2151 8.83216 11.2151C8.64903 11.2151 8.5 11.3556 8.5 11.5282V12.8148C8.5 12.9876 8.64903 13.1279 8.83216 13.1279Z" fill="white"/>
<path d="M8.83216 18.2744C9.01504 18.2744 9.16419 18.1338 9.16419 17.9613C9.16419 17.7885 9.01504 17.6482 8.83216 17.6482C8.64903 17.6482 8.5 17.7885 8.5 17.9613C8.5 18.1338 8.64903 18.2744 8.83216 18.2744Z" fill="white"/>
<path d="M8.83216 22.1342C9.01504 22.1342 9.16419 21.9935 9.16419 21.821C9.16419 21.6481 9.01504 21.5079 8.83216 21.5079C8.64903 21.5079 8.5 21.6482 8.5 21.821C8.5 21.9935 8.64903 22.1342 8.83216 22.1342Z" fill="white"/>
<path d="M8.83216 16.9875C9.01504 16.9875 9.16419 16.8472 9.16419 16.6744V15.3878C9.16419 15.2152 9.01504 15.0747 8.83216 15.0747C8.64903 15.0747 8.5 15.2152 8.5 15.3878V16.6744C8.5 16.8472 8.64903 16.9875 8.83216 16.9875Z" fill="white"/>
<path d="M8.83216 20.8476C9.01504 20.8476 9.16419 20.707 9.16419 20.5345V19.2479C9.16419 19.075 9.01504 18.9348 8.83216 18.9348C8.64915 18.9348 8.5 19.075 8.5 19.2479V20.5345C8.5 20.707 8.64903 20.8476 8.83216 20.8476Z" fill="white"/>
<path d="M15.6278 15.0495C15.7128 15.0495 15.7979 15.019 15.8626 14.9577C15.9924 14.8356 15.9924 14.6374 15.8626 14.515C15.7331 14.3928 15.5229 14.3928 15.3931 14.515C15.2635 14.6374 15.2635 14.8356 15.3931 14.9577C15.4578 15.019 15.5429 15.0495 15.6278 15.0495Z" fill="white"/>
<path d="M12.917 12.4917C13.0025 12.4917 13.088 12.4615 13.1517 12.4014C13.2812 12.2792 13.2812 12.0809 13.1518 11.9587C13.023 11.8372 12.8107 11.8375 12.6822 11.9587C12.5526 12.0807 12.5526 12.2792 12.682 12.4013C12.746 12.4617 12.8316 12.4917 12.917 12.4917Z" fill="white"/>
<path d="M14.3586 14.0535C14.4213 14.1127 14.5047 14.1452 14.5933 14.1452C14.682 14.1452 14.7654 14.1127 14.8281 14.0535C14.9577 13.9313 14.9577 13.7328 14.8281 13.6107L13.9246 12.7584C13.8618 12.6993 13.778 12.6666 13.6895 12.6666C13.6007 12.6666 13.5175 12.6993 13.4547 12.7584C13.3919 12.8176 13.3574 12.8962 13.3574 12.9797C13.3574 13.0634 13.3919 13.1423 13.4547 13.2011L14.3586 14.0535Z" fill="white"/>
<path d="M11.7784 11.5493C11.841 11.6085 11.9244 11.6411 12.0134 11.6411C12.1021 11.6411 12.1854 11.6085 12.2483 11.5493C12.3777 11.4273 12.3777 11.2284 12.2483 11.1063L11.3443 10.2543C11.2815 10.1951 11.1982 10.1626 11.1095 10.1626C11.0208 10.1626 10.9375 10.1951 10.8747 10.2543C10.812 10.3135 10.7773 10.392 10.7773 10.4757C10.7773 10.5592 10.812 10.6379 10.8747 10.697L11.7784 11.5493Z" fill="white"/>
<path d="M10.2053 9.93322C10.388 9.9331 10.5371 9.79734 10.5372 9.6239C10.5372 9.45426 10.3843 9.31067 10.2051 9.31067C10.0318 9.31067 9.87305 9.44704 9.87305 9.62378C9.87305 9.79734 10.0221 9.93335 10.2053 9.93322Z" fill="white"/>
<path d="M25.4053 23.5125L16.7665 15.367C16.6368 15.2448 16.4265 15.2448 16.2969 15.367C16.1672 15.4893 16.1672 15.6876 16.2969 15.8099L16.5317 16.0313L9.14292 22.9979C9.09584 22.8791 8.97457 22.7945 8.83216 22.7945C8.64864 22.7945 8.5 22.9347 8.5 23.1076V23.7338C8.5 23.8994 8.65382 24.0467 8.83216 24.0469H25.1704C25.4602 24.0469 25.6101 23.7056 25.4053 23.5125ZM10.8122 22.3097C11.0743 22.6322 11.2435 23.0181 11.3002 23.4207H9.63384L10.8122 22.3097ZM11.9697 23.4207C11.9692 23.4161 11.9684 23.4116 11.9679 23.4069C11.9032 22.8446 11.6635 22.3026 11.2856 21.8634L17.0013 16.4741L24.3688 23.4207H11.9697Z" fill="white"/>
<path d="M12.2993 18.0979C12.3989 18.0979 12.5675 18.0531 12.5675 17.9335C12.5675 17.9232 12.5675 16.9516 12.5675 16.9516C12.5675 16.7272 12.4923 16.5409 12.3418 16.3925C12.1914 16.2443 11.9614 16.1702 11.6521 16.1702C11.4902 16.1702 11.3363 16.1989 11.1901 16.2563C11.0073 16.3282 10.9068 16.4544 11.0219 16.6351C11.098 16.7544 11.2107 16.6996 11.3155 16.6472C11.4851 16.5623 11.7943 16.5284 11.9268 16.6924C11.9877 16.768 12.0182 16.8566 12.0182 16.9582V17.0118H11.8436C11.5229 17.0118 11.2774 17.0547 11.1071 17.1403C10.9366 17.2261 10.8516 17.3742 10.8516 17.5846C10.8516 17.8918 11.0653 18.1341 11.4051 18.1341C11.6407 18.1341 11.8565 18.0221 12.0523 17.7981V17.9222C12.0523 18.0426 12.1965 18.0979 12.2993 18.0979ZM11.8905 17.6111C11.8054 17.6872 11.7173 17.7251 11.6265 17.7251C11.495 17.7251 11.4008 17.6407 11.4008 17.5198C11.4008 17.4235 11.4497 17.3595 11.5477 17.3278C11.5942 17.3128 12.0182 17.2569 12.0182 17.2802C12.0182 17.4084 11.9907 17.5217 11.8905 17.6111Z" fill="white"/>
<path d="M21.008 17.933C21.0102 17.9467 21.0137 17.96 21.019 17.973C21.0492 18.0456 21.1341 18.0863 21.2163 18.0959C21.3008 18.1057 21.3918 18.0873 21.4555 18.034C21.5193 17.9807 21.5495 17.8895 21.516 17.8157C21.6824 18.0882 22.0844 18.2056 22.3851 18.0695C22.7008 17.9266 22.8487 17.5735 22.8722 17.244C22.8886 17.0122 22.8557 16.7719 22.7374 16.5681C22.619 16.3643 22.4064 16.2019 22.1619 16.1722C21.9176 16.1425 21.6504 16.2659 21.558 16.4814C21.5562 16.0981 21.5544 15.7149 21.5525 15.3316C21.5522 15.2836 21.5516 15.2336 21.5281 15.191C21.4513 15.0518 21.0989 15.0441 21.0282 15.1902C21.0033 15.2415 21.0029 15.2999 21.0029 15.3563C21.0033 16.1909 21.0037 17.0254 21.0041 17.8601C21.0041 17.8843 21.0041 17.909 21.008 17.933ZM21.5532 16.9849C21.5532 16.8789 21.5922 16.7927 21.6704 16.7264C21.7483 16.6601 21.8356 16.6269 21.9322 16.6269C22.0344 16.6269 22.1224 16.6635 22.1962 16.7363C22.27 16.8092 22.3069 16.8921 22.3069 16.9848V17.311C22.3069 17.4038 22.27 17.4881 22.1962 17.5636C22.1224 17.6392 22.0359 17.677 21.9365 17.677C21.837 17.677 21.7484 17.6405 21.6704 17.5676C21.5923 17.4947 21.5532 17.433 21.5532 17.3827V16.9849Z" fill="white"/>
<path d="M16.582 21.5631V21.8837C16.582 22.4055 16.9775 22.7054 17.506 22.7054C17.699 22.7054 17.8644 22.6712 18.002 22.6031C18.1731 22.5185 18.2759 22.3742 18.1426 22.2123C18.0482 22.0979 17.9338 22.1354 17.8169 22.1903C17.7344 22.2291 17.645 22.2484 17.5486 22.2484C17.2703 22.2484 17.1313 22.1265 17.1313 21.8825V21.5644C17.1313 21.3203 17.2689 21.1984 17.5443 21.1984C17.6982 21.1984 17.8249 21.3065 17.9658 21.3066C18.0925 21.3065 18.183 21.1617 18.183 21.0541C18.1829 20.7994 17.6888 20.7415 17.5017 20.7415C16.9802 20.7415 16.582 21.0515 16.582 21.5631Z" fill="white"/>
</g>
<defs>
<clipPath id="clip0_15455_351544">
<rect width="17" height="16" fill="white" transform="translate(8.5 8)"/>
</clipPath>
</defs>
</svg>
