<svg width="50" height="50" viewBox="0 0 33 33" fill="none" xmlns="http://www.w3.org/2000/svg">
<rect width="33" height="33" rx="5" fill="#FFB443"/>
<path d="M24.5 24.125C25.0169 24.125 25.4375 23.7044 25.4375 23.1875C25.4375 22.6706 25.0169 22.25 24.5 22.25C23.9831 22.25 23.5625 22.6706 23.5625 23.1875C23.5625 23.7044 23.9831 24.125 24.5 24.125ZM24.5 22.875C24.6722 22.875 24.8125 23.015 24.8125 23.1875C24.8125 23.36 24.6722 23.5 24.5 23.5C24.3278 23.5 24.1875 23.36 24.1875 23.1875C24.1875 23.015 24.3278 22.875 24.5 22.875Z" fill="white"/>
<path d="M22 24.125C22.5169 24.125 22.9375 23.7044 22.9375 23.1875C22.9375 22.6706 22.5169 22.25 22 22.25C21.4831 22.25 21.0625 22.6706 21.0625 23.1875C21.0625 23.7044 21.4831 24.125 22 24.125ZM22 22.875C22.1722 22.875 22.3125 23.015 22.3125 23.1875C22.3125 23.36 22.1722 23.5 22 23.5C21.8278 23.5 21.6875 23.36 21.6875 23.1875C21.6875 23.015 21.8278 22.875 22 22.875Z" fill="white"/>
<path d="M19.5 24.125C20.0169 24.125 20.4375 23.7044 20.4375 23.1875C20.4375 22.6706 20.0169 22.25 19.5 22.25C18.9831 22.25 18.5625 22.6706 18.5625 23.1875C18.5625 23.7044 18.9831 24.125 19.5 24.125ZM19.5 22.875C19.6722 22.875 19.8125 23.015 19.8125 23.1875C19.8125 23.36 19.6722 23.5 19.5 23.5C19.3278 23.5 19.1875 23.36 19.1875 23.1875C19.1875 23.015 19.3278 22.875 19.5 22.875Z" fill="white"/>
<path d="M15.2534 19.4375H15.4375H26.6875V17.645C26.6875 16.6759 26.0372 15.8122 25.1062 15.5431L24.8125 15.4584V10.0625C24.8125 7.99469 23.1303 6.3125 21.0625 6.3125C18.9947 6.3125 17.3125 7.99469 17.3125 10.0625V15.4584L17.0188 15.5431C16.9044 15.5759 16.7944 15.6216 16.6869 15.6728C16.6788 13.6119 15.0003 11.9375 12.9375 11.9375C10.8697 11.9375 9.1875 13.6197 9.1875 15.6875V18.1875C9.1875 18.8769 9.74813 19.4375 10.4375 19.4375H10.6216C10.7834 19.8359 11.0447 20.1831 11.375 20.4484V21.0775L8.89375 21.7931C7.96281 22.0619 7.3125 22.9259 7.3125 23.895V25.6875H18.25H25.75C26.2669 25.6875 26.6875 25.2669 26.6875 24.75V21.625C26.6875 21.1081 26.2669 20.6875 25.75 20.6875H25.2544L24.1875 19.6206L23.1206 20.6875H18.25C17.7331 20.6875 17.3125 21.1081 17.3125 21.625V21.9225C17.2053 21.8713 17.0953 21.8259 16.9812 21.7931L14.5 21.0775V20.4484C14.8303 20.1831 15.0916 19.8359 15.2534 19.4375ZM15.4159 18.8125C15.4288 18.71 15.4375 18.6059 15.4375 18.5V17.5625C15.7822 17.5625 16.0625 17.8428 16.0625 18.1875C16.0625 18.5322 15.7822 18.8125 15.4375 18.8125H15.4159ZM18.25 15.8384L19.5578 15.4609C19.7063 16.0194 20.1522 16.4556 20.7181 16.5837C20.5938 17.1428 20.0959 17.5625 19.5 17.5625C18.8106 17.5625 18.25 17.0019 18.25 16.3125V15.8384ZM21.0625 14.125C20.0284 14.125 19.1875 13.2841 19.1875 12.25V11C19.1875 10.8275 19.3278 10.6875 19.5 10.6875H22.625C22.7972 10.6875 22.9375 10.8275 22.9375 11V12.25C22.9375 13.2841 22.0966 14.125 21.0625 14.125ZM20.125 14.5659C20.4147 14.6838 20.7309 14.75 21.0625 14.75C21.3941 14.75 21.7103 14.6838 22 14.5659V15.0625C22 15.5794 21.5794 16 21.0625 16C20.5456 16 20.125 15.5794 20.125 15.0625V14.5659ZM22.5672 15.4612L23.875 15.8384V16.3125C23.875 17.0019 23.3144 17.5625 22.625 17.5625C22.0291 17.5625 21.5313 17.1428 21.4066 16.5841C21.9728 16.4559 22.4187 16.0194 22.5672 15.4612ZM22.625 14.8275V14.1984C22.9553 13.9331 23.2166 13.5859 23.3784 13.1875H23.5625C23.7913 13.1875 24.0028 13.1213 24.1875 13.0138V15.2781L22.625 14.8275ZM23.5625 12.25V11.3125C23.9072 11.3125 24.1875 11.5928 24.1875 11.9375C24.1875 12.2822 23.9072 12.5625 23.5625 12.5625H23.5409C23.5537 12.46 23.5625 12.3559 23.5625 12.25ZM21.0625 6.9375C22.7856 6.9375 24.1875 8.33938 24.1875 10.0625V10.8612C24.0028 10.7537 23.7913 10.6875 23.5625 10.6875H23.505C23.3756 10.3247 23.0319 10.0625 22.625 10.0625H19.5C19.0931 10.0625 18.7494 10.3247 18.62 10.6875H18.5625C18.3337 10.6875 18.1222 10.7537 17.9375 10.8612V10.0625C17.9375 8.33938 19.3394 6.9375 21.0625 6.9375ZM18.5841 12.5625H18.5625C18.2178 12.5625 17.9375 12.2822 17.9375 11.9375C17.9375 11.5928 18.2178 11.3125 18.5625 11.3125V12.25C18.5625 12.3559 18.5712 12.46 18.5841 12.5625ZM17.9375 13.0138C18.1222 13.1213 18.3337 13.1875 18.5625 13.1875H18.7466C18.9084 13.5859 19.1697 13.9331 19.5 14.1984V14.8275L17.9375 15.2781V13.0138ZM17.1919 16.1437L17.625 16.0188V16.3125C17.625 17.3466 18.4659 18.1875 19.5 18.1875C20.1519 18.1875 20.7262 17.8528 21.0625 17.3469C21.3988 17.8531 21.9731 18.1875 22.625 18.1875C23.6591 18.1875 24.5 17.3466 24.5 16.3125V16.0188L24.9331 16.1437C25.5981 16.3356 26.0625 16.9531 26.0625 17.645V18.8125H16.5138C16.6213 18.6278 16.6875 18.4163 16.6875 18.1875V16.3969C16.8387 16.2828 17.0075 16.1969 17.1919 16.1437ZM12.9375 12.5625C14.6606 12.5625 16.0625 13.9644 16.0625 15.6875V17.1112C15.8778 17.0037 15.6663 16.9375 15.4375 16.9375V16.3125H15.125C14.1847 16.3125 13.2525 16.0019 12.5 15.4375L12.2356 15.2391L11.9475 15.6716C11.68 16.0728 11.2322 16.3125 10.75 16.3125H10.4375V16.9375C10.2088 16.9375 9.99719 17.0037 9.8125 17.1112V15.6875C9.8125 13.9644 11.2144 12.5625 12.9375 12.5625ZM10.4375 18.8125C10.0928 18.8125 9.8125 18.5322 9.8125 18.1875C9.8125 17.8428 10.0928 17.5625 10.4375 17.5625V18.5C10.4375 18.6059 10.4462 18.71 10.4591 18.8125H10.4375ZM11.0625 18.5V16.9141C11.5897 16.8337 12.0662 16.5525 12.3919 16.1244C13.1131 16.5941 13.9538 16.8731 14.8125 16.9275V18.5C14.8125 19.5341 13.9716 20.375 12.9375 20.375C11.9034 20.375 11.0625 19.5341 11.0625 18.5ZM11.5969 21.6637L12.4469 22.5141L11.3016 23.2775L11.0919 21.8094L11.5969 21.6637ZM13.7597 23.4859L13.2166 24.0291L13.4747 25.0625H12.4003L12.6588 24.0291L12.1156 23.4859L12.9375 22.9381L13.7597 23.4859ZM7.9375 23.895C7.9375 23.2031 8.40187 22.5859 9.06687 22.3937L10.4856 21.9844L10.8231 24.3475L11.585 23.8397L11.9662 24.2209L11.7559 25.0625H7.9375V23.895ZM17.9375 21.625C17.9375 21.4525 18.0778 21.3125 18.25 21.3125H23.3794L24.1875 20.5044L24.9956 21.3125H25.75C25.9222 21.3125 26.0625 21.4525 26.0625 21.625V24.75C26.0625 24.9225 25.9222 25.0625 25.75 25.0625H18.25C18.0778 25.0625 17.9375 24.9225 17.9375 24.75V21.625ZM17.3125 22.6472V24.75C17.3125 24.86 17.335 24.9644 17.37 25.0625H14.1191L13.9088 24.2209L14.29 23.8397L15.0519 24.3475L15.3894 21.9844L16.8084 22.3937C16.9925 22.4469 17.1609 22.5328 17.3125 22.6472ZM14.7831 21.8094L14.5734 23.2775L13.4281 22.5141L14.2781 21.6637L14.7831 21.8094ZM13.875 21.1831L12.9375 22.1206L12 21.1831V20.8159C12.2897 20.9338 12.6059 21 12.9375 21C13.2691 21 13.5853 20.9338 13.875 20.8159V21.1831Z" fill="white"/>
<path d="M8.25 11.3125H8.74563L9.8125 12.3794L10.8794 11.3125H15.75C16.2669 11.3125 16.6875 10.8919 16.6875 10.375V7.25C16.6875 6.73312 16.2669 6.3125 15.75 6.3125H8.25C7.73312 6.3125 7.3125 6.73312 7.3125 7.25V10.375C7.3125 10.8919 7.73312 11.3125 8.25 11.3125ZM7.9375 7.25C7.9375 7.0775 8.07781 6.9375 8.25 6.9375H15.75C15.9222 6.9375 16.0625 7.0775 16.0625 7.25V10.375C16.0625 10.5475 15.9222 10.6875 15.75 10.6875H10.6206L9.8125 11.4956L9.00437 10.6875H8.25C8.07781 10.6875 7.9375 10.5475 7.9375 10.375V7.25Z" fill="white"/>
<path d="M9.5 9.75C10.0169 9.75 10.4375 9.32938 10.4375 8.8125C10.4375 8.29562 10.0169 7.875 9.5 7.875C8.98312 7.875 8.5625 8.29562 8.5625 8.8125C8.5625 9.32938 8.98312 9.75 9.5 9.75ZM9.5 8.5C9.67219 8.5 9.8125 8.64 9.8125 8.8125C9.8125 8.985 9.67219 9.125 9.5 9.125C9.32781 9.125 9.1875 8.985 9.1875 8.8125C9.1875 8.64 9.32781 8.5 9.5 8.5Z" fill="white"/>
<path d="M12 9.75C12.5169 9.75 12.9375 9.32938 12.9375 8.8125C12.9375 8.29562 12.5169 7.875 12 7.875C11.4831 7.875 11.0625 8.29562 11.0625 8.8125C11.0625 9.32938 11.4831 9.75 12 9.75ZM12 8.5C12.1722 8.5 12.3125 8.64 12.3125 8.8125C12.3125 8.985 12.1722 9.125 12 9.125C11.8278 9.125 11.6875 8.985 11.6875 8.8125C11.6875 8.64 11.8278 8.5 12 8.5Z" fill="white"/>
<path d="M14.5 9.75C15.0169 9.75 15.4375 9.32938 15.4375 8.8125C15.4375 8.29562 15.0169 7.875 14.5 7.875C13.9831 7.875 13.5625 8.29562 13.5625 8.8125C13.5625 9.32938 13.9831 9.75 14.5 9.75ZM14.5 8.5C14.6722 8.5 14.8125 8.64 14.8125 8.8125C14.8125 8.985 14.6722 9.125 14.5 9.125C14.3278 9.125 14.1875 8.985 14.1875 8.8125C14.1875 8.64 14.3278 8.5 14.5 8.5Z" fill="white"/>
</svg>
