<svg width="50" height="50" viewBox="0 0 33 33" fill="none" xmlns="http://www.w3.org/2000/svg">
<rect width="33" height="33" rx="5" fill="#8BC728"/>
<path d="M15.4351 13.6161H10.6803C10.4597 13.6161 10.2808 13.4382 10.2808 13.2188C10.2808 12.9994 10.4597 12.8215 10.6803 12.8215H15.4351C15.6558 12.8215 15.8346 12.9994 15.8346 13.2188C15.8346 13.4382 15.6558 13.6161 15.4351 13.6161ZM15.0132 23.2049C15.0132 23.4244 14.8344 23.6022 14.6138 23.6022H13.1098V25.6027C13.1098 25.7574 13.0194 25.8981 12.8783 25.9632C12.8247 25.9879 12.7674 26 12.7104 26C12.6176 26 12.5257 25.9679 12.4521 25.9059L11.6952 25.2683L10.9385 25.9058C10.8198 26.0058 10.6534 26.0282 10.5123 25.9631C10.3712 25.8981 10.2808 25.7574 10.2808 25.6027V23.6022H8.39945C8.17882 23.6022 8 23.4243 8 23.2049V8.21227C8 7.54386 8.47774 7.00007 9.06497 7.00007H20.1431C20.3637 7.00007 20.5425 7.17792 20.5425 7.39735C20.5425 7.61678 20.3637 7.79463 20.1431 7.79463H9.06497C8.93937 7.79463 8.79889 7.97323 8.79889 8.21227V8.63003H20.1431C20.3637 8.63003 20.5425 8.80788 20.5425 9.02731V12.8944C20.5425 13.1138 20.3637 13.2917 20.1431 13.2917C19.9225 13.2917 19.7436 13.1138 19.7436 12.8944V9.4246H8.79889V22.8076H14.6138C14.8344 22.8077 15.0132 22.9855 15.0132 23.2049ZM12.3109 23.6022H11.0797V24.7456L11.4371 24.4446C11.5115 24.3819 11.6034 24.3505 11.6952 24.3505C11.7871 24.3505 11.8789 24.3818 11.9534 24.4446L12.3109 24.7457V23.6022ZM26 19.8227C26 22.8335 23.5372 25.2829 20.5101 25.2829C17.483 25.2829 15.0202 22.8334 15.0202 19.8227C15.0202 16.8119 17.483 14.3625 20.5101 14.3625C21.0702 14.3625 21.9165 14.3625 22.3893 15.0349C22.5898 15.3201 22.9414 16.0971 21.881 17.1498C21.5367 17.4916 21.5362 18.0482 21.8798 18.3906C22.2236 18.7326 22.7834 18.7333 23.1274 18.3918C23.8314 17.6929 24.4093 17.6231 24.7701 17.6876C25.2028 17.765 25.5641 18.0739 25.7874 18.5574C25.9742 18.962 26 19.4046 26 19.8227ZM25.2011 19.8227C25.2011 19.4438 25.1774 19.1401 25.0614 18.8891C24.9829 18.7189 24.844 18.5082 24.6287 18.4696C24.3836 18.4259 24.0507 18.5979 23.6917 18.9542C23.0363 19.6049 21.9699 19.604 21.3145 18.9522C20.6595 18.2993 20.6606 17.2387 21.3166 16.5875C21.5782 16.3278 21.9803 15.8399 21.7346 15.4902C21.5176 15.1816 21.0711 15.1571 20.5101 15.1571C17.9235 15.1571 15.8191 17.2501 15.8191 19.8228C15.8191 22.3954 17.9235 24.4884 20.5101 24.4884C23.0967 24.4883 25.2011 22.3953 25.2011 19.8227ZM10.6803 14.3792C10.4597 14.3792 10.2808 14.5571 10.2808 14.7765C10.2808 14.996 10.4597 15.1738 10.6803 15.1738H12.2904C12.511 15.1738 12.6899 14.996 12.6899 14.7765C12.6899 14.5571 12.511 14.3792 12.2904 14.3792H10.6803ZM22.0371 7.69156C21.9112 7.57802 21.8714 7.39766 21.9378 7.2421C22.0042 7.0865 22.1617 6.98978 22.3318 7.00086C25.1202 7.18418 25.4294 8.8017 25.3872 10.1904C25.3675 10.8357 24.9447 11.3667 24.3668 11.5385V16.2591C24.3668 16.4785 24.1879 16.6564 23.9673 16.6564C23.7467 16.6564 23.5679 16.4785 23.5679 16.2591V11.5425C22.9717 11.3723 22.5343 10.8252 22.5343 10.1784C22.5343 9.99585 22.5357 9.82665 22.5371 9.66915C22.5473 8.46825 22.5296 8.13581 22.0371 7.69156ZM23.168 7.92905C23.3468 8.39612 23.3422 8.93329 23.336 9.6759C23.3346 9.83133 23.3332 9.99823 23.3332 10.1784C23.3332 10.5226 23.6148 10.8026 23.9609 10.8026C24.302 10.8026 24.5777 10.5232 24.5887 10.1664C24.6174 9.22092 24.5152 8.28572 23.168 7.92905ZM18.8707 21.0567C18.6558 21.2699 18.3704 21.3874 18.067 21.3874H18.0659C17.762 21.3871 17.4764 21.2691 17.2618 21.0552C16.8187 20.6137 16.8194 19.8958 17.2633 19.4551C17.7073 19.0144 18.4291 19.0151 18.8722 19.4566C19.3153 19.8981 19.3146 20.6159 18.8707 21.0567ZM18.3067 20.0179C18.2407 19.9521 18.1538 19.9192 18.067 19.9192C17.9804 19.9192 17.8937 19.9519 17.8277 20.0175C17.6955 20.1487 17.6953 20.3624 17.8272 20.4939C17.8911 20.5576 17.9761 20.5927 18.0666 20.5928C18.157 20.5928 18.2423 20.5578 18.3063 20.4944C18.4384 20.3631 18.4387 20.1493 18.3067 20.0179ZM20.8751 21.4524C21.3182 21.8941 21.3175 22.6119 20.8735 23.0526C20.6518 23.2726 20.3608 23.3827 20.0699 23.3827C19.7782 23.3827 19.4865 23.2722 19.2647 23.0511C19.05 22.8372 18.9319 22.5529 18.9322 22.2507C18.9325 21.9485 19.0511 21.6645 19.2662 21.451C19.7102 21.0102 20.4319 21.0108 20.8751 21.4524ZM20.3096 22.0137C20.1777 21.8822 19.9628 21.8821 19.8306 22.0133C19.7665 22.0769 19.7312 22.1614 19.7311 22.2514C19.731 22.3414 19.7662 22.426 19.8301 22.4897C19.9621 22.6212 20.177 22.6214 20.3092 22.4902C20.4413 22.359 20.4416 22.1452 20.3096 22.0137ZM10.6803 12.0585H14.4652C14.6858 12.0585 14.8646 11.8806 14.8646 11.6612C14.8646 11.4417 14.6858 11.2639 14.4652 11.2639H10.6803C10.4597 11.2639 10.2808 11.4417 10.2808 11.6612C10.2808 11.8806 10.4597 12.0585 10.6803 12.0585ZM18.0758 18.3033C17.8612 18.0894 17.7431 17.8051 17.7434 17.5029C17.7437 17.2007 17.8623 16.9166 18.0774 16.7031C18.5213 16.2625 19.2431 16.2631 19.6862 16.7046C19.9008 16.9185 20.019 17.2028 20.0187 17.505C20.0184 17.8072 19.8998 18.0912 19.6848 18.3048C19.47 18.518 19.1846 18.6354 18.8811 18.6354H18.88C18.5761 18.6351 18.2905 18.5172 18.0758 18.3033ZM18.5423 17.5037C18.5422 17.5936 18.5774 17.6783 18.6413 17.7419C18.7052 17.8056 18.7902 17.8408 18.8808 17.8409C18.9711 17.8409 19.0564 17.8059 19.1204 17.7424C19.1844 17.6789 19.2197 17.5943 19.2198 17.5043C19.2199 17.4143 19.1847 17.3297 19.1208 17.266C19.0548 17.2002 18.968 17.1673 18.8811 17.1673C18.7945 17.1673 18.7078 17.2 18.6418 17.2656C18.5777 17.3291 18.5424 17.4137 18.5423 17.5037ZM23.5498 20.5546C23.993 20.9961 23.9922 21.714 23.5482 22.1547C23.3335 22.3679 23.0481 22.4853 22.7446 22.4853H22.7436C22.4397 22.4851 22.1541 22.3671 21.9394 22.1532C21.4964 21.7115 21.497 20.9938 21.9409 20.5531C22.1557 20.3398 22.4412 20.2224 22.7446 20.2224H22.7457C23.0496 20.2227 23.3351 20.3407 23.5498 20.5546ZM23.0833 21.3542C23.0834 21.2642 23.0483 21.1796 22.9844 21.1159C22.9204 21.0522 22.8354 21.0171 22.7449 21.017C22.6545 21.017 22.5692 21.0519 22.5053 21.1154C22.3731 21.2466 22.3729 21.4604 22.5049 21.5919C22.5688 21.6555 22.6538 21.6907 22.7442 21.6908C22.8346 21.6908 22.9199 21.6558 22.9838 21.5923C23.0479 21.5287 23.0832 21.4441 23.0833 21.3542Z" fill="white"/>
</svg>
