<svg width="50" height="50" viewBox="0 0 33 33" fill="none" xmlns="http://www.w3.org/2000/svg">
<rect width="33" height="33" rx="5" fill="#7CD7D3"/>
<path d="M15.6144 17.7534C15.1609 17.9045 14.7581 18.0837 14.4822 18.3596C14.4348 18.4079 14.4013 18.4682 14.3853 18.534L12.8849 24.5327C12.875 24.5716 12.875 24.625 12.875 24.625C12.875 24.8313 13.0438 25 13.25 25C13.2876 25 13.457 25 13.5692 24.8179L15.125 22.2296C15.124 23.4031 15.1236 24.5765 15.125 25.75C15.1257 25.9572 15.2928 26.1258 15.5 26.125H18.5C18.7061 26.1243 18.8743 25.9561 18.875 25.75C18.8736 24.5765 18.875 23.4031 18.875 22.2296L20.4266 24.8179C20.5317 25 20.7124 25 20.75 25C20.9563 25 21.125 24.8313 21.125 24.625C21.125 24.625 21.125 24.5774 21.1137 24.5327L19.6133 18.534C19.5966 18.468 19.5621 18.4076 19.5137 18.3596C19.2378 18.0837 18.8377 17.9045 18.3842 17.7534C17.9307 17.6022 17.4384 17.5 17.0006 17.5C16.5629 17.5 16.069 17.6022 15.6155 17.7534H15.6144ZM18.1446 18.4648C18.505 18.585 18.7879 18.7308 18.9135 18.8351L19.7723 22.2684L18.82 20.6822C18.7119 20.5 18.537 20.5 18.4995 20.5C18.2932 20.5 18.1245 20.6688 18.1245 20.875C18.1237 22.3747 18.1231 23.8753 18.1239 25.375H15.875C15.8708 23.8753 15.8745 22.3747 15.8745 20.875C15.8745 20.6688 15.7057 20.5 15.4995 20.5C15.4619 20.5 15.2874 20.5 15.1762 20.6822L14.2184 22.2767L15.087 18.8284C15.1764 18.7536 15.4869 18.5854 15.8489 18.4648C16.2391 18.3347 16.6866 18.25 16.9995 18.25C17.3124 18.25 17.7543 18.3347 18.1446 18.4648Z" fill="white"/>
<path d="M18.8916 12.3481C18.5865 12.3481 18.5164 12.7231 18.0793 12.7231H15.8916C15.7354 12.7231 15.5697 12.7697 15.4441 12.8674C15.3185 12.965 15.2482 13.0953 15.209 13.2131C15.1522 13.3837 15.1417 13.5291 15.1416 13.5603C15.0611 13.5818 14.8447 13.7256 14.697 13.9301C14.5024 14.1997 14.3916 14.5594 14.3916 14.9731V15.7231C14.3916 16.2231 14.6531 16.6183 14.9541 16.8591C15.2551 17.0999 15.5791 17.2231 15.8916 17.2231H16.2666H17.3916C18.2156 17.2231 18.8916 16.5471 18.8916 15.7231C18.8916 15.4112 18.7877 15.1262 18.6213 14.8867C19.2113 14.6845 19.6416 14.1291 19.6416 13.4731C19.6416 13.4731 19.6443 13.2697 19.5823 13.0387C19.5203 12.8078 19.3731 12.4631 18.9905 12.3605C18.954 12.3506 18.9253 12.3478 18.8916 12.3478L18.8916 12.3481ZM18.8572 13.2255C18.8891 13.3444 18.8916 13.4731 18.8916 13.4731C18.8916 13.895 18.5635 14.2231 18.1416 14.2231H17.3916C16.5683 14.2231 15.8916 14.8998 15.8916 15.7231V16.4731C15.8291 16.4731 15.5898 16.4086 15.4221 16.2746C15.2544 16.1404 15.1416 15.9731 15.1416 15.7231V14.9731C15.1416 14.6949 15.219 14.4903 15.3057 14.3703C15.3923 14.2503 15.4735 14.2231 15.5166 14.2231C15.7248 14.2238 15.8924 14.0564 15.8916 13.8481V13.4731H18.0793C18.4676 13.4731 18.8572 13.2255 18.8572 13.2255V13.2255ZM17.3916 14.9731C17.8103 14.9731 18.1416 15.3044 18.1416 15.7231C18.1416 16.1418 17.8103 16.4725 17.3916 16.4731H16.6416V15.7231C16.6416 15.3089 16.9774 14.9731 17.3916 14.9731H17.3916Z" fill="white"/>
<path d="M9.875 13.75C8.84391 13.75 8 14.5939 8 15.625C8 16.1627 8.23252 16.646 8.59839 16.9888C8.41067 17.0628 8.23148 17.147 8.07324 17.2525C7.593 17.5726 7.25 18.0586 7.25 18.625V21.625C7.25075 21.8311 7.41891 21.9993 7.625 22H12.125C12.3311 21.9993 12.4993 21.8311 12.5 21.625V18.625C12.5 18.0586 12.1548 17.5726 11.6746 17.2525C11.5166 17.1472 11.3379 17.0627 11.1509 16.9888C11.517 16.646 11.75 16.1629 11.75 15.625C11.75 14.5939 10.9061 13.75 9.875 13.75V13.75ZM9.875 14.5C10.5008 14.5 11 14.9993 11 15.625C11 16.2508 10.5008 16.75 9.875 16.75C9.24925 16.75 8.75 16.2508 8.75 15.625C8.75 14.9993 9.24925 14.5 9.875 14.5V14.5ZM9.875 17.5C10.4312 17.5 10.9262 17.6529 11.2593 17.875C11.5924 18.0971 11.7501 18.3605 11.75 18.625V21.25H11V19.375C11 19.1609 10.8391 19 10.625 19C10.4178 19 10.25 19.1677 10.25 19.375V21.25H9.5V19.375C9.5 19.1634 9.3337 19 9.125 19C8.91668 19 8.75 19.1667 8.75 19.375V21.25H8V18.625C8 18.3605 8.15834 18.0971 8.49146 17.875C8.82458 17.6529 9.31884 17.5 9.875 17.5V17.5Z" fill="white"/>
<path d="M24.125 13.75C23.0939 13.75 22.25 14.5939 22.25 15.625C22.25 16.1629 22.4834 16.6457 22.8499 16.9881C22.6619 17.0621 22.4825 17.1468 22.324 17.2525C21.8437 17.5726 21.5 18.0586 21.5 18.625V21.625C21.5007 21.8322 21.6678 22.0008 21.875 22H26.375C26.5822 22.0008 26.7493 21.8322 26.75 21.625V18.625C26.75 18.0586 26.4056 17.5726 25.9253 17.2525C25.7672 17.147 25.5882 17.0627 25.4009 16.9888C25.767 16.6464 26 16.1633 26 15.625C26 14.5939 25.1561 13.75 24.125 13.75V13.75ZM24.125 14.5C24.7508 14.5 25.25 14.9993 25.25 15.625C25.25 16.2508 24.7508 16.75 24.125 16.75C23.4992 16.75 23 16.2508 23 15.625C23 14.9993 23.4992 14.5 24.125 14.5ZM24.125 17.5C24.6812 17.5 25.1769 17.6529 25.51 17.875C25.8431 18.0971 26 18.3605 26 18.625V21.25H25.25V19.375C25.25 19.1609 25.0891 19 24.875 19C24.6678 19 24.5 19.1677 24.5 19.375V21.25H23.75V19.375C23.75 19.1634 23.5837 19 23.375 19C23.1667 19 23 19.1667 23 19.375V21.25H22.25V18.625C22.25 18.3605 22.4061 18.0971 22.7393 17.875C23.0724 17.6529 23.5688 17.5 24.125 17.5V17.5Z" fill="white"/>
<path d="M17 5.875C16.176 5.875 15.5 6.55105 15.5 7.37502C15.5 7.73392 15.6336 8.05998 15.8464 8.31911C15.6122 8.40004 15.391 8.4987 15.199 8.62673C14.7187 8.94689 14.375 9.43357 14.375 10V11.5C14.375 11.7071 14.5429 11.875 14.75 11.875C14.9571 11.875 15.125 11.7071 15.125 11.5V10C15.125 9.73546 15.2833 9.47135 15.6165 9.24927C15.9496 9.02719 16.4438 8.875 17 8.875C17.5562 8.875 18.0519 9.02719 18.385 9.24927C18.7181 9.47135 18.8751 9.73548 18.875 10V10.75C18.875 10.9571 19.0429 11.125 19.25 11.125C19.4571 11.125 19.625 10.9571 19.625 10.75V10C19.625 9.43357 19.2805 8.94689 18.8003 8.62673C18.6083 8.49874 18.3876 8.40004 18.1536 8.31911C18.3664 8.05998 18.5 7.73392 18.5 7.37502C18.5 6.55105 17.824 5.875 17 5.875ZM17 6.62501C17.4186 6.62501 17.75 6.95637 17.75 7.37502C17.75 7.79369 17.4186 8.12499 17 8.12499C16.5813 8.12499 16.25 7.79369 16.25 7.37502C16.25 6.95637 16.5813 6.62501 17 6.62501Z" fill="white"/>
<path d="M10.625 8.5C9.80101 8.5 9.125 9.17603 9.125 10C9.125 10.3585 9.25822 10.6844 9.47071 10.9434C9.23628 11.0242 9.01527 11.123 8.82324 11.251C8.34298 11.5711 8 12.0586 8 12.625V13C8 13.2071 8.1679 13.375 8.375 13.375C8.58211 13.375 8.75 13.2071 8.75 13V12.625C8.75 12.3605 8.90833 12.0985 9.24146 11.8765C9.57458 11.6544 10.0688 11.5 10.625 11.5C11.1812 11.5 11.6769 11.6544 12.01 11.8765C12.3431 12.0985 12.5 12.3605 12.5 12.625V14.875C12.5 14.9243 12.5097 14.973 12.5285 15.0185C12.5474 15.064 12.575 15.1054 12.6098 15.1402C12.6447 15.175 12.686 15.2026 12.7315 15.2215C12.777 15.2403 12.8258 15.25 12.875 15.25C12.9242 15.25 12.973 15.2403 13.0185 15.2215C13.064 15.2026 13.1053 15.175 13.1402 15.1402C13.175 15.1054 13.2026 15.064 13.2215 15.0185C13.2403 14.973 13.25 14.9243 13.25 14.875V12.625C13.25 12.0586 12.9048 11.5711 12.4246 11.251C12.233 11.1233 12.0126 11.0248 11.7793 10.9441C11.992 10.685 12.125 10.3588 12.125 10C12.125 9.17603 11.449 8.5 10.625 8.5V8.5ZM10.625 9.25001C11.0437 9.25001 11.375 9.58136 11.375 10C11.375 10.4187 11.0437 10.75 10.625 10.75C10.2064 10.75 9.875 10.4187 9.875 10C9.875 9.58136 10.2064 9.25001 10.625 9.25001V9.25001Z" fill="white"/>
<path d="M23.375 8.5C22.551 8.5 21.875 9.17603 21.875 10C21.875 10.3588 22.008 10.685 22.2207 10.9441C21.9874 11.0249 21.767 11.1233 21.5754 11.251C21.0952 11.5711 20.75 12.0586 20.75 12.625V14.875C20.75 14.9243 20.7597 14.973 20.7785 15.0185C20.7974 15.064 20.825 15.1054 20.8598 15.1402C20.8947 15.175 20.936 15.2026 20.9815 15.2215C21.027 15.2403 21.0758 15.25 21.125 15.25C21.1742 15.25 21.223 15.2403 21.2685 15.2215C21.314 15.2026 21.3553 15.175 21.3902 15.1402C21.425 15.1054 21.4526 15.064 21.4715 15.0185C21.4903 14.973 21.5 14.9243 21.5 14.875V12.625C21.5 12.3605 21.6569 12.0985 21.99 11.8765C22.3231 11.6544 22.8188 11.5 23.375 11.5C23.9312 11.5 24.4254 11.6544 24.7585 11.8765C25.0917 12.0985 25.25 12.3605 25.25 12.625V13C25.25 13.2071 25.4179 13.375 25.625 13.375C25.8321 13.375 26 13.2071 26 13V12.625C26 12.0586 25.657 11.5711 25.1768 11.251C24.9847 11.123 24.7637 11.0242 24.5293 10.9434C24.7418 10.6844 24.875 10.3585 24.875 10C24.875 9.17603 24.199 8.5 23.375 8.5ZM23.375 9.25001C23.7937 9.25001 24.125 9.58136 24.125 10C24.125 10.4187 23.7937 10.75 23.375 10.75C22.9563 10.75 22.625 10.4187 22.625 10C22.625 9.58136 22.9563 9.25001 23.375 9.25001Z" fill="white"/>
<path d="M13.25 16.375C13.25 16.4243 13.2403 16.473 13.2215 16.5185C13.2026 16.564 13.175 16.6053 13.1402 16.6401C13.1053 16.675 13.064 16.7026 13.0185 16.7214C12.973 16.7403 12.9242 16.75 12.875 16.75C12.7755 16.75 12.6802 16.7105 12.6098 16.6401C12.5395 16.5698 12.5 16.4745 12.5 16.375C12.5 16.2756 12.5395 16.1801 12.6098 16.1098C12.6802 16.0395 12.7755 16 12.875 16C12.9242 16 12.973 16.0097 13.0185 16.0285C13.064 16.0474 13.1053 16.075 13.1402 16.1098C13.175 16.1446 13.2026 16.186 13.2215 16.2315C13.2403 16.277 13.25 16.3258 13.25 16.375V16.375Z" fill="white"/>
<path d="M21.5 16.375C21.5 16.4745 21.4605 16.5698 21.3902 16.6401C21.3198 16.7105 21.2244 16.75 21.125 16.75C21.0255 16.75 20.9302 16.7105 20.8598 16.6401C20.7895 16.5698 20.75 16.4745 20.75 16.375C20.75 16.2756 20.7895 16.1801 20.8598 16.1098C20.9302 16.0395 21.0255 16 21.125 16C21.2244 16 21.3198 16.0395 21.3902 16.1098C21.4605 16.1801 21.5 16.2756 21.5 16.375V16.375Z" fill="white"/>
<path d="M13.25 25.75C13.25 25.8495 13.2105 25.9449 13.1402 26.0152C13.0698 26.0855 12.9745 26.125 12.875 26.125C12.8258 26.125 12.777 26.1153 12.7315 26.0965C12.686 26.0776 12.6447 26.05 12.6098 26.0152C12.575 25.9804 12.5474 25.939 12.5285 25.8935C12.5097 25.848 12.5 25.7992 12.5 25.75C12.5 25.7008 12.5097 25.652 12.5285 25.6065C12.5474 25.561 12.575 25.5197 12.6098 25.4849C12.6447 25.45 12.686 25.4224 12.7315 25.4035C12.777 25.3847 12.8258 25.375 12.875 25.375C12.9243 25.375 12.973 25.3847 13.0185 25.4035C13.064 25.4224 13.1054 25.45 13.1402 25.4849C13.175 25.5197 13.2026 25.561 13.2215 25.6065C13.2403 25.652 13.25 25.7008 13.25 25.75Z" fill="white"/>
<path d="M21.5 25.75C21.5 25.8495 21.4605 25.9449 21.3902 26.0152C21.3198 26.0855 21.2245 26.125 21.125 26.125C21.0758 26.125 21.027 26.1153 20.9815 26.0965C20.936 26.0776 20.8947 26.05 20.8598 26.0152C20.825 25.9804 20.7974 25.939 20.7785 25.8935C20.7597 25.848 20.75 25.7992 20.75 25.75C20.75 25.7008 20.7597 25.652 20.7785 25.6065C20.7974 25.561 20.825 25.5197 20.8598 25.4849C20.8947 25.45 20.936 25.4224 20.9815 25.4035C21.027 25.3847 21.0758 25.375 21.125 25.375C21.1743 25.375 21.223 25.3847 21.2685 25.4035C21.314 25.4224 21.3554 25.45 21.3902 25.4849C21.425 25.5197 21.4526 25.561 21.4715 25.6065C21.4903 25.652 21.5 25.7008 21.5 25.75V25.75Z" fill="white"/>
</svg>
