<svg width="50" height="50" viewBox="0 0 33 33" fill="none" xmlns="http://www.w3.org/2000/svg">
<rect width="33" height="33" rx="5" fill="#8BC728"/>
<g clip-path="url(#clip0_15455_351546)">
<path d="M24.2622 23.3751H23.5768V13.4231C23.5768 12.9599 23.2 12.583 22.7368 12.583H21.2048C20.7416 12.583 20.3647 12.9599 20.3647 13.4231V23.3751H18.6243V17.9321C18.6243 17.4689 18.2475 17.092 17.7843 17.092H16.2523C15.7891 17.092 15.4122 17.4689 15.4122 17.9321V23.3751H13.6718V20.5562C13.6718 20.093 13.295 19.7161 12.8318 19.7161H11.2997C10.8365 19.7161 10.4597 20.093 10.4597 20.5562V23.3751H9.7373C9.56471 23.3751 9.4248 23.515 9.4248 23.6876C9.4248 23.8602 9.56471 24.0001 9.7373 24.0001H24.2622C24.4348 24.0001 24.5747 23.8602 24.5747 23.6876C24.5747 23.515 24.4348 23.3751 24.2622 23.3751ZM13.0468 23.3751H11.0846V20.5562C11.0846 20.4376 11.1811 20.3411 11.2997 20.3411H12.8317C12.9503 20.3411 13.0468 20.4376 13.0468 20.5562V23.3751ZM17.9993 23.3751H16.0372V17.9321C16.0372 17.8135 16.1336 17.717 16.2522 17.717H17.7842C17.9028 17.717 17.9993 17.8135 17.9993 17.9321V23.3751ZM22.9518 23.3751H20.9897V13.4231C20.9897 13.3045 21.0862 13.208 21.2048 13.208H22.7368C22.8554 13.208 22.9518 13.3045 22.9518 13.4231V23.3751Z" fill="white"/>
<path d="M23.5762 8.32862C23.5806 8.24334 23.5506 8.15663 23.4855 8.0915C23.4204 8.02637 23.3336 7.99634 23.2484 8.00075C23.2433 8.00053 23.2384 8 23.2332 8H21.3426C21.17 8 21.0301 8.13991 21.0301 8.3125C21.0301 8.48509 21.17 8.625 21.3426 8.625H22.51L19.4207 11.7143L18.2557 10.5493C18.1971 10.4907 18.1176 10.4578 18.0348 10.4578C17.9519 10.4578 17.8724 10.4907 17.8138 10.5493L12.196 16.1671C12.074 16.2892 12.074 16.487 12.196 16.6091C12.257 16.6701 12.337 16.7006 12.417 16.7006C12.497 16.7006 12.577 16.6701 12.638 16.609L18.0348 11.2122L19.1998 12.3772C19.3218 12.4992 19.5197 12.4992 19.6417 12.3772L22.952 9.06697V10.1235C22.952 10.2961 23.0919 10.436 23.2645 10.436C23.4371 10.436 23.577 10.2961 23.577 10.1235V8.34375C23.577 8.33866 23.5765 8.33369 23.5762 8.32862Z" fill="white"/>
<path d="M11.3643 17.7909C11.5368 17.7909 11.6768 17.651 11.6768 17.4784C11.6768 17.3058 11.5368 17.1659 11.3643 17.1659C11.1917 17.1659 11.0518 17.3058 11.0518 17.4784C11.0518 17.651 11.1917 17.7909 11.3643 17.7909Z" fill="white"/>
</g>
<defs>
<clipPath id="clip0_15455_351546">
<rect width="16" height="16" fill="white" transform="translate(9 8)"/>
</clipPath>
</defs>
</svg>
