<svg width="51" height="50" viewBox="0 0 34 33" fill="none" xmlns="http://www.w3.org/2000/svg">
<rect x="0.25" width="33" height="33" rx="5" fill="#FF454C"/>
<g clip-path="url(#clip0_15455_351545)">
<path d="M20.0579 15.8962C20.1877 15.7816 20.1877 15.5955 20.0579 15.4811C19.9283 15.3663 19.7182 15.3663 19.5884 15.4811C19.4588 15.5955 19.4588 15.7816 19.5884 15.8962C19.7182 16.011 19.9283 16.011 20.0579 15.8962Z" fill="white"/>
<path d="M8.58203 24.0443H24.918C25.0522 24.0443 25.1734 23.9728 25.2247 23.8631C25.2761 23.7534 25.2477 23.6271 25.1527 23.5432L8.81679 9.10101C8.72185 9.01696 8.57905 8.99197 8.45493 9.03738C8.33093 9.08278 8.25 9.18976 8.25 9.30856V23.7507C8.25 23.9129 8.39864 24.0443 8.58203 24.0443ZM8.91406 10.0172L11.5848 12.3784L10.8803 13.0009C10.7506 13.1155 10.7506 13.3014 10.8803 13.4161C11.0098 13.5306 11.2201 13.5309 11.3498 13.4161L12.0544 12.7935L13.463 14.0389L12.7586 14.6615C12.6289 14.7761 12.6289 14.962 12.7585 15.0767C12.8881 15.1912 13.0984 15.1914 13.2281 15.0767L13.9327 14.454L15.3412 15.6994L14.6369 16.3222C14.5072 16.4367 14.5072 16.6226 14.6369 16.7372C14.7666 16.8519 14.9768 16.8519 15.1065 16.7372L15.8109 16.1145L17.2195 17.36L16.5153 17.9827C16.3856 18.0973 16.3856 18.2831 16.5153 18.3978C16.645 18.5125 16.8551 18.5125 16.9848 18.3978L17.6892 17.7752L19.0978 19.0204L18.3936 19.6433C18.2639 19.758 18.2639 19.9438 18.3936 20.0585C18.5233 20.1731 18.7335 20.1731 18.8632 20.0584L19.5674 19.4356L20.976 20.681L20.2718 21.3039C20.1422 21.4185 20.1422 21.6044 20.2719 21.719C20.4015 21.8336 20.6118 21.8336 20.7415 21.719L21.4457 21.0961L24.1163 23.4572H8.91406V10.0172Z" fill="white"/>
<path d="M11.6723 15.118C11.5773 15.034 11.4345 15.0089 11.3104 15.0543C11.1864 15.0997 11.1055 15.2068 11.1055 15.3255V21.2259C11.1055 21.3881 11.2541 21.5195 11.4375 21.5195H18.1116C18.246 21.5195 18.367 21.448 18.4185 21.3383C18.4698 21.2287 18.4413 21.1023 18.3465 21.0184L11.6723 15.118ZM11.7695 20.9325V16.0342L17.3101 20.9325H11.7695Z" fill="white"/>
<path d="M18.6496 15.066C18.7793 15.1807 18.9894 15.1807 19.1193 15.066C19.2488 14.9515 19.2488 14.7656 19.1193 14.6509L17.7103 13.4055C17.5808 13.2908 17.3705 13.2908 17.2408 13.4055C17.1111 13.52 17.1111 13.7059 17.2408 13.8205L18.6496 15.066Z" fill="white"/>
<path d="M13.2901 12.0065L22.6103 20.2462C22.9994 20.5904 23.6298 20.5904 24.0191 20.2462L24.9581 19.4161C25.3463 19.073 25.3463 18.5142 24.9581 18.1705L15.638 9.93084C15.6016 9.89862 15.5571 9.87431 15.5082 9.85998L12.6909 9.0298C12.5717 8.99472 12.44 9.02212 12.3512 9.10078C12.2622 9.17933 12.2312 9.2956 12.2709 9.40109L13.2099 11.8918C13.2263 11.9351 13.2536 11.9743 13.2901 12.0065ZM24.4884 18.5856C24.6179 18.7002 24.6179 18.8866 24.4885 19.0009L23.5496 19.8311C23.4199 19.9458 23.2097 19.9459 23.0798 19.8311L22.3604 19.1951L23.7691 17.9496L24.4884 18.5856ZM23.2995 17.5345L21.8907 18.78L21.4212 18.3648L22.83 17.1195L23.2995 17.5345ZM15.623 10.7478L22.3604 16.7042L20.9517 17.9497L14.2142 11.9932L15.623 10.7478ZM15.1181 10.3638L13.7798 11.5468L13.1108 9.77237L15.1181 10.3638Z" fill="white"/>
</g>
<defs>
<clipPath id="clip0_15455_351545">
<rect width="17" height="15" fill="white" transform="translate(8.25 9)"/>
</clipPath>
</defs>
</svg>
