<svg width="50" height="50" viewBox="0 0 33 33" fill="none" xmlns="http://www.w3.org/2000/svg">
<rect width="33" height="33" rx="5" fill="#FFB443"/>
<path d="M25.4765 8H19.1118C18.25 8 17.4835 8.41557 17.002 9.05675C16.5204 8.41557 15.7539 8 14.8921 8H8.52746C8.23616 8 8 8.23616 8 8.52746V23.2963C8 23.5876 8.23616 23.8238 8.52746 23.8238H21.2941L21.6828 24.8916C21.8273 25.2888 22.1179 25.6058 22.501 25.7845C22.7137 25.8837 22.9409 25.9336 23.1688 25.9336C23.3513 25.9336 23.5344 25.9016 23.711 25.8374C24.526 25.5407 24.9497 24.6398 24.6616 23.8238H25.4765C25.7678 23.8238 26.0039 23.5876 26.0039 23.2963V8.52746C26.0039 8.23616 25.7678 8 25.4765 8ZM19.1118 9.05492H24.949V20.659H23.5101L23.0375 19.3604C24.0952 18.3307 24.515 16.737 23.9782 15.2623C23.9782 15.2623 23.9782 15.2623 23.9782 15.2622C23.6248 14.2914 22.9145 13.5162 21.9781 13.0796C21.0417 12.6429 19.9914 12.5971 19.0205 12.9504C18.4447 13.16 17.9378 13.4952 17.5295 13.9285V10.6373C17.5294 9.76477 18.2393 9.05492 19.1118 9.05492ZM17.5294 19.2417C17.8606 19.5924 18.2584 19.8809 18.7087 20.0909C19.1426 20.2931 19.6008 20.4112 20.0643 20.4449L20.1422 20.659H19.1118C18.5186 20.659 17.9705 20.8559 17.5294 21.1877V19.2417ZM19.1546 19.1348C18.4736 18.8172 17.957 18.2534 17.7 17.5474C17.443 16.8413 17.4764 16.0773 17.7939 15.3963C18.1115 14.7153 18.6752 14.1987 19.3814 13.9418C19.6979 13.8266 20.0219 13.7719 20.3407 13.7719C21.4901 13.7719 22.5716 14.482 22.9869 15.623C23.5174 17.0807 22.7632 18.6981 21.3056 19.2286C20.5995 19.4857 19.8355 19.4523 19.1546 19.1348ZM9.05492 9.05492H14.8921C15.7646 9.05492 16.4745 9.76477 16.4745 10.6373V21.1877C16.0334 20.8559 15.4853 20.659 14.8921 20.659H9.05492V9.05492ZM9.05492 21.7139H14.8921C15.5798 21.7139 16.166 22.1549 16.3838 22.7688H9.05492V21.7139ZM17.6201 22.7688C17.8379 22.1549 18.4242 21.7139 19.1118 21.7139H20.5262L20.9101 22.7688H17.6201ZM23.3501 24.846C23.2178 24.8942 23.0746 24.8879 22.9468 24.8284C22.8191 24.7689 22.7222 24.6632 22.6741 24.5308L21.1585 20.3668C21.3294 20.3295 21.4991 20.2809 21.6663 20.22C21.8345 20.1588 21.9956 20.0869 22.1497 20.0056L23.6654 24.17C23.7649 24.4433 23.6234 24.7466 23.3501 24.846ZM24.278 22.7688L23.8941 21.7139H24.949V22.7688H24.278Z" fill="white"/>
<path d="M10.6368 11.1645H14.8917C15.183 11.1645 15.4191 10.9284 15.4191 10.6371C15.4191 10.3458 15.183 10.1096 14.8917 10.1096H10.6368C10.3455 10.1096 10.1094 10.3458 10.1094 10.6371C10.1094 10.9284 10.3455 11.1645 10.6368 11.1645Z" fill="white"/>
<path d="M10.6368 13.2743H14.8917C15.183 13.2743 15.4191 13.0381 15.4191 12.7468C15.4191 12.4555 15.183 12.2194 14.8917 12.2194H10.6368C10.3455 12.2194 10.1094 12.4555 10.1094 12.7468C10.1094 13.0381 10.3455 13.2743 10.6368 13.2743Z" fill="white"/>
<path d="M10.6368 15.3846H14.8917C15.183 15.3846 15.4191 15.1485 15.4191 14.8572C15.4191 14.5659 15.183 14.3297 14.8917 14.3297H10.6368C10.3455 14.3297 10.1094 14.5659 10.1094 14.8572C10.1094 15.1485 10.3455 15.3846 10.6368 15.3846Z" fill="white"/>
<path d="M10.6368 17.4942H14.8917C15.183 17.4942 15.4191 17.2581 15.4191 16.9668C15.4191 16.6755 15.183 16.4393 14.8917 16.4393H10.6368C10.3455 16.4393 10.1094 16.6755 10.1094 16.9668C10.1094 17.2581 10.3455 17.4942 10.6368 17.4942Z" fill="white"/>
<path d="M15.4191 19.0765C15.4191 18.7852 15.183 18.5491 14.8917 18.5491H10.6368C10.3455 18.5491 10.1094 18.7852 10.1094 19.0765C10.1094 19.3678 10.3455 19.604 10.6368 19.604H14.8917C15.183 19.604 15.4191 19.3678 15.4191 19.0765Z" fill="white"/>
<path d="M19.1114 11.1645H23.3663C23.6576 11.1645 23.8937 10.9284 23.8937 10.6371C23.8937 10.3458 23.6576 10.1096 23.3663 10.1096H19.1114C18.8201 10.1096 18.584 10.3458 18.584 10.6371C18.584 10.9284 18.8201 11.1645 19.1114 11.1645Z" fill="white"/>
</svg>
