<svg width="20" height="21" viewBox="0 0 20 21" fill="none" xmlns="http://www.w3.org/2000/svg">
<path d="M9.6273 0.500079C9.61944 0.500109 9.5958 0.501919 9.60367 0.501291L9.62003 0.500465C9.40466 0.506029 9.19743 0.638539 9.1021 0.831742L6.44663 6.21197L0.508884 7.0749C0.23625 7.11455 0.010187 7.36619 5.02331e-05 7.64151C-1.67444e-05 7.64515 -1.67444e-05 7.64878 5.02331e-05 7.65242L5.02331e-05 9.27345L5.02331e-05 9.26719C5.02331e-05 9.27563 5.02331e-05 9.28399 5.02331e-05 9.29244L5.02331e-05 9.28617L5.02331e-05 9.29688C0.000101094 9.34122 0.0101149 9.38498 0.0293446 9.42494C0.0293445 9.42508 0.0293445 9.42522 0.0293446 9.42535C0.0567419 9.52973 0.10272 9.62937 0.180041 9.70472L4.23898 13.6613L3.4621 18.1909C3.4621 18.1909 3.4621 18.191 3.4621 18.1911C3.45507 18.232 3.45238 18.2735 3.45404 18.3149V18.3032V19.8943V19.8824C3.45298 19.8985 3.45298 19.9144 3.45404 19.9305V19.9186V19.9358C3.45412 19.9965 3.47287 20.0557 3.50776 20.1054C3.55814 20.2395 3.63989 20.3619 3.76613 20.43C3.9368 20.5221 4.15334 20.5234 4.32506 20.4333C4.32506 20.4332 4.32506 20.4331 4.32506 20.433L9.63579 17.6412L14.9467 20.433C14.9467 20.4331 14.9467 20.4332 14.9467 20.4333C15.1185 20.5234 15.335 20.5221 15.5057 20.43C15.6316 20.3621 15.7133 20.2401 15.7638 20.1064C15.7991 20.0565 15.8181 19.9969 15.8182 19.9358V18.2911C15.8182 18.2577 15.8153 18.2242 15.8097 18.1913C15.8097 18.1912 15.8097 18.191 15.8097 18.1909L15.0328 13.6611L19.0918 9.70475C19.0918 9.70468 19.0918 9.70461 19.0918 9.70454C19.1689 9.62919 19.2147 9.52965 19.242 9.42538C19.2614 9.38531 19.2715 9.3414 19.2715 9.29691V9.286V9.29246C19.2715 9.28389 19.2715 9.27519 19.2715 9.26661V9.27307V7.67082V7.67728C19.2715 7.66871 19.2715 7.66001 19.2715 7.65143V7.65789V7.65244C19.2716 7.64874 19.2716 7.64503 19.2715 7.64133C19.2612 7.36627 19.0354 7.11493 18.7631 7.07513L12.8254 6.21199L10.1703 0.831966V0.831746C10.0713 0.631188 9.85134 0.496598 9.62773 0.500065L9.6273 0.500079Z" fill="#9A2201"/>
<path d="M9.6135 2.41221C9.55908 2.41361 9.50608 2.42986 9.46023 2.45919C9.41437 2.48853 9.37741 2.52984 9.35332 2.57865L6.62897 8.09846L0.537306 8.98382C0.482173 8.99187 0.430394 9.01517 0.38781 9.0511C0.345226 9.08703 0.313533 9.13415 0.296324 9.18715C0.279116 9.24014 0.277077 9.29689 0.290427 9.35098C0.303777 9.40508 0.331989 9.45436 0.371876 9.49326L4.77967 13.7898L3.73918 19.8568C3.72978 19.9117 3.73592 19.9682 3.75692 20.0198C3.77791 20.0714 3.81292 20.1161 3.85799 20.1489C3.90306 20.1816 3.9564 20.2011 4.01197 20.2052C4.06754 20.2092 4.12313 20.1976 4.17247 20.1717L9.62096 17.3074L15.0697 20.1717C15.119 20.1976 15.1746 20.2092 15.2302 20.2052C15.2857 20.2011 15.3391 20.1816 15.3842 20.1489C15.4292 20.1161 15.4642 20.0714 15.4852 20.0198C15.5062 19.9682 15.5124 19.9117 15.503 19.8568L14.4625 13.7898L18.8703 9.49326C18.9102 9.45436 18.9384 9.40507 18.9517 9.35098C18.9651 9.29688 18.963 9.24013 18.9458 9.18714C18.9286 9.13415 18.8969 9.08702 18.8543 9.0511C18.8118 9.01517 18.76 8.99186 18.7048 8.98382L12.6132 8.09846L9.88903 2.57865C9.86379 2.5275 9.82443 2.48464 9.7756 2.45515C9.72678 2.42565 9.67052 2.41075 9.6135 2.41221Z" fill="#C95429"/>
<path d="M18.9606 7.65234H17.4382V9.29698H18.9606V7.65234Z" fill="#C95429"/>
<path d="M1.80408 7.65234H0.281723V9.29698H1.80408V7.65234Z" fill="#C95429"/>
<path d="M4.33293 18.291H3.73451V19.9357H4.33293V18.291Z" fill="#C95429"/>
<path d="M15.5076 18.291H14.9092V19.9357H15.5076V18.291Z" fill="#C95429"/>
<path d="M9.61352 0.796973C9.5591 0.798376 9.5061 0.814624 9.46025 0.843959C9.41439 0.873295 9.37741 0.914602 9.35332 0.963419L6.62897 6.48323L0.537306 7.36859C0.482173 7.37663 0.430394 7.39993 0.38781 7.43586C0.345226 7.47179 0.313533 7.51892 0.296324 7.57191C0.279116 7.6249 0.277077 7.68165 0.290427 7.73575C0.303777 7.78984 0.331989 7.83912 0.371876 7.87803L4.77969 12.1745L3.73918 18.2416C3.72978 18.2965 3.73592 18.3529 3.75692 18.4045C3.77791 18.4562 3.81292 18.5009 3.85799 18.5336C3.90306 18.5664 3.95642 18.5859 4.01199 18.5899C4.06756 18.594 4.12315 18.5824 4.17249 18.5565L9.62098 15.6921L15.0697 18.5565C15.119 18.5824 15.1746 18.594 15.2302 18.5899C15.2858 18.5859 15.3391 18.5664 15.3842 18.5336C15.4292 18.5009 15.4642 18.4562 15.4852 18.4045C15.5062 18.3529 15.5124 18.2965 15.503 18.2416L14.4625 12.1745L18.8703 7.87803C18.9102 7.83912 18.9384 7.78984 18.9517 7.73574C18.9651 7.68165 18.963 7.6249 18.9458 7.57191C18.9286 7.51891 18.8969 7.47179 18.8543 7.43586C18.8118 7.39993 18.76 7.37663 18.7048 7.36859L12.6132 6.48323L9.88903 0.963419C9.86379 0.912265 9.82443 0.869406 9.7756 0.83991C9.72678 0.810414 9.67054 0.795515 9.61352 0.796973Z" fill="#F6A500"/>
<path d="M9.62115 1.0957L12.4149 6.75646L18.6619 7.66421L14.1415 12.0705L15.2087 18.2923L9.62115 15.3547L4.03364 18.2923L5.10077 12.0705L0.580383 7.6642L6.8274 6.75646L9.62115 1.0957Z" fill="#FAC51B"/>
<path d="M9.62191 3.44532C9.56715 3.44508 9.51343 3.46023 9.46686 3.48903C9.42028 3.51783 9.38273 3.55912 9.35847 3.60821L7.44881 7.47756L3.17878 8.0981C3.1248 8.10596 3.07409 8.12877 3.03239 8.16394C2.99069 8.19911 2.95967 8.24524 2.94282 8.29712C2.92596 8.349 2.92394 8.40456 2.937 8.45753C2.95007 8.51049 2.97769 8.55874 3.01674 8.59683L6.10658 11.6086L5.37718 15.8615C5.36798 15.9153 5.37401 15.9705 5.39458 16.0211C5.41514 16.0716 5.44943 16.1154 5.49357 16.1474C5.5377 16.1795 5.58992 16.1986 5.64433 16.2025C5.69874 16.2064 5.75317 16.1951 5.80146 16.1697L9.62071 14.1618L13.44 16.1697C13.4882 16.1951 13.5427 16.2064 13.5971 16.2025C13.6515 16.1986 13.7037 16.1795 13.7478 16.1474C13.792 16.1154 13.8263 16.0716 13.8468 16.0211C13.8674 15.9705 13.8734 15.9153 13.8642 15.8615L13.1348 11.6086L16.2247 8.59683C16.2637 8.55874 16.2913 8.51049 16.3044 8.45753C16.3175 8.40456 16.3155 8.349 16.2986 8.29712C16.2817 8.24524 16.2507 8.19911 16.209 8.16394C16.1673 8.12877 16.1166 8.10596 16.0626 8.0981L11.7926 7.47756L9.88294 3.60821C9.85886 3.55949 9.82169 3.51843 9.77558 3.48966C9.72948 3.46089 9.67626 3.44553 9.62191 3.44532Z" fill="#FAC51B"/>
<path d="M9.62095 3.73828L11.5986 7.74547L16.0208 8.38805L12.8209 11.5072L13.5763 15.9115L9.62095 13.8321L5.66561 15.9115L6.42103 11.5072L3.2211 8.38805L7.64328 7.74547L9.62095 3.73828Z" fill="#F6A500"/>
<path d="M9.621 3.73828L7.6433 7.74547L3.2211 8.38806L4.67347 9.80371C6.10738 9.76413 9.39288 9.88846 12.8209 11.5072L16.0209 8.38806L11.5987 7.74547L9.621 3.73828Z" fill="#F6AE00"/>
<path d="M3.2211 8.38805L3.49976 8.68351L7.79868 8.08076L9.61917 4.41774L9.62093 3.73828L7.64326 7.74547L3.2211 8.38805Z" fill="#F08700"/>
<path d="M16.0216 8.38805L15.7429 8.68351L11.444 8.08076L9.62352 4.41774L9.62177 3.73828L11.5994 7.74547L16.0216 8.38805Z" fill="#F08700"/>
<path d="M9.71835 8.59169C10.0721 8.59169 10.3589 8.31801 10.3589 7.98041C10.3589 7.64282 10.0721 7.36914 9.71835 7.36914C9.3646 7.36914 9.07784 7.64282 9.07784 7.98041C9.07784 8.31801 9.3646 8.59169 9.71835 8.59169Z" fill="#FEEE7B"/>
<path d="M13.227 9.77394C13.3243 9.43796 12.8031 9.0179 12.0629 8.83572C11.3228 8.65354 10.6439 8.77823 10.5466 9.11421C10.4493 9.4502 10.9705 9.87025 11.7107 10.0524C12.4509 10.2346 13.1298 10.1099 13.227 9.77394Z" fill="#FEEE7B"/>
</svg>
