<svg width="410" height="69" viewBox="0 0 410 69" fill="none" xmlns="http://www.w3.org/2000/svg">
<path d="M23.8182 63.9739C23.8182 63.9739 25.746 66.995 33.7788 66.4165C33.7788 66.4165 38.2772 67.1235 42.7113 64.5524C42.7113 64.5524 45.2818 63.1383 45.4745 55.7463C45.4745 55.7463 47.9808 39.6124 42.5828 35.4986C42.5828 35.4986 36.5421 23.8641 28.188 32.0275C28.188 32.0275 22.5328 39.5481 22.6614 44.8832C22.6614 44.8832 20.4765 58.0603 23.8182 63.9739Z" fill="#F2EEE3"/>
<path d="M33.6249 67.383C39.6642 67.383 44.5602 64.7222 44.5602 61.44C44.5602 58.1578 39.6642 55.497 33.6249 55.497C27.5855 55.497 22.6896 58.1578 22.6896 61.44C22.6896 64.7222 27.5855 67.383 33.6249 67.383Z" fill="#D5D3C7"/>
<path d="M33.8436 62.4612C39.883 62.4612 44.7789 59.8004 44.7789 56.5182C44.7789 53.236 39.883 50.5753 33.8436 50.5753C27.8042 50.5753 22.9083 53.236 22.9083 56.5182C22.9083 59.8004 27.8042 62.4612 33.8436 62.4612Z" fill="#F2EEE3"/>
<path fill-rule="evenodd" clip-rule="evenodd" d="M27.3037 46.6875C27.3037 46.6875 30.0358 41.2735 31.0668 41.0157C31.0668 41.0157 31.6264 43.4526 33.675 44.4606C33.675 44.4606 35.9589 43.3315 35.9199 40.9332C35.9199 40.9332 36.9781 41.5697 39.0193 45.5803C39.0193 45.5803 42.956 44.4136 42.956 42.7364C42.956 41.0593 43.2477 39.929 42.7738 38.4342C42.2999 36.9393 41.6437 35.408 40.8054 34.3871C39.967 33.3662 39.3109 32.4183 37.7435 31.9079C36.1761 31.3974 33.8068 30.8141 33.0778 31.0693C32.3488 31.3245 30.4899 31.9443 29.5786 32.9652C28.6673 33.9861 27.3915 34.6423 26.8448 35.9549C26.298 37.2675 25.3867 38.1789 25.3138 39.0175C25.2409 39.8561 23.8194 38.1789 25.241 40.9134C26.6626 43.6479 27.3037 46.6875 27.3037 46.6875Z" fill="#D5D3C7"/>
<path d="M49.1787 41.2866C51.5417 45.7409 51.2691 51.6497 51.2691 51.6497C49.3606 61.7399 42.0946 65.2178 42.0946 65.2178C44.8209 54.7639 39.091 45.7409 39.091 45.7409C37.0916 41.923 40.9994 39.3777 40.9994 39.3777C35.9101 36.7415 33.638 28.1057 33.638 28.1057C31.7295 36.9233 25.9132 39.3777 25.9132 39.3777C29.6394 42.0139 28.0035 45.1046 28.0035 45.1046L25.1862 52.1951C23.005 56.3766 24.8098 64.965 24.8098 64.965C9.26922 55.5111 18.2793 39.9231 18.2793 39.9231C18.2793 39.9231 18.6394 38.6634 17.2578 39.1455C17.0972 39.2419 15.5228 40.0133 14.8158 42.1987C14.7195 42.0059 13.9162 40.174 14.3661 38.1813C14.2375 38.2134 14.7838 37.3135 13.113 37.5064C13.113 37.5064 9.89968 38.2778 8.93577 39.1134C8.93577 39.1134 10.2854 37.4421 10.221 36.1245C10.221 36.1245 10.3496 35.5138 8.83935 35.4816C8.83935 35.4816 5.94214 35.4689 4.69246 34.7417C4.69246 34.7417 6.39646 32.9918 6.39646 32.1055C6.39646 32.1055 6.9419 30.1965 4.73799 30.2874C4.73799 30.2874 2.46599 30.7873 1.8298 31.5145C1.8298 31.5145 1.87518 29.5829 2.64776 28.8556C2.64776 28.8556 3.79482 27.5754 4.27678 27.1898C4.27678 27.1898 4.88736 26.8362 3.98768 26.322C3.98768 26.322 0.870951 25.9685 0.228271 22.4332C0.228271 22.4332 1.60986 24.2008 3.15224 22.6902C3.15224 22.6902 3.28073 20.5369 0.38896 19.7013C0.38896 19.7013 1.22437 18.93 2.44535 18.7371C2.44535 18.7371 4.01985 18.7693 4.24464 17.8372C4.24464 17.8372 4.40539 16.8409 2.28481 15.7482C2.28481 15.7482 4.75883 16.1017 5.24077 15.5232C5.24077 15.5232 2.15616 14.8804 2.44535 10.2202C2.44535 10.2202 3.95563 12.5021 5.33719 11.7951C5.33719 11.7951 6.26886 11.3773 5.65842 9.77027C5.65842 9.77027 5.04797 8.774 4.34106 8.54898C4.34106 8.54898 5.30497 6.62066 9.12859 6.78136C9.12859 6.78136 11.0886 6.45996 9.38556 4.78872C9.38556 4.78872 11.4099 4.46733 12.9201 5.49582C12.9201 5.49582 12.149 2.86042 13.3378 0.0321104C13.3378 0.0321104 18.9609 5.65262 27.8218 6.15258C27.8218 6.15258 27.7763 4.06174 30.0483 2.88003C30.0483 2.88003 29.7301 4.60721 30.9116 5.19804C30.9116 5.19804 31.3661 5.47077 31.7296 4.74356C31.7296 4.74356 32.4111 2.38009 32.0476 0.789225C32.0476 0.789225 33.7744 1.9255 34.138 4.60719C34.138 4.60719 34.3652 5.60715 34.865 4.92534C34.865 4.92534 35.6829 2.74368 36.5462 2.19824C36.5462 2.19824 35.9101 4.60722 36.9554 5.69803C36.9554 5.69803 37.546 6.24345 37.8186 6.24345C37.8186 6.24345 48.1359 5.84934 54.1767 0C54.1767 0 55.8476 2.31402 54.755 6.04215C54.755 6.04215 60.1299 5.24353 61.9475 7.78877C61.9475 7.78877 60.2208 8.2888 60.0844 9.47049C60.0844 9.47049 60.13 10.5159 61.3114 10.6523C61.3114 10.6523 63.0834 10.9704 64.1285 10.0613C64.1285 10.0613 64.5832 13.6521 61.4023 15.0611C61.4023 15.0611 60.876 15.1858 61.2133 15.4268C61.2133 15.4268 62.4827 15.5554 63.6553 15.0251C63.6553 15.0251 62.9325 15.8446 62.6112 16.3267C62.6112 16.3267 61.7275 17.082 62.5308 17.8051C62.5308 17.8051 66.8777 18.7881 67.6049 20.6743C67.6049 20.6743 64.7648 19.8108 63.6062 22.4696C63.6062 22.4696 63.9923 24.2423 66.1053 23.7878C66.1053 23.7878 66.0974 25.7756 62.5308 27.0612C62.5308 27.0612 62.0167 27.4147 62.306 28.2182C62.306 28.2182 64.2017 30.0822 63.9767 32.4606C63.9767 32.4606 63.2056 31.4642 61.8239 31.2393C61.8239 31.2393 60.4101 30.8858 60.3137 32.3962C60.3137 32.3962 60.4744 34.2603 61.7918 34.9031C61.7918 34.9031 60.6993 35.8673 56.972 35.096C56.972 35.096 56.4258 34.8067 56.6187 35.5781C56.6187 35.5781 57.1326 37.6349 56.3615 39.6276C56.3615 39.6276 55.9761 38.1813 55.0443 37.7314C55.0443 37.7314 54.1445 36.9922 53.5661 38.1492C53.5661 38.1492 53.2126 40.7525 51.1563 41.6202C51.1563 41.6202 51.2848 40.8811 50.8351 40.5596C50.8351 40.5596 50.093 39.9568 49.1787 41.2866Z" fill="#225054"/>
<path d="M33.7814 24.4514C31.8149 25.1573 29.8007 29.0223 29.8007 29.0223C30.0796 32.7256 33.7247 36.0378 33.7795 36.0874V36.1005C33.7795 36.1005 33.7859 36.0937 33.7862 36.0936C33.7863 36.0936 33.7892 36.0965 33.7892 36.0965V36.0912C33.8435 36.0394 37.3403 32.6932 37.6191 28.9908C37.6191 28.9908 35.747 25.1606 33.781 24.4534V24.4514H33.7814Z" fill="#163C3F"/>
<path d="M29.9119 29.7875C29.9119 29.7875 31.8666 26.3035 33.7752 25.6671L33.7829 36.1641C33.7829 36.1641 30.1849 33.1509 29.9123 29.7875H29.9119Z" fill="#FAB84A"/>
<path d="M37.5 29.7589C37.5 29.7589 35.6822 26.3046 33.7737 25.6683V36.1675C33.7737 36.1675 37.2273 33.1223 37.5 29.7589Z" fill="#E9934C"/>
<path d="M18.5626 34.1669C25.1107 34.1669 30.4189 28.8573 30.4189 22.3076C30.4189 15.7579 25.1107 10.4484 18.5626 10.4484C12.0145 10.4484 6.7063 15.7579 6.7063 22.3076C6.7063 28.8573 12.0145 34.1669 18.5626 34.1669Z" fill="#173C3F"/>
<path d="M19.2742 34.1762C25.2086 34.1762 30.0193 29.1098 30.0193 22.8602C30.0193 16.6105 25.2086 11.5442 19.2742 11.5442C13.3398 11.5442 8.52905 16.6105 8.52905 22.8602C8.52905 29.1098 13.3398 34.1762 19.2742 34.1762Z" fill="#F2EEE3"/>
<path d="M49.0572 34.1577C55.6053 34.1577 60.9135 28.8482 60.9135 22.2985C60.9135 15.7488 55.6053 10.4392 49.0572 10.4392C42.5091 10.4392 37.2009 15.7488 37.2009 22.2985C37.2009 28.8482 42.5091 34.1577 49.0572 34.1577Z" fill="#173C3F"/>
<path d="M48.3153 34.195C54.2497 34.195 59.0605 29.1287 59.0605 22.879C59.0605 16.6294 54.2497 11.5631 48.3153 11.5631C42.3809 11.5631 37.5702 16.6294 37.5702 22.879C37.5702 29.1287 42.3809 34.195 48.3153 34.195Z" fill="#F2EEE3"/>
<path d="M21.6642 29.9481C25.1409 29.9481 27.9592 27.1407 27.9592 23.6775C27.9592 20.2143 25.1409 17.4069 21.6642 17.4069C18.1875 17.4069 15.3691 20.2143 15.3691 23.6775C15.3691 27.1407 18.1875 29.9481 21.6642 29.9481Z" fill="#FAB84A"/>
<path d="M21.7112 28.2945C24.3023 28.2945 26.4027 26.2021 26.4027 23.6211C26.4027 21.0401 24.3023 18.9477 21.7112 18.9477C19.1201 18.9477 17.0197 21.0401 17.0197 23.6211C17.0197 26.2021 19.1201 28.2945 21.7112 28.2945Z" fill="#201E1E"/>
<path d="M19.1216 22.1141C19.9535 22.1141 20.6278 21.4424 20.6278 20.6138C20.6278 19.7852 19.9535 19.1134 19.1216 19.1134C18.2897 19.1134 17.6154 19.7852 17.6154 20.6138C17.6154 21.4424 18.2897 22.1141 19.1216 22.1141Z" fill="#FEFEFE"/>
<path d="M46.2251 29.9674C49.7018 29.9674 52.5202 27.16 52.5202 23.6968C52.5202 20.2336 49.7018 17.4261 46.2251 17.4261C42.7484 17.4261 39.9301 20.2336 39.9301 23.6968C39.9301 27.16 42.7484 29.9674 46.2251 29.9674Z" fill="#FAB84A"/>
<path d="M46.2715 28.3141C48.8626 28.3141 50.9631 26.2217 50.9631 23.6407C50.9631 21.0597 48.8626 18.9673 46.2715 18.9673C43.6804 18.9673 41.58 21.0597 41.58 23.6407C41.58 26.2217 43.6804 28.3141 46.2715 28.3141Z" fill="#201E1E"/>
<path d="M43.6823 22.1335C44.5141 22.1335 45.1885 21.4618 45.1885 20.6332C45.1885 19.8046 44.5141 19.1329 43.6823 19.1329C42.8504 19.1329 42.176 19.8046 42.176 20.6332C42.176 21.4618 42.8504 22.1335 43.6823 22.1335Z" fill="#FEFEFE"/>
<path d="M25.7999 68.5372C26.3658 68.5372 26.8246 67.3915 26.8246 65.9782C26.8246 64.565 26.3658 63.4193 25.7999 63.4193C25.234 63.4193 24.7751 64.565 24.7751 65.9782C24.7751 67.3915 25.234 68.5372 25.7999 68.5372Z" fill="#E9934C"/>
<path d="M28.1397 68.5258C28.7056 68.5258 29.1644 67.3801 29.1644 65.9668C29.1644 64.5536 28.7056 63.4079 28.1397 63.4079C27.5738 63.4079 27.1149 64.5536 27.1149 65.9668C27.1149 67.3801 27.5738 68.5258 28.1397 68.5258Z" fill="#E9934C"/>
<path d="M30.5255 68.5486C31.0914 68.5486 31.5502 67.4029 31.5502 65.9896C31.5502 64.5764 31.0914 63.4307 30.5255 63.4307C29.9596 63.4307 29.5007 64.5764 29.5007 65.9896C29.5007 67.4029 29.9596 68.5486 30.5255 68.5486Z" fill="#E9934C"/>
<path d="M36.399 68.6167C36.9649 68.6167 37.4238 67.4711 37.4238 66.0578C37.4238 64.6446 36.9649 63.4989 36.399 63.4989C35.8331 63.4989 35.3743 64.6446 35.3743 66.0578C35.3743 67.4711 35.8331 68.6167 36.399 68.6167Z" fill="#E9934C"/>
<path d="M38.7393 68.6055C39.3053 68.6055 39.7641 67.4599 39.7641 66.0466C39.7641 64.6334 39.3053 63.4877 38.7393 63.4877C38.1734 63.4877 37.7146 64.6334 37.7146 66.0466C37.7146 67.4599 38.1734 68.6055 38.7393 68.6055Z" fill="#E9934C"/>
<path d="M41.125 68.6282C41.6909 68.6282 42.1497 67.4825 42.1497 66.0692C42.1497 64.656 41.6909 63.5103 41.125 63.5103C40.559 63.5103 40.1002 64.656 40.1002 66.0692C40.1002 67.4825 40.559 68.6282 41.125 68.6282Z" fill="#E9934C"/>
<path d="M23.3365 40.4515C23.3365 40.4515 20.9542 41.3055 18.1891 39.8165C18.1891 39.8165 16.0863 38.9187 14.8951 42.6411C14.8101 42.5535 13.3821 41.3931 13.9777 38.437C13.9777 38.437 14.3393 37.6269 12.744 37.8677C12.744 37.8677 9.00049 39.0721 8.51129 39.7508C8.51129 39.7508 9.87247 37.6488 9.8512 36.2912C9.8512 36.2912 9.85128 35.7985 8.49 35.8204C8.49 35.8204 5.52274 35.7876 4.34226 34.9883C4.34226 34.9445 5.88433 33.5103 6.13958 32.306C6.13958 32.306 6.49059 30.4776 4.83152 30.5761C4.83152 30.5761 2.86407 30.5761 1.60914 31.7804C1.60914 31.7804 1.21584 29.304 3.87795 27.3686C3.87795 27.3686 4.44948 27.0435 3.77266 26.7028C3.77266 26.7028 0.701915 25.7869 0 22.1302C0 22.1302 1.2581 23.7224 2.44923 23.0655C2.44923 23.0655 2.68332 22.978 2.83221 22.6276C2.83221 22.6276 2.78001 20.5095 0.0427094 19.6579C0.0427094 19.6579 0.875285 18.6862 2.91721 18.511C2.91721 18.511 4.32108 18.095 3.64045 17.1535C3.64045 17.1535 2.66193 16.0805 2.04512 15.7302C2.04512 15.7302 4.23602 15.8177 4.93794 15.3798C4.87411 15.3579 1.92968 15.0149 2.37636 9.95678C2.37636 9.95678 4.59758 13.1026 5.51219 10.9348C5.44839 10.8034 5.85569 9.49491 3.94138 8.42197C3.94138 8.42197 5.19309 6.48975 8.80898 6.44596C8.80898 6.44596 10.5319 6.00803 9.06425 4.49717C9.06425 4.49717 11.4891 4.08111 12.5739 5.13215C12.5952 5.08835 12.1301 2.96228 13.3 0.0719223C13.3 0.0719223 12.9141 5.28546 13.7224 7.32186C13.616 7.25615 12.425 5.57009 10.8723 4.93508C10.8723 4.93508 11.6592 7.62838 8.89412 7.69407C8.89412 7.69407 6.66066 7.23424 5.59718 8.08821C5.59718 8.08821 7.27763 11.1538 5.98016 12.4456C5.98016 12.4456 4.78904 13.5186 3.23633 12.0077C3.23633 12.0077 3.07537 14.4602 6.26587 15.1171C6.26587 15.1171 5.71913 16.3913 4.06007 16.435C4.06007 16.435 5.46639 17.7681 4.42416 18.7754C4.42416 18.7754 3.4161 19.6614 2.0664 19.6715C2.0664 19.6715 4.33086 20.9895 4.03005 23.0333C4.03005 23.0333 3.29932 24.6917 1.45649 24.1171C1.45649 24.1171 2.67441 25.1897 4.71988 25.8709C4.71988 25.8709 5.96251 26.6692 5.39097 27.5363C5.39097 27.5363 3.5062 28.2206 2.93468 30.1715C2.93468 30.1715 5.76291 28.8106 7.05635 29.8325C7.05635 29.8325 7.96335 32.3868 5.8182 34.429C5.8182 34.429 9.87599 35.099 11.5304 34.8822C11.5304 34.8822 11.0285 37.1262 10.5773 37.7455C10.8179 37.6217 13.9089 36.3498 15.7739 36.7834C15.7739 36.7834 14.4212 39.4456 14.5716 40.4365C14.5716 40.4365 16.9713 37.8944 19.0468 38.266C19.0468 38.266 18.3546 39.8162 23.3365 40.4515Z" fill="#163C3F"/>
<path d="M44.0302 40.8862C44.0302 40.8862 45.7898 42.3679 49.4802 41.4566C49.4802 41.4566 49.9837 41.2623 50.3613 41.0033C50.3613 41.0033 51.0802 40.3938 51.0982 41.5951C51.0982 41.5951 53.592 41.0681 54.0116 38.37C54.0116 38.37 54.2074 37.2815 55.3402 38.1017C55.3402 38.1017 55.9684 38.6275 56.2621 40.0521C56.2621 40.0521 57.6199 37.8088 56.9905 35.6288C56.9905 35.6288 56.9696 35.1539 57.4102 35.2618C57.4102 35.2618 60.641 36.2331 62.1095 34.9381C62.1095 34.9381 60.3891 33.9883 60.7667 31.7436C60.7667 31.7436 61.0913 31.0867 62.4339 31.4968C62.4339 31.4968 63.8333 31.9891 64.0221 32.6798C64.0221 32.6798 64.5381 30.0789 62.58 28.1863C62.58 28.1863 62.0389 27.6162 62.9438 27.0972C62.9438 27.0972 65.9222 25.8355 66.3523 23.6377C66.3523 23.6377 64.4905 24.4048 63.8297 22.4838C63.8297 22.4838 64.7815 20.0736 67.7709 20.7858C67.7709 20.7858 66.9193 18.6113 62.8251 17.7871C62.8251 17.7871 62.0092 17.5277 62.8251 16.3982L64.169 14.7418C64.169 14.7418 62.34 15.6656 61.4797 15.2993C61.4797 15.2993 61.2527 15.1925 61.6829 15.0398C61.6829 15.0398 64.6072 13.77 64.3402 9.78645C64.3402 9.78645 61.7422 11.7126 60.4961 9.89638C60.4961 9.89638 60.0528 8.74929 62.5005 7.74195C62.5005 7.74195 61.3541 5.30257 55.1445 5.97169C55.1445 5.97169 56.1877 2.539 54.1936 0.0117683C54.1936 0.0117683 55.8382 5.43971 53.7614 7.3628C53.7614 7.3628 57.648 5.6839 61.5049 7.57647C61.5049 7.57647 59.1611 7.57645 59.9622 10.5374C59.9622 10.5374 60.8521 11.9721 63.6409 11.3311C63.6409 11.3311 62.1576 14.2615 60.3775 15.3604C60.3775 15.3604 61.6829 16.154 62.5729 16.0624C62.5289 16.2243 61.48 17.9079 61.1233 18.059C61.1233 18.059 63.8487 18.4129 65.6584 19.8475C65.6584 19.8475 63.9377 20.2444 63.107 22.6558C63.107 22.6558 64.0564 24.4263 65.0651 24.6705C65.0894 24.5774 63.0179 26.5936 61.4158 27.143C61.5345 27.2957 63.3443 30.3176 63.6707 31.386C63.6707 31.386 62.1873 30.0734 60.3775 31.1113C60.3775 31.1113 59.7002 33.2263 60.5394 34.8019C60.5394 34.8019 58.2199 35.0868 56.4662 34.3337C56.4662 34.3337 56.6052 37.4485 56.4164 38.2471C56.4164 38.2471 54.9679 36.9022 53.5608 37.0737C53.5608 37.0737 53.2774 39.8377 52.2914 40.2478C52.2914 40.2478 51.7039 39.4708 50.8648 39.1902C50.8648 39.1902 48.1711 41.8603 44.0302 40.8862Z" fill="#163C3F"/>
<path fill-rule="evenodd" clip-rule="evenodd" d="M15.6829 49.9745C15.6829 49.9745 15.8752 43.2171 18.4526 39.4531C18.4526 39.4531 24.0927 41.6036 25.888 39.3716C25.888 39.3716 28.0773 40.5516 28.3866 43.0781C28.3866 43.0781 28.6311 44.2495 27.3007 46.911C27.3007 46.911 27.466 41.7322 23.0889 42.3666C23.0889 42.3666 17.2502 42.362 15.6829 49.9745Z" fill="#163C3F"/>
<path fill-rule="evenodd" clip-rule="evenodd" d="M24.1311 59.2535C24.1311 59.2535 17.3896 56.8105 15.6885 50.7778C15.6885 50.7778 14.966 58.94 24.8119 64.9727C24.8119 64.9727 24.202 61.1871 24.1311 59.2535Z" fill="#163C3F"/>
<path fill-rule="evenodd" clip-rule="evenodd" d="M51.2535 50.3073C51.2535 50.3073 51.3834 44.259 48.806 40.4949C48.806 40.4949 44.7769 42.2781 40.9969 39.35C40.9969 39.35 38.8076 40.343 38.5305 43.3465C38.5305 43.3465 38.2834 44.8841 39.7323 46.8894C39.7323 46.8894 39.4704 42.065 43.8475 42.6994C43.8475 42.6994 49.6862 42.6948 51.2535 50.3073Z" fill="#163C3F"/>
<path fill-rule="evenodd" clip-rule="evenodd" d="M42.8235 59.9097C42.8235 59.9097 49.5725 57.1399 51.2736 51.1071C51.2736 51.1071 51.9384 59.2087 42.0925 65.2414C42.0925 65.2414 42.7526 61.8433 42.8235 59.9097Z" fill="#163C3F"/>
<path d="M25.8252 67.782C26.3021 67.782 26.6887 66.8166 26.6887 65.6258C26.6887 64.4349 26.3021 63.4696 25.8252 63.4696C25.3484 63.4696 24.9617 64.4349 24.9617 65.6258C24.9617 66.8166 25.3484 67.782 25.8252 67.782Z" fill="#FAB84A"/>
<path d="M28.1479 67.7622C28.6247 67.7622 29.0113 66.7968 29.0113 65.606C29.0113 64.4151 28.6247 63.4498 28.1479 63.4498C27.671 63.4498 27.2844 64.4151 27.2844 65.606C27.2844 66.7968 27.671 67.7622 28.1479 67.7622Z" fill="#FAB84A"/>
<path d="M30.5174 67.8167C30.9943 67.8167 31.3809 66.8514 31.3809 65.6605C31.3809 64.4697 30.9943 63.5043 30.5174 63.5043C30.0406 63.5043 29.6539 64.4697 29.6539 65.6605C29.6539 66.8514 30.0406 67.8167 30.5174 67.8167Z" fill="#FAB84A"/>
<path d="M36.4135 67.8804C36.8904 67.8804 37.277 66.9151 37.277 65.7242C37.277 64.5334 36.8904 63.568 36.4135 63.568C35.9367 63.568 35.55 64.5334 35.55 65.7242C35.55 66.9151 35.9367 67.8804 36.4135 67.8804Z" fill="#FAB84A"/>
<path d="M38.7462 67.8711C39.2231 67.8711 39.6097 66.9058 39.6097 65.7149C39.6097 64.524 39.2231 63.5587 38.7462 63.5587C38.2694 63.5587 37.8828 64.524 37.8828 65.7149C37.8828 66.9058 38.2694 67.8711 38.7462 67.8711Z" fill="#FAB84A"/>
<path d="M41.1337 67.8986C41.6106 67.8986 41.9972 66.9332 41.9972 65.7424C41.9972 64.5515 41.6106 63.5861 41.1337 63.5861C40.6568 63.5861 40.2702 64.5515 40.2702 65.7424C40.2702 66.9332 40.6568 67.8986 41.1337 67.8986Z" fill="#FAB84A"/>
<path d="M90.9425 23.1284C88.8676 23.1128 86.6428 23.352 84.6787 24.1119C84.6787 24.1119 74.6524 27.9939 73.7361 38.9393C73.7361 38.9393 72.4963 47.9976 76.593 53.8746C76.593 53.8746 79.7555 59.1735 86.464 60.6985C86.464 60.6985 100.262 64.6632 107.504 52.1579C107.504 52.1579 108.126 51.0428 107.345 50.1262L103.086 47.5382C103.086 47.5382 101.902 47.0259 100.986 48.3469C100.986 48.3469 99.0418 51.9667 95.7637 53.0723C95.7637 53.0723 91.1512 54.7499 87.3395 53.0723C87.3395 53.0723 82.233 51.3948 81.4897 43.1406H107.237C107.237 43.1406 108.515 43.2364 108.705 41.7495C108.705 41.7495 109.583 28.0479 98.3167 24.1119C98.3167 24.1119 94.9035 23.1581 90.9425 23.1284ZM91.5268 30.0514C94.5373 30.0187 96.4839 31.0673 96.4839 31.0673C100.796 33.1161 100.688 37.807 100.688 37.807H81.9835C83.439 32.3613 86.4576 31.1212 86.4576 31.1212C88.3324 30.3427 90.0565 30.0674 91.5268 30.0514Z" fill="#0C5257"/>
<path d="M140.819 6.93786C140.819 6.93786 139.823 6.99178 139.608 8.28581V30.0062C139.608 30.0062 137.844 25.5456 133.46 23.9825C133.46 23.9825 127.782 22.0387 122.751 24.0213C122.751 24.0213 116.499 25.7757 113.602 35.7646C113.602 35.7646 112.038 40.7664 113.412 48.1701C113.412 48.1701 114.593 55.6276 121.759 59.8595C121.759 59.8595 126.867 62.9477 134.338 59.8595C134.338 59.8595 137.591 58.5916 139.661 55.2226V58.3348C139.661 58.3348 139.598 59.5158 140.817 59.7065H146.154C146.154 59.7065 147.374 59.5167 147.335 58.2204V8.33973C147.335 8.33973 147.342 7.23441 145.994 6.93786H140.819ZM130.282 30.2175C135.7 30.2175 140.093 35.66 140.093 42.375C140.093 49.09 135.7 54.5346 130.282 54.5346C124.864 54.5346 120.471 49.09 120.471 42.375C120.471 35.66 124.864 30.2175 130.282 30.2175Z" fill="#0C5257"/>
<path d="M154.501 24.3257H159.418C159.418 24.3257 160.676 24.1732 160.828 25.7745L160.873 46.4599C160.873 46.4599 160.981 52.337 165.94 53.631C165.94 53.631 169.713 54.5746 173.002 53.631C173.002 53.631 178.096 52.4987 178.122 46.406V25.8093C178.122 25.8093 177.961 24.3805 179.416 24.3265H184.402C184.402 24.3265 185.885 24.1917 185.939 25.5936V44.0606C185.939 44.0606 185.966 55.2216 179.281 58.942C179.281 58.942 170.441 64.0642 159.552 58.942C159.552 58.942 154.108 56.7313 153.192 45.732V25.6206C153.192 25.6206 153.205 24.3638 154.501 24.3257Z" fill="#0C5257"/>
<path d="M217.931 31.2553V25.9713C217.931 25.9713 218.012 25.2165 216.826 24.6773C216.826 24.6773 208.633 20.7413 199.415 25.2704C199.415 25.2704 192.884 28.1386 190.864 36.1069C190.864 36.1069 189.186 43.0903 190.864 48.1586C190.864 48.1586 192.758 56.5698 200.358 59.5892C200.358 59.5892 207.2 63.2448 216.961 59.3196C216.961 59.3196 217.955 59.0699 217.931 57.9178V52.7678C217.931 52.7678 217.584 51.1665 216.078 51.5478C216.078 51.5478 215.621 51.6812 215.087 52.0625C215.087 52.0625 213.296 53.3588 211.161 53.6638C211.161 53.6638 206.702 54.4835 203.557 52.6344C203.557 52.6344 199.118 50.9623 198.148 43.6295C198.148 43.6295 197.798 40.5831 198.148 39.316C198.148 39.316 199.136 32.1799 205.615 30.693C205.615 30.693 208.893 29.8161 212.896 30.8074C212.896 30.8074 214.913 31.6327 215.586 32.1988C215.586 32.1988 217.203 33.1963 217.931 31.2553Z" fill="#0C5257"/>
<path d="M235.319 23.2383C233.693 23.2302 231.887 23.4476 230.157 24.1291C230.157 24.1291 223.907 25.8834 221.011 35.8724C221.011 35.8724 219.445 40.8742 220.819 48.2779C220.819 48.2779 222.002 55.7353 229.167 59.9673C229.167 59.9673 234.274 63.0555 241.744 59.9673C241.744 59.9673 244.997 58.6994 247.068 55.3304V58.4425C247.068 58.4425 247.004 59.6257 248.224 59.8163H253.56C253.56 59.8163 254.78 59.6245 254.742 58.3282V25.7034C254.742 25.7034 254.751 24.5982 253.403 24.3016H248.228C248.228 24.3016 247.23 24.3555 247.014 25.6495V30.1161C247.014 30.1161 245.253 25.6555 240.869 24.0924C240.869 24.0924 238.423 23.2537 235.319 23.2383ZM237.689 30.3253C243.107 30.3253 247.499 35.7699 247.499 42.4849C247.499 49.1999 243.107 54.6424 237.689 54.6424C232.27 54.6424 227.878 49.1999 227.878 42.4849C227.878 35.7699 232.27 30.3253 237.689 30.3253Z" fill="#0C5257"/>
<path d="M287.53 31.2338V25.9498C287.53 25.9498 287.611 25.195 286.425 24.6558C286.425 24.6558 278.231 20.7198 269.013 25.2489C269.013 25.2489 262.483 28.117 260.463 36.0853C260.463 36.0853 258.785 43.0688 260.463 48.1371C260.463 48.1371 262.356 56.5483 269.957 59.5677C269.957 59.5677 276.799 63.2233 286.559 59.2981C286.559 59.2981 287.553 59.0484 287.53 57.8963V52.7463C287.53 52.7463 287.182 51.145 285.677 51.5263C285.677 51.5263 285.219 51.6598 284.686 52.041C284.686 52.041 282.894 53.3373 280.76 53.6423C280.76 53.6423 276.3 54.462 273.155 52.6129C273.155 52.6129 268.717 50.9408 267.747 43.608C267.747 43.608 267.396 40.5616 267.747 39.2945C267.747 39.2945 268.734 32.1584 275.214 30.6715C275.214 30.6715 278.492 29.7946 282.494 30.7859C282.494 30.7859 284.511 31.6112 285.185 32.1774C285.185 32.1774 286.802 33.1748 287.53 31.2338Z" fill="#DF2B3C"/>
<path fill-rule="evenodd" clip-rule="evenodd" d="M333.566 23.0746C323.194 23.0746 314.786 31.6787 314.786 42.291C314.786 52.9034 323.194 61.5053 333.566 61.5053C343.938 61.5053 352.346 52.9034 352.346 42.291C352.346 31.6787 343.938 23.0746 333.566 23.0746ZM333.566 30.2738C339.442 30.2738 344.207 35.6541 344.207 42.291C344.207 48.928 339.442 54.3083 333.566 54.3083C327.69 54.3083 322.925 48.928 322.925 42.291C322.925 35.6541 327.69 30.2738 333.566 30.2738Z" fill="#DF2B3C"/>
<path d="M292.805 27.1845V59.5354C292.805 59.5354 292.697 61.1259 294.422 61.2068H299.381C299.381 61.2068 300.594 61.2068 300.729 59.778V43.389C300.729 43.389 300.602 34.5819 304.718 32.18C304.718 32.18 307.158 30.8455 311.084 32.0656C311.084 32.0656 312.38 32.6375 313.142 31.7987L314.971 27.4523C314.971 27.4523 315.391 25.813 314.209 25.508C314.209 25.508 308.568 22.8391 304.07 26.3086C304.07 26.3086 301.821 27.9099 300.792 31.2649V27.1566C300.792 27.1566 300.838 25.7098 299.42 25.6986H294.16C294.16 25.6986 293.089 25.6967 292.805 27.1845Z" fill="#DF2B3C"/>
<path d="M372.611 31.525C372.611 31.525 373.312 32.4685 374.74 31.7406L377.867 29.3682C377.867 29.3682 378.702 28.6134 378.056 27.5889C378.056 27.5889 375.653 23.6017 370.012 23.1442C370.012 23.1442 365.971 22.801 363.684 23.4873C363.684 23.4873 356.404 24.8217 355.07 31.5318C355.07 31.5318 354.613 33.4762 355.184 36.0688C355.184 36.0688 355.909 40.2627 361.626 42.8171C361.626 42.8171 368.973 46.1637 369.35 46.3255C369.35 46.3255 373.501 47.9969 372.692 51.3938C372.692 51.3938 372.423 54.3053 369.134 54.9523C369.134 54.9523 363.151 56.462 360.348 51.6633C360.348 51.6633 359.644 50.1372 358.272 50.4804L354.27 52.7298C354.27 52.7298 353.126 53.4542 353.85 54.7314C353.85 54.7314 355.489 57.8768 358.691 59.5543C358.691 59.5543 363.532 62.7569 372.07 60.5837C372.07 60.5837 377.978 58.6393 379.465 54.7505C379.465 54.7505 381.104 51.5479 380.074 46.9347C380.074 46.9347 379.084 42.9696 374.357 40.6439C374.357 40.6439 367.839 37.7463 366.962 37.4795C366.962 37.4795 362.617 35.6494 362.693 33.3619C362.693 33.3619 361.969 30.8456 364.98 29.6256C364.98 29.6256 367.306 28.4818 370.317 29.6256C370.317 29.6256 371.78 30.2218 372.611 31.525Z" fill="#DF2B3C"/>
<path d="M401.568 31.876C401.568 31.876 402.269 32.8196 403.697 32.0917L406.824 29.7193C406.824 29.7193 407.659 28.9644 407.013 27.94C407.013 27.94 404.61 23.9527 398.969 23.4952C398.969 23.4952 394.928 23.152 392.641 23.8383C392.641 23.8383 385.361 25.1727 384.027 31.8829C384.027 31.8829 383.57 33.8273 384.141 36.4199C384.141 36.4199 384.866 40.6137 390.583 43.1681C390.583 43.1681 397.93 46.5148 398.307 46.6765C398.307 46.6765 402.458 48.348 401.649 51.7448C401.649 51.7448 401.379 54.6564 398.091 55.3034C398.091 55.3034 392.108 56.8131 389.305 52.0144C389.305 52.0144 388.601 50.4883 387.229 50.8314L383.227 53.0808C383.227 53.0808 382.083 53.8052 382.807 55.0825C382.807 55.0825 384.446 58.2278 387.648 59.9054C387.648 59.9054 392.489 63.1079 401.027 60.9348C401.027 60.9348 406.935 58.9904 408.422 55.1015C408.422 55.1015 410.061 51.8989 409.032 47.2857C409.032 47.2857 408.04 43.3206 403.314 40.9949C403.314 40.9949 396.796 38.0974 395.919 37.8305C395.919 37.8305 391.574 36.0005 391.65 33.7129C391.65 33.7129 390.926 31.1966 393.937 29.9766C393.937 29.9766 396.262 28.8328 399.274 29.9766C399.274 29.9766 400.737 30.5729 401.568 31.876Z" fill="#DF2B3C"/>
</svg>
