<svg width="336" height="124" viewBox="0 0 336 124" fill="none" xmlns="http://www.w3.org/2000/svg">
<path d="M43.0357 115.59C43.0357 115.59 46.5189 121.049 61.0329 120.004C61.0329 120.004 69.1608 121.281 77.1725 116.636C77.1725 116.636 81.817 114.081 82.1653 100.724C82.1653 100.724 86.6937 71.5729 76.9405 64.1399C76.9405 64.1399 66.0258 43.1183 50.9311 57.8681C50.9311 57.8681 40.7132 71.4567 40.9455 81.0965C40.9455 81.0965 36.9978 104.905 43.0357 115.59Z" fill="#F2EEE3"/>
<path d="M60.755 121.751C71.6672 121.751 80.5134 116.943 80.5134 111.013C80.5134 105.082 71.6672 100.275 60.755 100.275C49.8428 100.275 40.9966 105.082 40.9966 111.013C40.9966 116.943 49.8428 121.751 60.755 121.751Z" fill="#D5D3C7"/>
<path d="M61.15 112.857C72.0622 112.857 80.9084 108.049 80.9084 102.119C80.9084 96.1886 72.0622 91.3811 61.15 91.3811C50.2378 91.3811 41.3916 96.1886 41.3916 102.119C41.3916 108.049 50.2378 112.857 61.15 112.857Z" fill="#F2EEE3"/>
<path fill-rule="evenodd" clip-rule="evenodd" d="M49.3339 84.3564C49.3339 84.3564 54.2703 74.5742 56.1332 74.1083C56.1332 74.1083 57.1442 78.5114 60.8458 80.3328C60.8458 80.3328 64.9725 78.2926 64.9019 73.9593C64.9019 73.9593 66.8139 75.1094 70.5022 82.3558C70.5022 82.3558 77.6152 80.2478 77.6152 77.2175C77.6152 74.1871 78.1421 72.1449 77.2859 69.4439C76.4297 66.743 75.244 63.9761 73.7293 62.1315C72.2145 60.287 71.029 58.5742 68.197 57.6519C65.365 56.7296 61.0839 55.6756 59.7667 56.1367C58.4495 56.5979 55.0907 57.7178 53.4442 59.5624C51.7977 61.4069 49.4925 62.5927 48.5046 64.9643C47.5167 67.3359 45.8702 68.9828 45.7385 70.4979C45.6068 72.0131 43.0382 68.9828 45.6068 73.9236C48.1754 78.8644 49.3339 84.3564 49.3339 84.3564Z" fill="#D5D3C7"/>
<path d="M88.8584 74.5986C93.1279 82.6468 92.6354 93.323 92.6354 93.323C89.187 111.554 76.0585 117.839 76.0585 117.839C80.9846 98.9499 70.6314 82.6469 70.6314 82.6469C67.0189 75.7483 74.0796 71.1495 74.0796 71.1495C64.884 66.3863 60.7787 50.7827 60.7787 50.7827C57.3304 66.7147 46.8213 71.1495 46.8213 71.1495C53.5539 75.9127 50.598 81.4971 50.598 81.4971L45.5076 94.3085C41.5665 101.864 44.8276 117.382 44.8276 117.382C16.7481 100.3 33.0278 72.1349 33.0278 72.1349C33.0278 72.1349 33.6786 69.8588 31.1821 70.7299C30.892 70.9041 28.0473 72.2978 26.77 76.2466C26.5959 75.8982 25.1444 72.5882 25.9573 68.9878C25.725 69.0458 26.712 67.4198 23.6931 67.7684C23.6931 67.7684 17.8872 69.1621 16.1456 70.6718C16.1456 70.6718 18.5842 67.6522 18.4678 65.2713C18.4678 65.2713 18.7002 64.168 15.9714 64.1098C15.9714 64.1098 10.7365 64.0868 8.47857 62.7729C8.47857 62.7729 11.5574 59.6111 11.5574 58.0097C11.5574 58.0097 12.543 54.5604 8.56084 54.7246C8.56084 54.7246 4.45568 55.628 3.3062 56.9419C3.3062 56.9419 3.38819 53.4517 4.78413 52.1376C4.78413 52.1376 6.85669 49.8245 7.72751 49.1277C7.72751 49.1277 8.83072 48.4888 7.20515 47.5598C7.20515 47.5598 1.5737 46.921 0.412476 40.5333C0.412476 40.5333 2.9088 43.7271 5.69564 40.9977C5.69564 40.9977 5.92779 37.107 0.702815 35.5972C0.702815 35.5972 2.21227 34.2035 4.4184 33.8551C4.4184 33.8551 7.26328 33.9132 7.66944 32.2292C7.66944 32.2292 7.95989 30.4289 4.12832 28.4545C4.12832 28.4545 8.5985 29.0934 9.46929 28.0481C9.46929 28.0481 3.89587 26.8867 4.4184 18.4663C4.4184 18.4663 7.14723 22.5894 9.6435 21.3119C9.6435 21.3119 11.3269 20.557 10.2239 17.6534C10.2239 17.6534 9.12092 15.8533 7.84365 15.4467C7.84365 15.4467 9.58528 11.9625 16.494 12.2529C16.494 12.2529 20.0354 11.6721 16.9583 8.65247C16.9583 8.65247 20.6159 8.07177 23.3447 9.93009C23.3447 9.93009 21.9514 5.16833 24.0994 0.0580186C24.0994 0.0580186 34.2594 10.2134 50.2697 11.1168C50.2697 11.1168 50.1876 7.33895 54.2927 5.20378C54.2927 5.20378 53.7178 8.32452 55.8526 9.39207C55.8526 9.39207 56.6737 9.88485 57.3305 8.57089C57.3305 8.57089 58.5619 4.30046 57.9051 1.42601C57.9051 1.42601 61.0252 3.47908 61.6821 8.32449C61.6821 8.32449 62.0927 10.1313 62.9957 8.89932C62.9957 8.89932 64.4735 4.95742 66.0333 3.97188C66.0333 3.97188 64.8841 8.32453 66.7727 10.2955C66.7727 10.2955 67.8399 11.281 68.3324 11.281C68.3324 11.281 86.9742 10.5688 97.889 0C97.889 0 100.908 4.18108 98.9339 10.9172C98.9339 10.9172 108.646 9.47426 111.93 14.0731C111.93 14.0731 108.81 14.9766 108.563 17.1117C108.563 17.1117 108.646 19.0006 110.78 19.247C110.78 19.247 113.982 19.8218 115.87 18.1793C115.87 18.1793 116.692 24.6673 110.945 27.2131C110.945 27.2131 109.994 27.4384 110.603 27.8738C110.603 27.8738 112.897 28.1061 115.015 27.148C115.015 27.148 113.709 28.6288 113.129 29.4998C113.129 29.4998 111.532 30.8645 112.984 32.1711C112.984 32.1711 120.838 33.9472 122.152 37.3554C122.152 37.3554 117.02 35.795 114.927 40.5992C114.927 40.5992 115.624 43.802 119.442 42.9809C119.442 42.9809 119.428 46.5725 112.984 48.8954C112.984 48.8954 112.055 49.5342 112.577 50.9859C112.577 50.9859 116.003 54.354 115.596 58.6512C115.596 58.6512 114.203 56.851 111.706 56.4446C111.706 56.4446 109.152 55.8058 108.978 58.535C108.978 58.535 109.268 61.9031 111.648 63.0646C111.648 63.0646 109.674 64.8068 102.94 63.413C102.94 63.413 101.953 62.8904 102.301 64.2841C102.301 64.2841 103.23 68.0005 101.837 71.6009C101.837 71.6009 101.14 68.9878 99.4566 68.1748C99.4566 68.1748 97.8307 66.8392 96.7857 68.9298C96.7857 68.9298 96.147 73.6334 92.4316 75.2012C92.4316 75.2012 92.6638 73.8658 91.8512 73.2849C91.8512 73.2849 90.5104 72.1958 88.8584 74.5986Z" fill="#225054"/>
<path d="M61.0374 44.1798C57.4841 45.4553 53.8448 52.4388 53.8448 52.4388C54.3487 59.1301 60.9348 65.1146 61.0338 65.2043V65.228C61.0338 65.228 61.0455 65.2157 61.046 65.2155C61.0461 65.2155 61.0514 65.2207 61.0514 65.2207V65.2113C61.1496 65.1176 67.4677 59.0715 67.9714 52.3819C67.9714 52.3819 64.5889 45.4614 61.0366 44.1835V44.1798H61.0374Z" fill="#163C3F"/>
<path d="M54.0464 53.8211C54.0464 53.8211 57.5784 47.526 61.0268 46.3763L61.0408 65.3426C61.0408 65.3426 54.5398 59.8983 54.0472 53.8211H54.0464Z" fill="#FAB84A"/>
<path d="M67.7568 53.7695C67.7568 53.7695 64.4723 47.5281 61.0239 46.3784V65.349C61.0239 65.349 67.2641 59.8467 67.7568 53.7695Z" fill="#E9934C"/>
<path d="M33.5397 61.734C45.371 61.734 54.9622 52.1404 54.9622 40.3062C54.9622 28.4719 45.371 18.8783 33.5397 18.8783C21.7083 18.8783 12.1172 28.4719 12.1172 40.3062C12.1172 52.1404 21.7083 61.734 33.5397 61.734Z" fill="#173C3F"/>
<path d="M34.8254 61.7509C45.5479 61.7509 54.2402 52.5968 54.2402 41.3046C54.2402 30.0125 45.5479 20.8584 34.8254 20.8584C24.1029 20.8584 15.4106 30.0125 15.4106 41.3046C15.4106 52.5968 24.1029 61.7509 34.8254 61.7509Z" fill="#F2EEE3"/>
<path d="M88.6392 61.7177C100.471 61.7177 110.062 52.1241 110.062 40.2899C110.062 28.4556 100.471 18.862 88.6392 18.862C76.8079 18.862 67.2167 28.4556 67.2167 40.2899C67.2167 52.1241 76.8079 61.7177 88.6392 61.7177Z" fill="#173C3F"/>
<path d="M87.2985 61.7847C98.021 61.7847 106.713 52.6306 106.713 41.3384C106.713 30.0463 98.021 20.8922 87.2985 20.8922C76.5759 20.8922 67.8837 30.0463 67.8837 41.3384C67.8837 52.6306 76.5759 61.7847 87.2985 61.7847Z" fill="#F2EEE3"/>
<path d="M39.1444 54.1114C45.4262 54.1114 50.5186 49.0387 50.5186 42.7813C50.5186 36.5239 45.4262 31.4513 39.1444 31.4513C32.8626 31.4513 27.7702 36.5239 27.7702 42.7813C27.7702 49.0387 32.8626 54.1114 39.1444 54.1114Z" fill="#FAB84A"/>
<path d="M39.2285 51.1236C43.9103 51.1236 47.7055 47.3431 47.7055 42.6795C47.7055 38.016 43.9103 34.2355 39.2285 34.2355C34.5468 34.2355 30.7516 38.016 30.7516 42.6795C30.7516 47.3431 34.5468 51.1236 39.2285 51.1236Z" fill="#201E1E"/>
<path d="M34.5506 39.9571C36.0538 39.9571 37.2725 38.7433 37.2725 37.2459C37.2725 35.7486 36.0538 34.5347 34.5506 34.5347C33.0474 34.5347 31.8287 35.7486 31.8287 37.2459C31.8287 38.7433 33.0474 39.9571 34.5506 39.9571Z" fill="#FEFEFE"/>
<path d="M83.5217 54.1466C89.8035 54.1466 94.8959 49.074 94.8959 42.8166C94.8959 36.5591 89.8035 31.4865 83.5217 31.4865C77.2399 31.4865 72.1475 36.5591 72.1475 42.8166C72.1475 49.074 77.2399 54.1466 83.5217 54.1466Z" fill="#FAB84A"/>
<path d="M83.6056 51.159C88.2873 51.159 92.0825 47.3785 92.0825 42.715C92.0825 38.0514 88.2873 34.271 83.6056 34.271C78.9239 34.271 75.1287 38.0514 75.1287 42.715C75.1287 47.3785 78.9239 51.159 83.6056 51.159Z" fill="#201E1E"/>
<path d="M78.9277 39.9923C80.4309 39.9923 81.6496 38.7785 81.6496 37.2811C81.6496 35.7837 80.4309 34.5699 78.9277 34.5699C77.4245 34.5699 76.2058 35.7837 76.2058 37.2811C76.2058 38.7785 77.4245 39.9923 78.9277 39.9923Z" fill="#FEFEFE"/>
<path d="M46.6158 123.836C47.6383 123.836 48.4673 121.766 48.4673 119.213C48.4673 116.659 47.6383 114.589 46.6158 114.589C45.5932 114.589 44.7642 116.659 44.7642 119.213C44.7642 121.766 45.5932 123.836 46.6158 123.836Z" fill="#E9934C"/>
<path d="M50.8444 123.816C51.8669 123.816 52.6959 121.746 52.6959 119.192C52.6959 116.639 51.8669 114.569 50.8444 114.569C49.8218 114.569 48.9928 116.639 48.9928 119.192C48.9928 121.746 49.8218 123.816 50.8444 123.816Z" fill="#E9934C"/>
<path d="M55.1548 123.857C56.1773 123.857 57.0063 121.787 57.0063 119.233C57.0063 116.68 56.1773 114.61 55.1548 114.61C54.1323 114.61 53.3032 116.68 53.3032 119.233C53.3032 121.787 54.1323 123.857 55.1548 123.857Z" fill="#E9934C"/>
<path d="M65.7673 123.98C66.7899 123.98 67.6189 121.91 67.6189 119.356C67.6189 116.803 66.7899 114.733 65.7673 114.733C64.7448 114.733 63.9158 116.803 63.9158 119.356C63.9158 121.91 64.7448 123.98 65.7673 123.98Z" fill="#E9934C"/>
<path d="M69.9959 123.959C71.0184 123.959 71.8474 121.889 71.8474 119.336C71.8474 116.782 71.0184 114.712 69.9959 114.712C68.9734 114.712 68.1443 116.782 68.1443 119.336C68.1443 121.889 68.9734 123.959 69.9959 123.959Z" fill="#E9934C"/>
<path d="M74.3065 124C75.329 124 76.1581 121.93 76.1581 119.376C76.1581 116.823 75.329 114.753 74.3065 114.753C73.284 114.753 72.455 116.823 72.455 119.376C72.455 121.93 73.284 124 74.3065 124Z" fill="#E9934C"/>
<path d="M42.1655 73.0898C42.1655 73.0898 37.8611 74.6328 32.8649 71.9425C32.8649 71.9425 29.0654 70.3202 26.9132 77.046C26.7595 76.8878 24.1794 74.7911 25.2555 69.4499C25.2555 69.4499 25.9089 67.9861 23.0265 68.4212C23.0265 68.4212 16.2625 70.5973 15.3786 71.8238C15.3786 71.8238 17.838 68.0256 17.7996 65.5727C17.7996 65.5727 17.7998 64.6825 15.3401 64.7221C15.3401 64.7221 9.97875 64.6627 7.8458 63.2186C7.8458 63.1395 10.6321 60.5481 11.0933 58.3721C11.0933 58.3721 11.7275 55.0685 8.7298 55.2465C8.7298 55.2465 5.17494 55.2465 2.90747 57.4225C2.90747 57.4225 2.19684 52.948 7.00687 49.451C7.00687 49.451 8.03952 48.8635 6.81662 48.248C6.81662 48.248 1.26825 46.5932 0 39.986C0 39.986 2.27319 42.8629 4.42539 41.676C4.42539 41.676 4.84835 41.5178 5.11737 40.8848C5.11737 40.8848 5.02304 37.0576 0.0771693 35.519C0.0771693 35.519 1.58151 33.7632 5.27094 33.4467C5.27094 33.4467 7.80754 32.6951 6.57772 30.9938C6.57772 30.9938 4.8097 29.0552 3.69521 28.4221C3.69521 28.4221 7.65384 28.5804 8.92209 27.7891C8.80677 27.7496 3.48663 27.1298 4.29372 17.9905C4.29372 17.9905 8.30711 23.6745 9.95967 19.7576C9.8444 19.5202 10.5803 17.156 7.12147 15.2173C7.12147 15.2173 9.38311 11.7261 15.9165 11.647C15.9165 11.647 19.0295 10.8557 16.3777 8.12582C16.3777 8.12582 20.759 7.37407 22.7191 9.27313C22.7575 9.19399 21.9172 5.35251 24.031 0.130081C24.031 0.130081 23.3338 9.55014 24.7943 13.2296C24.6021 13.1109 22.45 10.0644 19.6445 8.91706C19.6445 8.91706 21.0664 13.7834 16.0703 13.9021C16.0703 13.9021 12.0348 13.0713 10.1132 14.6143C10.1132 14.6143 13.1495 20.1532 10.8052 22.4875C10.8052 22.4875 8.65306 24.4261 5.84754 21.6962C5.84754 21.6962 5.55672 26.1274 11.3215 27.3144C11.3215 27.3144 10.3336 29.6166 7.33592 29.6957C7.33592 29.6957 9.87693 32.1044 7.99377 33.9243C7.99377 33.9243 6.17237 35.5252 3.73367 35.5436C3.73367 35.5436 7.8252 37.9249 7.28167 41.6177C7.28167 41.6177 5.96137 44.6143 2.63165 43.576C2.63165 43.576 4.83224 45.514 8.52809 46.7449C8.52809 46.7449 10.7733 48.1873 9.74064 49.7539C9.74064 49.7539 6.33517 50.9905 5.30252 54.5154C5.30252 54.5154 10.4127 52.0564 12.7497 53.9028C12.7497 53.9028 14.3885 58.518 10.5126 62.208C10.5126 62.208 17.8444 63.4186 20.8337 63.0269C20.8337 63.0269 19.9267 67.0815 19.1115 68.2005C19.5463 67.9767 25.1312 65.6787 28.5009 66.462C28.5009 66.462 26.0569 71.2723 26.3287 73.0627C26.3287 73.0627 30.6645 68.4696 34.4147 69.141C34.4147 69.141 33.164 71.942 42.1655 73.0898Z" fill="#163C3F"/>
<path d="M79.5558 73.8752C79.5558 73.8752 82.7352 76.5523 89.4031 74.9057C89.4031 74.9057 90.3129 74.5547 90.9952 74.0867C90.9952 74.0867 92.2942 72.9854 92.3267 75.1559C92.3267 75.1559 96.8326 74.2037 97.5907 69.3287C97.5907 69.3287 97.9445 67.3619 99.9914 68.8439C99.9914 68.8439 101.126 69.7939 101.657 72.368C101.657 72.368 104.11 68.3147 102.973 64.3757C102.973 64.3757 102.935 63.5177 103.731 63.7127C103.731 63.7127 109.569 65.4677 112.222 63.1277C112.222 63.1277 109.114 61.4117 109.796 57.3557C109.796 57.3557 110.383 56.1689 112.809 56.9099C112.809 56.9099 115.337 57.7994 115.678 59.0473C115.678 59.0473 116.61 54.3479 113.072 50.9283C113.072 50.9283 112.095 49.8982 113.73 48.9606C113.73 48.9606 119.111 46.6808 119.889 42.7097C119.889 42.7097 116.525 44.0958 115.33 40.6248C115.33 40.6248 117.05 36.2699 122.452 37.5568C122.452 37.5568 120.913 33.6277 113.515 32.1385C113.515 32.1385 112.041 31.6698 113.515 29.6291L115.943 26.6362C115.943 26.6362 112.639 28.3053 111.084 27.6435C111.084 27.6435 110.674 27.4505 111.452 27.1747C111.452 27.1747 116.735 24.8802 116.253 17.6826C116.253 17.6826 111.559 21.1629 109.307 17.8813C109.307 17.8813 108.506 15.8086 112.929 13.9885C112.929 13.9885 110.858 9.58095 99.6376 10.7899C99.6376 10.7899 101.523 4.5876 97.9195 0.021286C97.9195 0.021286 100.891 9.82875 97.1387 13.3035C97.1387 13.3035 104.161 10.27 111.13 13.6895C111.13 13.6895 106.895 13.6895 108.342 19.0395C108.342 19.0395 109.95 21.6317 114.989 20.4735C114.989 20.4735 112.309 25.7683 109.093 27.7538C109.093 27.7538 111.452 29.1879 113.06 29.0224C112.98 29.3149 111.085 32.3568 110.441 32.6298C110.441 32.6298 115.365 33.2692 118.635 35.8615C118.635 35.8615 115.526 36.5785 114.025 40.9356C114.025 40.9356 115.74 44.1346 117.563 44.5758C117.607 44.4076 113.864 48.0505 110.969 49.0433C111.183 49.3191 114.454 54.7793 115.043 56.7097C115.043 56.7097 112.363 54.3381 109.093 56.2133C109.093 56.2133 107.869 60.0348 109.385 62.8818C109.385 62.8818 105.195 63.3965 102.026 62.0357C102.026 62.0357 102.277 67.6637 101.936 69.1066C101.936 69.1066 99.3186 66.6767 96.7762 66.9865C96.7762 66.9865 96.2641 71.9807 94.4826 72.7217C94.4826 72.7217 93.4211 71.3177 91.9049 70.8107C91.9049 70.8107 87.0378 75.6351 79.5558 73.8752Z" fill="#163C3F"/>
<path fill-rule="evenodd" clip-rule="evenodd" d="M28.3362 90.2963C28.3362 90.2963 28.6837 78.0868 33.3407 71.2858C33.3407 71.2858 43.5315 75.1714 46.7753 71.1386C46.7753 71.1386 50.731 73.2705 51.2898 77.8356C51.2898 77.8356 51.7317 79.952 49.3277 84.7611C49.3277 84.7611 49.6264 75.4038 41.7178 76.55C41.7178 76.55 31.168 76.5417 28.3362 90.2963Z" fill="#163C3F"/>
<path fill-rule="evenodd" clip-rule="evenodd" d="M43.601 107.062C43.601 107.062 31.4201 102.648 28.3465 91.7474C28.3465 91.7474 27.0411 106.495 44.8311 117.396C44.8311 117.396 43.7291 110.556 43.601 107.062Z" fill="#163C3F"/>
<path fill-rule="evenodd" clip-rule="evenodd" d="M92.6071 90.8971C92.6071 90.8971 92.8418 79.9686 88.1847 73.1676C88.1847 73.1676 80.9047 76.3894 74.075 71.0988C74.075 71.0988 70.1192 72.8931 69.6185 78.3199C69.6185 78.3199 69.172 81.0981 71.79 84.7213C71.79 84.7213 71.3168 76.0046 79.2255 77.1508C79.2255 77.1508 89.7752 77.1424 92.6071 90.8971Z" fill="#163C3F"/>
<path fill-rule="evenodd" clip-rule="evenodd" d="M77.3755 108.247C77.3755 108.247 89.5698 103.242 92.6435 92.3423C92.6435 92.3423 93.8447 106.981 76.0547 117.881C76.0547 117.881 77.2474 111.741 77.3755 108.247Z" fill="#163C3F"/>
<path d="M46.6626 122.472C47.5243 122.472 48.223 120.728 48.223 118.576C48.223 116.424 47.5243 114.68 46.6626 114.68C45.8009 114.68 45.1022 116.424 45.1022 118.576C45.1022 120.728 45.8009 122.472 46.6626 122.472Z" fill="#FAB84A"/>
<path d="M50.8593 122.436C51.721 122.436 52.4197 120.692 52.4197 118.54C52.4197 116.388 51.721 114.644 50.8593 114.644C49.9976 114.644 49.2989 116.388 49.2989 118.54C49.2989 120.692 49.9976 122.436 50.8593 122.436Z" fill="#FAB84A"/>
<path d="M55.1403 122.535C56.002 122.535 56.7007 120.791 56.7007 118.639C56.7007 116.487 56.002 114.742 55.1403 114.742C54.2786 114.742 53.58 116.487 53.58 118.639C53.58 120.791 54.2786 122.535 55.1403 122.535Z" fill="#FAB84A"/>
<path d="M65.7935 122.65C66.6553 122.65 67.3539 120.906 67.3539 118.754C67.3539 116.602 66.6553 114.857 65.7935 114.857C64.9318 114.857 64.2332 116.602 64.2332 118.754C64.2332 120.906 64.9318 122.65 65.7935 122.65Z" fill="#FAB84A"/>
<path d="M70.0086 122.634C70.8703 122.634 71.569 120.889 71.569 118.737C71.569 116.585 70.8703 114.841 70.0086 114.841C69.1469 114.841 68.4482 116.585 68.4482 118.737C68.4482 120.889 69.1469 122.634 70.0086 122.634Z" fill="#FAB84A"/>
<path d="M74.3226 122.683C75.1843 122.683 75.883 120.938 75.883 118.786C75.883 116.634 75.1843 114.89 74.3226 114.89C73.4609 114.89 72.7622 116.634 72.7622 118.786C72.7622 120.938 73.4609 122.683 74.3226 122.683Z" fill="#FAB84A"/>
<path d="M154.838 17.867C152.554 17.8499 150.105 18.1131 147.943 18.9496C147.943 18.9496 136.906 23.2229 135.898 35.2714C135.898 35.2714 134.533 45.2426 139.043 51.7119C139.043 51.7119 142.524 57.5448 149.908 59.2235C149.908 59.2235 165.097 63.5877 173.069 49.8222C173.069 49.8222 173.754 48.5947 172.893 47.5857L168.206 44.7368C168.206 44.7368 166.903 44.173 165.894 45.6271C165.894 45.6271 163.754 49.6117 160.145 50.8288C160.145 50.8288 155.068 52.6754 150.872 50.8288C150.872 50.8288 145.251 48.9822 144.433 39.8961H172.775C172.775 39.8961 174.181 40.0016 174.391 38.3648C174.391 38.3648 175.357 23.2823 162.955 18.9496C162.955 18.9496 159.198 17.8998 154.838 17.867ZM155.481 25.4878C158.795 25.4518 160.938 26.606 160.938 26.606C165.685 28.8614 165.566 34.025 165.566 34.025H144.976C146.578 28.0304 149.901 26.6653 149.901 26.6653C151.965 25.8085 153.863 25.5054 155.481 25.4878Z" fill="#0C5257"/>
<path d="M209.742 0.0444336C209.742 0.0444336 208.645 0.103786 208.408 1.52823V25.4376C208.408 25.4376 206.466 20.5275 201.641 18.8068C201.641 18.8068 195.39 16.6672 189.852 18.8495C189.852 18.8495 182.97 20.7807 179.781 31.7764C179.781 31.7764 178.06 37.2823 179.572 45.4321C179.572 45.4321 180.872 53.6412 188.76 58.2996C188.76 58.2996 194.383 61.6991 202.607 58.2996C202.607 58.2996 206.188 56.9039 208.467 53.1954V56.6212C208.467 56.6212 208.397 57.9213 209.739 58.1311H215.614C215.614 58.1311 216.957 57.9223 216.915 56.4953V1.58759C216.915 1.58759 216.921 0.370872 215.438 0.0444336H209.742ZM198.143 25.6703C204.107 25.6703 208.942 31.6613 208.942 39.053C208.942 46.4447 204.107 52.438 198.143 52.438C192.178 52.438 187.343 46.4447 187.343 39.053C187.343 31.6613 192.178 25.6703 198.143 25.6703Z" fill="#0C5257"/>
<path d="M224.802 19.1849H230.215C230.215 19.1849 231.6 19.017 231.767 20.7796L231.816 43.5498C231.816 43.5498 231.935 50.0192 237.394 51.4436C237.394 51.4436 241.548 52.4823 245.167 51.4436C245.167 51.4436 250.775 50.1972 250.804 43.4904V20.818C250.804 20.818 250.626 19.2451 252.228 19.1858H257.717C257.717 19.1858 259.349 19.0374 259.408 20.5806V40.9086C259.408 40.9086 259.438 53.1945 252.08 57.2898C252.08 57.2898 242.349 62.9282 230.363 57.2898C230.363 57.2898 224.37 54.8564 223.361 42.7485V20.6102C223.361 20.6102 223.376 19.2268 224.802 19.1849Z" fill="#0C5257"/>
<path d="M294.625 26.8124V20.9959C294.625 20.9959 294.714 20.165 293.409 19.5714C293.409 19.5714 284.39 15.2387 274.243 20.2243C274.243 20.2243 267.054 23.3816 264.83 32.1529C264.83 32.1529 262.983 39.8401 264.83 45.4192C264.83 45.4192 266.915 54.6781 275.281 58.0019C275.281 58.0019 282.813 62.0259 293.557 57.7051C293.557 57.7051 294.651 57.4302 294.625 56.1619V50.493C294.625 50.493 294.243 48.7303 292.586 49.15C292.586 49.15 292.082 49.2969 291.495 49.7166C291.495 49.7166 289.523 51.1435 287.173 51.4793C287.173 51.4793 282.264 52.3816 278.802 50.3461C278.802 50.3461 273.916 48.5055 272.848 40.4337C272.848 40.4337 272.463 37.0803 272.848 35.6855C272.848 35.6855 273.935 27.8302 281.068 26.1934C281.068 26.1934 284.677 25.2281 289.082 26.3193C289.082 26.3193 291.302 27.2278 292.044 27.851C292.044 27.851 293.824 28.9491 294.625 26.8124Z" fill="#0C5257"/>
<path d="M313.765 17.9876C311.975 17.9787 309.987 18.2179 308.083 18.9681C308.083 18.9681 301.203 20.8993 298.014 31.895C298.014 31.895 296.291 37.4008 297.803 45.5507C297.803 45.5507 299.105 53.7597 306.993 58.4182C306.993 58.4182 312.614 61.8176 320.838 58.4182C320.838 58.4182 324.419 57.0225 326.698 53.3139V56.7397C326.698 56.7397 326.628 58.0422 327.97 58.252H333.845C333.845 58.252 335.187 58.0408 335.145 56.6139V20.7012C335.145 20.7012 335.155 19.4845 333.671 19.1581H327.975C327.975 19.1581 326.876 19.2174 326.639 20.6418V25.5586C326.639 25.5586 324.699 20.6484 319.874 18.9277C319.874 18.9277 317.181 18.0045 313.765 17.9876ZM316.373 25.7888C322.338 25.7888 327.173 31.7822 327.173 39.1739C327.173 46.5656 322.338 52.5566 316.373 52.5566C310.409 52.5566 305.574 46.5656 305.574 39.1739C305.574 31.7822 310.409 25.7888 316.373 25.7888Z" fill="#0C5257"/>
<path d="M172.146 83.147V76.0985C172.146 76.0985 172.254 75.0916 170.672 74.3723C170.672 74.3723 159.742 69.1219 147.446 75.1635C147.446 75.1635 138.735 78.9894 136.04 89.6186C136.04 89.6186 133.802 98.9341 136.04 105.695C136.04 105.695 138.566 116.915 148.705 120.943C148.705 120.943 157.832 125.819 170.852 120.583C170.852 120.583 172.178 120.25 172.146 118.713V111.843C172.146 111.843 171.683 109.707 169.674 110.216C169.674 110.216 169.064 110.394 168.352 110.902C168.352 110.902 165.963 112.632 163.115 113.038C163.115 113.038 157.166 114.132 152.972 111.665C152.972 111.665 147.051 109.435 145.757 99.6534C145.757 99.6534 145.289 95.5897 145.757 93.8995C145.757 93.8995 147.074 84.3803 155.717 82.3969C155.717 82.3969 160.09 81.2272 165.429 82.5495C165.429 82.5495 168.119 83.6504 169.018 84.4056C169.018 84.4056 171.175 85.7362 172.146 83.147Z" fill="#DF2B3C"/>
<path fill-rule="evenodd" clip-rule="evenodd" d="M233.555 72.2633C219.72 72.2633 208.503 83.7405 208.503 97.8968C208.503 112.053 219.72 123.527 233.555 123.527C247.39 123.527 258.607 112.053 258.607 97.8968C258.607 83.7405 247.39 72.2633 233.555 72.2633ZM233.555 81.8665C241.394 81.8665 247.749 89.0436 247.749 97.8968C247.749 106.75 241.394 113.927 233.555 113.927C225.717 113.927 219.361 106.75 219.361 97.8968C219.361 89.0436 225.717 81.8665 233.555 81.8665Z" fill="#DF2B3C"/>
<path d="M179.161 75.7916V120.636C179.161 120.636 179.012 122.841 181.39 122.953H188.226C188.226 122.953 189.897 122.953 190.083 120.972V98.254C190.083 98.254 189.908 86.0458 195.582 82.7162C195.582 82.7162 198.945 80.8664 204.356 82.5576C204.356 82.5576 206.143 83.3504 207.194 82.1877L209.715 76.1628C209.715 76.1628 210.293 73.8903 208.665 73.4675C208.665 73.4675 200.889 69.768 194.689 74.5773C194.689 74.5773 191.589 76.7971 190.17 81.4478V75.7529C190.17 75.7529 190.233 73.7473 188.279 73.7318H181.028C181.028 73.7318 179.552 73.7292 179.161 75.7916Z" fill="#DF2B3C"/>
<path d="M285.639 83.5354C285.639 83.5354 286.574 84.7941 288.48 83.8231L292.65 80.6585C292.65 80.6585 293.765 79.6516 292.902 78.285C292.902 78.285 289.697 72.9663 282.172 72.356C282.172 72.356 276.782 71.8983 273.731 72.8137C273.731 72.8137 264.02 74.5937 262.241 83.5446C262.241 83.5446 261.63 86.1383 262.393 89.5966C262.393 89.5966 263.359 95.191 270.986 98.5984C270.986 98.5984 280.786 103.063 281.289 103.278C281.289 103.278 286.826 105.508 285.747 110.039C285.747 110.039 285.388 113.923 281.001 114.786C281.001 114.786 273.02 116.8 269.281 110.399C269.281 110.399 268.342 108.363 266.512 108.821L261.173 111.821C261.173 111.821 259.648 112.788 260.614 114.491C260.614 114.491 262.8 118.687 267.071 120.925C267.071 120.925 273.528 125.197 284.917 122.298C284.917 122.298 292.798 119.704 294.781 114.517C294.781 114.517 296.968 110.245 295.595 104.091C295.595 104.091 294.273 98.8018 287.968 95.6995C287.968 95.6995 279.274 91.8344 278.104 91.4784C278.104 91.4784 272.308 89.0372 272.41 85.9858C272.41 85.9858 271.444 82.6292 275.46 81.0018C275.46 81.0018 278.562 79.476 282.578 81.0018C282.578 81.0018 284.531 81.7971 285.639 83.5354Z" fill="#DF2B3C"/>
<path d="M324.266 84.004C324.266 84.004 325.201 85.2627 327.107 84.2917L331.277 81.1271C331.277 81.1271 332.392 80.1201 331.529 78.7536C331.529 78.7536 328.324 73.4348 320.799 72.8245C320.799 72.8245 315.409 72.3668 312.359 73.2822C312.359 73.2822 302.647 75.0623 300.868 84.0132C300.868 84.0132 300.257 86.6069 301.02 90.0652C301.02 90.0652 301.986 95.6595 309.613 99.0669C309.613 99.0669 319.413 103.531 319.916 103.747C319.916 103.747 325.453 105.977 324.374 110.508C324.374 110.508 324.015 114.392 319.628 115.255C319.628 115.255 311.647 117.269 307.908 110.867C307.908 110.867 306.969 108.832 305.139 109.289L299.8 112.29C299.8 112.29 298.275 113.256 299.241 114.96C299.241 114.96 301.427 119.156 305.698 121.393C305.698 121.393 312.155 125.665 323.544 122.767C323.544 122.767 331.425 120.173 333.408 114.985C333.408 114.985 335.595 110.713 334.222 104.56C334.222 104.56 332.9 99.2704 326.595 96.1681C326.595 96.1681 317.901 92.3029 316.731 91.9469C316.731 91.9469 310.935 89.5058 311.037 86.4543C311.037 86.4543 310.071 83.0977 314.087 81.4703C314.087 81.4703 317.189 79.9446 321.206 81.4703C321.206 81.4703 323.158 82.2657 324.266 84.004Z" fill="#DF2B3C"/>
</svg>
