<svg width="51" height="50" viewBox="0 0 34 33" fill="none" xmlns="http://www.w3.org/2000/svg">
<rect x="0.5" width="33" height="33" rx="5" fill="#7367F0"/>
<path d="M13.8796 25.3665C13.8106 25.2975 13.7148 25.2578 13.6172 25.2578C13.5196 25.2578 13.4238 25.2975 13.3549 25.3665C13.2858 25.4356 13.2461 25.5313 13.2461 25.6289C13.2461 25.7265 13.2858 25.8222 13.3549 25.8913C13.4238 25.9603 13.5196 26 13.6172 26C13.7148 26 13.8106 25.9603 13.8796 25.8913C13.9486 25.8222 13.9883 25.7265 13.9883 25.6289C13.9883 25.5313 13.9486 25.4356 13.8796 25.3665Z" fill="white"/>
<path d="M20.1713 22.4067C19.9664 22.4067 19.8002 22.5729 19.8002 22.7778C19.8002 23.4684 19.2384 24.0302 18.5479 24.0302C18.3429 24.0302 18.1768 24.1963 18.1768 24.4013C18.1768 24.6062 18.3429 24.7724 18.5479 24.7724C19.6476 24.7724 20.5424 23.8776 20.5424 22.7778C20.5424 22.5729 20.3762 22.4067 20.1713 22.4067Z" fill="white"/>
<path d="M22.8828 7C21.164 7 19.7656 8.39836 19.7656 10.1172V14.5703C19.7656 16.1635 20.9673 17.4805 22.5117 17.6646V20.916H21.176C20.5916 20.0933 19.6312 19.5555 18.5475 19.5555C18.2638 19.5555 17.9885 19.5926 17.7262 19.6618L16.4884 16.5H17.9975C18.0847 16.5 18.1614 16.5557 18.1884 16.6386C18.2159 16.7232 18.1823 16.7876 18.1599 16.8185C18.1375 16.8494 18.0865 16.9012 17.9975 16.9012H17.6182C17.4133 16.9012 17.2471 17.0674 17.2471 17.2723C17.2471 17.4773 17.4133 17.6434 17.6182 17.6434H17.9975C18.3029 17.6434 18.5809 17.5017 18.7604 17.2547C18.9398 17.0077 18.9886 16.6995 18.8942 16.4092C18.7675 16.0196 18.4072 15.7578 17.9975 15.7578H15.9446C15.8219 15.7578 15.7072 15.8184 15.6381 15.9197C15.5689 16.021 15.5543 16.15 15.599 16.2642L16.296 18.0445H13.2119L12.9326 17.4056L12.8271 17.1368C12.7714 16.9947 12.6344 16.9012 12.4817 16.9012H10.8681C10.5562 16.9012 10.265 17.0551 10.0892 17.3128C9.91349 17.5706 9.87661 17.8979 9.99057 18.1883C10.1332 18.5517 10.4777 18.7866 10.8681 18.7866H12.098L11.5011 19.8205C11.1088 19.6502 10.6764 19.5555 10.2222 19.5555C8.44548 19.5556 7 21.0011 7 22.7778C7 23.7742 7.45463 24.6663 8.16731 25.2578H7.37109C7.16618 25.2578 7 25.424 7 25.6289C7 25.8339 7.16618 26 7.37109 26H10.2222C11.8734 26 13.2383 24.7515 13.4229 23.1489H14.8762C15.0014 23.1489 15.1182 23.0857 15.1867 22.981C15.2553 22.8762 15.2664 22.7439 15.2162 22.6292L13.5364 18.7867H16.5865L17.0354 19.9332C16.0188 20.4758 15.3253 21.5472 15.3253 22.7778C15.3253 23.7742 15.7799 24.6663 16.4926 25.2578H15.1759C14.971 25.2578 14.8048 25.424 14.8048 25.6289C14.8048 25.8339 14.971 26 15.1759 26H18.5475C20.3242 26 21.7697 24.5545 21.7697 22.7778C21.7697 22.3843 21.6987 22.0071 21.569 21.6582H24.2311C24.436 21.6582 24.6022 21.4921 24.6022 21.2871C24.6022 21.0822 24.436 20.9161 24.2311 20.9161H23.2539V17.6647C24.7983 17.4805 26 16.1635 26 14.5703V10.1172C26 8.39836 24.6016 7 22.8828 7ZM10.8681 18.0445C10.785 18.0445 10.7118 17.9945 10.6814 17.9172C10.6478 17.8314 10.6801 17.7637 10.7024 17.731C10.7247 17.6983 10.7759 17.6435 10.8681 17.6435H12.2287L12.3861 18.0445H10.8681ZM10.2222 25.2578C8.85469 25.2578 7.74219 24.1453 7.74219 22.7778C7.74219 21.4103 8.85469 20.2978 10.2222 20.2978C10.5413 20.2978 10.8461 20.359 11.1266 20.4693L9.90084 22.5922C9.83456 22.7071 9.83456 22.8485 9.90084 22.9633C9.96712 23.0782 10.0897 23.1489 10.2222 23.1489H11.4184C11.2599 23.6588 10.7836 24.0302 10.2222 24.0302C10.0173 24.0302 9.85111 24.1963 9.85111 24.4013C9.85111 24.6062 10.0173 24.7723 10.2222 24.7723C11.1952 24.7723 12.0071 24.0719 12.1816 23.1489H12.6744C12.4947 24.341 11.4636 25.2578 10.2222 25.2578ZM10.8649 22.4067L11.7688 20.8412C12.2456 21.2228 12.5793 21.776 12.6744 22.4067H10.8649ZM14.309 22.4067H13.4229C13.3187 21.5023 12.8388 20.7106 12.1433 20.1925L12.8249 19.012L14.309 22.4067ZM18.5475 25.2578C17.18 25.2578 16.0675 24.1453 16.0675 22.7778C16.0675 21.8615 16.5674 21.0602 17.3085 20.6308L18.2019 22.9131C18.2592 23.0595 18.3993 23.149 18.5476 23.149C18.5926 23.149 18.6383 23.1408 18.6828 23.1234C18.8736 23.0486 18.9678 22.8334 18.893 22.6425L17.9993 20.3596C18.1758 20.3196 18.3591 20.2977 18.5475 20.2977C19.915 20.2977 21.0275 21.4103 21.0275 22.7778C21.0275 24.1452 19.915 25.2578 18.5475 25.2578ZM25.2578 14.5703C25.2578 15.7537 24.3878 16.7374 23.2539 16.9161V15.373L24.2428 14.3173C24.3828 14.1677 24.3752 13.9328 24.2256 13.7928C24.0761 13.6527 23.8412 13.6604 23.701 13.8099L23.2539 14.2872V13.0934L24.2428 12.0376C24.3828 11.888 24.3752 11.6532 24.2256 11.5131C24.0761 11.373 23.8412 11.3807 23.701 11.5302L23.2539 12.0077V11.3604C23.2539 11.1554 23.0877 10.9893 22.8828 10.9893C22.6779 10.9893 22.5117 11.1554 22.5117 11.3604V13.0313L22.1297 12.6234C21.9896 12.4739 21.7547 12.4662 21.6051 12.6063C21.4555 12.7464 21.4479 12.9813 21.588 13.1308L22.5117 14.117V16.9161C21.3778 16.7374 20.5078 15.7536 20.5078 14.5703V10.1172C20.5078 8.8076 21.5732 7.74219 22.8828 7.74219C24.1924 7.74219 25.2578 8.8076 25.2578 10.1172V14.5703Z" fill="white"/>
<path d="M25.6279 20.916H25.623C25.4181 20.916 25.252 21.0822 25.252 21.2871C25.252 21.4921 25.4181 21.6582 25.623 21.6582H25.6279C25.8328 21.6582 25.999 21.4921 25.999 21.2871C25.999 21.0822 25.8328 20.916 25.6279 20.916Z" fill="white"/>
<path d="M15.8629 12.1458H15.2472C15.3933 11.849 15.4719 11.5198 15.4719 11.1834C15.4719 9.98159 14.4942 9.00391 13.2925 9.00391C12.3975 9.00391 11.6141 9.54967 11.2822 10.3412C11.0694 10.2388 10.8341 10.1838 10.5934 10.1838C9.71696 10.1838 9.00391 10.8969 9.00391 11.7733C9.00391 12.1277 9.11831 12.4632 9.3347 12.7436C9.40498 12.8346 9.51346 12.888 9.62849 12.888H15.8629C16.0679 12.888 16.234 12.7219 16.234 12.5169C16.234 12.3119 16.0679 12.1458 15.8629 12.1458ZM14.3596 12.1458H9.83211C9.77552 12.0308 9.74609 11.9045 9.74609 11.7733C9.74609 11.3061 10.1262 10.926 10.5934 10.926C10.8329 10.926 11.0624 11.0281 11.223 11.2063C11.3202 11.3142 11.4714 11.3554 11.61 11.3118C11.7485 11.2682 11.8489 11.1478 11.8669 11.0037C11.9561 10.2867 12.5689 9.74606 13.2924 9.74606C14.0849 9.74606 14.7297 10.3908 14.7297 11.1833C14.7297 11.5392 14.5962 11.883 14.3596 12.1458Z" fill="white"/>
</svg>
