<svg width="50" height="50" viewBox="0 0 33 33" fill="none" xmlns="http://www.w3.org/2000/svg">
<rect width="33" height="33" rx="5" fill="#FFAA48"/>
<path d="M23.4062 15.9688H20.9242C20.9832 15.8025 21.0156 15.6237 21.0156 15.4375V9.59375C21.0156 8.71496 20.3007 8 19.4219 8H13.5781C12.6993 8 11.9844 8.71496 11.9844 9.59375V15.4375C11.9844 15.6237 12.0168 15.8025 12.0757 15.9688H9.59375C8.71496 15.9688 8 16.6837 8 17.5625V23.4062C8 24.285 8.71496 25 9.59375 25H15.4375C15.8454 25 16.2178 24.8458 16.5 24.5929C16.7822 24.8458 17.1546 25 17.5625 25H23.4062C24.2851 25 25 24.285 25 23.4062V17.5625C25 16.6837 24.2851 15.9688 23.4062 15.9688ZM13.0469 15.4375V9.59375C13.0469 9.30083 13.2852 9.0625 13.5781 9.0625H19.4219C19.7148 9.0625 19.9531 9.30083 19.9531 9.59375V15.4375C19.9531 15.7304 19.7148 15.9688 19.4219 15.9688C18.887 15.9688 14.2929 15.9688 13.5781 15.9688C13.2852 15.9688 13.0469 15.7304 13.0469 15.4375ZM15.4375 23.9375H9.59375C9.30083 23.9375 9.0625 23.6992 9.0625 23.4062V17.5625C9.0625 17.2696 9.30083 17.0312 9.59375 17.0312H15.4375C15.7304 17.0312 15.9688 17.2696 15.9688 17.5625V23.4062C15.9688 23.6992 15.7304 23.9375 15.4375 23.9375ZM23.9375 23.4062C23.9375 23.6992 23.6992 23.9375 23.4062 23.9375H17.5625C17.2696 23.9375 17.0312 23.6992 17.0312 23.4062V17.5625C17.0312 17.2696 17.2696 17.0312 17.5625 17.0312H23.4062C23.6992 17.0312 23.9375 17.2696 23.9375 17.5625V23.4062Z" fill="white"/>
<path d="M20.6172 18.3594H19.5547C19.2613 18.3594 19.0234 18.5972 19.0234 18.8906C19.0234 19.184 19.2613 19.4219 19.5547 19.4219H20.6172C20.7636 19.4219 20.8828 19.541 20.8828 19.6875C20.8828 19.834 20.7636 19.9531 20.6172 19.9531H20.0859C19.7925 19.9531 19.5547 20.191 19.5547 20.4844C19.5547 20.7778 19.7925 21.0156 20.0859 21.0156H20.6172C20.7636 21.0156 20.8828 21.1348 20.8828 21.2813C20.8828 21.4277 20.7636 21.5469 20.6172 21.5469H19.5547C19.2613 21.5469 19.0234 21.7847 19.0234 22.0781C19.0234 22.3715 19.2613 22.6094 19.5547 22.6094H20.6172C21.7151 22.6094 22.3306 21.3504 21.679 20.4844C22.3314 19.6172 21.7141 18.3594 20.6172 18.3594Z" fill="white"/>
<path d="M13.9766 19.8203C13.9766 19.0147 13.3212 18.3594 12.5156 18.3594C11.7101 18.3594 11.0547 19.0147 11.0547 19.8203C11.0547 20.1137 11.2926 20.3516 11.5859 20.3516C11.8793 20.3516 12.1172 20.1137 12.1172 19.8203C12.1172 19.6006 12.2959 19.4219 12.5156 19.4219C12.7353 19.4219 12.9141 19.6006 12.9141 19.8203C12.9141 20.065 12.7952 20.2959 12.5962 20.4381L11.2771 21.3802C11.1375 21.4799 11.0547 21.6409 11.0547 21.8125V22.0781C11.0547 22.3715 11.2926 22.6094 11.5859 22.6094H13.4453C13.7387 22.6094 13.9766 22.3715 13.9766 22.0781C13.9766 21.7847 13.7387 21.5469 13.4453 21.5469H12.8718L13.2138 21.3026C13.6914 20.9615 13.9766 20.4073 13.9766 19.8203Z" fill="white"/>
<path d="M16.2344 11.4531V14.1094C16.2344 14.4028 16.4722 14.6406 16.7656 14.6406C17.059 14.6406 17.2969 14.4028 17.2969 14.1094V10.9219C17.2969 10.6285 17.059 10.3906 16.7656 10.3906H16.2344C15.941 10.3906 15.7031 10.6285 15.7031 10.9219C15.7031 11.2153 15.941 11.4531 16.2344 11.4531Z" fill="white"/>
</svg>
