<svg width="50" height="50" viewBox="0 0 33 33" fill="none" xmlns="http://www.w3.org/2000/svg">
<rect width="33" height="33" rx="5" fill="#FF454C"/>
<path d="M13.9131 20.6702C13.8856 20.6625 13.8575 20.6582 13.8291 20.6567C14.2459 20.2276 14.5025 19.648 14.5025 19.0105V17.0499C14.5025 17.0319 14.5007 17.0145 14.4983 16.9972C14.5008 16.9618 14.5025 16.9262 14.5025 16.8902V15.6498C14.5025 15.4439 14.3322 15.2771 14.1221 15.2771H11.5704C10.4959 15.2771 9.62176 16.1334 9.62176 17.186V19.0105C9.62176 19.648 9.87836 20.2276 10.2951 20.6567C10.2668 20.6582 10.2387 20.6625 10.2112 20.6702C8.4134 20.8296 7 22.314 7 24.1159V25.7081C7 25.9139 7.17032 26.0807 7.38043 26.0807H16.7438C16.9539 26.0807 17.1242 25.9139 17.1242 25.7081V24.1159C17.1242 22.314 15.7109 20.8297 13.9131 20.6702ZM10.3826 17.6586V17.186C10.3826 16.5444 10.9155 16.0224 11.5704 16.0224H13.7416V16.8902C13.7416 17.3271 13.3788 17.6825 12.9329 17.6825H10.3826V17.6586ZM10.3826 18.4278H12.9329C13.2285 18.4278 13.5053 18.3472 13.7416 18.2074V19.0105C13.7416 19.9176 12.9882 20.6557 12.0621 20.6557C11.1361 20.6557 10.3826 19.9176 10.3826 19.0105V18.4278ZM12.8901 21.4011L12.0621 22.2122L11.2341 21.4011H12.8901ZM16.3634 25.3354H7.76086V24.5901H9.33963C9.54974 24.5901 9.72006 24.4232 9.72006 24.2174C9.72006 24.0116 9.54974 23.8448 9.33963 23.8448H7.77474C7.90253 22.5883 8.90865 21.5821 10.1811 21.4236L11.7931 23.0027C11.8645 23.0726 11.9612 23.1118 12.0621 23.1118C12.163 23.1118 12.2598 23.0726 12.3311 23.0027L13.9431 21.4236C15.306 21.5933 16.3634 22.7355 16.3634 24.1159V25.3354Z" fill="white"/>
<path d="M23.2658 12.3931C23.2383 12.3854 23.2101 12.3811 23.1817 12.3796C23.5984 11.9506 23.855 11.371 23.855 10.7334V8.77276C23.855 8.75484 23.8533 8.73736 23.8508 8.72014C23.8533 8.68474 23.855 8.64911 23.855 8.61311V7.37266C23.855 7.16684 23.6847 7 23.4746 7H20.923C19.8484 7 18.9743 7.85635 18.9743 8.9089V10.7334C18.9743 11.3709 19.2309 11.9505 19.6476 12.3796C19.6193 12.3811 19.591 12.3854 19.5635 12.3931C17.7658 12.5526 16.3525 14.037 16.3525 15.8388V17.4309C16.3525 17.6368 16.5229 17.8036 16.733 17.8036H19.7939C20.004 17.8036 20.1743 17.6368 20.1743 17.4309C20.1743 17.2251 20.004 17.0583 19.7939 17.0583H17.1134V15.8389C17.1134 14.4585 18.1708 13.3162 19.5336 13.1465L21.1456 14.7256C21.2199 14.7984 21.3173 14.8348 21.4146 14.8348C21.512 14.8348 21.6094 14.7984 21.6836 14.7256L23.2956 13.1465C24.6585 13.3162 25.7159 14.4585 25.7159 15.8389V17.0583H22.9134C22.7033 17.0583 22.533 17.2252 22.533 17.431C22.533 17.6368 22.7033 17.8036 22.9134 17.8036H26.0964C26.3065 17.8036 26.4768 17.6368 26.4768 17.431V15.8389C26.4768 14.037 25.0635 12.5527 23.2658 12.3931ZM21.4147 13.9351L20.5867 13.124H22.2427L21.4147 13.9351ZM23.0942 10.7334C23.0942 11.6406 22.3408 12.3786 21.4147 12.3786C20.4886 12.3786 19.7352 11.6406 19.7352 10.7334V10.1507H22.2854C22.5811 10.1507 22.8579 10.0701 23.0942 9.93033V10.7334ZM23.0942 8.61311C23.0942 9.04999 22.7314 9.4054 22.2854 9.4054H19.7352V9.38151V8.9089C19.7352 8.26732 20.2681 7.74533 20.923 7.74533H23.0942V8.61311Z" fill="white"/>
<path d="M21.6845 17.1673C21.6138 17.098 21.5156 17.0581 21.4156 17.0581C21.3152 17.0581 21.2174 17.098 21.1466 17.1673C21.0755 17.2366 21.0352 17.3328 21.0352 17.4308C21.0352 17.5292 21.0755 17.6249 21.1466 17.6942C21.2174 17.7639 21.3152 17.8034 21.4156 17.8034C21.5156 17.8034 21.6138 17.7639 21.6845 17.6942C21.7553 17.6249 21.796 17.5292 21.796 17.4308C21.796 17.3328 21.7553 17.2366 21.6845 17.1673Z" fill="white"/>
<path d="M17.1728 12.2147L15.5818 10.6561V8.86332C15.5818 7.83589 14.7285 7 13.6797 7H8.90214C7.8533 7 7 7.83589 7 8.86332V12.1428C7 13.1702 7.8533 14.0061 8.90214 14.0061H13.6797C14.4662 14.0061 15.152 13.5437 15.4398 12.8508H16.9038C17.0576 12.8508 17.1964 12.76 17.2553 12.6208C17.3142 12.4816 17.2816 12.3212 17.1728 12.2147ZM15.1622 12.1055C14.985 12.1055 14.8312 12.2254 14.7915 12.3946C14.6717 12.9046 14.2146 13.2608 13.6797 13.2608H8.90214C8.27284 13.2608 7.76086 12.7592 7.76086 12.1428V8.86332C7.76086 8.24686 8.27284 7.74533 8.90214 7.74533H13.6797C14.309 7.74533 14.821 8.24686 14.821 8.86332V10.8105C14.821 10.9093 14.8611 11.0041 14.9324 11.074L15.9854 12.1055H15.1622Z" fill="white"/>
<path d="M24.5764 19.0743H19.7989C19.0124 19.0743 18.3266 19.5367 18.0388 20.2296H16.5748C16.4209 20.2296 16.2822 20.3204 16.2233 20.4596C16.1644 20.5989 16.197 20.7592 16.3057 20.8658L17.8967 22.4243V24.2171C17.8967 25.2445 18.75 26.0804 19.7989 26.0804H24.5764C25.6253 26.0804 26.4786 25.2445 26.4786 24.2171V20.9377C26.4786 19.9102 25.6253 19.0743 24.5764 19.0743ZM25.7177 24.2171C25.7177 24.8336 25.2057 25.3351 24.5764 25.3351H19.7989C19.1696 25.3351 18.6576 24.8336 18.6576 24.2171V22.2699C18.6576 22.1711 18.6175 22.0763 18.5462 22.0064L17.4932 20.9749H18.3163C18.4936 20.9749 18.6474 20.855 18.6871 20.6858C18.8069 20.1759 19.264 19.8197 19.7989 19.8197H24.5764C25.2057 19.8197 25.7177 20.3212 25.7177 20.9377V24.2171Z" fill="white"/>
<path d="M23.8965 21.5856C23.748 21.4401 23.5071 21.4401 23.3585 21.5856L22.3472 22.5762L21.877 22.1156C21.7284 21.9701 21.4876 21.9701 21.339 22.1156C21.1904 22.2611 21.1904 22.4971 21.339 22.6426L22.0782 23.3668C22.1525 23.4396 22.2499 23.476 22.3472 23.476C22.4446 23.476 22.5419 23.4396 22.6162 23.3668L23.8965 22.1126C24.0451 21.9671 24.0451 21.7311 23.8965 21.5856Z" fill="white"/>
<path d="M13.0196 9.47001C12.9746 8.831 12.4488 8.31591 11.7965 8.27186C11.4266 8.24693 11.074 8.36916 10.8039 8.61616C10.5375 8.8597 10.3848 9.20404 10.3848 9.56083C10.3848 9.76669 10.5551 9.93353 10.7652 9.93353C10.9753 9.93353 11.1457 9.76669 11.1457 9.56087C11.1457 9.40766 11.2087 9.26568 11.3231 9.16104C11.4373 9.05654 11.587 9.00467 11.7442 9.01547C12.0196 9.03407 12.2416 9.25152 12.2605 9.52129C12.2798 9.79404 12.0972 10.0351 11.8266 10.0944C11.5303 10.1593 11.3234 10.4117 11.3234 10.708V10.9068C11.3234 11.1126 11.4937 11.2795 11.7038 11.2795C11.9139 11.2795 12.0842 11.1126 12.0842 10.9068V10.7984C12.6737 10.6261 13.0626 10.0818 13.0196 9.47001Z" fill="white"/>
<path d="M11.9746 12.0688C11.9038 11.9995 11.8057 11.9596 11.7056 11.9596C11.6052 11.9596 11.5074 11.9995 11.4367 12.0688C11.3655 12.1381 11.3252 12.2342 11.3252 12.3323C11.3252 12.4303 11.3655 12.5264 11.4367 12.5957C11.5074 12.665 11.6052 12.7049 11.7056 12.7049C11.8057 12.7049 11.9038 12.665 11.9746 12.5957C12.0453 12.5264 12.0861 12.4303 12.0861 12.3323C12.0861 12.2342 12.0453 12.1381 11.9746 12.0688Z" fill="white"/>
<path d="M11.1299 23.9537C11.0591 23.8844 10.9609 23.8445 10.8609 23.8445C10.7608 23.8445 10.6627 23.8844 10.5919 23.9537C10.5212 24.023 10.4805 24.1191 10.4805 24.2171C10.4805 24.3152 10.5212 24.4113 10.5919 24.4806C10.6627 24.5499 10.7608 24.5898 10.8609 24.5898C10.9609 24.5898 11.0591 24.5499 11.1299 24.4806C11.2006 24.4113 11.2413 24.3152 11.2413 24.2171C11.2413 24.1191 11.2006 24.023 11.1299 23.9537Z" fill="white"/>
</svg>
