<svg width="50" height="50" viewBox="0 0 33 33" fill="none" xmlns="http://www.w3.org/2000/svg">
<rect width="33" height="33" rx="5" fill="#8BC728"/>
<path d="M16.4999 6.42004C15.2937 6.42004 14.1143 6.63088 12.9938 7.04668L13.2861 7.83418C14.3126 7.45324 15.3941 7.26004 16.4999 7.26004C21.5949 7.26004 25.7399 11.405 25.7399 16.5C25.7399 21.5951 21.5949 25.74 16.4999 25.74C11.4049 25.74 7.25992 21.5951 7.25992 16.5C7.25992 13.7301 8.50438 11.1261 10.6199 9.37768V12.3H11.4599V8.10004H7.25992V8.94004H9.83284C7.67698 10.8426 6.41992 13.5886 6.41992 16.5C6.41992 22.0579 10.9421 26.58 16.4999 26.58C22.0578 26.58 26.5799 22.0579 26.5799 16.5C26.5799 10.9422 22.0578 6.42004 16.4999 6.42004Z" fill="white"/>
<path d="M13.9796 19.86H13.1396V20.7H19.8596V19.86H19.0196V18.4262L17.0935 16.5L19.0196 14.5739V13.14H19.8596V12.3H13.1396V13.14H13.9796V14.5739L15.9058 16.5L13.9796 18.4262V19.86ZM14.8196 14.2262V13.14H18.1796V14.2262L16.4996 15.9062L14.8196 14.2262ZM16.4996 17.0939L18.1796 18.7739V19.86H14.8196V18.7739L16.4996 17.0939Z" fill="white"/>
<path d="M14.8195 22.38H13.9795V23.22H14.8195V22.38Z" fill="white"/>
<path d="M16.9201 22.38H16.0801V23.22H16.9201V22.38Z" fill="white"/>
<path d="M19.0197 22.38H18.1797V23.22H19.0197V22.38Z" fill="white"/>
</svg>
