<svg width="50" height="50" viewBox="0 0 33 33" fill="none" xmlns="http://www.w3.org/2000/svg">
<rect width="33" height="33" rx="5" fill="#FE5153"/>
<path d="M26.159 23.7097L20.9157 14.6278C20.8449 14.5051 20.7311 14.4226 20.6046 14.3882C19.661 12.6272 17.8471 11.4062 15.7416 11.2893V8.03259C15.7416 7.74762 15.511 7.51697 15.226 7.51697H6.28711C6.00214 7.51697 5.77148 7.74762 5.77148 8.03259V16.9711C5.77148 17.2558 6.00214 17.4868 6.28711 17.4868H9.54414C9.7112 20.4987 12.147 22.908 15.1696 23.0332L14.7791 23.7097C14.687 23.8692 14.687 24.0658 14.7791 24.2253C14.8712 24.3848 15.0414 24.4831 15.2256 24.4831H25.7124C25.8967 24.4831 26.0668 24.3848 26.159 24.2253C26.2511 24.0658 26.2511 23.8692 26.159 23.7097ZM6.80273 8.54822H14.71V16.4555H6.80273V8.54822ZM10.5754 17.4868H15.226C15.511 17.4868 15.7416 17.2558 15.7416 16.9711V12.3205C18.2661 12.4903 20.2691 14.5924 20.2691 17.1592C20.2691 19.8363 18.0911 22.0143 15.4137 22.0143C12.8472 22.0143 10.7449 20.0113 10.5754 17.4868ZM16.1187 23.4518L16.405 22.9555C19.1214 22.4921 21.2045 20.1663 21.2915 17.3407L24.8197 23.4518H16.1187Z" fill="white"/>
</svg>
