<svg width="28" height="18" viewBox="0 0 28 18" fill="none" xmlns="http://www.w3.org/2000/svg">
<path d="M27.4697 8.51104C27.1865 7.72099 25.4165 7.32596 25.4165 7.32596C25.0979 7.03867 25.4519 6.71547 25.4519 6.71547C25.5935 6.5 25.8767 6.17679 25.8767 6.17679C25.4165 6.39226 24.8855 6.35635 24.8855 6.35635C24.7439 6.24862 24.9563 6.2127 24.9563 6.2127C26.2307 5.63812 26.0537 4.16574 26.0537 4.16574C25.6289 4.52486 24.9209 4.41712 24.9209 4.41712C24.4254 4.3453 24.4254 3.91436 24.4254 3.91436C24.4961 3.4116 25.1687 3.23204 25.1687 3.23204C24.4254 2.19061 22.2306 2.51381 22.2306 2.51381C22.6908 0.969613 21.9828 0.0359116 21.9828 0.0359116C19.5403 2.44199 15.3278 2.62155 15.3278 2.62155C15.2216 2.62155 14.9738 2.40608 14.9738 2.40608C14.5491 1.93923 14.7969 0.969613 14.7969 0.969613C14.4429 1.18508 14.1243 2.08287 14.1243 2.08287C13.9119 2.37016 13.8411 1.93923 13.8411 1.93923C13.6995 0.825966 12.9915 0.359116 12.9915 0.359116C13.1685 0.969613 12.8853 1.93923 12.8853 1.93923C12.7437 2.22652 12.5667 2.11878 12.5667 2.11878C12.0711 1.8674 12.2127 1.14917 12.2127 1.14917C11.2924 1.65193 11.2924 2.51381 11.2924 2.51381C7.68168 2.29834 5.41615 0 5.41615 0C4.92057 1.14917 5.23916 2.26243 5.23916 2.26243C4.63738 1.83149 3.8232 1.93923 3.8232 1.93923C4.53118 2.62155 3.71701 2.76519 3.71701 2.76519C2.15946 2.69337 1.77007 3.48342 1.77007 3.48342C2.05326 3.59116 2.30105 3.98619 2.30105 3.98619C2.54884 4.63259 2.15946 4.81215 2.15946 4.81215C1.59307 5.09944 0.991294 4.16574 0.991294 4.16574C0.885097 6.10497 2.12406 6.39226 2.12406 6.39226C1.91166 6.64364 0.920496 6.5 0.920496 6.5C1.80547 6.93094 1.73467 7.32596 1.73467 7.32596C1.62847 7.72099 0.991294 7.68508 0.991294 7.68508C0.495709 7.7569 0.141721 8.08011 0.141721 8.08011C1.30988 8.43922 1.27448 9.3011 1.27448 9.3011C0.637305 9.9116 0.0709229 9.19337 0.0709229 9.19337C0.318715 10.6657 1.59307 10.8094 1.59307 10.8094C1.94706 11.0249 1.69927 11.1685 1.69927 11.1685C1.55768 11.3481 1.06209 11.8508 1.06209 11.8508C0.743501 12.1381 0.743501 12.9282 0.743501 12.9282C0.991294 12.6409 1.91166 12.4254 1.91166 12.4254C2.79664 12.3895 2.58424 13.1796 2.58424 13.1796C2.58424 13.5387 1.87627 14.2569 1.87627 14.2569C2.37185 14.5442 3.57541 14.5442 3.57541 14.5442C4.17719 14.5442 4.14179 14.7956 4.14179 14.7956C4.17719 15.3342 3.61081 16.0166 3.61081 16.0166C4.0002 15.6575 5.30996 15.3702 5.30996 15.3702C5.98254 15.2983 5.77014 15.6575 5.80554 15.6575C5.66394 16.5193 5.98253 17.2735 6.01793 17.3812C6.30113 16.4834 6.9383 16.1602 7.0091 16.1243C7.50469 15.9447 7.43389 16.3757 7.43389 16.4475C7.57548 16.5552 8.24806 16.9862 9.27463 16.6989C9.84101 16.5552 10.5136 16.3039 11.1154 15.837C11.434 15.6215 11.8233 15.2624 12.2127 14.7237C12.3897 14.4724 12.6021 14.1851 12.7791 13.826H12.8145C13.1685 13.2155 13.4517 12.4613 13.6641 11.5276C13.6641 11.5276 13.8765 12.6409 14.4075 13.826H14.5491C14.5491 13.826 15.3986 15.4779 16.6022 16.1961C17.9474 17.0221 18.5137 17.2735 19.6819 17.1298C19.8589 17.0939 19.9651 17.0939 20.0005 17.058C19.9651 17.0221 19.9651 16.9862 19.9297 16.9503C20.2837 16.4116 20.6023 16.663 20.6023 16.663C20.7793 16.8066 20.7439 17.0939 20.7439 17.0939C21.5934 16.7348 21.735 15.6575 21.735 15.6575C21.9828 15.1906 22.3368 15.4779 22.3368 15.4779C22.7262 15.6575 22.8678 16.2679 22.8678 16.2679C23.1864 15.442 22.974 14.616 22.974 14.616C22.9032 14.2928 23.1156 14.4005 23.1156 14.4005C24.6377 14.7238 25.0625 14.3287 25.0625 14.3287C24.5315 14.0773 24.4607 13.2873 24.4607 13.2873C24.4961 12.6768 25.0625 12.8204 25.0625 12.8204C25.6289 12.9282 25.9475 13.3232 25.9475 13.3232C26.0537 12.3536 25.2749 11.5635 25.2749 11.5635C25.1687 11.2403 25.3811 11.0967 25.3811 11.0967C26.8325 10.558 26.8325 9.73204 26.8325 9.73204C25.9829 9.9116 25.8059 9.19337 25.8059 9.19337C26.3015 8.15193 27.4697 8.51104 27.4697 8.51104Z" fill="#225054"/>
<path d="M13.7346 10.0542C12.9204 10.3415 12.1062 11.9216 12.1062 11.9216C12.2124 13.4299 13.6992 14.7945 13.7346 14.8304C13.77 14.7945 15.1859 13.4299 15.2921 11.9216C15.2921 11.9216 14.5133 10.3415 13.7346 10.0542Z" fill="#225054"/>
<path d="M12.142 12.2455C12.142 12.2455 12.9207 10.809 13.6995 10.5576V14.867C13.7349 14.867 12.2482 13.646 12.142 12.2455Z" fill="#FAB84A"/>
<path d="M15.2211 12.2455C15.2211 12.2455 14.4777 10.809 13.699 10.5576V14.867C13.699 14.867 15.1149 13.6101 15.2211 12.2455Z" fill="#E9934C"/>
<path d="M7.54044 14.0414C10.1993 14.0414 12.3547 11.8548 12.3547 9.15741C12.3547 6.46007 10.1993 4.27344 7.54044 4.27344C4.8816 4.27344 2.7262 6.46007 2.7262 9.15741C2.7262 11.8548 4.8816 14.0414 7.54044 14.0414Z" fill="#225054"/>
<path d="M7.8228 14.076C10.2275 14.076 12.1768 11.9859 12.1768 9.40752C12.1768 6.82917 10.2275 4.73901 7.8228 4.73901C5.41812 4.73901 3.46875 6.82917 3.46875 9.40752C3.46875 11.9859 5.41812 14.076 7.8228 14.076Z" fill="white"/>
<path d="M19.9298 14.0414C22.5887 14.0414 24.7441 11.8548 24.7441 9.15741C24.7441 6.46007 22.5887 4.27344 19.9298 4.27344C17.271 4.27344 15.1156 6.46007 15.1156 9.15741C15.1156 11.8548 17.271 14.0414 19.9298 14.0414Z" fill="#225054"/>
<path d="M19.6109 14.076C22.0156 14.076 23.965 11.9859 23.965 9.40752C23.965 6.82917 22.0156 4.73901 19.6109 4.73901C17.2062 4.73901 15.2568 6.82917 15.2568 9.40752C15.2568 11.9859 17.2062 14.076 19.6109 14.076Z" fill="white"/>
<path d="M8.81385 12.3178C10.2215 12.3178 11.3626 11.1601 11.3626 9.73212C11.3626 8.30411 10.2215 7.14648 8.81385 7.14648C7.40624 7.14648 6.26514 8.30411 6.26514 9.73212C6.26514 11.1601 7.40624 12.3178 8.81385 12.3178Z" fill="#FAB84A"/>
<path d="M8.81387 11.6355C9.86958 11.6355 10.7254 10.7673 10.7254 9.6963C10.7254 8.6253 9.86958 7.75708 8.81387 7.75708C7.75816 7.75708 6.90234 8.6253 6.90234 9.6963C6.90234 10.7673 7.75816 11.6355 8.81387 11.6355Z" fill="#201E1E"/>
<path d="M7.75168 9.08501C8.08403 9.08501 8.35346 8.81168 8.35346 8.47451C8.35346 8.13734 8.08403 7.86401 7.75168 7.86401C7.41933 7.86401 7.1499 8.13734 7.1499 8.47451C7.1499 8.81168 7.41933 9.08501 7.75168 9.08501Z" fill="white"/>
<path d="M18.7609 12.3178C20.1685 12.3178 21.3096 11.1601 21.3096 9.73212C21.3096 8.30411 20.1685 7.14648 18.7609 7.14648C17.3533 7.14648 16.2122 8.30411 16.2122 9.73212C16.2122 11.1601 17.3533 12.3178 18.7609 12.3178Z" fill="#FAB84A"/>
<path d="M18.7967 11.67C19.8524 11.67 20.7082 10.8017 20.7082 9.73073C20.7082 8.65973 19.8524 7.7915 18.7967 7.7915C17.741 7.7915 16.8851 8.65973 16.8851 9.73073C16.8851 10.8017 17.741 11.67 18.7967 11.67Z" fill="#201E1E"/>
<path d="M17.7347 9.08501C18.0671 9.08501 18.3365 8.81168 18.3365 8.47451C18.3365 8.13734 18.0671 7.86401 17.7347 7.86401C17.4024 7.86401 17.1329 8.13734 17.1329 8.47451C17.1329 8.81168 17.4024 9.08501 17.7347 9.08501Z" fill="white"/>
<path d="M9.48689 16.6271C9.48689 16.6271 8.53112 16.9862 7.39836 16.3757C7.39836 16.3757 6.54879 16.0166 6.0532 17.5249C6.01781 17.5249 5.45142 17.0221 5.66382 15.8011C5.66382 15.8011 5.80541 15.4779 5.16823 15.5497C5.16823 15.5497 3.64608 16.0525 3.43369 16.3398C3.43369 16.3398 4.00007 15.4779 3.96467 14.9033C3.96467 14.9033 3.96467 14.6878 3.39829 14.7237C3.39829 14.7237 2.19473 14.7237 1.69915 14.3646C1.76994 14.3646 2.40712 13.79 2.47792 13.2873C2.47792 13.2873 2.61952 12.5331 1.94694 12.5691C1.94694 12.5691 1.13276 12.5691 0.637179 13.0718C0.637179 13.0718 0.460185 12.0663 1.55755 11.2403C1.55755 11.2403 1.80534 11.0967 1.52215 10.953C1.52215 10.953 0.283191 10.558 0 9.08563C0 9.08563 0.495584 9.73204 0.991168 9.48066C0.991168 9.48066 1.09736 9.44475 1.13276 9.3011C1.13276 9.3011 1.09736 8.43922 0 8.08011C0 8.08011 0.353989 7.68508 1.16816 7.61325C1.16816 7.61325 1.73454 7.4337 1.45135 7.03867C1.45135 7.03867 1.06197 6.60773 0.814174 6.46408C0.814174 6.46408 1.69915 6.5 1.98234 6.32044C1.94694 6.32044 0.743376 6.17679 0.955769 4.09392C0.955769 4.09392 1.84074 5.38674 2.23013 4.48895C2.19473 4.41712 2.37172 3.87845 1.59295 3.44751C1.59295 3.44751 2.08853 2.65746 3.57528 2.62155C3.57528 2.62155 4.28326 2.44199 3.68148 1.83149C3.68148 1.83149 4.67265 1.65193 5.09743 2.08287C5.09743 2.04696 4.92044 1.18508 5.38063 0C5.38063 0 5.23903 2.15469 5.55762 2.98066C5.52222 2.94475 5.02664 2.26243 4.38946 2.01105C4.38946 2.01105 4.70805 3.12431 3.57528 3.16022C3.57528 3.16022 2.65491 2.98066 2.23013 3.33978C2.23013 3.33978 2.90271 4.59668 2.37172 5.13536C2.37172 5.13536 1.87614 5.56629 1.27436 4.9558C1.27436 4.9558 1.20356 5.96132 2.51332 6.24861C2.51332 6.24861 2.30093 6.78729 1.62835 6.78729C1.62835 6.78729 2.19473 7.32596 1.76994 7.7569C1.76994 7.7569 1.34516 8.11602 0.814174 8.11602C0.814174 8.11602 1.73454 8.65469 1.62835 9.51657C1.62835 9.51657 1.34516 10.1989 0.566382 9.94751C0.566382 9.94751 1.06197 10.3784 1.87614 10.6657C1.87614 10.6657 2.37172 10.9889 2.15933 11.3481C2.15933 11.3481 1.38056 11.6354 1.16816 12.4254C1.16816 12.4254 2.30093 11.8508 2.83191 12.2818C2.83191 12.2818 3.1859 13.3232 2.33632 14.1851C2.33632 14.1851 4.00007 14.4724 4.67265 14.3646C4.67265 14.3646 4.46026 15.2983 4.28326 15.5497C4.38946 15.5138 5.62842 14.9751 6.40719 15.1547C6.40719 15.1547 5.84081 16.2679 5.91161 16.663C5.91161 16.663 6.90278 15.6215 7.71695 15.7652C7.75235 15.7293 7.46916 16.3757 9.48689 16.6271Z" fill="#173C3F"/>
<path d="M17.877 16.8066C17.877 16.8066 18.5849 17.4171 20.1071 17.058C20.1071 17.058 20.3195 16.9862 20.4611 16.8784C20.4611 16.8784 20.7443 16.6271 20.7443 17.1298C20.7443 17.1298 21.7708 16.9144 21.9124 15.8011C21.9124 15.8011 21.9832 15.3702 22.4434 15.6934C22.4434 15.6934 22.6912 15.9088 22.8328 16.4834C22.8328 16.4834 23.3992 15.5497 23.116 14.6519C23.116 14.6519 23.116 14.4724 23.293 14.5083C23.293 14.5083 24.6027 14.9033 25.2045 14.3646C25.2045 14.3646 24.4965 13.9696 24.6735 13.0359C24.6735 13.0359 24.8151 12.7486 25.3461 12.9282C25.3461 12.9282 25.9125 13.1436 25.9833 13.4309C25.9833 13.4309 26.1957 12.3536 25.3815 11.5635C25.3815 11.5635 25.1691 11.3121 25.5231 11.1326C25.5231 11.1326 26.7267 10.6298 26.9037 9.69613C26.9037 9.69613 26.1603 10.0193 25.8771 9.22927C25.8771 9.22927 26.2665 8.22375 27.47 8.54696C27.47 8.54696 27.116 7.64917 25.4523 7.32596C25.4523 7.32596 25.1337 7.21823 25.4523 6.75138L25.9833 6.06906C25.9833 6.06906 25.2399 6.46408 24.8859 6.28453C24.8859 6.28453 24.7797 6.24861 24.9567 6.17679C24.9567 6.17679 26.1603 5.63812 26.0187 4.0221C26.0187 4.0221 24.9567 4.81215 24.4611 4.05801C24.4611 4.05801 24.2841 3.59116 25.2753 3.16022C25.2753 3.16022 24.8151 2.15469 22.3018 2.44199C22.3018 2.44199 22.7266 1.04144 21.9124 0C21.9124 0 22.585 2.22652 21.7354 3.01657C21.7354 3.01657 23.3284 2.33425 24.8859 3.0884C24.8859 3.0884 23.9302 3.0884 24.2487 4.30939C24.2487 4.30939 24.6027 4.88397 25.7355 4.63259C25.7355 4.63259 25.1337 5.85359 24.4257 6.28453C24.4257 6.28453 24.9567 6.60773 25.3107 6.57182C25.2753 6.64364 24.8505 7.32596 24.7089 7.39779C24.7089 7.39779 25.8063 7.54143 26.5497 8.15193C26.5497 8.15193 25.8417 8.33149 25.5231 9.3011C25.5231 9.3011 25.9125 10.0193 26.3019 10.1271C26.3019 10.0912 25.4877 10.9171 24.8151 11.1326C24.8505 11.2044 25.5939 12.4254 25.7355 12.8923C25.7355 12.8923 25.1337 12.3536 24.3903 12.7845C24.3903 12.7845 24.1071 13.6464 24.4611 14.2928C24.4611 14.2928 23.5054 14.4005 22.7974 14.1133C22.7974 14.1133 22.8682 15.4061 22.762 15.7293C22.762 15.7293 22.1602 15.1906 21.5938 15.2624C21.5938 15.2624 21.4876 16.4116 21.0628 16.5552C21.0628 16.5552 20.8151 16.232 20.4965 16.1243C20.6735 16.1243 19.5761 17.2376 17.877 16.8066Z" fill="#173C3F"/>
</svg>
