<svg width="348" height="58" viewBox="0 0 348 58" fill="none" xmlns="http://www.w3.org/2000/svg">
<path d="M17.9921 16.9143C15.8434 16.8964 13.5348 17.1471 11.5104 17.9354C11.5104 17.9354 1.12195 21.9844 0.180783 33.4145C0.180783 33.4145 -1.09792 42.8738 3.14621 49.0189C3.14621 49.0189 6.41393 54.5549 13.375 56.1494C13.375 56.1494 27.67 60.2877 35.1638 47.2273C35.1638 47.2273 35.8033 46.0627 35.0042 45.1131L30.6001 42.408C30.6001 42.408 29.375 41.8707 28.4338 43.2502C28.4338 43.2502 26.4272 47.0303 23.0177 48.1948C23.0177 48.1948 18.2405 49.9505 14.2983 48.1948C14.2983 48.1948 9.00616 46.439 8.24257 37.8216H34.9154C34.9154 37.8216 36.2291 37.9292 36.4422 36.3706C36.4422 36.3706 37.3483 22.0559 25.6813 17.9532C25.6281 17.9353 22.0941 16.9323 17.9921 16.9143ZM18.5955 24.1341C21.7209 24.0983 23.728 25.1912 23.728 25.1912C28.1852 27.3231 28.0787 32.2321 28.0787 32.2321H8.70456C10.214 26.535 13.3396 25.2451 13.3396 25.2451C15.2752 24.4389 17.0684 24.152 18.5955 24.1341Z" fill="#0C5257"/>
<path d="M69.6306 0C69.6306 0 68.6004 0.0538166 68.3695 1.4154V24.0964C68.3695 24.0964 66.5407 19.4384 61.9947 17.8081C61.9947 17.8081 56.1169 15.7835 50.8961 17.8438C50.8961 17.8438 44.414 19.6712 41.4129 30.116C41.4129 30.116 39.7974 35.3474 41.218 43.069C41.218 43.069 42.4432 50.8622 49.866 55.2873C49.866 55.2873 55.1575 58.5121 62.9 55.2873C62.9 55.2873 66.2739 53.9616 68.4049 50.4501V53.6927C68.4049 53.6927 68.3337 54.9289 69.5945 55.126H75.1175C75.1175 55.126 76.378 54.9291 76.3425 53.5675V1.46893C76.3425 1.46893 76.3431 0.32248 74.958 0H69.6306ZM58.7269 24.3113C64.3383 24.3113 68.8842 29.9906 68.8842 37.0134C68.8842 44.0363 64.3383 49.7156 58.7269 49.7156C53.1154 49.7156 48.5695 44.0363 48.5695 37.0134C48.5695 29.9906 53.1154 24.3113 58.7269 24.3113Z" fill="#0C5257"/>
<path d="M83.8046 18.1477H88.9016C88.9016 18.1477 90.1978 17.9866 90.3576 19.6527L90.4111 41.2588C90.4111 41.2588 90.5172 47.404 95.667 48.7476C95.667 48.7476 99.5736 49.733 102.983 48.7476C102.983 48.7476 108.258 47.5653 108.293 41.2052V19.6887C108.293 19.6887 108.133 18.2015 109.625 18.1477H114.792C114.792 18.1477 116.319 18.0045 116.39 19.4735V38.7688C116.39 38.7688 116.426 50.4316 109.501 54.3193C109.501 54.3193 100.337 59.676 89.0612 54.3193C89.0612 54.3193 83.4139 52.0082 82.4727 40.5243V19.5096C82.455 19.5096 82.4727 18.2015 83.8046 18.1477Z" fill="#0C5257"/>
<path d="M149.491 25.3887V19.8709C149.491 19.8709 149.579 19.0826 148.354 18.5272C148.354 18.5272 139.866 14.4246 130.33 19.1543C130.33 19.1543 123.564 22.146 121.469 30.4768C121.469 30.4768 119.728 37.7685 121.469 43.0715C121.469 43.0715 123.422 51.8501 131.306 55.0032C131.306 55.0032 138.392 58.8193 148.496 54.7167C148.496 54.7167 149.526 54.4477 149.508 53.2474V47.8727C149.508 47.8727 149.154 46.2066 147.591 46.6008C147.591 46.6008 147.111 46.7441 146.561 47.1382C146.561 47.1382 144.714 48.5 142.494 48.8045C142.494 48.8045 137.877 49.6645 134.628 47.7296C134.628 47.7296 130.028 45.9918 129.034 38.3239C129.034 38.3239 128.679 35.1347 129.034 33.809C129.034 33.809 130.064 26.3563 136.759 24.7977C136.759 24.7977 140.15 23.8839 144.306 24.923C144.306 24.923 146.401 25.7828 147.094 26.374C147.076 26.374 148.745 27.4311 149.491 25.3887Z" fill="#0C5257"/>
<path d="M167.498 17.019C165.811 17.019 163.947 17.2338 162.153 17.9505C162.153 17.9505 155.689 19.7778 152.688 30.2226C152.688 30.2226 151.072 35.4541 152.492 43.1757C152.492 43.1757 153.718 50.9688 161.14 55.3939C161.14 55.3939 166.432 58.6187 174.157 55.3939C174.157 55.3939 177.531 54.0682 179.662 50.5567V53.7994C179.662 53.7994 179.591 55.0356 180.852 55.2326H186.375C186.375 55.2326 187.635 55.0357 187.6 53.6741V19.5989C187.6 19.5989 187.6 18.4521 186.215 18.1296H180.852C180.852 18.1296 179.822 18.1834 179.591 19.545V24.203C179.591 24.203 177.762 19.5451 173.234 17.9148C173.251 17.9148 170.712 17.0369 167.498 17.019ZM169.949 24.4179C175.56 24.4179 180.106 30.0972 180.106 37.1201C180.106 44.1251 175.56 49.8223 169.949 49.8223C164.337 49.8223 159.791 44.143 159.791 37.1201C159.791 30.1151 164.337 24.4179 169.949 24.4179Z" fill="#0C5257"/>
<path d="M221.569 25.3679V19.8497C221.569 19.8497 221.658 19.0615 220.433 18.5061C220.433 18.5061 211.945 14.4034 202.409 19.1331C202.409 19.1331 195.642 22.1252 193.547 30.4559C193.547 30.4559 191.807 37.7474 193.547 43.0504C193.547 43.0504 195.501 51.8293 203.385 54.9824C203.385 54.9824 210.471 58.7981 220.575 54.6955C220.575 54.6955 221.605 54.4269 221.587 53.2265V47.8519C221.587 47.8519 221.232 46.1858 219.669 46.5799C219.669 46.5799 219.189 46.7233 218.639 47.1174C218.639 47.1174 216.792 48.4788 214.573 48.7833C214.573 48.7833 209.955 49.6433 206.706 47.7084C206.706 47.7084 202.107 45.9706 201.112 38.3027C201.112 38.3027 200.757 35.1138 201.112 33.806C201.112 33.806 202.142 26.3534 208.837 24.7947C208.837 24.7947 212.228 23.8809 216.384 24.92C216.384 24.92 218.479 25.7798 219.172 26.3711C219.136 26.3531 220.823 27.3923 221.569 25.3679Z" fill="#DF2B3C"/>
<path fill-rule="evenodd" clip-rule="evenodd" d="M269.247 16.8395C258.504 16.8395 249.802 25.8331 249.802 36.9049C249.802 47.9767 258.504 56.9703 269.247 56.9703C279.991 56.9703 288.692 47.9767 288.692 36.9049C288.692 25.8331 279.991 16.8395 269.247 16.8395ZM269.247 24.364C275.338 24.364 280.275 29.9894 280.275 36.9227C280.275 43.8561 275.338 49.4815 269.247 49.4815C263.156 49.4815 258.22 43.8561 258.22 36.9227C258.22 29.9894 263.156 24.364 269.247 24.364Z" fill="#DF2B3C"/>
<path d="M227.04 21.1385V54.9271C227.04 54.9271 226.933 56.5932 228.709 56.6648H233.841C233.841 56.6648 235.102 56.665 235.244 55.178V38.0508C235.244 38.0508 235.12 28.8601 239.381 26.334C239.381 26.334 241.903 24.9364 245.97 26.2084C245.97 26.2084 247.32 26.7997 248.101 25.9218L250.001 21.3894C250.001 21.3894 250.427 19.6694 249.219 19.3648C249.219 19.3648 243.377 16.5698 238.725 20.2067C238.725 20.2067 236.398 21.8729 235.333 25.3843V21.0846C235.333 21.0846 235.386 19.5797 233.912 19.5618H228.46C228.443 19.5797 227.324 19.5798 227.04 21.1385Z" fill="#DF2B3C"/>
<path d="M309.682 25.6716C309.682 25.6716 310.41 26.6571 311.884 25.9047L315.116 23.4322C315.116 23.4322 315.987 22.6442 315.312 21.5693C315.312 21.5693 312.825 17.4128 306.983 16.9291C306.983 16.9291 302.792 16.5707 300.431 17.2874C300.431 17.2874 292.884 18.6848 291.516 25.6898C291.516 25.6898 291.037 27.7143 291.64 30.4374C291.64 30.4374 292.386 34.8265 298.317 37.478C298.317 37.478 305.917 40.9716 306.308 41.1507C306.308 41.1507 310.605 42.8885 309.771 46.4358C309.771 46.4358 309.487 49.4817 306.078 50.1445C306.078 50.1445 299.88 51.7209 296.985 46.7045C296.985 46.7045 296.257 45.11 294.837 45.4683L290.699 47.8155C290.699 47.8155 289.51 48.5678 290.273 49.9115C290.273 49.9115 291.978 53.19 295.281 54.9457C295.281 54.9457 300.288 58.2959 309.132 56.0206C309.132 56.0206 315.258 53.9962 316.785 49.9293C316.785 49.9293 318.49 46.5792 317.425 41.7599C317.425 41.7599 316.395 37.6216 311.511 35.1851C311.511 35.1851 304.764 32.1573 303.858 31.8885C303.858 31.8885 299.365 29.9716 299.436 27.5888C299.436 27.5888 298.69 24.9551 301.798 23.6831C301.798 23.6831 304.213 22.4827 307.321 23.6831C307.303 23.6831 308.812 24.31 309.682 25.6716Z" fill="#DF2B3C"/>
<path d="M339.659 26.0466C339.659 26.0466 340.387 27.0318 341.861 26.2793L345.093 23.8072C345.093 23.8072 345.963 23.0188 345.288 21.9439C345.288 21.9439 342.802 17.7874 336.96 17.3037C336.96 17.3037 332.769 16.9454 330.407 17.662C330.407 17.662 322.86 19.0595 321.492 26.0645C321.492 26.0645 321.013 28.0889 321.617 30.8121C321.617 30.8121 322.363 35.2012 328.294 37.8527C328.294 37.8527 335.894 41.3462 336.285 41.5254C336.285 41.5254 340.582 43.2635 339.747 46.8286C339.747 46.8286 339.463 49.8742 336.072 50.537C336.072 50.537 329.874 52.1137 326.98 47.0974C326.98 47.0974 326.251 45.5028 324.831 45.8611L320.693 48.208C320.693 48.208 319.504 48.9603 320.267 50.304C320.267 50.304 321.972 53.5828 325.275 55.3385C325.275 55.3385 330.283 58.6887 339.126 56.4135C339.126 56.4135 345.253 54.389 346.78 50.3222C346.78 50.3222 348.484 46.9717 347.419 42.1524C347.419 42.1524 346.389 38.0141 341.506 35.5775C341.506 35.5775 334.758 32.5497 333.852 32.281C333.852 32.281 329.36 30.3641 329.431 27.9813C329.431 27.9813 328.684 25.3479 331.792 24.0759C331.792 24.0759 334.207 22.8756 337.315 24.0759C337.297 24.058 338.806 24.685 339.659 26.0466Z" fill="#DF2B3C"/>
</svg>
