<svg width="239" height="155" viewBox="0 0 239 155" fill="none" xmlns="http://www.w3.org/2000/svg">
<rect x="0.970703" width="237.059" height="155" rx="8.94231" fill="#FFB443"/>
<path fill-rule="evenodd" clip-rule="evenodd" d="M149.841 32.7793C149.841 32.7793 137.134 55.6275 134.228 65.8812C134.228 65.8812 131.806 72.1701 135.266 72.3068C135.266 72.3068 137.48 72.1017 139.417 69.5725C139.417 69.5725 142.046 65.9495 143.845 63.9672C143.845 63.9672 151.388 55.0806 152.218 53.5084C152.218 53.5084 154.636 58.7359 155.761 64.1496C155.761 64.1496 156.153 67.1948 157.767 67.0014C157.767 67.0014 160.018 66.9531 160.85 62.3128C160.85 62.3128 161.29 64.633 162.562 64.3429C162.562 64.3429 165.596 64.778 164.421 52.4522C164.421 52.4522 165.498 52.8872 165.693 51.7755C165.693 51.7755 166.329 36.4529 156.544 30.8459C156.544 30.8459 151.945 28.3324 149.841 32.7793Z" fill="#225054"/>
<path fill-rule="evenodd" clip-rule="evenodd" d="M145.169 41.5112C146.963 47.2788 146.209 57.5587 146.209 57.5587C149.115 54.2091 150.36 50.3813 150.36 50.3813C151.121 47.9546 151.848 48.7408 151.848 48.7408C156.622 53.1841 157.349 66.8211 157.349 66.8211C157.349 66.8211 157.264 66.9542 157.238 66.9951C156.047 66.5826 155.739 64.1968 155.739 64.1968C154.614 58.7831 152.196 53.5555 152.196 53.5555C151.365 55.1278 143.823 64.0144 143.823 64.0144C142.024 65.9967 139.395 69.6194 139.395 69.6194C137.457 72.1487 135.243 72.3537 135.243 72.3537C131.784 72.217 134.206 65.9282 134.206 65.9282C135.952 59.7658 141.229 49.0779 145.169 41.5112Z" fill="#173C3F"/>
<path fill-rule="evenodd" clip-rule="evenodd" d="M139.136 56.5523C139.136 56.5523 142.457 63.6615 137.821 73.7101C137.821 73.7101 133.877 84.3739 128.411 91.073C128.411 91.073 123.395 97.4986 122.253 86.6981C122.253 86.6981 123.014 65.7806 127.442 57.646C133.393 46.5037 139.136 56.5523 139.136 56.5523Z" fill="#173C3F"/>
<path fill-rule="evenodd" clip-rule="evenodd" d="M109.781 49.3757C101.365 56.1428 100.582 66.9701 100.582 66.9701C100.582 68.9036 97.549 81.0843 97.549 81.0843C96.5704 85.5313 93.1456 100.032 93.1456 100.032C89.9164 113.953 81.1864 130.312 81.1864 130.312C80.9788 131.714 82.1482 132.24 82.1482 132.24C83.2552 132.479 83.8088 131.454 83.8088 131.454C87.7528 124.276 95.2257 116.005 95.2257 116.005C97.4744 113.373 98.4777 114.159 98.4777 114.159C99.9654 114.809 99.1696 117.304 99.1696 117.304C98.8237 119.047 95.2257 129.164 95.2257 129.164C94.9143 130.36 95.4332 130.497 95.4332 130.497C96.1251 131.078 96.9618 130.484 96.9618 130.484C100.289 127.777 107.824 116.757 107.824 116.757C109.585 114.05 122.626 99.941 122.626 99.941C133.489 89.1405 129.841 75.7673 129.841 75.7673C129.547 74.0272 128.196 69.5559 128.196 69.5559C126.155 63.0619 127.608 57.9351 127.608 57.9351C127.608 57.9351 124.299 49.5856 117.547 48.7156C117.547 48.7156 112.512 47.7996 109.781 49.3757Z" fill="#D6D4C8"/>
<path fill-rule="evenodd" clip-rule="evenodd" d="M114.513 48.4832C116.393 48.4563 117.986 48.7465 117.986 48.7465C124.738 49.6166 128.047 57.9656 128.047 57.9656C128.047 57.9656 127.831 58.7382 127.682 60.0534C126.626 59.5996 125.667 58.9363 125.667 58.9363C123.73 57.3094 118.886 56.3526 118.886 56.3526C114.43 55.7784 113.559 58.3621 113.559 58.3621C113.413 66.9752 122.131 76.785 122.131 76.785C122.131 76.785 114.871 78.0097 109.184 64.1649C109.184 64.1649 106.928 67.2057 101.256 69.1107C101.256 69.0883 101.022 67.021 101.022 67.0007C101.022 67.0007 101.805 56.1734 110.22 49.4063C111.415 48.7168 113.051 48.5042 114.513 48.4832H114.513Z" fill="#BCB9A8"/>
<path fill-rule="evenodd" clip-rule="evenodd" d="M91.506 76.2334C85.8322 87.5124 87.0835 100.572 87.0835 100.572C87.3771 105.792 86.3986 113.985 86.3986 113.985C85.724 118.011 86.2361 117.967 86.2361 117.967C86.8521 118.38 87.1813 117.731 87.1813 117.731C87.1813 117.731 91.8783 110.239 93.0526 103.327C93.0526 103.327 93.6397 98.0581 94.08 95.8346L98.4346 77.0318C98.4346 77.0318 100.328 68.9875 100.363 67.2785C100.363 67.2785 100.605 62.3567 95.1387 68.2697C95.1387 68.2697 93.2359 70.9357 91.506 76.2334Z" fill="#194145"/>
<path fill-rule="evenodd" clip-rule="evenodd" d="M102.187 68.2601C106.685 66.0726 111.851 51.8479 111.851 51.8479C113.443 49.7288 115.449 51.096 115.449 51.096C118.701 53.5569 127.678 58.0104 127.678 58.0104C126.896 60.5239 127.287 65.0675 127.287 65.0675C129.293 68.161 132.424 66.8076 132.424 66.8076C137.513 64.7775 137.708 61.2006 137.708 61.2006C139.176 61.249 138.932 62.9891 138.932 62.9891C142.112 58.7838 139.91 55.0136 139.91 55.0136C142.454 55.8836 144.558 55.0136 144.558 55.0136C141.671 53.3218 142.503 47.6181 142.503 47.6181C144.998 37.8542 139.763 32.5372 139.763 32.5372C141.28 32.4405 142.846 33.4072 142.846 33.4072C142.112 28.7669 137.708 27.8969 137.708 27.8969C139.127 26.6402 140.938 27.6069 140.938 27.6069C140.057 23.4016 135.751 23.3533 135.751 23.3533C137.61 20.4048 135.458 18.8097 135.458 18.8097C132.669 23.9817 128.95 22.7732 128.95 22.7732C124.351 21.9515 123.666 17.9396 123.666 17.9396C120.584 11.2209 115.593 11.9459 115.593 11.9459C115.593 11.9459 118.333 16.5862 114.37 19.5347C114.37 19.5347 112.462 20.7915 111.777 22.0965C111.777 22.0965 110.114 23.9333 108.988 28.8153C108.988 28.8153 108.793 25.9151 110.212 22.6766C110.212 22.6766 107.472 23.3049 106.493 29.2987C106.493 29.2987 102.628 25.4317 98.6159 26.1084C98.6159 26.1084 94.555 26.2051 94.2125 27.9452C94.2125 27.9452 90.3474 28.5736 90.0049 30.8454C90.0049 30.8454 83.6934 33.5522 78.5561 25.8668C78.5561 25.8668 72.4891 30.5554 79.3388 39.2559C79.3388 39.2559 78.777 48.2591 71.2004 47.1654C71.2004 47.1654 71.581 50.7884 75.0406 52.053C75.0406 52.053 72.3422 52.8049 71.7886 56.9064C71.7886 56.9064 73.9681 56.0861 75.5249 56.633C75.5249 56.633 73.4838 59.6065 75.9055 64.3916C75.9055 64.3916 77.151 62.7852 78.2927 62.5801C78.2927 62.5801 77.871 73.9614 82.7147 76.4266C82.7147 76.4266 85.6993 78.4083 90.9344 76.9099C90.9344 76.9099 97.6416 74.4578 102.187 68.2601Z" fill="#225054"/>
<path d="M122.477 45.6967C115.637 42.3759 112.055 35.6412 114.477 30.6546C116.899 25.6679 124.407 24.3176 131.247 27.6385C138.087 30.9594 141.669 37.6939 139.247 42.6806C136.825 47.6672 129.317 49.0176 122.477 45.6967Z" fill="#1A4245"/>
<path d="M92.5067 59.361C99.5796 60.3643 106.138 56.1926 107.156 50.0432C108.173 43.8938 103.264 38.0954 96.1915 37.0921C89.1187 36.0887 82.5601 40.2605 81.5426 46.4098C80.5251 52.5592 85.4339 58.3576 92.5067 59.361Z" fill="#1A4245"/>
<path d="M123.863 40.5554C118.81 38.1019 115.991 33.4819 117.567 30.2362C119.143 26.9905 124.517 26.3483 129.571 28.8018C134.624 31.2553 137.443 35.8753 135.867 39.121C134.291 42.3666 128.916 43.0088 123.863 40.5554Z" fill="#225054"/>
<path fill-rule="evenodd" clip-rule="evenodd" d="M118.986 40.8435C118.986 40.8435 122.089 32.4281 135.752 28.8831C135.752 28.8831 137.148 28.4312 137.39 29.6846C137.39 29.6846 137.603 30.3919 136.247 30.9444C136.247 30.9444 124.421 33.8767 119.909 40.6241C119.909 40.6241 119.016 41.8221 118.986 40.8435Z" fill="#1A4245"/>
<path d="M94.0145 52.814C88.7142 51.6026 85.1 47.5026 85.9421 43.6563C86.7842 39.8101 91.7636 37.6742 97.064 38.8856C102.364 40.0971 105.978 44.1971 105.136 48.0434C104.294 51.8896 99.3149 54.0255 94.0145 52.814Z" fill="#225054"/>
<path fill-rule="evenodd" clip-rule="evenodd" d="M106.519 46.528C106.519 46.528 90.46 43.5353 81.9657 46.9897C81.9657 46.9897 80.6326 47.6202 81.7057 48.6628C81.7057 48.6628 82.078 48.9213 82.8832 48.8088C82.8832 48.8088 88.3262 46.065 106.379 47.2828C106.379 47.2828 107.66 46.8731 106.519 46.528Z" fill="#1A4245"/>
<path fill-rule="evenodd" clip-rule="evenodd" d="M106.414 45.8044C106.414 45.8044 90.4182 42.4968 81.856 45.7837C81.856 45.7837 80.5106 46.3879 81.5625 47.4513C81.5625 47.4513 81.9294 47.7171 82.7367 47.6205C82.7367 47.6205 88.2339 44.9842 106.259 46.5564C106.259 46.5564 107.547 46.1719 106.414 45.8044Z" fill="#0A1E20"/>
<path fill-rule="evenodd" clip-rule="evenodd" d="M119.874 40.5398C119.874 40.5398 123.438 32.3044 137.276 29.5017C137.276 29.5017 138.695 29.1257 138.868 30.3904C138.868 30.3904 139.041 31.1081 137.657 31.5866C137.657 31.5866 125.686 33.8766 120.808 40.3706C120.808 40.3706 119.85 41.5186 119.874 40.5398Z" fill="#0A1E20"/>
<path fill-rule="evenodd" clip-rule="evenodd" d="M95.0978 91.7017C96.9138 100.174 94.9758 107.498 94.9758 107.498C94.7094 108.55 93.3271 113.885 93.3271 113.885C94.4915 112.87 98.2246 111.381 98.2246 111.381C101.067 110.129 102.3 112.092 102.3 112.092C103.259 113.851 102.677 118.216 102.677 118.216C102.026 123.833 95.93 130.6 95.93 130.6V130.734C95.7637 130.704 95.5927 130.634 95.4296 130.497C95.4296 130.497 94.9111 130.36 95.2225 129.164C95.2225 129.164 98.8205 119.047 99.1665 117.304C99.1665 117.304 99.9622 114.808 98.4745 114.159C98.4745 114.159 97.4713 113.373 95.2225 116.005C95.2225 116.005 87.7494 124.276 83.8054 131.454C83.8054 131.454 83.2519 132.479 82.1449 132.24C82.1449 132.24 80.8304 132.001 81.0379 130.599C81.0379 130.599 89.9127 113.952 93.1419 100.032C93.1419 100.032 94.0704 96.0991 95.0989 91.7017H95.0978Z" fill="#BCB9A8"/>
<path fill-rule="evenodd" clip-rule="evenodd" d="M109.596 86.2827C115.651 86.25 121.042 88.3593 119.886 96.4164C119.886 96.4164 114.338 107.92 104.131 108.597C104.131 108.597 99.9531 108.8 98.9256 105.552C98.9256 105.552 95.8433 107.041 93.9938 105.958C93.9938 105.958 92.8843 105.741 91.9261 104.58C92.4289 102.909 92.8826 101.244 93.2602 99.6165C93.2602 99.6165 94.5547 94.1266 95.7839 88.851C97.8317 88.1755 103.968 86.313 109.596 86.2827Z" fill="#BCB9A8"/>
<path fill-rule="evenodd" clip-rule="evenodd" d="M100.309 66.8066C100.309 66.8066 103.665 68.6865 103.319 71.6259C103.319 71.6259 102.869 75.5223 99.9978 80.3415C99.9978 80.3415 112.511 79.5969 118.714 83.8785C118.714 83.8785 124.527 87.2798 120.375 95.4144C120.375 95.4144 116.362 103.276 107.99 106.215C107.99 106.215 99.7555 109.086 103.146 101.293C103.146 101.293 96.7111 102.865 94.2894 101.567C94.2894 101.567 91.2449 99.8577 94.2202 95.0726C94.2202 95.0726 89.0999 97.2601 86.5398 94.7992C86.5398 94.7992 83.8412 92.6801 85.0866 87.0064C85.0866 87.0064 87.0241 79.0769 94.4277 73.6083C94.4277 73.6083 96.3305 72.3436 96.8494 69.541C96.8494 69.541 97.3338 65.4053 100.309 66.8066Z" fill="#225054"/>
<path fill-rule="evenodd" clip-rule="evenodd" d="M78.5564 25.8631C83.6875 33.5394 89.9873 30.8492 90.0024 30.8428L90.0538 30.8898C100.426 31.1798 104.194 34.8052 104.194 34.8052C100.524 33.5968 91.5217 33.7901 91.5217 33.7901C81.7363 33.5968 79.3998 29.115 79.3998 29.115C77.3586 35.3698 83.7911 39.3973 83.7911 39.3973C83.0572 40.0257 81.4916 39.8805 81.4916 39.8805C83.253 46.5026 79.0193 52.9035 79.0193 52.9035C79.8496 52.254 80.8532 52.4594 80.8532 52.4594C78.6046 55.9798 78.6297 60.2542 78.6297 60.2542C79.1679 58.6349 81.0271 57.3782 81.0271 57.3782C81.0027 58.1999 81.5408 60.4477 81.5408 60.4477C81.8589 59.6502 82.7149 59.191 82.7149 59.191C83.033 64.4355 86.6782 69.1725 86.6782 69.1725C92.6472 76.2779 104.283 66.4944 104.283 66.4944C100.436 71.7947 93.8189 76.1327 90.9335 76.906C85.6984 78.4044 82.7139 76.4228 82.7139 76.4228C77.8701 73.9576 78.292 62.5762 78.292 62.5762C77.1504 62.7812 75.9048 64.3879 75.9048 64.3879C73.4831 59.6029 75.5243 56.629 75.5243 56.629C73.9675 56.0822 71.7875 56.9024 71.7875 56.9024C72.341 52.8009 75.04 52.0491 75.04 52.0491C71.5804 50.7845 71.1993 47.1615 71.1993 47.1615C78.776 48.2552 79.3382 39.2519 79.3382 39.2519C72.4885 30.5514 78.5553 25.8631 78.5553 25.8631H78.5564Z" fill="#173C3F"/>
<path fill-rule="evenodd" clip-rule="evenodd" d="M115.231 43.2182C118.118 43.2914 120.559 47.8886 120.559 47.8886C124.875 56.652 131.553 58.5806 131.553 58.5806C130.046 60.2385 128.882 60.137 128.882 60.137C127.821 60.9149 127.273 65.0727 127.272 65.0759C127.259 65.0565 127.246 65.0391 127.233 65.0194C127.233 65.0194 126.841 60.4755 127.624 57.962C127.624 57.962 118.647 53.5083 115.395 51.0474C115.395 51.0474 113.389 49.6807 111.797 51.7997C111.797 51.7997 109.315 60.2311 104.284 66.5098C104.174 66.8567 102.222 68.0877 102.094 68.4126C100.511 68.22 98.7448 68.2774 98.7448 68.2774C105.526 64.4878 107.613 54.6895 107.613 54.6895C109.6 47.9901 111.757 45.757 111.757 45.757C112.904 43.8537 114.102 43.1896 115.231 43.2182Z" fill="#173C3F"/>
<path fill-rule="evenodd" clip-rule="evenodd" d="M122.499 55.1688C122.499 55.1688 122.441 48.6629 118.185 44.1676C118.185 44.1676 115.249 41.0016 112.754 44.2885C112.754 44.2885 109.318 47.8203 111.532 59.8513C111.532 59.8513 113.192 71.062 120.181 76.0521C120.181 76.0521 122.417 77.7855 123.738 75.9729C123.738 75.9729 124.362 75.1391 124.508 74.837C124.508 74.837 125.267 73.7373 125.756 73.3869C125.756 73.3869 127.065 72.541 126.355 71.393C126.355 71.393 125.487 70.0034 123.518 70.9822C123.518 70.9822 120.095 72.8393 117.863 70.6519C117.863 70.6519 115.511 69.1822 113.435 58.8601C113.435 58.8601 113.158 55.8866 114.784 54.1434C114.784 54.1434 116.099 52.6396 119.385 54.5194C119.385 54.5194 121.115 55.4252 121.669 55.8182C121.669 55.8182 122.499 56.1942 122.499 55.1688Z" fill="#FAB84A"/>
<path fill-rule="evenodd" clip-rule="evenodd" d="M114.074 55.3662C113.348 58.374 115.112 62.1426 115.112 62.1426C115.112 62.1426 115.224 62.6575 115.995 62.4158C115.995 62.4158 116.374 62.3554 116.765 61.8962C116.765 61.8962 117.732 60.3736 120.325 60.712C120.325 60.712 122.637 61.0745 122.38 63.2617C122.38 63.2617 122.478 64.6514 120.826 64.0109C120.826 64.0109 120.533 63.9505 120.288 63.6726C120.288 63.6726 119.579 63.0442 118.955 63.8176C118.955 63.8176 117.499 66.244 118.312 68.8416C118.312 68.8416 119.091 71.0291 120.803 71.7127C120.803 71.7127 118.901 72.157 117.309 70.1233C117.309 70.1233 115.322 67.9261 113.977 61.4732C113.977 61.4732 112.658 57.0686 114.074 55.3662Z" fill="#8A1212"/>
<path fill-rule="evenodd" clip-rule="evenodd" d="M125.964 73.2427C125.964 73.2427 126.429 72.0343 125.573 71.9618C125.573 71.9618 124.765 71.6476 123.689 72.566C123.689 72.566 122.49 73.7019 119.848 73.5086C119.848 73.5086 118.747 73.7019 117.475 71.9135C117.475 71.9135 115.407 69.4906 112.985 61.732C112.985 61.732 111.636 55.9215 112.189 51.5808C112.189 51.5808 112.558 49.1954 114.368 48.2286C114.368 48.2286 116.35 47.2619 119.114 50.9113C119.114 50.9113 121.145 53.1348 122.294 55.7933C122.294 55.7933 122.153 55.9814 121.712 55.8446C121.712 55.8446 118.693 54.0075 117.742 53.8195C117.742 53.8195 115.164 52.7893 114.067 55.3747C114.067 55.3747 112.778 57.6422 114.906 64.8805C114.906 64.8805 116.721 72.054 120.562 71.7293C120.562 71.7293 122.421 71.5072 123.641 70.909C123.641 70.909 125.543 70.0545 126.356 71.3704C126.356 71.3704 126.921 72.3807 125.964 73.2427Z" fill="#D2952F"/>
<path fill-rule="evenodd" clip-rule="evenodd" d="M160.336 45.6177C160.422 45.6246 160.528 45.6489 160.656 45.6954C160.656 45.6954 164.047 47.8609 164.389 52.3948C164.389 52.3948 164.449 52.4424 164.499 52.4826C164.461 52.4706 164.401 52.4535 164.401 52.4535C165.575 64.7793 162.541 64.344 162.541 64.344C161.269 64.6341 160.829 62.3139 160.829 62.3139C160.143 66.1396 158.496 66.8432 157.938 66.9726L157.95 66.9103C157.95 66.9103 160.541 61.1768 156.424 50.1712C156.424 50.1712 155.939 48.5686 157.247 49.4538C157.247 49.4538 160.056 51.2242 160.855 58.9521C160.855 58.9521 161.194 62.6362 162.211 63.1387C162.211 63.1387 162.744 63.2584 162.914 61.8947C162.914 61.8947 164.115 56.3536 161.204 49.2482C161.204 49.2482 160.142 46.8458 160.074 46.3721C160.074 46.3721 159.733 45.5691 160.336 45.6177Z" fill="#173C3F"/>
<path fill-rule="evenodd" clip-rule="evenodd" d="M117.466 21.3176C117.466 21.3176 109.208 31.6054 109.256 35.9837C109.256 35.9837 101.636 30.2666 92.0464 28.7101L92.0379 28.6271C93.114 28.1179 94.2089 27.9367 94.2089 27.9367C94.3648 27.1447 95.2913 26.6954 96.2542 26.4384C98.9703 27.0334 103.23 28.5985 107.082 32.7366C107.082 32.7366 106.258 31.768 106.414 29.2182C106.436 29.2399 106.49 29.2901 106.49 29.2901C107.468 23.2964 110.208 22.6679 110.208 22.6679C109.088 25.2237 108.976 27.5447 108.978 28.4199C108.995 29.8787 108.876 30.9938 108.966 32.1798C111.872 24.4759 117.466 21.3176 117.466 21.3176H117.466Z" fill="#173C3F"/>
<path fill-rule="evenodd" clip-rule="evenodd" d="M136.233 19.8355C136.592 20.601 136.749 21.7755 135.752 23.3559C135.668 23.319 133.483 23.5237 132.912 23.625C132.912 23.625 135.694 23.128 136.233 19.8355ZM136.699 26.2119C137.675 26.1984 138.999 26.3884 140.766 26.9758C140.833 27.1803 140.892 27.394 140.94 27.6224C140.94 27.6224 139.13 26.6559 137.711 27.9126C137.711 27.9126 141.362 28.6355 142.569 32.2689C141.082 30.6682 138.434 28.5032 134.145 27.1101C134.145 27.1101 134.7 26.2395 136.699 26.2119ZM138.391 31.7117C138.391 31.7117 140.545 31.647 142.812 33.2237C142.824 33.2902 142.838 33.355 142.849 33.423C142.849 33.423 141.283 32.4562 139.766 32.5528C139.766 32.5528 144.711 37.5211 142.765 46.692C142.641 46.9613 142.681 47.2303 142.501 47.5998C142.501 47.5998 142.536 37.4976 138.391 31.7117Z" fill="#173C3F"/>
<path fill-rule="evenodd" clip-rule="evenodd" d="M89.3136 78.6721C89.3136 78.6818 89.322 78.7741 89.322 78.7741C87.6096 84.7292 89.6987 86.9961 89.6987 86.9961C91.9249 89.2631 99.5281 88.5864 99.5281 88.5864C101.994 88.5526 101.48 90.6842 101.48 90.6842C101.343 91.4962 99.5624 94.3046 99.5624 94.3046C98.8089 95.9287 100.761 95.8272 100.761 95.8272C106.07 95.861 107.851 94.6091 107.851 94.6091C110.727 93.1203 109.392 95.5565 109.392 95.5565C108.912 96.4024 108.638 97.6881 108.638 97.6881C108.193 99.7859 110.179 99.8874 110.179 99.8874C116.241 100.158 119.495 96.7746 119.495 96.7746C119.495 96.7746 119.495 96.8411 119.495 96.8454C117.922 99.2409 114.127 104.073 107.956 106.24C107.956 106.24 99.7221 109.111 103.113 101.318C103.113 101.318 96.6773 102.89 94.2556 101.591C94.2556 101.591 91.2111 99.8826 94.1864 95.0976C94.1864 95.0976 89.0664 97.2852 86.5063 94.8243C86.5063 94.8243 83.8078 92.7047 85.0532 87.031C85.0532 87.031 86.0443 82.9801 89.3125 78.6721H89.3136Z" fill="#173C3F"/>
<path fill-rule="evenodd" clip-rule="evenodd" d="M127.711 67.4491C127.863 68.171 128.053 68.9172 128.294 69.6833C128.294 69.6833 129.645 74.1546 129.938 75.8947C129.938 75.8947 133.587 89.2675 122.724 100.068C122.724 100.068 119.931 103.094 116.771 106.591C116.778 106.548 116.787 106.501 116.787 106.501C131.651 87.4855 127.651 67.4549 127.651 67.4549C127.671 67.4525 127.691 67.4513 127.711 67.4491H127.711Z" fill="#BCB9A8"/>
<path fill-rule="evenodd" clip-rule="evenodd" d="M99.6088 130.6C99.6088 130.6 100.02 129.755 101.116 130.194C101.116 130.194 102.349 130.634 102.588 132.834C102.588 132.834 102.725 135.811 100.26 137.943C100.26 137.943 97.9649 139.905 97.0059 137.503C97.0059 137.503 94.7798 139.567 93.7866 137.875C93.7866 137.875 92.0056 138.924 91.2864 138.078C91.2864 138.078 90.7384 137.841 91.1494 136.048C91.1494 136.048 92.3139 131.446 93.6496 129.721C93.6496 129.721 95.225 128.131 96.458 130.093C96.458 130.093 98.8211 128.672 99.6088 130.6Z" fill="#CE9434"/>
<path fill-rule="evenodd" clip-rule="evenodd" d="M84.2313 130.33C84.2313 130.33 86.8684 132.327 85.841 135.744C85.841 135.744 85.3273 137.537 83.1353 138.18C83.1353 138.18 82.2106 138.722 81.6284 138.079C81.6284 138.079 81.3544 139.094 79.5392 139.263C79.5392 139.263 77.861 139.229 77.998 137.842C77.998 137.842 77.2162 139.213 76.1202 139.044C76.1202 139.044 74.8814 139.094 74.7444 137.165C74.7444 137.165 74.3677 135.643 76.3541 133.477C76.3541 133.477 78.4433 130.939 81.3887 129.891C81.3887 129.891 83.7004 129.586 84.2313 130.33Z" fill="#CE9434"/>
<path fill-rule="evenodd" clip-rule="evenodd" d="M95.7228 130.468C95.9821 130.435 96.1139 130.836 96.1139 130.836C96.2956 131.973 95.5446 135.311 95.5446 135.311C95.3629 135.777 95.4723 136.112 95.4723 136.112C95.7508 136.567 96.5255 136.16 96.5255 136.16C97.3489 135.753 97.6519 134.629 97.6519 134.629C97.991 133.217 98.5841 131.327 98.5841 131.327C99.238 130.537 99.5163 131.674 99.5163 131.674C99.7343 132.655 99.2498 135.478 99.2498 135.478C99.0077 136.531 99.6378 136.316 99.6378 136.316C101.648 135.311 102.156 131.674 102.156 131.674L102.269 131.57C102.411 131.914 102.527 132.34 102.585 132.87C102.585 132.87 102.722 135.847 100.256 137.979C100.256 137.979 97.9612 139.941 97.0023 137.539C97.0023 137.539 94.7761 139.603 93.7829 137.911C93.7829 137.911 92.002 138.96 91.2827 138.114C91.2827 138.114 90.7348 137.877 91.1457 136.084C91.1457 136.084 91.2043 135.872 91.226 135.79C91.2435 135.795 91.3068 135.813 91.3068 135.813C92.5419 137.189 93.7165 135.347 93.7165 135.347C93.9345 134.413 95.2904 130.861 95.2904 130.861C95.4607 130.588 95.6049 130.483 95.7228 130.468Z" fill="#AD7821"/>
<path fill-rule="evenodd" clip-rule="evenodd" d="M83.4015 130.94C83.8341 130.937 83.9141 131.853 83.9141 131.853C84.0837 133.672 83.599 137.141 83.599 137.141C85.1387 136.453 85.8703 134.292 86.0429 133.718C86.1055 134.328 86.0574 135.013 85.8305 135.767C85.8305 135.767 85.3167 137.561 83.1248 138.203C83.1248 138.203 82.2001 138.745 81.6179 138.102C81.6179 138.102 81.3439 139.117 79.5287 139.286C79.5287 139.286 77.8505 139.252 77.9875 137.865C77.9875 137.865 77.2057 139.237 76.1097 139.068C76.1097 139.068 74.8709 139.117 74.7339 137.188C74.7339 137.188 74.5337 136.363 75.2155 135.067C75.5298 135.105 77.1088 135.61 77.1088 135.61C77.9564 133.767 79.6759 132.117 79.6759 132.117C81.1289 131.184 80.5963 132.26 80.5963 132.26C80.4994 132.619 79.1434 135.849 79.1434 135.849C79.6762 135.92 80.9837 136.639 80.9837 136.639C81.7345 136.997 81.8073 136.136 81.8073 136.136C82.1706 133.743 83.0424 131.112 83.0424 131.112C83.1832 130.991 83.3016 130.941 83.4015 130.94Z" fill="#AD7821"/>
<path d="M122.018 136.598L163.308 135.99L163.341 139.1L122.051 139.707L122.018 136.598Z" fill="#666666"/>
<path d="M142.748 144.24C131.343 144.412 122.073 142.379 122.045 139.699C122.016 137.02 131.239 134.708 142.645 134.536C154.051 134.364 163.32 136.397 163.348 139.076C163.377 141.756 154.154 144.067 142.748 144.24Z" fill="#666666"/>
<path d="M142.708 141.073C131.303 141.245 122.033 139.212 122.005 136.533C121.976 133.853 131.199 131.541 142.605 131.369C154.01 131.197 163.28 133.23 163.308 135.909C163.337 138.589 154.114 140.901 142.708 141.073Z" fill="#B3B3B3"/>
<path d="M126.222 133.023L159.004 132.54L159.031 135.009L126.249 135.492L126.222 133.023Z" fill="#666666"/>
<path d="M142.684 139.091C133.629 139.228 126.269 137.614 126.247 135.487C126.224 133.359 133.546 131.524 142.602 131.388C151.657 131.251 159.016 132.865 159.039 134.992C159.062 137.119 151.739 138.955 142.684 139.091Z" fill="#666666"/>
<path d="M142.651 136.575C133.596 136.712 126.237 135.098 126.214 132.971C126.191 130.843 133.514 129.008 142.569 128.871C151.624 128.735 158.984 130.349 159.006 132.476C159.029 134.603 151.707 136.439 142.651 136.575Z" fill="#B3B3B3"/>
<path d="M131.62 130.479L153.549 130.157L153.566 131.808L131.638 132.131L131.62 130.479Z" fill="#666666"/>
<path d="M142.629 134.539C136.572 134.63 131.649 133.55 131.634 132.127C131.619 130.704 136.517 129.477 142.574 129.385C148.632 129.294 153.554 130.373 153.57 131.796C153.585 133.22 148.687 134.447 142.629 134.539Z" fill="#666666"/>
<path d="M142.608 132.86C136.55 132.951 131.628 131.872 131.612 130.448C131.597 129.025 136.495 127.798 142.553 127.706C148.61 127.615 153.533 128.695 153.548 130.118C153.563 131.541 148.665 132.768 142.608 132.86Z" fill="#B3B3B3"/>
<path d="M139.529 47.7873L143.467 47.7274C146.994 47.6738 149.884 50.4416 149.92 53.9096L150.015 62.7841C150.052 66.2521 147.222 69.1069 143.694 69.1606L139.756 69.2205C136.229 69.2741 133.339 66.5063 133.303 63.0383L133.208 54.1637C133.171 50.6958 136.001 47.841 139.529 47.7873Z" fill="#483737"/>
<path d="M141.073 66.7849L142.468 66.7644C143.133 66.7546 143.679 67.3392 143.687 68.07L144.264 121.983C144.272 122.713 143.739 123.314 143.074 123.324L141.679 123.344C141.014 123.354 140.468 122.769 140.461 122.039L139.883 68.1259C139.875 67.3951 140.408 66.7947 141.073 66.7849Z" fill="#483E37"/>
<path d="M139.926 71.8299L143.645 71.7734C144.384 71.7621 144.99 72.342 144.998 73.0686L145.021 75.2219C145.028 75.9484 144.435 76.5465 143.696 76.5578L139.977 76.6143C139.238 76.6255 138.632 76.0456 138.624 75.3191L138.601 73.1658C138.594 72.4393 139.187 71.8411 139.926 71.8299Z" fill="#A02C2C"/>
<path d="M143.349 46.8997L143.365 48.4008C143.369 48.7811 143.683 49.0823 144.07 49.0764C144.457 49.0705 144.765 48.7599 144.761 48.3796L144.745 46.913C145.146 46.947 145.535 47.017 145.912 47.1167L145.926 48.3619C145.93 48.7421 146.244 49.0434 146.631 49.0375C147.018 49.0316 147.326 48.7209 147.322 48.3406L147.315 47.661C148.861 48.4726 150.04 49.8647 150.555 51.5512L144.227 51.6474C143.768 51.6544 143.402 52.0233 143.407 52.4745C143.412 52.9258 143.785 53.2835 144.244 53.2765L150.832 53.1763C150.836 53.248 150.839 53.3197 150.84 53.392L150.852 54.5347L144.258 54.6349C143.799 54.6419 143.434 55.0108 143.439 55.4621C143.443 55.9133 143.817 56.271 144.276 56.264L150.87 56.1637L150.884 57.5222L144.29 57.6225C143.831 57.6294 143.465 57.9983 143.47 58.4496C143.475 58.9008 143.848 59.2585 144.307 59.2515L150.901 59.1512L150.916 60.5097L144.322 60.61C143.863 60.6169 143.497 60.9858 143.502 61.4371C143.507 61.8883 143.88 62.246 144.339 62.239L150.933 62.1388L150.945 63.2811C150.946 63.3535 150.944 63.4254 150.942 63.4973L144.354 63.5975C143.895 63.6045 143.529 63.9734 143.534 64.4246C143.539 64.8758 143.912 65.2335 144.371 65.2265L150.699 65.1303C150.22 66.8317 149.071 68.2591 147.543 69.1173L147.537 68.5469C147.533 68.1667 147.218 67.8651 146.831 67.871C146.444 67.8769 146.136 68.1879 146.14 68.5681L146.152 69.7042C145.778 69.8154 145.39 69.8973 144.99 69.9433L144.976 68.5859C144.972 68.2056 144.657 67.904 144.27 67.9099C143.884 67.9158 143.575 68.2268 143.579 68.6071L143.594 69.999L142.43 70.0168L142.415 68.6248C142.411 68.2446 142.096 67.943 141.71 67.9488C141.323 67.9547 141.015 68.2658 141.019 68.646L141.034 70.038L139.869 70.0557L139.855 68.6637C139.851 68.2835 139.536 67.9819 139.149 67.9878C138.762 67.9937 138.454 68.3047 138.458 68.685L138.473 70.0424C138.072 70.0086 137.683 69.9384 137.306 69.8387L137.294 68.7027C137.29 68.3224 136.975 68.0208 136.588 68.0267C136.202 68.0326 135.894 68.3436 135.898 68.7239L135.904 69.2947C134.357 68.4833 133.178 67.091 132.663 65.4045L139.026 65.3078C139.485 65.3008 139.85 64.9319 139.846 64.4807C139.841 64.0294 139.467 63.6718 139.008 63.6788L132.386 63.7794C132.382 63.7076 132.379 63.6359 132.378 63.5634L132.366 62.4211L138.994 62.3203C139.453 62.3133 139.819 61.9444 139.814 61.4932C139.809 61.0419 139.436 60.6843 138.977 60.6912L132.349 60.792L132.334 59.4336L138.962 59.3328C139.421 59.3258 139.787 58.9569 139.782 58.5057C139.778 58.0544 139.404 57.6967 138.945 57.7037L132.317 57.8045L132.302 56.446L138.931 56.3453C139.39 56.3383 139.755 55.9694 139.751 55.5181C139.746 55.0669 139.372 54.7092 138.913 54.7162L132.285 54.817L132.273 53.6743C132.272 53.6019 132.274 53.5303 132.276 53.4584L138.899 53.3577C139.358 53.3508 139.723 52.9819 139.719 52.5306C139.714 52.0794 139.341 51.7217 138.882 51.7287L132.519 51.8254C132.998 50.1237 134.147 48.696 135.676 47.8377L135.683 48.5176C135.687 48.8979 136.001 49.1991 136.388 49.1932C136.775 49.1873 137.083 48.8767 137.079 48.4964L137.066 47.2512C137.441 47.1401 137.829 47.0582 138.228 47.0121L138.244 48.4787C138.248 48.8589 138.562 49.1602 138.949 49.1543C139.336 49.1484 139.644 48.8377 139.64 48.4575L139.624 46.9564L140.788 46.9387L140.804 48.4397C140.808 48.82 141.123 49.1212 141.51 49.1154C141.896 49.1095 142.204 48.7988 142.2 48.4185L142.184 46.9174L143.349 46.8997Z" fill="#B3B3B3"/>
<path d="M145.129 86.8176L145.622 129.79C144.635 129.977 143.6 130.08 142.556 130.095C141.512 130.107 140.475 130.031 139.483 129.871L138.99 86.9004L145.129 86.8176Z" fill="#4D4D4D"/>
<path d="M139.308 84.6856L144.708 84.6122C145.336 84.6037 145.852 85.1878 145.86 85.9169L145.874 87.105C145.882 87.8341 145.38 88.4321 144.752 88.4406L139.352 88.5139C138.724 88.5224 138.208 87.9383 138.2 87.2092L138.186 86.0211C138.178 85.292 138.68 84.6941 139.308 84.6856Z" fill="#333333"/>
</svg>
