<svg width="289" height="40" viewBox="0 0 289 40" fill="none" xmlns="http://www.w3.org/2000/svg">
<path d="M63.1561 19.6747C62.514 17.8931 58.5007 17.0024 58.5007 17.0024C57.7783 16.3546 58.581 15.6258 58.581 15.6258C58.902 15.1399 59.5442 14.4111 59.5442 14.4111C58.5007 14.897 57.2967 14.816 57.2967 14.816C56.9757 14.5731 57.4573 14.4921 57.4573 14.4921C60.3468 13.1964 59.9455 9.87634 59.9455 9.87634C58.9823 10.6861 57.377 10.4432 57.377 10.4432C56.2533 10.2812 56.2533 9.30949 56.2533 9.30949C56.4138 8.17581 57.9389 7.77092 57.9389 7.77092C56.2533 5.42256 51.2769 6.15136 51.2769 6.15136C52.3203 2.66931 50.715 0.563888 50.715 0.563888C45.1767 5.9894 35.6252 6.39429 35.6252 6.39429C35.3844 6.39429 34.8225 5.90843 34.8225 5.90843C33.8593 4.85571 34.4212 2.66931 34.4212 2.66931C33.6185 3.15518 32.8961 5.17963 32.8961 5.17963C32.4145 5.82745 32.254 4.85571 32.254 4.85571C31.933 2.3454 30.3277 1.29269 30.3277 1.29269C30.729 2.66931 30.0869 4.85571 30.0869 4.85571C29.7658 5.50354 29.3645 5.2606 29.3645 5.2606C28.2408 4.69376 28.5618 3.0742 28.5618 3.0742C26.4749 4.20789 26.4749 6.15136 26.4749 6.15136C18.2879 5.66549 13.1509 0.48291 13.1509 0.48291C12.0272 3.0742 12.7496 5.58451 12.7496 5.58451C11.3851 4.61278 9.53899 4.85571 9.53899 4.85571C11.1443 6.39429 9.29819 6.7182 9.29819 6.7182C5.76653 6.55625 4.88361 8.33776 4.88361 8.33776C5.52573 8.58069 6.08759 9.47145 6.08759 9.47145C6.64944 10.9291 5.76653 11.3339 5.76653 11.3339C4.48228 11.9818 3.11778 9.87634 3.11778 9.87634C2.87698 14.2491 5.68626 14.897 5.68626 14.897C5.20467 15.4638 2.95725 15.1399 2.95725 15.1399C4.96388 16.1116 4.80334 17.0024 4.80334 17.0024C4.56255 17.8931 3.11778 17.8122 3.11778 17.8122C1.99407 17.9741 1.19141 18.7029 1.19141 18.7029C3.84016 19.5127 3.7599 21.4562 3.7599 21.4562C2.31513 22.8328 1.03088 21.2132 1.03088 21.2132C1.59274 24.5333 4.48228 24.8572 4.48228 24.8572C5.28494 25.3431 4.72308 25.667 4.72308 25.667C4.40202 26.0719 3.27831 27.2056 3.27831 27.2056C2.55592 27.8534 2.55592 29.6349 2.55592 29.6349C3.11778 28.9871 5.20467 28.5012 5.20467 28.5012C7.2113 28.4203 6.72971 30.2018 6.72971 30.2018C6.72971 31.0116 5.12441 32.6311 5.12441 32.6311C6.24812 33.2789 8.97713 33.2789 8.97713 33.2789C10.3416 33.2789 10.2614 33.8458 10.2614 33.8458C10.3416 35.0605 9.0574 36.599 9.0574 36.599C9.94031 35.7893 12.9101 35.1414 12.9101 35.1414C14.4352 34.9795 13.9536 35.7893 14.0338 35.7893C13.7128 37.7327 14.4352 39.4333 14.5154 39.6762C15.1575 37.6517 16.6023 36.9229 16.7628 36.842C17.8866 36.4371 17.726 37.4088 17.726 37.5708C18.0471 37.8137 19.5721 38.7854 21.8998 38.1376C23.1841 37.8137 24.7091 37.2469 26.0736 36.1941C26.796 35.7083 27.6789 34.8985 28.5618 33.6838C28.9631 33.117 29.4447 32.4692 29.8461 31.6594H29.9263C30.729 30.2828 31.3711 28.5822 31.8527 26.4768C31.8527 26.4768 32.3343 28.9871 33.5383 31.6594H33.8593C33.8593 31.6594 35.7857 35.3844 38.5147 37.0039C41.5648 38.8664 42.849 39.4333 45.4978 39.1093C45.8991 39.0284 46.1399 39.0284 46.2201 38.9474C46.1399 38.8664 46.1399 38.7854 46.0596 38.7045C46.8623 37.4898 47.5847 38.0566 47.5847 38.0566C47.986 38.3805 47.9057 39.0284 47.9057 39.0284C49.8321 38.2186 50.1531 35.7893 50.1531 35.7893C50.715 34.7365 51.5176 35.3844 51.5176 35.3844C52.4006 35.7893 52.7216 37.1659 52.7216 37.1659C53.444 35.3034 52.9624 33.4409 52.9624 33.4409C52.8019 32.7121 53.2835 32.955 53.2835 32.955C56.7349 33.6838 57.6981 32.7931 57.6981 32.7931C56.4941 32.2262 56.3336 30.4447 56.3336 30.4447C56.4138 29.0681 57.6981 29.392 57.6981 29.392C58.9823 29.6349 59.7047 30.5257 59.7047 30.5257C59.9455 28.3393 58.1797 26.5578 58.1797 26.5578C57.9389 25.829 58.4205 25.5051 58.4205 25.5051C61.7113 24.2904 61.7113 22.4279 61.7113 22.4279C59.785 22.8328 59.3836 21.2132 59.3836 21.2132C60.5073 18.8649 63.1561 19.6747 63.1561 19.6747Z" fill="#225054"/>
<path d="M32.0134 23.1541C30.1673 23.8019 28.3212 27.3649 28.3212 27.3649C28.562 30.766 31.9331 33.8431 32.0134 33.9241C32.0936 33.8431 35.3042 30.766 35.545 27.3649C35.545 27.3649 33.7792 23.8019 32.0134 23.1541Z" fill="#0A5B59"/>
<path d="M28.4028 28.095C28.4028 28.095 30.1687 24.8559 31.9345 24.2891V34.0064C32.0148 34.0064 28.6436 31.2532 28.4028 28.095Z" fill="#FAB84A"/>
<path d="M35.3838 28.095C35.3838 28.095 33.6982 24.8559 31.9324 24.2891V34.0064C31.9324 34.0064 35.143 31.1722 35.3838 28.095Z" fill="#E9934C"/>
<path d="M17.9689 32.1449C23.9977 32.1449 28.885 27.2142 28.885 21.1319C28.885 15.0496 23.9977 10.1189 17.9689 10.1189C11.9401 10.1189 7.05286 15.0496 7.05286 21.1319C7.05286 27.2142 11.9401 32.1449 17.9689 32.1449Z" fill="#0A5B59"/>
<path d="M18.6087 32.2237C24.0612 32.2237 28.4813 27.5105 28.4813 21.6966C28.4813 15.8826 24.0612 11.1694 18.6087 11.1694C13.1562 11.1694 8.73608 15.8826 8.73608 21.6966C8.73608 27.5105 13.1562 32.2237 18.6087 32.2237Z" fill="#F2EEE3"/>
<path d="M46.0614 32.1449C52.0902 32.1449 56.9775 27.2142 56.9775 21.1319C56.9775 15.0496 52.0902 10.1189 46.0614 10.1189C40.0327 10.1189 35.1454 15.0496 35.1454 21.1319C35.1454 27.2142 40.0327 32.1449 46.0614 32.1449Z" fill="#0A5B59"/>
<path d="M45.3378 32.2237C50.7903 32.2237 55.2104 27.5105 55.2104 21.6966C55.2104 15.8826 50.7903 11.1694 45.3378 11.1694C39.8853 11.1694 35.4652 15.8826 35.4652 21.6966C35.4652 27.5105 39.8853 32.2237 45.3378 32.2237Z" fill="#F2EEE3"/>
<path d="M20.8565 28.258C24.0482 28.258 26.6356 25.6476 26.6356 22.4276C26.6356 19.2075 24.0482 16.5972 20.8565 16.5972C17.6648 16.5972 15.0774 19.2075 15.0774 22.4276C15.0774 25.6476 17.6648 28.258 20.8565 28.258Z" fill="#FAB84A"/>
<path d="M20.8567 26.7195C23.2504 26.7195 25.191 24.7617 25.191 22.3467C25.191 19.9316 23.2504 17.9739 20.8567 17.9739C18.4629 17.9739 16.5223 19.9316 16.5223 22.3467C16.5223 24.7617 18.4629 26.7195 20.8567 26.7195Z" fill="#201E1E"/>
<path d="M18.4479 20.9686C19.2015 20.9686 19.8124 20.3522 19.8124 19.592C19.8124 18.8317 19.2015 18.2153 18.4479 18.2153C17.6943 18.2153 17.0834 18.8317 17.0834 19.592C17.0834 20.3522 17.6943 20.9686 18.4479 20.9686Z" fill="#FEFEFE"/>
<path d="M43.4102 28.258C46.6019 28.258 49.1893 25.6476 49.1893 22.4276C49.1893 19.2075 46.6019 16.5972 43.4102 16.5972C40.2185 16.5972 37.6311 19.2075 37.6311 22.4276C37.6311 25.6476 40.2185 28.258 43.4102 28.258Z" fill="#FAB84A"/>
<path d="M43.492 26.7979C45.8858 26.7979 47.8263 24.8401 47.8263 22.4251C47.8263 20.01 45.8858 18.0522 43.492 18.0522C41.0983 18.0522 39.1577 20.01 39.1577 22.4251C39.1577 24.8401 41.0983 26.7979 43.492 26.7979Z" fill="#201E1E"/>
<path d="M41.0833 20.9686C41.8369 20.9686 42.4478 20.3522 42.4478 19.592C42.4478 18.8317 41.8369 18.2153 41.0833 18.2153C40.3297 18.2153 39.7188 18.8317 39.7188 19.592C39.7188 20.3522 40.3297 20.9686 41.0833 20.9686Z" fill="#FEFEFE"/>
<path d="M22.3822 37.9757C22.3822 37.9757 20.215 38.7854 17.6465 37.4088C17.6465 37.4088 15.7201 36.599 14.5964 40.0001C14.5162 40.0001 13.2319 38.8664 13.7135 36.1132C13.7135 36.1132 14.0346 35.3844 12.5898 35.5463C12.5898 35.5463 9.1384 36.68 8.65681 37.3278C8.65681 37.3278 9.94105 35.3844 9.86079 34.0887C9.86079 34.0887 9.86079 33.6029 8.57655 33.6838C8.57655 33.6838 5.84753 33.6838 4.72382 32.8741C4.88435 32.8741 6.32912 31.5784 6.48965 30.4447C6.48965 30.4447 6.81071 28.7442 5.28568 28.8252C5.28568 28.8252 3.43958 28.8252 2.31587 29.9588C2.31587 29.9588 1.91454 27.6915 4.40276 25.829C4.40276 25.829 4.96462 25.5051 4.32249 25.1812C4.32249 25.1812 1.51321 24.2904 0.871094 20.9703C0.871094 20.9703 1.99481 22.4279 3.11852 21.8611C3.11852 21.8611 3.35931 21.7801 3.43958 21.4562C3.43958 21.4562 3.35931 19.5127 0.871094 18.7029C0.871094 18.7029 1.67375 17.8122 3.51984 17.6502C3.51984 17.6502 4.80409 17.2453 4.16196 16.3546C4.16196 16.3546 3.27905 15.3828 2.71719 15.0589C2.71719 15.0589 4.72382 15.1399 5.36594 14.735C5.28568 14.735 2.55666 14.4111 3.03825 9.71439C3.03825 9.71439 5.04488 12.6296 5.9278 10.6051C5.84753 10.4432 6.24886 9.22852 4.48303 8.25678C4.48303 8.25678 5.60674 6.47527 8.97787 6.39429C8.97787 6.39429 10.5832 5.9894 9.21867 4.61278C9.21867 4.61278 11.4661 4.20789 12.4293 5.17963C12.4293 5.09865 12.0279 3.15518 13.0714 0.48291C13.0714 0.48291 12.7503 5.34158 13.4727 7.20407C13.3925 7.12309 12.2687 5.58451 10.824 5.01767C10.824 5.01767 11.5464 7.52798 8.97787 7.60896C8.97787 7.60896 6.89098 7.20407 5.9278 8.01385C5.9278 8.01385 7.45284 10.8481 6.24886 12.0627C6.24886 12.0627 5.12515 13.0345 3.76064 11.6579C3.76064 11.6579 3.60011 13.9252 6.56992 14.5731C6.56992 14.5731 6.08833 15.7877 4.56329 15.7877C4.56329 15.7877 5.84753 17.0024 4.88435 17.9741C4.88435 17.9741 3.92117 18.7839 2.71719 18.7839C2.71719 18.7839 4.80409 19.9986 4.56329 21.942C4.56329 21.942 3.92117 23.4806 2.15534 22.9138C2.15534 22.9138 3.27905 23.8855 5.12515 24.5333C5.12515 24.5333 6.24886 25.2621 5.76727 26.0719C5.76727 26.0719 4.00143 26.7197 3.51984 28.5012C3.51984 28.5012 6.08833 27.2056 7.2923 28.1773C7.2923 28.1773 8.09496 30.5257 6.16859 32.4692C6.16859 32.4692 9.94105 33.117 11.4661 32.8741C11.4661 32.8741 10.9845 34.9795 10.5832 35.5463C10.824 35.4653 13.6333 34.2507 15.3991 34.6556C15.3991 34.6556 14.1148 37.1659 14.2754 38.0566C14.2754 38.0566 16.5228 35.7083 18.3689 36.0322C18.4492 35.9512 17.807 37.4088 22.3822 37.9757Z" fill="#163C3F"/>
<path d="M41.4054 38.3805C41.4054 38.3805 43.0107 39.7572 46.4621 38.9474C46.4621 38.9474 46.9437 38.7854 47.2647 38.5425C47.2647 38.5425 47.9069 37.9757 47.9069 39.1093C47.9069 39.1093 50.2346 38.6235 50.5556 36.1132C50.5556 36.1132 50.7162 35.1414 51.7596 35.8702C51.7596 35.8702 52.3215 36.3561 52.6425 37.6517C52.6425 37.6517 53.9268 35.5463 53.2846 33.5219C53.2846 33.5219 53.2846 33.117 53.686 33.198C53.686 33.198 56.6558 34.0887 58.0203 32.874C58.0203 32.874 56.415 31.9833 56.8163 29.8779C56.8163 29.8779 57.1374 29.23 58.3413 29.6349C58.3413 29.6349 59.6256 30.1208 59.7861 30.7686C59.7861 30.7686 60.2677 28.3393 58.4216 26.5578C58.4216 26.5578 57.94 25.9909 58.7427 25.586C58.7427 25.586 61.4717 24.4524 61.873 22.3469C61.873 22.3469 60.1874 23.0757 59.5453 21.2942C59.5453 21.2942 60.4282 19.0268 63.1572 19.7556C63.1572 19.7556 62.3546 17.7312 58.5821 17.0024C58.5821 17.0024 57.8597 16.7595 58.5821 15.7067L59.7861 14.1682C59.7861 14.1682 58.1005 15.0589 57.2979 14.654C57.2979 14.654 57.0571 14.5731 57.4584 14.4111C57.4584 14.4111 60.1874 13.1964 59.8664 9.55243C59.8664 9.55243 57.4584 11.3339 56.3347 9.63341C56.3347 9.63341 55.9334 8.58069 58.1808 7.60896C58.1808 7.60896 57.1374 5.34158 51.4385 5.9894C51.4385 5.9894 52.4017 2.83127 50.5556 0.48291C50.5556 0.48291 52.0807 5.50354 50.1543 7.28505C50.1543 7.28505 53.7662 5.74647 57.2979 7.447C57.2979 7.447 55.1307 7.447 55.8531 10.2003C55.8531 10.2003 56.6558 11.4959 59.2243 10.9291C59.2243 10.9291 57.8597 13.6823 56.2544 14.654C56.2544 14.654 57.4584 15.3828 58.2611 15.3019C58.1808 15.4638 57.2176 17.0024 56.8966 17.1643C56.8966 17.1643 59.3848 17.4883 61.0704 18.8649C61.0704 18.8649 59.465 19.2698 58.7427 21.4562C58.7427 21.4562 59.6256 23.0757 60.5085 23.3187C60.5085 23.2377 58.6624 25.1002 57.1374 25.586C57.2176 25.748 58.9032 28.5012 59.2243 29.554C59.2243 29.554 57.8597 28.3393 56.1742 29.311C56.1742 29.311 55.5321 31.2545 56.3347 32.7121C56.3347 32.7121 54.1676 32.955 52.5623 32.3072C52.5623 32.3072 52.7228 35.2224 52.482 35.9512C52.482 35.9512 51.1175 34.7365 49.8332 34.8985C49.8332 34.8985 49.5924 37.4898 48.6293 37.8137C48.6293 37.8137 48.0674 37.0849 47.345 36.842C47.7463 36.842 45.2581 39.3523 41.4054 38.3805Z" fill="#163C3F"/>
<path d="M84.4063 10.449C83.0789 10.438 81.6528 10.5928 80.4022 11.0798C80.4022 11.0798 73.9846 13.5811 73.4032 20.6421C73.4032 20.6421 72.6133 26.4857 75.2351 30.2819C75.2351 30.2819 77.2538 33.7018 81.554 34.6868C81.554 34.6868 90.3849 37.2433 95.0142 29.1751C95.0142 29.1751 95.4093 28.4557 94.9157 27.8691L92.195 26.1979C92.195 26.1979 91.4382 25.866 90.8567 26.7182C90.8567 26.7182 89.6171 29.0534 87.5109 29.7728C87.5109 29.7728 84.5598 30.8574 82.1244 29.7728C82.1244 29.7728 78.8551 28.6882 78.3834 23.3647H94.8608C94.8608 23.3647 95.6723 23.4312 95.804 22.4683C95.804 22.4683 96.3637 13.6253 89.1564 11.0908C89.1235 11.0798 86.9403 10.4601 84.4063 10.449ZM84.7791 14.9091C86.7098 14.887 87.9497 15.5621 87.9497 15.5621C90.7032 16.8792 90.6373 19.9117 90.6373 19.9117H78.6688C79.6013 16.3923 81.5322 15.5954 81.5322 15.5954C82.7279 15.0974 83.8356 14.9202 84.7791 14.9091Z" fill="#0C5257"/>
<path d="M116.306 0C116.306 0 115.67 0.0332457 115.527 0.874375V14.8858C115.527 14.8858 114.398 12.0083 111.589 11.0011C111.589 11.0011 107.958 9.75041 104.733 11.0232C104.733 11.0232 100.729 12.1521 98.8747 18.6044C98.8747 18.6044 97.8767 21.8362 98.7543 26.6063C98.7543 26.6063 99.5111 31.4205 104.097 34.1542C104.097 34.1542 107.366 36.1464 112.148 34.1542C112.148 34.1542 114.233 33.3352 115.549 31.166V33.1692C115.549 33.1692 115.505 33.9328 116.284 34.0546H119.696C119.696 34.0546 120.475 33.9329 120.453 33.0918V0.907447C120.453 0.907447 120.453 0.199215 119.597 0H116.306ZM109.571 15.0185C113.037 15.0185 115.845 18.5269 115.845 22.8654C115.845 27.2038 113.037 30.7123 109.571 30.7123C106.104 30.7123 103.296 27.2038 103.296 22.8654C103.296 18.5269 106.104 15.0185 109.571 15.0185Z" fill="#0C5257"/>
<path d="M125.063 11.2111H128.212C128.212 11.2111 129.012 11.1115 129.111 12.1408L129.144 25.4882C129.144 25.4882 129.21 29.2844 132.391 30.1145C132.391 30.1145 134.804 30.7232 136.911 30.1145C136.911 30.1145 140.169 29.3841 140.191 25.4551V12.1631C140.191 12.1631 140.092 11.2443 141.014 11.2111H144.206C144.206 11.2111 145.149 11.1226 145.193 12.0301V23.95C145.193 23.95 145.215 31.1548 140.937 33.5564C140.937 33.5564 135.276 36.8656 128.31 33.5564C128.31 33.5564 124.822 32.1287 124.24 25.0344V12.0524C124.229 12.0524 124.24 11.2443 125.063 11.2111Z" fill="#0C5257"/>
<path d="M165.641 15.6841V12.2755C165.641 12.2755 165.695 11.7885 164.939 11.4454C164.939 11.4454 159.695 8.91094 153.804 11.8328C153.804 11.8328 149.624 13.6809 148.33 18.8273C148.33 18.8273 147.255 23.3319 148.33 26.6079C148.33 26.6079 149.537 32.0309 154.407 33.9788C154.407 33.9788 158.784 36.3362 165.026 33.8017C165.026 33.8017 165.663 33.6356 165.652 32.8941V29.5738C165.652 29.5738 165.433 28.5446 164.467 28.7881C164.467 28.7881 164.171 28.8766 163.831 29.1201C163.831 29.1201 162.69 29.9613 161.318 30.1494C161.318 30.1494 158.467 30.6807 156.459 29.4854C156.459 29.4854 153.618 28.4119 153.003 23.675C153.003 23.675 152.784 21.7048 153.003 20.8858C153.003 20.8858 153.64 16.2819 157.775 15.319C157.775 15.319 159.871 14.7545 162.438 15.3964C162.438 15.3964 163.732 15.9276 164.16 16.2928C164.149 16.2928 165.18 16.9458 165.641 15.6841Z" fill="#0C5257"/>
<path d="M176.765 10.5137C175.723 10.5137 174.571 10.6464 173.463 11.0891C173.463 11.0891 169.47 12.218 167.616 18.6703C167.616 18.6703 166.618 21.9021 167.495 26.6722C167.495 26.6722 168.252 31.4865 172.837 34.2201C172.837 34.2201 176.107 36.2123 180.879 34.2201C180.879 34.2201 182.963 33.4011 184.279 31.2319V33.2351C184.279 33.2351 184.235 33.9987 185.014 34.1205H188.426C188.426 34.1205 189.205 33.9988 189.183 33.1577V12.1074C189.183 12.1074 189.183 11.399 188.328 11.1998H185.014C185.014 11.1998 184.378 11.233 184.236 12.0741V14.9517C184.236 14.9517 183.106 12.0742 180.308 11.067C180.319 11.067 178.75 10.5247 176.765 10.5137ZM178.279 15.0844C181.745 15.0844 184.554 18.5928 184.554 22.9313C184.554 27.2587 181.745 30.7782 178.279 30.7782C174.812 30.7782 172.004 27.2698 172.004 22.9313C172.004 18.6039 174.812 15.0844 178.279 15.0844Z" fill="#0C5257"/>
<path d="M210.168 15.6711V12.2623C210.168 12.2623 210.223 11.7753 209.466 11.4322C209.466 11.4322 204.222 8.89776 198.331 11.8196C198.331 11.8196 194.151 13.668 192.857 18.8144C192.857 18.8144 191.782 23.3187 192.857 26.5947C192.857 26.5947 194.064 32.0179 198.935 33.9658C198.935 33.9658 203.312 36.323 209.554 33.7885C209.554 33.7885 210.19 33.6226 210.179 32.8811V29.5608C210.179 29.5608 209.959 28.5316 208.994 28.7751C208.994 28.7751 208.698 28.8636 208.358 29.1071C208.358 29.1071 207.217 29.9481 205.846 30.1363C205.846 30.1363 202.993 30.6675 200.986 29.4722C200.986 29.4722 198.145 28.3987 197.53 23.6618C197.53 23.6618 197.311 21.6918 197.53 20.8839C197.53 20.8839 198.167 16.2799 202.302 15.3171C202.302 15.3171 204.398 14.7525 206.965 15.3945C206.965 15.3945 208.259 15.9257 208.687 16.2909C208.665 16.2798 209.707 16.9218 210.168 15.6711Z" fill="#DF2B3C"/>
<path fill-rule="evenodd" clip-rule="evenodd" d="M239.621 10.4026C232.985 10.4026 227.609 15.9585 227.609 22.7982C227.609 29.6379 232.985 35.1938 239.621 35.1938C246.258 35.1938 251.634 29.6379 251.634 22.7982C251.634 15.9585 246.258 10.4026 239.621 10.4026ZM239.621 15.0509C243.384 15.0509 246.434 18.5261 246.434 22.8092C246.434 27.0923 243.384 30.5675 239.621 30.5675C235.859 30.5675 232.809 27.0923 232.809 22.8092C232.809 18.5261 235.859 15.0509 239.621 15.0509Z" fill="#DF2B3C"/>
<path d="M213.547 13.0583V33.9316C213.547 33.9316 213.481 34.9607 214.578 35.005H217.749C217.749 35.005 218.527 35.0051 218.615 34.0865V23.5061C218.615 23.5061 218.539 17.8284 221.171 16.2679C221.171 16.2679 222.729 15.4045 225.241 16.1903C225.241 16.1903 226.075 16.5556 226.558 16.0132L227.732 13.2133C227.732 13.2133 227.995 12.1507 227.249 11.9626C227.249 11.9626 223.64 10.236 220.766 12.4827C220.766 12.4827 219.328 13.512 218.67 15.6812V13.025C218.67 13.025 218.703 12.0954 217.792 12.0843H214.425C214.414 12.0954 213.723 12.0954 213.547 13.0583Z" fill="#DF2B3C"/>
<path d="M264.601 15.8587C264.601 15.8587 265.051 16.4675 265.961 16.0027L267.958 14.4753C267.958 14.4753 268.496 13.9885 268.079 13.3244C268.079 13.3244 266.543 10.7567 262.933 10.4579C262.933 10.4579 260.345 10.2366 258.886 10.6793C258.886 10.6793 254.223 11.5426 253.379 15.87C253.379 15.87 253.083 17.1206 253.455 18.8029C253.455 18.8029 253.916 21.5143 257.58 23.1522C257.58 23.1522 262.275 25.3104 262.516 25.4211C262.516 25.4211 265.171 26.4946 264.656 28.686C264.656 28.686 264.48 30.5676 262.374 30.9771C262.374 30.9771 258.545 31.9509 256.757 28.852C256.757 28.852 256.308 27.8669 255.43 28.0883L252.874 29.5383C252.874 29.5383 252.139 30.0031 252.611 30.8331C252.611 30.8331 253.664 32.8584 255.704 33.943C255.704 33.943 258.798 36.0127 264.261 34.6071C264.261 34.6071 268.045 33.3565 268.989 30.8441C268.989 30.8441 270.042 28.7746 269.384 25.7974C269.384 25.7974 268.748 23.2409 265.731 21.7357C265.731 21.7357 261.562 19.8653 261.003 19.6993C261.003 19.6993 258.227 18.5151 258.271 17.0431C258.271 17.0431 257.811 15.4161 259.73 14.6303C259.73 14.6303 261.222 13.8888 263.142 14.6303C263.131 14.6303 264.063 15.0176 264.601 15.8587Z" fill="#DF2B3C"/>
<path d="M283.119 16.0904C283.119 16.0904 283.569 16.699 284.479 16.2341L286.476 14.707C286.476 14.707 287.013 14.2199 286.596 13.5559C286.596 13.5559 285.06 10.9882 281.451 10.6894C281.451 10.6894 278.862 10.468 277.403 10.9107C277.403 10.9107 272.741 11.774 271.896 16.1014C271.896 16.1014 271.6 17.352 271.973 19.0343C271.973 19.0343 272.434 21.7457 276.098 23.3837C276.098 23.3837 280.793 25.5419 281.034 25.6525C281.034 25.6525 283.689 26.7262 283.173 28.9287C283.173 28.9287 282.998 30.8101 280.903 31.2196C280.903 31.2196 277.074 32.1936 275.286 29.0947C275.286 29.0947 274.836 28.1096 273.959 28.331L271.402 29.7808C271.402 29.7808 270.668 30.2455 271.139 31.0756C271.139 31.0756 272.192 33.1011 274.233 34.1857C274.233 34.1857 277.326 36.2554 282.789 34.8498C282.789 34.8498 286.574 33.5992 287.518 31.0868C287.518 31.0868 288.571 29.017 287.912 26.0399C287.912 26.0399 287.276 23.4834 284.26 21.9782C284.26 21.9782 280.091 20.1078 279.531 19.9417C279.531 19.9417 276.756 18.7575 276.8 17.2855C276.8 17.2855 276.339 15.6588 278.259 14.873C278.259 14.873 279.751 14.1314 281.671 14.873C281.66 14.8619 282.592 15.2493 283.119 16.0904Z" fill="#DF2B3C"/>
</svg>
