<svg width="45" height="33" viewBox="0 0 45 33" fill="none" xmlns="http://www.w3.org/2000/svg">
<path fill-rule="evenodd" clip-rule="evenodd" d="M30.8126 8.96594C30.8126 13.6654 27.0661 17.4337 22.3938 17.4337C17.7215 17.4337 13.975 13.6654 13.975 8.96594C13.975 4.26464 17.7215 0.5 22.3938 0.5C27.0661 0.5 30.8126 4.26464 30.8126 8.96594ZM22.4004 32.5013C15.5378 32.5013 9.67816 31.4133 9.67816 27.0614C9.67816 22.7078 15.5002 21.5802 22.4004 21.5802C29.2629 21.5802 35.1226 22.6682 35.1226 27.0218C35.1226 31.3737 29.3006 32.5013 22.4004 32.5013ZM34.4161 9.11756C34.4161 11.5132 33.7016 13.745 32.448 15.6003C32.319 15.7912 32.4336 16.0488 32.6611 16.0884C32.9745 16.1425 33.2986 16.1731 33.6281 16.1821C36.9144 16.2686 39.8639 14.1413 40.6787 10.9386C41.8858 6.1815 38.3417 1.9107 33.8287 1.9107C33.338 1.9107 32.8688 1.96294 32.4122 2.05661C32.3495 2.07102 32.2832 2.09984 32.2474 2.15568C32.2044 2.22412 32.2367 2.31599 32.2796 2.37543C33.6353 4.28657 34.4161 6.61741 34.4161 9.11756ZM39.8574 19.5271C42.0655 19.9612 43.5179 20.8474 44.1196 22.1353C44.6282 23.1926 44.6282 24.4193 44.1196 25.4748C43.1991 27.4724 40.2317 28.1137 39.0784 28.2794C38.8402 28.3154 38.6486 28.1083 38.6737 27.8687C39.2628 22.3334 34.5762 19.709 33.3638 19.1056C33.3118 19.0786 33.3011 19.0371 33.3065 19.0119C33.31 18.9939 33.3315 18.9651 33.3709 18.9597C35.9945 18.911 38.8151 19.2713 39.8574 19.5271ZM11.3741 16.1821C11.7036 16.1731 12.0259 16.1443 12.3411 16.0884C12.5686 16.0488 12.6832 15.7912 12.5542 15.6003C11.3006 13.745 10.5861 11.5132 10.5861 9.11756C10.5861 6.61741 11.3669 4.28657 12.7226 2.37543C12.7656 2.31599 12.796 2.22412 12.7548 2.15568C12.719 2.10164 12.6509 2.07102 12.5901 2.05661C12.1316 1.96294 11.6624 1.9107 11.1717 1.9107C6.65875 1.9107 3.11464 6.1815 4.32347 10.9386C5.13831 14.1413 8.08785 16.2686 11.3741 16.1821ZM11.6927 19.0101C11.6981 19.0371 11.6873 19.0768 11.6372 19.1056C10.423 19.709 5.73634 22.3334 6.32553 27.8669C6.3506 28.1083 6.16077 28.3136 5.92259 28.2794C4.76928 28.1137 1.80183 27.4724 0.88133 25.4748C0.370937 24.4175 0.370937 23.1926 0.88133 22.1353C1.48306 20.8474 2.93365 19.9612 5.14177 19.5253C6.18584 19.2713 9.00465 18.911 11.63 18.9597C11.6694 18.9651 11.6891 18.9939 11.6927 19.0101Z" fill="#7367F0"/>
</svg>
