<svg width="206" height="238" viewBox="0 0 206 238" fill="none" xmlns="http://www.w3.org/2000/svg">
<path fill-rule="evenodd" clip-rule="evenodd" d="M116.51 152.446C116.51 152.446 136.915 171.575 167.043 160.735C167.043 160.735 193.824 148.46 200.2 125.505C200.2 125.505 207.223 103.263 200.46 87.933C200.46 87.933 188.286 64.4873 178.141 75.9847C178.141 75.9847 176.418 77.7062 176.418 81.5387C176.418 81.5387 170.364 79.5917 168.223 83.0861C168.223 83.0861 166.081 86.4677 167.659 90.5255C167.659 90.5255 158.345 87.1166 157.781 97.8249C157.781 97.8249 164.21 145.296 125.276 137.642C125.276 137.642 121.331 136.853 118.851 138.093C118.851 138.093 107.294 141.436 116.51 152.446Z" fill="#1B4043"/>
<path fill-rule="evenodd" clip-rule="evenodd" d="M105.775 112.281C109.833 100.783 117.724 106.87 117.724 106.87C127.192 112.732 128.995 131.443 128.995 131.443C129.898 175.066 104.197 205.387 104.197 205.387C104.197 205.387 95.1797 215.306 95.4054 200.878C95.4054 200.878 94.2782 193.439 98.1104 176.531C98.0192 176.039 104.555 157.707 104.714 152.446C104.714 152.446 105.033 141.606 103.758 134.752C103.758 134.752 101.735 118.663 105.775 112.281Z" fill="#1B4043"/>
<path fill-rule="evenodd" clip-rule="evenodd" d="M88.2205 218.424C88.2205 218.424 89.1228 221.58 93.7438 220.904C93.7438 220.904 97.576 220.904 100.225 224.004C100.225 224.004 101.916 225.694 102.48 227.723C102.48 227.723 103.494 232.683 107.383 231.894C107.383 231.894 109.863 231.781 111.215 228.118C111.215 228.118 113.723 229.189 115.921 226.737C115.921 226.737 116.908 225.413 116.739 222.679C116.739 222.679 119.5 222.933 118.767 217.663C118.767 217.663 116.893 205.089 103.343 205.169C103.343 205.169 96.5683 205.328 91.7063 208.516C91.7063 208.516 86.9662 211.275 88.2205 218.424Z" fill="#A7731E"/>
<path fill-rule="evenodd" clip-rule="evenodd" d="M56.3031 222.05C56.3031 222.05 67.1429 231.296 89.9384 219.659C89.9384 219.659 108.107 210.563 117.034 178.362C117.034 178.362 127.452 143.224 121.342 121.144C121.342 121.144 118.889 107.82 104.912 103.649C104.912 103.649 76.5065 94.8573 61.9658 118.528C61.9658 118.528 55.6543 126.306 59.8244 140.621C59.8244 140.621 67.8275 164.631 57.9084 183.117C54.1514 189.128 38.9275 204.834 56.3031 222.05Z" fill="#D6D4C8"/>
<path fill-rule="evenodd" clip-rule="evenodd" d="M84.8094 134.994C84.8094 134.994 94.0333 132.839 98.1779 130.289C98.1779 130.289 105.67 132.042 110.293 130.448C110.293 130.448 116.405 133.905 115.927 143.948C115.927 143.948 116.378 147.898 119.088 145.666C119.088 145.666 122.84 144.006 123.485 134.309C123.485 134.309 128.319 128.287 128.319 125.582C128.319 122.877 128.544 119.27 128.319 117.241C128.094 115.212 128.995 109.576 123.359 107.322C117.724 105.067 117.949 102.813 113.215 103.264C108.48 103.715 85.9369 101.46 82.7806 106.42C79.6243 111.379 77.5954 111.83 76.6938 119.044C75.7922 126.258 74.6648 127.386 76.243 130.542C77.8211 133.698 78.4969 137.981 80.5259 138.207C82.5548 138.432 84.8094 134.994 84.8094 134.994Z" fill="#ABAAA0"/>
<path fill-rule="evenodd" clip-rule="evenodd" d="M59.2496 138.626C59.411 139.326 59.5902 140.04 59.8044 140.775C59.8044 140.775 67.8081 164.784 57.889 183.27C54.1321 189.281 38.9081 204.987 56.2837 222.203C56.2837 222.203 67.1236 231.449 89.9191 219.812C89.9191 219.812 108.087 210.716 117.014 178.515C117.014 178.515 120.415 167.031 122.19 153.072C122.19 153.072 122.165 153.033 122.165 153.033C122.165 153.033 113.458 190.146 97.6772 198.037C97.6772 198.037 83.9251 205.25 77.8382 190.822C77.8382 190.822 72.652 170.082 75.3568 151.145C75.3568 151.145 67.2425 139.873 66.3402 139.873C65.7517 139.873 62.2791 138.916 59.2478 138.626L59.2496 138.626Z" fill="#ABAAA0"/>
<path fill-rule="evenodd" clip-rule="evenodd" d="M79.5239 104.349C73.2074 106.567 61.5792 110.493 56.767 118.326C56.767 118.326 51.6793 125.991 53.7077 140.758C53.7077 140.758 57.3863 166.509 50.035 180.945C46.301 186.92 39.2168 204.78 56.0963 221.873C64.2542 213.465 76.1815 195.475 83.3696 158.567C83.3696 158.567 89.126 129.717 79.5239 104.349Z" fill="#1B4043"/>
<path fill-rule="evenodd" clip-rule="evenodd" d="M84.9859 134.85C72.7478 143.694 55.5538 144.428 55.5538 144.428C55.5538 144.428 54.9445 144.384 54.0257 144.448C54.7341 151.664 55.821 169.999 49.9993 181.431C46.9183 186.361 41.5695 199.382 49.2677 213.387C52.9819 211.149 56.032 207.236 56.032 207.236C71.9697 189.704 81.4711 155.66 85.0208 140.834C85.0527 138.932 85.0466 136.931 84.9828 134.85L84.9859 134.85Z" fill="#225054"/>
<path d="M25.4736 86.8419C37.102 82.8856 45.5582 76.3891 44.3605 72.3319C43.1628 68.2746 32.7648 68.1929 21.1365 72.1492C9.50816 76.1055 1.05257 82.6018 2.25024 86.659C3.44791 90.7163 13.8453 90.7982 25.4736 86.8419Z" fill="#403A13"/>
<path fill-rule="evenodd" clip-rule="evenodd" d="M165.05 80.9345C166.661 88.0198 177.61 93.4947 177.61 93.4947C172.297 99.4527 165.325 97.2414 165.325 97.2414C166.692 103.39 173.979 104.984 173.979 104.984C169.88 109.311 159.177 109.994 159.177 109.994C165.781 111.36 165.553 117.509 165.553 117.509C161.909 112.044 154.85 115.915 154.85 115.915C148.36 126.618 137.884 129.465 137.884 129.465C121.716 133.906 114.201 122.405 114.201 122.405C113.461 121.267 112.037 120.014 112.037 120.014C106.799 116.826 98.707 122.158 98.707 122.158C98.707 122.158 52.2906 145.547 35.061 125.096C35.061 125.096 30.0285 126.747 29.7065 132.544C29.7065 132.544 25.48 128.478 30.5926 122.721C30.5926 122.721 25.2782 125.861 18.8374 121.433C18.8374 121.433 28.2981 121.795 30.2295 116.723C30.2295 116.723 18.1936 119.581 12.4772 110.644C12.4772 110.644 21.7362 104.606 23.4266 99.5332C23.4266 99.5332 15.7779 103.156 11.2692 97.7619C11.2692 97.7619 22.9439 94.2193 26.0837 81.9812C26.0837 81.9812 22.702 85.6043 19.2396 84.8797C19.2396 84.8797 26.1637 82.4643 27.2911 72.7221C27.2911 72.7221 28.4992 62.4968 33.1693 55.4117C33.1693 55.4117 43.2636 20.0417 77.6501 10.4772C77.6501 10.4772 112.264 1.59583 128.889 17.0813C128.889 17.0813 142.829 28.6006 147.499 45.5085C147.499 45.5085 148.465 51.4665 157.966 52.9157C157.966 52.9157 152.249 55.8142 149.351 54.6065C149.351 54.6065 160.657 69.0031 170.904 69.4586C170.904 69.4586 163.276 71.1666 159.633 69.4586C159.633 69.4586 166.983 79.9683 173.585 78.3581C173.585 78.3581 170.363 82.3838 165.05 80.9345Z" fill="#004F53"/>
<path fill-rule="evenodd" clip-rule="evenodd" d="M55.9026 85.6285C42.0117 122.52 72.379 122.387 72.379 122.387C46.8557 128.104 32.5255 118.281 32.5255 118.281C36.3092 116.671 38.4025 112.484 38.4025 112.484C24.134 112.738 17.24 111.039 14.0876 109.749C13.1247 110.448 12.4773 110.874 12.4773 110.874C18.1937 119.811 30.1182 116.787 30.1182 116.787C28.1319 121.49 18.8163 121.43 18.8163 121.43C25.0779 125.878 30.5877 122.781 30.5877 122.781C25.301 128.21 29.7072 132.774 29.7072 132.774C29.924 127.34 35.0798 125.154 35.0798 125.154C52.3094 145.605 98.7077 122.387 98.7077 122.387C98.7077 122.387 106.8 117.056 112.037 120.244C112.037 120.244 113.459 121.497 114.2 122.635C114.2 122.635 121.716 134.135 137.885 129.694C137.885 129.694 147.191 127.162 153.695 117.906C115.538 106.986 55.9026 85.6285 55.9026 85.6285Z" fill="#1B4043"/>
<path d="M68.6657 14.0981C72.1699 14.0981 75.0103 11.1006 75.0103 7.40294C75.0103 3.70529 72.1699 0.707748 68.6657 0.707748C65.1614 0.707748 62.3204 3.70529 62.3204 7.40294C62.3204 11.1006 65.1614 14.0981 68.6657 14.0981Z" fill="#BFAF4E"/>
<path fill-rule="evenodd" clip-rule="evenodd" d="M99.073 7.94018C87.4214 7.96824 77.6524 10.4758 77.6524 10.4758C43.2659 20.0403 33.1709 55.4093 33.1709 55.4093C28.5009 62.4945 27.2933 72.7201 27.2933 72.7201C26.166 82.4623 19.2419 84.8776 19.2419 84.8776C22.7043 85.6022 26.0859 81.9796 26.0859 81.9796C25.5816 83.9458 24.8545 85.6852 23.9931 87.2239C37.2228 79.7154 81.2601 59.8752 161.503 71.7998C160.339 70.4619 159.635 69.4572 159.635 69.4572C163.278 71.1652 170.907 69.4572 170.907 69.4572C160.659 69.0018 149.353 54.6048 149.353 54.6048C152.252 55.8125 157.968 52.9135 157.968 52.9135C148.468 51.4642 147.501 45.5073 147.501 45.5073C142.831 28.5994 128.891 17.0801 128.891 17.0801C121.098 9.82126 109.353 7.91538 99.073 7.94018Z" fill="#1B4043"/>
<path fill-rule="evenodd" clip-rule="evenodd" d="M95.6187 2.25148e-05C81.4957 -0.0127302 70.8162 5.39628 70.8162 5.39628C35.6136 24.0882 29.9891 55.9773 29.6581 58.0474C29.3049 58.2867 29.1071 58.4298 29.1071 58.4298C3.94336 77.7866 1.05353 85.9702 1.05353 85.9702C0.370617 88.4183 4.58419 88.8744 4.58419 88.8744C0.484824 87.1665 3.67195 84.6613 3.67195 84.6613C3.67195 84.6613 44.436 55.0562 118.902 52.0957C118.902 52.0957 162.172 51.1855 184.033 62.5719C184.033 62.5719 186.917 63.8492 187.32 61.9168C187.32 61.9168 188.729 59.7828 184.905 57.2466C184.905 57.2466 168.682 45.3394 149.601 40.0255C144.189 18.0055 119.607 6.04014 119.607 6.04014C111.36 1.50118 103.017 0.00684523 95.6187 2.25148e-05Z" fill="#E1D27A"/>
<path fill-rule="evenodd" clip-rule="evenodd" d="M157.619 52.0408L126.297 64.1316C126.297 64.1316 113.772 72.4437 114.114 86.9044C114.114 86.9044 114 99.8849 122.539 107.172L155.669 122.202L157.619 52.0408Z" fill="#372121"/>
<path d="M170.983 118.332C188.024 118.332 201.839 104.517 201.839 87.4748C201.839 70.4329 188.024 56.6178 170.983 56.6178C153.941 56.6178 140.125 70.4329 140.125 87.4748C140.125 104.517 153.941 118.332 170.983 118.332Z" fill="black"/>
<path d="M165.176 117.536C181.651 117.536 195.008 104.18 195.008 87.7038C195.008 71.2279 181.651 57.8716 165.176 57.8716C148.7 57.8716 135.344 71.2279 135.344 87.7038C135.344 104.18 148.7 117.536 165.176 117.536Z" fill="#D6D4C8"/>
<path d="M168.668 112.172C182.563 112.172 193.826 100.908 193.826 87.0136C193.826 73.1192 182.563 61.8555 168.668 61.8555C154.774 61.8555 143.51 73.1192 143.51 87.0136C143.51 100.908 154.774 112.172 168.668 112.172Z" fill="#FAB84A"/>
<path d="M168.668 110.097C181.417 110.097 191.752 99.7618 191.752 87.0131C191.752 74.2644 181.417 63.9295 168.668 63.9295C155.919 63.9295 145.584 74.2644 145.584 87.0131C145.584 99.7618 155.919 110.097 168.668 110.097Z" fill="#D2902B"/>
<path d="M168.668 107.905C180.206 107.905 189.559 98.5518 189.559 87.014C189.559 75.4763 180.206 66.1231 168.668 66.1231C157.13 66.1231 147.777 75.4763 147.777 87.014C147.777 98.5518 157.13 107.905 168.668 107.905Z" fill="black"/>
<path d="M182.754 78.3509C185.364 78.3509 187.48 76.2353 187.48 73.6255C187.48 71.0158 185.364 68.9002 182.754 68.9002C180.144 68.9002 178.029 71.0158 178.029 73.6255C178.029 76.2353 180.144 78.3509 182.754 78.3509Z" fill="white"/>
<path fill-rule="evenodd" clip-rule="evenodd" d="M142.846 100.911L191.95 100.878C191.95 100.878 186.082 114.199 171.058 116.945C171.058 116.945 149.853 117.595 142.846 100.911V100.911Z" fill="#225054"/>
<path fill-rule="evenodd" clip-rule="evenodd" d="M191.953 100.878L142.779 100.911C143.867 103.5 145.297 105.67 146.937 107.491H187.51C190.621 103.977 191.953 100.878 191.953 100.878V100.878Z" fill="#1B4043"/>
<path fill-rule="evenodd" clip-rule="evenodd" d="M146.347 108.826L181.628 56.1866L198.424 68.8112L167.877 119.76L146.347 108.826Z" fill="url(#paint0_linear_13619_105403)"/>
<path fill-rule="evenodd" clip-rule="evenodd" d="M111.742 2.54744C120.939 8.40579 135.018 19.4487 143.597 39.9587L139.292 39.3075C139.292 39.3075 132.278 23.2868 119.047 11.3311C119.047 11.3311 133.234 29.0256 137.698 40.0248C137.698 40.0248 134.466 39.6769 132.662 39.7333C132.662 39.7333 156.986 44.01 174.203 55.6469C174.203 55.6469 104.308 33.3572 45.1944 65.1336C64.2215 58.8999 88.2829 53.477 118.566 52.2731C118.566 52.2731 161.416 51.5423 183.835 61.773C183.835 61.773 186.72 63.0502 187.122 61.1178C187.122 61.1178 188.532 58.9838 184.707 56.4476C184.707 56.4476 168.686 45.3376 149.605 40.0235C144.604 17.491 119.412 5.24121 119.412 5.24121C117.188 4.01707 114.14 3.06029 111.743 2.54744H111.742Z" fill="#BFAF4E"/>
<path d="M168.967 50.3488C164.114 50.3487 159.309 51.3044 154.825 53.1614C150.342 55.0184 146.268 57.7404 142.836 61.1718C139.405 64.6032 136.683 68.6769 134.826 73.1603C132.968 77.6437 132.013 82.4491 132.013 87.3018C132.013 97.1023 135.906 106.501 142.836 113.431C149.767 120.361 159.166 124.254 168.967 124.254C178.767 124.253 188.165 120.36 195.095 113.43C202.024 106.501 205.918 97.102 205.918 87.3018C205.918 77.5015 202.025 68.1025 195.095 61.1725C188.166 54.2425 178.767 50.3491 168.967 50.3488ZM171.125 58.6866C174.904 58.6866 178.646 59.4309 182.138 60.877C185.629 62.3231 188.801 64.4427 191.473 67.1148C194.145 69.7869 196.265 72.9592 197.711 76.4504C199.157 79.9417 199.901 83.6836 199.901 87.4625C199.901 91.2414 199.157 94.9834 197.711 98.4746C196.265 101.966 194.145 105.138 191.473 107.81C188.801 110.482 185.629 112.602 182.138 114.048C178.646 115.494 174.904 116.238 171.125 116.238C163.494 116.238 156.175 113.206 150.778 107.81C145.382 102.413 142.351 95.0942 142.351 87.4625C142.351 79.8309 145.382 72.5118 150.778 67.1152C156.175 61.7187 163.494 58.6869 171.125 58.6866Z" fill="#8D5555"/>
<path fill-rule="evenodd" clip-rule="evenodd" d="M88.2961 50.2878L60.3559 64.633C60.3559 64.633 47.8305 72.945 48.1723 87.4058C48.1723 87.4058 48.0587 100.386 56.5979 107.674L89.7277 122.704L88.2961 50.2878Z" fill="#372121"/>
<path fill-rule="evenodd" clip-rule="evenodd" d="M129.588 107.963C129.588 107.963 141.664 118.649 127.173 139.198C127.173 139.198 125.844 140.739 124.516 138.427C124.516 138.427 116.908 125.43 107.972 118.032C107.972 118.032 100.484 109.607 114.372 107.655C128.018 106.114 129.588 107.963 129.588 107.963Z" fill="#D2952F"/>
<path fill-rule="evenodd" clip-rule="evenodd" d="M122.622 129.901C121.426 128.376 121.426 126.487 121.426 126.487C122.109 122.346 128.087 121.692 128.087 121.692C130.308 121.619 130.221 122.927 130.221 122.927C130.308 128.23 126.806 136.586 126.806 136.586C126.806 136.586 126.568 137.324 125.904 136.553C125.904 136.553 123.325 130.725 122.622 129.901Z" fill="#FAB84A"/>
<path fill-rule="evenodd" clip-rule="evenodd" d="M106.315 111.658C104.962 114.638 107.976 118.035 107.976 118.035C116.912 125.433 124.52 138.43 124.52 138.43C125.774 140.612 126.988 139.395 127.125 139.247C125.181 133.78 119.919 122.264 106.315 111.658Z" fill="#A87726"/>
<path d="M104.827 117.08C121.869 117.08 135.684 103.265 135.684 86.2234C135.684 69.1815 121.869 55.3663 104.827 55.3663C87.7852 55.3663 73.9696 69.1815 73.9696 86.2234C73.9696 103.265 87.7852 117.08 104.827 117.08Z" fill="black"/>
<path d="M98.3499 116.296C114.826 116.296 128.182 102.94 128.182 86.4642C128.182 69.9882 114.826 56.6318 98.3499 56.6318C81.874 56.6318 68.5174 69.9882 68.5174 86.4642C68.5174 102.94 81.874 116.296 98.3499 116.296Z" fill="#D6D4C8"/>
<path d="M100.802 111.52C114.697 111.52 125.96 100.257 125.96 86.3623C125.96 72.4678 114.697 61.2041 100.802 61.2041C86.9076 61.2041 75.6441 72.4678 75.6441 86.3623C75.6441 100.257 86.9076 111.52 100.802 111.52Z" fill="#FAB84A"/>
<path d="M100.801 109.445C113.55 109.445 123.885 99.1104 123.885 86.3617C123.885 73.613 113.55 63.2781 100.801 63.2781C88.0526 63.2781 77.7175 73.613 77.7175 86.3617C77.7175 99.1104 88.0526 109.445 100.801 109.445Z" fill="#D2902B"/>
<path d="M100.801 107.254C112.339 107.254 121.692 97.9004 121.692 86.3626C121.692 74.8249 112.339 65.4717 100.801 65.4717C89.2635 65.4717 79.9105 74.8249 79.9105 86.3626C79.9105 97.9004 89.2635 107.254 100.801 107.254Z" fill="black"/>
<path d="M114.887 77.6995C117.497 77.6995 119.613 75.5839 119.613 72.9741C119.613 70.3644 117.497 68.2488 114.887 68.2488C112.277 68.2488 110.162 70.3644 110.162 72.9741C110.162 75.5839 112.277 77.6995 114.887 77.6995Z" fill="white"/>
<path fill-rule="evenodd" clip-rule="evenodd" d="M76.5897 101.208L124.388 101.047C124.388 101.047 118.41 113.119 104.231 115.705C104.231 115.705 83.5961 117.892 76.5897 101.208Z" fill="#225054"/>
<path fill-rule="evenodd" clip-rule="evenodd" d="M124.391 101.049L76.5926 101.21C77.5708 103.538 79.1586 105.431 80.5735 107.082L119.881 107.138C122.963 103.908 124.391 101.049 124.391 101.049V101.049Z" fill="#1B4043"/>
<path fill-rule="evenodd" clip-rule="evenodd" d="M76.5065 107.139L111.788 54.4992L128.583 67.1238L98.0355 118.073L76.5065 107.139Z" fill="url(#paint1_linear_13619_105403)"/>
<path d="M103.44 47.267C93.1054 47.2671 83.1949 51.3724 75.8874 58.6799C68.58 65.9873 64.4748 75.8983 64.4747 86.2326C64.4748 96.5669 68.58 106.478 75.8874 113.785C83.1949 121.093 93.1055 125.198 103.44 125.198C113.774 125.198 123.685 121.093 130.993 113.785C138.3 106.478 142.405 96.5669 142.405 86.2326C142.405 75.8983 138.3 65.9873 130.993 58.6799C123.685 51.3724 113.774 47.2671 103.44 47.267ZM103.44 56.9748C111.2 56.9746 118.642 60.0571 124.129 65.544C129.616 71.0309 132.699 78.4728 132.699 86.2326C132.699 90.075 131.942 93.8798 130.472 97.4297C129.002 100.98 126.846 104.205 124.129 106.922C121.412 109.639 118.187 111.794 114.637 113.265C111.087 114.735 107.282 115.492 103.44 115.492C99.5973 115.492 95.793 114.735 92.2431 113.265C88.6932 111.794 85.4678 109.639 82.7508 106.922C80.0338 104.205 77.8784 100.98 76.408 97.4297C74.9376 93.8798 74.1806 90.075 74.1806 86.2326C74.1809 78.4728 77.2636 71.0309 82.7508 65.544C88.2379 60.0571 95.6799 56.9746 103.44 56.9748Z" fill="#8D5555"/>
<path d="M68.6693 0.674942C67.1493 0.677801 65.6807 1.25626 64.5309 2.30515C64.5059 2.52418 64.4934 2.7446 64.4929 2.96521C64.4928 3.70392 64.6304 4.43542 64.8983 5.11793C65.1661 5.80044 65.559 6.42059 66.054 6.94297C66.549 7.46534 67.1364 7.87972 67.7832 8.16243C68.43 8.44514 69.1231 8.59062 69.8231 8.59061C70.8516 8.58962 71.8578 8.27471 72.7205 7.68381C73.5832 7.09292 74.2656 6.25131 74.6851 5.26045C74.2655 3.92684 73.4587 2.76635 72.3793 1.94337C71.2999 1.12038 70.0029 0.676623 68.6712 0.674942H68.6693Z" fill="#E1D27A"/>
<path fill-rule="evenodd" clip-rule="evenodd" d="M89.6919 0.377304C89.3061 0.414925 88.9286 0.459091 88.5511 0.503088C67.3523 20.7222 64.9984 44.2721 64.9984 44.2721L59.8973 45.8662C64.3455 23.0206 75.4542 8.7757 82.9917 1.40226C82.6965 1.46411 82.4156 1.53076 82.1287 1.59529C57.996 22.4586 57.3107 46.4391 57.3107 46.4391L52.5645 47.9386C56.2335 24.3077 69.5493 9.70677 77.7761 2.73108C73.2144 4.1027 70.4507 5.49708 70.4507 5.49708C35.2149 24.2066 29.9597 56.0322 29.66 58.0411C29.1563 58.3528 28.8125 58.5741 28.8125 58.5741C3.6488 77.9309 0.687982 86.0722 0.687982 86.0722C0.00507289 88.5202 4.56922 88.8766 4.56922 88.8766C0.850525 87.2955 3.32633 85.0261 3.32633 85.0261C3.32633 85.0261 5.143 83.5542 8.66467 81.4682C11.36 77.8913 15.041 74.8438 15.041 74.8438C14.4908 75.7117 13.7197 77.478 13.0833 78.9412C14.0366 78.4237 15.061 77.8719 16.1501 77.3106C16.9337 75.2046 17.9154 72.8151 17.9154 72.8151C18.4791 72.0825 23.5508 68.9258 23.5508 68.9258C22.6632 70.241 21.5003 72.9818 20.6745 75.0481C21.5481 74.6297 22.4342 74.2235 23.4188 73.7554C24.613 70.1937 26.7078 66.6716 26.7078 66.6716C28.4549 65.7698 35.2175 62.1073 35.2175 62.1073C33.8472 63.8686 32.1564 67.6187 30.9596 70.4601C31.8612 70.0897 32.7688 69.723 33.7131 69.3505C35.7491 64.6157 39.0496 59.345 39.0496 59.345C63.2843 44.5788 108.831 38.8547 108.831 38.8547C89.538 38.7778 68.0272 43.6345 68.0272 43.6345C71.7153 23.6979 83.4533 7.72492 89.6919 0.377304Z" fill="#BFAF4E"/>
<path fill-rule="evenodd" clip-rule="evenodd" d="M37.4047 150.664C37.4047 150.664 50.7058 134.094 60.1741 128.684C60.1741 128.684 65.1335 125.753 67.7261 128.796C67.7261 128.796 69.9811 131.502 67.9522 138.152C67.9522 138.152 62.5417 152.918 58.7089 158.893C58.7089 158.893 70.4315 170.954 72.0096 177.266C72.0096 177.266 85.1596 204.009 55.0313 222.659C55.0313 222.659 42.1191 230.231 38.8512 213.892C38.8512 213.892 23.5403 206.291 36.221 189.834C36.221 189.834 30.8112 182.676 38.5885 171.235C38.5885 171.235 34.4182 163.514 34.9818 157.822C34.9818 157.822 34.9817 153.031 37.4047 150.664Z" fill="#1B4043"/>
<path fill-rule="evenodd" clip-rule="evenodd" d="M51.2467 156.071C51.2467 156.071 72.0998 180.193 66.238 200.483C66.238 200.483 63.9907 208.015 58.1723 206.342C58.1723 206.342 53.6291 205.226 53.1509 199.965C53.1509 199.965 43.5863 198.291 47.8904 188.807C47.8904 188.807 43.0284 187.372 44.7819 180.517C44.7819 180.517 45.818 177.369 45.7383 174.141C45.7383 174.141 45.1599 159.115 45.1599 158.607C45.1599 158.607 44.7654 156.691 46.4003 155.339C46.4003 155.339 49.9503 150.83 52.6558 146.265C52.6558 146.265 54.2903 143.334 56.2064 143.334C56.2064 143.334 59.9264 142.939 58.5172 147.223C58.5172 147.223 55.8685 154.549 54.7979 155.846C54.7979 155.846 52.8808 154.324 51.8102 154.211C51.8102 154.211 49.19 153.667 50.0119 154.811L51.2467 156.071Z" fill="#225054"/>
<path fill-rule="evenodd" clip-rule="evenodd" d="M154.231 125.574C150.961 132.414 145.1 137.95 134.764 138.443C133.718 141.991 133.279 148.342 139.678 155.266C139.678 155.266 142.867 158.294 147.33 157.975C147.33 157.975 173.633 159.57 190.53 127.369C190.53 127.369 169.467 137.768 154.231 125.574Z" fill="#225054"/>
<path fill-rule="evenodd" clip-rule="evenodd" d="M51.0235 231.105C51.0235 231.105 50.0653 223.046 60.2095 214.648C60.2095 214.648 62.5771 212.788 64.7751 213.577C64.7751 213.577 66.6353 213.916 66.9171 215.55C66.9171 215.55 71.3692 212.788 73.7929 216.734C73.7929 216.734 76.554 213.183 80.6681 215.719C80.6681 215.719 86.755 221.862 87.0936 229.809C87.0936 229.809 86.473 238.432 78.8647 235.05C78.8647 235.05 74.3564 233.247 73.9617 229.02C73.9617 229.02 71.5948 238.488 65.0572 237.981C65.0572 237.981 61.1678 238.207 60.717 233.472C60.717 233.472 56.9973 237.925 54.0106 235.839C54.0106 235.839 51.2486 233.641 51.0235 231.105Z" fill="#A7731E"/>
<path fill-rule="evenodd" clip-rule="evenodd" d="M64.2282 222.515C64.2282 222.515 61.2406 229.053 62.5369 232.773C62.5369 232.773 64.4531 237 67.5533 234.689C67.5533 234.689 68.3985 234.464 69.6948 230.913C69.6948 230.913 72.2309 224.657 72.287 222.91C72.287 222.91 72.9072 220.036 71.0473 218.119C71.0473 218.119 68.2293 215.865 66.0881 218.683C65.5245 219.134 64.2282 222.515 64.2282 222.515Z" fill="#CE9434"/>
<path fill-rule="evenodd" clip-rule="evenodd" d="M59.7761 228.94C60.114 228.038 60.8468 224.713 62.9319 222.177C62.9319 222.177 64.6227 220.599 64.4538 217.893C64.4538 217.893 64.5114 214.568 60.5651 216.146C60.5651 216.146 54.9855 218.964 53.2945 228.094C53.2945 228.094 52.4492 233.505 55.9434 233.73C55.9434 233.73 59.4382 234.519 59.7761 228.94Z" fill="#CE9434"/>
<path fill-rule="evenodd" clip-rule="evenodd" d="M79.4446 218.064C81.0795 218.571 81.0798 220.544 81.0798 220.544C81.0798 220.882 83.8414 228.772 83.8414 228.772C84.6869 231.139 83.2779 232.83 83.2779 232.83C81.0232 235.253 77.9794 232.605 77.9794 232.605C75.5563 229.561 73.8092 219.867 73.8092 219.867C73.8092 219.867 73.4144 218.12 75.7813 217.669C75.7813 217.669 78.1482 217.331 79.4446 218.064Z" fill="#CE9434"/>
<path fill-rule="evenodd" clip-rule="evenodd" d="M101.369 217.219C106.836 219.078 108.865 223.474 108.865 223.474C110.105 226.292 108.696 227.251 108.696 227.251C107.174 229.223 105.821 226.912 105.821 226.912C103.229 221.727 97.0857 219.36 97.0857 219.36C97.0857 219.36 96.0148 218.628 96.8042 217.669C96.8042 217.669 97.4241 216.148 101.369 217.219Z" fill="#CE9434"/>
<path fill-rule="evenodd" clip-rule="evenodd" d="M105.516 211.637C113.181 213.61 114.251 220.091 114.251 220.091C114.702 222.289 113.631 224.318 113.631 224.318C112.561 226.178 111.94 224.882 111.94 224.882C109.855 216.259 101.007 214.173 101.007 214.173C101.007 214.173 99.4845 213.328 101.064 212.201C101.064 212.201 102.528 211.186 105.516 211.637Z" fill="#CE9434"/>
<path fill-rule="evenodd" clip-rule="evenodd" d="M116.231 214.322C118.264 217.869 117.527 220.16 117.527 220.16C116.949 221.196 116.669 220.22 116.669 220.22C116.669 219.822 116.559 219.293 116.559 219.293C113.234 210.388 105.175 209.374 105.175 209.374C105.175 209.374 103.917 208.623 105.87 208.424C105.87 208.424 112.485 208.025 116.231 214.322Z" fill="#CE9434"/>
<defs>
<linearGradient id="paint0_linear_13619_105403" x1="216.532" y1="26.5977" x2="155.288" y2="120.051" gradientUnits="userSpaceOnUse">
<stop stop-color="white"/>
<stop offset="1" stop-color="white" stop-opacity="0"/>
</linearGradient>
<linearGradient id="paint1_linear_13619_105403" x1="148.494" y1="27.8411" x2="85.672" y2="116.785" gradientUnits="userSpaceOnUse">
<stop stop-color="white"/>
<stop offset="1" stop-color="white" stop-opacity="0"/>
</linearGradient>
</defs>
</svg>
