<svg xmlns="http://www.w3.org/2000/svg" viewBox="0 0 2160 72" xmlns:v="https://vecta.io/nano"><defs><linearGradient id="A" x1="569.49" y1="309.95" x2="919.77" y2="-73.69" href="#Bc"><stop offset="0" stop-color="#7367f0"/><stop offset="1" stop-color="#9e95f5"/></linearGradient><linearGradient id="B" x1="584.42" y1="323.58" x2="934.7" y2="-60.06" href="#Bc"><stop offset="0" stop-color="#7367f0"/><stop offset="1" stop-color="#9e95f5"/></linearGradient><linearGradient id="C" x1="550.01" y1="292.17" x2="900.29" y2="-91.48" href="#Bc"><stop offset="0" stop-color="#7367f0"/><stop offset="1" stop-color="#9e95f5"/></linearGradient><linearGradient id="D" x1="671.77" y1="197.93" x2="1022.05" y2="-185.71" href="#Bc"><stop offset="0" stop-color="#7367f0"/><stop offset="1" stop-color="#9e95f5"/></linearGradient><linearGradient id="E" x1="594.97" y1="312.02" x2="945.25" y2="-71.63" href="#Bc"><stop offset="0" stop-color="#7367f0"/><stop offset="1" stop-color="#9e95f5"/></linearGradient><linearGradient id="F" x1="692.4" y1="175.33" x2="1042.68" y2="-208.32" href="#Bc"><stop offset="0" stop-color="#7367f0"/><stop offset="1" stop-color="#9e95f5"/></linearGradient><linearGradient id="G" x1="708.86" y1="157.31" x2="1059.14" y2="-226.34" href="#Bc"><stop offset="0" stop-color="#7367f0"/><stop offset="1" stop-color="#9e95f5"/></linearGradient><linearGradient id="H" x1="609.5" y1="346.48" x2="959.78" y2="-37.16" href="#Bc"><stop offset="0" stop-color="#7367f0"/><stop offset="1" stop-color="#9e95f5"/></linearGradient><linearGradient id="I" x1="678.72" y1="190.32" x2="1029" y2="-193.33" href="#Bc"><stop offset="0" stop-color="#7367f0"/><stop offset="1" stop-color="#9e95f5"/></linearGradient><linearGradient id="J" x1="483.61" y1="231.54" x2="833.89" y2="-152.1" href="#Bc"><stop offset="0" stop-color="#7367f0"/><stop offset="1" stop-color="#9e95f5"/></linearGradient><linearGradient id="K" x1="471.53" y1="220.51" x2="821.81" y2="-163.14" href="#Bc"><stop offset="0" stop-color="#7367f0"/><stop offset="1" stop-color="#9e95f5"/></linearGradient><linearGradient id="L" x1="453.12" y1="203.7" x2="803.4" y2="-179.94" href="#Bc"><stop offset="0" stop-color="#7367f0"/><stop offset="1" stop-color="#9e95f5"/></linearGradient><linearGradient id="M" x1="571.45" y1="311.74" x2="921.73" y2="-71.91" href="#Bc"><stop offset="0" stop-color="#7367f0"/><stop offset="1" stop-color="#9e95f5"/></linearGradient><linearGradient id="N" x1="449.04" y1="199.98" x2="799.32" y2="-183.67" href="#Bc"><stop offset="0" stop-color="#7367f0"/><stop offset="1" stop-color="#9e95f5"/></linearGradient><linearGradient id="O" x1="463.99" y1="213.63" x2="814.27" y2="-170.02" href="#Bc"><stop offset="0" stop-color="#7367f0"/><stop offset="1" stop-color="#9e95f5"/></linearGradient><linearGradient id="P" x1="594.65" y1="332.93" x2="944.93" y2="-50.72" href="#Bc"><stop offset="0" stop-color="#7367f0"/><stop offset="1" stop-color="#9e95f5"/></linearGradient><linearGradient id="Q" x1="583.25" y1="322.52" x2="933.54" y2="-61.13" href="#Bc"><stop offset="0" stop-color="#7367f0"/><stop offset="1" stop-color="#9e95f5"/></linearGradient><linearGradient id="R" x1="599.14" y1="328.01" x2="949.42" y2="-55.64" href="#Bc"><stop offset="0" stop-color="#7367f0"/><stop offset="1" stop-color="#9e95f5"/></linearGradient><linearGradient id="S" x1="596.36" y1="334.48" x2="946.64" y2="-49.16" href="#Bc"><stop offset="0" stop-color="#7367f0"/><stop offset="1" stop-color="#9e95f5"/></linearGradient><linearGradient id="T" x1="447.38" y1="198.46" x2="797.66" y2="-185.19" href="#Bc"><stop offset="0" stop-color="#7367f0"/><stop offset="1" stop-color="#9e95f5"/></linearGradient><linearGradient id="U" x1="567.56" y1="308.19" x2="917.84" y2="-75.45" href="#Bc"><stop offset="0" stop-color="#7367f0"/><stop offset="1" stop-color="#9e95f5"/></linearGradient><linearGradient id="V" x1="525.82" y1="270.08" x2="876.1" y2="-113.57" href="#Bc"><stop offset="0" stop-color="#7367f0"/><stop offset="1" stop-color="#9e95f5"/></linearGradient><linearGradient id="W" x1="605.94" y1="320.56" x2="956.22" y2="-63.09" href="#Bc"><stop offset="0" stop-color="#7367f0"/><stop offset="1" stop-color="#9e95f5"/></linearGradient><linearGradient id="X" x1="481.73" y1="229.83" x2="832.01" y2="-153.82" href="#Bc"><stop offset="0" stop-color="#7367f0"/><stop offset="1" stop-color="#9e95f5"/></linearGradient><linearGradient id="Y" x1="484.35" y1="232.22" x2="834.63" y2="-151.43" href="#Bc"><stop offset="0" stop-color="#7367f0"/><stop offset="1" stop-color="#9e95f5"/></linearGradient><linearGradient id="Z" x1="1190.52" y1="148.07" x2="1540.8" y2="-235.58" href="#Bc"><stop offset="0" stop-color="#7367f0"/><stop offset="1" stop-color="#9e95f5"/></linearGradient><linearGradient id="a" x1="792.86" y1="145.66" x2="1143.14" y2="-237.98" href="#Bc"><stop offset="0" stop-color="#7367f0"/><stop offset="1" stop-color="#9e95f5"/></linearGradient><linearGradient id="b" x1="676.99" y1="222.2" x2="1027.27" y2="-161.44" href="#Bc"><stop offset="0" stop-color="#7367f0"/><stop offset="1" stop-color="#9e95f5"/></linearGradient><linearGradient id="c" x1="676.73" y1="192.49" x2="1027.01" y2="-191.15" href="#Bc"><stop offset="0" stop-color="#7367f0"/><stop offset="1" stop-color="#9e95f5"/></linearGradient><linearGradient id="d" x1="1288.88" y1="237.87" x2="1639.16" y2="-145.77" href="#Bc"><stop offset="0" stop-color="#7367f0"/><stop offset="1" stop-color="#9e95f5"/></linearGradient><linearGradient id="e" x1="1155.03" y1="115.66" x2="1505.31" y2="-267.99" href="#Bc"><stop offset="0" stop-color="#7367f0"/><stop offset="1" stop-color="#9e95f5"/></linearGradient><linearGradient id="f" x1="1156.07" y1="116.62" x2="1506.35" y2="-267.03" href="#Bc"><stop offset="0" stop-color="#7367f0"/><stop offset="1" stop-color="#9e95f5"/></linearGradient><linearGradient id="g" x1="774.83" y1="85.05" x2="1125.11" y2="-298.59" href="#Bc"><stop offset="0" stop-color="#7367f0"/><stop offset="1" stop-color="#9e95f5"/></linearGradient><linearGradient id="h" x1="641" y1="231.63" x2="991.28" y2="-152.02" href="#Bc"><stop offset="0" stop-color="#7367f0"/><stop offset="1" stop-color="#9e95f5"/></linearGradient><linearGradient id="i" x1="1178.22" y1="136.84" x2="1528.5" y2="-246.81" href="#Bc"><stop offset="0" stop-color="#7367f0"/><stop offset="1" stop-color="#9e95f5"/></linearGradient><linearGradient id="j" x1="1328.25" y1="273.82" x2="1678.53" y2="-109.83" href="#Bc"><stop offset="0" stop-color="#7367f0"/><stop offset="1" stop-color="#9e95f5"/></linearGradient><linearGradient id="k" x1="1316.17" y1="262.79" x2="1666.45" y2="-120.86" href="#Bc"><stop offset="0" stop-color="#7367f0"/><stop offset="1" stop-color="#9e95f5"/></linearGradient><linearGradient id="l" x1="1297.76" y1="245.98" x2="1648.04" y2="-137.66" href="#Bc"><stop offset="0" stop-color="#7367f0"/><stop offset="1" stop-color="#9e95f5"/></linearGradient><linearGradient id="m" x1="1249.11" y1="201.56" x2="1599.39" y2="-182.09" href="#Bc"><stop offset="0" stop-color="#7367f0"/><stop offset="1" stop-color="#9e95f5"/></linearGradient><linearGradient id="n" x1="1284.22" y1="233.62" x2="1634.5" y2="-150.02" href="#Bc"><stop offset="0" stop-color="#7367f0"/><stop offset="1" stop-color="#9e95f5"/></linearGradient><linearGradient id="o" x1="1314.9" y1="261.62" x2="1665.18" y2="-122.02" href="#Bc"><stop offset="0" stop-color="#7367f0"/><stop offset="1" stop-color="#9e95f5"/></linearGradient><linearGradient id="p" x1="1308.63" y1="255.91" x2="1658.91" y2="-127.74" href="#Bc"><stop offset="0" stop-color="#7367f0"/><stop offset="1" stop-color="#9e95f5"/></linearGradient><linearGradient id="q" x1="1174.01" y1="133" x2="1524.29" y2="-250.65" href="#Bc"><stop offset="0" stop-color="#7367f0"/><stop offset="1" stop-color="#9e95f5"/></linearGradient><linearGradient id="r" x1="547.36" y1="157.93" x2="897.64" y2="-225.71" href="#Bc"><stop offset="0" stop-color="#7367f0"/><stop offset="1" stop-color="#9e95f5"/></linearGradient><linearGradient id="s" x1="1246.82" y1="199.47" x2="1597.1" y2="-184.18" href="#Bc"><stop offset="0" stop-color="#7367f0"/><stop offset="1" stop-color="#9e95f5"/></linearGradient><linearGradient id="t" x1="1297.19" y1="245.46" x2="1647.47" y2="-138.18" href="#Bc"><stop offset="0" stop-color="#7367f0"/><stop offset="1" stop-color="#9e95f5"/></linearGradient><linearGradient id="u" x1="1171.78" y1="130.95" x2="1522.06" y2="-252.69" href="#Bc"><stop offset="0" stop-color="#7367f0"/><stop offset="1" stop-color="#9e95f5"/></linearGradient><linearGradient id="v" x1="1311.39" y1="258.42" x2="1661.67" y2="-125.23" href="#Bc"><stop offset="0" stop-color="#7367f0"/><stop offset="1" stop-color="#9e95f5"/></linearGradient><linearGradient id="w" href="#A"/><linearGradient id="x" href="#B"/><linearGradient id="y" href="#C"/><linearGradient id="z" href="#D" y1="200.27" y2="-183.37"/><linearGradient id="AA" x1="594.98" x2="945.26" href="#E" y1="363.26" y2="-20.39"/><linearGradient id="AB" x1="692.41" x2="1042.69" href="#F" y1="141.86" y2="-241.79"/><linearGradient id="AC" href="#G" y1="99.03" y2="-284.62"/><linearGradient id="AD" href="#H"/><linearGradient id="AE" href="#I" y1="170.05" y2="-213.6"/><linearGradient id="AF" href="#J"/><linearGradient id="AG" href="#K"/><linearGradient id="AH" href="#L"/><linearGradient id="AI" href="#M"/><linearGradient id="AJ" href="#N"/><linearGradient id="AK" x1="464" x2="814.28" href="#O"/><linearGradient id="AL" href="#P"/><linearGradient id="AM" x1="583.26" href="#Q"/><linearGradient id="AN" href="#R" y1="357.86" y2="-25.79"/><linearGradient id="AO" href="#S"/><linearGradient id="AP" x1="447.37" x2="797.65" href="#T"/><linearGradient id="AQ" x1="567.57" x2="917.85" href="#U"/><linearGradient id="AR" x1="525.83" x2="876.11" href="#V"/><linearGradient id="AS" href="#W" y1="353.87" y2="-29.78"/><linearGradient id="AT" href="#X"/><linearGradient id="AU" href="#Y"/><linearGradient id="AV" href="#Z"/><linearGradient id="AW" x1="792.85" x2="1143.13" href="#a" y1="111.34" y2="-272.3"/><linearGradient id="AX" href="#b" y1="212.98" y2="-170.66"/><linearGradient id="AY" href="#c" y1="160.35" y2="-223.29"/><linearGradient id="AZ" href="#d"/><linearGradient id="Aa" href="#e"/><linearGradient id="Ab" href="#f"/><linearGradient id="Ac" href="#g" y1="81.68" y2="-301.96"/><linearGradient id="Ad" href="#h" y1="210.39" y2="-173.26"/><linearGradient id="Ae" href="#i"/><linearGradient id="Af" href="#j"/><linearGradient id="Ag" href="#k"/><linearGradient id="Ah" href="#l"/><linearGradient id="Ai" x1="1249.1" x2="1599.38" href="#m"/><linearGradient id="Aj" x1="1284.23" x2="1634.51" href="#n"/><linearGradient id="Ak" href="#o"/><linearGradient id="Al" x1="1308.62" x2="1658.9" href="#p"/><linearGradient id="Am" x1="1174.02" x2="1524.3" href="#q"/><linearGradient id="An" href="#r" y1="159.34" y2="-224.3"/><linearGradient id="Ao" x1="1246.81" x2="1597.09" href="#s"/><linearGradient id="Ap" href="#t"/><linearGradient id="Aq" href="#u"/><linearGradient id="Ar" href="#v"/><path id="As" d="M852.39 2.03c-.4.61-1.22.79-1.83.39s-.79-1.21-.39-1.82 1.22-.79 1.83-.39.79 1.21.39 1.82z"/><path id="At" d="M831.68 54.7c-.4.61-1.22.79-1.83.39s-.79-1.21-.39-1.82 1.21-.79 1.83-.39c.61.4.79 1.21.39 1.82z"/><path id="Au" d="M803.42,16.55c-.4.61-1.22.79-1.83.39-.61-.39-.79-1.21-.39-1.82.4-.61,1.21-.79,1.83-.39.61.4.79,1.21.39,1.82Z"/><path id="Av" d="M907.47 22.06c-.4.61-1.21.79-1.83.39-.61-.4-.79-1.21-.39-1.82s1.22-.79 1.83-.39.79 1.21.39 1.82z"/><path id="Aw" d="M651.98,48.1c-.2.31-.61.39-.91.19-.31-.2-.39-.61-.2-.91.2-.31.61-.39.91-.2.31.2.39.61.2.91Z"/><path id="Ax" d="M633.83,43.71c-.2.3-.61.39-.91.2-.31-.2-.39-.61-.2-.91.2-.31.61-.39.91-.2.31.2.39.61.2.91Z"/><path id="Ay" d="M613.65,28.84c-.2.31-.61.39-.91.2-.31-.2-.39-.61-.2-.91.2-.31.61-.39.91-.2.31.2.39.61.2.91Z"/><path id="Az" d="M804.1,57.57c-.13.2-.4.26-.61.13-.2-.13-.26-.4-.13-.61.13-.2.41-.26.61-.13.21.13.26.4.13.61Z"/><path id="BA" d="M569.81,68.35c-.13.2-.41.26-.61.13-.2-.13-.26-.4-.13-.61.13-.2.41-.26.61-.13s.26.4.13.61Z"/><path id="BB" d="M650.37,10.14c-.13.2-.41.26-.61.13-.2-.13-.26-.4-.13-.61.13-.2.41-.26.61-.13s.26.4.13.61Z"/><path id="BC" d="M840.19 64.64c-.13.2-.4.26-.61.13-.2-.13-.26-.4-.13-.61.13-.2.4-.26.61-.13s.26.4.13.61z"/><path id="BD" d="M839.83,42.15c-.13.2-.4.26-.61.13-.2-.13-.26-.4-.13-.61.13-.2.4-.26.61-.13.2.13.26.4.13.61Z"/><path id="BE" d="M836.14 72.5c-.13.2-.4.26-.61.13s-.26-.4-.13-.61c.13-.2.4-.26.61-.13.2.13.26.4.13.61z"/><path id="BF" d="M586.39,46.85c-.13.2-.41.26-.61.13-.2-.13-.26-.4-.13-.61.13-.2.41-.26.61-.13.2.13.26.4.13.61Z"/><path id="BG" d="M817.97,34.58c-.13.2-.4.26-.61.13-.2-.13-.26-.4-.13-.61.13-.2.4-.26.61-.13.2.13.26.4.13.61Z"/><path id="BH" d="M767.41 6.12a.45.45 0 0 1-.61.13c-.2-.13-.26-.4-.13-.61.13-.2.4-.26.61-.13s.26.4.13.61z"/><path id="BI" d="M670.23 24.01c-.13.2-.4.26-.61.13s-.26-.4-.13-.61a.45.45 0 0 1 .61-.13c.2.13.26.4.13.61z"/><path id="BJ" d="M697.97.71c0,1.24-1.01,2.24-2.25,2.24s-2.25-1-2.25-2.24,1.01-2.24,2.25-2.24,2.25,1,2.25,2.24Z"/><path id="BK" d="M1298.87,31.33c-.4.61-1.22.79-1.83.39-.61-.39-.79-1.21-.39-1.82.4-.61,1.21-.79,1.83-.39.61.4.79,1.21.39,1.82Z"/><path id="BL" d="M1507.22.66c-.4.61-1.21.79-1.83.39-.61-.4-.79-1.21-.39-1.82s1.22-.79 1.83-.39a1.31 1.31 0 0 1 .39 1.82z"/><path id="BM" d="M1211.51 55.72c-.4.61-1.22.79-1.83.39s-.79-1.21-.39-1.82 1.21-.79 1.83-.39a1.31 1.31 0 0 1 .39 1.82z"/><path id="BN" d="M1238.28 28.51c-.4.61-1.22.79-1.83.39a1.31 1.31 0 0 1-.39-1.82c.4-.61 1.22-.79 1.83-.39s.79 1.21.39 1.82z"/><path id="BO" d="M1302.02,2.21c-.2.31-.61.39-.91.19-.31-.2-.39-.61-.2-.91s.61-.39.91-.2c.31.2.4.61.2.91Z"/><path id="BP" d="M1534.34,49.07c-.2.31-.61.39-.91.2-.31-.2-.39-.61-.2-.91.2-.31.61-.39.91-.19.31.2.39.61.2.91Z"/><path id="BQ" d="M1516.19,44.68c-.2.31-.61.39-.91.2-.31-.2-.39-.61-.2-.91.2-.31.61-.39.91-.2.31.2.4.61.2.91Z"/><path id="BR" d="M1496.01,29.81c-.2.31-.61.39-.91.2-.31-.2-.39-.61-.2-.91.2-.31.61-.39.91-.2.31.2.39.61.2.91Z"/><path id="BS" d="M1371.72,67.9c-.13.2-.41.26-.61.13-.21-.13-.26-.4-.13-.61.13-.2.4-.26.61-.13.2.13.26.4.13.61Z"/><path id="BT" d="M1469.38,31.47c-.13.2-.41.26-.61.13-.21-.13-.26-.4-.13-.61.13-.2.4-.26.61-.13.2.13.26.4.13.61Z"/><path id="BU" d="M1497.24,62.55c-.13.2-.41.26-.61.13-.21-.13-.26-.4-.13-.61.13-.2.41-.26.61-.13.2.13.26.4.13.61Z"/><path id="BV" d="M1532.72,11.11c-.13.2-.41.26-.61.13-.21-.13-.26-.4-.13-.61s.4-.26.61-.13c.2.13.26.4.13.61Z"/><path id="BW" d="M1286.31 10.65a.45.45 0 0 1-.61.13.45.45 0 0 1-.13-.61.45.45 0 0 1 .61-.13.44.44 0 0 1 .13.61z"/><path id="BX" d="M1380.21,54.01c-.13.2-.4.26-.61.13-.2-.13-.26-.4-.13-.61.13-.2.41-.26.61-.13.2.13.26.4.13.61Z"/><path id="BY" d="M1463.59,63.86c-.13.2-.41.26-.61.13-.21-.13-.26-.4-.13-.61.13-.2.41-.26.61-.13.2.13.26.4.13.61Z"/><path id="BZ" d="M1238.29,60.56c0,1.24-1.01,2.24-2.25,2.24s-2.25-1-2.25-2.24,1.01-2.24,2.25-2.24,2.25,1,2.25,2.24Z"/><path id="Ba" d="M1485.38,70.31c0,1.24-1.01,2.24-2.25,2.24s-2.25-1-2.25-2.24,1.01-2.24,2.25-2.24,2.25,1,2.25,2.24Z"/><path id="Bb" d="M1384.98 28.02l-16.52-3.72h-.46l.23-.05-.23-.05h.46l16.52-3.72 3.72-16.52V3.5l.05.23.05-.23v.46l3.72 16.52 16.52 3.72h.46l-.23.05.23.05h-.46l-16.52 3.72-3.72 16.52V45l-.05-.23-.05.23v-.46l-3.72-16.52z"/><linearGradient id="Bc" gradientUnits="userSpaceOnUse"/></defs><use href="#As" fill="url(#A)"/><use href="#At" fill="url(#B)"/><use href="#Au" fill="url(#C)"/><use href="#As" x="-227.53" y="-2.34" fill="url(#D)"/><use href="#At" x="-79.34" y="-51.24" fill="url(#E)"/><use href="#As" x="-233.7" y="33.47" fill="url(#F)"/><use href="#As" x="-242.72" y="58.28" fill="url(#G)"/><use href="#Av" fill="url(#H)"/><use href="#As" x="-218.06" y="20.27" fill="url(#I)"/><use href="#Aw" fill="url(#J)"/><use href="#Ax" fill="url(#K)"/><use href="#Ay" fill="url(#L)"/><use href="#Az" fill="url(#M)"/><use href="#BA" fill="url(#N)"/><use href="#BB" fill="url(#O)"/><use href="#BC" fill="url(#P)"/><use href="#BD" fill="url(#Q)"/><use href="#BC" x="-42.57" y="-29.85" fill="url(#R)"/><use href="#BE" fill="url(#S)"/><use href="#BF" fill="url(#T)"/><use href="#BG" fill="url(#U)"/><use href="#BH" fill="url(#V)"/><use href="#BC" x="-61.32" y="-33.31" fill="url(#W)"/><use href="#BI" fill="url(#X)"/><use href="#BJ" fill="url(#Y)"/><use href="#BK" fill="url(#Z)"/><use href="#Av" x="432.62" y="34.32" fill="url(#a)"/><use href="#At" x="604.83" y="9.22" fill="url(#b)"/><use href="#As" x="597.65" y="32.14" fill="url(#c)"/><use href="#BL" fill="url(#d)"/><use href="#BM" fill="url(#e)"/><use href="#BN" fill="url(#f)"/><use href="#As" x="350.37" y="3.37" fill="url(#g)"/><use href="#As" x="664.3" y="21.24" fill="url(#h)"/><use href="#BO" fill="url(#i)"/><use href="#BP" fill="url(#j)"/><use href="#BQ" fill="url(#k)"/><use href="#BR" fill="url(#l)"/><use href="#BS" fill="url(#m)"/><use href="#BT" fill="url(#n)"/><use href="#BU" fill="url(#o)"/><use href="#BV" fill="url(#p)"/><use href="#BW" fill="url(#q)"/><use href="#BI" x="652.42" y="-1.41" fill="url(#r)"/><use href="#BX" fill="url(#s)"/><use href="#BY" fill="url(#t)"/><use href="#BZ" fill="url(#u)"/><use href="#Ba" fill="url(#v)"/><path d="M716.71 27.29l-13.34-3H703l.19-.04-.19-.04h.37l13.34-3 3-13.34V7.5l.04.19.04-.19v.37l3 13.34 13.34 3h.37l-.19.04.19.04h-.37l-13.34 3-3 13.34V41l-.04-.19-.04.19v-.37l-3-13.34zm144.86-.86l-7.36-1.66H854l.1-.02-.1-.02h.21l7.36-1.66 1.66-7.36v-.21l.02.1.02-.1v.21l1.66 7.36 7.36 1.66h.21l-.1.02.1.02h-.21l-7.36 1.66-1.66 7.37v.2l-.02-.1-.02.1v-.2l-1.66-7.37z" fill="#7367f0" fill-rule="evenodd"/><use href="#As" x="1086.21" fill="url(#w)"/><use href="#At" x="1086.21" fill="url(#x)"/><use href="#Au" x="1086.21" fill="url(#y)"/><use href="#As" x="858.68" y="-2.34" fill="url(#z)"/><use href="#At" x="1006.86" y="-51.24" fill="url(#AA)"/><use href="#As" x="852.5" y="33.47" fill="url(#AB)"/><use href="#As" x="843.49" y="58.28" fill="url(#AC)"/><use href="#Av" x="1086.21" fill="url(#AD)"/><use href="#As" x="868.15" y="20.27" fill="url(#AE)"/><use href="#Aw" x="1086.21" fill="url(#AF)"/><use href="#Ax" x="1086.21" fill="url(#AG)"/><use href="#Ay" x="1086.21" fill="url(#AH)"/><use href="#Az" x="1086.21" fill="url(#AI)"/><use href="#BA" x="1086.21" fill="url(#AJ)"/><use href="#BB" x="1086.2" fill="url(#AK)"/><use href="#BC" x="1086.21" fill="url(#AL)"/><use href="#BD" x="1086.2" fill="url(#AM)"/><use href="#BC" x="1043.64" y="-29.85" fill="url(#AN)"/><use href="#BE" x="1086.21" fill="url(#AO)"/><use href="#BF" x="1086.21" fill="url(#AP)"/><use href="#BG" x="1086.2" fill="url(#AQ)"/><use href="#BH" x="1086.2" fill="url(#AR)"/><use href="#BC" x="1024.89" y="-33.31" fill="url(#AS)"/><use href="#BI" x="1086.21" fill="url(#AT)"/><use href="#BJ" x="1086.21" fill="url(#AU)"/><g fill="#7367f0" fill-rule="evenodd"><path d="M1802.92 27.29l-13.34-3h-.37l.19-.04-.19-.04h.37l13.34-3 3-13.34V7.5l.04.19.04-.19v.37l3 13.34 13.34 3h.37l-.19.04.19.04h-.37l-13.34 3-3 13.34V41l-.04-.19-.04.19v-.37l-3-13.34zm144.86-.86l-7.36-1.66h-.21l.1-.02-.1-.02h.21l7.36-1.66 1.66-7.36v-.21l.02.1.02-.1v.21l1.66 7.36 7.36 1.66h.21l-.1.02.1.02h-.21l-7.36 1.66-1.66 7.37v.2l-.02-.1-.02.1v-.2l-1.66-7.37z"/><use href="#Bb"/></g><use href="#BK" x="-1126.37" fill="url(#AV)"/><use href="#Av" x="-693.74" y="34.32" fill="url(#AW)"/><use href="#At" x="-521.54" y="9.22" fill="url(#AX)"/><use href="#As" x="-528.72" y="32.14" fill="url(#AY)"/><use href="#BL" x="-1126.37" fill="url(#AZ)"/><use href="#BM" x="-1126.37" fill="url(#Aa)"/><use href="#BN" x="-1126.37" fill="url(#Ab)"/><use href="#As" x="-776" y="3.37" fill="url(#Ac)"/><use href="#As" x="-462.06" y="21.24" fill="url(#Ad)"/><use href="#BO" x="-1126.37" fill="url(#Ae)"/><use href="#BP" x="-1126.37" fill="url(#Af)"/><use href="#BQ" x="-1126.37" fill="url(#Ag)"/><use href="#BR" x="-1126.37" fill="url(#Ah)"/><use href="#BS" x="-1126.36" fill="url(#Ai)"/><use href="#BT" x="-1126.37" fill="url(#Aj)"/><use href="#BU" x="-1126.37" fill="url(#Ak)"/><use href="#BV" x="-1126.36" fill="url(#Al)"/><use href="#BW" x="-1126.37" fill="url(#Am)"/><use href="#BI" x="-473.95" y="-1.41" fill="url(#An)"/><use href="#BX" x="-1126.36" fill="url(#Ao)"/><use href="#BY" x="-1126.37" fill="url(#Ap)"/><use href="#BZ" x="-1126.37" fill="url(#Aq)"/><use href="#Ba" x="-1126.37" fill="url(#Ar)"/><use href="#Bb" x="-1126.37" fill="#7367f0" fill-rule="evenodd"/></svg>