<svg xmlns="http://www.w3.org/2000/svg" width="247" height="97" fill="none" xmlns:v="https://vecta.io/nano"><g opacity=".6" fill="#fff"><path d="M263.63 19.437c-.271.417-.83.536-1.249.266s-.539-.827-.267-1.244.83-.536 1.249-.266a.9.9 0 0 1 .267 1.244z"/><use href="#B"/><use href="#B" x="-14.147" y="35.926"/><use href="#C"/><use href="#D"/><path d="M183.452 95.624c-.271.417-.831.536-1.249.266a.9.9 0 0 1-.268-1.244c.271-.417.831-.536 1.249-.266s.539.827.268 1.244z"/><use href="#D" x="75.119" y="-15.151"/><path d="M244.321-6.586c-.271.417-.831.536-1.249.266a.9.9 0 0 1-.268-1.244c.271-.417.83-.536 1.249-.266s.539.827.268 1.244zM160.16-60.849c-.271.417-.83.536-1.249.266s-.539-.827-.268-1.244.831-.536 1.249-.266a.9.9 0 0 1 .268 1.244z"/><use href="#D" x="114.183" y="-38.009"/><path d="M38.165-72.349c-.271.417-.83.536-1.249.266s-.539-.827-.267-1.244.83-.536 1.249-.266.538.827.267 1.244z"/><use href="#C" x="139.725" y="-159.906"/><use href="#D" x="91.841" y="-105.995"/><path d="M125.258-69.778c-.272.417-.831.536-1.249.266s-.539-.827-.268-1.244.83-.536 1.249-.266a.9.9 0 0 1 .268 1.244z"/><use href="#E"/><use href="#D" x="-89.79" y="-121.476"/><use href="#C" x="-59.684" y="16.64"/><use href="#C" x="-41.396" y="-1.925"/><use href="#E" x="-10.196" y="103.626"/><use href="#D" x="44.035" y="-188.203"/><use href="#C" x="141.835" y="-130.481"/><path d="M238.233 67.896c-.271.417-.831.536-1.249.266s-.539-.827-.268-1.244.831-.536 1.249-.266.539.827.268 1.244z"/><use href="#C" x="-44.774" y="-130.316"/><path d="M201.613 138.589c-.271.417-.83.536-1.249.266s-.539-.826-.268-1.244.831-.536 1.25-.266a.9.9 0 0 1 .267 1.244zM283.65 23.951c-.271.417-.831.536-1.249.266a.9.9 0 0 1-.268-1.244c.271-.417.83-.536 1.249-.266s.539.827.268 1.244z"/><use href="#F"/><use href="#G"/><path d="M218.286-72.668c-.135.209-.415.268-.624.133a.45.45 0 0 1-.134-.622c.135-.209.415-.268.625-.133a.45.45 0 0 1 .133.622z"/><use href="#G" x="-50.635" y="77.91"/><path d="M159.386 103.683c-.136.209-.416.268-.625.133a.45.45 0 0 1-.134-.622c.136-.209.415-.268.625-.133a.45.45 0 0 1 .134.622zm-72.55-207.877c-.136.208-.415.268-.625.133a.45.45 0 0 1-.134-.622c.136-.209.415-.269.625-.134a.45.45 0 0 1 .134.623z"/><use href="#G" x="23.06" y="127.031"/><use href="#H"/><use href="#G" x="-11.812" y="34.177"/><path d="M237.888 82.498c-.135.209-.415.268-.625.133a.45.45 0 1 1 .491-.755.45.45 0 0 1 .134.622z"/><use href="#G" x="-24.212" y="31.184"/><use href="#G" x="-18.744" y="52.569"/><path d="M235.133 107.155c-.136.209-.415.269-.625.134a.45.45 0 0 1-.134-.623c.136-.208.416-.268.625-.133a.45.45 0 0 1 .134.622zm14.272-68.312c-.136.209-.416.268-.625.133a.45.45 0 0 1-.134-.622c.136-.209.415-.268.625-.133a.45.45 0 0 1 .134.622z"/><use href="#G" x="-9.743" y="-10.569"/><use href="#G" x="-60.378" y="67.341"/><use href="#I"/><use href="#G" x="-37.999" y="21.044"/><path d="M288.927 34.141c-.135.209-.415.268-.624.133a.45.45 0 0 1-.134-.622c.136-.209.415-.268.625-.133a.45.45 0 0 1 .133.622z"/><use href="#I" x="-19.334" y="-92.481"/><use href="#H" x="-15.051" y="-56.856"/><use href="#G" x="-26.863" y="-22.679"/><use href="#F" x="-50.3" y="-2.067"/><path d="M276.63 35.856c-.091.139-.277.179-.417.089s-.18-.276-.089-.415a.3.3 0 1 1 .506.326z"/><use href="#J"/><use href="#K"/><use href="#L"/><use href="#L" x="19.79" y="36.872"/><use href="#M"/><use href="#L" x="34.238" y="-98.483"/><use href="#N"/><use href="#O"/><use href="#L" x="42.04" y="-77.378"/><use href="#P"/><use href="#L" x="-8.594" y="0.532"/><use href="#Q"/><use href="#J" x="-27.429" y="138.773"/><use href="#L" x="60.091" y="-76.457"/><use href="#N" x="-62.128" y="37.1"/><use href="#R"/><use href="#O" x="-73.239" y="-58.651"/><use href="#S"/><path d="M51.189-103.424c-.09.139-.277.179-.416.089a.3.3 0 0 1-.089-.415c.09-.139.277-.178.416-.088s.18.275.089.414z"/><use href="#L" x="-31.846" y="-14.46"/><use href="#T"/><use href="#L" x="35.951" y="-73.803"/><use href="#R" x="-30.349" y="-106.262"/><use href="#L" x="-14.684" y="4.107"/><use href="#K" x="-45.528" y="118.889"/><use href="#O" x="-1.334" y="135.594"/><use href="#U"/><use href="#J" x="32.474" y="113.097"/><path d="M222.347 103.377c-.091.139-.277.178-.417.088s-.18-.275-.089-.414a.3.3 0 1 1 .506.326z"/><use href="#J" x="25.564" y="53.096"/><use href="#S" x="88.562" y="92.464"/><use href="#L" x="23.19" y="-54.168"/><use href="#L" x="-27.445" y="23.742"/><path d="M219.415 118.097c-.091.139-.277.178-.417.088s-.179-.275-.089-.414a.3.3 0 1 1 .506.326z"/><use href="#N" x="1.407" y="-10.167"/><path d="M185.282-28.041c-.091.139-.277.179-.417.089a.3.3 0 1 1 .327-.504.3.3 0 0 1 .09.415z"/><use href="#L" x="25.355" y="56.177"/><use href="#N" x="1.157" y="-25.509"/><use href="#J" x="-7.437" y="-24.978"/><use href="#R" x="-4.428" y="-15.536"/><use href="#T" x="-105.751" y="-88.365"/><use href="#M" x="93.219" y="-81.353"/><use href="#K" x="15.223" y="8.03"/><use href="#L" x="48.428" y="70.339"/><use href="#R" x="21.892" y="10.186"/><use href="#S" x="21.892" y="10.185"/><use href="#V"/><use href="#L" x="40.681" y="-82.184"/><use href="#Q" x="-21.15" y="-41.677"/><use href="#Q" x="-1.359" y="-4.806"/><use href="#Q" x="-31.717" y="-66.529"/><use href="#N" x="-162.378" y="31.047"/><use href="#S" x="-15.635" y="121.73"/><path d="M171.473 105.226c-.09.139-.277.178-.416.088s-.18-.275-.089-.414a.3.3 0 1 1 .505.326z"/><use href="#S" x="93.635" y="38.581"/><use href="#P" x="-22.181" y="42.274"/><use href="#O" x="35.84" y="4.176"/><use href="#R" x="-109.23" y="-89.358"/><use href="#S" x="66.924" y="36.362"/><use href="#P" x="-48.892" y="40.055"/><use href="#V" x="54.994" y="64.927"/><use href="#L" x="46.886" y="-71.039"/><use href="#L" x="-3.748" y="6.871"/><use href="#L" x="16.042" y="43.743"/><use href="#S" x="-27.525" y="134.782"/><use href="#L" x="28.149" y="-94.908"/><use href="#U" x="91.957" y="185.741"/><path d="M209.804 108.328c-.09.139-.277.179-.417.089a.3.3 0 0 1-.089-.415c.091-.139.277-.179.417-.089a.3.3 0 0 1 .089.415z"/><use href="#Q" x="25.567" y="-82.105"/><use href="#L" x="-13.871" y="33.208"/><use href="#W"/><path d="M88.117-71.655c0 .845-.687 1.529-1.535 1.529s-1.535-.684-1.535-1.529.687-1.529 1.535-1.529 1.535.684 1.535 1.529z"/><use href="#W" x="168.812" y="6.656"/><use href="#W" x="-8.089" y="-80.916"/><use href="#W" x="224.379" y="-167.788"/></g><defs ><path id="B" d="M193.616-70.751c-.271.417-.83.536-1.249.266s-.538-.827-.267-1.244.83-.536 1.249-.266.538.827.267 1.244z"/><path id="C" d="M89.412 73.392c-.271.417-.83.536-1.249.266s-.538-.827-.267-1.244.83-.536 1.249-.266a.9.9 0 0 1 .267 1.244z"/><path id="D" d="M117.577 90.48c-.271.417-.83.536-1.249.266a.9.9 0 0 1-.267-1.244c.271-.417.83-.536 1.249-.266s.538.827.267 1.244z"/><path id="E" d="M33.946-47.922c-.271.417-.83.536-1.249.266a.9.9 0 0 1-.267-1.244c.271-.417.83-.536 1.249-.266a.9.9 0 0 1 .267 1.244z"/><path id="F" d="M262.1 51.314c-.136.209-.415.268-.625.133a.45.45 0 0 1-.133-.622c.135-.209.415-.268.624-.133a.45.45 0 0 1 .134.622z"/><path id="G" d="M68.505-73.505c-.136.209-.415.268-.625.133a.45.45 0 0 1-.134-.622c.136-.209.415-.268.625-.133a.45.45 0 0 1 .134.622z"/><path id="H" d="M250.288 85.492c-.136.209-.415.268-.625.133a.45.45 0 0 1-.134-.622c.136-.209.416-.268.625-.133a.45.45 0 0 1 .134.622z"/><path id="I" d="M224.101 72.359c-.136.209-.416.268-.625.133a.45.45 0 0 1-.134-.622c.136-.209.416-.268.625-.133a.45.45 0 0 1 .134.622z"/><path id="J" d="M192.469-18.406c-.091.139-.277.179-.417.089a.3.3 0 0 1-.089-.415c.09-.139.277-.179.417-.089a.3.3 0 0 1 .089.415z"/><path id="K" d="M83.035-88.964c-.09.139-.277.179-.416.089a.3.3 0 0 1-.089-.415c.09-.139.277-.179.417-.089a.3.3 0 0 1 .089.415z"/><path id="L" d="M32.4-11.054c-.09.139-.277.179-.416.089a.3.3 0 0 1-.089-.415c.09-.139.277-.179.416-.089a.3.3 0 0 1 .089.415z"/><path id="M" d="M139.188 98.341c-.091.139-.277.179-.417.089s-.18-.276-.089-.415.277-.179.416-.089a.3.3 0 0 1 .09.415z"/><path id="N" d="M268.035 36.388a.3.3 0 0 1-.416.089c-.14-.09-.18-.276-.089-.415s.277-.179.416-.089.18.276.089.415z"/><path id="O" d="M183.875-17.875c-.091.139-.277.179-.417.089a.3.3 0 0 1-.089-.415c.09-.139.277-.179.416-.089a.3.3 0 0 1 .09.415z"/><path id="P" d="M192.278-90.821c-.09.139-.277.179-.416.089s-.18-.276-.089-.415a.3.3 0 0 1 .416-.089c.14.09.18.276.089.415z"/><path id="Q" d="M43.596 26.349c-.09.139-.277.179-.417.089a.3.3 0 0 1-.089-.415c.09-.139.277-.179.416-.089a.3.3 0 0 1 .089.415z"/><path id="R" d="M244.784 21.396c-.091.139-.277.179-.417.089a.3.3 0 0 1-.089-.415c.091-.139.277-.179.417-.089a.3.3 0 0 1 .089.415z"/><path id="S" d="M160.623-32.866c-.09.139-.277.179-.416.089a.3.3 0 0 1-.09-.415c.091-.139.277-.179.417-.089a.3.3 0 0 1 .089.415z"/><path id="T" d="M261.946 39.963a.3.3 0 1 1-.506-.326c.091-.139.277-.179.417-.089a.3.3 0 0 1 .089.415z"/><path id="U" d="M109.991-90.158a.3.3 0 0 1-.416.089c-.14-.09-.18-.276-.089-.415a.3.3 0 0 1 .416-.089c.14.09.18.276.089.415z"/><path id="V" d="M217.887-22.2c-.09.139-.277.179-.416.089s-.18-.276-.089-.415.277-.179.416-.089.18.276.089.415z"/><path id="W" d="M48.024 93.331c0 .844-.687 1.529-1.535 1.529s-1.535-.685-1.535-1.529.687-1.529 1.535-1.529 1.535.685 1.535 1.529z"/></defs></svg>