<svg width="259" height="97" viewBox="0 0 259 97" fill="none" xmlns="http://www.w3.org/2000/svg">
<path d="M0 6C0 2.68629 2.68629 0 6 0H252.728C256.042 0 258.728 2.68629 258.728 6V97H0V6Z" fill="#00BDB9"/>
<mask id="mask0_4409_16735" style="mask-type:alpha" maskUnits="userSpaceOnUse" x="0" y="0" width="259" height="97">
<path d="M0 6C0 2.68629 2.68629 0 6 0H253C256.314 0 259 2.68629 259 6V97H0V6Z" fill="#7F6CC3"/>
<path d="M0 6C0 2.68629 2.68629 0 6 0H253C256.314 0 259 2.68629 259 6V97H0V6Z" fill="url(#paint0_linear_4409_16735)" fill-opacity="0.3"/>
</mask>
<g mask="url(#mask0_4409_16735)">
<g opacity="0.6">
<path d="M283.32 19.4373C283.029 19.8544 282.428 19.9736 281.978 19.7037C281.528 19.4337 281.399 18.8767 281.69 18.4596C281.982 18.0425 282.583 17.9233 283.033 18.1933C283.483 18.4633 283.611 19.0202 283.32 19.4373Z" fill="white"/>
<path d="M208.077 -70.7507C207.786 -70.3336 207.185 -70.2144 206.735 -70.4844C206.285 -70.7543 206.156 -71.3113 206.448 -71.7284C206.739 -72.1455 207.34 -72.2647 207.79 -71.9947C208.24 -71.7247 208.368 -71.1678 208.077 -70.7507Z" fill="white"/>
<path d="M192.874 -34.8251C192.582 -34.408 191.981 -34.2888 191.531 -34.5588C191.081 -34.8288 190.953 -35.3857 191.244 -35.8028C191.535 -36.2199 192.136 -36.3391 192.586 -36.0692C193.036 -35.7992 193.165 -35.2422 192.874 -34.8251Z" fill="white"/>
<path d="M96.0901 73.3922C95.7988 73.8093 95.1979 73.9285 94.7478 73.6585C94.2978 73.3885 94.1692 72.8316 94.4605 72.4145C94.7518 71.9974 95.3528 71.8782 95.8028 72.1482C96.2528 72.4182 96.3815 72.9751 96.0901 73.3922Z" fill="white"/>
<path d="M126.359 90.4801C126.068 90.8972 125.467 91.0164 125.017 90.7464C124.567 90.4765 124.438 89.9195 124.729 89.5024C125.021 89.0853 125.622 88.9661 126.072 89.2361C126.522 89.5061 126.65 90.063 126.359 90.4801Z" fill="white"/>
<path d="M197.153 95.6238C196.862 96.0409 196.261 96.1602 195.811 95.8902C195.361 95.6202 195.232 95.0632 195.524 94.6461C195.815 94.229 196.416 94.1098 196.866 94.3798C197.316 94.6498 197.445 95.2068 197.153 95.6238Z" fill="white"/>
<path d="M207.089 75.3293C206.797 75.7464 206.196 75.8656 205.746 75.5956C205.296 75.3257 205.168 74.7687 205.459 74.3516C205.75 73.9345 206.351 73.8153 206.801 74.0853C207.251 74.3553 207.38 74.9122 207.089 75.3293Z" fill="white"/>
<path d="M262.569 -6.58631C262.277 -6.16924 261.676 -6.05 261.226 -6.31998C260.776 -6.58997 260.648 -7.14694 260.939 -7.56402C261.23 -7.98109 261.831 -8.10033 262.281 -7.83035C262.731 -7.56036 262.86 -7.00339 262.569 -6.58631Z" fill="white"/>
<path d="M172.122 -60.8487C171.831 -60.4317 171.23 -60.3124 170.78 -60.5824C170.33 -60.8524 170.201 -61.4094 170.492 -61.8264C170.784 -62.2435 171.385 -62.3628 171.835 -62.0928C172.285 -61.8228 172.413 -61.2658 172.122 -60.8487Z" fill="white"/>
<path d="M249.07 52.471C248.779 52.888 248.178 53.0073 247.728 52.7373C247.278 52.4673 247.149 51.9103 247.441 51.4933C247.732 51.0762 248.333 50.9569 248.783 51.2269C249.233 51.4969 249.362 52.0539 249.07 52.471Z" fill="white"/>
<path d="M41.0159 -72.3489C40.7246 -71.9318 40.1236 -71.8125 39.6736 -72.0825C39.2236 -72.3525 39.0949 -72.9095 39.3863 -73.3265C39.6776 -73.7436 40.2785 -73.8629 40.7285 -73.5929C41.1786 -73.3229 41.3072 -72.7659 41.0159 -72.3489Z" fill="white"/>
<path d="M246.251 -86.5137C245.96 -86.0966 245.359 -85.9774 244.909 -86.2474C244.459 -86.5174 244.33 -87.0743 244.621 -87.4914C244.913 -87.9085 245.514 -88.0277 245.964 -87.7578C246.414 -87.4878 246.542 -86.9308 246.251 -86.5137Z" fill="white"/>
<path d="M225.059 -15.5155C224.768 -15.0984 224.167 -14.9792 223.717 -15.2492C223.267 -15.5192 223.139 -16.0761 223.43 -16.4932C223.721 -16.9103 224.322 -17.0295 224.772 -16.7596C225.222 -16.4896 225.351 -15.9326 225.059 -15.5155Z" fill="white"/>
<path d="M134.613 -69.7779C134.322 -69.3609 133.721 -69.2416 133.271 -69.5116C132.821 -69.7816 132.692 -70.3386 132.983 -70.7556C133.274 -71.1727 133.875 -71.292 134.325 -71.022C134.775 -70.752 134.904 -70.195 134.613 -69.7779Z" fill="white"/>
<path d="M36.4809 -47.9216C36.1896 -47.5046 35.5886 -47.3853 35.1386 -47.6553C34.6886 -47.9253 34.5599 -48.4823 34.8512 -48.8993C35.1425 -49.3164 35.7435 -49.4356 36.1935 -49.1657C36.6435 -48.8957 36.7722 -48.3387 36.4809 -47.9216Z" fill="white"/>
<path d="M29.8621 -30.9957C29.5708 -30.5786 28.9698 -30.4594 28.5198 -30.7294C28.0698 -30.9993 27.9411 -31.5563 28.2324 -31.9734C28.5237 -32.3905 29.1247 -32.5097 29.5747 -32.2397C30.0247 -31.9697 30.1534 -31.4128 29.8621 -30.9957Z" fill="white"/>
<path d="M31.9487 90.0324C31.6574 90.4494 31.0565 90.5687 30.6064 90.2987C30.1564 90.0287 30.0278 89.4717 30.3191 89.0547C30.6104 88.6376 31.2113 88.5183 31.6614 88.7883C32.1114 89.0583 32.24 89.6153 31.9487 90.0324Z" fill="white"/>
<path d="M51.6026 71.467C51.3112 71.8841 50.7103 72.0033 50.2603 71.7333C49.8102 71.4633 49.6816 70.9064 49.9729 70.4893C50.2642 70.0722 50.8652 69.953 51.3152 70.223C51.7652 70.493 51.8939 71.0499 51.6026 71.467Z" fill="white"/>
<path d="M25.5235 55.704C25.2321 56.121 24.6312 56.2403 24.1812 55.9703C23.7311 55.7003 23.6025 55.1433 23.8938 54.7263C24.1851 54.3092 24.7861 54.19 25.2361 54.4599C25.6861 54.7299 25.8148 55.2869 25.5235 55.704Z" fill="white"/>
<path d="M173.683 -97.723C173.392 -97.3059 172.791 -97.1867 172.341 -97.4567C171.891 -97.7266 171.762 -98.2836 172.053 -98.7007C172.345 -99.1178 172.946 -99.237 173.396 -98.967C173.846 -98.697 173.974 -98.1401 173.683 -97.723Z" fill="white"/>
<path d="M248.519 -57.0894C248.227 -56.6723 247.626 -56.5531 247.176 -56.823C246.726 -57.093 246.598 -57.65 246.889 -58.0671C247.18 -58.4842 247.781 -58.6034 248.231 -58.3334C248.681 -58.0634 248.81 -57.5065 248.519 -57.0894Z" fill="white"/>
<path d="M256.026 67.8961C255.735 68.3132 255.134 68.4324 254.684 68.1624C254.234 67.8925 254.105 67.3355 254.396 66.9184C254.688 66.5013 255.289 66.3821 255.739 66.6521C256.189 66.9221 256.317 67.479 256.026 67.8961Z" fill="white"/>
<path d="M47.9717 -56.9237C47.6803 -56.5067 47.0794 -56.3874 46.6294 -56.6574C46.1793 -56.9274 46.0507 -57.4844 46.342 -57.9014C46.6333 -58.3185 47.2343 -58.4378 47.6843 -58.1678C48.1343 -57.8978 48.263 -57.3408 47.9717 -56.9237Z" fill="white"/>
<path d="M216.671 138.589C216.38 139.006 215.779 139.125 215.329 138.855C214.879 138.585 214.75 138.029 215.041 137.611C215.333 137.194 215.934 137.075 216.384 137.345C216.834 137.615 216.962 138.172 216.671 138.589Z" fill="white"/>
<path d="M304.835 23.9505C304.544 24.3676 303.943 24.4868 303.493 24.2169C303.043 23.9469 302.914 23.3899 303.205 22.9728C303.497 22.5557 304.098 22.4365 304.548 22.7065C304.998 22.9765 305.126 23.5334 304.835 23.9505Z" fill="white"/>
<path d="M281.676 51.3144C281.53 51.523 281.23 51.5827 281.005 51.4476C280.78 51.3126 280.715 51.034 280.861 50.8254C281.007 50.6168 281.307 50.5572 281.532 50.6922C281.757 50.8273 281.822 51.1058 281.676 51.3144Z" fill="white"/>
<path d="M73.6216 -73.5054C73.4759 -73.2968 73.1753 -73.2372 72.9503 -73.3722C72.7252 -73.5073 72.6608 -73.7858 72.8065 -73.9944C72.9522 -74.203 73.2528 -74.2627 73.4779 -74.1276C73.703 -73.9926 73.7673 -73.714 73.6216 -73.5054Z" fill="white"/>
<path d="M234.59 -72.6677C234.444 -72.4591 234.144 -72.3995 233.919 -72.5345C233.693 -72.6695 233.629 -72.9481 233.775 -73.1567C233.92 -73.3653 234.221 -73.425 234.446 -73.2899C234.671 -73.1549 234.736 -72.8763 234.59 -72.6677Z" fill="white"/>
<path d="M19.205 4.4045C19.0593 4.61311 18.7587 4.67274 18.5337 4.5377C18.3086 4.40266 18.2442 4.12409 18.3899 3.91548C18.5356 3.70687 18.8362 3.64724 19.0613 3.78227C19.2864 3.91731 19.3507 4.19588 19.205 4.4045Z" fill="white"/>
<path d="M171.29 103.683C171.144 103.892 170.844 103.951 170.618 103.816C170.393 103.681 170.329 103.403 170.475 103.194C170.62 102.986 170.921 102.926 171.146 103.061C171.371 103.196 171.436 103.475 171.29 103.683Z" fill="white"/>
<path d="M93.3221 -104.194C93.1764 -103.986 92.8758 -103.926 92.6507 -104.061C92.4256 -104.196 92.3613 -104.475 92.507 -104.683C92.6527 -104.892 92.9532 -104.952 93.1783 -104.817C93.4034 -104.682 93.4678 -104.403 93.3221 -104.194Z" fill="white"/>
<path d="M98.4034 53.5261C98.2577 53.7347 97.9571 53.7944 97.732 53.6593C97.507 53.5243 97.4426 53.2457 97.5883 53.0371C97.734 52.8285 98.0346 52.7689 98.2597 52.9039C98.4848 53.0389 98.5491 53.3175 98.4034 53.5261Z" fill="white"/>
<path d="M268.982 85.4922C268.836 85.7008 268.535 85.7604 268.31 85.6254C268.085 85.4903 268.021 85.2118 268.167 85.0032C268.312 84.7945 268.613 84.7349 268.838 84.8699C269.063 85.005 269.127 85.2836 268.982 85.4922Z" fill="white"/>
<path d="M60.9273 -39.3277C60.7816 -39.1191 60.481 -39.0594 60.2559 -39.1945C60.0309 -39.3295 59.9665 -39.6081 60.1122 -39.8167C60.2579 -40.0253 60.5585 -40.0849 60.7836 -39.9499C61.0087 -39.8148 61.073 -39.5363 60.9273 -39.3277Z" fill="white"/>
<path d="M255.656 82.4984C255.51 82.707 255.209 82.7666 254.984 82.6316C254.759 82.4966 254.695 82.218 254.841 82.0094C254.986 81.8008 255.287 81.7411 255.512 81.8762C255.737 82.0112 255.801 82.2898 255.656 82.4984Z" fill="white"/>
<path d="M47.6013 -42.3215C47.4556 -42.1128 47.1551 -42.0532 46.93 -42.1882C46.7049 -42.3233 46.6405 -42.6019 46.7862 -42.8105C46.9319 -43.0191 47.2325 -43.0787 47.4576 -42.9437C47.6827 -42.8086 47.747 -42.5301 47.6013 -42.3215Z" fill="white"/>
<path d="M53.4773 -20.9357C53.3316 -20.7271 53.031 -20.6675 52.8059 -20.8025C52.5808 -20.9376 52.5165 -21.2161 52.6622 -21.4247C52.8079 -21.6334 53.1085 -21.693 53.3336 -21.558C53.5587 -21.4229 53.623 -21.1443 53.4773 -20.9357Z" fill="white"/>
<path d="M252.695 107.155C252.549 107.364 252.248 107.424 252.023 107.289C251.798 107.154 251.734 106.875 251.879 106.666C252.025 106.458 252.326 106.398 252.551 106.533C252.776 106.668 252.84 106.947 252.695 107.155Z" fill="white"/>
<path d="M268.032 38.8426C267.887 39.0512 267.586 39.1108 267.361 38.9758C267.136 38.8408 267.072 38.5622 267.217 38.3536C267.363 38.145 267.664 38.0853 267.889 38.2204C268.114 38.3554 268.178 38.634 268.032 38.8426Z" fill="white"/>
<path d="M63.1508 -84.0738C63.0051 -83.8652 62.7046 -83.8055 62.4795 -83.9406C62.2544 -84.0756 62.19 -84.3542 62.3357 -84.5628C62.4814 -84.7714 62.782 -84.831 63.0071 -84.696C63.2322 -84.5609 63.2965 -84.2824 63.1508 -84.0738Z" fill="white"/>
<path d="M8.7342 -6.1638C8.5885 -5.95519 8.28792 -5.89554 8.06283 -6.03058C7.83775 -6.16562 7.7734 -6.44419 7.9191 -6.6528C8.0648 -6.86141 8.36538 -6.92106 8.59047 -6.78602C8.81555 -6.65099 8.8799 -6.37241 8.7342 -6.1638Z" fill="white"/>
<path d="M240.839 72.3588C240.693 72.5674 240.392 72.627 240.167 72.492C239.942 72.3569 239.878 72.0784 240.023 71.8698C240.169 71.6611 240.47 71.6015 240.695 71.7365C240.92 71.8716 240.984 72.1502 240.839 72.3588Z" fill="white"/>
<path d="M32.7842 -52.4611C32.6384 -52.2525 32.3379 -52.1928 32.1128 -52.3279C31.8877 -52.4629 31.8233 -52.7415 31.969 -52.9501C32.1147 -53.1587 32.4153 -53.2183 32.6404 -53.0833C32.8655 -52.9483 32.9299 -52.6697 32.7842 -52.4611Z" fill="white"/>
<path d="M310.507 34.1406C310.361 34.3492 310.061 34.4088 309.836 34.2738C309.611 34.1387 309.546 33.8602 309.692 33.6516C309.838 33.443 310.138 33.3833 310.363 33.5184C310.588 33.6534 310.653 33.932 310.507 34.1406Z" fill="white"/>
<path d="M220.06 -20.1218C219.915 -19.9132 219.614 -19.8536 219.389 -19.9886C219.164 -20.1237 219.1 -20.4022 219.245 -20.6108C219.391 -20.8194 219.692 -20.8791 219.917 -20.744C220.142 -20.609 220.206 -20.3304 220.06 -20.1218Z" fill="white"/>
<path d="M252.806 28.6363C252.661 28.8449 252.36 28.9045 252.135 28.7695C251.91 28.6344 251.846 28.3559 251.991 28.1473C252.137 27.9387 252.438 27.879 252.663 28.0141C252.888 28.1491 252.952 28.4277 252.806 28.6363Z" fill="white"/>
<path d="M44.752 -96.1836C44.6063 -95.9749 44.3057 -95.9153 44.0806 -96.0503C43.8556 -96.1854 43.7912 -96.464 43.9369 -96.6726C44.0826 -96.8812 44.3832 -96.9408 44.6083 -96.8058C44.8334 -96.6707 44.8977 -96.3922 44.752 -96.1836Z" fill="white"/>
<path d="M227.619 49.2465C227.473 49.4551 227.173 49.5148 226.948 49.3797C226.723 49.2447 226.658 48.9661 226.804 48.7575C226.95 48.5489 227.25 48.4893 227.475 48.6243C227.7 48.7593 227.765 49.0379 227.619 49.2465Z" fill="white"/>
<path d="M297.291 35.8561C297.193 35.9952 296.993 36.0349 296.843 35.9449C296.693 35.8549 296.65 35.6692 296.747 35.5301C296.844 35.391 297.045 35.3512 297.195 35.4413C297.345 35.5313 297.388 35.717 297.291 35.8561Z" fill="white"/>
<path d="M206.844 -18.4063C206.747 -18.2673 206.546 -18.2275 206.396 -18.3175C206.246 -18.4075 206.203 -18.5933 206.301 -18.7323C206.398 -18.8714 206.598 -18.9112 206.748 -18.8211C206.898 -18.7311 206.941 -18.5454 206.844 -18.4063Z" fill="white"/>
<path d="M89.2363 -88.9637C89.1391 -88.8247 88.9387 -88.7849 88.7887 -88.8749C88.6386 -88.965 88.5957 -89.1507 88.6929 -89.2898C88.79 -89.4288 88.9904 -89.4686 89.1404 -89.3786C89.2905 -89.2885 89.3334 -89.1028 89.2363 -88.9637Z" fill="white"/>
<path d="M34.8197 -11.0538C34.7225 -10.9148 34.5221 -10.875 34.3721 -10.965C34.222 -11.055 34.1791 -11.2408 34.2763 -11.3798C34.3734 -11.5189 34.5738 -11.5587 34.7238 -11.4686C34.8739 -11.3786 34.9168 -11.1929 34.8197 -11.0538Z" fill="white"/>
<path d="M56.0883 25.8177C55.9912 25.9568 55.7908 25.9966 55.6407 25.9066C55.4907 25.8165 55.4478 25.6308 55.5449 25.4917C55.6421 25.3527 55.8424 25.3129 55.9925 25.4029C56.1426 25.493 56.1855 25.6787 56.0883 25.8177Z" fill="white"/>
<path d="M149.583 98.3406C149.486 98.4797 149.286 98.5195 149.136 98.4294C148.986 98.3394 148.943 98.1537 149.04 98.0146C149.137 97.8756 149.337 97.8358 149.487 97.9258C149.637 98.0159 149.68 98.2016 149.583 98.3406Z" fill="white"/>
<path d="M71.6155 -109.537C71.5184 -109.398 71.318 -109.358 71.1679 -109.448C71.0179 -109.538 70.975 -109.724 71.0721 -109.863C71.1692 -110.002 71.3696 -110.042 71.5197 -109.952C71.6697 -109.862 71.7126 -109.676 71.6155 -109.537Z" fill="white"/>
<path d="M288.055 36.3876C287.957 36.5267 287.757 36.5664 287.607 36.4764C287.457 36.3864 287.414 36.2007 287.511 36.0616C287.608 35.9225 287.809 35.8828 287.959 35.9728C288.109 36.0628 288.152 36.2486 288.055 36.3876Z" fill="white"/>
<path d="M197.608 -17.8748C197.511 -17.7357 197.31 -17.696 197.16 -17.786C197.01 -17.876 196.967 -18.0617 197.065 -18.2008C197.162 -18.3399 197.362 -18.3796 197.512 -18.2896C197.662 -18.1996 197.705 -18.0139 197.608 -17.8748Z" fill="white"/>
<path d="M80.0002 -88.4322C79.9031 -88.2932 79.7027 -88.2534 79.5527 -88.3434C79.4026 -88.4334 79.3597 -88.6192 79.4568 -88.7582C79.554 -88.8973 79.7544 -88.9371 79.9044 -88.847C80.0545 -88.757 80.0974 -88.5713 80.0002 -88.4322Z" fill="white"/>
<path d="M206.639 -90.8214C206.542 -90.6823 206.342 -90.6426 206.192 -90.7326C206.042 -90.8226 205.999 -91.0083 206.096 -91.1474C206.193 -91.2865 206.393 -91.3262 206.543 -91.2362C206.694 -91.1462 206.736 -90.9605 206.639 -90.8214Z" fill="white"/>
<path d="M25.5836 -10.5223C25.4865 -10.3832 25.2861 -10.3435 25.1361 -10.4335C24.986 -10.5235 24.9431 -10.7092 25.0402 -10.8483C25.1374 -10.9874 25.3378 -11.0271 25.4878 -10.9371C25.6379 -10.8471 25.6808 -10.6614 25.5836 -10.5223Z" fill="white"/>
<path d="M46.8524 26.3492C46.7552 26.4883 46.5548 26.5281 46.4048 26.438C46.2547 26.348 46.2118 26.1623 46.309 26.0232C46.4061 25.8842 46.6065 25.8444 46.7565 25.9344C46.9066 26.0244 46.9495 26.2102 46.8524 26.3492Z" fill="white"/>
<path d="M177.366 120.367C177.269 120.506 177.069 120.546 176.919 120.456C176.769 120.366 176.726 120.18 176.823 120.041C176.92 119.902 177.12 119.862 177.271 119.952C177.421 120.042 177.463 120.228 177.366 120.367Z" fill="white"/>
<path d="M99.3987 -87.5107C99.3015 -87.3716 99.1011 -87.3318 98.9511 -87.4218C98.801 -87.5119 98.7581 -87.6976 98.8552 -87.8367C98.9524 -87.9757 99.1528 -88.0155 99.3028 -87.9255C99.4529 -87.8354 99.4958 -87.6497 99.3987 -87.5107Z" fill="white"/>
<path d="M221.286 73.4882C221.189 73.6273 220.989 73.667 220.839 73.577C220.689 73.487 220.646 73.3013 220.743 73.1622C220.84 73.0231 221.041 72.9834 221.191 73.0734C221.341 73.1634 221.384 73.3491 221.286 73.4882Z" fill="white"/>
<path d="M263.066 21.3962C262.969 21.5353 262.769 21.5751 262.619 21.485C262.469 21.395 262.426 21.2093 262.523 21.0702C262.62 20.9311 262.82 20.8914 262.971 20.9814C263.121 21.0714 263.163 21.2571 263.066 21.3962Z" fill="white"/>
<path d="M118.899 -76.5261C118.802 -76.387 118.601 -76.3473 118.451 -76.4373C118.301 -76.5273 118.258 -76.713 118.355 -76.8521C118.453 -76.9912 118.653 -77.0309 118.803 -76.9409C118.953 -76.8509 118.996 -76.6652 118.899 -76.5261Z" fill="white"/>
<path d="M172.62 -32.8662C172.523 -32.7271 172.322 -32.6874 172.172 -32.7774C172.022 -32.8674 171.979 -33.0531 172.076 -33.1922C172.173 -33.3313 172.374 -33.371 172.524 -33.281C172.674 -33.191 172.717 -33.0053 172.62 -32.8662Z" fill="white"/>
<path d="M55.012 -103.424C54.9149 -103.285 54.7145 -103.245 54.5644 -103.335C54.4144 -103.425 54.3715 -103.611 54.4686 -103.75C54.5657 -103.889 54.7661 -103.928 54.9162 -103.838C55.0662 -103.748 55.1091 -103.563 55.012 -103.424Z" fill="white"/>
<path d="M0.595398 -25.5137C0.498263 -25.3746 0.297875 -25.3349 0.147819 -25.4249C-0.00223752 -25.5149 -0.0451396 -25.7006 0.0519957 -25.8397C0.149131 -25.9788 0.34952 -26.0185 0.499577 -25.9285C0.649633 -25.8385 0.692534 -25.6528 0.595398 -25.5137Z" fill="white"/>
<path d="M281.51 39.9629C281.413 40.102 281.213 40.1418 281.063 40.0517C280.913 39.9617 280.87 39.776 280.967 39.6369C281.064 39.4978 281.265 39.4581 281.415 39.5481C281.565 39.6381 281.608 39.8239 281.51 39.9629Z" fill="white"/>
<path d="M73.4561 -84.8569C73.359 -84.7178 73.1586 -84.6781 73.0085 -84.7681C72.8585 -84.8581 72.8156 -85.0438 72.9127 -85.1829C73.0098 -85.322 73.2102 -85.3617 73.3603 -85.2717C73.5103 -85.1817 73.5532 -84.996 73.4561 -84.8569Z" fill="white"/>
<path d="M230.451 -84.8665C230.354 -84.7274 230.153 -84.6876 230.003 -84.7777C229.853 -84.8677 229.81 -85.0534 229.907 -85.1925C230.004 -85.3316 230.205 -85.3713 230.355 -85.2813C230.505 -85.1913 230.548 -85.0056 230.451 -84.8665Z" fill="white"/>
<path d="M19.0395 -6.94697C18.9423 -6.8079 18.742 -6.76814 18.5919 -6.85817C18.4418 -6.94819 18.3989 -7.13391 18.4961 -7.27298C18.5932 -7.41206 18.7936 -7.45181 18.9437 -7.36179C19.0937 -7.27176 19.1366 -7.08604 19.0395 -6.94697Z" fill="white"/>
<path d="M40.3082 29.9245C40.2111 30.0636 40.0107 30.1034 39.8606 30.0133C39.7106 29.9233 39.6677 29.7376 39.7648 29.5985C39.8619 29.4595 40.0623 29.4197 40.2124 29.5097C40.3624 29.5997 40.4053 29.7855 40.3082 29.9245Z" fill="white"/>
<path d="M196.174 117.719C196.077 117.858 195.877 117.898 195.727 117.808C195.577 117.718 195.534 117.532 195.631 117.393C195.728 117.254 195.928 117.214 196.079 117.304C196.229 117.395 196.272 117.58 196.174 117.719Z" fill="white"/>
<path d="M118.207 -90.1582C118.109 -90.0191 117.909 -89.9794 117.759 -90.0694C117.609 -90.1594 117.566 -90.3451 117.663 -90.4842C117.76 -90.6233 117.961 -90.6631 118.111 -90.573C118.261 -90.483 118.304 -90.2973 118.207 -90.1582Z" fill="white"/>
<path d="M241.743 94.6913C241.646 94.8304 241.446 94.8702 241.296 94.7802C241.146 94.6901 241.103 94.5044 241.2 94.3653C241.297 94.2263 241.497 94.1865 241.648 94.2765C241.798 94.3666 241.841 94.5523 241.743 94.6913Z" fill="white"/>
<path d="M238.953 103.377C238.856 103.516 238.656 103.555 238.506 103.465C238.356 103.375 238.313 103.19 238.41 103.051C238.507 102.911 238.707 102.872 238.857 102.962C239.008 103.052 239.05 103.237 238.953 103.377Z" fill="white"/>
<path d="M234.317 34.69C234.22 34.829 234.02 34.8688 233.87 34.7788C233.72 34.6888 233.677 34.503 233.774 34.364C233.871 34.2249 234.071 34.1851 234.221 34.2751C234.371 34.3652 234.414 34.5509 234.317 34.69Z" fill="white"/>
<path d="M267.796 59.5978C267.699 59.7369 267.499 59.7766 267.349 59.6866C267.199 59.5966 267.156 59.4109 267.253 59.2718C267.35 59.1327 267.551 59.093 267.701 59.183C267.851 59.273 267.894 59.4587 267.796 59.5978Z" fill="white"/>
<path d="M59.742 -65.2221C59.6449 -65.083 59.4445 -65.0432 59.2945 -65.1333C59.1444 -65.2233 59.1015 -65.409 59.1986 -65.5481C59.2958 -65.6871 59.4962 -65.7269 59.6462 -65.6369C59.7963 -65.5468 59.8392 -65.3611 59.742 -65.2221Z" fill="white"/>
<path d="M5.32543 12.6879C5.2283 12.8269 5.02791 12.8667 4.87785 12.7767C4.7278 12.6866 4.68489 12.5009 4.78203 12.3619C4.87916 12.2228 5.07955 12.183 5.22961 12.273C5.37967 12.3631 5.42257 12.5488 5.32543 12.6879Z" fill="white"/>
<path d="M235.802 118.097C235.705 118.236 235.505 118.275 235.355 118.185C235.205 118.095 235.162 117.91 235.259 117.771C235.356 117.631 235.557 117.592 235.707 117.682C235.857 117.772 235.9 117.957 235.802 118.097Z" fill="white"/>
<path d="M289.567 26.2213C289.47 26.3604 289.269 26.4001 289.119 26.3101C288.969 26.2201 288.926 26.0344 289.023 25.8953C289.12 25.7562 289.321 25.7165 289.471 25.8065C289.621 25.8965 289.664 26.0822 289.567 26.2213Z" fill="white"/>
<path d="M199.12 -28.0411C199.023 -27.9021 198.823 -27.8623 198.672 -27.9523C198.522 -28.0423 198.48 -28.2281 198.577 -28.3671C198.674 -28.5062 198.874 -28.546 199.024 -28.4559C199.174 -28.3659 199.217 -28.1802 199.12 -28.0411Z" fill="white"/>
<path d="M62.0686 45.1228C61.9715 45.2619 61.7711 45.3016 61.621 45.2116C61.471 45.1216 61.4281 44.9359 61.5252 44.7968C61.6223 44.6577 61.8227 44.618 61.9728 44.708C62.1228 44.798 62.1657 44.9837 62.0686 45.1228Z" fill="white"/>
<path d="M289.298 10.8787C289.201 11.0178 289.001 11.0576 288.851 10.9675C288.7 10.8775 288.658 10.6918 288.755 10.5527C288.852 10.4137 289.052 10.3739 289.202 10.4639C289.352 10.5539 289.395 10.7397 289.298 10.8787Z" fill="white"/>
<path d="M198.852 -43.3837C198.754 -43.2446 198.554 -43.2048 198.404 -43.2949C198.254 -43.3849 198.211 -43.5706 198.308 -43.7097C198.405 -43.8488 198.606 -43.8885 198.756 -43.7985C198.906 -43.7085 198.949 -43.5228 198.852 -43.3837Z" fill="white"/>
<path d="M258.308 5.86037C258.211 5.99944 258.01 6.03921 257.86 5.94918C257.71 5.85915 257.667 5.67344 257.764 5.53436C257.861 5.39529 258.062 5.35553 258.212 5.44555C258.362 5.53558 258.405 5.7213 258.308 5.86037Z" fill="white"/>
<path d="M167.861 -48.4021C167.764 -48.263 167.564 -48.2232 167.414 -48.3133C167.263 -48.4033 167.221 -48.589 167.318 -48.7281C167.415 -48.8671 167.615 -48.9069 167.765 -48.8169C167.915 -48.7269 167.958 -48.5411 167.861 -48.4021Z" fill="white"/>
<path d="M249.765 16.9881C249.668 17.1272 249.467 17.1669 249.317 17.0769C249.167 16.9869 249.124 16.8012 249.221 16.6621C249.318 16.523 249.519 16.4833 249.669 16.5733C249.819 16.6633 249.862 16.849 249.765 16.9881Z" fill="white"/>
<path d="M105.597 -80.9342C105.5 -80.7952 105.3 -80.7554 105.15 -80.8454C105 -80.9355 104.957 -81.1212 105.054 -81.2603C105.151 -81.3993 105.351 -81.4391 105.501 -81.3491C105.651 -81.259 105.694 -81.0733 105.597 -80.9342Z" fill="white"/>
<path d="M86.8652 59.2849C86.7681 59.4239 86.5677 59.4637 86.4177 59.3737C86.2676 59.2836 86.2247 59.0979 86.3218 58.9588C86.419 58.8198 86.6194 58.78 86.7694 58.87C86.9195 58.9601 86.9624 59.1458 86.8652 59.2849Z" fill="white"/>
<path d="M286.593 31.5818C286.496 31.7208 286.296 31.7606 286.146 31.6706C285.996 31.5806 285.953 31.3948 286.05 31.2558C286.147 31.1167 286.348 31.0769 286.498 31.167C286.648 31.257 286.691 31.4427 286.593 31.5818Z" fill="white"/>
<path d="M196.147 -22.6806C196.05 -22.5416 195.849 -22.5018 195.699 -22.5918C195.549 -22.6819 195.506 -22.8676 195.603 -23.0067C195.701 -23.1457 195.901 -23.1855 196.051 -23.0955C196.201 -23.0054 196.244 -22.8197 196.147 -22.6806Z" fill="white"/>
<path d="M234.161 -22.2001C234.064 -22.0611 233.863 -22.0213 233.713 -22.1113C233.563 -22.2014 233.52 -22.3871 233.618 -22.5262C233.715 -22.6652 233.915 -22.705 234.065 -22.615C234.215 -22.5249 234.258 -22.3392 234.161 -22.2001Z" fill="white"/>
<path d="M78.5391 -93.2381C78.442 -93.099 78.2416 -93.0592 78.0915 -93.1493C77.9415 -93.2393 77.8986 -93.425 77.9957 -93.5641C78.0928 -93.7032 78.2932 -93.7429 78.4433 -93.6529C78.5933 -93.5629 78.6362 -93.3771 78.5391 -93.2381Z" fill="white"/>
<path d="M24.1226 -15.3282C24.0254 -15.1892 23.825 -15.1494 23.675 -15.2394C23.5249 -15.3295 23.482 -15.5152 23.5792 -15.6543C23.6763 -15.7933 23.8767 -15.8331 24.0267 -15.743C24.1768 -15.653 24.2197 -15.4673 24.1226 -15.3282Z" fill="white"/>
<path d="M45.3912 21.5434C45.2941 21.6825 45.0937 21.7222 44.9436 21.6322C44.7936 21.5422 44.7507 21.3565 44.8478 21.2174C44.9449 21.0783 45.1453 21.0385 45.2954 21.1286C45.4454 21.2186 45.4883 21.4043 45.3912 21.5434Z" fill="white"/>
<path d="M12.7664 -40.1802C12.6693 -40.0412 12.4689 -40.0014 12.3188 -40.0914C12.1688 -40.1814 12.1259 -40.3672 12.223 -40.5062C12.3202 -40.6453 12.5205 -40.6851 12.6706 -40.595C12.8207 -40.505 12.8636 -40.3193 12.7664 -40.1802Z" fill="white"/>
<path d="M113.549 67.4345C113.452 67.5736 113.251 67.6134 113.101 67.5233C112.951 67.4333 112.908 67.2476 113.005 67.1085C113.102 66.9695 113.303 66.9297 113.453 67.0197C113.603 67.1098 113.646 67.2955 113.549 67.4345Z" fill="white"/>
<path d="M155.817 88.8637C155.72 89.0028 155.52 89.0425 155.369 88.9525C155.219 88.8625 155.176 88.6768 155.274 88.5377C155.371 88.3986 155.571 88.3589 155.721 88.4489C155.871 88.5389 155.914 88.7246 155.817 88.8637Z" fill="white"/>
<path d="M184.28 105.226C184.183 105.365 183.983 105.404 183.833 105.314C183.683 105.224 183.64 105.039 183.737 104.9C183.834 104.761 184.035 104.721 184.185 104.811C184.335 104.901 184.378 105.087 184.28 105.226Z" fill="white"/>
<path d="M273.248 5.71485C273.151 5.85393 272.951 5.89368 272.801 5.80366C272.651 5.71363 272.608 5.52792 272.705 5.38884C272.802 5.24977 273.002 5.21001 273.152 5.30004C273.302 5.39006 273.345 5.57578 273.248 5.71485Z" fill="white"/>
<path d="M182.802 -48.5475C182.704 -48.4085 182.504 -48.3687 182.354 -48.4587C182.204 -48.5488 182.161 -48.7345 182.258 -48.8736C182.355 -49.0126 182.556 -49.0524 182.706 -48.9624C182.856 -48.8723 182.899 -48.6866 182.802 -48.5475Z" fill="white"/>
<path d="M236.125 -13.6992C236.028 -13.5602 235.827 -13.5204 235.677 -13.6105C235.527 -13.7005 235.484 -13.8862 235.581 -14.0253C235.678 -14.1643 235.879 -14.2041 236.029 -14.1141C236.179 -14.024 236.222 -13.8383 236.125 -13.6992Z" fill="white"/>
<path d="M145.678 -67.9617C145.581 -67.8226 145.381 -67.7828 145.231 -67.8729C145.08 -67.9629 145.038 -68.1486 145.135 -68.2877C145.232 -68.4267 145.432 -68.4665 145.582 -68.3765C145.732 -68.2865 145.775 -68.1007 145.678 -67.9617Z" fill="white"/>
<path d="M244.542 3.49589C244.445 3.63496 244.245 3.67471 244.095 3.58469C243.945 3.49467 243.902 3.30894 243.999 3.16988C244.096 3.03081 244.296 2.99105 244.446 3.08108C244.596 3.1711 244.639 3.35682 244.542 3.49589Z" fill="white"/>
<path d="M154.096 -50.7665C153.998 -50.6274 153.798 -50.5877 153.648 -50.6777C153.498 -50.7677 153.455 -50.9535 153.552 -51.0925C153.649 -51.2316 153.85 -51.2714 154 -51.1813C154.15 -51.0913 154.193 -50.9056 154.096 -50.7665Z" fill="white"/>
<path d="M293.262 42.7269C293.165 42.866 292.965 42.9057 292.815 42.8157C292.665 42.7257 292.622 42.54 292.719 42.4009C292.816 42.2618 293.017 42.2221 293.167 42.3121C293.317 42.4021 293.36 42.5878 293.262 42.7269Z" fill="white"/>
<path d="M85.2082 -82.0929C85.111 -81.9538 84.9107 -81.9141 84.7606 -82.0041C84.6105 -82.0941 84.5676 -82.2799 84.6648 -82.4189C84.7619 -82.558 84.9623 -82.5978 85.1124 -82.5077C85.2624 -82.4177 85.3053 -82.232 85.2082 -82.0929Z" fill="white"/>
<path d="M30.7916 -4.18301C30.6944 -4.04395 30.4941 -4.00418 30.344 -4.0942C30.1939 -4.18423 30.151 -4.36996 30.2482 -4.50903C30.3453 -4.6481 30.5457 -4.68786 30.6958 -4.59783C30.8458 -4.5078 30.8887 -4.32209 30.7916 -4.18301Z" fill="white"/>
<path d="M52.0602 32.6886C51.9631 32.8276 51.7627 32.8674 51.6127 32.7774C51.4626 32.6873 51.4197 32.5016 51.5168 32.3625C51.614 32.2235 51.8144 32.1837 51.9644 32.2737C52.1145 32.3638 52.1574 32.5495 52.0602 32.6886Z" fill="white"/>
<path d="M143.039 101.916C142.942 102.055 142.742 102.095 142.591 102.005C142.441 101.915 142.398 101.729 142.496 101.59C142.593 101.451 142.793 101.411 142.943 101.501C143.093 101.591 143.136 101.777 143.039 101.916Z" fill="white"/>
<path d="M65.0714 -105.962C64.9742 -105.823 64.7738 -105.783 64.6238 -105.873C64.4737 -105.963 64.4308 -106.149 64.528 -106.288C64.6251 -106.427 64.8255 -106.467 64.9755 -106.377C65.1256 -106.287 65.1685 -106.101 65.0714 -105.962Z" fill="white"/>
<path d="M217.032 95.583C216.934 95.7221 216.734 95.7619 216.584 95.6718C216.434 95.5818 216.391 95.3961 216.488 95.257C216.585 95.118 216.786 95.0782 216.936 95.1682C217.086 95.2582 217.129 95.444 217.032 95.583Z" fill="white"/>
<path d="M225.474 108.328C225.377 108.467 225.176 108.507 225.026 108.417C224.876 108.327 224.833 108.141 224.93 108.002C225.028 107.863 225.228 107.823 225.378 107.913C225.528 108.003 225.571 108.189 225.474 108.328Z" fill="white"/>
<path d="M74.329 -55.7564C74.2319 -55.6173 74.0315 -55.5776 73.8815 -55.6676C73.7314 -55.7576 73.6885 -55.9433 73.7856 -56.0824C73.8828 -56.2215 74.0832 -56.2612 74.2332 -56.1712C74.3833 -56.0812 74.4262 -55.8955 74.329 -55.7564Z" fill="white"/>
<path d="M19.9124 22.1536C19.8153 22.2926 19.6149 22.3324 19.4648 22.2424C19.3148 22.1523 19.2719 21.9666 19.369 21.8276C19.4661 21.6885 19.6665 21.6487 19.8166 21.7387C19.9666 21.8288 20.0095 22.0145 19.9124 22.1536Z" fill="white"/>
<path d="M51.6112 93.3314C51.6112 94.1759 50.8725 94.8605 49.9614 94.8605C49.0502 94.8605 48.3115 94.1759 48.3115 93.3314C48.3115 92.487 49.0502 91.8024 49.9614 91.8024C50.8725 91.8024 51.6112 92.487 51.6112 93.3314Z" fill="white"/>
<path d="M94.6984 -71.6551C94.6984 -70.8106 93.9597 -70.1261 93.0486 -70.1261C92.1374 -70.1261 91.3988 -70.8106 91.3988 -71.6551C91.3988 -72.4996 92.1374 -73.1841 93.0486 -73.1841C93.9597 -73.1841 94.6984 -72.4996 94.6984 -71.6551Z" fill="white"/>
<path d="M233.031 99.9869C233.031 100.831 232.292 101.516 231.381 101.516C230.47 101.516 229.731 100.831 229.731 99.9869C229.731 99.1425 230.47 98.4579 231.381 98.4579C232.292 98.4579 233.031 99.1425 233.031 99.9869Z" fill="white"/>
<path d="M42.9181 12.4145C42.9181 13.2589 42.1795 13.9435 41.2683 13.9435C40.3572 13.9435 39.6185 13.2589 39.6185 12.4145C39.6185 11.57 40.3572 10.8854 41.2683 10.8854C42.1795 10.8854 42.9181 11.57 42.9181 12.4145Z" fill="white"/>
<path d="M292.748 -74.4574C292.748 -73.613 292.01 -72.9284 291.099 -72.9284C290.187 -72.9284 289.449 -73.613 289.449 -74.4574C289.449 -75.3019 290.187 -75.9865 291.099 -75.9865C292.01 -75.9865 292.748 -75.3019 292.748 -74.4574Z" fill="white"/>
</g>
</g>
<path fill-rule="evenodd" clip-rule="evenodd" d="M133.482 32.7859C148.508 31.7801 155.215 16.6906 155.215 16.6906C155.215 16.6906 156.664 12.2438 157.071 11.3788C157.071 11.3788 158.06 8.48627 159.73 11.0803C159.73 11.0803 161.992 15.6422 158.875 21.3784C158.875 21.3784 163.316 16.4865 163.651 15.659C163.651 15.659 165.513 13.4255 166.018 15.8199C166.018 15.8199 167.92 22.4769 160.634 28.5998C160.634 28.5998 162.077 28.4195 163.073 27.6146C163.073 27.6146 165.895 26.7224 164.84 30.3218C164.84 30.3218 163.962 35.1968 156.826 39.2255C156.826 39.2255 154.604 40.6585 154.181 40.8038C154.181 40.8038 156.114 40.5704 157.341 39.8832C157.341 39.8832 158.9 38.9877 159.353 40.2817C159.353 40.2817 159.327 41.8588 155.903 44.4983C155.903 44.4983 141.797 56.5403 129.869 53.4555C129.869 53.4555 122.989 51.622 126.479 41.6738C126.479 41.6738 127.711 32.0857 133.482 32.786V32.7859Z" fill="#173C3F"/>
<path fill-rule="evenodd" clip-rule="evenodd" d="M113.069 43.1776C104.228 44.8028 97.0977 35.9021 97.0977 35.9021C97.0977 35.9021 95.2482 33.4989 94.8118 33.0578C94.8118 33.0578 93.5804 31.5043 93.1288 33.4326C93.1288 33.4326 92.7452 36.6825 95.8907 39.5212C95.8907 39.5212 92.123 37.4736 91.7391 37.0401C91.7391 37.0401 90.1199 36.0705 90.3334 37.6335C90.3334 37.6335 90.6246 42.0832 96.3915 44.2847C96.3915 44.2847 95.4743 44.4769 94.6929 44.1955C94.6929 44.1955 92.7811 44.2432 94.2064 46.2132C94.2064 46.2132 95.8021 48.9963 101.022 49.9545C101.022 49.9545 102.686 50.3615 102.975 50.3615C102.975 50.3615 101.748 50.6241 100.852 50.4625C100.852 50.4625 99.708 50.244 99.714 51.1263C99.714 51.1263 100.073 52.0809 102.731 52.9705C102.731 52.9705 113.937 57.3468 120.526 52.9725C120.526 52.9725 124.314 50.4163 120.025 45.0923C120.025 45.0923 116.429 41.5433 113.069 43.1776V43.1776Z" fill="#173C3F"/>
<path fill-rule="evenodd" clip-rule="evenodd" d="M128.561 65.477C126.421 64.2966 118.831 66.4607 118.731 66.4279C118.664 65.7393 118.831 64.4934 118.831 64.4934C118.765 63.0507 118.397 62.0998 118.397 62.0998C116.424 57.7717 115.187 46.6236 115.187 46.6236C115.187 46.6236 117.26 30.8851 130.767 39.0823C130.767 39.0823 135.013 44.1317 134.545 51.0829C134.545 51.0829 134.168 57.3458 132.472 61.8703C132.472 61.8703 131.884 62.9675 131.952 64.5301C131.952 64.5301 131.929 65.4954 131.52 66.3527C131.52 66.3527 130.399 67.1164 128.561 65.477Z" fill="#173C3F"/>
<path fill-rule="evenodd" clip-rule="evenodd" d="M130.396 67.8837C130.396 67.8837 130.312 68.3919 130.68 69.1132C130.68 69.1132 131.098 70.1953 131.098 70.5395C131.098 70.5395 131.198 71.5396 131.666 71.7035C131.666 71.7035 132.368 72.2117 132.653 71.1789C132.653 71.1789 133.488 72.097 134.174 71.1627C134.174 71.1627 135.127 71.8511 135.528 71.2445C135.528 71.2445 135.896 70.6051 135.561 69.7034C135.561 69.7034 135.277 68.8345 134.241 68.2935C134.241 68.2935 132.318 67.3755 132.084 67.2771C132.084 67.2771 131.499 67.0476 131.065 67.0804C130.546 67.0804 130.396 67.8837 130.396 67.8837Z" fill="#FAB84A"/>
<path fill-rule="evenodd" clip-rule="evenodd" d="M132.645 71.1944C132.728 70.2439 132.019 68.7832 132.019 68.7832C132.019 68.7832 133.295 69.4788 133.413 71.5538C133.413 71.5538 132.929 71.6234 132.645 71.1944Z" fill="#E89C23"/>
<path fill-rule="evenodd" clip-rule="evenodd" d="M132.953 68.7251C133.035 68.7946 134.253 70.1162 134.407 71.1943C134.407 71.1943 134.868 71.5884 135.258 71.3798C135.258 71.3798 134.939 69.5482 132.953 68.7251Z" fill="#E89C23"/>
<path fill-rule="evenodd" clip-rule="evenodd" d="M118.543 66.786C118.401 66.786 115.658 68.1076 115.115 69.6378C115.115 69.6378 114.618 70.9129 115.186 71.678C115.186 71.678 115.72 72.1395 116.005 71.5411C116.005 71.5411 116.08 71.3689 116.097 71.0083C116.097 71.0083 116.105 70.6722 116.28 70.5164C116.28 70.5164 116.13 71.5001 116.339 71.8608C116.339 71.8608 116.765 72.4838 117.409 71.9263C117.409 71.9263 117.768 71.6558 117.844 71.3607C117.844 71.3607 118.036 72.1887 118.562 72.0329C118.562 72.0329 119.114 72.0329 119.356 70.8197C119.356 70.8197 120.091 68.409 119.666 67.3309C119.666 67.3309 119.736 66.4382 118.543 66.786Z" fill="#FAB84A"/>
<path fill-rule="evenodd" clip-rule="evenodd" d="M116.64 71.9511C116.356 70.1477 117.61 68.623 117.61 68.623C115.637 69.7379 115.654 71.7871 115.654 71.7871C115.654 71.7871 116.005 71.8937 116.097 71.1068C116.097 71.1068 116.18 71.8937 116.64 71.9511Z" fill="#E89C23"/>
<path fill-rule="evenodd" clip-rule="evenodd" d="M117.776 71.3935C117.776 71.3935 118.061 69.5573 118.545 68.877C118.545 68.877 118.479 71.7705 118.42 72.0328C118.42 72.0328 117.96 71.9754 117.776 71.3935Z" fill="#E89C23"/>
<path fill-rule="evenodd" clip-rule="evenodd" d="M118.255 44.9068C118.255 44.9068 118.991 56.0549 119.927 61.2355C119.927 61.2355 120.339 63.4102 119.18 65.3578C119.18 65.3578 118.64 66.5308 118.539 66.6948C118.539 66.6948 118.255 67.4161 118.69 67.6784C118.757 67.7112 119.141 68.0555 119.81 67.4653C119.81 67.4653 121.548 66.3177 123.337 66.2357C123.337 66.2357 126.246 65.8914 127.383 66.3669C127.383 66.3669 128.921 66.8095 130.275 67.8752C130.275 67.8752 131.013 68.3254 131.486 68.082C131.486 68.082 131.959 67.9777 131.817 67.4212C131.805 67.3864 131.261 65.6592 131.238 64.3608C131.238 64.3608 130.954 62.2046 131.214 60.999C131.214 60.999 132.331 50.0874 131.863 46.8741C131.863 46.8741 131.899 39.1356 126.036 36.7707C126.036 36.7707 123.377 36.4506 122.159 36.7707C122.159 36.7707 117.661 39.0392 118.255 44.9068Z" fill="#BCB9A8"/>
<path fill-rule="evenodd" clip-rule="evenodd" d="M123.263 64.975C123.263 64.975 126.138 64.2864 127.543 64.9422C127.543 64.9422 130.646 61.3109 130.74 54.1236C130.74 54.1236 130.819 47.9805 130.251 46.046C130.251 46.046 128.447 45.6846 127.604 43.1807C126.986 46.9828 124.281 49.1831 122.621 46.6884C120.548 43.4259 120.538 45.033 120.054 48.0233C120.054 48.0233 118.382 58.4173 123.263 64.975Z" fill="#D5D3C7"/>
<path fill-rule="evenodd" clip-rule="evenodd" d="M122.998 22.3282C122.998 22.3282 121.369 20.7553 116.237 21.6022C116.237 21.6022 111.188 22.5141 107.856 19.1946C107.856 19.1946 107.437 20.1357 108.065 21.1966C108.065 21.1966 105.71 20.6319 103.668 18.2022C103.668 18.2022 102.988 21.3163 104.541 23.6092C104.541 23.6092 103.459 23.883 102.43 23.1643C102.43 23.1643 102.081 26.056 105.204 26.5694C105.204 26.5694 102.848 27.6816 102.569 31.1208C102.569 31.1208 103.511 30.6759 104.297 30.6588C104.297 30.6588 101.906 34.389 105.169 37.1267C105.169 37.1267 104.89 42.6877 109.217 44.1592C109.217 44.1592 117.976 46.7601 121.535 40.1211C121.535 40.1211 122.965 37.1096 125.513 38.6154C125.513 38.6154 126.141 38.9918 126.664 40.1895C126.664 40.1895 129.044 45.5471 137.663 43.8703C137.663 43.8703 143.596 42.5674 144.635 39.2313C144.635 39.2313 145.578 39.7446 145.647 40.7028C145.647 40.7028 149.311 39.1287 145.508 29.5124C145.508 29.5124 147.078 29.7177 147.776 31.2235C147.776 31.2235 149.067 27.9382 145.403 24.7898C145.403 24.7898 147.916 22.6681 147.532 19.6908C147.532 19.6908 144.95 21.3677 142.646 21.2308C142.646 21.2308 144.356 20.2384 143.065 15.3789C143.065 15.3789 141.041 18.2535 136.33 18.9037C136.33 18.9037 132.387 19.417 129.945 19.5882C129.945 19.5882 124.251 19.6954 122.998 22.3282Z" fill="#173C3F"/>
<path fill-rule="evenodd" clip-rule="evenodd" d="M142.444 16.8384C142.444 16.8384 139.907 19.0835 134.995 19.072C133.631 19.2375 131.522 19.481 129.947 19.5913C129.947 19.5913 124.254 19.6986 123 22.3314C123 22.3314 121.372 20.7585 116.239 21.6054C116.239 21.6054 111.191 22.5173 107.858 19.1978C107.858 19.1978 107.44 20.1388 108.068 21.1997C108.068 21.1997 106.115 20.7311 104.225 18.8134C104.499 21.3744 105.834 24.1086 105.834 24.1086C105.296 23.9903 104.866 23.7999 104.521 23.5774C104.528 23.589 104.535 23.6009 104.543 23.6124C104.543 23.6124 103.878 23.7785 103.095 23.505C103.687 26.3866 106.567 26.0821 106.567 26.0821C105.703 26.566 104.445 28.1147 104.445 28.1147C102.619 30.4861 105.012 30.1958 105.012 30.1958C102.644 34.8177 105.66 35.2649 105.66 35.2649C105.66 35.2649 104.857 41.3905 110.231 42.7593C110.231 42.7593 115.849 44.3336 120.874 39.5768C120.874 39.5768 122.305 38.4475 122.584 38.071C122.584 38.071 124.015 36.2229 126.178 38.1736C126.178 38.1736 130.889 44.9495 139.962 41.1852C139.962 41.1852 143.486 40.1586 143.87 35.9493C143.87 35.9493 144.498 36.0862 144.812 36.9417C144.812 36.9417 145.72 32.8009 143.8 27.1202C143.8 27.1202 146.104 27.9414 146.522 28.3862C146.522 28.3862 146.941 26.7779 143.835 24.5877C143.835 24.5877 145.577 23.5654 146.219 21.1698C146.219 21.1698 144.294 22.8153 141.358 21.799C141.358 21.799 142.789 20.1294 142.444 16.8384V16.8384Z" fill="#225054"/>
<path d="M135.284 39.2933C139.636 38.4964 142.423 34.0566 141.51 29.3767C140.597 24.6967 136.329 21.5489 131.977 22.3457C127.625 23.1426 124.837 27.5824 125.75 32.2624C126.663 36.9423 130.932 40.0901 135.284 39.2933Z" fill="#173C3F"/>
<path d="M112.741 40.7991C108.442 40.0023 105.688 35.5624 106.59 30.8825C107.493 26.2026 111.709 23.0547 116.007 23.8516C120.306 24.6485 123.059 29.0883 122.157 33.7682C121.255 38.4481 117.039 41.596 112.741 40.7991Z" fill="#173C3F"/>
<path d="M112.833 40.8303C108.534 40.103 105.781 36.0507 106.683 31.7791C107.585 27.5076 111.801 24.6345 116.099 25.3618C120.398 26.0891 123.152 30.1415 122.25 34.413C121.348 38.6845 117.132 41.5577 112.833 40.8303Z" fill="#D6D4C8"/>
<path d="M135.329 39.3033C139.634 38.5715 142.391 34.494 141.488 30.196C140.585 25.898 136.363 23.0071 132.058 23.7389C127.753 24.4707 124.995 28.5482 125.899 32.8462C126.802 37.1441 131.024 40.0351 135.329 39.3033Z" fill="#D6D4C8"/>
<path d="M114.186 38.6017C111.529 39.5052 108.63 38.1332 107.713 35.5373C106.795 32.9415 108.206 30.1047 110.864 29.2013C113.522 28.2978 116.42 29.6698 117.338 32.2656C118.255 34.8615 116.844 37.6982 114.186 38.6017Z" fill="#FAB84A"/>
<path d="M113.985 38.035C111.648 38.8295 109.099 37.623 108.292 35.3402C107.485 33.0573 108.726 30.5627 111.064 29.7682C113.401 28.9737 115.95 30.1802 116.757 32.463C117.564 34.7458 116.323 37.2405 113.985 38.035Z" fill="#CF7B14"/>
<path d="M113.712 37.3745C111.731 38.0479 109.571 37.0254 108.887 35.0907C108.204 33.1561 109.255 31.0419 111.236 30.3686C113.217 29.6953 115.377 30.7178 116.061 32.6524C116.745 34.587 115.693 36.7012 113.712 37.3745Z" fill="#201E1E"/>
<path d="M115.213 32.4424C114.577 32.6586 113.883 32.3303 113.664 31.7092C113.444 31.0881 113.782 30.4093 114.418 30.1932C115.054 29.977 115.747 30.3053 115.967 30.9264C116.186 31.5475 115.849 32.2262 115.213 32.4424Z" fill="#FEFEFE"/>
<path fill-rule="evenodd" clip-rule="evenodd" d="M121.645 36.2341C113.678 34.3549 107.789 37.6181 107.789 37.6181C107.789 37.6181 109.713 40.8969 113.612 41.0421C113.612 41.0421 119.053 41.4873 121.645 36.2341Z" fill="#194145"/>
<path d="M133.7 36.9005C131.003 37.8172 128.062 36.4251 127.131 33.7913C126.2 31.1574 127.632 28.2791 130.329 27.3624C133.026 26.4458 135.967 27.8378 136.897 30.4717C137.828 33.1055 136.397 35.9838 133.7 36.9005Z" fill="#FAB84A"/>
<path d="M133.496 36.3255C131.125 37.1317 128.539 35.9075 127.72 33.5913C126.901 31.275 128.16 28.7438 130.532 27.9377C132.904 27.1315 135.49 28.3557 136.308 30.6719C137.127 32.9882 135.868 35.5194 133.496 36.3255Z" fill="#CF7B14"/>
<path d="M133.219 35.6551C131.209 36.3383 129.017 35.3008 128.323 33.3379C127.63 31.3749 128.697 29.2298 130.706 28.5466C132.716 27.8634 134.908 28.9009 135.602 30.8638C136.296 32.8268 135.229 34.9719 133.219 35.6551Z" fill="#201E1E"/>
<path d="M134.741 30.651C134.096 30.8703 133.392 30.5372 133.17 29.907C132.947 29.2768 133.289 28.5882 133.935 28.3688C134.58 28.1495 135.284 28.4826 135.506 29.1128C135.729 29.743 135.386 30.4316 134.741 30.651Z" fill="#FEFEFE"/>
<path fill-rule="evenodd" clip-rule="evenodd" d="M127.314 36.1238C127.314 36.1238 129.822 39.4974 133.869 39.5942C133.869 39.5942 139.37 39.5942 141.1 34.6118C131.786 32.7032 127.314 36.1238 127.314 36.1238Z" fill="#194145"/>
<path fill-rule="evenodd" clip-rule="evenodd" d="M123.807 39.371C124.943 38.9424 124.895 38.3431 124.895 38.3431C124.956 37.3101 125.398 37.4184 125.398 37.4184C125.906 37.4677 126.307 38.6352 126.307 38.6352C126.79 40.7763 125.955 42.5602 125.955 42.5602C125.092 44.6544 123.433 45.0367 123.433 45.0367C122.748 45.1757 122.87 44.6484 122.87 44.6484C122.87 44.6484 123.538 42.0424 122.476 39.8817C122.476 39.8817 122.374 39.69 122.627 39.6387C122.627 39.6387 123.295 39.5277 123.807 39.371L123.807 39.371Z" fill="#A20A0A"/>
<path fill-rule="evenodd" clip-rule="evenodd" d="M125.332 37.4194C125.205 37.4374 124.944 37.5701 124.898 38.3449C124.898 38.3449 124.947 38.9443 123.81 39.3729C123.298 39.5295 122.63 39.6406 122.63 39.6406C122.377 39.6919 122.48 39.8835 122.48 39.8835C122.661 40.2522 122.782 40.608 122.874 40.9875C122.876 40.988 122.914 41.0156 122.914 41.0156C122.914 41.0156 123.557 41.51 124.613 41.1557C124.613 41.1557 125.496 40.8496 126.46 39.9088C126.453 39.5085 126.411 39.0807 126.311 38.6371C126.311 38.6371 125.909 37.4696 125.402 37.4203C125.402 37.4203 125.374 37.4135 125.332 37.4195L125.332 37.4194Z" fill="#751313"/>
<path fill-rule="evenodd" clip-rule="evenodd" d="M124.371 39.7644C125.463 39.4729 125.652 38.1313 125.652 38.1313C126.172 39.189 125.905 40.5787 125.905 40.5787C125.489 42.7202 124.21 43.8413 124.21 43.8413C123.365 44.5728 122.624 43.8722 122.624 43.8722C122.206 43.4509 122.197 43.9624 122.197 43.9624C122.216 46.4107 124.495 45.4306 124.495 45.4306C127.029 44.3377 127.428 40.9559 127.428 40.9559C127.952 37.9202 126.104 36.1862 126.104 36.1862C124.363 34.5364 122.362 35.7076 122.362 35.7076C119.076 37.6236 120.228 42.0426 120.228 42.0426C120.228 42.0426 120.442 42.4839 120.731 41.876C120.731 41.876 121.147 40.8815 121.778 40.5381C121.778 40.5381 122.357 40.2107 122.972 40.1074C122.972 40.1074 123.778 39.9709 124.371 39.7643L124.371 39.7644Z" fill="#FFB93E"/>
<path fill-rule="evenodd" clip-rule="evenodd" d="M125.417 37.0635C125.295 37.0919 125.262 37.3071 125.262 37.3071C125.213 37.6672 125.014 38.1949 125.014 38.1949C124.375 39.3604 122.98 39.5215 122.98 39.5215C121.821 39.6958 120.981 40.3535 120.981 40.3535C120.286 40.9699 120.391 41.7661 120.436 42.1947C120.516 42.186 120.616 42.1076 120.727 41.8748C120.727 41.8748 121.143 40.8804 121.773 40.5371C121.773 40.5371 122.352 40.2096 122.967 40.1063C122.967 40.1063 123.773 39.9698 124.367 39.7633C125.458 39.4718 125.648 38.1302 125.648 38.1302C126.167 39.1879 125.9 40.5775 125.9 40.5775C125.484 42.719 124.205 43.8402 124.205 43.8402C123.36 44.5717 122.619 43.8711 122.619 43.8711C122.201 43.4498 122.192 43.9613 122.192 43.9613C122.212 46.4096 124.49 45.4296 124.49 45.4296C125.496 44.9956 126.165 44.2005 126.607 43.3997C126.668 43.228 126.793 42.8755 126.793 42.8755C127.458 40.0601 125.742 37.3009 125.742 37.3009C125.594 37.0968 125.489 37.0466 125.417 37.0636L125.417 37.0635Z" fill="#E6961D"/>
<path d="M116.998 65.0907C117.108 64.9563 118.369 65.1176 118.15 61.5137C118.232 61.6212 119.247 62.4012 119.302 62.6971C119.356 62.9929 119.494 64.0687 119.494 64.4184C119.494 64.768 119.548 65.0907 119.137 65.6286C118.726 66.1666 118.479 66.4624 118.122 66.4086C117.766 66.3548 116.943 66.0052 116.806 65.79C116.669 65.5749 116.998 65.0907 116.998 65.0907Z" fill="#173C3F"/>
<path d="M85.9834 62.0103L108.049 84.3623L130.147 88.1258L112.113 69.7365L85.9834 62.0103Z" fill="#DF2B3C"/>
<path d="M120.104 68.7007L157.815 55.2246L173.017 84.8453L134.479 88.7084L120.104 68.7007Z" fill="#DF2B3C"/>
<path d="M93.205 53.8976C93.205 53.8976 91.8481 56.9881 93.5113 61.4307C93.5113 61.4307 91.1041 61.7526 89.791 62.8901L112.585 69.0813C112.733 70.9449 114.493 71.1995 116.358 71.0026C116.358 71.0026 119.685 70.8524 119.893 68.2662L155.104 55.3678C155.104 55.3678 154.875 53.125 154.043 51.5905C154.043 51.5905 153.376 52.2022 152.938 52.4597C152.938 52.4597 152.993 49.4551 152.697 48.0815C152.697 48.0815 151.723 50.2062 149.83 51.451C149.83 51.451 148.654 46.0435 147.586 44.3286C147.586 44.3286 147.456 50.2062 141.35 54.2196C141.35 54.2196 139.091 56.0139 132.282 57.228C132.282 57.228 120.56 58.3617 115.833 68.1482C115.833 68.1482 112.178 62.5066 103.838 61.6098C103.838 61.6098 95.1111 60.9848 93.205 53.8976Z" fill="#FFFDFE"/>
<path d="M152.697 48.0815C152.697 48.0815 151.723 50.2062 149.83 51.451C144.724 55.4169 134.435 58.1468 134.435 58.1468C118.941 62.8255 115.789 69.2213 115.789 69.2213C103.315 58.8768 93.5115 61.4307 93.5115 61.4307C93.5115 61.4307 91.1041 61.7525 89.791 62.89L112.586 69.0812C112.733 70.9449 114.493 71.1996 116.358 71.0027C116.358 71.0027 119.685 70.8524 119.893 68.2663L122.849 67.1834C122.899 67.0242 122.936 66.9098 122.936 66.9098C127.609 62.4178 134.604 60.3843 134.604 60.3843C148.902 55.7405 152.938 52.4596 152.938 52.4596C152.938 52.4596 152.993 49.4551 152.697 48.0815Z" fill="#C6D1D5"/>
<path d="M101.1 64.8653C99.2525 64.8691 98.2803 65.3839 98.2803 65.3839L98.398 65.6135C98.398 65.6135 99.313 65.1262 101.102 65.1225C102.89 65.1186 105.254 65.7021 107.583 68.091L107.772 67.9141C105.397 65.4772 102.948 64.8614 101.1 64.8653Z" fill="#FFFDFE"/>
<path d="M99.3595 63.0597C96.0361 62.8952 93.8838 63.8175 93.8838 63.8175L93.9887 64.0534C93.9887 64.0534 96.0768 63.1551 99.3455 63.3169C102.614 63.4787 107.053 64.7013 111.736 68.9768L111.914 68.7886C107.189 64.4746 102.683 63.2242 99.3595 63.0597Z" fill="#FFFDFE"/>
<path d="M151.993 51.0527L151.807 51.2786C148.303 55.1457 142.732 56.5608 142.732 56.5608V56.562C138.397 57.6249 134.836 58.7327 134.836 58.7327H134.835H134.834C129.063 60.4973 125.28 62.8103 122.939 64.6849C120.599 66.5596 119.669 68.1323 119.669 68.1323L119.893 68.2665C119.893 68.2665 120.79 66.7388 123.105 64.8844C125.421 63.0301 129.172 60.7337 134.912 58.9786C134.914 58.978 138.467 57.8716 142.795 56.8105C142.795 56.8105 148.353 55.3177 151.801 51.6274C151.847 51.9242 152.171 53.9586 152.087 55.0828L152.35 55.1016C152.445 53.8179 152.039 51.3388 152.039 51.3388L151.993 51.0527Z" fill="#FFFDFE"/>
<path d="M153.906 52.9546L153.739 53.0926C152.203 54.36 149.117 55.8455 146.424 57.001C143.732 58.1564 141.428 58.9896 141.428 58.9896C130.589 62.8167 126.791 65.4701 126.791 65.4701L126.942 65.6796C126.942 65.6796 130.696 63.0517 141.519 59.2305C141.519 59.2305 143.829 58.3944 146.529 57.2356C149.156 56.1082 152.105 54.685 153.73 53.4C153.758 53.5343 153.835 53.8988 153.937 54.4916C154.056 55.1832 154.17 55.9911 154.156 56.4037L154.418 56.4125C154.434 55.9449 154.316 55.1459 154.195 54.4489C154.075 53.752 153.951 53.1654 153.951 53.1654L153.906 52.9546Z" fill="#C6D1D5"/>
<path d="M85.9834 62.0099L86.0292 61.6135L112.815 68.9738C112.815 68.9738 112.529 70.2834 114.258 70.6053C114.258 70.6053 116.971 70.9809 118.47 70.0259C118.47 70.0259 119.619 69.3176 119.565 68.1158L157.366 54.2988L157.815 55.2246L120.104 68.7006L134.916 88.7298C134.916 88.7298 134.73 89.835 132.925 89.9745C132.925 89.9745 131.229 90.114 130.135 89.7385C130.135 89.7385 129.15 89.4165 128.472 88.4293L112.113 69.7361L85.9834 62.0099Z" fill="#B42331"/>
<path fill-rule="evenodd" clip-rule="evenodd" d="M115.017 63.9342C115.017 63.9342 114.711 62.7923 113.22 63.1748C113.22 63.1748 111.125 63.5038 109.95 65.9033C109.95 65.9033 109.639 66.6169 110.084 66.9338C110.084 66.9338 110.536 67.2219 110.991 66.7017C111.019 66.6229 111.398 66.1785 111.56 66.1008C111.56 66.1008 111.018 66.9705 111.247 67.5226C111.247 67.5226 111.499 68.2408 112.218 67.6201C112.218 67.6201 112.663 67.0919 112.733 67.0451C112.733 67.0451 112.287 67.7707 112.497 68.2596C112.497 68.2596 112.735 69.0171 113.53 68.3865C113.53 68.3865 114.46 67.2778 115.073 67.2065C115.073 67.2065 115.185 67.9525 115.616 68.093C115.616 68.093 116.14 68.2868 116.763 67.7259C116.763 67.7259 117.545 67.003 117.736 66.5833C117.736 66.5833 118.103 65.7649 117.3 65.1475C117.3 65.1475 116.805 64.6774 116.318 64.7603C116.318 64.7603 115.983 63.8614 115.017 63.9342L115.017 63.9342Z" fill="#FFB93E"/>
<path fill-rule="evenodd" clip-rule="evenodd" d="M117.705 66.675C116.544 66.954 116.118 66.2597 116.118 66.2597C116.031 65.7265 115.482 65.9249 115.482 65.9249C114.76 66.04 113.944 67.1504 113.944 67.1504C113.42 67.8237 113.066 67.9568 113.066 67.9568C112.669 68.1636 112.516 67.9588 112.46 67.8199C112.438 67.9771 112.443 68.1378 112.504 68.2787C112.504 68.2787 112.742 69.0363 113.536 68.4057C113.536 68.4057 114.467 67.2971 115.079 67.2258C115.079 67.2258 115.191 67.9717 115.622 68.1121C115.622 68.1121 116.147 68.306 116.769 67.745C116.769 67.745 117.466 67.1002 117.705 66.6751L117.705 66.675ZM114.783 65.1671C113.537 64.8199 112.46 66.6486 112.46 66.6486C112.028 67.2035 111.662 67.1522 111.607 67.1927C111.331 67.2059 111.256 67.0312 111.235 66.9221C111.188 67.1346 111.177 67.356 111.254 67.5418C111.254 67.5418 111.505 68.26 112.225 67.6393C112.225 67.6393 112.617 67.1733 112.721 67.0814C113.421 65.9095 114.783 65.1671 114.783 65.1671L114.783 65.1671ZM113.416 64.2962C113.328 64.2245 113.216 64.2378 113.204 64.2195C112.153 64.3114 111.367 65.4325 111.367 65.4325C110.995 65.9323 110.655 66.2165 110.655 66.2165C110.086 66.6457 109.919 66.2225 109.89 66.1311C109.832 66.3668 109.797 66.7443 110.091 66.953C110.091 66.953 110.542 67.2411 110.997 66.7209C111.024 66.6454 111.374 66.2349 111.545 66.1323C112.228 65.015 113.493 64.4006 113.493 64.4006C113.473 64.3535 113.446 64.3202 113.416 64.2963L113.416 64.2962Z" fill="#E79615"/>
<path fill-rule="evenodd" clip-rule="evenodd" d="M131.295 59.9492C131.903 60.7874 132.633 60.5421 132.633 60.5421C133.338 60.3646 133.453 59.6641 133.453 59.6641C133.731 60.1567 134.38 59.8854 134.38 59.8854C135.584 59.4583 135.717 58.4489 135.717 58.4489C136.236 56.87 134.798 55.6113 134.798 55.6113C134.183 54.9519 133.4 55.1519 133.4 55.1519C132.917 55.2481 132.885 55.8309 132.885 55.8309C132.885 55.8309 132.464 55.1415 131.668 54.8502C131.668 54.8502 130.937 54.4854 130.119 54.8949C130.119 54.8949 129.29 55.5064 129.585 56.6021C129.585 56.6021 128.971 55.9773 128.223 56.2804C128.223 56.2804 127.624 56.4888 127.593 57.4682C127.593 57.4682 127.628 58.0867 128.443 59.6092C128.447 59.5859 129.182 61.1426 130.046 61.305C130.046 61.305 130.945 61.4132 131.022 60.3099C131.022 60.3099 131.091 59.7936 131.067 59.6573C131.067 59.6573 131.29 59.9122 131.295 59.9492Z" fill="#FFB93E"/>
<path fill-rule="evenodd" clip-rule="evenodd" d="M129.528 56.3525C129.589 55.6786 129.99 56.1258 129.99 56.1258C130.379 56.4097 130.873 57.4683 130.873 57.4683C131.014 57.841 131.566 58.7174 131.566 58.7174C132.164 59.4699 132.787 59.2061 132.787 59.2061C133.24 58.9366 133.224 58.2133 133.224 58.2133C133.302 56.4258 131.976 54.9766 131.976 54.9766C132.609 55.3387 132.894 55.8162 132.894 55.8162C132.912 55.4091 133.122 55.2875 133.122 55.2875C133.933 56.0169 134.282 57.917 134.282 57.917C134.396 58.7054 134.871 58.5839 134.871 58.5839C135.756 58.3655 135.789 57.3025 135.789 57.3025C135.789 57.3025 136.111 58.3309 135.363 59.3178C135.363 59.3178 134.198 60.5442 133.493 59.7731C133.493 59.7731 133.122 60.7412 132.366 60.6577C132.366 60.6577 131.736 60.7524 131.109 59.7546C131.109 59.7546 131.312 60.7986 130.711 61.2104C130.711 61.2104 129.988 61.6851 129.336 60.9592C129.336 60.9592 128.167 59.6392 127.658 57.7135C127.658 57.7135 127.986 57.7946 128.469 58.5751C128.469 58.5751 128.962 59.5734 129.935 59.7427C129.935 59.7427 130.603 59.9789 130.737 59.1016C130.737 59.1016 130.781 58.3168 130.142 57.4492C130.142 57.4492 129.492 56.6783 129.528 56.3525L129.528 56.3525Z" fill="#E79615"/>
<defs>
<linearGradient id="paint0_linear_4409_16735" x1="129.5" y1="0" x2="129.5" y2="97" gradientUnits="userSpaceOnUse">
<stop stop-opacity="0"/>
<stop offset="1"/>
</linearGradient>
</defs>
</svg>
