<svg width="26" height="24" viewBox="0 0 26 24" fill="none" xmlns="http://www.w3.org/2000/svg">
<g clip-path="url(#clip0_3974_7730)">
<path d="M20.146 9.46716H16.2128C15.509 9.46716 14.9399 8.91361 14.9399 8.2291V4.40373C14.9399 2.66156 13.4866 1.24805 11.6953 1.24805C9.90404 1.24805 8.4507 2.66156 8.4507 4.40373V8.2291C8.4507 8.91361 7.88156 9.46716 7.17776 9.46716H3.2446C1.45334 9.46716 0 10.8807 0 12.6228C0 14.365 1.45334 15.7785 3.2446 15.7785H7.17776C7.88156 15.7785 8.4507 16.3321 8.4507 17.0166V20.8419C8.4507 22.5841 9.90404 23.9976 11.6953 23.9976C13.4866 23.9976 14.9399 22.5841 14.9399 20.8419V17.0166C14.9399 16.3321 15.509 15.7785 16.2128 15.7785H20.146C21.9373 15.7785 23.3906 14.365 23.3906 12.6228C23.3906 10.8807 21.9373 9.46716 20.146 9.46716Z" fill="#7367F0"/>
<path d="M13.5654 8.22887C13.5654 8.91338 14.1345 9.46693 14.8384 9.46693H16.2104C15.5091 9.46446 14.9425 8.91091 14.9425 8.22887V4.4035C14.9425 3.17533 14.2209 2.1152 13.1665 1.59131C13.4206 2.04106 13.5654 2.55754 13.5654 3.10614V8.2264V8.22887Z" fill="#322B77"/>
<path d="M21.6171 9.81302C21.8712 10.2628 22.016 10.7792 22.016 11.3278C22.016 13.07 20.5627 14.4835 18.7714 14.4835H14.8383C14.1345 14.4835 13.5653 15.0371 13.5653 15.7216V19.547C13.5653 21.2891 12.112 22.7026 10.3207 22.7026C9.7897 22.7026 9.29171 22.5766 8.84961 22.3567C9.40096 23.3328 10.4681 23.9975 11.6953 23.9975C13.4866 23.9975 14.9399 22.584 14.9399 20.8418V17.0165C14.9399 16.332 15.509 15.7784 16.2128 15.7784H20.146C21.9373 15.7784 23.3906 14.3649 23.3906 12.6227C23.3906 11.3946 22.669 10.3344 21.6146 9.81055L21.6171 9.81302Z" fill="#322B77"/>
<path d="M8.45072 15.7242C8.45072 15.0396 7.88158 14.4861 7.17778 14.4861H1.87005C1.33902 14.4861 0.841025 14.3601 0.398926 14.1401C0.950279 15.1162 2.01742 15.781 3.24462 15.781H7.17778C7.88158 15.781 8.45072 16.3345 8.45072 17.019V15.781V15.7242Z" fill="#322B77"/>
<path d="M3.59799 11.2269H2.35046C2.05573 11.2269 1.81689 10.9946 1.81689 10.7079C1.81689 10.4213 2.05573 10.189 2.35046 10.189H3.59799C3.89273 10.189 4.13156 10.4213 4.13156 10.7079C4.13156 10.9946 3.89273 11.2269 3.59799 11.2269Z" fill="#BAB5EF"/>
<path d="M7.72677 11.2264H5.24695C4.95221 11.2264 4.71338 10.9941 4.71338 10.7075C4.71338 10.4208 4.95221 10.1885 5.24695 10.1885H7.72677C8.48901 10.1885 9.10896 9.58555 9.10896 8.8442V3.64981C9.10896 3.36315 9.3478 3.13086 9.64253 3.13086C9.93726 3.13086 10.1761 3.36315 10.1761 3.64981V8.84667C10.1761 10.1589 9.07847 11.2264 7.72931 11.2264H7.72677Z" fill="#BAB5EF"/>
<path d="M17.0536 11.2269H14.2562C13.9615 11.2269 13.7227 10.9946 13.7227 10.7079C13.7227 10.4213 13.9615 10.189 14.2562 10.189H17.0536C17.3484 10.189 17.5872 10.4213 17.5872 10.7079C17.5872 10.9946 17.3484 11.2269 17.0536 11.2269Z" fill="#BAB5EF"/>
<path d="M20.3365 11.2269H18.7841C18.4893 11.2269 18.2505 10.9946 18.2505 10.7079C18.2505 10.4213 18.4893 10.189 18.7841 10.189H20.3365C20.6312 10.189 20.8701 10.4213 20.8701 10.7079C20.8701 10.9946 20.6312 11.2269 20.3365 11.2269Z" fill="#BAB5EF"/>
<path d="M25.9947 3.24212C25.9947 3.24212 25.9947 3.22729 25.9922 3.21987C25.9896 3.19763 25.9871 3.17539 25.982 3.15562C25.982 3.15068 25.982 3.14327 25.9795 3.13833C25.9744 3.11361 25.9668 3.08643 25.9591 3.06172C25.9591 3.05431 25.9541 3.04689 25.9515 3.03701C25.9464 3.01971 25.9388 3.00241 25.9312 2.98511C25.9286 2.97523 25.9236 2.96782 25.921 2.95793C25.9109 2.93569 25.9007 2.91592 25.8905 2.89368C25.8855 2.8838 25.8804 2.87391 25.8727 2.86403C25.8651 2.85167 25.8575 2.83931 25.8499 2.82696C25.8423 2.8146 25.8346 2.80472 25.827 2.79483C25.8194 2.78495 25.8118 2.77506 25.8067 2.76765C25.7889 2.74541 25.7711 2.72564 25.7533 2.70587C25.7482 2.70093 25.7432 2.69599 25.7381 2.69104C25.7254 2.67869 25.7127 2.66633 25.7 2.65645C25.6949 2.65151 25.6898 2.64656 25.6847 2.64409C25.6415 2.60702 25.5958 2.57243 25.545 2.54277C25.5424 2.54277 25.5374 2.53783 25.5348 2.53536C25.517 2.52548 25.5018 2.51559 25.484 2.50818C25.3544 2.44393 25.2096 2.40686 25.0546 2.40686H23.9036C23.802 2.40686 23.708 2.36485 23.6419 2.3006C23.6419 2.3006 23.6419 2.3006 23.6394 2.29813C23.6241 2.2833 23.6089 2.266 23.5962 2.2487C23.5937 2.24376 23.5911 2.23882 23.5886 2.23388C23.5784 2.21905 23.5708 2.20422 23.5632 2.18693C23.5581 2.17457 23.5555 2.16221 23.5505 2.14986C23.5479 2.13997 23.5428 2.13009 23.5403 2.1202C23.5352 2.09549 23.5327 2.07325 23.5327 2.04854V0.921687C23.5327 0.894504 23.5327 0.86485 23.5276 0.837667C23.5276 0.830254 23.5276 0.82284 23.525 0.815426C23.5225 0.793186 23.52 0.770945 23.5149 0.751176C23.5149 0.746234 23.5149 0.73882 23.5123 0.733878C23.5073 0.709166 23.4996 0.681983 23.492 0.657272C23.492 0.649858 23.4869 0.642445 23.4844 0.63256C23.4793 0.615262 23.4717 0.597964 23.4641 0.580665C23.4615 0.570781 23.4564 0.563367 23.4539 0.553482C23.4437 0.531242 23.4336 0.509001 23.4209 0.489232C23.4158 0.479347 23.4107 0.469463 23.4031 0.462049C23.3955 0.449693 23.3878 0.437338 23.3802 0.424982C23.3726 0.412626 23.365 0.402741 23.3574 0.392856C23.3497 0.382972 23.3421 0.373087 23.337 0.365674C23.3192 0.343433 23.3015 0.323664 23.2837 0.303894C23.2786 0.298952 23.2735 0.29401 23.2684 0.289067C23.2557 0.276711 23.243 0.264356 23.2303 0.254471C23.2252 0.249529 23.2202 0.244586 23.2151 0.242115C23.1719 0.205048 23.1261 0.170451 23.0753 0.140797C23.0728 0.140797 23.0677 0.135855 23.0652 0.133384C22.9229 0.051835 22.7603 0.00488281 22.5824 0.00488281C22.059 0.00488281 21.6347 0.417568 21.6347 0.926629V2.04607C21.6347 2.24623 21.467 2.40686 21.2637 2.40686H20.1128C19.5894 2.40686 19.165 2.81955 19.165 3.32861C19.165 3.48923 19.2082 3.63997 19.2819 3.77095C19.2946 3.79319 19.3073 3.81296 19.32 3.83272C19.3251 3.84014 19.3302 3.84755 19.3353 3.85497C19.3454 3.86979 19.3581 3.88462 19.3708 3.89945C19.3759 3.90439 19.381 3.9118 19.3861 3.91674C19.4013 3.93651 19.4191 3.95381 19.4369 3.97111C19.442 3.97605 19.4496 3.98347 19.4547 3.98841C19.4674 4.00076 19.4826 4.01312 19.4979 4.02548C19.503 4.03042 19.5106 4.03536 19.5157 4.0403C19.536 4.05513 19.5563 4.06996 19.5766 4.08478C19.5817 4.08973 19.5894 4.0922 19.5944 4.09714C19.6122 4.10702 19.63 4.11938 19.6478 4.12926C19.6554 4.13174 19.6605 4.13668 19.6681 4.13915C19.691 4.15151 19.7164 4.16139 19.7393 4.17375C19.7443 4.17375 19.7494 4.17869 19.7545 4.17869C19.7748 4.1861 19.7952 4.19352 19.818 4.20093C19.8256 4.20093 19.8333 4.20587 19.8384 4.20834C19.8638 4.21576 19.8917 4.22317 19.9171 4.22811C19.9197 4.22811 19.9247 4.22811 19.9273 4.22811C19.9527 4.23305 19.9756 4.23553 20.001 4.238C20.0086 4.238 20.0162 4.238 20.0238 4.238C20.0518 4.24047 20.0823 4.24294 20.1102 4.24294H21.2612C21.467 4.24294 21.6322 4.40604 21.6322 4.60373V5.72317C21.6322 5.8838 21.6753 6.03454 21.749 6.16551C21.7617 6.18775 21.7744 6.20752 21.7871 6.22729C21.7922 6.2347 21.7973 6.24212 21.8024 6.24953C21.8126 6.26436 21.8253 6.27918 21.838 6.29401C21.843 6.29895 21.8481 6.30637 21.8532 6.31131C21.8684 6.33108 21.8862 6.34838 21.904 6.36567C21.9091 6.37062 21.9167 6.37803 21.9218 6.38297C21.9345 6.39533 21.9498 6.40768 21.965 6.42004C21.9701 6.42498 21.9777 6.42992 21.9828 6.43487C22.0031 6.44969 22.0234 6.46452 22.0438 6.47935C22.0488 6.48429 22.0565 6.48676 22.0616 6.4917C22.0793 6.50159 22.0971 6.51394 22.1149 6.52383C22.1225 6.5263 22.1276 6.53124 22.1352 6.53371C22.1581 6.54607 22.181 6.55595 22.2064 6.56831C22.2115 6.56831 22.2165 6.57325 22.2216 6.57325C22.2419 6.58067 22.2623 6.58808 22.2851 6.59549C22.2928 6.59549 22.3004 6.60043 22.3055 6.60291C22.3309 6.61032 22.3588 6.61773 22.3842 6.62267C22.3868 6.62267 22.3919 6.62267 22.3944 6.62267C22.4198 6.62762 22.4427 6.63009 22.4681 6.63256C22.4757 6.63256 22.4833 6.63256 22.4909 6.63256C22.5189 6.63503 22.5494 6.6375 22.5773 6.6375C22.6434 6.6375 22.7069 6.63009 22.7679 6.61773C22.8289 6.60538 22.8898 6.58808 22.9457 6.56337C22.9915 6.5436 23.0347 6.52136 23.0779 6.49665C23.0982 6.48429 23.1185 6.46946 23.1388 6.45711C23.177 6.42992 23.2151 6.40027 23.2481 6.36814C23.2811 6.33602 23.3116 6.29895 23.3396 6.26188C23.3548 6.24212 23.3675 6.22235 23.3802 6.20258C23.4056 6.16057 23.431 6.11856 23.4488 6.07408C23.4717 6.01971 23.492 5.9604 23.5047 5.90109C23.5174 5.84179 23.525 5.78001 23.525 5.71576V4.59632C23.525 4.39615 23.6927 4.23553 23.896 4.23553H25.047C25.5704 4.23553 25.9947 3.82284 25.9947 3.31378C25.9947 3.2866 25.9947 3.25694 25.9896 3.22976L25.9947 3.24212Z" fill="#7367F0"/>
</g>
<defs>
<clipPath id="clip0_3974_7730">
<rect width="26" height="24" fill="white"/>
</clipPath>
</defs>
</svg>
