<svg width="12" height="12" viewBox="0 0 12 12" fill="none" xmlns="http://www.w3.org/2000/svg">
<path fill-rule="evenodd" clip-rule="evenodd" d="M4.67603 1.32898C5.31301 0.39701 6.68781 0.397014 7.32479 1.32898L7.57675 1.69762C9.15527 4.00716 10.5115 6.46102 11.6273 9.02633L11.6799 9.14732C12.0731 10.0514 11.479 11.0779 10.4993 11.1874C7.50935 11.5215 4.49147 11.5215 1.50152 11.1874C0.521785 11.0779 -0.0722603 10.0514 0.320939 9.14733L0.373564 9.02633C1.48932 6.46102 2.84555 4.00716 4.42408 1.69762L4.67603 1.32898ZM6.58376 4.24995C6.58376 4.57211 6.32259 4.83328 6.00042 4.83328C5.67826 4.83328 5.41709 4.57211 5.41709 4.24995C5.41709 3.92778 5.67826 3.66661 6.00042 3.66661C6.32259 3.66661 6.58376 3.92778 6.58376 4.24995ZM6.00042 5.85411C6.24205 5.85411 6.43792 6.04999 6.43792 6.29161V9.20828C6.43792 9.44991 6.24205 9.64578 6.00042 9.64578C5.7588 9.64578 5.56292 9.44991 5.56292 9.20828V6.29161C5.56292 6.04999 5.7588 5.85411 6.00042 5.85411Z" fill="#757575"/>
</svg>
