<svg width="140" height="117" viewBox="0 0 140 117" fill="none" xmlns="http://www.w3.org/2000/svg">
<path fill-rule="evenodd" clip-rule="evenodd" d="M114.983 0C114.59 0.0127952 114.205 0.106608 113.85 0.275607C112.377 0.570318 110.822 1.22674 109.038 2.64433L109.31 2.45253C109.31 2.45253 104.698 5.18437 100.012 3.44881C99.9927 3.44192 99.9729 3.43525 99.9532 3.42879C99.9532 3.42879 98.7816 2.92815 97.1636 3.14201C96.3546 3.24889 95.2867 3.60099 94.441 4.47721C93.7737 5.16846 93.4375 6.10584 93.2716 7.05986C93.1677 7.34713 92.859 8.26605 92.9736 9.49772C93.1078 10.9393 93.9527 12.8197 95.7129 14.1607L95.5192 13.9987C95.5192 13.9987 102.605 20.7294 104.564 28.8907C104.647 30.608 104.612 34.5053 103.501 39.6022C103.15 40.0747 102.787 40.5506 102.402 41.0286C96.0366 44.9595 87.4484 47.9531 76.0573 46.7155C75.6262 46.6307 50.7987 41.7319 35.1539 32.4401C35.1482 32.4369 35.1424 32.4337 35.1367 32.4306C35.1367 32.4306 31.9133 30.5467 27.973 28.6354C24.0326 26.724 19.6753 24.6541 15.7327 24.5274C15.1926 24.5102 14.6635 24.5417 14.1422 24.6354C14.1329 24.6385 14.1239 24.6417 14.1147 24.6449C13.2915 24.801 12.3729 25.2328 11.6231 25.9671C11.3947 26.1456 10.9339 26.4691 10.3938 27.2129C9.72923 28.1278 9.04504 29.4945 8.73269 31.3004C8.10828 34.9105 8.93996 40.0665 13.2246 47.3378V47.3473C13.2253 47.3473 13.2246 47.3473 13.2246 47.3473C13.2341 47.3578 15.4612 51.1626 19.7181 56.4554C18.164 56.247 17.9901 56.1297 16.1967 55.973C13.3628 55.7255 10.4593 55.5946 7.92287 55.8241C6.65459 55.9388 5.47707 56.13 4.3437 56.5522C3.27984 56.9485 2.12566 57.6563 1.40514 58.9712C1.20816 59.2382 0.890371 59.609 0.57087 60.4498C0.157739 61.5372 -0.148348 63.0892 0.0755223 64.9489C0.52269 68.6643 2.97983 73.3511 9.61375 78.8801C9.61375 78.8801 15.9071 84.0133 26.0962 89.26C24.8019 89.6485 23.5974 89.8629 22.3773 90.3196C20.5719 90.9956 18.9191 91.727 17.5151 92.6567C16.2343 93.5047 14.8961 94.6291 14.5374 96.558C14.4859 96.7285 14.2434 97.4693 14.2469 98.5189C14.2469 99.6822 14.5206 101.241 15.3959 102.897C17.1453 106.207 21.1225 109.705 29.3047 112.491C29.3486 112.506 80.8989 130.571 120.884 94.1352C120.894 94.1352 140.661 79.4257 139.983 52.9898C139.979 52.8474 139.965 52.7055 139.94 52.5652C139.94 52.5652 137.559 37.4696 127.471 28.8034C127.368 28.7073 125.096 26.6441 121.828 24.7085C121.521 24.4141 121.022 24.0481 120.368 23.6228C119.249 20.1837 118.165 14.5125 120.419 7.93184L120.358 8.09199C120.358 8.09199 120.836 7.03828 120.872 5.61898C120.89 4.90942 120.808 4.01865 120.328 3.07893C119.941 2.32027 119.202 1.66136 118.365 1.18692C118.152 0.982218 118.127 0.88749 117.827 0.708337C117.135 0.295302 116.118 -0.0308549 114.974 0.00442274L114.983 0Z" fill="white"/>
<path fill-rule="evenodd" clip-rule="evenodd" d="M9.05707 66.0927C9.05707 66.0927 10.218 74.5097 12.2496 74.8C14.2813 75.0902 41.2737 90.7632 41.2737 90.7632L64.7831 83.7973L87.4218 72.4784L98.4509 62.3199L104.836 50.4202L105.707 44.3247L92.3559 50.1295L78.134 52.1615L58.1076 47.8079L42.4347 41.1321L28.2128 34.4569L20.3763 31.2644L13.4107 36.1983L19.2155 46.3567L27.052 57.3855L31.6958 63.481L13.9912 61.1589L9.05707 66.0927Z" fill="#FFDD55"/>
<path fill-rule="evenodd" clip-rule="evenodd" d="M38.7274 50.6272C38.7274 50.6272 44.1074 57.0718 53.4128 62.9226L66.534 62.3036C49.6188 58.1086 38.7274 50.6272 38.7274 50.6272Z" fill="#333333"/>
<path fill-rule="evenodd" clip-rule="evenodd" d="M116.569 25.1061C115.369 25.0084 114.063 25.5204 112.951 27.4114C112.951 27.4114 106.182 53.9993 74.8405 60.5147C74.8405 60.5147 46.973 64.2411 26.8546 60.2986C26.8546 60.2986 5.7218 56.3101 3.8149 60.385C3.8149 60.385 -1.16229 66.2007 11.4584 76.7085C11.4584 76.7085 49.6224 109.133 96.6257 93.3861C55.0875 99.4973 21.5663 78.5037 21.5663 78.5037C8.5536 70.5026 13.2906 66.0849 13.2906 66.0849C15.0324 62.9881 36.2807 66.04 36.2807 66.04C56.5164 69.0571 81.2988 63.045 81.2988 63.045C108.475 52.9934 114.176 35.9912 114.176 35.9912C116.936 32.1604 128.201 40.9128 128.201 40.9128C129.147 41.3679 130.012 41.9172 130.834 42.4897C130.318 40.6908 129.65 38.9155 128.747 37.246C128.747 37.246 125.497 30.5047 120.27 27.1258C120.27 27.1258 118.568 25.2663 116.569 25.1027V25.1061Z" fill="#333333"/>
<path fill-rule="evenodd" clip-rule="evenodd" d="M38.8884 74.7788C38.8884 74.7788 83.8458 84.8125 118.245 51.5994C87.6856 101.082 38.8884 74.7788 38.8884 74.7788Z" fill="#333333"/>
<path fill-rule="evenodd" clip-rule="evenodd" d="M30.2403 109.799C30.2403 109.799 80.4089 127.431 119.197 91.8479C119.197 91.8479 137.79 78.0635 137.149 53.0594C137.149 53.0594 134.585 38.6336 125.609 30.94C125.609 30.94 120.159 25.8113 114.068 24.5292C114.068 24.5292 108.298 21.644 107.336 27.4142C107.336 27.4142 110.542 54.6621 83.6144 71.9727C83.6144 71.9727 58.9311 85.4366 38.7354 88.9629C38.7354 88.9629 17.5777 92.8096 17.2572 97.2975C17.2572 97.2975 14.6928 104.51 30.2403 109.799Z" fill="#333333"/>
<path fill-rule="evenodd" clip-rule="evenodd" d="M15.6424 27.3715C15.2762 27.36 14.9414 27.3832 14.6438 27.4361C14.151 27.5292 13.7627 27.7226 13.5004 28.0332C13.5004 28.0332 7.53154 32.0778 15.6792 45.8982C15.6792 45.8982 19.7637 52.9419 27.6525 61.2229C30.142 61.4831 32.771 61.7727 35.2617 62.1067C27.9986 55.6979 24.0365 50.6553 24.0365 50.6553C14.8522 39.1073 20.2222 36.3206 20.2222 36.3206C22.6043 33.8923 40.3721 43.2012 40.3721 43.2012C57.2613 52.1718 80.6298 53.9006 80.6298 53.9006C107.212 52.4988 116.906 38.0036 116.906 38.0036C120.382 35.1813 127.83 46.9213 127.83 46.9213C128.533 47.6399 129.139 48.4232 129.701 49.2165C129.746 47.3457 129.65 45.4528 129.322 43.589C129.322 43.589 128.34 36.1823 124.696 31.3862C124.696 31.3862 123.721 29.0989 122.015 28.3407C120.991 27.8864 119.706 27.9812 118.21 29.4496C118.21 29.4496 104.927 52.7651 75.6743 49.5403C75.6743 49.5403 50.2348 44.7029 33.7042 34.8851C33.7042 34.8851 21.1389 27.5465 15.6441 27.3699L15.6424 27.3715Z" fill="#333333"/>
<path fill-rule="evenodd" clip-rule="evenodd" d="M111.373 27.9833C111.351 28.0626 111.417 27.8728 111.384 28.0888V27.9867H111.373V27.9833ZM111.416 27.9946C111.637 30.9046 113.006 57.9528 85.8324 75.4213C85.7494 75.4745 85.6645 75.5246 85.5779 75.5717C85.5779 75.5717 60.8201 89.2677 39.4407 93.0007L39.4685 92.9889C39.4685 92.9889 34.3221 93.9313 29.243 95.3823C26.7035 96.108 24.1806 96.9802 22.5485 97.778C21.8612 98.1142 21.4752 98.3904 21.2246 98.5777C21.2246 98.7667 21.2396 99.0711 21.5428 99.6451C22.1998 100.888 24.3905 103.475 31.5615 105.915C31.5746 105.919 31.5878 105.924 31.6008 105.929C31.6008 105.929 79.4346 122.759 116.429 88.8222C116.534 88.726 116.643 88.6353 116.758 88.5506C116.758 88.5506 133.464 76.1891 133.034 53.449C132.833 52.5297 130.021 40.1128 122.942 34.0457C122.894 34.0044 122.847 33.9624 122.801 33.9189C122.801 33.9189 117.643 29.4637 113.226 28.5339C112.883 28.4617 112.551 28.3459 112.237 28.1893C112.237 28.1893 111.776 28.0723 111.416 27.9873V27.9946ZM21.1351 98.6372C21.1343 98.6372 21.1351 98.6369 21.1236 98.6484C21.1198 98.6588 21.116 98.6695 21.1121 98.6798C21.1121 98.6798 21.1235 98.6646 21.127 98.6439L21.1351 98.6372Z" fill="#FFDD55"/>
<path fill-rule="evenodd" clip-rule="evenodd" d="M50.3065 100.028C50.3065 100.028 96.0478 94.5898 117.49 51.8506C105.064 108.666 50.3065 100.028 50.3065 100.028Z" fill="#333333"/>
<path fill-rule="evenodd" clip-rule="evenodd" d="M119.178 28.3237C119.178 28.3237 113.728 18.7069 117.735 7.00633C117.735 7.00633 118.858 4.2813 116.774 3.4799C116.774 3.4799 115.229 1.35655 110.809 4.86993C110.809 4.86993 105.143 8.38372 99.0225 6.11686C99.0225 6.11686 96.0756 5.09668 95.9624 7.93002C95.9624 7.93002 95.0556 10.0836 97.4357 11.897C97.4357 11.897 105.256 19.0375 107.409 28.4444C107.409 28.4444 107.863 30.9376 109.336 31.2778C109.336 31.2778 112.169 32.1844 114.436 30.4843C114.436 30.4843 117.46 28.2033 119.178 28.3237Z" fill="#333333"/>
</svg>
