<svg width="132" height="149" viewBox="0 0 132 149" fill="none" xmlns="http://www.w3.org/2000/svg">
<path d="M46.5108 0.0295531C41.1499 0.453462 38.2818 4.71532 38.2818 4.71532C37.932 5.17945 37.7001 5.72154 37.6058 6.29504C37.5115 6.86854 37.5577 7.45635 37.7404 8.00807C38.4074 10.0181 38.952 14.5376 39.3165 18.3776C34.6025 19.9963 30.4614 23.1742 27.0125 27.1673C22.6748 32.192 19.3128 38.4376 17.1169 44.6965C14.9204 50.9527 12.219 57.1845 9.09215 63.2084C3.40443 74.1605 0 86.4823 0 96.7775C0 121.928 20.5141 142.442 45.6631 142.442C70.8144 142.442 91.33 121.928 91.33 96.7775C91.33 86.4836 87.9284 74.1612 82.2417 63.2084C79.1144 57.1837 76.4121 50.9527 74.2169 44.6965V44.6945C72.0204 38.4374 68.6625 32.1931 64.3211 27.1672C61.1173 23.4572 57.3318 20.416 53.0306 18.6974C54.7267 12.7873 55.5644 5.94642 55.5644 5.94642C55.644 5.33907 55.567 4.72145 55.3407 4.15223C55.1144 3.58301 54.7462 3.08109 54.2714 2.69414C51.7879 0.669827 48.9536 -0.163363 46.5147 0.0294929L46.5108 0.0295531Z" fill="white"/>
<path d="M77.5051 65.6652C82.8261 75.9145 85.9964 87.4449 85.9964 96.7765C85.9964 119.053 67.942 137.113 45.6651 137.113C23.3893 137.113 5.32904 119.053 5.32904 96.7765C5.32904 87.4449 8.4993 75.9145 13.8203 65.6652C17.0412 59.4642 19.8307 53.0556 22.1444 46.4623C26.3725 34.4127 35.3149 22.5186 45.6651 22.5186C56.0128 22.5186 64.9529 34.4127 69.1834 46.4623C71.4959 53.0556 74.2842 59.4642 77.5051 65.6652ZM64.5443 98.4618C64.5443 88.0336 56.0948 71.3266 45.6651 71.3266C35.2365 71.3266 26.7811 88.0336 26.7811 98.4618C26.7811 108.89 35.2365 117.344 45.6651 117.344C56.0948 117.344 64.5443 108.89 64.5443 98.4618Z" fill="#5AA02C"/>
<path d="M45.6939 20.8004C44.8917 20.8149 44.0711 20.8716 43.5475 20.93C38.4231 21.6467 33.6978 24.9232 29.7315 29.5155C25.7639 34.1114 22.5678 40.0128 20.5075 45.8855C18.2529 52.3074 15.484 58.6915 12.28 64.8638C6.83836 75.3421 3.59082 87.3023 3.59082 96.7768C3.59082 119.979 22.4599 138.849 45.6609 138.849C68.8643 138.849 87.7357 119.979 87.7357 96.7768C87.7357 87.3029 84.4917 75.3426 79.0512 64.8638C75.8473 58.6916 73.0772 52.3078 70.8238 45.8855C68.7622 40.0128 65.5698 34.1114 61.5998 29.5155C57.631 24.9197 52.8976 21.6411 47.7696 20.9277C47.7574 20.9242 47.7462 20.9202 47.7343 20.9156C47.2855 20.8083 46.5008 20.7807 45.6986 20.795L45.6939 20.8004ZM45.6704 24.2567C50.5149 24.2567 55.0298 27.2659 58.8031 31.5889C62.5765 35.912 65.6308 41.5739 67.5489 47.0377C69.8553 53.6126 72.6883 60.1511 75.9695 66.4682C81.1627 76.4711 84.2676 87.7691 84.2676 96.7768C84.2676 118.055 66.9473 135.374 45.668 135.374C24.3911 135.374 7.0731 118.055 7.0731 96.7768C7.0731 87.7685 10.1769 76.4705 15.3688 66.4682C18.65 60.1506 21.4806 53.6121 23.7895 47.0377C25.7063 41.5738 28.7607 35.912 32.5352 31.5889C36.3086 27.2659 40.827 24.2567 45.6704 24.2567Z" fill="#333333"/>
<path fill-rule="evenodd" clip-rule="evenodd" d="M43.4197 24.4103C43.4197 24.4103 42.8432 11.9766 41.1508 6.87631C41.1508 6.87631 45.934 0.53354 51.9981 5.4764C51.9981 5.4764 50.3602 17.9425 47.9174 22.3201L43.4197 24.4103Z" fill="#373736"/>
<path d="M55.0039 91.8236C52.6117 92.7878 49.5057 90.6741 48.0661 87.1028C46.6266 83.5315 47.3986 79.8546 49.7907 78.8903C52.1828 77.9261 55.2889 80.0399 56.7284 83.6112C58.1679 87.1825 57.396 90.8594 55.0039 91.8236Z" fill="#5AA02C"/>
<path d="M21.7165 99.4026L37.5329 46.292L56.6596 61.7233L83.1427 91.1491L66.5908 120.575H37.5329L21.7165 99.4026Z" fill="#5AA02C"/>
<path fill-rule="evenodd" clip-rule="evenodd" d="M14.2532 94C14.2532 94 18.5595 122.33 48.7904 129.08C8.77413 130.376 14.2532 94 14.2532 94Z" fill="white"/>
<path d="M86.5125 6.02711C81.1514 6.45104 78.2832 10.713 78.2832 10.713C77.9334 11.1772 77.7015 11.7193 77.6072 12.2928C77.5129 12.8664 77.559 13.4542 77.7418 14.0059C78.4088 16.016 78.9534 20.5356 79.3179 24.3759C74.6038 25.9946 70.4625 29.1726 67.0135 33.1658C62.6756 38.1907 59.3135 44.4366 57.1175 50.6957C54.921 56.9521 52.2194 63.1842 49.0925 69.2082C43.4046 80.1608 40 92.4831 40 102.779C40 127.93 60.5149 148.445 85.6647 148.445C110.817 148.445 131.333 127.93 131.333 102.779C131.333 92.4843 127.932 80.1615 122.245 69.2082C119.117 63.1834 116.415 56.9522 114.22 50.6957C114.22 50.6951 114.22 50.6944 114.22 50.6937C112.023 44.4363 108.665 38.1918 104.323 33.1658C101.12 29.4556 97.3339 26.4144 93.0325 24.6957C94.7287 18.7853 95.5665 11.9442 95.5665 11.9442C95.6461 11.3368 95.569 10.7192 95.3427 10.1499C95.1164 9.58071 94.7482 9.07876 94.2734 8.69179C91.7898 6.66741 88.9554 5.83419 86.5164 6.02705L86.5125 6.02711Z" fill="white"/>
<path d="M117.509 71.6643C122.83 81.914 126 93.4448 126 102.777C126 125.054 107.945 143.115 85.6674 143.115C63.3908 143.115 45.3299 125.054 45.3299 102.777C45.3299 93.4448 48.5003 81.914 53.8215 71.6643C57.0425 65.4632 59.832 59.0543 62.1458 52.4607C66.3741 40.4106 75.3169 28.5161 85.6674 28.5161C96.0155 28.5161 104.956 40.4106 109.187 52.4607C111.499 59.0543 114.288 65.4632 117.509 71.6643ZM104.547 104.462C104.547 94.0335 96.0975 77.326 85.6674 77.326C75.2385 77.326 66.7828 94.0335 66.7828 104.462C66.7828 114.891 75.2385 123.345 85.6674 123.345C96.0975 123.345 104.547 114.891 104.547 104.462Z" fill="#9AD14B"/>
<path d="M85.6681 77.3267C96.0982 77.3267 104.548 94.0342 104.548 104.463C104.548 114.891 96.0982 123.346 85.6681 123.346C75.2392 123.346 66.7834 114.891 66.7834 104.463C66.7834 94.0342 75.2392 77.3267 85.6681 77.3267Z" fill="#333333"/>
<path d="M85.6659 75.1606C80.1649 75.1606 74.7703 78.9523 70.4781 85.8374C66.8639 91.633 64.6183 98.7695 64.6183 104.462C64.6183 116.067 74.0608 125.508 85.6659 125.508C97.2711 125.508 106.714 116.067 106.714 104.462C106.714 98.7695 104.469 91.633 100.856 85.8374C96.5627 78.9523 91.1681 75.1606 85.6659 75.1606ZM85.6659 121.18C76.4482 121.18 68.9489 113.68 68.9489 104.461C68.9489 95.0531 76.7618 79.4888 85.6659 79.4888C94.5712 79.4888 102.385 95.0531 102.385 104.461C102.385 113.68 94.8849 121.18 85.6659 121.18Z" fill="white"/>
<path d="M85.696 26.7985C84.8938 26.8129 84.0731 26.8696 83.5495 26.928C78.4249 27.6448 73.6995 30.9214 69.733 35.5139C65.7653 40.11 62.5691 46.0116 60.5086 51.8845C58.2539 58.3066 55.485 64.6909 52.2809 70.8635C46.839 81.3421 43.5914 93.3028 43.5914 102.778C43.5914 125.981 62.4612 144.852 85.663 144.852C108.867 144.852 127.739 125.981 127.739 102.778C127.739 93.3034 124.495 81.3426 119.055 70.8635C115.85 64.6911 113.08 58.307 110.827 51.8845C108.765 46.0116 105.573 40.11 101.602 35.5139C97.6336 30.9179 92.9 27.6392 87.7718 26.9257C87.7596 26.9222 87.7483 26.9182 87.7364 26.9137C87.2877 26.8063 86.5029 26.7788 85.7007 26.793L85.696 26.7985ZM85.6724 30.2549C90.5172 30.2549 95.0322 33.2642 98.8057 37.5874C102.579 41.9106 105.634 47.5727 107.552 53.0367C109.858 59.6118 112.691 66.1506 115.973 72.4679C121.166 82.4712 124.271 93.7696 124.271 102.778C124.271 124.057 106.95 141.376 85.6701 141.376C64.3924 141.376 47.0738 124.057 47.0738 102.778C47.0738 93.769 50.1777 82.4706 55.3698 72.4679C58.6511 66.1501 61.4818 59.6113 63.7908 53.0367C65.7077 47.5726 68.7622 41.9106 72.5368 37.5874C76.3103 33.2642 80.8289 30.2549 85.6724 30.2549Z" fill="#333333"/>
<path fill-rule="evenodd" clip-rule="evenodd" d="M83.4218 30.4091C83.4218 30.4091 82.8454 17.975 81.1529 12.8745C81.1529 12.8745 85.9363 6.53147 92.0006 11.4745C92.0006 11.4745 90.3626 23.9411 87.9198 28.3189L83.4218 30.4091Z" fill="#373736"/>
<path d="M95.0065 97.8247C92.6143 98.7889 89.5082 96.6751 88.0686 93.1036C86.629 89.5322 87.401 85.8551 89.7932 84.8909C92.1854 83.9266 95.2915 86.0404 96.7311 89.6119C98.1707 93.1834 97.3987 96.8604 95.0065 97.8247Z" fill="white"/>
</svg>
