<svg width="155" height="85" viewBox="0 0 155 85" fill="none" xmlns="http://www.w3.org/2000/svg">
<path d="M8.09804 0C4.16287 0.000267253 0.750917 3.41205 0.750732 7.3473C0.750732 20.7989 4.34217 34.1984 11.0679 45.8477C17.7936 57.4969 27.602 67.3069 39.2512 74.0328C50.901 80.759 64.2985 84.3464 77.7498 84.3464C91.2011 84.3464 104.599 80.759 116.248 74.0328C127.898 67.3069 137.708 57.4971 144.434 45.8477C151.159 34.1985 154.751 20.799 154.751 7.3473C154.75 3.412 151.339 0.000175097 147.403 0H77.7516H8.09804Z" fill="white"/>
<path d="M8.09775 3.37378C7.57602 3.37375 7.05952 3.47659 6.5775 3.67624C6.09548 3.87588 5.65757 4.16835 5.28865 4.53727C4.91973 4.90619 4.62698 5.34439 4.42733 5.82641C4.22769 6.30843 4.12485 6.82492 4.12488 7.34665C4.12488 20.1965 7.565 33.0316 13.99 44.1599C20.4148 55.2883 29.8099 64.683 40.9381 71.1081C52.0667 77.5333 64.899 80.9709 77.7491 80.9709C90.5993 80.9709 103.434 77.5333 114.562 71.1081C125.691 64.683 135.086 55.2883 141.511 44.1599C147.935 33.0316 151.376 20.1965 151.376 7.34665C151.376 6.82492 151.273 6.30843 151.073 5.82641C150.874 5.34439 150.581 4.90619 150.212 4.53727C149.843 4.16835 149.405 3.87588 148.923 3.67624C148.441 3.47659 147.925 3.37375 147.403 3.37378H77.7514H8.09775Z" fill="#333333"/>
<path d="M147.402 7.34692C147.402 19.5735 144.184 31.5846 138.071 42.1732C131.957 52.7617 123.165 61.5546 112.576 67.6679C101.988 73.7812 89.9764 76.9997 77.7498 76.9997C65.5232 76.9997 53.5121 73.7812 42.9236 67.6679C32.335 61.5546 23.5424 52.7617 17.4291 42.1732C11.3158 31.5846 8.09728 19.5735 8.09729 7.34692H77.7498H147.402Z" fill="white"/>
<path d="M14.1035 7.34692C16.0161 27.6872 27.9997 46.9543 45.7295 57.1908C65.0886 68.3681 90.4115 68.3681 109.771 57.1908C127.501 46.9543 139.484 27.6872 141.397 7.34692H77.7513H14.1035Z" fill="#D35F5F"/>
<path d="M77.7764 59.4892C78.8277 59.4892 79.6798 56.9221 79.6798 53.7554C79.6798 50.5887 78.8277 48.0215 77.7764 48.0215C76.7251 48.0215 75.8729 50.5887 75.8729 53.7554C75.8729 56.9221 76.7251 59.4892 77.7764 59.4892Z" fill="#333333"/>
<path d="M86.467 39.4604C87.4828 39.1896 87.6452 36.4899 86.8297 33.43C86.0142 30.3701 84.5298 28.1092 83.5139 28.3799C82.4981 28.6507 82.3357 31.3504 83.1512 34.4103C83.9667 37.4702 85.4512 39.7311 86.467 39.4604Z" fill="#333333"/>
<path d="M97.0815 54.9112C98.0484 54.4984 97.8244 51.8031 96.5812 48.8906C95.338 45.9782 93.5466 43.9519 92.5797 44.3646C91.6128 44.7773 91.8368 47.4726 93.08 50.3851C94.3231 53.2976 96.1146 55.3239 97.0815 54.9112Z" fill="#333333"/>
<path d="M103.61 40.7057C104.49 40.1309 103.8 37.5157 102.069 34.8643C100.337 32.213 98.2202 30.5298 97.34 31.1046C96.4597 31.6795 97.1497 34.2947 98.8813 36.9461C100.613 39.5974 102.73 41.2806 103.61 40.7057Z" fill="#333333"/>
<path d="M117.71 42.3619C118.478 41.6435 117.346 39.187 115.182 36.8749C113.018 34.5628 110.642 33.271 109.875 33.9894C109.107 34.7077 110.239 37.1642 112.403 39.4763C114.566 41.7884 116.943 43.0802 117.71 42.3619Z" fill="#333333"/>
<path d="M110.634 24.8837C111.211 24.0047 109.532 21.8841 106.885 20.1471C104.237 18.41 101.623 17.7145 101.046 18.5935C100.47 19.4725 102.149 21.5931 104.796 23.3302C107.444 25.0672 110.058 25.7628 110.634 24.8837Z" fill="#333333"/>
<path d="M131.346 22.7303C131.647 21.723 129.432 20.1717 126.397 19.2652C123.363 18.3587 120.66 18.4404 120.359 19.4477C120.058 20.455 122.273 22.0063 125.308 22.9128C128.342 23.8193 131.045 23.7376 131.346 22.7303Z" fill="#333333"/>
<path d="M68.277 38.9118C67.2612 38.6411 67.0989 35.9411 67.9144 32.8812C68.7299 29.8213 70.2144 27.5601 71.2303 27.8309C72.2461 28.1016 72.4084 30.8016 71.5929 33.8615C70.7774 36.9214 69.2929 39.1826 68.277 38.9118Z" fill="#333333"/>
<path d="M57.6619 54.3631C56.6951 53.9504 56.9191 51.2549 58.1623 48.3424C59.4055 45.4299 61.197 43.4035 62.1638 43.8162C63.1307 44.2289 62.9067 46.9244 61.6635 49.8369C60.4203 52.7494 58.6288 54.7758 57.6619 54.3631Z" fill="#333333"/>
<path d="M51.1333 40.1566C50.2531 39.5818 50.9433 36.9665 52.6748 34.3151C54.4063 31.6637 56.5235 29.9803 57.4037 30.5552C58.2839 31.13 57.5937 33.7453 55.8622 36.3967C54.1306 39.048 52.0135 40.7314 51.1333 40.1566Z" fill="#333333"/>
<path d="M37.0326 41.8129C36.265 41.0945 37.397 38.6379 39.5608 36.3259C41.7247 34.0138 44.101 32.7217 44.8686 33.4401C45.6361 34.1584 44.5042 36.615 42.3403 38.9271C40.1765 41.2392 37.8002 42.5313 37.0326 41.8129Z" fill="#333333"/>
<path d="M44.1088 24.335C43.5321 23.456 45.2111 21.3353 47.8588 19.5983C50.5066 17.8612 53.1205 17.1655 53.6972 18.0445C54.2738 18.9235 52.5948 21.0442 49.947 22.7813C47.2993 24.5183 44.6855 25.214 44.1088 24.335Z" fill="#333333"/>
<path d="M23.3968 22.1814C23.0959 21.1741 25.3117 19.6227 28.3459 18.7162C31.3801 17.8097 34.0838 17.8913 34.3847 18.8986C34.6856 19.9059 32.4698 21.4573 29.4357 22.3638C26.4015 23.2703 23.6978 23.1887 23.3968 22.1814Z" fill="#333333"/>
</svg>
