<svg width="145" height="134" viewBox="0 0 145 134" fill="none" xmlns="http://www.w3.org/2000/svg">
<path d="M30.1227 0.00099148C29.3283 -0.0180288 28.5516 0.237108 27.9233 0.723512C27.2949 1.20992 26.8532 1.89785 26.6726 2.67165C26.6726 2.67165 25.7385 6.51086 26.8096 10.9622C27.8808 15.4135 31.4638 20.7723 38.8967 22.8729C39.0324 22.9113 39.1704 22.9414 39.3098 22.9631C39.3098 22.9631 45.9794 24.016 52.9908 20.6292L52.9124 20.6663C52.9124 20.6663 53.758 20.2882 54.8979 20.0278C56.0378 19.7676 57.2512 19.8531 57.4669 19.9556C57.8859 20.1545 58.3407 20.267 58.8042 20.2865C58.5622 21.8361 58.2887 23.2379 58.0132 24.7098C55.7772 24.4126 53.5294 24.2069 51.2738 24.2065C37.8506 24.2069 24.5098 29.7332 15.0183 39.2248C5.52667 48.7164 0.00040101 62.057 1.36358e-09 75.4801C-0.000100251 88.9036 5.52657 102.245 15.0183 111.737C24.5099 121.229 37.8502 126.755 51.2738 126.756C64.6976 126.756 78.0389 121.229 87.531 111.737C97.0231 102.245 102.549 88.9039 102.549 75.4801C102.535 65.0172 99.2213 54.5819 93.1974 46.0271C87.9941 38.6377 80.7267 32.8161 72.5147 29.0488C73.8834 26.8193 75.1657 24.546 76.2703 22.3581C76.8319 22.77 77.5046 23.0028 78.2007 23.0258C79.185 23.0569 81.036 24.0002 82.479 25.213C83.922 26.4257 84.8661 27.6038 84.8661 27.6038L84.8128 27.5356C91.3682 36.2216 100.299 39.1703 100.299 39.1703C100.433 39.2152 100.57 39.2519 100.708 39.2801C111.288 41.4122 118.788 37.1386 122.887 32.3739C126.987 27.6093 128.27 22.3193 128.27 22.3193C128.401 21.7957 128.407 21.2486 128.289 20.7219C128.17 20.1953 127.93 19.7037 127.588 19.2866C127.245 18.8694 126.81 18.5382 126.316 18.3195C125.823 18.1009 125.285 18.0008 124.746 18.0273C114.574 18.5296 108.971 11.2682 108.971 11.2682C108.825 11.0799 108.659 10.9072 108.476 10.7531C103.928 6.90887 99.1308 5.3698 94.8363 5.47827C87.7165 5.65792 82.6004 9.66984 79.6986 12.5526C79.6023 12.3062 79.478 12.0717 79.3283 11.8536C76.7623 8.14604 73.1608 6.4014 70.0334 6.21633C64.8204 5.90806 61.0305 8.99089 61.0305 8.99089C60.8148 9.1541 60.6189 9.34217 60.447 9.55102C60.0073 8.62368 59.465 7.64658 58.7866 6.68235C56.1162 2.887 50.5542 -0.715523 43.1261 1.004C42.8936 1.05748 42.6672 1.13496 42.4506 1.23505C42.4506 1.23505 37.3141 3.66905 31.7694 0.467497C31.2678 0.178012 30.7016 0.0190932 30.1227 0.00539709V0.00099148Z" fill="white"/>
<path d="M51.2675 123.299C77.6761 123.299 99.0844 101.89 99.0844 75.4818C99.0844 49.0732 77.6761 27.6646 51.2675 27.6646C24.8588 27.6646 3.4502 49.0732 3.4502 75.4818C3.4502 101.89 24.8588 123.299 51.2675 123.299Z" fill="#333333"/>
<path fill-rule="evenodd" clip-rule="evenodd" d="M79.7699 17.5109C79.7699 17.5109 91.9727 1.33845 106.234 13.3941C106.234 13.3941 112.997 22.0683 124.906 21.4803C124.906 21.4803 120.348 39.7108 101.382 35.8883C101.382 35.8883 93.4427 33.2419 87.562 25.4496C87.562 25.4496 83.0044 19.7163 78.2998 19.5691L79.7699 17.5109Z" fill="#333333"/>
<path fill-rule="evenodd" clip-rule="evenodd" d="M59.7676 33.3916C59.7676 33.3916 63.3565 18.4029 63.0979 11.7542C63.0979 11.7542 70.9678 5.85407 76.4801 13.8188C76.4801 13.8188 70.2482 28.0854 65.8387 32.4529L59.7676 33.3916Z" fill="#333333"/>
<path fill-rule="evenodd" clip-rule="evenodd" d="M58.6892 15.1245C58.6892 15.1245 56.3202 1.49406 43.8967 4.37004C43.8967 4.37004 37.0829 7.53035 30.0318 3.45898C30.0318 3.45898 27.1146 15.9551 39.8283 19.5481C39.8283 19.5481 45.4766 20.4168 51.4796 17.5172C51.4796 17.5172 56.0367 15.4553 58.9406 16.8333L58.6892 15.1245Z" fill="#333333"/>
<path d="M51.2663 118.235C74.8784 118.235 94.0197 99.0934 94.0197 75.4814C94.0197 51.8693 74.8784 32.728 51.2663 32.728C27.6543 32.728 8.5127 51.8693 8.5127 75.4814C8.5127 99.0934 27.6543 118.235 51.2663 118.235Z" fill="#FF9955"/>
<path fill-rule="evenodd" clip-rule="evenodd" d="M23.4905 49.0332C23.4905 49.0332 7.60714 78.0227 30.6019 105.373C-6.99687 78.5503 23.4905 49.0332 23.4905 49.0332Z" fill="white"/>
<path fill-rule="evenodd" clip-rule="evenodd" d="M80.5079 93.7932C80.5079 93.7932 92.2177 62.8807 65.6523 38.9832C106.607 60.3331 80.5079 93.7932 80.5079 93.7932Z" fill="white"/>
<path fill-rule="evenodd" clip-rule="evenodd" d="M84.2703 32.4481C76.5989 32.3763 70.6261 34.4299 66.5675 36.7021V36.7005C62.5695 38.9385 60.5493 41.2299 60.0542 41.8049C49.6732 52.4743 44.9834 61.4874 43.1928 71.6309C43.1928 71.6345 43.1928 71.638 43.1928 71.6416C43.1618 71.8246 43.1381 72.0076 43.1149 72.1924C39.6623 103.441 55.8257 124.186 76.6606 130.696C97.2863 137.141 121.535 131.616 137.248 116.012C144.831 108.739 145.358 98.5536 144.867 91.3313C144.369 84.0062 142.478 78.0928 142.478 78.0928C142.447 78.0071 142.424 77.922 142.394 77.8371C142.394 77.831 142.394 77.825 142.394 77.8189C131.459 46.833 101.823 35.8178 101.804 35.8107V35.8076C101.75 35.7869 101.694 35.7682 101.638 35.7486C95.1945 33.4702 89.3969 32.4958 84.2885 32.448L84.2703 32.4481Z" fill="white"/>
<path fill-rule="evenodd" clip-rule="evenodd" d="M84.2312 36.7121C77.336 36.6476 72.1158 38.4824 68.65 40.4228C65.2153 42.3455 63.2498 44.6185 63.2142 44.66C53.1082 55.0137 49.0552 62.9535 47.3925 72.3734C47.3765 72.4663 47.3638 72.5597 47.3539 72.6534C44.0725 102.323 58.8761 120.673 77.932 126.627C96.9708 132.576 119.786 127.372 134.274 112.961C140.484 107.025 141.07 98.3611 140.612 91.6213C140.153 84.868 138.412 79.3831 138.412 79.3831C138.397 79.3349 138.382 79.287 138.366 79.2394C128.128 50.2281 100.296 39.8023 100.296 39.8023C100.265 39.7909 100.235 39.7797 100.204 39.769C94.1575 37.6308 88.8335 36.7551 84.2357 36.7121L84.2312 36.7121Z" fill="#333333"/>
<path fill-rule="evenodd" clip-rule="evenodd" d="M84.1906 41.1011C71.9694 40.9867 66.5642 47.4897 66.5642 47.4897C56.6063 57.6312 53.2729 64.3195 51.7171 73.1347C45.493 129.405 104.836 137.561 131.213 109.815C140.581 100.91 134.221 80.6994 134.221 80.6994C124.705 53.7363 98.7366 43.9074 98.7366 43.9074C93.0959 41.913 88.2646 41.1392 84.1906 41.1011Z" fill="#FF9955"/>
<path d="M84.5865 44.1461C78.152 43.8652 72.7143 45.7095 68.9857 49.4373C66.5563 51.8667 64.9132 55.0356 64.1514 58.7629C63.3897 62.4901 63.5238 66.7029 64.5457 71.1605C65.5675 75.6182 67.4571 80.2335 70.1071 84.7429C72.7571 89.2523 76.1159 93.5675 79.9906 97.4421C83.8652 101.317 88.1801 104.675 92.6896 107.325C97.1991 109.975 101.815 111.865 106.272 112.887C110.73 113.909 114.943 114.043 118.67 113.281C122.398 112.519 125.567 110.876 127.996 108.447C130.425 106.017 132.067 102.848 132.829 99.1211C133.591 95.3938 133.457 91.181 132.435 86.7234C131.413 82.2657 129.523 77.6504 126.873 73.1411C124.223 68.6317 120.865 64.3166 116.99 60.4421C112.193 55.645 106.735 51.6538 101.089 48.8142C95.4421 45.9746 89.7778 44.3723 84.5865 44.1461ZM83.6922 50.3076C84.6297 50.3076 85.2251 50.3859 85.2251 50.3859L95.9372 71.1046L72.8659 56.979C74.985 51.0639 80.878 50.3132 83.6922 50.3077V50.3076ZM91.112 50.8575C98.5277 52.27 104.413 57.6836 104.413 57.6836C104.413 57.6836 99.8216 69.6919 99.7038 71.1045C99.7038 71.1045 91.3475 51.5637 91.112 50.8575ZM70.9833 60.2745L95.3485 74.7533L73.926 77.3425C68.393 67.4547 70.9833 60.2745 70.9833 60.2745ZM107.709 60.2745C113.358 62.3934 117.95 70.8678 117.95 70.8678L102.646 72.8688L107.709 60.2745ZM121.364 74.8699C125.366 79.1075 126.073 87.5825 126.073 87.5825L105 76.4012L121.364 74.8699ZM97.2333 78.1655L89.5812 96.2949C80.7522 91.8218 75.3379 81.5795 75.3379 81.5795L97.2333 78.1655ZM103.471 78.5187L126.779 91.9397C126.779 100.65 120.423 104.652 120.423 104.652L103.471 78.5187ZM100.292 80.1683L115.478 105.24C103.354 106.535 95.2304 100.06 95.2304 100.06L100.292 80.1683Z" fill="white"/>
</svg>
