<svg width="108" height="129" viewBox="0 0 108 129" fill="none" xmlns="http://www.w3.org/2000/svg">
<path fill-rule="evenodd" clip-rule="evenodd" d="M86.3981 0.00348624C85.7004 -0.0294881 85.0119 0.172206 84.4423 0.576471C77.3988 5.57332 70.0929 2.93908 70.0929 2.93908C69.8899 2.86666 69.6799 2.81549 69.4664 2.78628C60.4269 1.56675 54.523 6.33287 51.7917 11.1041C49.8441 14.5065 49.2762 17.3227 49.0185 19.0361C48.9598 18.9931 48.6804 18.7458 48.6804 18.7458C48.2875 18.4933 47.8431 18.3322 47.3797 18.2741C47.3797 18.2741 47.1168 18.2437 46.8258 18.23C45.845 18.185 43.6616 18.1538 41.2622 19.313C40.1412 19.8543 39.0303 20.78 38.1069 21.9869C36.0951 18.9431 32.5858 15.3159 26.4276 15.218C24.941 15.1946 23.3479 15.3822 21.6661 15.8139C21.5422 15.8459 21.4203 15.8854 21.3013 15.9324C21.3013 15.9324 15.6502 18.1292 11.7362 23.9236L11.7802 23.8571C11.7802 23.8571 11.2961 24.5315 10.531 25.2456C9.76594 25.9599 8.78806 26.4355 8.5829 26.4527C8.01932 26.5003 7.47934 26.6999 7.02032 27.0304C6.56131 27.3608 6.20068 27.8096 5.97677 28.329C5.75286 28.8484 5.67414 29.4188 5.74901 29.9794C5.82388 30.54 6.04938 31.0698 6.40174 31.5122L7.36817 32.7251C7.38518 32.7462 7.40243 32.767 7.41998 32.7877C7.41998 32.7877 9.75354 35.6475 13.5416 37.3887C16.1152 38.5717 19.6928 38.9402 23.2843 37.6752C22.7718 37.9449 22.2717 38.1325 21.7542 38.4411C21.6149 38.5047 13.7008 42.1307 7.46224 50.703C1.17613 59.3407 -3.28702 73.2552 3.12474 92.5557C3.1531 92.6506 8.81304 111.441 28.3915 125.338L28.4013 125.348C28.414 125.36 30.5564 127.244 33.9611 128.261C37.376 129.28 42.3278 129.498 47.8541 126.83C47.9275 126.795 47.9995 126.756 48.0699 126.715C48.0699 126.715 54.4901 122.862 62.0699 126.784C62.7786 127.332 64.1976 128.323 66.6155 128.793C69.8015 129.413 74.2882 128.764 78.9519 125.147L78.568 125.403C78.568 125.403 105.538 110.415 107.855 81.2087C107.856 81.197 109.796 56.7426 89.9169 39.7036C89.8333 39.6322 89.746 39.5653 89.6553 39.5031C89.6553 39.5031 84.7788 36.1249 77.9148 34.434C72.2501 33.0386 64.8927 32.8802 57.9234 36.6782C57.0142 31.9327 55.658 28.3572 54.2295 25.6655C55.0739 25.4713 56.1672 25.3683 57.3179 25.5203C58.8994 25.729 60.1064 26.1391 60.1064 26.1391L60.0341 26.1147C68.8143 29.3855 76.6659 27.3886 76.6659 27.3886C76.7904 27.358 76.9129 27.3197 77.0327 27.274C85.6996 23.9243 89.1929 17.3186 89.9649 11.9505C90.737 6.58241 89.2162 2.14108 89.2162 2.14108C89.0165 1.54393 88.6411 1.02096 88.139 0.640932C87.637 0.2609 87.0318 0.0414803 86.4029 0.0113648L86.3981 0.00348624ZM37.2608 30.0336C37.3538 30.1053 37.4507 30.1715 37.5511 30.2323C37.5511 30.2323 39.8855 31.7921 42.4864 35.0625C37.7528 33.901 31.9946 33.8267 25.74 36.4473C26.5919 35.9317 27.4545 35.4895 28.2688 34.7245C28.4259 34.5771 28.5673 34.4139 28.6909 34.2374C28.6909 34.2374 31.5605 30.0754 37.2608 30.0336V30.0336Z" fill="white"/>
<path fill-rule="evenodd" clip-rule="evenodd" d="M53.1676 44.2386C53.1676 44.2386 40.1503 30.8873 23.1274 41.2347C23.1274 41.2347 -6.24539 54.5859 6.10455 91.6357C6.10455 91.6357 11.445 109.66 30.4705 123.011C30.4705 123.011 36.8122 128.685 46.4919 124.012C46.4919 124.012 54.5029 119.339 63.5151 124.012C63.5151 124.012 68.8556 129.019 77.0333 122.677C77.0333 122.677 102.567 108.325 104.737 80.9549C104.737 80.9549 106.573 58.0908 87.881 42.0693C87.881 42.0693 68.0208 28.3838 53.1676 44.2386V44.2386Z" fill="#333333"/>
<path fill-rule="evenodd" clip-rule="evenodd" d="M55.7711 44.2379C54.6029 26.2138 46.9926 21.3736 46.9926 21.3736C46.9926 21.3736 39.8162 20.5394 39.1486 27.5488C39.1486 27.5488 47.6297 32.5694 51.1344 45.4201C51.1344 45.4201 54.9091 48.8357 55.0759 45.6647C55.2428 42.4937 55.7711 44.2379 55.7711 44.2379V44.2379Z" fill="#333333"/>
<path fill-rule="evenodd" clip-rule="evenodd" d="M9.80605 30.7783C9.80605 30.7783 17.7912 40.2812 26.1296 32.4474C26.1296 32.4474 29.9887 26.9231 37.2938 26.9007C37.2938 26.9007 33.9205 15.8933 22.4394 18.8405C22.4394 18.8405 17.6667 20.7143 14.3188 25.6707C14.3188 25.6707 11.7142 29.3252 8.84055 29.5662L9.80605 30.7783Z" fill="#333333"/>
<path fill-rule="evenodd" clip-rule="evenodd" d="M51.8413 21.0352C51.8413 21.0352 53.205 3.74482 69.0484 5.88237C69.0484 5.88237 77.9229 9.03042 86.2483 3.12427C86.2483 3.12427 91.3504 18.3812 75.9011 24.3522C75.9011 24.3522 68.9522 26.0963 61.1203 23.1786C61.1203 23.1786 55.1909 21.138 51.7274 23.1988L51.8413 21.0352Z" fill="#333333"/>
<path fill-rule="evenodd" clip-rule="evenodd" d="M70.6102 41.2261C65.971 41.1577 61.253 42.3956 56.5544 47.4111C56.1255 47.8686 55.6082 48.2346 55.034 48.4868C54.4598 48.739 53.8406 48.8725 53.2135 48.8788C52.5864 48.885 51.9646 48.7637 51.3855 48.5231C50.8064 48.2824 50.2818 47.9273 49.8439 47.4784C49.8439 47.4784 47.2772 44.8644 42.8821 43.1951C38.487 41.5258 32.8432 40.7597 25.5378 45.2003C25.3797 45.2965 25.2161 45.3833 25.0477 45.4599C25.0477 45.4599 18.8026 48.3123 13.7373 55.2727C8.67194 62.233 4.73497 72.8491 10.5078 90.168C10.5239 90.2171 10.5393 90.2663 10.5538 90.3159C10.5538 90.3159 15.3843 106.754 33.1361 119.212C33.2859 119.317 33.4293 119.431 33.5658 119.553C33.5658 119.553 34.3047 120.257 36.1794 120.817C38.0541 121.376 40.6536 121.677 44.4736 119.833L44.1518 120.003C44.1518 120.003 54.5175 114.119 65.6503 119.892C66.0287 120.088 66.3786 120.335 66.6898 120.626C66.6898 120.626 66.9676 120.948 68.0936 121.167C69.2194 121.387 70.9532 121.518 74.1879 119.009C74.3683 118.87 74.5588 118.744 74.7577 118.632C74.7577 118.632 98.1566 105.226 100.11 80.5883C100.11 80.5844 100.11 80.5807 100.11 80.5768C100.11 80.5768 101.738 60.2763 85.0543 45.7845C84.7624 45.5945 78.1725 41.3306 70.6099 41.2197L70.6102 41.2261Z" fill="#C83737"/>
<path d="M19.902 79.1345C24.4075 80.9506 30.258 76.9698 32.9693 70.2433C35.6807 63.5167 34.2263 56.5915 29.7207 54.7754C25.2152 52.9593 19.3648 56.9401 16.6534 63.6666C13.942 70.3932 15.3965 77.3184 19.902 79.1345Z" fill="white"/>
</svg>
