<svg width="137" height="116" viewBox="0 0 137 116" fill="none" xmlns="http://www.w3.org/2000/svg">
<path d="M43.6363 111.324C67.7359 111.324 87.2725 91.7616 87.2725 67.6295C87.2725 43.4974 67.7359 23.9346 43.6363 23.9346C19.5366 23.9346 0 43.4974 0 67.6295C0 91.7616 19.5366 111.324 43.6363 111.324Z" fill="#333333"/>
<path fill-rule="evenodd" clip-rule="evenodd" d="M70.366 13.1932C70.366 13.1932 81.809 -1.99269 95.182 9.32747C95.182 9.32747 101.524 17.4725 112.691 16.9203C112.691 16.9203 108.417 34.0386 90.6327 30.4494C90.6327 30.4494 83.1874 27.9644 77.6729 20.6475C77.6729 20.6475 73.3991 15.2639 68.9874 15.1257L70.366 13.1932Z" fill="#333333"/>
<path fill-rule="evenodd" clip-rule="evenodd" d="M51.606 28.1066C51.606 28.1066 54.9714 14.0323 54.7289 7.78919C54.7289 7.78919 62.1088 2.24905 67.2779 9.72785C67.2779 9.72785 61.434 23.1241 57.2991 27.2251L51.606 28.1066Z" fill="#333333"/>
<path fill-rule="evenodd" clip-rule="evenodd" d="M50.5974 10.9538C50.5974 10.9538 48.3759 -1.84504 36.726 0.85547C36.726 0.85547 30.3365 3.82298 23.7244 0C23.7244 0 20.9889 11.7337 32.9109 15.1076C32.9109 15.1076 38.2075 15.9233 43.8367 13.2005C43.8367 13.2005 48.11 11.2644 50.8331 12.5583L50.5974 10.9538Z" fill="#333333"/>
<path d="M43.6359 107.775C65.7777 107.775 83.7271 89.8017 83.7271 67.6301C83.7271 45.4586 65.7777 27.4851 43.6359 27.4851C21.4941 27.4851 3.54443 45.4586 3.54443 67.6301C3.54443 89.8017 21.4941 107.775 43.6359 107.775Z" fill="#ABC837"/>
<path fill-rule="evenodd" clip-rule="evenodd" d="M17.5841 42.7947C17.5841 42.7947 2.68985 70.0156 24.2527 95.6975C-11.0048 70.511 17.5841 42.7947 17.5841 42.7947Z" fill="white"/>
<path fill-rule="evenodd" clip-rule="evenodd" d="M71.0538 84.8226C71.0538 84.8226 82.0345 55.796 57.1232 33.3564C95.5281 53.4038 71.0538 84.8226 71.0538 84.8226Z" fill="white"/>
<path fill-rule="evenodd" clip-rule="evenodd" d="M82.1259 23.1754C75.3126 23.1121 70.0823 24.932 66.5639 26.9043C63.8709 28.4137 62.3844 29.853 61.6474 30.6176C61.6401 30.619 61.6334 30.6205 61.6261 30.6219C40.4384 48.7565 44.9516 81.5467 44.9538 81.5638C44.9538 81.5639 44.9538 81.5697 44.9538 81.5697C44.9538 81.6147 44.9607 81.6596 44.968 81.7046C44.9724 81.7321 44.9776 81.7595 44.9829 81.7869C46.5809 92.0038 47.2494 99.735 52.9787 105.641C58.7095 111.548 67.3008 113.366 81.6607 115.147C81.6656 115.147 81.6708 115.148 81.6756 115.148C81.7794 115.16 81.8845 115.169 81.9883 115.176C113.193 117.386 129.815 98.691 130.571 97.8186C136.787 91.6555 137.321 82.973 136.884 76.5103C136.884 76.5098 136.884 76.5093 136.884 76.5089C136.435 69.9109 134.734 64.5682 134.734 64.5682C134.731 64.5588 134.729 64.5493 134.727 64.5398C134.712 64.4845 134.69 64.4298 134.668 64.3751V64.3595C124.752 36.2462 97.8509 26.1988 97.8509 26.1988C97.8291 26.1911 97.8073 26.1835 97.7928 26.1761C97.7735 26.1688 97.7541 26.1617 97.7346 26.1548C91.8877 24.085 86.6843 23.2186 82.1443 23.1757L82.1259 23.1754Z" fill="white"/>
<path fill-rule="evenodd" clip-rule="evenodd" d="M82.1034 25.9961C75.7991 25.937 71.0697 27.6112 67.9397 29.3658C64.8089 31.1204 63.0672 33.16 63.0672 33.16L63.4529 32.7666C43.7201 49.6557 47.7448 81.2122 47.7448 81.2122C47.7487 81.2587 47.7532 81.3051 47.759 81.3514C49.368 91.637 50.0685 98.5984 54.9948 103.676C59.921 108.754 67.7503 110.581 82.0006 112.348C82.0566 112.355 82.1131 112.36 82.1694 112.364C112.374 114.507 128.228 96.2284 128.511 95.8991C133.901 90.6269 134.483 82.8594 134.065 76.701C133.643 70.4813 132.04 65.4206 132.04 65.4206C132.029 65.3849 132.017 65.3494 132.004 65.3141C122.555 38.5016 96.8472 28.839 96.8472 28.839C96.8255 28.8302 96.8038 28.8217 96.782 28.8134C91.1957 26.8359 86.3037 26.0355 82.1006 25.9961H82.1034Z" fill="#333333"/>
<path fill-rule="evenodd" clip-rule="evenodd" d="M50.9611 80.8512C50.9611 80.8512 47.5686 50.6289 65.5574 35.2321C65.5574 35.2321 74.5594 24.3855 95.7043 31.871C95.7043 31.871 120.038 41.0935 128.955 66.3936C128.955 66.3936 134.915 85.359 126.137 93.7141C126.137 93.7141 111.517 111.196 82.3999 109.13C54.2108 105.634 54.1884 101.486 50.9611 80.8512Z" fill="#ABC837"/>
<path d="M82.8058 31.3457C76.7767 31.0823 71.6813 32.8129 68.1876 36.3106C58.6131 45.8977 63.2301 66.0647 78.4998 81.3546C93.7695 96.6447 113.909 101.268 123.483 91.6807C133.058 82.0935 128.441 61.9266 113.171 46.6367C104.045 37.4982 92.6816 31.7764 82.8058 31.3457Z" fill="white"/>
<path d="M82.6959 33.8895C77.2134 33.65 72.9015 35.1917 69.9856 38.1111C65.9734 42.1287 64.7697 48.5421 66.5057 56.125C68.2417 63.708 72.9676 72.2135 80.2979 79.5534C87.6282 86.8933 96.1227 91.6257 103.696 93.3641C111.269 95.1025 117.674 93.897 121.686 89.8795C125.698 85.8619 126.902 79.4485 125.166 71.8656C123.43 64.2826 118.704 55.7771 111.374 48.4372C102.618 39.6702 91.6779 34.2812 82.6959 33.8895Z" fill="#D35F5F"/>
<path d="M81.3225 72.62C83.2021 72.62 84.7258 71.5138 84.7258 70.1492C84.7258 68.7847 83.2021 67.6785 81.3225 67.6785C79.4428 67.6785 77.9191 68.7847 77.9191 70.1492C77.9191 71.5138 79.4428 72.62 81.3225 72.62Z" fill="white"/>
<path d="M113.826 58.9551C115.254 58.119 115.921 56.6006 115.316 55.5635C114.711 54.5265 113.062 54.3634 111.634 55.1995C110.205 56.0356 109.537 57.5543 110.143 58.5914C110.748 59.6285 112.397 59.7912 113.826 58.9551Z" fill="white"/>
<path d="M107.444 50.6137C108.393 49.441 108.474 47.9322 107.625 47.2433C106.776 46.5545 105.319 46.947 104.37 48.1196C103.421 49.2922 103.34 50.8011 104.189 51.4899C105.038 52.1787 106.495 51.7863 107.444 50.6137Z" fill="white"/>
<path d="M98.3485 43.1026C98.8987 41.6976 98.5204 40.2347 97.5031 39.8353C96.4858 39.4359 95.2153 40.2513 94.6651 41.6563C94.1149 43.0613 94.4932 44.5241 95.5105 44.9236C96.5278 45.323 97.7983 44.5076 98.3485 43.1026Z" fill="white"/>
<path d="M76.0665 61.4746C77.8942 61.9139 79.6337 61.1945 79.9518 59.8676C80.27 58.5407 79.0462 57.1089 77.2185 56.6696C75.3908 56.2302 73.6512 56.9497 73.3331 58.2765C73.015 59.6034 74.2388 61.0352 76.0665 61.4746Z" fill="white"/>
<path d="M118.938 78.701C120.534 79.0848 122.053 78.4564 122.331 77.2976C122.609 76.1388 121.54 74.8883 119.944 74.5046C118.348 74.1209 116.829 74.7492 116.551 75.908C116.273 77.0669 117.342 78.3173 118.938 78.701Z" fill="white"/>
<path d="M104.339 86.9887C103.584 88.4486 102.116 89.1879 101.059 88.6401C100.002 88.0923 99.7565 86.4646 100.511 85.0048C101.266 83.5449 102.735 82.8059 103.792 83.3537C104.849 83.9015 105.094 85.5289 104.339 86.9887Z" fill="white"/>
<path d="M91.9697 81.025C90.7607 82.1369 89.1281 82.3268 88.3231 81.449C87.518 80.5713 87.8457 78.9586 89.0547 77.8467C90.2638 76.7348 91.8964 76.5449 92.7014 77.4227C93.5064 78.3004 93.1788 79.9132 91.9697 81.025Z" fill="white"/>
<path d="M116.773 67.7346C118.308 68.1036 119.768 67.4994 120.035 66.3853C120.303 65.2711 119.275 64.069 117.741 63.7001C116.206 63.3311 114.745 63.9351 114.478 65.0493C114.211 66.1634 115.239 67.3657 116.773 67.7346Z" fill="white"/>
<path d="M74.4363 50.5054C76.0843 51.4105 77.9516 51.1744 78.6069 49.9779C79.2622 48.7815 78.4575 47.0779 76.8094 46.1728C75.1614 45.2677 73.2941 45.5038 72.6388 46.7003C71.9835 47.8967 72.7883 49.6003 74.4363 50.5054Z" fill="white"/>
<path d="M117.633 85.0615C116.469 83.5839 114.657 83.0712 113.588 83.9164C112.518 84.7617 112.594 86.6447 113.759 88.1223C114.923 89.6 116.734 90.1127 117.804 89.2675C118.874 88.4222 118.797 86.5392 117.633 85.0615Z" fill="white"/>
<path d="M84.2812 38.7127C83.117 37.235 81.3059 36.7224 80.236 37.5676C79.1662 38.4128 79.2427 40.2958 80.407 41.7735C81.5712 43.2511 83.3823 43.7638 84.4521 42.9186C85.522 42.0734 85.4455 40.1903 84.2812 38.7127Z" fill="white"/>
<path d="M87.5337 63.9283C88.6145 63.9283 89.4907 63.3561 89.4907 62.6503C89.4907 61.9445 88.6145 61.3723 87.5337 61.3723C86.4529 61.3723 85.5768 61.9445 85.5768 62.6503C85.5768 63.3561 86.4529 63.9283 87.5337 63.9283Z" fill="white"/>
<path d="M93.5639 71.3659C94.3774 70.6533 94.6606 69.645 94.1965 69.1138C93.7324 68.5826 92.6967 68.7296 91.8833 69.4422C91.0698 70.1548 90.7866 71.1631 91.2507 71.6943C91.7148 72.2255 92.7505 72.0785 93.5639 71.3659Z" fill="white"/>
<path d="M100.474 77.0196C100.821 75.9946 100.561 74.98 99.8932 74.7536C99.2256 74.5271 98.4032 75.1744 98.0565 76.1995C97.7097 77.2245 97.9697 78.239 98.6373 78.4655C99.3049 78.692 100.127 78.0446 100.474 77.0196Z" fill="white"/>
<path d="M109.124 76.4589C108.563 75.5338 107.62 75.0809 107.017 75.4472C106.415 75.8135 106.381 76.8604 106.942 77.7855C107.503 78.7105 108.446 79.1635 109.049 78.7972C109.651 78.4308 109.685 77.3839 109.124 76.4589Z" fill="white"/>
<path d="M111.58 68.8641C110.499 68.8671 109.625 69.4416 109.627 70.1474C109.629 70.8532 110.506 71.423 111.587 71.4201C112.668 71.4172 113.543 70.8426 113.541 70.1368C113.539 69.431 112.661 68.8612 111.58 68.8641Z" fill="white"/>
<path d="M108.195 62.0474C107.18 62.4206 106.555 63.2602 106.798 63.9227C107.041 64.5853 108.061 64.8198 109.075 64.4465C110.09 64.0733 110.715 63.2337 110.472 62.5712C110.229 61.9087 109.209 61.6741 108.195 62.0474Z" fill="white"/>
<path d="M104.416 55.9926C103.828 56.9005 103.83 57.9479 104.422 58.3321C105.013 58.7162 105.969 58.2916 106.557 57.3837C107.146 56.4758 107.143 55.4283 106.552 55.0442C105.961 54.6601 105.004 55.0847 104.416 55.9926Z" fill="white"/>
<path d="M86.698 54.8828C87.6943 55.3023 88.7235 55.1149 88.9967 54.4643C89.2699 53.8137 88.6837 52.9462 87.6874 52.5267C86.6911 52.1072 85.662 52.2945 85.3888 52.9452C85.1156 53.5958 85.7017 54.4633 86.698 54.8828Z" fill="white"/>
<path d="M92.3453 51.0629C92.6327 52.1061 93.4166 52.7997 94.0961 52.612C94.7755 52.4243 95.0934 51.4264 94.806 50.3832C94.5186 49.3399 93.7348 48.6463 93.0553 48.834C92.3758 49.0217 92.0579 50.0196 92.3453 51.0629Z" fill="white"/>
<path d="M98.2696 51.9741C98.1028 53.0433 98.532 53.9985 99.2284 54.1075C99.9249 54.2164 100.625 53.438 100.792 52.3687C100.958 51.2994 100.529 50.3443 99.8327 50.2353C99.1363 50.1263 98.4365 50.9048 98.2696 51.9741Z" fill="white"/>
<path d="M99.1912 60.7764C99.8961 60.7764 100.468 60.2043 100.468 59.4984C100.468 58.7926 99.8961 58.2205 99.1912 58.2205C98.4864 58.2205 97.915 58.7926 97.915 59.4984C97.915 60.2043 98.4864 60.7764 99.1912 60.7764Z" fill="white"/>
<path d="M95.0211 65.6329C95.726 65.6329 96.2974 65.0607 96.2974 64.3549C96.2974 63.6491 95.726 63.0769 95.0211 63.0769C94.3163 63.0769 93.7449 63.6491 93.7449 64.3549C93.7449 65.0607 94.3163 65.6329 95.0211 65.6329Z" fill="white"/>
<path d="M102.849 68.0193C103.554 68.0193 104.125 67.4472 104.125 66.7414C104.125 66.0356 103.554 65.4634 102.849 65.4634C102.144 65.4634 101.573 66.0356 101.573 66.7414C101.573 67.4472 102.144 68.0193 102.849 68.0193Z" fill="white"/>
</svg>
