<svg width="151" height="109" viewBox="0 0 151 109" fill="none" xmlns="http://www.w3.org/2000/svg">
<path fill-rule="evenodd" clip-rule="evenodd" d="M59.0418 0C48.7429 0.11544 38.2471 3.29092 29.7913 8.26672C29.7889 8.26911 29.786 8.27151 29.7836 8.27392C26.3571 10.3245 23.6665 12.3667 21.7938 13.9303C19.9456 15.4738 19.0957 16.3402 18.7337 16.7192C18.7337 16.7192 18.7338 16.7264 18.7266 16.7264C18.7266 16.7266 18.7266 16.7264 18.7266 16.7264C18.7195 16.7336 18.7263 16.7336 18.7119 16.7401C18.7112 16.7401 18.7119 16.74 18.7119 16.7472C18.6047 16.856 18.4908 16.9728 18.4167 17.0494C18.3735 17.0911 18.3592 17.1055 18.3253 17.145C18.3253 17.1522 18.3179 17.1558 18.3035 17.1688C18.3035 17.1688 18.3035 17.1687 18.3035 17.1759C18.2676 17.2126 18.227 17.2542 18.1946 17.2884C18.1442 17.3387 18.0923 17.3879 18.0505 17.4303C18.0505 17.4332 18.0505 17.4362 18.0505 17.439C17.9289 17.5661 17.8158 17.6924 17.6956 17.8284C7.23619 27.2775 3.45496 39.956 2.30848 50.3218C1.15624 60.7311 2.62509 68.8725 2.73088 69.4416L2.71683 69.3516C2.96584 71.3913 2.76696 72.9407 2.51722 73.9636C2.26965 74.9865 2.02946 75.3833 2.02946 75.3833C1.98457 75.4617 1.94681 75.5441 1.917 75.6293C1.96738 75.484 1.90295 75.6559 1.90295 75.6588C0.126007 79.969 -0.491001 85.4653 0.412943 89.835C0.412937 89.8374 0.412937 89.8398 0.412943 89.8422C0.993741 92.6105 2.35476 96.0779 5.35807 98.7372C8.36066 101.396 12.9708 103.115 19.5518 102.539C19.571 102.537 19.5903 102.535 19.6094 102.532C23.4987 102.036 26.1716 100.813 26.928 100.45C26.9659 100.445 27.0038 100.437 27.0412 100.428C26.9908 100.448 28.1312 100.225 29.3317 100.241C30.5329 100.257 31.9566 100.402 33.1333 100.688C35.735 101.324 37.5021 102.142 37.5035 102.143C37.5316 102.159 37.5603 102.173 37.5893 102.186C38.1801 102.463 38.8068 102.673 39.456 102.805C54.2358 105.811 66.9384 101.85 75.7432 97.2299C80.142 94.9211 83.6126 92.4424 86.0229 90.5109C87.2233 89.5482 88.1574 88.7231 88.8145 88.117C102.785 75.4568 109.293 54.4087 105.928 34.3658L105.943 34.5513C105.941 34.4616 105.931 34.3722 105.914 34.2843C105.426 32.0376 106.19 29.536 107.132 27.2616C107.142 27.2365 107.152 27.2112 107.161 27.1856C108.981 21.9981 108.993 17.4305 108.255 13.9906C106.998 5.68488 99.2902 0.0902189 89.0675 1.2398C89.0603 1.23974 89.0529 1.23974 89.0457 1.2398C85.1579 1.73553 82.4857 2.9561 81.7264 3.32027C81.6853 3.32693 81.6446 3.33536 81.6041 3.34548C81.6473 3.32605 80.5155 3.54856 79.3157 3.53244C78.1167 3.5166 76.6943 3.37173 75.5176 3.08543C72.9166 2.45001 70.9464 1.53859 70.9443 1.5378L71.0624 1.58673C70.4686 1.30893 69.846 1.10232 69.2041 0.971051C65.9021 0.27251 62.493 -0.0317392 59.0608 0.00676476L59.0418 0Z" fill="white"/>
<path fill-rule="evenodd" clip-rule="evenodd" d="M58.486 4.15432C47.5048 4.23018 38.3656 8.08028 31.9681 11.9094C28.7684 13.8245 26.2518 15.7365 24.5209 17.182C22.8045 18.6152 21.9187 19.5313 21.8136 19.6419C21.8131 19.6443 21.8131 19.6468 21.8136 19.6491C21.8136 19.6491 21.8136 19.6497 21.8136 19.6491C21.8136 19.6497 21.8136 19.6491 21.8136 19.6491C21.8136 19.6492 21.8136 19.6491 21.8136 19.6491L21.8284 19.6564H21.8136C21.8064 19.6643 21.7997 19.6715 21.7925 19.6787C21.7033 19.7679 21.6162 19.8538 21.5536 19.919C21.5176 19.9565 21.479 19.9988 21.4531 20.0259C21.4459 20.0345 21.439 20.0387 21.439 20.0438C21.439 20.0438 21.432 20.051 21.432 20.0525C21.3435 20.1432 21.2692 20.2211 21.2268 20.2661C21.2268 20.2668 21.2268 20.2669 21.2268 20.2661C21.2412 20.2395 21.2484 20.2129 21.2556 20.2028C21.2556 20.2028 21.2485 20.2194 21.2485 20.2208C21.2485 20.2208 21.2412 20.2438 21.2268 20.2668C21.2268 20.2673 21.2268 20.2668 21.2268 20.2668C21.2268 20.2671 21.2268 20.2666 21.2268 20.2668C21.2268 20.2668 21.2269 20.2741 21.2197 20.2741C21.2053 20.2913 21.1909 20.3043 21.1621 20.3288C21.1477 20.3396 21.1406 20.3518 21.1263 20.364C21.0831 20.4137 20.9999 20.5013 20.9035 20.6114C20.9035 20.6116 20.9035 20.6112 20.9035 20.6114C20.9035 20.6118 20.9035 20.6114 20.9035 20.6114C11.2026 29.1615 7.70681 41.1204 6.63877 50.957C5.56786 60.8188 6.92383 68.5956 6.96629 68.8399C7.59243 74.0625 5.78553 77.3849 5.78553 77.3849C5.78499 77.3873 5.78499 77.3898 5.78553 77.3921C5.78553 77.3993 5.78553 77.4022 5.78553 77.4079C5.70349 77.5666 5.61854 77.7472 5.54657 77.9518C3.96899 82.4468 4.01751 86.2174 4.60407 88.9049C5.17695 91.5316 6.36837 93.2653 6.45041 93.3832C6.45041 93.3919 6.45078 93.4027 6.46517 93.4128C6.47956 93.4408 6.49348 93.4697 6.51507 93.4958C9.95164 98.0844 15.3423 98.7561 19.1056 98.2765C22.5242 97.8407 24.9838 96.6702 25.3882 96.473C25.4026 96.473 25.4243 96.4658 25.4459 96.4629C27.4862 95.6123 31.1861 95.7861 34.1779 96.5147C37.2042 97.2538 39.428 98.2935 39.4301 98.2942C39.7209 98.4307 40.03 98.5322 40.3452 98.5965C53.9483 101.363 65.5996 97.73 73.8085 93.4222C77.9129 91.2683 81.1666 88.9448 83.4063 87.1502C84.5255 86.2527 85.3927 85.4879 85.9843 84.9419C86.2773 84.6706 86.5092 84.4481 86.6661 84.2938C86.7445 84.2165 86.8043 84.1557 86.8446 84.1153C86.8662 84.0945 86.8803 84.0808 86.8875 84.0693C86.888 84.0669 86.888 84.0645 86.8875 84.0621C86.8875 84.0618 86.8875 84.0621 86.8875 84.0621C86.8896 84.0607 86.8918 84.0587 86.8931 84.0565C86.8943 84.0542 86.8951 84.0517 86.8952 84.0491L86.9022 84.039C87.0512 83.8893 87.169 83.7629 87.2129 83.7158C87.2935 83.6301 87.3499 83.5237 87.383 83.4107V83.4827C87.3827 83.4862 87.3833 83.4897 87.3851 83.4926C87.3869 83.4956 87.3896 83.4979 87.3928 83.4992C87.396 83.5005 87.4 83.5007 87.4034 83.4998C87.4067 83.4989 87.4096 83.4969 87.4118 83.4942C100.386 71.0408 104.453 52.3359 101.748 34.9242C101.748 34.9171 101.748 34.9106 101.748 34.9034C101.108 29.6577 102.928 26.319 102.928 26.319C102.928 26.3118 102.928 26.3061 102.928 26.2996C103.011 26.1385 103.095 25.9567 103.166 25.7514C104.745 21.2566 104.694 17.4866 104.108 14.7999C103.533 12.1688 102.333 10.43 102.253 10.3171C102.253 10.3078 102.254 10.2962 102.246 10.2833C102.232 10.2581 102.21 10.2337 102.196 10.2102C98.7593 5.62152 93.368 4.94977 89.6039 5.42952C86.176 5.86653 83.7009 7.04764 83.3079 7.24002C83.3072 7.24009 83.3079 7.23988 83.3079 7.24002C83.3079 7.24024 83.3079 7.24002 83.3079 7.24002C83.3008 7.24002 83.2865 7.24003 83.2721 7.24722C81.2325 8.09784 77.5326 7.92374 74.5401 7.19548C71.5109 6.45599 69.2885 5.41724 69.2885 5.41731C68.9963 5.28057 68.688 5.17773 68.3721 5.1136C64.9729 4.42247 61.6852 4.13122 58.5408 4.15072C58.5408 4.15072 58.534 4.14351 58.5268 4.14351C58.5245 4.1424 58.5215 4.14185 58.519 4.14185C58.5165 4.14185 58.5143 4.1424 58.512 4.14351L58.486 4.15432ZM21.9964 19.5196V19.5269C21.9964 19.5269 21.9964 19.5268 21.9964 19.5196C21.982 19.529 21.9964 19.5196 21.9964 19.5196ZM21.924 19.5657C21.9096 19.5772 21.8955 19.5895 21.8811 19.6024C21.8451 19.6305 21.9241 19.5665 21.8881 19.5938C21.8521 19.6211 21.9311 19.56 21.8952 19.5866C21.8592 19.6132 21.9382 19.5535 21.9022 19.5794C21.8662 19.606 21.9459 19.5463 21.9099 19.5722C21.8739 19.5981 21.9529 19.5398 21.9169 19.565L21.924 19.5657ZM21.8031 19.6824C21.8031 19.6829 21.8178 19.6824 21.8178 19.6896C21.8178 19.6889 21.8031 19.6824 21.8031 19.6824ZM21.1874 20.2995C21.1874 20.299 21.1874 20.2995 21.1874 20.2995C21.1874 20.2995 21.1874 20.2996 21.1874 20.2995Z" fill="#333333"/>
<path fill-rule="evenodd" clip-rule="evenodd" d="M58.5194 8.22728C38.3635 8.36172 24.6851 22.5163 24.6851 22.5163C24.5599 22.6352 24.4482 22.7635 24.3288 22.8866C24.2064 23.007 24.2088 23.0097 24.1383 23.0855C24.0591 23.1709 23.9735 23.2514 23.8972 23.3386C23.8972 23.3388 23.8902 23.3494 23.8902 23.3494C6.05962 38.591 10.9405 68.3394 10.9405 68.3394C11.7293 74.7883 9.31205 79.3352 9.31205 79.3352C6.63404 86.964 9.70563 91.0928 9.70563 91.0928C14.4189 97.3873 23.8164 92.7414 23.8164 92.7414C30.8133 89.8241 41.0913 94.6469 41.0913 94.6469C66.0735 99.7281 83.9402 81.2409 83.9402 81.2409C84.0647 81.122 84.1771 80.9936 84.2958 80.8705C84.4189 80.7501 84.4157 80.7475 84.487 80.6715C84.5662 80.5861 84.6518 80.5058 84.7281 80.4184C84.7281 80.4183 84.7358 80.4076 84.7358 80.4076C102.566 65.1661 97.6855 35.4176 97.6855 35.4176C96.8967 28.9686 99.3153 24.4205 99.3153 24.4205C101.993 16.7917 98.9203 12.6643 98.9203 12.6643C94.207 6.36976 84.8089 11.0158 84.8089 11.0158C77.812 13.9329 67.534 9.11022 67.534 9.11022C64.4105 8.47501 61.399 8.20807 58.5194 8.22728Z" fill="#ABC837"/>
<path d="M45.1968 19.6157C44.4377 16.5291 47.8258 13.0423 52.7644 11.8277C57.7029 10.6132 62.3218 12.1308 63.0809 15.2174C63.84 18.304 60.4519 21.7908 55.5133 23.0053C50.5748 24.2199 45.9559 22.7023 45.1968 19.6157Z" fill="white"/>
<path fill-rule="evenodd" clip-rule="evenodd" d="M91.2452 9.4541C91.0891 9.45441 90.9333 9.46429 90.7784 9.48366C83.5591 9.50836 77.944 11.4314 74.1366 13.5624C71.2595 15.1728 69.6124 16.7312 68.8112 17.5545C68.7769 17.5817 68.7406 17.605 68.7068 17.6332C68.7021 17.6371 68.6972 17.6411 68.6925 17.645C57.1609 27.5021 53.078 41.3162 51.8203 52.4845C50.6097 63.234 51.9337 71.3788 52.1216 72.4843C52.1216 72.5216 52.1216 72.5592 52.1216 72.5965C52.1265 72.6762 52.1339 72.7556 52.1438 72.8348C52.7353 77.6705 51.2046 80.3463 51.2046 80.3463C51.1992 80.3561 51.1937 80.366 51.1883 80.3758C51.0051 80.7221 50.8616 81.0622 50.7472 81.3901C50.7469 81.3907 50.7474 81.3914 50.7472 81.3921C50.7463 81.3947 50.7472 81.3974 50.7472 81.4C48.866 86.7663 48.8795 91.4237 49.6305 94.8631C50.4056 98.4124 52.1612 100.878 52.1612 100.878C52.1962 100.927 52.2323 100.975 52.2696 101.022C52.3759 101.16 52.4905 101.293 52.6122 101.417C52.6539 101.46 52.6966 101.501 52.7403 101.542C52.7403 101.542 52.7684 101.568 52.8087 101.605C52.8289 101.623 52.8532 101.644 52.9077 101.689C52.9389 101.716 53.0608 101.8 53.1854 101.888C57.7181 106.98 64.1557 107.894 68.6278 107.324C72.5205 106.828 75.1953 105.623 76.0132 105.236C76.0838 105.212 76.1569 105.195 76.2259 105.167C76.2357 105.163 76.2452 105.158 76.255 105.153C77.2484 104.739 81.0173 104.667 83.8533 105.358C86.8318 106.085 88.9798 107.087 88.9798 107.087L88.9697 107.084C89.4978 107.332 90.0545 107.517 90.628 107.635C90.628 107.636 90.628 107.636 90.628 107.637C121.52 113.92 143.084 91.7219 143.661 91.1252C150.789 84.2435 151.354 74.4935 150.871 67.4071C150.408 60.5962 148.806 55.3714 148.63 54.8066C148.603 54.6722 148.568 54.5394 148.526 54.4088C148.526 54.4028 148.526 54.3969 148.526 54.391C148.516 54.3595 148.516 54.3639 148.508 54.3379C148.49 54.2803 148.472 54.2232 148.452 54.1665C137.672 23.6384 108.469 12.7607 108.465 12.7589C108.455 12.7549 108.445 12.751 108.435 12.7471C108.365 12.7206 108.316 12.7044 108.274 12.69C101.983 10.4684 96.361 9.53027 91.4291 9.46803L92.1519 9.54487C91.8628 9.48537 91.5667 9.45794 91.2715 9.45622C91.2614 9.45619 91.2613 9.45421 91.2553 9.45421C91.2519 9.4542 91.2485 9.4542 91.2452 9.45421V9.4541ZM52.2659 101.022C52.3123 101.088 52.4712 101.27 52.4195 101.209L52.2659 101.022Z" fill="white"/>
<path fill-rule="evenodd" clip-rule="evenodd" d="M91.2425 13.273C84.4628 13.2093 79.3793 15.0055 76.0071 16.8929C73.2209 18.4524 71.767 19.934 71.2361 20.5036C71.2167 20.5167 71.1979 20.5307 71.1799 20.5457C50.1323 38.5369 55.8212 71.6087 55.9409 72.2912C55.9393 72.3175 55.9393 72.3437 55.9409 72.3699C56.6646 78.2866 54.5701 82.1608 54.5701 82.1608C54.4868 82.319 54.4149 82.4841 54.356 82.6531C52.6994 87.3735 52.7616 91.2881 53.3641 94.0471C53.9701 96.8217 55.2784 98.6662 55.2784 98.6662C55.2848 98.6742 55.2913 98.6819 55.2981 98.6896C55.3134 98.7105 55.3298 98.7305 55.3475 98.7495C55.3475 98.7495 55.357 98.7591 55.3607 98.7609C58.8531 103.351 64.2821 104.026 68.1438 103.534C71.7063 103.079 74.2823 101.856 74.6954 101.656C74.7261 101.648 74.7563 101.639 74.7856 101.627C77.3276 100.567 81.4123 100.83 84.7595 101.647C88.1225 102.467 90.5992 103.625 90.5992 103.625C90.8544 103.745 91.1227 103.836 91.399 103.892C120.283 109.767 140.741 88.6669 140.972 88.4281C146.888 82.7605 147.52 74.3134 147.068 67.666C146.614 60.9917 144.892 55.5619 144.892 55.5619C144.892 55.5587 144.892 55.5556 144.892 55.5525C144.881 55.5178 144.868 55.4831 144.855 55.4482V55.437C134.703 26.6866 107.104 16.3228 107.099 16.321C107.075 16.3116 107.05 16.304 107.026 16.2956C101.081 14.1938 95.8775 13.3421 91.3862 13.2854C91.341 13.2757 91.295 13.2705 91.2489 13.2703L91.2425 13.273Z" fill="#333333"/>
<path fill-rule="evenodd" clip-rule="evenodd" d="M59.4813 71.936C59.4813 71.936 54.2003 39.7452 73.4946 23.2527C73.4946 23.2527 83.1509 11.6342 105.831 19.6525C105.831 19.6525 131.932 29.5313 141.495 56.632C141.495 56.632 147.888 76.9472 138.473 85.8969C138.473 85.8969 119.141 105.901 92.1083 100.403C92.1083 100.403 80.9859 95.1842 73.4145 98.341C73.4145 98.341 63.2462 103.368 58.1458 96.5571C58.1458 96.5571 54.8204 92.0899 57.718 83.8349C57.718 83.8349 60.3348 78.9143 59.4813 71.936Z" fill="#ABC837"/>
<path d="M91.9955 19.0908C85.5284 18.8086 80.0629 20.6623 76.3154 24.409C73.8736 26.8508 72.2227 30.0358 71.4571 33.7821C70.6914 37.5284 70.8262 41.7627 71.8533 46.2431C72.8804 50.7235 74.7797 55.3623 77.4432 59.8947C80.1067 64.4271 83.482 68.7644 87.3764 72.6588C91.2708 76.5532 95.6078 79.9285 100.14 82.592C104.673 85.2555 109.312 87.155 113.792 88.1822C118.273 89.2093 122.507 89.3438 126.253 88.5781C129.999 87.8125 133.184 86.1616 135.626 83.7197C138.068 81.2779 139.719 78.0929 140.485 74.3466C141.25 70.6003 141.116 66.366 140.089 61.8856C139.062 57.4052 137.162 52.7662 134.498 48.2338C131.835 43.7013 128.46 39.3643 124.565 35.4699C119.743 30.6483 114.257 26.6365 108.582 23.7824C102.907 20.9283 97.2133 19.318 91.9955 19.0908ZM91.0969 25.2837C92.0397 25.2837 92.6379 25.3624 92.6379 25.3624L103.404 46.1868L80.2153 31.9891C82.3449 26.0439 88.2684 25.2893 91.0969 25.2837ZM98.5545 25.8364C106.008 27.2562 111.923 32.6974 111.923 32.6974C111.923 32.6974 107.309 44.767 107.191 46.1868C107.191 46.1868 98.7913 26.5463 98.5545 25.8364ZM78.323 35.3016L102.813 49.8543L81.2804 52.4566C75.7197 42.5183 78.323 35.3016 78.323 35.3016ZM115.236 35.3016C120.915 37.4313 125.53 45.9489 125.53 45.9489L110.148 47.9602L115.236 35.3016ZM128.961 49.9714C132.984 54.2307 133.694 62.749 133.694 62.749L112.514 51.5105L128.961 49.9714ZM104.707 53.2838L97.0154 71.5059C88.1418 67.0099 82.7006 56.7152 82.7006 56.7152L104.707 53.2838ZM110.977 53.6389L134.404 67.1283C134.404 75.8835 128.015 79.9059 128.015 79.9059L110.977 53.6389ZM107.782 55.2969L123.044 80.4968C110.858 81.7983 102.694 75.2904 102.694 75.2904L107.782 55.2969Z" fill="white"/>
</svg>
