<svg width="110" height="155" viewBox="0 0 110 155" fill="none" xmlns="http://www.w3.org/2000/svg">
<path d="M91.5914 0.0133503C90.8987 0.0487787 90.2304 0.280759 89.6648 0.682146C82.4607 5.79295 75.0172 3.10179 75.0172 3.10179C74.7798 3.01745 74.5342 2.95789 74.2845 2.92411C64.6979 1.63067 58.3318 6.73407 55.4265 11.8101C55.0837 12.4088 54.8831 12.9854 54.608 13.5789C52.0953 9.76024 49.4712 7.76739 49.4712 7.76739C49.0081 7.4706 48.484 7.2822 47.938 7.21639C47.938 7.21639 47.6378 7.18168 47.3071 7.16635H47.2969C46.1399 7.1132 43.5773 7.07836 40.7606 8.43794C37.9388 9.80027 35.0772 13.0681 34.6297 17.7671C34.5642 18.4558 34.6956 19.1488 35.0087 19.7655C35.3219 20.3823 35.8039 20.8975 36.3985 21.251C36.3985 21.251 42.7399 24.9838 46.9675 34.8724C45.404 35.6611 43.9862 36.6945 42.7071 37.891C39.3836 34.7938 34.9129 32.9037 30.3613 32.8979C25.6379 32.8975 20.9444 34.8427 17.6043 38.1824C14.2642 41.5221 12.318 46.2162 12.3178 50.9396C12.3178 50.943 12.3178 50.9463 12.3178 50.9497C12.3178 52.4626 12.5523 53.9676 12.9327 55.4317C10.0619 56.2928 7.3742 57.7771 5.25853 59.9017C1.93529 63.2387 0.000919944 67.9192 0 72.6288C0 77.273 1.88556 81.888 5.12877 85.2121C7.238 87.3739 9.93096 88.8993 12.8169 89.7859C12.5172 91.0962 12.3193 92.4326 12.3178 93.7767C12.3178 93.7801 12.3178 93.7835 12.3178 93.7869C12.3178 98.4438 14.2151 103.07 17.4745 106.396C19.5855 108.55 22.2774 110.067 25.1607 110.948C24.8435 112.297 24.638 113.677 24.6377 115.063C24.6377 119.741 26.5506 124.391 29.8363 127.722C31.9488 129.863 34.6391 131.365 37.5165 132.238C37.1733 133.636 36.9592 135.069 36.9575 136.508C36.9571 141.231 38.9024 145.925 42.242 149.265C45.5817 152.605 50.2757 154.551 54.999 154.552C59.7228 154.552 64.4178 152.607 67.758 149.267C71.0982 145.927 73.0428 141.232 73.0425 136.508C73.0425 136.505 73.0425 136.501 73.0425 136.498C73.0425 135.062 72.8211 133.634 72.4775 132.24C75.356 131.367 78.0481 129.865 80.1617 127.724C83.4502 124.392 85.3605 119.74 85.3623 115.059C85.3624 115.055 85.3624 115.052 85.3623 115.048C85.3623 113.667 85.1514 112.292 84.8333 110.948C87.7167 110.067 90.41 108.553 92.5215 106.4C95.7842 103.072 97.6776 98.4392 97.6802 93.7786C97.6802 93.7752 97.6802 93.7718 97.6802 93.7683C97.6802 92.4257 97.4805 91.0923 97.1811 89.7835C100.068 88.8969 102.762 87.3702 104.871 85.2078C108.115 81.8826 109.997 77.2658 110 72.6204C110 67.9112 108.065 63.2319 104.741 59.8953C102.625 57.7706 99.9367 56.2861 97.0653 55.4254C97.4453 53.9608 97.677 52.4545 97.6802 50.9414C97.6802 50.938 97.6802 50.9346 97.6802 50.9312C97.6799 46.2082 95.7353 41.5138 92.3957 38.1742C89.0562 34.8346 84.3615 32.89 79.6386 32.8897C79.6352 32.8897 79.6318 32.8897 79.6284 32.8897C75.0779 32.8999 70.6096 34.7843 67.2866 37.8807C65.4895 36.1993 63.384 34.8908 61.0738 34.0456C60.8041 31.6467 60.4607 29.4252 60.0217 27.4115C60.5079 27.4013 60.9808 27.3696 61.4811 27.435C63.0934 27.6475 64.322 28.064 64.322 28.064L64.2361 28.0343C73.5307 31.4969 81.8484 29.3779 81.8484 29.3779C81.9934 29.3421 82.1361 29.2974 82.2757 29.2441C91.4495 25.6985 95.2148 18.6376 96.0369 12.9275C96.8589 7.21728 95.2412 2.49922 95.2403 2.49626C94.9879 1.73917 94.4944 1.0857 93.8353 0.63573C93.1762 0.185763 92.3879 -0.0359115 91.5909 0.00474081L91.5914 0.0133503Z" fill="white"/>
<path d="M30.3586 65.3296C38.3065 65.3296 44.7496 58.8865 44.7496 50.9386C44.7496 42.9907 38.3065 36.5476 30.3586 36.5476C22.4107 36.5476 15.9676 42.9907 15.9676 50.9386C15.9676 58.8865 22.4107 65.3296 30.3586 65.3296Z" fill="#333333"/>
<path d="M30.358 61.1044C35.9725 61.1044 40.5239 56.553 40.5239 50.9385C40.5239 45.324 35.9725 40.7727 30.358 40.7727C24.7435 40.7727 20.1922 45.324 20.1922 50.9385C20.1922 56.553 24.7435 61.1044 30.358 61.1044Z" fill="#AA87DE"/>
<path fill-rule="evenodd" clip-rule="evenodd" d="M57.8398 37.7648C56.464 16.539 47.5022 10.8391 47.5022 10.8391C47.5022 10.8391 39.0508 9.85657 38.2646 18.1111C38.2646 18.1111 48.2523 24.0233 52.3795 39.1566C52.3795 39.1566 56.8249 43.1791 57.0213 39.4448C57.2179 35.7106 57.8398 37.7648 57.8398 37.7648Z" fill="#333333"/>
<path d="M54.9972 65.3296C62.9451 65.3296 69.3882 58.8865 69.3882 50.9386C69.3882 42.9907 62.9451 36.5476 54.9972 36.5476C47.0493 36.5476 40.6062 42.9907 40.6062 50.9386C40.6062 58.8865 47.0493 65.3296 54.9972 65.3296Z" fill="#333333"/>
<path d="M54.9972 61.1044C60.6117 61.1044 65.163 56.553 65.163 50.9385C65.163 45.324 60.6117 40.7727 54.9972 40.7727C49.3827 40.7727 44.8311 45.324 44.8311 50.9385C44.8311 56.553 49.3827 61.1044 54.9972 61.1044Z" fill="#AA87DE"/>
<path d="M79.6357 65.3296C87.5836 65.3296 94.0267 58.8865 94.0267 50.9386C94.0267 42.9907 87.5836 36.5476 79.6357 36.5476C71.6878 36.5476 65.2447 42.9907 65.2447 50.9386C65.2447 58.8865 71.6878 65.3296 79.6357 65.3296Z" fill="#333333"/>
<path d="M79.6355 61.1044C85.25 61.1044 89.8013 56.553 89.8013 50.9385C89.8013 45.324 85.25 40.7727 79.6355 40.7727C74.021 40.7727 69.4696 45.324 69.4696 50.9385C69.4696 56.553 74.021 61.1044 79.6355 61.1044Z" fill="#AA87DE"/>
<path d="M18.039 87.0186C25.9869 87.0186 32.43 80.5755 32.43 72.6276C32.43 64.6797 25.9869 58.2366 18.039 58.2366C10.0911 58.2366 3.64804 64.6797 3.64804 72.6276C3.64804 80.5755 10.0911 87.0186 18.039 87.0186Z" fill="#333333"/>
<path d="M18.039 82.7941C23.6535 82.7941 28.2048 78.2425 28.2048 72.628C28.2048 67.0135 23.6535 62.4622 18.039 62.4622C12.4245 62.4622 7.87286 67.0135 7.87286 72.628C7.87286 78.2425 12.4245 82.7941 18.039 82.7941Z" fill="#AA87DE"/>
<path d="M42.6778 87.0186C50.6257 87.0186 57.0688 80.5755 57.0688 72.6276C57.0688 64.6797 50.6257 58.2366 42.6778 58.2366C34.7299 58.2366 28.2868 64.6797 28.2868 72.6276C28.2868 80.5755 34.7299 87.0186 42.6778 87.0186Z" fill="#333333"/>
<path d="M42.6772 82.7941C48.2917 82.7941 52.843 78.2425 52.843 72.628C52.843 67.0135 48.2917 62.4622 42.6772 62.4622C37.0627 62.4622 32.5114 67.0135 32.5114 72.628C32.5114 78.2425 37.0627 82.7941 42.6772 82.7941Z" fill="#AA87DE"/>
<path d="M67.3164 87.0186C75.2643 87.0186 81.7074 80.5755 81.7074 72.6276C81.7074 64.6797 75.2643 58.2366 67.3164 58.2366C59.3685 58.2366 52.9254 64.6797 52.9254 72.6276C52.9254 80.5755 59.3685 87.0186 67.3164 87.0186Z" fill="#333333"/>
<path d="M67.3162 82.7941C72.9307 82.7941 77.482 78.2425 77.482 72.628C77.482 67.0135 72.9307 62.4622 67.3162 62.4622C61.7017 62.4622 57.1504 67.0135 57.1504 72.628C57.1504 78.2425 61.7017 82.7941 67.3162 82.7941Z" fill="#AA87DE"/>
<path d="M91.9551 87.0186C99.903 87.0186 106.346 80.5755 106.346 72.6276C106.346 64.6797 99.903 58.2366 91.9551 58.2366C84.0071 58.2366 77.564 64.6797 77.564 72.6276C77.564 80.5755 84.0071 87.0186 91.9551 87.0186Z" fill="#333333"/>
<path d="M91.9547 82.7941C97.5692 82.7941 102.121 78.2425 102.121 72.628C102.121 67.0135 97.5692 62.4622 91.9547 62.4622C86.3402 62.4622 81.7889 67.0135 81.7889 72.628C81.7889 78.2425 86.3402 82.7941 91.9547 82.7941Z" fill="#AA87DE"/>
<path d="M30.3586 108.174C38.3065 108.174 44.7496 101.731 44.7496 93.7828C44.7496 85.8349 38.3065 79.3918 30.3586 79.3918C22.4107 79.3918 15.9676 85.8349 15.9676 93.7828C15.9676 101.731 22.4107 108.174 30.3586 108.174Z" fill="#333333"/>
<path d="M30.358 103.949C35.9725 103.949 40.5239 99.3975 40.5239 93.783C40.5239 88.1685 35.9725 83.6172 30.358 83.6172C24.7435 83.6172 20.1922 88.1685 20.1922 93.783C20.1922 99.3975 24.7435 103.949 30.358 103.949Z" fill="#AA87DE"/>
<path d="M54.9972 108.174C62.9451 108.174 69.3882 101.731 69.3882 93.7828C69.3882 85.8349 62.9451 79.3918 54.9972 79.3918C47.0493 79.3918 40.6062 85.8349 40.6062 93.7828C40.6062 101.731 47.0493 108.174 54.9972 108.174Z" fill="#333333"/>
<path d="M54.9972 103.949C60.6117 103.949 65.163 99.3975 65.163 93.783C65.163 88.1685 60.6117 83.6172 54.9972 83.6172C49.3827 83.6172 44.8311 88.1685 44.8311 93.783C44.8311 99.3975 49.3827 103.949 54.9972 103.949Z" fill="#AA87DE"/>
<path d="M79.6357 108.174C87.5836 108.174 94.0267 101.731 94.0267 93.7828C94.0267 85.8349 87.5836 79.3918 79.6357 79.3918C71.6878 79.3918 65.2447 85.8349 65.2447 93.7828C65.2447 101.731 71.6878 108.174 79.6357 108.174Z" fill="#333333"/>
<path d="M79.6355 103.949C85.25 103.949 89.8013 99.3975 89.8013 93.783C89.8013 88.1685 85.25 83.6172 79.6355 83.6172C74.021 83.6172 69.4696 88.1685 69.4696 93.783C69.4696 99.3975 74.021 103.949 79.6355 103.949Z" fill="#AA87DE"/>
<path d="M42.6778 129.453C50.6257 129.453 57.0688 123.01 57.0688 115.062C57.0688 107.114 50.6257 100.671 42.6778 100.671C34.7299 100.671 28.2868 107.114 28.2868 115.062C28.2868 123.01 34.7299 129.453 42.6778 129.453Z" fill="#333333"/>
<path d="M42.6772 125.228C48.2917 125.228 52.843 120.677 52.843 115.063C52.843 109.448 48.2917 104.897 42.6772 104.897C37.0627 104.897 32.5114 109.448 32.5114 115.063C32.5114 120.677 37.0627 125.228 42.6772 125.228Z" fill="#AA87DE"/>
<path d="M67.3164 129.453C75.2643 129.453 81.7074 123.01 81.7074 115.062C81.7074 107.114 75.2643 100.671 67.3164 100.671C59.3685 100.671 52.9254 107.114 52.9254 115.062C52.9254 123.01 59.3685 129.453 67.3164 129.453Z" fill="#333333"/>
<path d="M67.3162 125.228C72.9307 125.228 77.482 120.677 77.482 115.063C77.482 109.448 72.9307 104.897 67.3162 104.897C61.7017 104.897 57.1504 109.448 57.1504 115.063C57.1504 120.677 61.7017 125.228 67.3162 125.228Z" fill="#AA87DE"/>
<path d="M54.9972 150.906C62.9451 150.906 69.3882 144.462 69.3882 136.515C69.3882 128.567 62.9451 122.124 54.9972 122.124C47.0493 122.124 40.6062 128.567 40.6062 136.515C40.6062 144.462 47.0493 150.906 54.9972 150.906Z" fill="#333333"/>
<path d="M54.9972 146.68C60.6117 146.68 65.163 142.129 65.163 136.514C65.163 130.9 60.6117 126.349 54.9972 126.349C49.3827 126.349 44.8311 130.9 44.8311 136.514C44.8311 142.129 49.3827 146.68 54.9972 146.68Z" fill="#AA87DE"/>
<path d="M37.0305 48.5987C38.0565 47.7421 37.9889 45.9703 36.8791 44.6411C35.7694 43.3119 34.0382 42.929 33.0121 43.7856C31.986 44.6422 32.0537 46.414 33.1634 47.7432C34.2732 49.0725 36.0044 49.4554 37.0305 48.5987Z" fill="white"/>
<path d="M61.5625 48.2884C62.5885 47.4318 62.5209 45.66 61.4111 44.3307C60.3014 43.0015 58.5698 42.6182 57.5437 43.4748C56.5177 44.3314 56.5857 46.1037 57.6954 47.4329C58.8052 48.7621 60.5364 49.145 61.5625 48.2884Z" fill="white"/>
<path d="M86.2049 48.5086C87.231 47.652 87.1633 45.8802 86.0536 44.551C84.9438 43.2218 83.2126 42.8389 82.1865 43.6955C81.1605 44.5521 81.2281 46.3239 82.3379 47.6532C83.4476 48.9824 85.1788 49.3653 86.2049 48.5086Z" fill="white"/>
<path d="M98.7454 70.6197C99.7715 69.7631 99.7038 67.9913 98.594 66.6621C97.4843 65.3329 95.7531 64.95 94.727 65.8066C93.7009 66.6632 93.7686 68.435 94.8784 69.7642C95.9881 71.0935 97.7193 71.4764 98.7454 70.6197Z" fill="white"/>
<path d="M74.4336 71.1698C75.4597 70.3131 75.392 68.5413 74.2823 67.2121C73.1726 65.8829 71.4413 65.5 70.4153 66.3566C69.3892 67.2133 69.4568 68.9851 70.5666 70.3143C71.6763 71.6435 73.4076 72.0264 74.4336 71.1698Z" fill="white"/>
<path d="M49.7914 70.95C50.8175 70.0934 50.7498 68.3216 49.6401 66.9924C48.5304 65.6632 46.7991 65.2803 45.773 66.1369C44.747 66.9936 44.8146 68.7653 45.9244 70.0946C47.0341 71.4238 48.7654 71.8067 49.7914 70.95Z" fill="white"/>
<path d="M24.7088 70.9498C25.7349 70.0931 25.6672 68.3213 24.5575 66.9921C23.4478 65.6629 21.7161 65.2795 20.6901 66.1362C19.664 66.9928 19.732 68.7651 20.8418 70.0943C21.9515 71.4235 23.6828 71.8064 24.7088 70.9498Z" fill="white"/>
<path d="M37.36 91.8517C38.3861 90.995 38.3184 89.2232 37.2087 87.894C36.099 86.5648 34.3677 86.1819 33.3416 87.0385C32.3156 87.8952 32.3832 89.6669 33.493 90.9962C34.6027 92.3254 36.334 92.7083 37.36 91.8517Z" fill="white"/>
<path d="M61.2321 92.0716C62.2582 91.215 62.1905 89.4432 61.0807 88.114C59.971 86.7848 58.2398 86.4019 57.2137 87.2585C56.1876 88.1151 56.2553 89.8869 57.3651 91.2161C58.4748 92.5454 60.206 92.9283 61.2321 92.0716Z" fill="white"/>
<path d="M86.6449 92.2921C87.6709 91.4354 87.6032 89.6636 86.4935 88.3344C85.3838 87.0052 83.6522 86.6218 82.6261 87.4785C81.6 88.3351 81.6681 90.1074 82.7778 91.4366C83.8876 92.7658 85.6188 93.1487 86.6449 92.2921Z" fill="white"/>
<path d="M49.3509 113.634C50.377 112.777 50.3093 111.005 49.1996 109.676C48.0899 108.347 46.3586 107.964 45.3326 108.821C44.3065 109.677 44.3742 111.449 45.4839 112.778C46.5936 114.108 48.3249 114.491 49.3509 113.634Z" fill="white"/>
<path d="M74.5437 114.184C75.5698 113.328 75.5021 111.556 74.3924 110.227C73.2827 108.897 71.5514 108.514 70.5253 109.371C69.4993 110.228 69.5669 111.999 70.6767 113.329C71.7864 114.658 73.5177 115.041 74.5437 114.184Z" fill="white"/>
<path d="M61.8921 135.195C62.9182 134.339 62.8506 132.567 61.7408 131.238C60.6311 129.909 58.8998 129.526 57.8738 130.382C56.8477 131.239 56.9154 133.011 58.0251 134.34C59.1348 135.669 60.8661 136.052 61.8921 135.195Z" fill="white"/>
<path fill-rule="evenodd" clip-rule="evenodd" d="M55.8122 22.3798C55.8122 22.3798 57.2379 4.30635 73.7985 6.54067C73.7985 6.54067 83.0748 9.83122 91.777 3.65771C91.777 3.65771 97.1098 19.6056 80.9611 25.8469C80.9611 25.8469 73.6976 27.6702 65.5112 24.6205C65.5112 24.6205 59.3137 22.4871 55.6934 24.6412L55.8122 22.3798Z" fill="#333333"/>
</svg>
