<svg width="157" height="112" viewBox="0 0 157 112" fill="none" xmlns="http://www.w3.org/2000/svg">
<path fill-rule="evenodd" clip-rule="evenodd" d="M45.2275 0.0104416C41.2792 0.0884291 38.4078 1.88509 38.3487 1.92222C38.0705 2.08343 37.8027 2.26417 37.5552 2.4695C37.3 2.68122 36.0937 3.15349 34.9923 3.33566C33.8908 3.51783 32.9173 3.5333 32.95 3.53292C32.9333 3.53276 32.9167 3.53276 32.9 3.53292C26.8958 2.82412 22.7967 6.69071 22.6143 6.86407L22.8235 6.68461C1.23138 23.348 0.364199 47.0186 0.359491 47.1508C-2.90794 77.3449 17.1586 93.3028 17.7096 93.7321C36.9198 109.859 57.7114 106.187 59.8666 105.756C63.0992 105.526 65.6374 104.573 67.4292 103.402C68.9074 102.436 69.7018 101.455 70.0794 100.954C70.0819 100.951 70.0844 100.947 70.087 100.944C70.2104 100.822 70.3217 100.687 70.4192 100.543C70.4298 100.527 70.4116 100.543 70.4192 100.527C70.4196 100.527 70.4412 100.499 70.4412 100.499L70.4253 100.489C70.5532 100.203 70.1537 100.447 70.7323 100.394C71.1295 100.357 71.2559 100.401 71.2559 100.401L71.2012 100.385C71.3171 100.419 71.4349 100.451 71.5529 100.479C71.5574 100.479 71.5618 100.479 71.5664 100.479C75.1446 101.305 78.3255 100.341 80.4267 98.7888C81.7442 97.815 82.5329 96.7288 82.9258 96.1028L82.7226 96.3846C95.1977 81.2521 98.0196 65.6204 97.6313 53.885C97.4371 48.0172 96.4579 43.1085 95.5193 39.6363C95.0499 37.9001 94.5902 36.5224 94.2408 35.5636C94.066 35.0842 93.9192 34.7098 93.8122 34.4467C93.759 34.3152 93.7152 34.2118 93.6831 34.1368C93.6672 34.0996 93.6535 34.0684 93.6429 34.0448C93.6323 34.0213 93.6961 34.1557 93.6012 33.9544L93.6798 34.1382C82.6949 5.41226 56.1413 1.67212 56.1413 1.67212C56.1279 1.66949 56.1145 1.66695 56.1011 1.66452C55.983 1.65085 55.8652 1.64021 55.7466 1.63338C51.4377 1.39387 50.0203 0.932398 50.0557 0.943713C50.0371 0.938449 50.0183 0.933371 49.9996 0.928511C49.6834 0.834728 49.7993 0.87382 49.7993 0.87382C49.7885 0.871221 49.7776 0.868775 49.7667 0.866311C48.51 0.361329 47.2439 0.0604842 46.0381 0.0104416C45.7503 -0.00170835 45.4879 -0.000920793 45.2505 0.00135732C45.2422 0.00131854 45.2338 0.00131854 45.2255 0.00135732L45.2275 0.0104416Z" fill="white"/>
<path fill-rule="evenodd" clip-rule="evenodd" d="M45.93 2.71914C47.0993 2.76752 48.4107 3.04086 49.6656 3.72574L49.1387 3.49862C49.1387 3.49862 50.7781 4.07195 55.5998 4.33987C55.6635 4.34316 55.7272 4.34851 55.7906 4.35576C55.7906 4.35576 80.6601 7.64555 91.163 35.1113C91.2002 35.1904 104.694 65.5016 80.6428 94.6765C80.3368 95.1643 79.8166 95.8956 78.8259 96.6279C77.3849 97.6926 74.9257 98.4926 72.1758 97.858C72.113 97.8436 72.0505 97.8272 71.9887 97.8089C71.9887 97.8089 71.3623 97.6328 70.4897 97.7126C69.6171 97.7924 68.8959 97.9672 68.1731 99.0517L68.2203 98.9772C68.2203 98.9772 67.3602 100.23 65.9546 101.148C64.562 102.058 62.4516 102.891 59.6189 103.082C58.4523 103.324 38.0205 107.311 19.3879 91.6258C19.2102 91.4878 -0.172697 76.3608 3.05351 47.2867C3.05351 47.2867 3.76647 24.8059 24.4736 8.82547C24.5694 8.7343 28.2106 5.2616 33.3457 6.289L32.9496 6.23597C32.9496 6.23597 37.2984 6.19411 39.2799 4.54984C39.421 4.43238 39.5726 4.32788 39.7323 4.23743C39.7323 4.23743 42.4154 2.57315 45.93 2.71846V2.71914Z" fill="#333333"/>
<path fill-rule="evenodd" clip-rule="evenodd" d="M78.2294 92.7797C78.2294 92.7797 76.7367 95.7594 72.8639 94.8655C72.8639 94.8655 68.1958 93.475 65.6143 97.3487C65.6143 97.3487 64.1244 99.7324 59.3567 100.03C59.3567 100.03 39.4133 104.538 21.2934 89.2276C21.2934 89.2276 2.89094 75.3214 6.1218 47.3689C6.1218 47.3689 6.68418 26.2991 26.4898 11.1289C26.4898 11.1289 29.2293 8.60046 32.7402 9.30282C32.7402 9.30282 37.9374 9.65391 41.238 6.91489C41.238 6.91489 45.1011 4.73751 48.1915 6.42318C48.1915 6.42318 50.3696 7.12555 55.4266 7.40649C55.4266 7.40649 78.4263 10.1421 88.3589 36.3637C88.3589 36.3637 101.371 64.7703 78.2294 92.7797Z" fill="#907663"/>
<path d="M51.8599 28.8741C48.6596 29.6943 45.5916 28.5091 45.0069 26.2272C44.4221 23.9453 46.542 21.4307 49.7422 20.6106C52.9424 19.7905 56.0104 20.9756 56.5952 23.2575C57.18 25.5394 55.0601 28.054 51.8599 28.8741Z" fill="#333333"/>
<path d="M39.9572 22.12C36.7569 22.9401 33.6889 21.755 33.1042 19.4731C32.5194 17.1911 34.6393 14.6765 37.8395 13.8564C41.0397 13.0363 44.1077 14.2215 44.6925 16.5034C45.2773 18.7853 43.1574 21.2999 39.9572 22.12Z" fill="#333333"/>
<path d="M34.0931 33.9398C30.8929 34.7599 27.8249 33.5748 27.2401 31.2929C26.6554 29.011 28.7752 26.4964 31.9755 25.6763C35.1757 24.8561 38.2437 26.0413 38.8285 28.3232C39.4133 30.6051 37.2934 33.1197 34.0931 33.9398Z" fill="#333333"/>
<path fill-rule="evenodd" clip-rule="evenodd" d="M16.7817 65.3701C16.7817 65.3701 24.1514 91.274 53.1371 93.9876C15.9798 99.9342 16.7817 65.3701 16.7817 65.3701Z" fill="white"/>
<path d="M87.707 5.59259C81.9216 5.41423 75.7115 6.70934 70.4742 10.7094C69.7071 11.2649 47.8378 27.4641 49.3332 60.5724C49.3332 60.5751 49.3332 60.5778 49.3332 60.5804C49.3391 60.7464 49.3569 60.9113 49.3746 61.0761C49.3746 61.058 49.4611 62.2783 49.5954 63.7391C49.7296 65.2037 49.9385 67.1091 50.2864 69.2181C50.9805 73.4341 52.2645 78.7309 54.8501 84.2281C60.0403 95.2641 70.925 106.914 90.6937 111.026C90.4894 110.984 90.6937 111.026 90.7172 111.031C90.7408 111.036 90.7761 111.044 90.815 111.052C90.8974 111.068 91.0128 111.09 91.1588 111.117C91.4514 111.171 91.8695 111.244 92.4023 111.324C93.4673 111.485 94.9905 111.677 96.8844 111.814C100.672 112.089 105.942 112.147 111.989 111.285C124.082 109.561 139.375 104.071 151.57 89.3324V89.3289C151.692 89.181 151.807 89.0275 151.915 88.869C151.921 88.8594 151.927 88.8498 151.933 88.8402C151.933 88.8402 155.768 83.0453 156.752 73.9911C157.733 64.9575 156.063 52.3043 146.934 37.7619C146.928 37.7534 146.922 37.745 146.916 37.7366C146.893 37.6986 146.869 37.6613 146.842 37.6239L146.801 37.5629C146.684 37.3805 139.174 25.6715 129.995 19.2103C129.979 19.2086 129.963 19.207 129.948 19.2056C129.848 19.1362 129.545 18.8611 129.543 18.8606V18.8594C129.161 18.5972 128.744 18.3419 128.283 18.0856C127.359 17.573 126.177 17.0123 124.761 16.5758C122.969 16.0231 120.603 15.702 118.093 16.2527C113.22 13.0771 101.274 6.01106 87.696 5.59252L87.707 5.59259Z" fill="white"/>
<path d="M87.6203 8.55018C82.3212 8.38681 76.8378 9.55764 72.2446 13.0783C72.068 13.2058 50.8577 28.6104 52.2948 60.4381C52.2991 60.5257 52.307 60.6132 52.3183 60.7002C52.4055 61.3966 52.5488 64.7057 53.2129 68.7354C53.8764 72.765 55.1014 77.7915 57.5358 82.967C62.4021 93.3136 72.3959 104.193 91.3027 108.127C91.3498 108.136 125.993 115.616 149.301 87.441C149.366 87.3623 149.428 87.2806 149.486 87.1961C149.486 87.1961 152.914 82.0615 153.825 73.6705C154.737 65.2794 153.249 53.3653 144.442 39.335C144.422 39.304 144.402 39.2733 144.382 39.243C144.382 39.243 136.754 27.5751 128.308 21.6297L128.864 22.1218C128.321 21.52 128.185 21.5049 127.888 21.302C127.592 21.0991 127.255 20.8911 126.862 20.673C126.076 20.2367 125.079 19.7662 123.903 19.4036C122.192 18.8761 119.826 18.5905 117.608 19.4243C113.665 16.7836 100.999 8.96265 87.6209 8.55021L87.6203 8.55018Z" fill="#333333"/>
<path d="M74.2056 15.7391C74.2056 15.7391 54.2281 29.8191 55.6043 60.2889C56.1941 65.0068 56.0219 97.4179 91.996 104.888C91.996 104.888 124.628 112.063 146.743 85.3282C146.743 85.3282 158.538 68.0293 141.632 41.0979C141.632 41.0979 133.867 29.598 126.397 24.3395C125.955 23.848 120.556 20.4589 117.453 23.3074C117.453 23.3074 89.7355 3.74778 74.2056 15.7391Z" fill="#907663"/>
<path d="M87.5136 11.8631C82.7312 11.7156 78.087 12.7415 74.2046 15.7394C74.2046 15.7394 73.9876 15.9103 73.9227 15.9582C71.7448 18.5293 66.1525 25.5093 68.4055 35.0041C68.4055 35.4956 72.4353 37.1665 75.1874 45.128C75.1874 45.128 75.9686 48.7314 80.5558 51.0945C80.5558 51.0945 84.4475 52.3456 83.961 60.8248C83.961 60.8248 83.2661 67.0102 90.7721 69.7903C91.1197 70.1378 97.0967 70.1379 106.202 82.7177C106.202 82.7177 124.604 105.348 146.112 86.0507C146.321 85.806 146.535 85.5791 146.743 85.3285C146.743 85.3285 158.537 68.0295 141.631 41.0981C141.631 41.0981 133.866 29.5982 126.396 24.3397C125.954 23.8483 120.555 20.4591 117.452 23.3077C117.452 23.3077 101.861 12.3054 87.5136 11.8631Z" fill="#6E5E52"/>
<path d="M87.3571 17.0482C83.5092 16.9296 80.2844 17.694 77.5719 19.7106C75.6355 22.0291 72.3785 26.3611 73.1948 32.3802C73.6095 32.7542 74.0761 33.1975 74.5917 33.7599C76.3841 35.7153 78.4988 38.8199 80.0935 43.4337C80.1608 43.6287 80.2166 43.8275 80.2602 44.0292C80.2602 44.0292 80.1741 43.8847 80.5186 44.4207C80.8629 44.9566 81.4889 45.7383 82.9349 46.4831L82.1469 46.1559C82.1469 46.1559 83.2853 46.5791 84.132 47.1711C84.9787 47.7632 85.9387 48.6657 86.7649 49.9089C88.6762 53.9804 89.4379 57.9131 89.1194 61.4039C89.3043 63.4455 91.0805 64.355 92.675 64.9681C96.1501 66.0432 95.0449 65.5549 97.888 67.2267C101.23 69.245 105.447 72.8796 110.248 79.465C110.297 79.5242 114.259 84.2348 120.205 86.8822C126.148 89.5282 133.102 90.648 142.461 82.3511C142.497 82.3104 142.542 82.2578 142.57 82.227C142.863 81.7879 144.712 78.8385 145.373 72.7527C146.088 66.1704 145.138 56.4765 137.285 43.9325C137.137 43.7236 129.3 32.7255 123.414 28.5817C122.738 28.0723 121.384 26.8111 120.964 27.1295C119.165 28.7801 116.459 28.9537 114.465 27.5464C114.465 27.5464 99.172 17.4125 87.3571 17.0482Z" fill="#F5F8FA"/>
<path d="M87.1893 22.4527C84.4357 22.3678 82.7442 22.806 81.2653 23.7628C79.9382 25.4132 78.6267 27.4028 78.4956 30.0239C78.5258 30.0564 78.5467 30.0711 78.5771 30.1042V30.1046C80.8463 32.5801 83.3298 36.3094 85.158 41.5439C85.1112 41.523 85.0087 41.4691 85.3951 41.6667C85.4199 41.6793 85.3826 41.6599 85.4099 41.6745C85.9383 41.9333 86.5486 42.2622 87.2291 42.7381C88.6178 43.709 90.0398 45.0676 91.2671 46.9146V46.915C93.5013 50.2774 94.6508 54.6714 94.5803 59.9064C94.6013 59.9071 94.6228 59.9077 94.6438 59.9085C94.7142 59.9288 94.9705 59.9947 95.34 60.1153V60.1149C96.7552 60.5771 98.607 61.3436 100.682 62.5963C104.707 65.0276 109.364 69.1449 114.419 76.0202C114.174 75.7212 117.887 79.9304 122.402 81.9406C124.916 83.06 127.045 83.6252 129.422 83.3477C131.686 83.0833 134.512 82.0093 138.313 78.7719C138.73 77.9556 139.586 75.9206 139.994 72.1677C140.589 66.6869 139.986 58.5147 132.782 46.9462C132.505 46.582 124.81 36.5193 120.704 33.3421C117.605 34.335 114.12 33.9234 111.344 31.9644L111.474 32.0536C111.474 32.0536 107.939 29.713 102.972 27.296C98.0052 24.879 91.6229 22.5895 87.1877 22.4528L87.1893 22.4527Z" fill="#CBD6DD"/>
<path fill-rule="evenodd" clip-rule="evenodd" d="M64.5437 68.9309C64.5437 68.9309 71.9417 94.9339 101.038 97.6578C63.7391 103.627 64.5437 68.9309 64.5437 68.9309Z" fill="white"/>
</svg>
