<svg width="117" height="141" viewBox="0 0 117 141" fill="none" xmlns="http://www.w3.org/2000/svg">
<path fill-rule="evenodd" clip-rule="evenodd" d="M48.7734 0.0142569C47.0821 0.0920827 44.4845 0.40841 41.8322 2.1283C39.1798 3.84819 36.8478 7.29353 36.4433 11.5403C36.3535 12.4824 36.5333 13.4307 36.9618 14.2745C37.3903 15.1183 38.0499 15.8229 38.8635 16.3062C38.8635 16.3062 41.5238 18.0152 44.4362 21.8496C43.1606 21.8119 43.3137 21.7145 41.8136 21.7351C33.785 21.8451 22.892 22.7475 14.331 28.2609C13.2278 28.9714 12.4486 30.0877 12.1621 31.3683C11.8756 32.6489 12.1047 33.9908 12.8001 35.1036C12.8001 35.1036 13.7116 36.1949 14.5068 37.1032C13.2428 38.1108 12.0057 38.9656 10.7233 40.0879C10.716 40.095 10.7086 40.102 10.7014 40.1092C10.7014 40.1064 10.7013 40.1119 10.6877 40.1201C10.6832 40.1228 10.6786 40.1255 10.6741 40.1282C10.6577 40.1428 10.6374 40.1601 10.6102 40.1841C10.5502 40.2387 10.4693 40.312 10.3732 40.4025C10.1811 40.5833 9.92452 40.8332 9.6197 41.1506C9.01021 41.7855 8.20413 42.695 7.31396 43.8797C5.5336 46.2492 3.40951 49.7357 1.90371 54.3355C-1.05691 63.3785 -1.32348 76.6801 6.68294 93.0406C6.77108 93.3392 6.88696 93.6289 7.02907 93.9059C7.02907 93.9059 10.4568 100.541 15.7861 108.518C21.0984 116.469 28.2408 125.915 36.8041 132.14C36.66 132.027 37.186 132.441 37.7493 132.835C38.3774 133.274 39.2643 133.86 40.3745 134.515C42.5946 135.823 45.7117 137.408 49.5043 138.583C57.0925 140.934 67.9149 141.383 77.6578 134.166C78.4617 133.686 81.7232 131.595 86.8169 125.923C92.3159 119.8 99.8767 109.624 108.857 92.95C108.865 92.9341 108.872 92.9181 108.879 92.9021C108.879 92.9075 108.879 92.9116 108.879 92.8939C108.88 92.8925 108.879 92.883 108.879 92.8802C108.883 92.8749 108.888 92.8696 108.893 92.8643C108.893 92.8547 108.893 92.8534 108.912 92.8297C108.936 92.7803 108.959 92.7306 108.981 92.6805C108.981 92.6818 108.981 92.701 108.981 92.7018C108.943 92.7831 108.931 92.8053 108.92 92.827C108.958 92.7546 109.015 92.645 109.088 92.5074C109.231 92.2324 109.433 91.8368 109.679 91.336C110.171 90.3342 110.841 88.9107 111.577 87.1558C113.049 83.646 114.794 78.8236 115.906 73.3825C117.017 67.9446 117.544 61.812 116.207 55.6608C114.864 49.4778 111.407 43.2906 105.219 38.9454C103.97 38.0689 102.442 37.1043 101.092 36.1818C101.323 35.8507 102.016 35.1008 102.016 35.1008C102.71 33.9878 102.939 32.6463 102.652 31.3663C102.365 30.0863 101.585 28.9707 100.482 28.2607C92.8728 23.3598 83.4188 22.1508 75.7741 21.8148C70.025 21.5621 66.1059 21.863 64.0563 22.0544C62.7648 15.3312 60.6933 10.4151 58.6141 7.09103C56.0172 2.9395 52.9669 0.820783 52.9669 0.820783C52.3278 0.412053 51.6038 0.154363 50.8502 0.067289C50.8502 0.067289 49.8939 -0.036932 48.7708 0.0140385L48.7734 0.0142569Z" fill="white"/>
<path fill-rule="evenodd" clip-rule="evenodd" d="M72.2603 26.9685L72.6696 29.1189C74.3861 27.7908 70.0324 30.9976 71.8326 29.734C73.6327 28.4704 69.0813 31.5124 70.9609 30.3167C72.8404 29.121 68.1021 31.9892 70.0568 30.8647C72.0113 29.7401 67.0954 32.426 69.1203 31.3757C71.1453 30.3252 66.0655 32.8231 68.1561 31.8497C70.2466 30.8764 65.013 33.1803 67.1641 32.2867C69.3151 31.3931 63.9426 33.4958 66.149 32.6844C68.3553 31.873 62.8523 33.7698 65.1085 33.0428C67.3646 32.3157 61.7512 34.0003 64.0518 33.3596C66.3523 32.719 60.6351 34.1896 62.9743 33.6371C65.3137 33.0846 59.5107 34.3358 61.8829 33.8729C64.2551 33.41 58.3806 34.4369 60.78 34.0648C63.1793 33.6929 57.2472 34.4952 59.6678 34.2151C62.0882 33.935 56.1106 34.5113 58.5463 34.3241C60.982 34.1366 54.9731 34.483 57.418 34.3891C59.8627 34.2944 53.8418 34.4128 56.2896 34.4128C58.7582 34.4128 52.7626 34.3003 55.2282 34.3914C57.694 34.4838 51.7117 34.1537 54.1692 34.3336C56.6266 34.5138 50.6712 33.9684 53.1148 34.2365C55.5586 34.5046 49.6427 33.747 52.0674 34.1024C54.4921 34.4577 48.6264 33.4895 51.0269 33.9313C53.4273 34.373 47.6271 33.1938 49.9979 33.7209C52.3689 34.2481 46.6443 32.8646 48.9805 33.4758C51.3167 34.0869 45.6828 32.4999 47.9793 33.1937C50.2757 33.8874 44.7404 32.0999 46.992 32.8746C49.2436 33.6493 43.8234 31.6668 46.0255 32.5205C48.2273 33.3743 42.9322 31.2016 45.0797 32.1324C47.2274 33.0631 42.0662 30.706 44.1548 31.7115C46.2434 32.717 41.2302 30.1756 43.2554 31.2534C45.2806 32.3313 40.4239 29.6183 42.3813 30.7658C44.3389 31.9135 39.6516 29.0333 41.5374 30.2479C43.423 31.4624 38.9111 28.419 40.7211 29.6976L41.0425 27.5287C32.5678 30.3369 23.5584 35.4935 14.0145 43.8463C14.0145 43.8463 9.27076 47.9089 6.65925 55.8862C4.04655 63.8667 3.5311 75.8338 11.4734 91.599C11.4733 91.603 11.4733 91.6069 11.4734 91.6109C11.4734 91.6109 14.7779 98.0032 19.9478 105.741C25.1139 113.473 32.1267 122.575 39.7824 128.128C39.8226 128.16 44.3661 131.759 50.9919 133.812C57.6314 135.869 66.5331 136.337 74.8686 130.061C74.9894 129.993 78.0319 128.24 83.1118 122.584C88.2926 116.815 95.6424 106.972 104.47 90.5819V90.5701C104.482 90.5582 108.981 82.3709 111.023 72.3772C112.045 67.3769 112.462 61.902 111.335 56.714C110.208 51.5259 107.483 46.6208 102.359 43.0231C94.1264 37.2427 84.1018 30.3897 72.2557 26.9622L72.2603 26.9685Z" fill="#333333"/>
<path fill-rule="evenodd" clip-rule="evenodd" d="M56.0279 29.01V29.0219C52.6203 28.9946 49.5639 30.1852 42.7694 32.7631C35.0948 35.3063 26.7275 40.0396 17.6259 48.0078L17.5939 48.035C17.5939 48.035 16.658 48.81 15.5174 50.3611C14.3756 51.9139 12.9751 54.2894 11.8895 57.6054C9.72444 64.2192 9.0086 74.3756 16.3221 88.9735C16.3232 88.9735 16.3221 88.9733 16.3221 88.9854C16.3399 89.0404 16.3626 89.0939 16.3897 89.1449C16.3661 89.0999 16.6044 89.5579 16.9817 90.2525C17.3589 90.9471 17.9082 91.9421 18.6118 93.1659C20.0191 95.6136 22.0404 98.976 24.522 102.69C29.5209 110.172 36.3883 118.883 43.0246 123.692C43.0286 123.692 43.0326 123.692 43.0365 123.692C43.0767 123.721 43.1241 123.758 43.1799 123.801C43.1799 123.801 47.0303 126.824 52.6182 128.555C58.174 130.277 64.8597 130.742 71.5995 125.64C71.7635 125.515 71.9371 125.404 72.1175 125.304L72.062 125.331C72.062 125.331 72.689 125.017 73.7985 124.094C74.9081 123.171 76.5991 121.59 79.0077 118.908C83.839 113.529 90.9612 104.049 99.6218 87.9677L99.6383 87.9405V87.9287C99.6501 87.9168 103.78 80.3006 105.622 71.2873C106.545 66.7725 106.845 62.0233 105.948 57.8971C105.06 53.8064 103.137 50.3169 99.1897 47.5451C91.0041 41.7977 81.4784 35.3811 70.7189 32.268C70.7098 32.2639 70.7008 32.2599 70.6917 32.2561C62.8947 30.2547 59.4439 29.0416 56.0273 29.0143L56.0279 29.01Z" fill="#D35F5F"/>
<path fill-rule="evenodd" clip-rule="evenodd" d="M41.8828 26.7269C34.2772 26.8311 24.0514 27.9379 17.0353 32.4567C17.0353 32.4567 19.148 35.8395 22.7419 35.8395C22.7419 35.8395 19.7819 43.4508 22.3188 52.9641C22.3188 52.9641 37.3297 54.0215 45.7859 43.0283C45.7859 43.0283 45.5755 54.2328 57.4142 60.5749C69.8872 53.5986 69.0403 43.0283 69.0403 43.0283C77.4965 54.0215 92.5074 52.9641 92.5074 52.9641C95.0443 43.4508 92.0842 35.8395 92.0842 35.8395C95.6781 35.8395 97.7909 32.4567 97.7909 32.4567C85.3179 24.4233 62.6978 27.1709 62.6978 27.1709C59.0873 27.8328 57.4142 28.9767 57.4142 28.9767C57.4142 28.9767 55.7389 27.8328 52.1284 27.1709C52.1284 27.1709 47.7983 26.6459 41.8828 26.7269Z" fill="#333333"/>
<path fill-rule="evenodd" clip-rule="evenodd" d="M60.2208 30.8972C58.8989 10.5024 50.2876 5.02562 50.2876 5.02562C50.2876 5.02562 42.1672 4.0816 41.4117 12.013C41.4117 12.013 51.0087 17.6937 54.9743 32.2346C54.9743 32.2346 59.2454 36.0995 59.4341 32.5114C59.623 28.9235 60.2208 30.8972 60.2208 30.8972Z" fill="#333333"/>
<path d="M68.9473 75.7414C70.9287 75.7414 72.5351 72.7965 72.5351 69.1639C72.5351 65.5313 70.9287 62.5864 68.9473 62.5864C66.9659 62.5864 65.3596 65.5313 65.3596 69.1639C65.3596 72.7965 66.9659 75.7414 68.9473 75.7414Z" fill="#333333"/>
<path d="M58.2838 97.8652C60.2652 97.8652 61.8716 94.9203 61.8716 91.2877C61.8716 87.6551 60.2652 84.7102 58.2838 84.7102C56.3024 84.7102 54.696 87.6551 54.696 91.2877C54.696 94.9203 56.3024 97.8652 58.2838 97.8652Z" fill="#333333"/>
<path d="M68.9473 118.793C70.9287 118.793 72.5351 115.849 72.5351 112.216C72.5351 108.583 70.9287 105.638 68.9473 105.638C66.9659 105.638 65.3596 108.583 65.3596 112.216C65.3596 115.849 66.9659 118.793 68.9473 118.793Z" fill="#333333"/>
<path d="M79.6109 97.8652C81.5923 97.8652 83.1986 94.9203 83.1986 91.2877C83.1986 87.6551 81.5923 84.7102 79.6109 84.7102C77.6295 84.7102 76.0231 87.6551 76.0231 91.2877C76.0231 94.9203 77.6295 97.8652 79.6109 97.8652Z" fill="#333333"/>
<path d="M90.2743 75.7414C92.2558 75.7414 93.8621 72.7965 93.8621 69.1639C93.8621 65.5313 92.2558 62.5864 90.2743 62.5864C88.2929 62.5864 86.6866 65.5313 86.6866 69.1639C86.6866 72.7965 88.2929 75.7414 90.2743 75.7414Z" fill="#333333"/>
<path d="M47.62 75.7414C49.6014 75.7414 51.2077 72.7965 51.2077 69.1639C51.2077 65.5313 49.6014 62.5864 47.62 62.5864C45.6386 62.5864 44.0322 65.5313 44.0322 69.1639C44.0322 72.7965 45.6386 75.7414 47.62 75.7414Z" fill="#333333"/>
<path d="M26.2927 75.7414C28.2741 75.7414 29.8805 72.7965 29.8805 69.1639C29.8805 65.5313 28.2741 62.5864 26.2927 62.5864C24.3113 62.5864 22.705 65.5313 22.705 69.1639C22.705 72.7965 24.3113 75.7414 26.2927 75.7414Z" fill="#333333"/>
<path d="M36.9568 97.8652C38.9382 97.8652 40.5445 94.9203 40.5445 91.2877C40.5445 87.6551 38.9382 84.7102 36.9568 84.7102C34.9754 84.7102 33.369 87.6551 33.369 91.2877C33.369 94.9203 34.9754 97.8652 36.9568 97.8652Z" fill="#333333"/>
<path d="M47.62 118.793C49.6014 118.793 51.2077 115.849 51.2077 112.216C51.2077 108.583 49.6014 105.638 47.62 105.638C45.6386 105.638 44.0322 108.583 44.0322 112.216C44.0322 115.849 45.6386 118.793 47.62 118.793Z" fill="#333333"/>
</svg>
