<svg width="14" height="14" viewBox="0 0 14 14" fill="none" xmlns="http://www.w3.org/2000/svg">
  <path fill-rule="evenodd" clip-rule="evenodd" d="M7 14C10.866 14 14 10.866 14 7C14 3.13401 10.866 0 7 0C3.13401 0 0 3.13401 0 7C0 10.866 3.13401 14 7 14ZM9.86387 2.85496C10.4513 3.08152 10.9153 3.54531 11.1432 4.13185C11.2734 4.47533 11.3415 4.83967 11.3478 5.20741C11.375 5.67168 11.375 5.82208 11.375 7.00728C11.375 8.19248 11.3687 8.34044 11.3478 8.80715C11.3405 9.17004 11.272 9.52807 11.1442 9.86767C10.9163 10.4542 10.4523 10.9175 9.86484 11.145C9.52471 11.2722 9.16564 11.341 8.80267 11.3483C8.33864 11.375 8.18656 11.375 7 11.375C5.81344 11.375 5.66525 11.3687 5.19733 11.3483C4.83291 11.3367 4.47383 11.262 4.13565 11.13C3.54771 10.903 3.08369 10.4392 2.8558 9.85311C2.72801 9.51303 2.6595 9.155 2.65221 8.79211C2.625 8.32783 2.625 8.17695 2.625 6.99224C2.625 5.80704 2.63132 5.65907 2.65221 5.19237C2.6595 4.82948 2.72801 4.47145 2.8558 4.13185C3.0832 3.54531 3.54723 3.08152 4.13516 2.85496C4.4748 2.72688 4.83388 2.65847 5.19636 2.6512C5.66039 2.625 5.81247 2.625 6.99903 2.625C8.18559 2.625 8.33378 2.63082 8.8017 2.6512C9.16515 2.65896 9.52423 2.72736 9.86387 2.85496ZM10.4003 9.57513C10.4975 9.31267 10.548 9.03565 10.5514 8.75621V8.7567H10.5568C10.5776 8.2929 10.5776 8.16579 10.5776 6.98399C10.5776 5.8017 10.5723 5.67217 10.5514 5.2108C10.547 4.93427 10.4955 4.66017 10.4003 4.4011C10.2521 4.01929 9.95036 3.71754 9.56844 3.57054C9.30849 3.474 9.03444 3.42306 8.757 3.41966C8.28714 3.39298 8.16566 3.39298 6.98154 3.39298C5.79741 3.39298 5.66768 3.3988 5.20559 3.41966C4.92912 3.42354 4.6541 3.47448 4.39463 3.57054C4.01126 3.71705 3.70757 4.01832 3.55938 4.4011C3.4622 4.66356 3.41166 4.94009 3.40826 5.21953C3.38251 5.68964 3.38251 5.81044 3.38251 6.99272C3.38251 8.17453 3.38737 8.30454 3.40826 8.76543C3.41264 9.04196 3.46414 9.31606 3.55938 9.57513C3.70757 9.95742 4.01126 10.2592 4.39463 10.4052C4.6541 10.5017 4.92912 10.5527 5.20559 10.5561C5.67594 10.5828 5.79692 10.5828 6.98154 10.5828C8.16518 10.5828 8.2954 10.5774 8.757 10.5561C9.03444 10.5522 9.30849 10.5017 9.56844 10.4052C9.95036 10.2587 10.2521 9.95693 10.4003 9.57513ZM9.36979 5.17708C9.67182 5.17708 9.91667 4.93224 9.91667 4.63021C9.91667 4.32818 9.67182 4.08333 9.36979 4.08333C9.06776 4.08333 8.82292 4.32818 8.82292 4.63021C8.82292 4.93224 9.06776 5.17708 9.36979 5.17708ZM7 4.8125C5.7915 4.8125 4.8125 5.79187 4.8125 6.99976C4.8125 8.20813 5.7915 9.1875 7 9.1875C8.20755 9.1875 9.1875 8.20813 9.1875 6.99976C9.1875 5.79187 8.20755 4.8125 7 4.8125ZM7 8.42104C6.215 8.42104 5.57857 7.78468 5.57857 7.00024C5.57857 6.21532 6.215 5.57944 7 5.57944C7.785 5.57944 8.42048 6.21532 8.42048 7.00024C8.42048 7.78468 7.785 8.42104 7 8.42104Z" fill="#5E5873"/>
</svg>
