<svg width="14" height="14" viewBox="0 0 14 14" fill="none" xmlns="http://www.w3.org/2000/svg">
  <path fill-rule="evenodd" clip-rule="evenodd" d="M7 14C10.866 14 14 10.866 14 7C14 3.13401 10.866 0 7 0C3.13401 0 0 3.13401 0 7C0 10.866 3.13401 14 7 14ZM2.625 7C2.625 4.585 4.58063 2.625 6.99563 2.625C9.415 2.625 11.375 4.585 11.375 7C11.375 9.415 9.415 11.375 6.99563 11.375C4.58063 11.375 2.625 9.415 2.625 7ZM8.73688 5.25H10.0275C9.6075 4.52812 8.93812 3.96813 8.13313 3.6925C8.39563 4.17812 8.59688 4.70312 8.73688 5.25ZM7.83562 5.25C7.6475 4.62437 7.36312 4.0425 7 3.5175C6.63688 4.0425 6.3525 4.62437 6.16438 5.25H7.83562ZM3.5 7C3.5 7.30188 3.54375 7.595 3.61375 7.875H5.0925C5.0575 7.58625 5.03125 7.2975 5.03125 7C5.03125 6.7025 5.0575 6.41375 5.0925 6.125H3.61375C3.54375 6.405 3.5 6.69812 3.5 7ZM5.26312 8.75H3.9725C4.3925 9.47625 5.06187 10.0319 5.86687 10.3075C5.60437 9.82187 5.40312 9.29688 5.26312 8.75ZM3.9725 5.25H5.26312C5.40312 4.70312 5.60437 4.17812 5.86687 3.6925C5.06187 3.96813 4.3925 4.52375 3.9725 5.25ZM6.16438 8.75C6.3525 9.37562 6.63688 9.9575 7 10.4825C7.36312 9.9575 7.6475 9.37562 7.83562 8.75H6.16438ZM5.90625 7C5.90625 7.2975 5.93687 7.58625 5.97625 7.875H8.02375C8.06312 7.58625 8.09375 7.2975 8.09375 7C8.09375 6.7025 8.06312 6.40938 8.02375 6.125H5.97625C5.93687 6.40938 5.90625 6.7025 5.90625 7ZM8.73688 8.75C8.59688 9.29688 8.39563 9.82187 8.13313 10.3075C8.93812 10.0319 9.6075 9.47188 10.0275 8.75H8.73688ZM8.96875 7C8.96875 7.2975 8.9425 7.58625 8.9075 7.875H10.3862C10.4563 7.595 10.5 7.30188 10.5 7C10.5 6.69812 10.4563 6.405 10.3862 6.125H8.9075C8.9425 6.41375 8.96875 6.7025 8.96875 7Z" fill="#5E5873"/>
</svg>
