<svg width="198" height="226" viewBox="0 0 198 226" fill="none" xmlns="http://www.w3.org/2000/svg">
<g clip-path="url(#clip0_4897_24890)">
<path fill-rule="evenodd" clip-rule="evenodd" d="M154.688 85.7623C154.688 85.7623 170.722 53.7103 180.345 42.6163C180.345 42.6163 181.518 41.504 181.948 42.6163C181.948 42.6163 182.443 43.5403 181.641 44.894C181.641 44.894 165.118 68.2473 157.705 86.3803C157.705 86.3803 157.18 88.0341 155.96 87.7751C155.96 87.7751 154.116 87.4043 154.688 85.7564V85.7623Z" fill="#666666"/>
<path d="M155.188 84.391L158.6 85.5622C159.814 85.98 160.463 87.2984 160.044 88.5108L156.856 97.7921C156.438 99.0045 155.118 99.6519 153.904 99.234L150.492 98.0628C149.278 97.6449 148.63 96.3266 149.048 95.1142L152.236 85.8329C152.654 84.6205 153.974 83.9731 155.188 84.391Z" fill="#505050"/>
<path fill-rule="evenodd" clip-rule="evenodd" d="M149.785 113.171C149.785 113.171 158.294 113.353 161.995 116.066C161.995 116.066 164.152 117.055 164.093 120.563C164.093 120.563 163.026 128.626 161.329 135.27C161.329 135.27 158.978 141.274 159.59 156.558C159.59 156.558 160.946 162.349 157.864 165.928C157.864 165.928 154.287 170.365 146.143 167.281C146.143 167.281 135.907 162.967 137.757 135.229C140.716 112.918 149.785 113.165 149.785 113.165V113.171Z" fill="#505050"/>
<path fill-rule="evenodd" clip-rule="evenodd" d="M160.427 115.148C158.365 118.544 155.907 124.494 155.124 135.571C155.124 135.571 153.179 151.291 156.844 166.763C157.51 166.292 157.834 165.892 157.834 165.892C160.916 162.32 159.561 156.523 159.561 156.523C158.818 148.389 161.299 135.235 161.299 135.235C163.745 128.961 164.063 120.527 164.063 120.527C164.122 117.014 161.965 116.025 161.965 116.025C161.511 115.696 160.987 115.401 160.421 115.142L160.427 115.148Z" fill="#666666"/>
<path fill-rule="evenodd" clip-rule="evenodd" d="M127.904 193.877C127.904 193.877 140.609 194.495 148.135 187.963C148.135 187.963 151.588 185.249 152.083 182.536C152.083 182.536 152.637 180.317 152.142 172.984C152.142 172.984 148.748 129.038 159.113 103.772C159.113 103.772 161.087 98.5925 158.742 93.0484C158.742 93.0484 154.546 87.1336 143.32 89.476C143.32 89.476 131.352 93.9136 128.394 104.76C128.394 104.76 120.462 151.185 123.95 181.865C123.95 181.865 124.263 190.299 127.899 193.883L127.904 193.877Z" fill="#505050"/>
<path fill-rule="evenodd" clip-rule="evenodd" d="M129.761 191.111C129.761 191.111 140.492 190.988 147.522 183.96C147.522 183.96 150.238 181.742 149.867 175.209C149.867 175.209 145.895 132.069 155.318 106.967C155.318 106.967 157.764 100.635 156.037 95.332C156.037 95.332 153.88 90.6472 147.463 92.1244C147.463 92.1244 142.837 92.9896 139.567 101.123C139.567 101.123 133.214 117.026 133.338 142.539C133.338 142.539 133.461 163.738 132.595 170.889C132.595 170.889 132.348 174.338 130.745 177.298C130.745 177.298 128.895 184.325 129.761 191.105V191.111Z" fill="#666666"/>
<path fill-rule="evenodd" clip-rule="evenodd" d="M106.979 200.54C106.979 200.54 118.576 201.77 123.632 200.045C123.632 200.045 128.529 199.539 128.423 193.96C128.423 193.96 124.375 141.374 136.461 107.844C136.461 107.844 117.71 100.941 100.438 115.731C99.9429 117.208 76.507 167.505 106.979 200.54Z" fill="#505050"/>
<path fill-rule="evenodd" clip-rule="evenodd" d="M131.428 117.761C131.428 117.761 119.289 129.656 121.033 164.521C121.033 164.521 122.778 181.43 122.601 187.533C122.601 187.533 122.424 191.806 120.945 194.766L126.089 193.63C126.089 193.63 123.497 154.333 131.423 117.761H131.428Z" fill="#666666"/>
<path fill-rule="evenodd" clip-rule="evenodd" d="M57.3434 200.322C57.3434 200.322 56.4713 201.458 56.9957 203.635C56.9957 203.635 57.1725 205.377 59.0877 206.861C59.0877 206.861 60.6552 208.691 65.4579 209.303C65.4579 209.303 86.9138 211.392 99.7366 207.649C99.7366 207.649 110.367 204.2 113.113 198.656C113.113 198.656 114.304 195.043 112.601 194.748C112.601 194.748 68.9405 195.619 57.3434 200.328V200.322Z" fill="#596673"/>
<path fill-rule="evenodd" clip-rule="evenodd" d="M109.666 200.087C72.1051 214.4 58.4219 203.63 58.4219 203.63C58.4219 203.63 58.5397 205.277 60.6022 207.738C61.5333 208.32 63.2069 209.079 66.0001 209.433C66.0001 209.433 87.456 211.522 100.279 207.779C100.279 207.779 101.77 207.414 103.797 206.396C108.552 202.923 109.666 200.087 109.666 200.087Z" fill="#8496AA"/>
<path fill-rule="evenodd" clip-rule="evenodd" d="M54.7505 136.418C54.7505 136.418 37.1368 174.208 57.202 198.091C57.202 198.091 55.3752 200.816 58.5161 202.07C58.5161 202.07 76.9607 209.744 104.533 199.28C104.533 199.28 111.888 195.602 113.714 193.771C113.714 193.771 119.908 188.021 114.498 180.088C114.498 180.088 101.463 155.057 117.38 127.814C117.38 127.814 113.938 126.831 112.719 122.187C112.719 122.187 108.004 102.542 86.4128 106.732C65.5639 110.922 54.7446 136.412 54.7446 136.412L54.7505 136.418Z" fill="white"/>
<path fill-rule="evenodd" clip-rule="evenodd" d="M52.918 135.6C34.4144 136.465 20.8549 128.32 20.8549 128.32C20.8549 128.32 18.9928 127.961 18.5037 129.562C18.5037 129.562 14.0605 135.476 13.8188 144.104C13.8188 144.104 14.2313 159 19.8119 165.274C19.8119 165.274 21.6446 167.887 24.6971 167.717C24.6971 167.717 29.0578 180.618 39.0049 175.65C39.0049 175.65 41.9455 182.077 47.4376 181.212C47.4376 181.212 42.8588 158.4 52.9297 135.6H52.918Z" fill="#CCCCCC"/>
<path fill-rule="evenodd" clip-rule="evenodd" d="M17.9379 127.09C17.9379 126.742 16.6709 119.639 13.7952 116.149C13.7952 116.149 12.0096 114.012 9.60536 115.366C9.60536 115.366 7.5134 116.543 8.55643 120.333C8.55643 120.333 9.99429 126.083 10.1711 126.566C10.1711 126.566 6.33483 121.293 5.10911 117.238C5.10911 117.238 4.27822 114.842 1.92697 115.625C1.92697 115.625 -0.518567 116.455 0.0942898 121.375C0.0942898 121.375 0.748397 126.213 3.10554 129.002C3.10554 129.002 1.05483 129.179 0.748397 130.921C0.748397 130.921 0.00589697 134.188 2.79911 136.889C2.79911 136.889 6.98893 141.686 13.4829 144.034C13.4829 144.034 16.4057 145.123 18.3268 137.148C18.8925 133.269 17.932 127.078 17.932 127.078L17.9379 127.09Z" fill="#CCCCCC"/>
<path fill-rule="evenodd" clip-rule="evenodd" d="M14.3786 146.353C14.7263 137.678 19.8177 130.256 19.8177 130.256C20.6781 129.103 21.1731 128.502 21.1731 128.502C21.6504 126.325 19.8766 126.089 19.8766 126.089C17.8731 125.654 16.724 127.06 16.724 127.06C16.724 127.06 11.5029 131.845 12.4634 143.74C12.4634 143.74 12.4634 145.658 13.2059 146.488C13.2059 146.488 14.1665 146.965 14.3845 146.359L14.3786 146.353Z" fill="#596673"/>
<path fill-rule="evenodd" clip-rule="evenodd" d="M91.0801 106.673C89.3593 106.673 87.4913 106.856 85.4642 107.25C64.6152 111.44 53.796 136.936 53.796 136.936C53.796 136.936 37.0485 174.414 57.1077 198.297C57.1077 198.297 55.7111 200.652 57.8031 201.782C57.8031 201.782 64.9099 206.743 82.0227 204.548C75.8235 203.906 63.366 204.924 58.4395 199.698L58.6222 197.173L57.3611 195.678C46.589 174.297 55.6286 155.652 55.6286 155.652C80.7263 155.416 100.185 143.804 109.531 138.154C110.597 135.141 112 132.063 113.821 128.944C113.821 128.944 110.862 128.02 110.862 123.029C110.862 123.029 107.721 106.626 91.0683 106.673H91.0801Z" fill="#CCCCCC"/>
<path fill-rule="evenodd" clip-rule="evenodd" d="M53.2774 188.057C53.0181 188.145 51.5743 188.363 51.2738 189.234C51.2738 189.234 49.9243 191.676 51.6215 195.725C51.6215 195.725 53.0593 198.951 55.11 199.257C55.11 199.257 57.8561 199.998 59.2999 198.209C59.2999 198.209 59.6947 197.209 59.4766 196.073C59.4766 196.073 62.2227 196.549 65.67 196.202L67.155 197.991C67.155 197.991 67.9859 198.862 69.2941 198.909C69.2941 198.909 73.4368 199.304 76.619 197.256C76.619 197.256 77.2731 196.296 77.2731 195.861C77.2731 195.861 85.034 195.684 86.737 194.642L89.047 197.126C89.047 197.126 89.7011 197.691 90.532 197.473C90.532 197.473 94.0206 196.779 94.7631 195.207C94.7631 195.207 95.0695 194.684 94.9399 193.989L94.545 192.553C94.545 192.553 101.393 190.546 103.532 189.24C103.532 189.24 104.097 190.564 105.117 190.593C105.117 190.593 106.967 190.499 108.971 188.957C108.971 188.957 109.837 188.375 109.248 187.139C109.248 187.139 114.987 184.284 115.812 182.842C115.812 182.842 115.506 181.082 114.416 180.123C114.416 180.123 115.058 179.935 114.127 180.688C114.127 180.688 109.419 182.695 108.193 182.648C108.193 182.648 107.179 180.541 106.961 180.447C106.961 180.447 105.606 179.058 103.013 180.17C103.013 180.17 101.316 181.124 101.316 181.712C101.316 181.712 101.163 183.531 101.811 185.043C101.811 185.043 92.8832 188.145 92.1879 188.186C92.1879 188.186 91.7106 187.05 91.0093 186.88C91.0093 186.88 89.7424 186.315 88.4813 186.838L85.8943 187.933C85.8943 187.933 84.4682 189.022 85.034 189.934C85.034 189.934 76.2654 191.152 75.2224 190.805C75.2224 190.805 73.3779 187.88 73.1657 187.786C73.1657 187.786 72.0225 186.062 69.524 186.244C69.524 186.244 62.8532 186.897 62.1225 187.168C62.1225 187.168 60.9263 187.633 60.6434 188.863C60.6434 188.863 60.337 189.234 60.7024 189.758L61.4449 190.958L57.9916 190.929C57.9622 190.746 57.4082 189.234 56.76 188.957C56.76 188.957 55.275 187.715 53.2891 188.057H53.2774Z" fill="#8F8F8F"/>
<path fill-rule="evenodd" clip-rule="evenodd" d="M57.3789 137.56C57.3789 137.56 44.0905 159.907 51.156 188.233C51.156 188.233 36.9071 172.802 48.8755 137.913C48.8755 137.913 51.8455 134.235 55.9764 135.341C55.9764 135.341 58.1567 135.041 57.3789 137.554V137.56Z" fill="#596673"/>
<path d="M83.1776 141.077C102.403 138.036 116.722 127.58 115.159 117.724C113.596 107.869 96.7431 102.344 77.5174 105.385C58.2917 108.427 43.9732 118.882 45.5362 128.738C47.0992 138.594 63.9518 144.118 83.1776 141.077Z" fill="#888888"/>
<path fill-rule="evenodd" clip-rule="evenodd" d="M171.246 122.729C171.246 122.729 176.921 115.643 183.15 112.376C183.15 112.376 188.395 109.416 190.675 113.606C190.675 113.606 192.343 117.302 190.245 119.397C190.245 119.397 195.118 118.473 196.662 121.557C196.662 121.557 198.33 124.206 196.969 126.613C196.969 126.613 196.291 128.402 194.623 129.632C194.623 129.632 198.448 129.203 197.953 132.404C197.953 132.404 197.829 136.412 192.526 138.69C192.526 138.69 185.307 141.279 178.277 141.279C178.277 141.279 168.777 136.659 171.246 122.729Z" fill="#CCCCCC"/>
<path fill-rule="evenodd" clip-rule="evenodd" d="M52.5644 188.781C52.3051 188.869 50.8613 189.087 50.5549 189.958C50.5549 189.958 49.2054 192.4 50.9026 196.449C50.9026 196.449 52.3404 199.675 54.3912 199.981C54.3912 199.981 57.1372 200.722 58.581 198.933C58.581 198.933 58.9758 197.932 58.7578 196.797C58.7578 196.797 61.5038 197.273 64.9512 196.926L66.4362 198.715C66.4362 198.715 67.2671 199.586 68.5753 199.633C68.5753 199.633 72.7179 200.028 75.9001 197.98C75.9001 197.98 76.5542 197.02 76.5542 196.585C76.5542 196.585 84.3151 196.408 86.0181 195.366L88.3281 197.85C88.3281 197.85 88.9822 198.415 89.8131 198.197C89.8131 198.197 93.3017 197.503 94.0442 195.931C94.0442 195.931 94.3506 195.408 94.221 194.713L93.8262 193.277C93.8262 193.277 100.674 191.27 102.813 189.964C102.813 189.964 103.378 191.288 104.398 191.317C104.398 191.317 106.248 191.223 108.252 189.681C108.252 189.681 109.118 189.093 108.529 187.862C108.529 187.862 115.282 184.731 116.113 183.29C116.113 183.29 116.113 181.806 115.023 180.847C115.023 180.847 114.339 180.659 113.408 181.412C113.408 181.412 108.7 183.419 107.474 183.372C107.474 183.372 106.46 181.265 106.242 181.171C106.242 181.171 104.887 179.782 102.294 180.894C102.294 180.894 100.597 181.848 100.597 182.436C100.597 182.436 100.444 184.255 101.092 185.767C101.092 185.767 92.1644 188.869 91.469 188.91C91.469 188.91 90.9917 187.774 90.2904 187.604C90.2904 187.604 89.0235 187.039 87.7624 187.562L85.1754 188.657C85.1754 188.657 83.7494 189.746 84.321 190.658C84.321 190.658 75.5524 191.876 74.5094 191.529C74.5094 191.529 72.6649 188.604 72.4528 188.51C72.4528 188.51 71.3096 186.785 68.811 186.968C68.811 186.968 62.1403 187.621 61.4096 187.892C61.4096 187.892 60.2133 188.357 59.9304 189.587C59.9304 189.587 59.624 189.958 59.9894 190.481L60.7319 191.682L57.2787 191.653C57.2492 191.47 56.6953 189.958 56.0471 189.681C56.0471 189.681 54.5621 188.439 52.5762 188.781H52.5644Z" fill="#6F7F90"/>
<path fill-rule="evenodd" clip-rule="evenodd" d="M120.167 178.605C133.862 186.02 142.867 177.11 142.867 177.11C164.641 176.863 166.68 158.406 166.68 158.406C173.397 156.423 177.075 148.018 177.075 148.018C178.495 145.588 176.668 143.139 176.668 143.139L175.23 141.48C169.561 136.189 167.64 126.76 167.64 126.76C167.204 122.528 164.588 122.882 164.588 122.882C160.922 122.882 155.165 125.436 155.165 125.436C141.47 131.08 120.108 131.233 120.108 131.233C120.108 131.233 112.89 140.767 113.508 156.105C113.508 156.105 114.492 172.808 120.167 178.605Z" fill="#CCCCCC"/>
<path fill-rule="evenodd" clip-rule="evenodd" d="M104.569 154.569L100.049 153.762L100.155 156.882C91.4219 154.063 80.8501 154.392 80.8501 154.392L80.7145 152.538C76.5954 151.597 69.6418 152.156 69.6418 152.156L69.2824 154.257C63.6842 154.033 53.3127 154.881 53.3127 154.881L53.684 152.55L51.4977 152.615C51.4977 152.615 49.5001 160.295 49.3174 165.457L51.2797 165.221L51.6392 162.897C51.6392 162.897 61.716 162.049 68.7874 162.585L68.8345 165.404C68.8345 165.404 77.1788 165.892 81.0092 165.386L81.2331 162.791C81.2331 162.791 95.5763 163.208 100.815 164.286L101.039 166.763L106.531 167.258C106.531 167.258 104.215 158.018 104.569 154.575V154.569Z" fill="#8F8F8F"/>
<path fill-rule="evenodd" clip-rule="evenodd" d="M49.3763 164.356C49.3763 164.356 50.5254 164.162 50.8672 164.133C50.8672 164.133 51.8396 155.175 52.4465 153.545L51.2444 153.662C51.2444 153.662 49.7829 159.259 49.3763 164.356Z" fill="white"/>
<path fill-rule="evenodd" clip-rule="evenodd" d="M101.192 155.01C101.192 155.01 101.734 163.273 101.952 165.363L106.213 165.763C106.213 165.763 105.341 158.483 105.299 155.652L101.198 155.01H101.192Z" fill="white"/>
<path fill-rule="evenodd" clip-rule="evenodd" d="M120.114 178.646C118.547 182.395 114.098 181 114.098 181C109.996 177.339 107.232 169.265 107.232 169.265C98.2281 144.24 113.349 125.401 113.349 125.401C113.349 125.401 116.537 123.205 119.112 126.036C119.112 126.036 121.163 128.084 120.161 131.398C120.161 131.398 106.248 153.192 120.12 178.64L120.114 178.646Z" fill="#596673"/>
<path fill-rule="evenodd" clip-rule="evenodd" d="M48.3745 142.804L53.2656 142.421L55.11 138.813C55.11 138.813 51.8631 137.054 49.5413 138.76L48.3804 142.804H48.3745Z" fill="#A5BCD5"/>
<path fill-rule="evenodd" clip-rule="evenodd" d="M149.891 43.2637C155.583 71.1253 150.238 91.6183 150.238 91.6183C146.915 100.076 138.995 108.963 138.995 108.963C122.901 125.483 88.4871 134.847 88.4871 134.847C55.6816 142.857 32.287 136.942 32.287 136.942C27.3959 132.563 20.1536 120.763 20.1536 120.763L50.8554 85.1679L63.4896 68.0766L37.3254 14.0838C37.3254 14.0838 66.8898 -2.65431 93.2604 0.364912C93.2604 0.364912 118.081 1.84215 132.813 15.6493C132.813 15.6493 144.947 24.8953 149.897 43.2637H149.891Z" fill="#EBEBEB"/>
<path fill-rule="evenodd" clip-rule="evenodd" d="M91.8756 0.223647C63.6842 -1.7362 37.296 13.9484 37.296 13.9484L38.3862 15.9554L22.6876 117.544L20.1595 120.769L20.2244 120.857C21.6033 122.105 22.9056 123.023 23.9958 123.682C24.4495 123.923 41.0674 132.669 73.761 126.654C73.761 126.654 113.19 120.033 133.685 100.246C139.266 85.9506 139.189 57.5064 139.189 57.5064C147.333 61.2024 152.513 69.4656 152.513 69.4656C152.602 66.3169 152.448 64.6572 152.448 64.6572C149.243 58.248 139.525 54.3106 139.525 54.3106C136.037 29.0328 120.073 16.4792 120.073 16.4792C98.181 -0.782759 72.6354 4.13156 72.6354 4.13156C76.2124 2.28354 91.8697 0.223647 91.8697 0.223647H91.8756Z" fill="#A8A8A8"/>
<path fill-rule="evenodd" clip-rule="evenodd" d="M38.4214 15.8847C6.74144 42.7105 8.21466 71.7315 8.21466 71.7315C5.92823 102.065 22.5579 118.085 22.5579 118.085C22.5579 118.085 41.8334 134.329 101.322 113.465C101.322 113.465 122.159 105.066 129.307 97.333C129.307 97.333 139.219 63.9568 129.661 37.8903C129.661 37.8903 121.234 10.2759 87.7918 7.82172C87.7918 7.82172 64.4561 4.23162 38.4214 15.8847Z" fill="#46638E"/>
<path d="M60.8968 93.1603C37.8911 93.1603 19.2402 100.694 19.2402 109.987C19.2579 114.106 23.5008 118.562 30.2893 121.634C37.8322 124.977 69.2058 127.107 97.0672 114.93C97.0672 114.93 100.326 113.706 101.781 113.177C102.288 112.123 102.548 111.058 102.553 109.987C102.553 100.694 83.9026 93.1603 60.8968 93.1603Z" fill="#173C3F"/>
<path d="M152.6 101.964C154.765 95.4693 152.004 88.7028 146.433 86.8509C140.863 84.9991 134.592 88.7631 132.427 95.2582C130.263 101.753 133.024 108.52 138.594 110.372C144.165 112.223 150.436 108.459 152.6 101.964Z" fill="#A8A8A8"/>
<path d="M154.552 101.81C156.651 95.512 153.972 88.9504 148.568 87.154C143.164 85.3575 137.081 89.0065 134.983 95.3042C132.884 101.602 135.563 108.163 140.967 109.96C146.371 111.756 152.453 108.107 154.552 101.81Z" fill="#EBEBEB"/>
<path d="M150.56 100.482C151.803 96.7539 150.217 92.8691 147.017 91.8056C143.818 90.7421 140.218 92.9026 138.975 96.6313C137.732 100.36 139.318 104.245 142.517 105.308C145.717 106.372 149.317 104.211 150.56 100.482Z" fill="#A8A8A8"/>
<path d="M148.967 99.983C150.035 96.7787 148.67 93.4396 145.919 92.5249C143.168 91.6103 140.071 93.4665 139.004 96.6708C137.936 99.8752 139.3 103.214 142.052 104.129C144.803 105.044 147.899 103.187 148.967 99.983Z" fill="#999999"/>
<path d="M147.602 99.63C148.528 96.8513 147.347 93.9562 144.963 93.1637C142.579 92.3712 139.895 93.9814 138.969 96.7602C138.043 99.5389 139.225 102.434 141.609 103.226C143.993 104.019 146.676 102.409 147.602 99.63Z" fill="#A5BCD5"/>
<path d="M42.932 24.5549C45.2928 23.8863 46.8447 22.0693 46.3981 20.4963C45.9516 18.9233 43.6757 18.1902 41.3149 18.8587C38.954 19.5273 37.4022 21.3443 37.8487 22.9173C38.2953 24.4903 40.5711 25.2234 42.932 24.5549Z" fill="white"/>
<path d="M54.1098 21.6183C55.8037 21.1387 56.9178 19.8372 56.5982 18.7114C56.2786 17.5856 54.6463 17.0619 52.9524 17.5415C51.2585 18.0212 50.1443 19.3227 50.4639 20.4485C50.7835 21.5743 52.4158 22.098 54.1098 21.6183Z" fill="white"/>
<path fill-rule="evenodd" clip-rule="evenodd" d="M111.098 15.0961C103.272 32.67 70.5788 35.4596 70.5788 35.4596C65.6465 34.412 62.5587 27.8792 62.5587 27.8792C61.386 31.5753 62.7413 36.8192 62.7413 36.8192C57.373 35.5244 54.5385 29.792 54.5385 29.792C53.7371 33.488 54.9451 36.1894 54.9451 36.1894C36.3649 37.0605 37.6731 22.8531 37.6731 22.8531C29.0401 27.8204 27.3783 37.4077 27.3783 37.4077C26.3294 36.7956 25.8049 34.618 25.8049 34.618C20.8313 40.8095 20.1183 49.208 20.1183 49.208C17.6492 50.6852 19.0105 53.7692 19.0105 53.7692C21.6033 64.2452 15.3097 77.0637 15.3097 77.0637C12.5931 80.1476 14.4435 82.3664 14.4435 82.3664C12.5342 88.9522 11.774 92.4599 12.9703 99.6342C15.7222 108.08 21.456 116.184 23.3476 117.055C27.6906 119.062 30.973 118.114 30.973 118.114C46.1471 115.525 56.0176 97.2801 56.0176 97.2801C58.4867 93.7076 59.8244 97.2036 59.8244 97.2036C69.4356 110.675 87.5738 114.101 97.0437 114.936C98.6229 114.418 99.9371 113.983 101.575 113.406C101.575 113.406 122.919 104.913 129.431 97.2036C129.431 97.2036 131.081 91.8243 132.242 83.567C130.456 77.7758 128.04 74.5447 128.04 74.5447C130.256 73.4206 132.336 71.6255 133.68 69.8658C134.051 60.3196 133.703 49.1432 129.997 38.8438C126.343 35.3772 123.002 34.7946 123.002 34.7946C124.451 33.3409 125.088 31.0515 125.312 29.1622C124.97 28.6502 124.64 28.1382 124.257 27.6026C122.695 29.5213 120.167 31.3399 120.167 31.3399C121.01 28.9975 121.605 26.6492 121.882 24.5187C119.142 21.2287 115.636 17.8917 111.098 15.102V15.0961Z" fill="#004F53"/>
<path d="M90.3022 103.73C105.768 103.73 118.305 89.7466 118.305 72.4966C118.305 55.2466 105.768 41.2627 90.3022 41.2627C74.8366 41.2627 62.2993 55.2466 62.2993 72.4966C62.2993 89.7466 74.8366 103.73 90.3022 103.73Z" fill="#173C3F"/>
<path d="M89.212 96.6444C104.678 96.6444 117.215 82.6605 117.215 65.4105C117.215 48.1605 104.678 34.1766 89.212 34.1766C73.7464 34.1766 61.2091 48.1605 61.2091 65.4105C61.2091 82.6605 73.7464 96.6444 89.212 96.6444Z" fill="#173C3F"/>
<path d="M89.4772 99.8873C104.943 99.8873 117.48 85.9034 117.48 68.6534C117.48 51.4034 104.943 37.4195 89.4772 37.4195C74.0117 37.4195 61.4744 51.4034 61.4744 68.6534C61.4744 85.9034 74.0117 99.8873 89.4772 99.8873Z" fill="#D6D4C8"/>
<path fill-rule="evenodd" clip-rule="evenodd" d="M47.9738 97.2389C48.0975 97.2389 50.5666 97.3919 50.378 101.8C50.378 101.8 50.437 109.969 50.437 110.093C50.437 110.093 50.2838 112.341 51.3621 112.741C51.3621 112.741 52.5643 113.112 54.1082 111.752C54.1082 111.752 58.3923 107.562 59.6298 100.229C59.6298 100.229 61.2327 93.019 60.1838 89.7526C59.4413 90.7414 47.9738 97.2389 47.9738 97.2389Z" fill="#9C3A3A"/>
<path fill-rule="evenodd" clip-rule="evenodd" d="M111.11 15.0902C110.391 16.5616 109.313 18.4449 108.275 19.7279C115.129 21.4229 119.46 24.3009 119.46 24.3009C119.024 32.6346 115.971 34.0413 115.971 34.0413C118.24 34.0413 121.64 35.0947 121.64 35.0947C129.49 38.2552 129.23 48.4311 129.23 48.4311C128.011 47.3776 124.434 46.3241 124.434 46.3241C127.227 48.1663 129.142 51.2384 129.142 51.2384C129.666 67.7294 122.124 68.8417 122.124 68.8417C124.098 76.6576 121.629 91.1769 121.629 91.1769C117.433 104.078 108.323 106.714 108.323 106.714C89.2533 111.711 75.7822 106.338 59.8008 97.386C69.4474 110.993 87.5502 114.124 96.9906 114.948C98.4815 114.454 100.143 113.942 101.687 113.4C101.687 113.4 123.078 104.707 129.49 97.5155C129.49 97.5155 131.093 92.148 132.265 83.5317C130.497 77.9053 128.282 74.4917 128.282 74.4917C130.403 73.4088 132.365 71.5784 133.68 69.9011C134.045 60.1725 133.744 49.2786 129.914 38.5318C129.914 38.5318 129.831 38.3494 129.755 38.1375C126.308 35.0653 123.243 34.4827 123.243 34.4827C124.504 33.2173 125.129 31.0515 125.353 29.1622C124.94 28.5384 124.764 28.2794 124.286 27.6261C122.736 29.3859 120.409 31.0044 120.409 31.0044C121.145 28.9327 121.623 26.4373 121.917 24.5304C119.16 21.2876 115.765 17.9329 111.122 15.102L111.11 15.0902Z" fill="#194145"/>
<path fill-rule="evenodd" clip-rule="evenodd" d="M52.3227 112.765C60.0836 110.063 61.9163 105.749 61.9163 105.749C62.9652 102.612 62.482 96.1148 62.482 96.1148C61.5686 88.1812 57.6381 85.9624 57.6381 85.9624C53.7547 83.6965 49.2231 85.6564 49.2231 85.6564C49.2231 85.6564 41.8983 89.3171 41.0261 99.2517C41.0261 99.2517 40.9849 100.994 44.556 99.5577C44.556 99.5577 55.1985 95.5027 59.8185 90.7531C59.8185 90.7531 60.8674 97.5979 54.0611 109.016C54.0611 109.016 53.0652 110.881 51.5802 112.153C51.5802 112.153 50.219 112.982 52.3169 112.759L52.3227 112.765Z" fill="#FFB93E"/>
<path d="M93.4693 85.6281C102.778 82.6556 107.921 72.7364 104.956 63.4731C101.99 54.2097 92.0397 49.11 82.7306 52.0826C73.4214 55.0551 68.2788 64.9743 71.2442 74.2376C74.2096 83.501 84.1601 88.6007 93.4693 85.6281Z" fill="#FAB84A"/>
<path d="M92.8274 83.6044C101.014 80.9902 105.537 72.2676 102.93 64.1219C100.322 55.9762 91.5713 51.4921 83.3844 54.1063C75.1974 56.7205 70.6744 65.4432 73.282 73.5888C75.8897 81.7345 84.6404 86.2186 92.8274 83.6044Z" fill="#CF7B14"/>
<path d="M91.9382 81.2357C98.8759 79.0204 102.708 71.6276 100.498 64.7234C98.288 57.8192 90.8722 54.0182 83.9345 56.2335C76.9968 58.4488 73.1644 65.8416 75.3746 72.7457C77.5847 79.6499 85.0005 83.451 91.9382 81.2357Z" fill="#201E1E"/>
<path d="M97.8944 64.2236C100.123 63.5115 101.354 61.1373 100.644 58.9207C99.9343 56.7041 97.552 55.4844 95.3232 56.1965C93.0945 56.9086 91.8633 59.2828 92.5733 61.4994C93.2834 63.7161 95.6657 64.9357 97.8944 64.2236Z" fill="#FEFEFE"/>
<path d="M85.6587 78.9646C72.2583 78.8587 64.2617 80.4419 63.6194 80.8597C67.5971 93.1308 79.1588 100.158 89.5303 100.164C99.5481 100.152 108.8 94.1726 113.785 84.4793C102.394 80.4066 93.0365 79.0235 85.6528 78.9705L85.6587 78.9646Z" fill="#194145"/>
<path d="M51.8835 68.259C55.0628 53.5849 49.9068 40.0179 40.3673 37.9562C30.8277 35.8946 20.517 46.119 17.3376 60.7931C14.1583 75.4672 19.3143 89.0342 28.8538 91.0958C38.3934 93.1575 48.7041 82.9331 51.8835 68.259Z" fill="#173C3F"/>
<path fill-rule="evenodd" clip-rule="evenodd" d="M37.6849 22.8531C29.0519 27.8204 27.3842 37.3548 27.3842 37.3548C26.3352 36.7427 25.8344 34.6416 25.8344 34.6416C20.8608 40.833 19.7765 49.4493 19.7765 49.4493C17.3074 50.9265 18.6686 54.0105 18.6686 54.0105C21.2615 64.4865 14.9679 77.3108 14.9679 77.3108C12.2513 80.3948 14.1017 82.6077 14.1017 82.6077C10.7427 93.1779 12.929 99.9285 12.929 99.9285C21.562 123.965 30.6311 118.356 30.6311 118.356C32.7172 117.997 34.7031 117.338 36.577 116.478C32.9176 115.631 15.7399 110.452 22.1454 88.9051C22.1454 88.9051 20.0122 47.819 40.7374 31.746C37.2665 27.8675 37.6849 22.859 37.6849 22.859V22.8531Z" fill="#173C3F"/>
<path d="M50.4566 73.6468C53.6359 58.9727 48.48 45.4057 38.9404 43.344C29.4008 41.2823 19.0901 51.5067 15.9108 66.1808C12.7314 80.8549 17.8874 94.4219 27.427 96.4836C36.9665 98.5452 47.2772 88.3208 50.4566 73.6468Z" fill="#173C3F"/>
<path d="M51.0014 70.8478C54.1807 56.1737 49.0248 42.6067 39.4852 40.5451C29.9456 38.4834 19.6349 48.7078 16.4556 63.3819C13.2762 78.056 18.4322 91.623 27.9718 93.6847C37.5113 95.7463 47.822 85.5219 51.0014 70.8478Z" fill="#D6D4C8"/>
<path d="M38.5112 81.4103C46.5215 78.8525 50.947 70.3187 48.3959 62.3495C45.8448 54.3803 37.2831 49.9935 29.2728 52.5513C21.2625 55.1091 16.837 63.6429 19.3881 71.6121C21.9392 79.5813 30.5009 83.9681 38.5112 81.4103Z" fill="#FAB84A"/>
<path d="M37.955 79.6666C44.998 77.4176 48.8886 69.9122 46.6447 62.9028C44.4008 55.8934 36.8723 52.0343 29.8292 54.2832C22.7861 56.5322 18.8956 64.0376 21.1394 71.047C23.3833 78.0564 30.9119 81.9156 37.955 79.6666Z" fill="#CF7B14"/>
<path d="M37.1867 77.6294C43.1572 75.7229 46.4562 69.3636 44.5553 63.4254C42.6543 57.4872 36.2733 54.2188 30.3027 56.1253C24.3322 58.0317 21.0332 64.3911 22.9342 70.3293C24.8351 76.2675 31.2162 79.5359 37.1867 77.6294Z" fill="#201E1E"/>
<path d="M42.3155 62.9968C44.2312 62.3847 45.2889 60.3426 44.678 58.4355C44.0672 56.5285 42.019 55.4787 40.1034 56.0908C38.1877 56.7028 37.13 58.745 37.7408 60.652C38.3517 62.5591 40.3998 63.6089 42.3155 62.9968Z" fill="#FEFEFE"/>
<path d="M30.8786 75.0096C20.7134 74.8448 17.2602 76.1338 17.2602 76.1338C17.2602 76.1338 16.7121 76.2868 15.7928 76.6752C16.9243 85.7564 21.4912 92.3128 27.6846 93.8371C36.0584 95.8617 44.9802 87.4867 48.2802 79.1353C41.5387 76.634 36.135 75.092 30.8727 75.0096H30.8786Z" fill="#194145"/>
<path fill-rule="evenodd" clip-rule="evenodd" d="M64.1792 19.4631C67.0137 19.8927 73.3072 19.522 73.3072 19.522C79.8483 19.3395 83.7906 19.5808 83.7906 19.5808C89.8956 20.0104 94.8338 21.5818 94.8338 21.5818C101.34 23.6182 109.318 27.685 109.318 27.685C114.475 28.968 112.135 24.9483 112.135 24.9483C110.933 22.9767 104.887 20.3165 104.887 20.3165C86.631 11.8121 66.4244 15.7376 66.4244 15.7376C66.4244 15.7376 63.0242 15.973 62.4585 17.7622C62.4585 17.7622 61.9753 19.2336 64.1792 19.4572V19.4631Z" fill="white"/>
<path fill-rule="evenodd" clip-rule="evenodd" d="M170.775 140.503C169.031 150.09 158.824 150.437 158.824 150.437C152.195 166.563 136.75 163.085 136.75 163.085C127.127 171.901 119.914 168.753 119.914 168.753C119.914 168.753 112.247 155.404 121.581 133.522C121.581 133.522 143.391 136.748 165.106 124.112C165.106 124.112 169.991 136.748 170.775 140.497V140.503Z" fill="white"/>
<path fill-rule="evenodd" clip-rule="evenodd" d="M164.21 123.364C164.21 123.364 164.305 122.04 166.461 121.116C166.461 121.116 170.009 119.698 171.765 121.858C171.765 121.858 172.231 123.523 172.289 124.877C172.289 124.877 173.527 134.488 178.194 140.591C178.194 140.591 179.632 141.768 178.283 143.422L177.063 144.599C177.063 144.599 176.497 145.164 174.706 144.558C174.706 144.558 167.027 140.938 164.806 131.262C163.933 126.772 164.21 123.37 164.21 123.37V123.364Z" fill="#596673"/>
<path fill-rule="evenodd" clip-rule="evenodd" d="M77.0315 206.831C78.9525 207.661 78.7757 210.015 78.7757 210.015C78.7345 211.151 76.0297 215.289 76.0297 215.289C74.5918 217.378 74.5447 219.738 74.5447 219.738C74.2677 222.481 72.2936 223.528 72.2936 223.528C69.5475 225.529 66.6777 221.804 66.6777 221.804C63.0713 225.07 60.5432 220.909 60.5432 220.909C58.0741 224.358 55.3634 221.774 55.3634 221.774C52.529 219.497 53.4541 213.641 53.4541 213.641C53.8843 208.585 58.8815 206.802 58.8815 206.802C58.8815 206.802 63.69 205.23 64.5209 207.496C64.5209 207.496 66.7897 205.142 69.7538 205.842C69.7538 205.842 72.3702 206.19 72.6295 207.849C72.6295 207.849 74.7215 205.89 77.0315 206.849V206.831Z" fill="#6E7D8E"/>
<path fill-rule="evenodd" clip-rule="evenodd" d="M110.644 219.149C110.579 222.539 109.165 223.093 109.165 223.093C106.637 224.882 104.292 222.169 104.292 222.169C101.823 226.3 98.122 223.399 98.122 223.399C95.594 221.733 95.6529 215.695 95.6529 215.695C94.545 217.419 94.9752 220.132 94.9752 220.132C95.2227 221.427 95.1579 223.028 95.1579 223.028C94.7866 226.724 91.5161 225.923 91.5161 225.923C87.6327 224.505 87.3852 219.45 87.3852 219.45C86.2125 212.363 93.8615 206.443 93.8615 206.443C93.8615 206.443 96.2657 204.807 97.4384 206.137C97.4384 206.137 99.9075 201.729 102.559 204.383C102.559 204.383 104.192 201.917 106.319 204.106C106.319 204.106 107.368 205.401 107.674 207.991C107.674 207.991 108.57 212.77 109.772 215.294C109.772 215.294 110.638 217.36 110.638 219.149H110.644Z" fill="#6E7D8E"/>
<path d="M182.137 46.0063C184.112 46.0063 185.713 44.4069 185.713 42.4339C185.713 40.4609 184.112 38.8614 182.137 38.8614C180.161 38.8614 178.56 40.4609 178.56 42.4339C178.56 44.4069 180.161 46.0063 182.137 46.0063Z" fill="#505050"/>
<path fill-rule="evenodd" clip-rule="evenodd" d="M141.034 178.528C133.621 172.425 135.883 158.023 135.883 158.023C135.883 158.023 136.932 171.707 142.861 177.11C142.861 177.11 142.153 177.822 141.034 178.522V178.528Z" fill="#ADADAD"/>
<path fill-rule="evenodd" clip-rule="evenodd" d="M166.733 158.394C157.298 156.67 157.174 146.005 157.174 146.005C157.174 146.005 159.243 155.946 170.156 156.682C168.477 157.912 166.733 158.394 166.733 158.394Z" fill="#ADADAD"/>
<path fill-rule="evenodd" clip-rule="evenodd" d="M42.2636 179.752C42.2636 179.752 37.1486 171.124 38.7515 154.18C38.7515 154.18 35.7933 163.638 38.999 175.656C38.999 175.656 40.2188 178.269 42.2636 179.758V179.752Z" fill="#ADADAD"/>
<path fill-rule="evenodd" clip-rule="evenodd" d="M24.6911 167.711C24.6911 167.711 26.6004 151.685 31.2322 143.18C31.2322 143.18 24.479 151.956 23.6716 167.67C23.6716 167.67 24.1961 167.752 24.6911 167.711Z" fill="#ADADAD"/>
<path fill-rule="evenodd" clip-rule="evenodd" d="M9.11036 115.778C8.56233 116.39 7.83161 117.744 8.54465 120.316C8.54465 120.316 9.98251 126.066 10.1593 126.548C10.1593 126.548 9.92947 126.219 9.74679 125.954C10.6189 127.984 11.4616 129.585 12.9702 131.251C10.2418 125.542 8.37965 118.203 9.11036 115.778Z" fill="#ADADAD"/>
<path fill-rule="evenodd" clip-rule="evenodd" d="M0.0295665 119.174C-0.0175764 119.792 -0.00579064 120.51 0.0943879 121.357C0.0943879 121.357 0.748495 126.195 3.10564 128.985C3.10564 128.985 2.5576 129.038 1.986 129.326C6.24064 135.547 9.74689 136.259 9.74689 136.259C2.04492 128.108 0.383138 121.34 0.0295665 119.174Z" fill="#ADADAD"/>
<path fill-rule="evenodd" clip-rule="evenodd" d="M187.322 113.041C179.856 112.8 172.914 122.169 172.914 122.169C172.914 122.169 174.299 132.887 178.831 139.249C178.831 139.249 186.043 140.45 197.287 131.998C197.234 130.797 196.45 130.344 195.767 130.109C184.164 133.358 181.447 132.54 181.447 132.54C189.744 129.532 193.239 127.908 196.185 123.988C196.285 122.505 195.761 121.769 195.761 121.769C194.217 118.685 189.343 120.133 189.343 120.133C186.421 121.028 181.541 123.158 177.782 125.042C186.144 120.074 189.273 114.571 189.273 114.571C189.049 113.371 188.088 113.059 187.316 113.035L187.322 113.041Z" fill="white"/>
<path fill-rule="evenodd" clip-rule="evenodd" d="M54.4029 155.905C54.4029 155.905 67.0136 155.228 69.1763 155.41C69.1763 155.41 68.8699 160.96 68.9288 161.449C68.9288 161.449 54.232 161.419 51.9161 161.725C51.9161 161.725 52.5879 156.917 53.0476 156.058L54.397 155.905H54.4029Z" fill="white"/>
<path fill-rule="evenodd" clip-rule="evenodd" d="M73.7845 153.062C72.7709 153.05 71.4391 153.062 70.5081 153.162C70.5081 153.162 69.5534 160.254 70.0131 164.138C70.0131 164.138 76.9431 164.339 79.807 163.997C79.807 163.997 80.0427 154.533 79.7363 153.209C79.7363 153.209 76.8252 153.091 73.7845 153.062ZM73.7727 154.304C75.405 154.304 77.1257 154.21 78.7581 154.392C78.7875 154.745 78.8347 155.21 78.8465 155.822C78.8641 156.799 78.8582 158 78.8465 159.159C78.8229 160.966 78.7875 162.267 78.7698 162.932C76.2772 163.103 72.5588 162.926 71.3449 162.879C71.1209 159.666 71.5157 155.422 71.6336 154.274C72.2877 154.233 73.0891 154.298 73.7786 154.304H73.7727Z" fill="white"/>
<path fill-rule="evenodd" clip-rule="evenodd" d="M72.547 155.175L72.382 161.778L77.1434 161.896L77.2554 160.036H73.6136L73.6784 156.587L77.2554 156.529L77.2848 155.234L72.547 155.181V155.175Z" fill="white"/>
<path fill-rule="evenodd" clip-rule="evenodd" d="M74.7333 157.435V159.048C74.7333 159.048 77.2613 159.124 77.2613 158.959L77.2849 157.476L74.7333 157.435Z" fill="white"/>
<path fill-rule="evenodd" clip-rule="evenodd" d="M80.9266 155.387C80.9266 155.387 81.2095 161.249 81.2095 161.508C81.2095 161.508 98.4225 162.696 100.644 163.085C100.644 163.085 100.491 158.983 100.403 158.241C94.1207 155.887 80.9266 155.381 80.9266 155.381V155.387Z" fill="white"/>
<path fill-rule="evenodd" clip-rule="evenodd" d="M51.4035 193.424C50.7258 191.853 51.4035 190.34 51.4035 190.34C51.4035 190.34 53.8372 190.158 54.8272 190.523C54.8272 190.523 57.3258 196.073 57.7265 197.797C57.7265 197.797 57.3258 199.739 53.7488 198.662C53.7488 198.662 55.1042 198.168 55.2279 197.738C55.2279 197.738 54.7329 194.195 53.961 193.024C53.961 193.024 52.1696 192.965 51.4035 193.424Z" fill="#A5BCD5"/>
<path fill-rule="evenodd" clip-rule="evenodd" d="M54.0258 196.908C53.7194 197.338 52.6704 197.279 52.6704 197.279C52.2403 196.814 51.4388 194.595 51.4388 194.595C51.4388 194.595 52.5349 194.166 53.3363 194.213C53.3363 194.213 54.014 195.737 54.0317 196.908H54.0258Z" fill="#A5BCD5"/>
<path fill-rule="evenodd" clip-rule="evenodd" d="M56.9251 192.5C56.9251 192.5 58.2215 195.549 58.4042 195.831C58.4042 195.831 61.0265 196.079 62.9358 195.861L60.9912 192.9C60.9912 192.9 57.3199 192.624 56.9192 192.5H56.9251Z" fill="#A5BCD5"/>
<path fill-rule="evenodd" clip-rule="evenodd" d="M63.307 193.824L60.5609 190.093C60.5609 190.093 67.4084 189.475 69.5063 188.798C69.5063 188.798 70.679 188.645 71.0797 189.54L75.3048 197.026C75.3048 197.026 72.9595 198.939 70.184 198.721C70.184 198.721 67.9034 193.112 67.2847 192.741L63.307 193.819V193.824Z" fill="#A5BCD5"/>
<path fill-rule="evenodd" clip-rule="evenodd" d="M64.3854 194.69C64.3854 194.69 67.102 198.545 67.2198 198.545L68.9464 198.327L66.7897 193.983L64.3854 194.69Z" fill="#A5BCD5"/>
<path fill-rule="evenodd" clip-rule="evenodd" d="M74.9277 192.665L76.3243 195.543C76.3243 195.543 83.6492 195.237 85.5702 194.366L84.3504 191.882C84.3504 191.882 77.0668 192.971 74.9277 192.665Z" fill="#A5BCD5"/>
<path fill-rule="evenodd" clip-rule="evenodd" d="M88.717 188.28C90.0429 188.098 90.4142 188.586 90.4142 188.586C90.9975 189.328 91.5043 192.229 91.5043 192.229C89.8484 193.713 86.4895 193.754 86.4895 193.754L85.0517 190.311C85.0517 190.311 85.0222 189.758 85.7942 189.328L88.7229 188.28H88.717Z" fill="#A5BCD5"/>
<path fill-rule="evenodd" clip-rule="evenodd" d="M87.2673 194.748L88.8407 197.091C88.8407 197.091 89.2709 197.52 90.1372 197.338L92.7595 196.167C92.7595 196.167 93.502 195.396 93.1013 194.566L92.0523 192.995C92.0523 192.995 89.7364 194.66 87.2732 194.748H87.2673Z" fill="#A5BCD5"/>
<path fill-rule="evenodd" clip-rule="evenodd" d="M102.188 188.828C99.9665 190.328 93.2486 192.318 93.2486 192.318L92.3529 189.881C92.3529 189.881 100.591 187.433 101.593 186.691L102.182 188.828H102.188Z" fill="#A5BCD5"/>
<path fill-rule="evenodd" clip-rule="evenodd" d="M106.449 184.643C106.478 185.756 106.172 186.338 106.172 186.338C105.618 187.509 104.015 187.451 104.015 187.451C103.213 187.451 102.689 186.462 102.689 186.462C102.318 186.032 102.011 183.443 102.011 183.443C102.011 183.443 102.135 182.613 102.878 182.177C102.878 182.177 104.545 181.683 105.311 181.93C105.311 181.93 106.266 182.883 106.455 184.643H106.449Z" fill="#A5BCD5"/>
<path fill-rule="evenodd" clip-rule="evenodd" d="M103.337 188.681C103.337 188.681 103.708 190.158 104.321 190.281C104.321 190.281 104.628 190.558 105.188 190.252L107.468 189.051C107.468 189.051 107.839 188.745 107.533 187.939L107.038 186.585C106.083 188.433 103.337 188.681 103.337 188.681Z" fill="#A5BCD5"/>
<path fill-rule="evenodd" clip-rule="evenodd" d="M107.81 184.425L108.364 186.95C108.364 186.95 114.469 184.302 115.182 183.16C115.182 183.16 114.964 182.171 114.439 181.959C113.172 182.73 107.81 184.425 107.81 184.425Z" fill="#A5BCD5"/>
<path fill-rule="evenodd" clip-rule="evenodd" d="M59.6652 219.526C59.6652 219.526 57.3199 212.993 61.7631 210.033C61.7631 210.033 62.9063 209.48 62.7177 208.52C62.7177 208.52 62.6883 207.408 60.8969 207.626C60.8969 207.626 56.5479 207.967 54.8213 214.529C54.8213 214.529 54.0788 218.414 55.499 220.291C55.499 220.291 56.0824 221.403 57.8444 221.156C57.8444 221.156 59.571 221.309 59.6652 219.52V219.526Z" fill="#A5BCD5"/>
<path fill-rule="evenodd" clip-rule="evenodd" d="M64.8804 208.868C64.8804 208.868 60.3429 212.399 62.046 218.802C62.046 218.802 62.5704 220.633 64.0967 221.156C64.0967 221.156 65.4461 221.68 65.9706 220.068C65.9706 220.068 66.3654 218.714 66.1886 217.713C66.1886 217.713 66.1886 213.876 68.8935 210.916C68.8935 210.916 70.461 209.344 69.8069 207.949C69.8069 207.949 68.646 206.69 66.7661 207.602C66.7661 207.602 65.2222 208.344 64.8745 208.862L64.8804 208.868Z" fill="#A5BCD5"/>
<path fill-rule="evenodd" clip-rule="evenodd" d="M68.8109 220.109C68.8109 220.109 68.5929 214.359 72.3408 209.868C72.3408 209.868 73.5193 208.297 75.0868 208.344C75.0868 208.344 77.0963 208.167 76.8724 210.433C76.8724 210.433 76.5247 211.651 75.6526 212.611C75.6526 212.611 72.7768 216.489 72.8593 219.756C72.8593 219.756 72.5117 222.457 71.2447 222.457C71.2447 222.457 69.0643 222.981 68.8051 220.103L68.8109 220.109Z" fill="#A5BCD5"/>
<path fill-rule="evenodd" clip-rule="evenodd" d="M93.4077 219.979C93.4077 219.979 93.5374 213.964 95.6765 212.222C95.6765 212.222 97.1143 210.433 96.6783 209.038C96.6783 209.038 95.8945 207.296 93.7554 208.426C93.7554 208.426 89.3947 212.611 89.436 219.973C89.436 219.973 89.436 222.981 90.7442 223.505C90.7442 223.505 92.2292 224.287 92.9245 222.634C92.9245 222.634 93.7083 221.804 93.4019 219.973L93.4077 219.979Z" fill="#A5BCD5"/>
<path fill-rule="evenodd" clip-rule="evenodd" d="M98.5934 206.572C98.5934 206.572 95.7589 211.01 97.9747 218.467C97.9747 218.467 99.0236 221.18 100.379 221.61C100.379 221.61 102.288 222.227 102.601 219.638C102.601 219.638 102.783 217.602 101.734 215.447C101.734 215.447 100.379 211.628 100.438 209.162C100.438 209.162 100.744 207.343 100.22 206.449C99.4479 205.648 98.5875 206.572 98.5875 206.572H98.5934Z" fill="#A5BCD5"/>
<path fill-rule="evenodd" clip-rule="evenodd" d="M102.913 205.466C102.913 205.466 101.298 212.658 104.569 219.196C104.569 219.196 105.618 220.939 106.62 220.986C106.62 220.986 108.323 221.115 108.582 219.285C108.582 219.285 108.977 217.631 108.146 215.583C108.146 215.583 106.838 213.14 106.531 210.486C106.531 210.486 106.183 207.785 105.618 206.566C105.618 206.566 104.268 203.212 102.913 205.478V205.466Z" fill="#A5BCD5"/>
<path fill-rule="evenodd" clip-rule="evenodd" d="M119.207 178.893C118.34 178.352 116.861 174.897 116.861 174.897C116.861 174.897 114.333 177.075 112.33 177.263C112.33 177.263 113.597 179.499 115.229 180.494C115.229 180.494 118.063 180.465 119.207 178.893Z" fill="#A5BCD5"/>
<path fill-rule="evenodd" clip-rule="evenodd" d="M111.776 176.045C111.776 176.045 114.922 174.832 116.343 173.455C116.343 173.455 114.398 168.594 114.215 167.729C114.215 167.729 110.391 169.712 108.882 169.841C108.882 169.841 110.856 174.703 111.782 176.045H111.776Z" fill="#A5BCD5"/>
<path fill-rule="evenodd" clip-rule="evenodd" d="M112.701 159.642C112.671 160.76 113.75 166.228 113.75 166.228C112.33 167.381 108.599 168.276 108.599 168.276C108.599 168.276 107.091 163.509 107.056 161.013C107.056 161.013 111.375 160.501 112.701 159.636V159.642Z" fill="#A5BCD5"/>
<path fill-rule="evenodd" clip-rule="evenodd" d="M106.59 159.671C106.59 159.671 111.275 159.095 112.542 158.265C112.542 158.265 112.265 154.875 112.448 154.169C112.448 154.169 106.555 154.745 106.154 154.745C106.154 154.745 106.307 158.424 106.584 159.671H106.59Z" fill="#A5BCD5"/>
<path fill-rule="evenodd" clip-rule="evenodd" d="M106.018 153.509C106.018 153.509 111.711 153.103 112.559 153.009C112.559 153.009 112.448 149.707 112.624 148.895L106.236 148.536C106.236 148.536 105.824 151.226 106.018 153.509Z" fill="#A5BCD5"/>
<path fill-rule="evenodd" clip-rule="evenodd" d="M106.443 147.23L112.76 147.553C112.76 147.553 113.066 143.269 113.715 141.574C113.715 141.574 108.594 140.997 107.333 141.256C107.333 141.256 106.254 145.57 106.443 147.235V147.23Z" fill="#A5BCD5"/>
<path fill-rule="evenodd" clip-rule="evenodd" d="M107.828 139.802L114.109 140.279C114.109 140.279 115.288 136.889 115.812 135.847C115.812 135.847 113.762 133.493 110.014 133.54C110.014 133.54 108.004 137.048 107.833 139.802H107.828Z" fill="#A5BCD5"/>
<path fill-rule="evenodd" clip-rule="evenodd" d="M110.615 132.204C110.615 132.204 114.498 132.857 116.195 134.623L117.68 132.339C117.68 132.339 115.677 128.791 112.925 128.29C111.811 129.308 110.615 132.204 110.615 132.204Z" fill="#A5BCD5"/>
<path fill-rule="evenodd" clip-rule="evenodd" d="M118.14 131.274C116.985 129.102 113.432 127.455 113.432 127.455L113.933 126.572C113.933 126.572 117.686 125.53 119.431 128.108C119.366 129.509 118.146 131.274 118.146 131.274H118.14Z" fill="#A5BCD5"/>
<path fill-rule="evenodd" clip-rule="evenodd" d="M48.1388 144.21L52.6468 143.716C52.6468 143.716 51.4093 147.383 51.3858 147.736L47.2549 147.901C47.2549 147.901 47.7793 145.429 48.1388 144.21Z" fill="#A5BCD5"/>
<path fill-rule="evenodd" clip-rule="evenodd" d="M47.5789 149.289L51.2148 148.989C51.2148 148.989 49.5177 154.274 49.3645 155.61L45.9348 155.658C45.9348 155.658 46.3709 151.814 47.1193 149.254L47.5848 149.284L47.5789 149.289Z" fill="#A5BCD5"/>
<path fill-rule="evenodd" clip-rule="evenodd" d="M45.7522 157.041C45.9879 157.017 49.1759 156.858 49.1759 156.858L48.3922 161.937L45.3868 162.096L45.7522 157.041Z" fill="#A5BCD5"/>
<path fill-rule="evenodd" clip-rule="evenodd" d="M45.5577 163.597L48.021 163.379C48.021 163.379 47.3551 170.553 47.3786 170.789L45.6049 170.977L45.5577 163.597Z" fill="#A5BCD5"/>
<path fill-rule="evenodd" clip-rule="evenodd" d="M45.9172 172.16L47.5554 171.931C47.5554 171.931 47.2549 175.097 48.1919 181.077C48.1919 181.077 45.6344 176.033 45.9172 172.16Z" fill="#A5BCD5"/>
</g>
<defs>
<clipPath id="clip0_4897_24890">
<rect width="198" height="226" fill="white"/>
</clipPath>
</defs>
</svg>
