<svg width="116" height="129" viewBox="0 0 116 129" fill="none" xmlns="http://www.w3.org/2000/svg">
<g clip-path="url(#clip0_4897_24767)">
<path fill-rule="evenodd" clip-rule="evenodd" d="M23.6921 59.3501C23.6921 59.3501 10.0499 43.9306 3.06986 39.1972C3.06986 39.1972 2.25634 38.7538 2.18269 39.4357C2.18269 39.4357 2.04544 40.0236 2.69156 40.6552C2.69156 40.6552 15.3126 51.1734 22.1119 60.1429C22.1119 60.1429 22.6476 60.9861 23.287 60.6569C23.287 60.6569 24.2545 60.1765 23.6921 59.3467V59.3501Z" fill="#666666"/>
<path d="M23.2101 58.6648L21.496 59.8204C20.8868 60.2336 20.7227 61.06 21.1345 61.6714L24.278 66.3544C24.6898 66.9658 25.5167 67.127 26.126 66.7172L27.8401 65.5616C28.4494 65.1484 28.6134 64.3219 28.2016 63.7105L25.0581 59.0276C24.6463 58.4162 23.8194 58.2549 23.2101 58.6648Z" fill="#505050"/>
<path fill-rule="evenodd" clip-rule="evenodd" d="M30.4781 73.8491C30.4781 73.8491 25.7912 75.2164 24.1441 77.2757C24.1441 77.2757 23.0963 78.1458 23.652 80.0875C23.652 80.0875 25.4397 84.4076 27.368 87.8476C27.368 87.8476 29.5641 90.8308 31.4925 99.414C31.4925 99.414 31.6029 102.834 33.8392 104.362C33.8392 104.362 36.4806 106.294 40.5314 103.371C40.5314 103.371 45.5631 99.4509 40.4176 84.3169C35.4629 72.3609 30.4781 73.8458 30.4781 73.8458V73.8491Z" fill="#505050"/>
<path fill-rule="evenodd" clip-rule="evenodd" d="M24.8773 76.5299C26.5244 78.1088 28.7674 81.0483 30.8463 87.0851C30.8463 87.0851 34.2577 95.5305 34.5255 104.671C34.087 104.507 33.8459 104.335 33.8459 104.335C31.6063 102.807 31.4991 99.3871 31.4991 99.3871C30.7024 94.7579 27.3747 87.8208 27.3747 87.8208C25.0882 84.6966 23.6587 80.0606 23.6587 80.0606C23.1029 78.1189 24.1508 77.2488 24.1508 77.2488C24.3517 76.9969 24.5994 76.7583 24.8773 76.5299Z" fill="#666666"/>
<path fill-rule="evenodd" clip-rule="evenodd" d="M54.5853 115.431C54.5853 115.431 47.6387 117.665 42.4999 115.153C42.4999 115.153 40.1832 114.158 39.507 112.727C39.507 112.727 38.8709 111.578 38.054 107.429C38.054 107.429 33.4073 82.5096 23.9131 70.0127C23.9131 70.0127 22.0517 67.4294 22.5238 63.9994C22.5238 63.9994 23.9666 60.0891 30.535 59.7196C30.535 59.7196 37.823 60.4049 41.0737 65.9916C41.0737 65.9916 52.3624 90.6023 54.987 108.169C54.987 108.169 56.065 112.902 54.5853 115.435V115.431Z" fill="#505050"/>
<path fill-rule="evenodd" clip-rule="evenodd" d="M53.1458 114.172C53.1458 114.172 47.1834 115.7 42.2454 112.841C42.2454 112.841 40.4142 112.012 39.6476 108.326C39.6476 108.326 35.4394 83.7694 26.4909 71.2221C26.4909 71.2221 24.1976 68.0676 24.365 64.8662C24.365 64.8662 24.8638 61.9435 28.6368 61.8091C28.6368 61.8091 31.3284 61.6009 34.3481 65.6355C34.3481 65.6355 40.2301 73.5233 43.9494 87.72C43.9494 87.72 47.0294 99.5181 48.5694 103.361C48.5694 103.361 49.2188 105.242 50.5479 106.647C50.5479 106.647 52.6168 110.275 53.1458 114.172Z" fill="#666666"/>
<path fill-rule="evenodd" clip-rule="evenodd" d="M67.1662 116.019C67.1662 116.019 60.926 118.428 57.8695 118.223C57.8695 118.223 55.0808 118.67 54.3108 115.552C54.3108 115.552 48.7435 85.7346 37.0665 68.9041C37.0665 68.9041 46.4268 62.2794 58.1909 67.9299C58.683 68.679 79.1378 93.1319 67.1662 116.019Z" fill="#505050"/>
<path fill-rule="evenodd" clip-rule="evenodd" d="M41.3281 73.6677C41.3281 73.6677 49.818 78.4683 54.0295 98.1005C54.0295 98.1005 55.5762 107.755 56.5772 111.118C56.5772 111.118 57.307 113.466 58.5691 114.891L55.5494 115.025C55.5494 115.025 51.1504 92.8061 41.3281 73.6677Z" fill="#666666"/>
<path fill-rule="evenodd" clip-rule="evenodd" d="M94.6278 108.515C94.6278 108.515 95.2806 109.015 95.3141 110.302C95.3141 110.302 95.4748 111.296 94.6345 112.405C94.6345 112.405 94.0353 113.654 91.4709 114.709C91.4709 114.709 79.8943 119.063 72.238 118.888C72.238 118.888 65.8371 118.552 63.4936 115.885C63.4936 115.885 62.2985 114.054 63.1957 113.638C63.1957 113.638 87.5071 107.628 94.6312 108.518L94.6278 108.515Z" fill="#596673"/>
<path fill-rule="evenodd" clip-rule="evenodd" d="M65.6094 116.167C88.5382 118.532 94.5174 110.513 94.5174 110.513C94.5174 110.513 94.6948 111.447 93.9215 113.12C93.4896 113.58 92.6761 114.252 91.1863 114.864C91.1863 114.864 79.6131 119.218 71.9534 119.043C71.9534 119.043 71.073 119.063 69.7975 118.798C66.6472 117.578 65.6128 116.167 65.6128 116.167H65.6094Z" fill="#8496AA"/>
<path fill-rule="evenodd" clip-rule="evenodd" d="M86.5732 72.6263C86.5732 72.6263 101.939 91.0021 94.3769 107.255C94.3769 107.255 95.793 108.494 94.2396 109.66C94.2396 109.66 85.1638 116.668 68.338 114.958C68.338 114.958 63.718 114.007 62.4325 113.261C62.4325 113.261 58.1474 110.987 59.9652 105.777C59.9652 105.777 63.467 89.9305 50.6048 77.1648C50.6048 77.1648 52.3624 76.1066 52.349 73.3452C52.349 73.3452 52.0444 61.7285 64.6219 60.8483C76.7911 60.0757 86.5732 72.6297 86.5732 72.6297V72.6263Z" fill="white"/>
<path fill-rule="evenodd" clip-rule="evenodd" d="M87.4637 71.9007C97.8418 69.6264 104.142 63.0857 104.142 63.0857C104.142 63.0857 105.12 62.6086 105.629 63.425C105.629 63.425 108.966 66.052 110.386 70.8089C110.386 70.8089 112.371 79.1435 110.212 83.4603C110.212 83.4603 109.586 85.187 107.868 85.5431C107.868 85.5431 107.369 93.3604 101.123 92.0771C101.123 92.0771 100.446 96.0848 97.2793 96.4208C97.2793 96.4208 96.4257 83.0672 87.4637 71.8973V71.9007Z" fill="#CCCCCC"/>
<path fill-rule="evenodd" clip-rule="evenodd" d="M105.578 61.967C105.528 61.7722 105.173 57.6368 106.248 55.2718C106.248 55.2718 106.921 53.8205 108.451 54.2136C108.451 54.2136 109.787 54.5562 109.77 56.8171C109.77 56.8171 109.827 60.2269 109.8 60.5191C109.8 60.5191 111.142 57.0187 111.216 54.5865C111.216 54.5865 111.32 53.1319 112.739 53.2158C112.739 53.2158 114.216 53.3133 114.607 56.1385C114.607 56.1385 114.962 58.9234 114.072 60.8248C114.072 60.8248 115.233 60.6165 115.662 61.5404C115.662 61.5404 116.559 63.2469 115.414 65.1618C115.414 65.1618 113.807 68.4472 110.557 70.7215C110.557 70.7215 109.1 71.763 106.851 67.6175C105.96 65.5481 105.572 61.967 105.572 61.967H105.578Z" fill="#CCCCCC"/>
<path fill-rule="evenodd" clip-rule="evenodd" d="M110.409 72.1426C108.926 67.3756 105.006 64.0095 105.006 64.0095C104.36 63.4955 103.995 63.2369 103.995 63.2369C103.406 62.098 104.356 61.7016 104.356 61.7016C105.404 61.1608 106.248 61.7722 106.248 61.7722C106.248 61.7722 109.85 63.6534 111.085 70.4058C111.085 70.4058 111.37 71.4707 111.085 72.0418C111.085 72.0418 110.627 72.4516 110.413 72.1459L110.409 72.1426Z" fill="#596673"/>
<path fill-rule="evenodd" clip-rule="evenodd" d="M62.0341 61.5068C62.9882 61.2548 64.0495 61.0768 65.2312 60.9928C77.4003 60.2202 87.1825 72.7741 87.1825 72.7741C87.1825 72.7741 102.026 91.1062 94.4605 107.359C94.4605 107.359 95.582 108.457 94.5911 109.398C94.5911 109.398 91.394 113.211 81.585 114.538C84.9228 113.258 91.9765 111.971 93.9282 108.336L93.4495 106.959L93.9249 105.941C96.7136 92.4567 88.9367 83.4469 88.9367 83.4469C75 87.0515 62.4961 83.4905 56.4802 81.7437C55.4424 80.2286 54.207 78.727 52.7374 77.2656C52.7374 77.2656 54.2405 76.3116 53.4973 73.5367C53.4973 73.5367 52.801 63.9591 62.0341 61.5034V61.5068Z" fill="#CCCCCC"/>
<path fill-rule="evenodd" clip-rule="evenodd" d="M95.0597 101.097C95.2171 101.107 96.0473 101.013 96.3453 101.453C96.3453 101.453 97.4567 102.609 97.1152 105.111C97.1152 105.111 96.7972 107.117 95.7058 107.591C95.7058 107.591 94.2931 108.41 93.2318 107.631C93.2318 107.631 92.8669 107.134 92.8167 106.472C92.8167 106.472 91.3671 107.147 89.4053 107.466L88.8496 108.679C88.8496 108.679 88.5215 109.287 87.8018 109.506C87.8018 109.506 85.5655 110.339 83.4965 109.677C83.4965 109.677 82.991 109.24 82.9274 108.998C82.9274 108.998 78.6021 110.056 77.504 109.727L76.5935 111.451C76.5935 111.451 76.3156 111.864 75.8235 111.864C75.8235 111.864 73.788 111.995 73.1419 111.236C73.1419 111.236 72.8942 110.99 72.864 110.584V109.727C72.864 109.727 68.7764 109.633 67.4005 109.223C67.4005 109.223 67.2833 110.043 66.7242 110.211C66.7242 110.211 65.6864 110.436 64.3473 109.878C64.3473 109.878 63.7816 109.68 63.9222 108.911C63.9222 108.911 60.32 108.179 59.6471 107.5C59.6471 107.5 59.5567 106.475 60.0187 105.783C60.0187 105.783 59.6337 105.773 60.2631 106.055C60.2631 106.055 63.1689 106.469 63.8385 106.264C63.8385 106.264 64.0862 104.94 64.1933 104.856C64.1933 104.856 64.739 103.885 66.3393 104.114C66.3393 104.114 67.4206 104.393 67.5076 104.718C67.5076 104.718 67.8625 105.706 67.7286 106.64C67.7286 106.64 73.1352 107.036 73.5269 106.956C73.5269 106.956 73.624 106.254 73.9855 106.055C73.9855 106.055 74.6015 105.552 75.3816 105.656L76.9784 105.877C76.9784 105.877 77.9292 106.27 77.7518 106.862C77.7518 106.862 82.7902 106.237 83.3158 105.887C83.3158 105.887 83.9016 103.989 84.0088 103.905C84.0088 103.905 84.3837 102.777 85.7965 102.508C85.7965 102.508 89.5895 101.88 90.0347 101.92C90.0347 101.92 90.7679 101.997 91.106 102.642C91.106 102.642 91.3303 102.804 91.2064 103.15L90.9754 103.929L92.8837 103.398C92.8736 103.291 92.9573 102.37 93.2754 102.118C93.2754 102.118 93.9148 101.208 95.0664 101.104L95.0597 101.097Z" fill="#8F8F8F"/>
<path fill-rule="evenodd" clip-rule="evenodd" d="M85.2843 73.6509C85.2843 73.6509 95.9637 84.0885 96.2583 100.879C96.2583 100.879 101.856 90.1857 90.0482 72.5826C90.0482 72.5826 87.8554 70.9802 85.7329 72.2131C85.7329 72.2131 84.4809 72.371 85.2843 73.6509Z" fill="#596673"/>
<path d="M50.3411 71.232C49.7432 65.523 58.2574 59.9459 69.3582 58.7751C80.4589 57.6043 89.9426 61.2832 90.5406 66.9922C91.1385 72.7011 82.6243 78.2783 71.5236 79.4491C60.4228 80.6198 50.9391 76.9409 50.3411 71.232Z" fill="#888888"/>
<path fill-rule="evenodd" clip-rule="evenodd" d="M20.0096 82.3483C20.0096 82.3483 15.8149 79.2543 11.8779 78.3675C11.8779 78.3675 8.53351 77.5041 7.89408 80.1714C7.89408 80.1714 7.52248 82.4726 8.99215 83.3259C8.99215 83.3259 6.1566 83.5375 5.75822 85.4792C5.75822 85.4792 5.22927 87.1993 6.33738 88.3314C6.33738 88.3314 6.98015 89.225 8.08491 89.6617C8.08491 89.6617 5.90217 89.9909 6.65207 91.6975C6.65207 91.6975 7.31493 93.9046 10.5924 94.3816C10.5924 94.3816 14.9746 94.7478 18.8681 93.6996C18.8681 93.6996 23.4445 89.7188 20.0063 82.3483H20.0096Z" fill="#CCCCCC"/>
<path fill-rule="evenodd" clip-rule="evenodd" d="M95.5586 101.393C95.716 101.403 96.5462 101.309 96.8442 101.749C96.8442 101.749 97.9556 102.904 97.6141 105.407C97.6141 105.407 97.2961 107.413 96.2047 107.886C96.2047 107.886 94.792 108.706 93.7307 107.927C93.7307 107.927 93.3658 107.429 93.3156 106.768C93.3156 106.768 91.866 107.443 89.9042 107.762L89.3485 108.975C89.3485 108.975 89.0204 109.583 88.3007 109.801C88.3007 109.801 86.0644 110.634 83.9954 109.973C83.9954 109.973 83.4899 109.536 83.4263 109.294C83.4263 109.294 79.101 110.352 78.0029 110.023L77.0924 111.746C77.0924 111.746 76.8145 112.159 76.3224 112.159C76.3224 112.159 74.2869 112.29 73.6408 111.531C73.6408 111.531 73.3931 111.286 73.3629 110.88V110.023C73.3629 110.023 69.2753 109.929 67.8994 109.519C67.8994 109.519 67.7822 110.339 67.2231 110.507C67.2231 110.507 66.1853 110.732 64.8462 110.174C64.8462 110.174 64.2805 109.976 64.4211 109.207C64.4211 109.207 60.2129 108.471 59.54 107.796C59.54 107.796 59.3191 106.973 59.7811 106.277C59.7811 106.277 60.1292 106.069 60.7586 106.351C60.7586 106.351 63.6645 106.764 64.334 106.559C64.334 106.559 64.5818 105.236 64.6889 105.152C64.6889 105.152 65.2346 104.181 66.8348 104.409C66.8348 104.409 67.9161 104.688 68.0032 105.014C68.0032 105.014 68.358 106.002 68.2241 106.936C68.2241 106.936 73.6308 107.332 74.0225 107.251C74.0225 107.251 74.1195 106.549 74.4811 106.351C74.4811 106.351 75.0971 105.847 75.8771 105.951L77.474 106.173C77.474 106.173 78.4248 106.566 78.2473 107.157C78.2473 107.157 83.2857 106.533 83.8113 106.183C83.8113 106.183 84.3972 104.285 84.5043 104.201C84.5043 104.201 84.8793 103.072 86.292 102.804C86.292 102.804 90.085 102.175 90.5303 102.216C90.5303 102.216 91.2634 102.293 91.6016 102.938C91.6016 102.938 91.8259 103.099 91.702 103.445L91.471 104.225L93.3792 103.694C93.3692 103.586 93.4529 102.666 93.7709 102.414C93.7709 102.414 94.4103 101.504 95.562 101.399L95.5586 101.393Z" fill="#6F7F90"/>
<path fill-rule="evenodd" clip-rule="evenodd" d="M56.604 105.793C50.1194 111.951 43.8088 108.34 43.8088 108.34C31.71 111.441 27.84 101.49 27.84 101.49C23.826 101.386 20.5385 97.264 20.5385 97.264C19.3902 96.1251 20.0397 94.4925 20.0397 94.4925L20.5887 93.357C22.9422 89.5744 22.6074 84.0515 22.6074 84.0515C22.2191 81.6362 23.7222 81.4413 23.7222 81.4413C25.751 80.8971 29.3197 81.4615 29.3197 81.4615C37.7427 82.56 49.6005 79.466 49.6005 79.466C49.6005 79.466 55.0138 83.6921 56.9488 92.3022C56.9488 92.3022 58.8838 101.729 56.6006 105.793H56.604Z" fill="#CCCCCC"/>
<path fill-rule="evenodd" clip-rule="evenodd" d="M61.6726 90.1219L64.0595 89.0033L64.4646 90.7502C68.8836 87.8846 74.7857 86.4938 74.7857 86.4938L74.5849 85.4423C76.7274 84.3069 80.6611 83.5846 80.6611 83.5846L81.1733 84.6999C84.2398 83.7425 90.1118 82.6709 90.1118 82.6709L89.5594 81.4312L90.7814 81.1423C90.7814 81.1423 93.0277 85.1131 93.8948 87.9518L92.7699 88.113L92.2242 86.8734C92.2242 86.8734 86.5163 87.9014 82.6764 89.2519L83.0715 90.824C83.0715 90.824 78.5218 92.3358 76.3257 92.6247L75.8169 91.2171C75.8169 91.2171 67.9329 93.5855 65.1911 94.9594L65.4354 96.3704L62.466 97.4622C62.466 97.4622 62.3789 91.9864 61.6692 90.1253L61.6726 90.1219Z" fill="#8F8F8F"/>
<path fill-rule="evenodd" clip-rule="evenodd" d="M93.7006 87.3471C93.7006 87.3471 93.0344 87.4109 92.8435 87.4445C92.8435 87.4445 90.9721 82.6137 90.3963 81.7974L91.0793 81.6832C91.0793 81.6832 92.7197 84.5756 93.7006 87.3471Z" fill="white"/>
<path fill-rule="evenodd" clip-rule="evenodd" d="M63.6076 89.8633C63.6076 89.8633 64.5349 94.5328 64.7257 95.7287L62.4258 96.5854C62.4258 96.5854 61.8265 92.413 61.4315 90.8308L63.6076 89.8633Z" fill="white"/>
<path fill-rule="evenodd" clip-rule="evenodd" d="M56.6375 105.81C58.0637 107.658 60.3201 106.223 60.3201 106.223C62.0475 103.58 62.3789 98.685 62.3789 98.685C63.6511 83.4435 52.4763 75.2265 52.4763 75.2265C52.4763 75.2265 50.3839 74.4807 49.3796 76.4392C49.3796 76.4392 48.5493 77.8804 49.5972 79.5735C49.5972 79.5735 60.541 89.6113 56.6375 105.814V105.81Z" fill="#596673"/>
<path fill-rule="evenodd" clip-rule="evenodd" d="M91.0525 75.2265L88.2872 75.7405L86.7305 74.0104C86.7305 74.0104 88.2672 72.5524 89.8071 73.1504L91.0525 75.2265Z" fill="#A5BCD5"/>
<path fill-rule="evenodd" clip-rule="evenodd" d="M20.0364 35.0248C21.0206 51.348 27.0265 61.9402 27.0265 61.9402C30.1232 66.1427 35.8311 69.9052 35.8311 69.9052C47.2001 76.6878 67.6516 76.7752 67.6516 76.7752C87.0117 76.3452 99.0938 69.5794 99.0938 69.5794C101.153 66.4216 103.409 58.7857 103.409 58.7857L81.1163 43.5778L71.5785 35.9621L78.0564 2.06937C78.0564 2.06937 59.1918 -2.83195 45.0341 2.76812C45.0341 2.76812 31.5058 7.28312 25.3961 17.1429C25.3961 17.1429 20.0498 24.0834 20.0364 35.0248Z" fill="#EBEBEB"/>
<path fill-rule="evenodd" clip-rule="evenodd" d="M45.7807 2.48257C61.1034 -2.79837 78.0497 1.98874 78.0497 1.98874L77.7451 3.26531L101.528 57.3714L103.409 58.7857L103.386 58.8428C102.806 59.7431 102.221 60.4452 101.715 60.9726C101.501 61.1742 93.5934 68.5077 74.5915 70.0262C74.5915 70.0262 51.7698 72.2098 37.4749 64.2682C32.259 57.1564 28.0777 41.3438 28.0777 41.3438C24.1173 44.6091 22.4735 49.9673 22.4735 49.9673C21.958 48.2305 21.7939 47.2866 21.7939 47.2866C22.6175 43.2486 27.4148 39.6137 27.4148 39.6137C25.5936 25.0509 32.5704 15.7051 32.5704 15.7051C42.1349 2.86218 57.0158 1.79054 57.0158 1.79054C54.7594 1.29671 45.7807 2.48257 45.7807 2.48257Z" fill="#A8A8A8"/>
<path fill-rule="evenodd" clip-rule="evenodd" d="M77.7117 3.23172C99.2479 13.4241 102.74 29.7674 102.74 29.7674C108.511 46.2788 101.678 57.6536 101.678 57.6536C101.678 57.6536 93.4161 69.5458 57.364 66.8012C57.364 66.8012 44.5755 65.2323 39.4668 62.0006C39.4668 62.0006 29.0185 44.9316 30.4446 29.0284C30.4446 29.0284 31.0104 12.433 49.172 6.09391C49.172 6.09391 61.5621 0.628206 77.715 3.22836L77.7117 3.23172Z" fill="#46638E"/>
<path d="M27.2689 68.0729C25.0921 64.7952 25.5975 60.6201 28.3977 58.7475C31.1979 56.875 35.2326 58.0141 37.4093 61.2918C39.5861 64.5695 39.0807 68.7446 36.2805 70.6172C33.4803 72.4898 29.4457 71.3507 27.2689 68.0729Z" fill="#A8A8A8"/>
<path d="M26.166 68.2781C24.0548 65.0992 24.5448 61.0501 27.2604 59.2341C29.976 57.4181 33.8888 58.523 35.9999 61.7019C38.1111 64.8808 37.6211 68.93 34.9055 70.7459C32.1899 72.5619 28.2771 71.457 26.166 68.2781Z" fill="#EBEBEB"/>
<path d="M28.1717 66.9368C26.9218 65.0548 27.212 62.6575 28.8198 61.5823C30.4276 60.5071 32.7442 61.1612 33.9941 63.0432C35.244 64.9252 34.9538 67.3225 33.346 68.3977C31.7382 69.4729 29.4216 68.8188 28.1717 66.9368Z" fill="#A8A8A8"/>
<path d="M28.9765 66.4199C27.9019 64.8019 28.1521 62.7404 29.5353 61.8154C30.9185 60.8905 32.9109 61.4523 33.9854 63.0703C35.0599 64.6883 34.8097 66.7498 33.4266 67.6748C32.0434 68.5998 30.051 68.0379 28.9765 66.4199Z" fill="#999999"/>
<path d="M29.6807 66.0163C28.7497 64.6145 28.9666 62.8283 30.1652 62.0268C31.3637 61.2253 33.0901 61.712 34.0211 63.1138C34.9521 64.5157 34.7352 66.3019 33.5366 67.1034C32.3381 67.9049 30.6117 67.4182 29.6807 66.0163Z" fill="#A5BCD5"/>
<mask id="mask0_4897_24767" style="mask-type:luminance" maskUnits="userSpaceOnUse" x="30" y="2" width="76" height="66">
<g style="mix-blend-mode:lighten">
<path d="M77.7117 3.23172C99.2479 13.4241 102.74 29.7674 102.74 29.7674C108.511 46.2788 101.678 57.6536 101.678 57.6536C101.678 57.6536 93.4161 69.5458 57.364 66.8012C57.364 66.8012 44.5755 65.2323 39.4668 62.0006C39.4668 62.0006 29.0185 44.9316 30.4446 29.0284C30.4446 29.0284 31.0104 12.433 49.172 6.09391C49.172 6.09391 61.5621 0.628206 77.715 3.22836L77.7117 3.23172Z" fill="white"/>
</g>
</mask>
<g mask="url(#mask0_4897_24767)">
<path fill-rule="evenodd" clip-rule="evenodd" d="M65.6765 78.344C65.6765 78.344 81.1298 81.5287 90.9956 67.2077C90.9956 67.2077 99.6898 57.0388 97.497 33.0798C97.497 33.0798 97.1455 25.3801 89.6063 13.3401C89.6063 13.3401 82.7434 1.73344 66.1619 6.71875C66.1619 6.71875 52.4227 9.65821 39.3965 17.9659C39.3965 17.9659 23.9968 26.9993 29.8722 47.6695C29.8722 47.6695 35.8981 63.808 50.5915 71.8033C50.5915 71.8033 60.4774 77.8737 65.6765 78.344Z" fill="#E87642"/>
<path fill-rule="evenodd" clip-rule="evenodd" d="M30.6857 45.3314C30.6857 45.3314 33.0761 57.0792 43.8291 62.8674C43.8291 62.8674 56.1689 69.5021 66.1419 70.1673C66.1419 70.1673 76.1885 70.7048 81.9367 66.9423C81.9367 66.9423 89.372 62.4676 93.1784 52.2988C93.1784 52.2988 97.8352 42.6675 96.1713 30.2579C96.1713 30.2579 93.4998 16.2359 83.2958 10.4947C83.2958 10.4947 76.1986 6.62808 69.3725 10.3738C69.3725 10.3738 62.0375 13.8306 59.1551 18.9872C59.1551 18.9872 50.5681 16.9346 43.28 20.8181C43.28 20.8181 27.492 27.4159 30.6857 45.3281V45.3314Z" fill="#D36336"/>
<path fill-rule="evenodd" clip-rule="evenodd" d="M30.0095 44.2329C30.0095 44.2329 32.3998 55.9807 43.1528 61.7689C43.1528 61.7689 55.4926 68.4036 65.4656 69.0688C65.4656 69.0688 75.5123 69.6063 81.2604 65.8438C81.2604 65.8438 88.6958 61.3691 92.5022 51.2003C92.5022 51.2003 97.1589 41.5689 95.4951 29.1594C95.4951 29.1594 92.8236 15.1374 82.6196 9.3962C82.6196 9.3962 75.5223 5.52956 68.6962 9.27527C68.6962 9.27527 61.3613 12.7321 58.4789 17.8887C58.4789 17.8887 49.8918 15.8361 42.6038 19.7196C42.6038 19.7196 26.8157 26.3174 30.0095 44.2296V44.2329Z" fill="#E6E6E6"/>
<path d="M34.7766 50.7165C30.9836 42.3147 34.1673 32.67 41.8873 29.1628C49.6072 25.6556 58.9508 29.6096 62.7706 38.0013C66.5871 46.3896 63.4368 56.0478 55.7303 59.5819C48.0237 63.116 38.6667 59.1956 34.8235 50.8173" fill="#CBCBCB"/>
<path fill-rule="evenodd" clip-rule="evenodd" d="M30.5618 46.1982C30.5618 46.1982 25.9888 33.2041 37.3879 23.7441C37.3879 23.7441 46.0419 15.3222 58.5156 17.9156C58.5156 17.9156 51.2543 12.5473 42.1183 15.1777C42.1183 15.1777 31.526 18.5572 29.4202 29.8212C29.4202 29.8212 27.5923 37.2757 30.5618 46.2015V46.1982Z" fill="#B14113"/>
<path d="M66.9855 35.8446C63.1925 27.4428 66.2557 17.8551 73.8316 14.4151C81.4076 10.9751 90.6341 14.9828 94.4539 23.3712C98.2737 31.7596 95.2406 41.364 87.678 44.8309C80.1154 48.2978 70.8789 44.3236 67.0357 35.9453" fill="#CBCBCB"/>
<path fill-rule="evenodd" clip-rule="evenodd" d="M58.4755 17.9324C58.4755 17.9324 60.7822 9.64479 68.4385 5.47916C68.4385 5.47916 75.1206 1.2833 81.9601 5.99651C81.9601 5.99651 87.032 8.60002 91.5481 18.7924C91.5481 18.7924 87.2563 10.9415 80.5105 8.63026C80.5105 8.63026 74.3205 6.49034 69.0277 9.19463C69.0277 9.19463 61.609 12.8261 58.4789 17.9357L58.4755 17.9324Z" fill="#B14113"/>
<path d="M67.9965 36.3921C64.5249 28.7025 67.5345 19.8304 74.7222 16.5651C81.9098 13.2998 90.5571 16.8741 94.0522 24.5537C97.5472 32.2332 94.5644 41.1187 87.3901 44.4076C80.2159 47.6998 71.5552 44.1523 68.0401 36.4828" fill="#F9F9F9"/>
<path d="M36.4271 51.2171C32.9555 43.5275 35.9685 34.652 43.1595 31.3867C50.3505 28.118 59.0011 31.6924 62.4961 39.3719C65.9912 47.0514 63.005 55.937 55.8274 59.2292C48.6498 62.5214 39.9858 58.9772 36.4673 51.3078" fill="#F9F9F9"/>
<path d="M43.4741 50.3369C41.057 44.9753 43.4306 38.6631 48.777 36.2309C54.1233 33.7987 60.4238 36.167 62.861 41.5219C65.2948 46.8767 62.9447 53.1957 57.605 55.6447C52.2653 58.0937 45.9581 55.7488 43.5042 50.4007" fill="#5987D4"/>
<path d="M44.9673 49.6583C42.9218 45.1198 44.9304 39.7784 49.4533 37.7224C53.9761 35.6665 59.3091 37.6687 61.3679 42.2005C63.4268 46.7323 61.4382 52.077 56.9221 54.1498C52.406 56.2225 47.0663 54.2371 44.9907 49.712" fill="#2C5AA0"/>
<path d="M46.2193 49.0939C44.4852 45.2475 46.1859 40.7224 50.0224 38.9789C53.8556 37.2354 58.3751 38.9318 60.1226 42.7716C61.8701 46.6114 60.1829 51.1432 56.353 52.9001C52.5232 54.6571 48.0003 52.974 46.2394 49.141" fill="black"/>
<path d="M44.3445 44.4849C43.7118 43.0773 44.3311 41.4211 45.7338 40.7828C47.1365 40.1446 48.7903 40.766 49.4298 42.1703C50.0692 43.5745 49.4532 45.234 48.0505 45.8757C46.6511 46.5173 44.994 45.9025 44.3512 44.5017" fill="white"/>
<path fill-rule="evenodd" clip-rule="evenodd" d="M52.6236 54.0692C48.0673 56.162 44.4216 59.1956 43.2533 61.873C44.3279 62.4306 47.9535 64.2548 52.5768 65.9479C54.1067 65.5448 55.6802 64.977 57.2101 64.2749C63.7315 61.275 67.9899 56.5652 66.7244 53.75C65.459 50.9349 59.1484 51.076 52.6236 54.0658V54.0692Z" fill="#E6E6E6"/>
<path d="M74.605 36.2409C72.1879 30.8794 74.5614 24.5671 79.9078 22.1349C85.2542 19.7027 91.5547 22.0711 93.9919 27.4259C96.4257 32.7808 94.0756 39.0998 88.7359 41.5488C83.3962 43.9977 77.089 41.6529 74.6351 36.3048" fill="#5987D4"/>
<path d="M76.0981 35.5657C74.0526 31.0272 76.0613 25.6858 80.5841 23.6298C85.1069 21.5739 90.4399 23.5761 92.4988 28.1079C94.5577 32.6397 92.5691 37.9845 88.053 40.0572C83.5368 42.1299 78.1972 40.1445 76.1215 35.6195" fill="#2C5AA0"/>
<path d="M77.3468 34.998C75.6126 31.1515 77.3133 26.6264 81.1498 24.8829C84.983 23.1394 89.5025 24.8359 91.25 28.6757C92.9976 32.5154 91.3103 37.0472 87.4805 38.8042C83.6506 40.5611 79.1278 38.8781 77.3669 35.045" fill="black"/>
<path d="M75.4754 30.3923C74.8426 28.9847 75.462 27.3285 76.8647 26.6903C78.2674 26.052 79.9212 26.6735 80.5606 28.0777C81.2 29.4819 80.5841 31.1414 79.1813 31.7831C77.782 32.4247 76.1248 31.8099 75.4821 30.4091" fill="white"/>
<path fill-rule="evenodd" clip-rule="evenodd" d="M85.5656 38.4951C78.7998 41.5958 74.3941 46.5307 75.7132 49.5273L75.7299 49.5643C77.0958 52.5407 83.6741 52.4332 90.4366 49.3257C91.6452 48.7681 92.8102 48.1332 93.8949 47.4445C94.7251 44.7738 95.6457 40.8265 95.8198 36.1368C92.9474 35.9722 89.1913 36.8356 85.5656 38.4951Z" fill="#E6E6E6"/>
<path fill-rule="evenodd" clip-rule="evenodd" d="M36.4439 59.1821C39.7581 63.6501 44.4316 68.5077 50.6652 71.9007C50.6652 71.9007 60.5511 77.9711 65.7502 78.4414C65.7502 78.4414 81.2035 81.6261 91.066 67.3051C91.066 67.3051 97.5037 59.7734 97.9021 42.3987C95.8432 57.3345 88.8631 66.1931 88.8631 66.1931C82.5727 75.3609 70.8823 75.7539 70.8823 75.7539C54.8097 75.1156 42.828 65.6623 36.4439 59.1754V59.1821Z" fill="#CA5B2C"/>
<path fill-rule="evenodd" clip-rule="evenodd" d="M79.6735 55.3826C79.6032 55.3927 78.1737 55.6648 78.6122 58.3053C78.6122 58.3053 79.1914 63.2301 79.1981 63.304C79.1981 63.304 79.4559 64.6478 78.8566 64.9669C78.8566 64.9669 78.1837 65.276 77.1827 64.5739C77.1827 64.5739 74.3706 62.3601 73.0985 58.0298C73.0985 58.0298 71.6221 53.8004 71.987 51.7579C72.4925 52.2987 79.6668 55.3793 79.6668 55.3793L79.6735 55.3826Z" fill="#CECFCD"/>
<path fill-rule="evenodd" clip-rule="evenodd" d="M78.3043 65.0543C73.5772 63.9928 72.1846 61.527 72.1846 61.527C71.3376 59.7129 71.13 55.7657 71.13 55.7657C71.0698 50.9181 73.1889 49.2921 73.1889 49.2921C75.2813 47.6427 78.0733 48.4926 78.0733 48.4926C78.0733 48.4926 82.6196 50.1656 83.875 56.0882C83.875 56.0882 84.0323 57.1363 81.8395 56.5282C81.8395 56.5282 75.3315 54.862 72.2817 52.3357C72.2817 52.3357 72.1846 56.5349 77.0087 62.9211C77.0087 62.9211 77.7285 63.976 78.6893 64.631C78.6893 64.631 79.5463 65.0342 78.3043 65.051V65.0543Z" fill="#CECFCD"/>
<path d="M71.0397 51.4287C69.4428 56.0949 71.7695 61.3758 71.7695 61.3758C72.1645 61.6513 72.1344 61.3355 72.1344 61.3355C68.5858 45.832 77.9695 48.4825 77.9695 48.4825C77.9695 48.4825 78.1938 48.2608 77.6816 48.029C77.6816 48.029 72.9178 46.1175 71.043 51.4287H71.0397Z" fill="#CECFCD"/>
<path fill-rule="evenodd" clip-rule="evenodd" d="M78.7127 53.6325C78.6357 53.6526 77.1326 54.1599 77.9796 56.8675C77.9796 56.8675 79.2986 61.9536 79.3187 62.0309C79.3187 62.0309 79.7873 63.4049 79.1847 63.8315C79.1847 63.8315 78.5018 64.2615 77.32 63.677C77.32 63.677 73.9656 61.7857 71.9837 57.4319C71.9837 57.4319 69.7909 53.2159 69.898 51.0121C70.5207 51.5026 78.7127 53.6358 78.7127 53.6358V53.6325Z" fill="#9C3A3A"/>
<path fill-rule="evenodd" clip-rule="evenodd" d="M78.5989 64.0062C73.3396 63.6199 71.4849 61.2414 71.4849 61.2414C70.3132 59.4643 69.5332 55.3491 69.5332 55.3491C68.7833 50.2663 70.8455 48.2306 70.8455 48.2306C72.8742 46.1746 76.0111 46.6416 76.0111 46.6416C76.0111 46.6416 81.1599 47.6964 83.3527 53.7299C83.3527 53.7299 83.6674 54.8049 81.2135 54.5059C81.2135 54.5059 73.9455 53.7567 70.2898 51.5731C70.2898 51.5731 70.7785 56.0008 76.8915 61.967C76.8915 61.967 77.8189 62.9614 78.9504 63.5056C78.9504 63.5056 79.9347 63.7945 78.5956 64.0062H78.5989Z" fill="#E7AD52"/>
<path d="M68.8234 50.8106C67.7555 55.9571 71.0162 61.1507 71.0162 61.1507C71.4815 61.3792 71.4045 61.0533 71.4045 61.0533C65.3819 45.3079 75.8972 46.6517 75.8972 46.6517C75.8972 46.6517 76.1082 46.3829 75.519 46.2183C75.519 46.2183 70.1023 44.9451 68.8234 50.8106Z" fill="#F4C57A"/>
</g>
<path d="M76.506 8.72811C75.0991 8.70839 73.9692 7.92994 73.9823 6.98938C73.9954 6.04881 75.1465 5.30232 76.5534 5.32203C77.9603 5.34175 79.0902 6.1202 79.0771 7.06076C79.064 8.00133 77.9129 8.74782 76.506 8.72811Z" fill="white"/>
<path d="M69.8745 8.75266C68.865 8.73851 68.0543 8.18113 68.0637 7.50771C68.0731 6.83429 68.899 6.29985 69.9084 6.31399C70.9178 6.32813 71.7285 6.88551 71.7191 7.55893C71.7097 8.23235 70.8839 8.7668 69.8745 8.75266Z" fill="white"/>
<path fill-rule="evenodd" clip-rule="evenodd" d="M63.9791 9.05014C62.4726 9.71194 58.9306 10.4409 58.9306 10.4409C55.2816 11.311 53.1323 12.0366 53.1323 12.0366C49.8147 13.1855 47.3139 14.7913 47.3139 14.7913C44.013 16.8909 40.1965 20.3376 40.1965 20.3376C37.5317 21.8191 38.2314 19.2358 38.2314 19.2358C38.603 17.9626 41.5591 15.5841 41.5591 15.5841C50.4072 8.14311 62.1847 7.3167 62.1847 7.3167C62.1847 7.3167 64.1029 6.94381 64.6821 7.85084C64.6821 7.85084 65.1675 8.59663 63.9824 9.04678L63.9791 9.05014Z" fill="white"/>
<path fill-rule="evenodd" clip-rule="evenodd" d="M22.9087 92.1544C25.299 97.2203 31.0036 95.8967 31.0036 95.8967C37.0698 103.869 45.1111 99.6391 45.1111 99.6391C51.7497 103.106 55.2816 100.284 55.2816 100.284C55.2816 100.284 57.5447 91.7277 49.1251 80.9609C49.1251 80.9609 37.5251 85.9966 23.6184 82.2073C23.6184 82.2073 22.7916 89.954 22.9121 92.1544H22.9087Z" fill="white"/>
<path fill-rule="evenodd" clip-rule="evenodd" d="M24.0001 81.6563C24.0001 81.6563 23.7523 80.934 22.4199 80.7425C22.4199 80.7425 20.2439 80.4839 19.5911 81.9418C19.5911 81.9418 19.581 82.9362 19.7484 83.6988C19.7484 83.6988 20.4883 89.2216 18.811 93.3066C18.811 93.3066 18.1884 94.1733 19.1826 94.8922L20.033 95.3659C20.033 95.3659 20.4314 95.5977 21.3319 94.993C21.3319 94.993 25.0479 91.8419 24.8404 86.1343C24.6562 83.5107 23.9967 81.6596 23.9967 81.6596L24.0001 81.6563Z" fill="#596673"/>
<path fill-rule="evenodd" clip-rule="evenodd" d="M84.6884 115.059C83.7477 115.804 84.1929 117.084 84.1929 117.084C84.3837 117.706 86.4995 119.604 86.4995 119.604C87.6076 120.551 87.9826 121.855 87.9826 121.855C88.545 123.336 89.7937 123.625 89.7937 123.625C91.6116 124.33 92.646 121.831 92.646 121.831C95.1301 123.108 95.9134 120.42 95.9134 120.42C97.7915 121.972 98.913 120.128 98.913 120.128C100.145 118.438 98.7624 115.324 98.7624 115.324C97.7714 112.579 94.7384 112.331 94.7384 112.331C94.7384 112.331 91.8426 112.173 91.7187 113.557C91.7187 113.557 90.1118 112.586 88.5751 113.416C88.5751 113.416 87.1758 114 87.2796 114.958C87.2796 114.958 85.83 114.178 84.6917 115.055L84.6884 115.059Z" fill="#6E7D8E"/>
<path fill-rule="evenodd" clip-rule="evenodd" d="M67.8993 126.904C68.4383 128.778 69.3054 128.876 69.3054 128.876C70.9726 129.494 71.8664 127.636 71.8664 127.636C73.845 129.564 75.4653 127.404 75.4653 127.404C76.6203 126.104 75.6862 122.758 75.6862 122.758C76.5566 123.551 76.7207 125.123 76.7207 125.123C76.7776 125.879 77.0488 126.759 77.0488 126.759C77.802 128.758 79.496 127.828 79.496 127.828C81.4377 126.46 80.825 123.618 80.825 123.618C80.42 119.506 75.3046 117.356 75.3046 117.356C75.3046 117.356 73.7311 116.805 73.2758 117.716C73.2758 117.716 71.2538 115.633 70.1792 117.501C70.1792 117.501 68.907 116.375 68.0533 117.907C68.0533 117.907 67.665 118.781 67.8792 120.266C67.8792 120.266 68.0935 123.054 67.8022 124.636C67.8022 124.636 67.6315 125.913 67.896 126.904H67.8993Z" fill="#6E7D8E"/>
<path d="M2.05219 41.4177C0.918802 41.4177 9.05991e-06 40.4972 9.05991e-06 39.3618C9.05991e-06 38.2263 0.918802 37.3058 2.05219 37.3058C3.18558 37.3058 4.10437 38.2263 4.10437 39.3618C4.10437 40.4972 3.18558 41.4177 2.05219 41.4177Z" fill="#505050"/>
<path fill-rule="evenodd" clip-rule="evenodd" d="M45.0341 108.854C48.2346 104.362 44.8433 96.6962 44.8433 96.6962C44.8433 96.6962 46.2962 104.456 43.8122 108.34C43.8122 108.34 44.311 108.632 45.0341 108.854Z" fill="#ADADAD"/>
<path fill-rule="evenodd" clip-rule="evenodd" d="M27.8065 101.493C32.7779 99.1318 31.2614 93.189 31.2614 93.189C31.2614 93.189 31.5928 99.0175 25.6572 101.053C26.772 101.487 27.8065 101.493 27.8065 101.493Z" fill="#ADADAD"/>
<path fill-rule="evenodd" clip-rule="evenodd" d="M99.9241 94.8452C99.9241 94.8452 101.477 89.2922 98.0694 80.1144C98.0694 80.1144 101.113 84.9284 101.123 92.0805C101.123 92.0805 100.835 93.7131 99.9241 94.8452Z" fill="#ADADAD"/>
<path fill-rule="evenodd" clip-rule="evenodd" d="M107.868 85.5398C107.868 85.5398 104.43 76.9196 100.604 72.885C100.604 72.885 105.649 76.755 108.427 85.3684C108.427 85.3684 108.15 85.4927 107.868 85.5431V85.5398Z" fill="#ADADAD"/>
<path fill-rule="evenodd" clip-rule="evenodd" d="M108.786 54.3681C109.181 54.6268 109.787 55.2684 109.773 56.807C109.773 56.807 109.83 60.2168 109.803 60.509C109.803 60.509 109.88 60.2907 109.944 60.116C109.763 61.3724 109.535 62.3869 108.943 63.5392C109.606 59.9615 109.545 55.6077 108.782 54.3681H108.786Z" fill="#ADADAD"/>
<path fill-rule="evenodd" clip-rule="evenodd" d="M114.319 54.9056C114.437 55.2416 114.54 55.6413 114.607 56.1285C114.607 56.1285 114.962 58.9134 114.072 60.8148C114.072 60.8148 114.383 60.761 114.745 60.8349C113.312 64.9233 111.477 65.8404 111.477 65.8404C114.53 60.1698 114.45 56.162 114.323 54.9056H114.319Z" fill="#ADADAD"/>
<path fill-rule="evenodd" clip-rule="evenodd" d="M9.6684 79.3585C13.7694 78.1122 19.0053 82.2879 19.0053 82.2879C19.0053 82.2879 19.8322 88.449 18.2621 92.6582C18.2621 92.6582 14.4456 94.3984 6.9634 91.375C6.81275 90.6997 7.18101 90.3302 7.52583 90.1018C14.4356 90.179 15.8182 89.319 15.8182 89.319C10.7732 88.8857 8.60046 88.5027 6.38424 86.7625C6.10972 85.9563 6.28715 85.4658 6.28715 85.4658C6.68219 83.5241 9.5981 83.6047 9.5981 83.6047C11.349 83.6652 14.372 84.1254 16.7322 84.6092C11.3624 83.0907 8.81137 80.504 8.81137 80.504C8.75446 79.8053 9.24323 79.4895 9.6684 79.3585Z" fill="white"/>
<path fill-rule="evenodd" clip-rule="evenodd" d="M89.6564 83.3998C89.6564 83.3998 82.5692 84.8981 81.4008 85.3247C81.4008 85.3247 82.3951 88.3616 82.4353 88.6438C82.4353 88.6438 90.5704 86.44 91.8994 86.2654C91.8994 86.2654 90.8147 83.6954 90.4297 83.2822L89.6598 83.3998H89.6564Z" fill="white"/>
<path fill-rule="evenodd" clip-rule="evenodd" d="M78.5017 84.7033C79.0608 84.5454 79.8006 84.3539 80.3329 84.2699C80.3329 84.2699 81.9164 88.0694 82.2378 90.2966C82.2378 90.2966 78.428 91.4388 76.791 91.6773C76.791 91.6773 75.2544 86.4535 75.2276 85.6708C75.2276 85.6708 76.8245 85.1736 78.5017 84.7033ZM78.6925 85.3919C77.7853 85.6338 76.8211 85.8387 75.944 86.1814C75.9808 86.3829 76.021 86.6483 76.108 86.991C76.2453 87.5386 76.4261 88.2037 76.6035 88.8454C76.8847 89.8465 77.099 90.5654 77.2061 90.9315C78.6122 90.6561 80.6476 90.0043 81.3105 89.7961C80.9556 87.9786 80.1086 85.6775 79.8743 85.0593C79.506 85.1333 79.0708 85.2878 78.6892 85.3953L78.6925 85.3919Z" fill="white"/>
<path fill-rule="evenodd" clip-rule="evenodd" d="M79.4994 85.6943L80.5707 89.3358L77.9494 90.1085L77.6113 89.0906L79.6266 88.5497L79.0809 86.6416L77.089 87.1388L76.8814 86.4233L79.496 85.6876L79.4994 85.6943Z" fill="white"/>
<path fill-rule="evenodd" clip-rule="evenodd" d="M78.6222 87.2766L78.8633 88.1735C78.8633 88.1735 77.474 88.5901 77.4505 88.5027L77.2162 87.683L78.6256 87.2799L78.6222 87.2766Z" fill="white"/>
<path fill-rule="evenodd" clip-rule="evenodd" d="M74.8895 87.0582C74.8895 87.0582 75.6025 90.3571 75.6427 90.5015C75.6427 90.5015 66.2857 93.7198 65.114 94.2707C65.114 94.2707 64.5917 91.9696 64.5281 91.5429C67.6583 89.3022 74.8928 87.0582 74.8928 87.0582H74.8895Z" fill="white"/>
<path fill-rule="evenodd" clip-rule="evenodd" d="M96.8943 103.801C97.0382 102.827 96.4356 102.088 96.4356 102.088C96.4356 102.088 95.0597 102.347 94.5676 102.699C94.5676 102.699 94.0085 106.153 94.042 107.171C94.042 107.171 94.5508 108.189 96.3754 107.06C96.3754 107.06 95.5518 106.989 95.4179 106.768C95.4179 106.768 95.1635 104.725 95.4179 103.959C95.4179 103.959 96.3988 103.66 96.8943 103.801Z" fill="#A5BCD5"/>
<path fill-rule="evenodd" clip-rule="evenodd" d="M95.9603 106.126C96.1946 106.321 96.7671 106.129 96.7671 106.129C96.9378 105.807 97.0516 104.456 97.0516 104.456C97.0516 104.456 96.3821 104.379 95.9435 104.524C95.9435 104.524 95.7929 105.471 95.9603 106.126Z" fill="#A5BCD5"/>
<path fill-rule="evenodd" clip-rule="evenodd" d="M93.7006 104.107C93.7006 104.107 93.4361 105.995 93.3758 106.176C93.3758 106.176 91.9597 106.704 90.8684 106.868L91.5044 104.937C91.5044 104.937 93.4963 104.238 93.7006 104.107Z" fill="#A5BCD5"/>
<path fill-rule="evenodd" clip-rule="evenodd" d="M90.3595 105.793L91.327 103.314C91.327 103.314 87.4436 103.989 86.1815 103.926C86.1815 103.926 85.5086 104.013 85.4216 104.571L84.1929 109.361C84.1929 109.361 85.7764 110.073 87.2796 109.542C87.2796 109.542 87.7114 106.086 87.996 105.79L90.3595 105.797V105.793Z" fill="#A5BCD5"/>
<path fill-rule="evenodd" clip-rule="evenodd" d="M89.8907 106.432C89.8907 106.432 88.9601 108.975 88.8898 108.995L87.9022 109.133L88.4512 106.398L89.8874 106.435L89.8907 106.432Z" fill="#A5BCD5"/>
<path fill-rule="evenodd" clip-rule="evenodd" d="M83.7476 106.875L83.4028 108.682C83.4028 108.682 79.2985 109.603 78.1066 109.405L78.4146 107.843C78.4146 107.843 82.6094 107.366 83.751 106.878L83.7476 106.875Z" fill="#A5BCD5"/>
<path fill-rule="evenodd" clip-rule="evenodd" d="M75.4586 106.492C74.6953 106.586 74.5647 106.915 74.5647 106.915C74.3505 107.413 74.5011 109.099 74.5011 109.099C75.6394 109.677 77.5074 109.2 77.5074 109.2L77.792 107.073C77.792 107.073 77.725 106.761 77.2363 106.637L75.4586 106.489V106.492Z" fill="#A5BCD5"/>
<path fill-rule="evenodd" clip-rule="evenodd" d="M77.2228 109.872L76.7006 111.407C76.7006 111.407 76.5265 111.709 76.021 111.736L74.394 111.474C74.394 111.474 73.8684 111.155 73.9688 110.634L74.317 109.606C74.317 109.606 75.8469 110.187 77.2262 109.872H77.2228Z" fill="#A5BCD5"/>
<path fill-rule="evenodd" clip-rule="evenodd" d="M68.0801 108.8C69.5364 109.304 73.547 109.408 73.547 109.408L73.6809 107.923C73.6809 107.923 68.753 107.789 68.0868 107.527L68.0768 108.8H68.0801Z" fill="#A5BCD5"/>
<path fill-rule="evenodd" clip-rule="evenodd" d="M65.0972 107.11C65.2445 107.732 65.5023 108.011 65.5023 108.011C65.9844 108.578 66.8615 108.306 66.8615 108.306C67.3068 108.185 67.4507 107.56 67.4507 107.56C67.5913 107.265 67.3771 105.78 67.3771 105.78C67.3771 105.78 67.1862 105.337 66.7109 105.206C66.7109 105.206 65.7166 105.179 65.3249 105.431C65.3249 105.431 64.9365 106.102 65.0972 107.107V107.11Z" fill="#A5BCD5"/>
<path fill-rule="evenodd" clip-rule="evenodd" d="M67.424 108.887C67.424 108.887 67.4374 109.764 67.116 109.925C67.116 109.925 66.9854 110.127 66.6339 110.036L65.191 109.707C65.191 109.707 64.94 109.59 64.9935 109.099L65.0638 108.273C65.8673 109.156 67.424 108.887 67.424 108.887Z" fill="#A5BCD5"/>
<path fill-rule="evenodd" clip-rule="evenodd" d="M64.3139 107.191L64.3809 108.679C64.3809 108.679 60.6046 108.115 60.0422 107.587C60.0422 107.587 60.0154 107.006 60.2732 106.808C61.0867 107.046 64.3106 107.191 64.3106 107.191H64.3139Z" fill="#A5BCD5"/>
<path fill-rule="evenodd" clip-rule="evenodd" d="M96.1947 119.53C96.1947 119.53 96.5228 115.552 93.6236 114.568C93.6236 114.568 92.9105 114.43 92.8703 113.873C92.8703 113.873 92.723 113.251 93.7441 113.107C93.7441 113.107 96.2014 112.65 98.133 116.04C98.133 116.04 99.1206 118.085 98.6118 119.342C98.6118 119.342 98.4511 120.044 97.44 120.168C97.44 120.168 96.506 120.511 96.188 119.53H96.1947Z" fill="#A5BCD5"/>
<path fill-rule="evenodd" clip-rule="evenodd" d="M91.7187 114.383C91.7187 114.383 94.7551 115.67 94.7651 119.483C94.7651 119.483 94.7484 120.578 93.9784 121.095C93.9784 121.095 93.3055 121.586 92.7766 120.77C92.7766 120.77 92.3581 120.078 92.3079 119.493C92.3079 119.493 91.7388 117.363 89.8004 116.117C89.8004 116.117 88.699 115.479 88.853 114.605C88.853 114.605 89.3083 113.732 90.4833 113.96C90.4833 113.96 91.4475 114.142 91.7187 114.38V114.383Z" fill="#A5BCD5"/>
<path fill-rule="evenodd" clip-rule="evenodd" d="M91.2166 121.216C91.2166 121.216 90.4834 117.988 87.7382 116.053C87.7382 116.053 86.8544 115.358 85.9907 115.613C85.9907 115.613 84.8525 115.814 85.3111 117.041C85.3111 117.041 85.6861 117.665 86.3121 118.069C86.3121 118.069 88.4814 119.795 88.92 121.623C88.92 121.623 89.5159 123.071 90.2156 122.883C90.2156 122.883 91.5011 122.849 91.2199 121.213L91.2166 121.216Z" fill="#A5BCD5"/>
<path fill-rule="evenodd" clip-rule="evenodd" d="M77.571 124.801C77.571 124.801 76.6069 121.478 75.164 120.827C75.164 120.827 74.1027 120.047 74.1362 119.207C74.1362 119.207 74.3137 118.122 75.6628 118.435C75.6628 118.435 78.6992 120.111 79.7705 124.21C79.7705 124.21 80.2158 125.879 79.5696 126.366C79.5696 126.366 78.8633 127.021 78.2339 126.205C78.2339 126.205 77.6748 125.862 77.5744 124.801H77.571Z" fill="#A5BCD5"/>
<path fill-rule="evenodd" clip-rule="evenodd" d="M72.7067 118.122C72.7067 118.122 74.9364 120.165 74.8158 124.64C74.8158 124.64 74.6384 126.302 73.9488 126.742C73.9488 126.742 72.9813 127.371 72.4255 125.977C72.4255 125.977 72.0205 124.875 72.2816 123.521C72.2816 123.521 72.4657 121.196 72.064 119.836C72.064 119.836 71.6221 118.871 71.7794 118.297C72.0874 117.736 72.7034 118.122 72.7034 118.122H72.7067Z" fill="#A5BCD5"/>
<path fill-rule="evenodd" clip-rule="evenodd" d="M70.149 118.153C70.149 118.153 72.1108 121.908 71.2705 126.027C71.2705 126.027 70.9491 127.152 70.4001 127.324C70.4001 127.324 69.4761 127.65 69.061 126.672C69.061 126.672 68.599 125.809 68.753 124.549C68.753 124.549 69.1145 122.997 68.8902 121.475C68.8902 121.475 68.6827 119.923 68.8166 119.16C68.8166 119.16 69.0677 117.094 70.1523 118.153H70.149Z" fill="#A5BCD5"/>
<path fill-rule="evenodd" clip-rule="evenodd" d="M57.1798 105.814C57.5781 105.384 57.8828 103.244 57.8828 103.244C57.8828 103.244 59.6069 104.077 60.7451 103.885C60.7451 103.885 60.3769 105.316 59.6203 106.113C59.6203 106.113 58.0435 106.516 57.1798 105.817V105.814Z" fill="#A5BCD5"/>
<path fill-rule="evenodd" clip-rule="evenodd" d="M60.8724 103.126C60.8724 103.126 58.9507 102.918 57.9598 102.367C57.9598 102.367 58.3147 99.377 58.2879 98.8698C58.2879 98.8698 60.7016 99.4039 61.5553 99.2494C61.5553 99.2494 61.1837 102.243 60.8724 103.126Z" fill="#A5BCD5"/>
<path fill-rule="evenodd" clip-rule="evenodd" d="M57.923 94.1465C58.1072 94.7646 58.3214 97.9627 58.3214 97.9627C59.2789 98.3927 61.4784 98.3323 61.4784 98.3323C61.4784 98.3323 61.6089 95.46 61.2541 94.0692C61.2541 94.0692 58.7868 94.4287 57.923 94.1431V94.1465Z" fill="#A5BCD5"/>
<path fill-rule="evenodd" clip-rule="evenodd" d="M61.311 93.2563C61.311 93.2563 58.6294 93.6325 57.8059 93.3604C57.8059 93.3604 57.4577 91.4355 57.2501 91.0727C57.2501 91.0727 60.5979 90.515 60.8222 90.4579C60.8222 90.4579 61.2842 92.5239 61.3143 93.2596L61.311 93.2563Z" fill="#A5BCD5"/>
<path fill-rule="evenodd" clip-rule="evenodd" d="M60.715 89.7457C60.715 89.7457 57.5012 90.3672 57.0191 90.4411C57.0191 90.4411 56.5906 88.5901 56.373 88.1634L59.858 87.0112C59.858 87.0112 60.4874 88.4456 60.7184 89.7423L60.715 89.7457Z" fill="#A5BCD5"/>
<path fill-rule="evenodd" clip-rule="evenodd" d="M59.5466 86.3191L56.0951 87.4378C56.0951 87.4378 55.2883 85.103 54.6756 84.2564C54.6756 84.2564 57.4275 83.1747 58.164 83.1277C58.164 83.1277 59.3993 85.365 59.5466 86.3157V86.3191Z" fill="#A5BCD5"/>
<path fill-rule="evenodd" clip-rule="evenodd" d="M57.6753 82.4021L54.2673 83.6014C54.2673 83.6014 53.1123 81.8914 52.667 81.3909C52.667 81.3909 53.4538 79.7784 55.5361 79.2476C55.5361 79.2476 57.1664 80.8971 57.6753 82.4021Z" fill="#A5BCD5"/>
<path fill-rule="evenodd" clip-rule="evenodd" d="M55.0004 78.5959C55.0004 78.5959 52.9482 79.5366 52.2686 80.7695L51.1069 79.7213C51.1069 79.7213 51.6894 77.4504 53.139 76.7651C53.9056 77.1648 55.0004 78.5959 55.0004 78.5959Z" fill="#A5BCD5"/>
<path fill-rule="evenodd" clip-rule="evenodd" d="M50.6952 79.2006C51.0132 77.8233 52.7373 76.3754 52.7373 76.3754L52.3289 75.9588C52.3289 75.9588 50.0959 75.9387 49.5134 77.6318C49.7578 78.4011 50.6952 79.2006 50.6952 79.2006Z" fill="#A5BCD5"/>
<path fill-rule="evenodd" clip-rule="evenodd" d="M91.3905 75.9722L88.8195 76.3686C88.8195 76.3686 90.0481 78.2197 90.115 78.4145L92.4283 77.8904C92.4283 77.8904 91.7688 76.5937 91.3905 75.9722Z" fill="#A5BCD5"/>
<path fill-rule="evenodd" clip-rule="evenodd" d="M92.4552 78.7101L90.3963 79.0864C90.3963 79.0864 92.1204 81.7672 92.405 82.4894L94.3132 82.0057C94.3132 82.0057 93.4997 79.9363 92.7063 78.6228L92.4552 78.7101Z" fill="#A5BCD5"/>
<path fill-rule="evenodd" clip-rule="evenodd" d="M94.6178 82.7448C94.4839 82.7683 92.6962 83.1512 92.6962 83.1512L93.8846 85.8589L95.5719 85.4994L94.6178 82.7448Z" fill="#A5BCD5"/>
<path fill-rule="evenodd" clip-rule="evenodd" d="M95.6992 86.3561L94.2998 86.6013C94.2998 86.6013 95.736 90.4881 95.7561 90.6225L96.7671 90.4646L95.6958 86.3594L95.6992 86.3561Z" fill="#A5BCD5"/>
<path fill-rule="evenodd" clip-rule="evenodd" d="M96.7738 91.17L95.833 91.2876C95.833 91.2876 96.4691 93.0043 96.8374 96.4644C96.8374 96.4644 97.5036 93.2797 96.7738 91.17Z" fill="#A5BCD5"/>
</g>
<defs>
<clipPath id="clip0_4897_24767">
<rect width="116" height="129" fill="white" transform="matrix(-1 0 0 1 116 0)"/>
</clipPath>
</defs>
</svg>
