<svg width="15" height="21" viewBox="0 0 15 21" fill="none" xmlns="http://www.w3.org/2000/svg">
<path d="M4.70827 12.4774L5.81188 12.7718L4.72057 16.8265L4.70922 16.8687C4.60356 17.2611 4.50828 17.615 4.46651 17.8813C4.44543 18.0158 4.42525 18.1988 4.45482 18.384C4.48733 18.5876 4.60098 18.8929 4.93052 19.0637C5.26006 19.2346 5.57586 19.1519 5.76157 19.0615C5.93049 18.9792 6.06906 18.8576 6.16723 18.7631C6.36176 18.576 6.59736 18.2948 6.8586 17.9831L6.88667 17.9496L11.0854 12.9401L11.1216 12.8968C11.5439 12.393 11.914 11.9516 12.1494 11.5681C12.3982 11.1627 12.6012 10.6573 12.4215 10.0879C12.2419 9.51847 11.7859 9.22162 11.3497 9.03309C10.937 8.8547 10.3809 8.7064 9.74623 8.53716C9.72813 8.53233 9.70996 8.52749 9.69173 8.52262L8.58813 8.22823L9.67944 4.17349C9.68323 4.15939 9.68701 4.14534 9.69079 4.13134C9.79644 3.73893 9.89172 3.38502 9.93349 3.11866C9.95457 2.98424 9.97475 2.80121 9.94519 2.61603C9.91268 2.41244 9.79903 2.10712 9.46949 1.93626C9.13994 1.7654 8.82415 1.84806 8.63843 1.93851C8.46951 2.02078 8.33094 2.14243 8.23278 2.23688C8.03824 2.42403 7.80264 2.70519 7.5414 3.01693C7.53207 3.02806 7.52272 3.03922 7.51333 3.05042L3.31464 8.05992C3.30251 8.07439 3.29042 8.08882 3.27837 8.10319C2.85607 8.60696 2.486 9.04841 2.25058 9.43194C2.00176 9.83729 1.79883 10.3427 1.97847 10.9121C2.15812 11.4815 2.61414 11.7784 3.05032 11.9669C3.46302 12.1453 4.01915 12.2936 4.65377 12.4628L4.70827 12.4774Z" fill="#00BDB9" stroke="#006B7E" stroke-width="1.5"/>
</svg>
