<svg width="61" height="77" viewBox="0 0 61 77" fill="none" xmlns="http://www.w3.org/2000/svg">
<path d="M14.1363 58.1576C14.7819 60.3342 12.7897 61.3303 12.7897 61.3303C7.7907 64.4293 6.96061 60.8876 6.96061 60.8876C6.97906 60.8323 6.61013 57.1984 10.1887 56.276C13.5091 55.6673 14.1363 58.1576 14.1363 58.1576Z" fill="#173C3F"/>
<path d="M8.85274 56.8455C6.70581 58.1956 6.97165 60.8496 6.95594 60.8968C6.95594 60.8968 7.05344 61.2746 7.35736 61.6821C7.88508 61.9102 8.67493 62.0742 9.61149 61.6309C9.61149 61.6309 10.355 61.344 10.2637 60.5484C10.2637 60.5484 10.2364 60.2879 9.82593 60.2695C9.82593 60.2695 8.85505 59.1787 8.85505 58.944C8.85505 58.7092 8.88109 57.7179 8.85505 57.1701C8.84988 57.0657 8.85134 56.9551 8.85281 56.8455H8.85274Z" fill="#224F52"/>
<path d="M11.5907 52.6053C11.5907 52.6053 10.7797 64.4946 17.8754 69.9729C17.8754 69.9729 22.4146 73.8859 26.9015 73.5207C26.9015 73.5207 30.1846 73.3021 30.7749 71.6419C30.8487 71.5312 31.1254 70.2584 30.2584 69.0594C30.2584 69.0594 28.0818 66.4769 28.2293 61.6071C28.2293 61.6071 28.1555 58.1023 29.4099 53.1218C29.4099 53.1218 31.1807 47.5141 29.1148 43.4559C29.1148 43.4559 25.3886 36.889 18.4159 39.9511C12.3286 42.9025 11.5538 52.3839 11.5907 52.6053Z" fill="#BCB9A8"/>
<path d="M27.99 71.9889C27.99 71.9889 18.3487 70.5602 13.4443 59.3949C13.4443 59.3949 23.2616 56.6687 21.7027 50.4526C21.7027 50.4526 22.2766 50.1306 22.7767 47.1772C22.7767 47.1772 23.702 47.1015 23.6088 47.6895C23.119 50.7787 21.357 63.1557 27.99 71.9889Z" fill="#D6D4C8"/>
<path d="M26.3012 46.2857C26.3012 46.2857 20.2229 52.4944 24.8665 65.2249C24.8665 65.2249 26.8491 71.2771 31.91 72.738C31.91 72.738 32.4902 72.9884 32.3057 72.1952C32.3057 72.1952 30.5533 67.7312 31.5863 63.8575C31.5863 63.8575 32.2319 61.275 32.5271 60.74C32.5271 60.74 35.5707 55.7042 35.0911 50.8712C35.0911 50.8712 34.6484 46.9606 32.2135 45.5033C32.2135 45.5033 29.6122 43.2681 26.3012 46.2857Z" fill="#224F52"/>
<path d="M32.2604 45.5326C32.1889 45.5836 32.1074 45.6418 32.1074 45.6418C35.7967 49.1835 33.6273 54.4075 33.6273 54.4075C32.9229 56.3379 30.6533 59.9118 30.6533 59.9118C28.462 63.6423 30.4841 69.8804 30.4841 69.8804C25.9712 65.9047 23.9243 60.0548 23.144 57.1659C23.254 59.4781 23.7494 62.1622 24.8665 65.225C24.8665 65.225 26.8491 71.2772 31.91 72.7381C31.91 72.7381 32.4902 72.9884 32.3058 72.1953C32.3058 72.1953 30.5534 67.7312 31.5864 63.8575C31.5864 63.8575 32.232 61.275 32.5271 60.7401C32.5271 60.7401 35.5708 55.7042 35.0912 50.8712C35.0912 50.8712 34.6538 47.0119 32.2604 45.5326Z" fill="#173C3F"/>
<path d="M18.8405 42.6075C18.8405 42.6075 23.7709 46.3118 27.8927 46.6249C27.8927 46.6249 28.8319 46.7553 28.9493 46.4423C28.9493 46.4423 33.9971 46.7292 36.8145 44.277C36.8145 44.277 36.984 44.1336 37.0884 44.3227C37.0884 44.3227 37.1536 44.4857 37.108 44.6618C37.108 44.6618 37.0428 45.2292 37.4406 45.3923C37.4406 45.3923 38.2136 45.7379 38.8363 44.6879C38.8363 44.6879 42.091 40.4899 41.6928 35.0944C41.6928 35.0944 41.6766 34.7307 41.9164 34.9889C41.9164 34.9889 42.4052 35.736 42.8848 35.5515C44.845 34.7591 43.9605 27.1113 39.658 22.8073C39.658 22.8073 39.4939 22.6615 39.6384 22.6117C39.6384 22.6117 39.795 22.54 40.108 22.7291C40.108 22.7291 40.7404 23.1325 41.1185 22.7221C41.1185 22.7221 41.6674 22.1226 40.5975 21.2741C40.5975 21.2741 39.6936 20.5085 38.1718 20.4255C38.1718 20.4255 37.8971 20.4367 38.0438 20.166C38.0438 20.166 39.2878 18.5901 38.7621 16.9392C38.7621 16.9392 38.5407 16.2474 38.1165 16.4411C38.1165 16.4411 37.8859 16.4642 37.4569 17.0959C37.4569 17.0959 36.5116 18.8299 33.3204 19.3833C33.3204 19.3833 28.2108 19.9367 24.0234 22.4638C24.0234 22.4638 23.0927 23.1204 22.0361 23.4856C22.0361 23.4856 19.884 24.0856 18.9057 24.9465C18.9057 24.9465 19.3104 24.0318 18.8953 23.0541C18.8953 23.0541 18.6648 22.5376 18.1944 22.7959C18.1944 22.7959 17.8439 22.9619 17.8347 23.6998C17.8347 23.6998 17.7978 24.7235 17.3551 25.1201C17.3551 25.1201 16.2839 24.2226 15.11 24.0139C15.11 24.0139 14.3469 23.9095 14.1904 24.4834C14.1904 24.4834 14.0666 25.4748 15.2927 25.9574C15.2927 25.9574 12.9187 26.1716 10.2624 26.9648C10.2624 26.9648 7.71684 27.5366 5.76153 27.0385C5.76153 27.0385 4.30426 26.5036 3.32661 25.5628C3.32661 25.5628 2.62564 24.7696 2.14604 25.4614C2.14604 25.4614 1.59265 27.2783 3.06836 29.1045C3.06836 29.1045 3.26643 29.3161 3.06389 29.3943C3.06389 29.3943 2.96222 29.4642 2.66708 29.2567C2.66708 29.2521 1.77711 28.5327 1.03003 28.9939C1.03003 28.9939 -0.385759 30.0074 1.89687 33.0074C1.89687 33.0074 2.17733 33.2226 1.94904 33.5748C1.94904 33.5748 0.527332 35.1857 0.501286 36.6857C0.501286 36.6857 0.449086 37.3509 1.00993 37.3248C1.00993 37.3248 1.16835 37.3224 1.36661 37.2486C1.36661 37.2486 1.59719 37.1287 1.61563 37.3501C1.61563 37.3501 0.891686 42.7917 3.3635 43.8616C3.3635 43.8616 4.03679 44.0922 4.2766 43.7971C4.2766 43.7971 6.3317 47.577 10.6361 46.7553C10.6361 46.7553 13.4666 46.1553 16.4665 43.1031C16.4665 43.1031 17.7158 41.6115 18.8405 42.6075Z" fill="#224F52"/>
<path d="M39.8109 22.9641C41.7679 25.621 42.1569 30.3722 42.1569 30.3722C42.3293 32.2375 41.5024 32.7149 41.5024 32.7149C40.9121 33.176 40.0636 32.5304 40.0636 32.5304C40.3403 37.474 38.1683 40.2306 38.1683 40.2306C37.9336 40.6415 37.6335 40.3742 37.6335 40.3742C37.2684 40.1263 37.0466 40.4654 37.0466 40.4654C36.9813 40.6089 36.0976 41.4585 36.0976 41.4585C30.5637 46.8079 20.4551 41.2371 20.4551 41.2371C18.3165 39.8572 16.842 41.1306 16.842 41.1306C16.842 41.1306 9.20278 48.1545 4.96011 42.7682C4.96011 42.7682 2.25945 39.3828 2.20728 35.6262C2.20728 35.6262 2.20733 34.335 3.02901 33.2132C3.05506 33.135 3.40727 32.6392 3.10726 32.1305C3.10726 32.1305 1.38589 28.2607 0.66139 29.5997C0.493528 30.1923 0.570347 31.2638 1.89694 33.0074C1.89694 33.0074 2.17747 33.2228 1.94918 33.5749C1.94918 33.5749 0.527327 35.1857 0.501281 36.6857C0.501281 36.6857 0.449154 37.351 1.01 37.3249C1.01 37.3249 1.16841 37.3225 1.36668 37.2487C1.36668 37.2487 1.59725 37.1287 1.6157 37.3501C1.6157 37.3501 0.891753 42.7918 3.36357 43.8617C3.36357 43.8617 4.03672 44.0923 4.27652 43.7971C4.27652 43.7971 6.33177 47.5772 10.6361 46.7554C10.6361 46.7554 13.4666 46.1554 16.4666 43.1032C16.4666 43.1032 17.7159 41.6115 18.8406 42.6075C18.8406 42.6075 23.771 46.3118 27.8928 46.6249C27.8928 46.6249 28.8319 46.7553 28.9493 46.4423C28.9493 46.4423 33.9971 46.7293 36.8146 44.2772C36.8146 44.2772 36.9842 44.1336 37.0885 44.3227C37.0885 44.3227 37.1537 44.4858 37.1081 44.6619C37.1081 44.6619 37.0428 45.2292 37.4406 45.3923C37.4406 45.3923 38.2136 45.738 38.8363 44.688C38.8363 44.688 42.091 40.49 41.6929 35.0945C41.6929 35.0945 41.6766 34.7307 41.9165 34.989C41.9165 34.989 42.4052 35.736 42.8848 35.5516C44.8214 34.7686 43.981 27.2942 39.8109 22.9641Z" fill="#173C3F"/>
<path d="M15.162 42.9988C15.162 42.9988 6.13023 47.8591 6.49916 57.9308C6.49916 57.9308 6.58815 61.9713 7.80561 61.6393C7.80561 61.6393 9.89329 60.943 11.5166 58.5265C11.5166 58.5265 11.9011 57.8293 13.0228 57.4771C13.0228 57.4771 18.2402 55.651 19.6751 52.9119C19.6751 52.9119 20.2556 51.3334 19.3794 50.4756C19.3794 50.4756 23.0029 47.4074 20.2417 44.1383C20.2417 44.1383 18.2356 41.5272 15.162 42.9988Z" fill="#224F52"/>
<path d="M17.0161 42.5491C16.4573 42.5503 15.8381 42.6763 15.1681 42.9961C15.039 43.0916 14.826 43.2484 14.826 43.2484C13.9221 46.4581 15.6023 48.2732 15.6023 48.2732C16.4257 49.3771 17.2348 48.5061 17.2348 48.5061C17.9246 47.6632 19.0286 46.9939 19.0286 46.9939C18.8718 48.3497 17.2978 48.9853 17.2978 48.9853C14.9828 49.8246 14.0697 51.3187 14.0697 51.3187C13.8206 52.1488 14.6784 51.4755 14.6784 51.4755C15.693 50.4794 17.925 49.7231 17.925 49.7231C18.4968 50.1843 18.4046 51.4202 18.4046 51.4202C18.1648 53.6522 15.1027 54.7959 15.1027 54.7959C11.1736 56.5667 9.58721 59.0385 9.58721 59.0385C9.20249 59.8306 9.60197 60.1567 9.96838 60.2912C10.4792 59.8444 11.0196 59.2664 11.5167 58.5265C11.5167 58.5265 11.9012 57.8293 13.0228 57.4771C13.0228 57.4771 18.2404 55.651 19.6752 52.9119C19.6752 52.9119 20.2557 51.3334 19.3795 50.4757C19.3795 50.4757 23.0029 47.4074 20.2418 44.1383C20.2418 44.1383 19.0173 42.5446 17.0161 42.5491Z" fill="#173C3F"/>
<path d="M29.1661 41.2035C34.0647 41.2035 38.0357 37.1741 38.0357 32.2035C38.0357 27.2329 34.0647 23.2034 29.1661 23.2034C24.2676 23.2034 20.2965 27.2329 20.2965 32.2035C20.2965 37.1741 24.2676 41.2035 29.1661 41.2035Z" fill="#173C3F"/>
<path d="M17.4512 40.3048C17.4512 40.3048 14.7818 41.4083 14.8187 44.0092C14.8187 44.0092 14.8556 45.9276 15.8702 47.3295C15.8702 47.3295 16.2576 47.9567 16.9032 47.4218C16.9032 47.4218 17.2537 46.9975 17.6041 46.5363C17.6041 46.5363 18.6187 44.9961 19.9653 44.2121C19.9653 44.2121 21.1643 43.5941 20.7031 41.7403C20.7031 41.7403 19.8283 39.2822 17.4512 40.3048Z" fill="#FAB84A"/>
<path d="M17.9153 40.1431C17.7673 40.1823 17.6129 40.2352 17.4512 40.3047C17.4512 40.3047 14.7818 41.4082 14.8187 44.0092C14.8187 44.0092 14.8556 45.9276 15.8702 47.3295C15.8702 47.3295 16.2576 47.9567 16.9032 47.4217C16.9032 47.4217 16.986 47.3199 17.0584 47.2306C16.692 47.1913 16.2452 46.9799 16.1192 45.6509C16.1192 45.6509 15.8249 42.8762 17.9153 40.1431Z" fill="#D2952F"/>
<path d="M26.2235 73.0707C26.2235 73.0707 25.5712 71.838 24.4365 72.8685C24.4365 72.8685 23.7451 73.4555 23.8104 74.5642C23.8104 74.5642 23.8234 76.2859 25.0626 76.4163C25.0626 76.4163 25.8321 76.4815 26.3278 76.2598C26.3278 76.2598 26.8626 77.1989 28.1799 76.5076C28.1799 76.5076 28.793 76.2468 29.093 75.6207C29.093 75.6207 29.68 76.1946 30.1757 75.725C30.1757 75.725 30.8278 75.3076 30.7235 74.1859C30.7235 74.1859 30.6974 72.712 29.4974 72.3468C29.4974 72.3468 28.4865 71.9098 28.0561 72.9663C27.7271 72.1653 26.4284 71.9475 26.2235 73.0707Z" fill="#CE9434"/>
<path d="M20.6012 75.2293C20.6012 75.2293 21.0056 74.3163 22.4405 73.7294C22.4405 73.7294 23.6273 73.3902 23.797 72.8424C23.797 72.7902 23.9666 72.3467 23.5622 72.0337C23.5622 72.0337 22.6621 71.3554 21.5143 71.9163C21.5143 71.9163 21.4702 71.2349 20.5617 71.4585C20.5617 71.4585 20.4677 70.8434 19.6017 70.91C19.6017 70.91 16.9654 70.9176 15.6886 73.5728C15.6886 73.5728 15.2665 74.2902 15.9969 74.6424C15.9969 74.6424 16.5317 74.8381 16.8186 74.3946C16.8186 74.3946 17.1056 75.3598 17.8099 75.3207C17.8099 75.3207 18.4882 75.425 18.7882 74.6424C18.7882 74.6424 19.036 75.7511 19.8839 75.6859C19.8839 75.6859 20.4577 75.712 20.6012 75.2293Z" fill="#CE9434"/>
<path d="M28.4918 42.6434C33.1216 42.6434 36.8748 38.915 36.8748 34.3158C36.8748 29.7166 33.1216 25.9882 28.4918 25.9882C23.8621 25.9882 20.1089 29.7166 20.1089 34.3158C20.1089 38.915 23.8621 42.6434 28.4918 42.6434Z" fill="#173C3F"/>
<path d="M28.8298 41.59C33.4392 41.59 37.1759 37.8534 37.1759 33.244C37.1759 28.6346 33.4392 24.898 28.8298 24.898C24.2204 24.898 20.4838 28.6346 20.4838 33.244C20.4838 37.8534 24.2204 41.59 28.8298 41.59Z" fill="#D6D4C8"/>
<path d="M10.2475 43.9013C13.9298 43.9013 16.9149 40.8832 16.9149 37.1601C16.9149 33.4371 13.9298 30.419 10.2475 30.419C6.5652 30.419 3.58008 33.4371 3.58008 37.1601C3.58008 40.8832 6.5652 43.9013 10.2475 43.9013Z" fill="#173C3F"/>
<path d="M10.369 43.0343C13.9698 43.0343 16.8889 40.1153 16.8889 36.5145C16.8889 32.9137 13.9698 29.9947 10.369 29.9947C6.76822 29.9947 3.84924 32.9137 3.84924 36.5145C3.84924 40.1153 6.76822 43.0343 10.369 43.0343Z" fill="#D6D4C8"/>
<path d="M33.4333 37.1165C30.4684 38.1441 27.2352 36.5836 26.2118 33.6309C25.1884 30.6783 26.7624 27.4516 29.7273 26.4239C32.6922 25.3963 35.9253 26.9569 36.9487 29.9095C37.9721 32.8622 36.3982 36.0889 33.4333 37.1165Z" fill="#FAB84A"/>
<path d="M33.2095 36.4718C30.6021 37.3755 27.7588 36.0032 26.8588 33.4066C25.9588 30.8099 27.3429 27.9724 29.9503 27.0687C32.5577 26.1649 35.401 27.5373 36.301 30.1339C37.2009 32.7305 35.8168 35.5681 33.2095 36.4718Z" fill="#CF7B14"/>
<path d="M32.9048 35.7203C30.6952 36.4862 28.2855 35.3232 27.5228 33.1226C26.7601 30.9221 27.9331 28.5173 30.1428 27.7514C32.3525 26.9855 34.7621 28.1486 35.5248 30.3491C36.2875 32.5497 35.1145 34.9545 32.9048 35.7203Z" fill="#201E1E"/>
<path d="M34.5786 30.1104C33.8691 30.3563 33.0956 29.9829 32.8507 29.2764C32.6058 28.5699 32.9824 27.7979 33.6918 27.552C34.4012 27.3061 35.1748 27.6795 35.4197 28.386C35.6646 29.0925 35.288 29.8645 34.5786 30.1104Z" fill="#FEFEFE"/>
<path d="M13.9531 40.1565C11.6713 40.9474 9.18316 39.7464 8.39557 37.4741C7.60798 35.2018 8.81923 32.7186 11.101 31.9277C13.3827 31.1369 15.8709 32.3379 16.6585 34.6102C17.4461 36.8825 16.2348 39.3657 13.9531 40.1565Z" fill="#FAB84A"/>
<path d="M13.781 39.6604C11.7745 40.3559 9.58633 39.2998 8.89372 37.3014C8.20111 35.3031 9.26629 33.1194 11.2729 32.4239C13.2795 31.7284 15.4676 32.7846 16.1602 34.7829C16.8528 36.7812 15.7876 38.9649 13.781 39.6604Z" fill="#CF7B14"/>
<path d="M13.5464 39.0821C11.8459 39.6715 9.99147 38.7765 9.4045 37.083C8.81753 35.3894 9.72025 33.5388 11.4208 32.9494C13.1213 32.36 14.9757 33.255 15.5627 34.9485C16.1497 36.642 15.2469 38.4927 13.5464 39.0821Z" fill="#201E1E"/>
<path d="M15.0435 35.2083C14.4976 35.3976 13.9022 35.1102 13.7138 34.5665C13.5253 34.0228 13.8152 33.4287 14.3611 33.2394C14.907 33.0502 15.5024 33.3376 15.6908 33.8813C15.8793 34.425 15.5895 35.0191 15.0435 35.2083Z" fill="#FEFEFE"/>
<path d="M4.30687 35.2211C4.30687 35.2211 9.81129 33.6037 18.107 33.9689C18.107 33.7863 17.7939 30.6819 17.5852 30.3167C17.3765 29.9515 17.22 29.4559 16.0722 29.0385C14.9243 28.6211 12.6287 28.308 11.9765 28.308C11.3243 28.308 7.82864 28.2298 7.59386 28.308C7.35907 28.3863 6.39381 28.1776 5.81991 28.9863C5.246 29.795 4.56777 30.3167 4.15037 30.8124C3.73296 31.3081 3.44605 30.9689 3.3156 31.7255C3.18514 32.482 3.133 32.9515 2.9765 33.5776C2.82 34.2037 2.5852 34.6211 2.61125 34.9342C2.63737 35.2472 3.08077 35.6385 3.08077 35.6385L4.30687 35.2211Z" fill="#224F52"/>
<path d="M3.18434 34.9645C3.18434 34.9645 8.40179 33.1645 15.7062 33.1384C15.7062 33.1384 15.6194 32.6073 15.8684 32.2752C15.8684 32.2752 16.2927 31.602 16.9752 32.2845C16.9752 32.2845 17.3441 32.8471 17.4824 33.548C17.4824 33.548 17.6715 34.1291 16.9106 34.1476C16.9106 34.1476 9.3107 33.834 3.703 35.5679C3.703 35.5679 3.14039 35.7432 2.91903 35.4849C2.91903 35.4849 2.62881 35.1451 3.18434 34.9645Z" fill="#173C3F"/>
<path d="M19.7588 71.4871C17.7538 71.4677 16.7869 73.7916 16.762 73.8227C16.4359 74.2988 16.0185 74.1619 16.0185 74.1619C15.5665 74.0305 15.7608 73.4732 15.8539 73.2595C15.7969 73.3601 15.7412 73.4634 15.6886 73.5728C15.6886 73.5728 15.2665 74.2902 15.9969 74.6424C15.9969 74.6424 16.5318 74.8382 16.8187 74.3947C16.8187 74.3947 17.1056 75.3599 17.8099 75.3207C17.8099 75.3207 18.4882 75.425 18.7882 74.6424C18.7882 74.6424 19.0361 75.7511 19.884 75.6859C19.884 75.6859 20.4577 75.712 20.6013 75.2294C20.6013 75.2294 21.0056 74.3164 22.4404 73.7295C22.4404 73.7295 22.4599 73.7238 22.4855 73.7158C22.4855 73.7145 22.4878 73.6895 22.4878 73.6895C21.0674 73.7633 20.486 74.6901 20.486 74.6901C20.1274 75.2836 19.5208 74.9837 19.5208 74.9837C19.012 74.8271 19.0317 74.1423 19.0317 74.1423C19.2013 72.5054 21.1056 72.0423 21.1056 72.0423C18.999 72.1662 18.6534 73.9662 18.6534 73.9662C18.5425 74.2662 18.4121 74.4097 18.4121 74.4097C17.9686 74.8662 17.4012 74.5401 17.4012 74.5401C17.1078 74.4096 17.2056 73.9466 17.2056 73.9466C17.8447 71.651 20.0622 71.5075 20.0622 71.5075C19.9585 71.4947 19.8574 71.488 19.7589 71.4871H19.7588Z" fill="#AD7821"/>
<path d="M27.0931 72.297C26.7017 72.2828 26.3259 72.5092 26.2234 73.0707C26.007 73.8554 25.8535 74.8753 26.1535 75.7597C24.9613 76.1151 24.0008 75.3871 23.8209 74.156C23.8067 74.2832 23.8017 74.4189 23.8102 74.5642C23.8102 74.5642 23.8233 76.286 25.0624 76.4164C25.0624 76.4164 25.8319 76.4815 26.3276 76.2598C26.3276 76.2598 26.8625 77.199 28.1798 76.5077C28.1798 76.5077 28.7929 76.2467 29.0929 75.6207C29.0929 75.6207 29.6798 76.1946 30.1755 75.725C30.1755 75.725 30.8276 75.3076 30.7233 74.1859C30.7233 74.1859 30.714 73.7659 30.5247 73.3189C30.613 75.6123 29.6884 75.4336 29.6884 75.4336C29.5693 75.5073 29.3466 75.3714 29.133 75.1942C29.0442 74.2346 28.1752 73.2032 28.1752 73.2032C28.4603 73.9167 28.5691 74.1811 28.604 74.7986C28.601 74.8838 28.5941 74.9694 28.5796 75.0553L28.5804 75.056C28.4216 75.8311 27.4999 76.4558 26.927 75.988C26.0744 75.2967 26.5587 73.0163 26.5587 73.0163C26.7606 72.0416 27.8487 72.6555 27.8487 72.6555L27.833 72.6318C27.6335 72.4285 27.3596 72.3068 27.0927 72.2972L27.0931 72.297Z" fill="#AD7821"/>
<path d="M40.9077 16.5122C40.8779 16.2582 40.8593 16.023 40.8524 15.8065C40.8283 15.0468 40.9489 14.4949 41.214 14.1508C41.5527 13.7109 41.9943 13.4398 42.5393 13.3375C42.7335 13.3016 42.924 13.2806 43.1109 13.2747C43.4462 13.264 43.7704 13.3005 44.0831 13.384C44.5717 13.5172 44.9459 13.7984 45.2061 14.2278C45.4351 14.6156 45.5593 15.1151 45.5788 15.7264L45.5854 15.9365C45.5782 16.6462 45.4505 17.2387 45.2022 17.714C44.9581 18.1849 44.5741 18.5327 44.05 18.7576L44.0673 19.9233L42.712 19.9919L42.6252 17.8724C43.3095 17.7487 43.7202 17.434 43.857 16.9283C43.952 16.5769 43.994 16.2356 43.9835 15.9045C43.979 15.7645 43.9659 15.6268 43.9442 15.4915C43.8623 15.048 43.5796 14.834 43.0956 14.8493L43.0628 14.8504C42.6386 14.8767 42.4385 15.2697 42.4627 16.0294C42.4673 16.1737 42.4789 16.3284 42.4972 16.4935L40.9077 16.5122ZM43.5272 22.528C43.2725 22.5361 43.051 22.4518 42.8627 22.2751C42.6743 22.0984 42.5762 21.8827 42.5681 21.628C42.5598 21.3691 42.644 21.1455 42.8208 20.9572C42.9975 20.7689 43.2132 20.6706 43.4678 20.6625C43.7267 20.6543 43.9503 20.7386 44.1387 20.9153C44.327 21.092 44.4253 21.3098 44.4335 21.5687C44.4416 21.8233 44.3573 22.0448 44.1806 22.2332C44.0039 22.4215 43.786 22.5198 43.5272 22.528Z" fill="black"/>
<path d="M49.9457 6.05101C50.0337 5.5543 50.1323 5.09946 50.2423 4.68664C50.6283 3.23779 51.1698 2.26374 51.8661 1.76439C52.7557 1.12583 53.744 0.864696 54.8315 0.981079C55.2188 1.02358 55.5905 1.09227 55.9469 1.18724C56.5864 1.35761 57.1781 1.61064 57.7213 1.94607C58.5687 2.47528 59.1158 3.2192 59.3632 4.17802C59.5754 5.04077 59.5263 6.05496 59.2157 7.22055L59.109 7.62122C58.692 8.95785 58.1142 10.0045 57.3751 10.7612C56.6464 11.512 55.7234 11.9509 54.6057 12.0779L53.976 14.2898L51.3769 13.6493L52.4171 9.59627C53.7802 9.75135 54.7347 9.39021 55.2805 8.51269C55.6596 7.90286 55.9328 7.28214 56.1011 6.65075C56.1722 6.38365 56.2257 6.11614 56.2616 5.84829C56.3587 4.96392 55.9464 4.39895 55.0234 4.15304L54.9609 4.13638C54.1446 3.94507 53.5434 4.57376 53.1574 6.02249C53.084 6.29771 53.0181 6.59655 52.9589 6.91885L49.9457 6.05101ZM51.4758 18.903C50.9901 18.7736 50.6197 18.4885 50.3643 18.0477C50.1089 17.6069 50.046 17.1437 50.1754 16.658C50.307 16.1643 50.5931 15.7897 51.0339 15.5344C51.4748 15.2791 51.9379 15.2161 52.4236 15.3455C52.9172 15.477 53.2919 15.7633 53.5472 16.2041C53.8026 16.6449 53.8644 17.1121 53.7329 17.6059C53.6035 18.0915 53.3185 18.462 52.8776 18.7174C52.4367 18.9726 51.9694 19.0345 51.4758 18.903Z" fill="black"/>
<path d="M46.9567 28.6579C46.8343 28.3504 46.7324 28.0626 46.6512 27.7943C46.3666 26.8528 46.3325 26.1225 46.5487 25.6036C46.8246 24.9403 47.2859 24.4535 47.9328 24.1431C48.1635 24.0332 48.3946 23.9432 48.6262 23.8732C49.0418 23.7476 49.4593 23.6845 49.878 23.6842C50.5335 23.687 51.0954 23.9132 51.5643 24.3628C51.9805 24.7709 52.3031 25.3537 52.5321 26.1111L52.6108 26.3715C52.8395 27.2611 52.8784 28.0445 52.7272 28.7217C52.5797 29.3921 52.2162 29.9555 51.6365 30.4121L52.0485 31.8634L50.3774 32.4031L49.559 29.7829C50.373 29.399 50.7809 28.8681 50.7826 28.1901C50.7836 27.7191 50.7218 27.2785 50.5978 26.8682C50.5453 26.6946 50.4828 26.5269 50.4104 26.3651C50.1594 25.8381 49.7343 25.6652 49.1345 25.8466L49.0939 25.8589C48.5725 26.0339 48.454 26.5921 48.7386 27.5336C48.7927 27.7124 48.8591 27.9019 48.9372 28.1022L46.9567 28.6579ZM52.2457 35.3001C51.9301 35.3955 51.6251 35.3643 51.3305 35.2065C51.0359 35.0487 50.8409 34.8119 50.7455 34.4963C50.6485 34.1755 50.6788 33.8678 50.8367 33.5732C50.9945 33.2786 51.2312 33.0836 51.5468 32.9882C51.8676 32.8912 52.1754 32.9216 52.47 33.0794C52.7646 33.2372 52.9603 33.4765 53.0573 33.7974C53.1528 34.113 53.1216 34.4181 52.9638 34.7127C52.8059 35.0073 52.5665 35.2031 52.2457 35.3001Z" fill="black"/>
</svg>
