<svg width="60" height="70" viewBox="0 0 60 70" fill="none" xmlns="http://www.w3.org/2000/svg">
<path fill-rule="evenodd" clip-rule="evenodd" d="M13.9031 0.000921634H13.8984C11.2539 -0.0267426 9.69784 0.718346 9.67244 0.731256C5.73816 2.1283 5.26589 5.91276 5.23203 6.22537C3.16234 8.33799 1.5875 10.8628 0.739872 13.478C-0.127513 16.1568 -0.237583 18.9186 0.437887 21.3669C0.658026 22.2973 1.12653 23.699 2.15478 25.5165L2.15008 25.5082C2.15008 25.5082 2.26485 25.736 2.41349 26.0615C2.19994 30.6722 4.36088 33.5576 4.60924 33.8739C4.76874 34.3765 4.98389 34.8604 5.25084 35.317V35.3226C6.1521 36.774 7.59147 37.8658 9.42408 38.5123C11.2567 39.1587 13.4816 39.3689 15.9361 39.143C20.8497 38.6948 26.6824 36.4485 31.85 33.0458C37.0177 29.6431 41.4524 25.1246 43.9172 20.7242C46.382 16.3237 46.8665 12.0496 45.0866 9.1338L45.0358 9.05173V9.04712C44.3799 8.04026 43.481 7.20731 42.4186 6.62189C39.0949 4.0399 34.0307 3.86653 31.6346 3.92739C30.4878 3.74297 28.1001 3.23856 25.9844 2.08311C25.96 2.06963 25.9341 2.0591 25.9072 2.05176C23.3672 0.519165 20.13 -0.0922144 16.8119 0.320904C15.8565 0.123307 14.884 0.0158485 13.9078 0L13.9031 0.000921634Z" fill="#C19C03"/>
<path fill-rule="evenodd" clip-rule="evenodd" d="M4.2072 32.3076C6.15066 20.7661 16.987 13.4974 16.987 13.4974C30.0028 4.5636 41.5385 6.48212 41.5385 6.48212C41.5385 6.48212 37.8771 4.48325 31.8998 4.22971C31.8998 4.22971 28.3815 3.88779 25.3616 2.30762C25.3616 2.30762 6.57991 5.13228 7.25148e-06 19.4136C7.25148e-06 19.4136 -0.0189449 21.2777 1.88092 24.5094C1.88092 24.5094 3.44157 27.2288 4.2072 32.3058V32.3076Z" fill="#D4AA00"/>
<path d="M28.8588 3.48167C34.3334 8.7537 33.1657 18.1349 26.2419 24.5038C19.3181 30.8727 9.22625 31.8472 3.6287 26.6889C-1.96884 21.5307 -0.981568 12.1667 5.83818 5.70504C12.6579 -0.756612 22.7716 -1.89747 28.491 3.14601" fill="#D4AA00"/>
<path fill-rule="evenodd" clip-rule="evenodd" d="M4.49148 34.6154C4.62617 29.8673 7.64647 25.0696 7.64647 25.0696C12.168 16.6603 21.7873 11.2779 21.7873 11.2779C31.242 5.13982 41.5385 6.81785 41.5385 6.81785C37.2948 3.32498 29.693 4.13912 29.693 4.13912C25.4783 4.64521 23.8797 3.60433 23.8797 3.60433C23.3279 3.27715 21.2345 2.20661 21.2345 2.20661C13.9677 -1.65554 9.31703 0.726615 9.31703 0.726615C5.42216 2.15399 5.10788 6.22183 5.10788 6.22183C11.6854 0.756273 17.0488 5.72149 17.0488 5.72149C19.1131 7.33542 15.7074 8.83933 15.7074 8.83933C11.5535 10.5901 8.40037 14.3355 8.40037 14.3355C3.79556 19.2969 2.7517 23.735 2.7517 23.735C1.12416 30.3361 4.49522 34.6154 4.49522 34.6154H4.49148Z" fill="#FFCC00"/>
<path d="M45.168 10.5825C48.5456 16.2286 42.9651 26.387 32.6964 33.2895C22.4277 40.192 11.3463 41.2302 7.93203 35.6145C4.51777 29.9987 10.0482 19.8386 20.3062 12.9137C30.5642 5.98884 41.6643 4.9113 45.1215 10.4993" fill="#AA8800"/>
<path d="M43.177 11.5791C45.7982 15.635 40.4866 23.5432 31.3139 29.2558C22.1412 34.9684 12.5677 36.3292 9.91677 32.2956C7.26581 28.2619 12.5318 20.3597 21.694 14.6308C30.8561 8.90195 40.4489 7.51121 43.1393 11.5218" fill="black"/>
<path d="M27.6922 3.55787C27.6394 5.45649 26.065 6.95814 24.1658 6.92245C22.2667 6.88677 20.7503 5.33308 20.7693 3.42703C20.7884 1.52098 22.3342 -0.00296922 24.2334 4.34414e-06C26.1326 0.00297791 27.6767 1.53436 27.6914 3.43447" fill="#D4AA00"/>
<path d="M27.6877 3.55745C27.6354 5.45666 26.0617 6.95761 24.1625 6.92247C22.2633 6.88733 20.7474 5.32614 20.7694 3.42693C20.7914 1.52773 22.3348 -0.00167194 24.234 1.37175e-06C26.1333 0.00167468 27.6767 1.53442 27.6922 3.43363" fill="#FFCC00"/>
<path fill-rule="evenodd" clip-rule="evenodd" d="M20.7712 6.34172C20.7256 6.34172 21.4566 5.46149 21.4566 5.46149C23.694 5.98713 24.6222 6.15641 26.0467 5.2833C27.3464 4.32467 26.6932 2.79763 26.6932 2.79763L27.1345 2.30762C27.5919 2.64082 27.6831 3.48185 27.6831 3.48185C27.6831 3.48185 28.2344 8.62962 20.7712 6.33281V6.34172Z" fill="#D4AA00"/>
<path d="M13.5277 43.868C13.3688 43.8311 13.2029 43.8412 13.0493 43.8972C12.1143 44.2546 11.9543 46.4429 12.652 49.3236C10.0155 47.7006 7.88651 47.2257 7.17372 48.1037C6.15772 49.3663 8.32248 52.9474 12.0079 56.1117C15.6934 59.2761 19.505 60.8204 20.521 59.5616C21.1895 58.7312 20.4852 56.8334 18.6811 54.6082C18.6058 53.2242 18.2291 51.5167 17.6246 49.8228C16.4777 46.6177 14.764 44.1235 13.5267 43.87L13.5277 43.868Z" fill="#194145"/>
<path d="M20.1949 36.9597C23.3931 30.8961 29.5986 32.4995 29.5986 32.4995C38.7354 34.6044 44.0983 39.6923 44.0983 39.6923C50.7341 44.5015 53.0271 54.4344 53.0271 54.4344C53.5723 58.5512 49.4689 59.6201 49.4689 59.6201C47.1322 61.4512 43.0031 59.9024 42.6859 59.861C36.3037 57.5189 32.4111 63.5646 32.4111 63.5646C30.2264 66.6953 27.2144 66.8232 27.2144 66.8232C22.7947 67.6014 18.4443 63.5722 18.4443 63.5722C11.5264 56.8377 14.4672 49.1998 14.4672 49.1998C14.4672 49.1998 15.1026 46.853 16.8238 44.2494C18.7995 41.1244 18.9059 39.6386 20.1949 36.9597Z" fill="#225054"/>
<path d="M37.0322 60.65C39.9319 60.4648 42.0896 57.269 41.8516 53.512C41.6135 49.755 39.0697 46.8594 36.17 47.0446C33.2703 47.2298 31.1126 50.4256 31.3507 54.1826C31.5887 57.9396 34.1325 60.8352 37.0322 60.65Z" fill="#BCB9A8"/>
<path d="M26.5648 32.3309C25.5464 32.3937 24.548 32.6422 23.6187 33.0642C23.3237 34.3068 23.2607 35.6238 23.3556 36.9455C23.3256 36.9862 23.2979 37.0286 23.2729 37.0726C22.9045 37.7193 23.0652 38.7831 23.6723 39.4514C24.6769 44.5282 27.3927 48.9593 27.3927 48.9593C28.0787 50.4438 27.6248 51.6271 27.6248 51.6271C26.8655 53.8864 28.6153 54.9643 28.6153 54.9643C30.5709 56.3368 32.4682 53.9081 32.4682 53.9081C34.7602 56.1674 36.6923 53.2491 36.6923 53.2491C36.6923 53.2491 39.8009 55.0377 40.3309 51.6055C40.3309 51.6055 43.2074 52.8801 43.7807 50.6283C43.7807 50.6283 44.1227 49.141 43.2431 48.0424C42.8157 47.5563 42.3521 47.1034 41.8561 46.6877C41.8561 46.6877 40.4653 45.3698 40.1505 43.3647C40.1505 43.3647 39.8545 37.8003 36.1735 34.063C34.1738 33.1104 31.7145 33.1358 28.9978 32.5032C28.2006 32.3283 27.3823 32.2702 26.5685 32.3309H26.5648Z" fill="#D6D4C8"/>
<path d="M41.9075 58.0219C41.9075 58.0219 42.6799 52.2169 39.2307 39.2307L40.6214 39.2387C40.6214 39.2387 42.9354 41.4536 43.0737 41.7007C43.2119 41.9478 44.2248 44.7062 44.7618 46.7346C45.2988 48.763 46.2271 52.4309 46.1492 53.4731C46.0713 54.5153 45.5627 56.4145 45.2653 56.8721C44.9679 57.3297 42.5366 59.9999 42.5366 59.9999L41.8714 59.2803L41.9075 58.0219Z" fill="#225054"/>
<path fill-rule="evenodd" clip-rule="evenodd" d="M34.4764 35.4778C34.4764 35.4778 33.2526 32.8364 32.3094 32.5077C32.3094 32.5077 28.9641 31.1988 27.7255 35.2763C27.7255 35.2763 27.3991 36.6508 28.7919 39.3577C28.7919 39.3577 30.7877 42.4882 32.0279 43.5731C32.0279 43.5731 32.55 44.2726 32.976 43.4322C32.976 43.4322 34.6372 37.947 34.6078 36.8846C34.6345 36.41 34.59 35.9335 34.4764 35.4778Z" fill="#BCB9A8"/>
<path d="M23.4316 41.5386C23.4316 41.5386 28.4694 39.2203 29.9999 35.9789L27.7414 34.6155L20.7692 38.922L23.4316 41.5386Z" fill="#BCB9A8"/>
<path d="M35.3147 37.7349C35.3147 37.7349 36.7226 40.5462 39.2307 41.5386C39.2307 41.5386 38.6379 39.7435 38.3403 38.9815C38.0427 38.2195 36.9021 34.7179 36.9021 34.7179L35.2797 34.6155L34.6154 36.5462L35.3147 37.7349Z" fill="#BCB9A8"/>
<path d="M13.8462 55.3845C14.2469 57.869 15.4557 60.8065 18.4191 63.5896C18.4191 63.5896 22.9059 67.5972 27.4641 66.8239C27.4641 66.8239 27.5503 66.8183 27.6923 66.8005C27.5611 65.812 27.4308 64.8759 27.4308 64.8759C18.2545 63.6879 14.8376 57.707 13.8462 55.3845Z" fill="#194145"/>
<path d="M48.9078 61.479C48.9078 61.479 53.9584 62.1045 56.161 58.9174C56.161 58.9174 57.3773 57.4673 57.4648 55.8564C57.4648 55.8564 57.856 53.9745 54.9391 55.2843C54.9391 55.2843 56.8949 54.1399 57.1277 51.9354C57.1277 51.9354 57.2767 50.3087 56.1731 50.0366C56.1731 50.0366 55.4858 49.7739 54.4967 50.5686C54.4967 50.5686 55.3209 49.4027 55.0182 48.264C55.0182 48.264 54.4753 46.1483 52.1516 47.5787C52.1516 47.5787 48.7159 49.8683 47.2091 55.6237C47.2091 55.6237 45.3231 59.8448 48.9041 61.479H48.9078Z" fill="#FAB84A"/>
<path d="M53.2911 50.464C54.0834 49.7354 54.3492 48.7321 53.8847 48.223C53.4201 47.714 52.4013 47.8919 51.6089 48.6205C50.8166 49.3491 50.5509 50.3524 51.0154 50.8614C51.4799 51.3705 52.4988 51.1925 53.2911 50.464Z" fill="#E9934C"/>
<path d="M54.8043 53.7976C55.5483 53.1647 55.8242 52.2639 55.4204 51.7857C55.0167 51.3075 54.0863 51.433 53.3424 52.0659C52.5984 52.6988 52.3225 53.5996 52.7262 54.0778C53.1299 54.556 54.0603 54.4306 54.8043 53.7976Z" fill="#E9934C"/>
<path d="M55.1422 58.3303C55.7873 57.7936 56.0328 57.0224 55.6905 56.6077C55.3481 56.1931 54.5476 56.292 53.9025 56.8287C53.2574 57.3654 53.0119 58.1367 53.3542 58.5513C53.6965 58.966 54.497 58.867 55.1422 58.3303Z" fill="#E9934C"/>
<path opacity="0.45" d="M35.8049 53.9545C35.9902 53.9426 36.1308 53.7822 36.119 53.5962C36.1073 53.4102 35.9475 53.269 35.7622 53.2808C35.5769 53.2927 35.4362 53.4531 35.448 53.6391C35.4598 53.8251 35.6195 53.9663 35.8049 53.9545Z" fill="#F4D7D7"/>
<path d="M30 55.3846C31.2745 55.3846 32.3076 53.3182 32.3076 50.7692C32.3076 48.2202 31.2745 46.1538 30 46.1538C28.7255 46.1538 27.6923 48.2202 27.6923 50.7692C27.6923 53.3182 28.7255 55.3846 30 55.3846Z" fill="#194145"/>
<path fill-rule="evenodd" clip-rule="evenodd" d="M28.7571 35.5663C28.7571 35.5663 24.8221 42.2225 16.5998 43.7381C16.5998 43.7381 13.0714 44.7715 8.28324 40.4467C8.28324 40.4467 3.36514 37.0895 4.368 31.867C4.368 31.867 2.97927 33.3322 3.17766 35.0005C3.17766 35.0005 3.33935 35.9128 2.31764 35.306C2.31764 35.306 -2.02017 30.214 3.00109 25.5137C3.00109 25.5137 1.80182 25.4659 1.08563 26.1904C1.08563 26.1904 0.225611 27.1291 0.00440566 25.9301C0.00440566 25.9301 -0.366585 21.9995 5.70019 20.3875C5.70019 20.3875 2.30375 17.9016 5.601 14.3405C5.601 14.3405 6.77844 18.4102 12.5814 16.474C12.5814 16.474 11.0845 11.3034 16.5879 8.90034C16.5879 8.90034 17.0898 13.5324 20.8979 13.3233C20.8979 13.3233 25.9747 13.046 31.8401 6.9231C31.8401 6.9231 32.7061 9.2963 31.9611 11.4391C31.9611 11.4391 34.2783 9.02749 34.5343 7.46071C34.5343 7.46071 36.9001 9.29545 36.9407 11.9887C36.9407 11.9887 43.6334 12.033 47.6955 8.79538C47.6955 8.79538 48.8858 11.2428 47.8006 13.8149C47.8006 13.8149 50.6465 13.5213 52.0908 10.7931C52.0908 10.7931 54.3415 12.4998 52.4618 15.7972C52.4618 15.7972 58.5236 15.9227 59.5285 20.8918C59.5285 20.8918 59.7487 21.8766 58.8619 21.5745C58.8619 21.5745 57.731 21.0062 56.6409 20.9848C56.6409 20.9848 60.0631 23.1055 59.9947 25.7586C59.9947 25.7586 60.2258 28.1668 57.6388 29.0867C57.6388 29.0867 59.5374 32.5002 56.5863 35.6764C56.5863 35.6764 56.008 36.4623 55.4853 35.5057C55.4853 35.5057 55.4059 35.1447 55.0637 35.1865C55.0637 35.1865 53.8575 38.1341 50.9967 39.6607C50.9967 39.6607 47.7074 42.6108 43.2694 40.753C43.2694 40.753 39.8194 40.497 36.9893 35.2633C36.0623 33.9434 34.6783 32.9062 33.0314 32.2971C33.0314 32.2971 30.7877 31.8618 28.7661 35.5731L28.7571 35.5663Z" fill="#225054"/>
<path d="M15.3709 6.9231C10.4967 9.52481 11.86 14.8206 11.86 14.8206C6.3902 16.8782 5.28035 12.5574 5.28035 12.5574C2.1752 16.3351 5.37385 18.9721 5.37385 18.9721C-0.344634 20.6812 0.00412189 24.8518 0.00412189 24.8518C0.212628 26.1191 1.02328 25.1279 1.02328 25.1279C1.69929 24.3593 2.82877 24.41 2.82877 24.41C-1.90422 29.3962 2.18455 34.7978 2.18455 34.7978C3.14761 35.4415 2.9952 34.4738 2.9952 34.4738C2.8082 32.704 4.11721 31.1496 4.11721 31.1496C3.17192 36.6898 7.55054 40.5345 7.55054 40.5345C12.2798 44.7412 15.6458 43.7427 15.6458 43.7427C23.397 42.1341 27.1062 35.0739 27.1062 35.0739C27.9149 33.4046 29.0089 32.7628 30 32.5754C29.7709 31.6358 29.4203 30.2426 29.3072 30.0552C29.1379 29.7727 28.4974 29.2269 27.6597 29.1318C26.8219 29.0368 26.5442 30.5205 26.5442 30.5205C26.5442 30.5205 25.2614 37.4738 17.9973 40.2855C9.83569 42.9941 5.39816 35.6687 5.04099 29.3762C5.04099 29.3762 3.71983 29.6134 3.33461 30.258C3.2944 29.6397 3.0298 24.5802 5.61602 23.1064C5.61602 23.1064 3.67962 22.9697 2.99801 23.4875C2.99801 23.4875 4.12001 20.4549 7.29435 19.8565C7.29435 19.8565 6.17235 18.9015 6.21162 17.1788C6.21162 17.1788 10.9708 17.7274 13.1204 15.3628C13.1204 15.3628 11.1699 10.6166 15.3728 6.92581L15.3709 6.9231Z" fill="#194145"/>
<path d="M47.9064 6.9231C47.8947 6.93385 47.8811 6.9437 47.8684 6.95445V6.96968C48.4338 10.3039 46.4704 13.3299 46.4704 13.3299C51.3106 13.4302 52.2299 9.02196 52.2309 9.02106C50.8125 11.8876 48.0156 12.1931 48.0156 12.1931C49.0811 9.49315 47.9123 6.92399 47.9123 6.92399L47.9064 6.9231ZM52.5955 14.2633L52.5692 14.2803C57.309 15.5962 58.3023 19.1176 58.354 19.2968C56.9278 18.6205 54.7568 19.5844 54.7568 19.5844C58.1688 22.201 57.7847 27.0885 57.7847 27.0885C57.309 26.6549 56.0504 26.9846 56.0504 26.9846C57.7077 30.0115 56.2015 34.4009 56.2015 34.4009C55.5903 33.6171 53.9876 33.4039 53.9876 33.4039C50.4186 40.3911 42.8966 39.343 39.7468 33.901C39.7468 33.901 38.2904 30.9888 35.6641 29.0915C35.5686 28.8689 35.3977 28.6804 35.1766 28.554C34.8296 28.3695 34.2993 28.3569 34.0068 28.9374C33.7143 29.5179 32.8126 29.7768 32.4353 30.7711C32.3566 30.9901 32.3136 31.2187 32.3076 31.4492C33.5496 31.3435 33.496 31.5836 33.496 31.5836C36.1788 32.6317 36.5395 33.7273 36.5395 33.7273C42.0738 44.2296 51.1712 43.754 55.1477 34.6231C55.485 34.5792 55.563 34.9581 55.563 34.9581C56.0758 35.9596 56.6451 35.1373 56.6451 35.1373C59.5453 31.8031 57.6794 28.2199 57.6794 28.2199C60.2218 27.256 59.9947 24.7262 59.9947 24.7262C60.062 21.9412 56.6977 19.7151 56.6977 19.7151C57.7701 19.7375 58.8814 20.3332 58.8814 20.3332C59.752 20.6557 59.5365 19.622 59.5365 19.622C58.549 14.4057 52.5906 14.2749 52.5906 14.2749C52.5906 14.2749 52.5906 14.2678 52.5906 14.2642L52.5955 14.2633Z" fill="#194145"/>
<path d="M27.1546 27.6893C30.1311 23.044 29.4071 17.2528 25.5376 14.7542C21.668 12.2556 16.1182 13.9959 13.1417 18.6412C10.1652 23.2865 10.8892 29.0777 14.7588 31.5763C18.6283 34.0749 24.1782 32.3346 27.1546 27.6893Z" fill="#1A4346"/>
<path d="M26.091 29.8258C29.0675 25.1805 28.3435 19.3893 24.474 16.8907C20.6044 14.3921 15.0546 16.1324 12.0781 20.7777C9.10164 25.423 9.82562 31.2142 13.6952 33.7128C17.5647 36.2114 23.1146 34.4711 26.091 29.8258Z" fill="#D6D4C8"/>
<path d="M22.4551 33.0276C25.5931 31.706 27.0741 28.0914 25.7629 24.9541C24.4518 21.8169 20.845 20.345 17.707 21.6666C14.569 22.9882 13.088 26.6028 14.3992 29.7401C15.7103 32.8773 19.3171 34.3492 22.4551 33.0276Z" fill="#FAB84A"/>
<path d="M22.1713 32.3421C24.9312 31.1797 26.234 28.001 25.0811 25.2423C23.9281 22.4836 20.756 21.1895 17.9961 22.3519C15.2361 23.5142 13.9333 26.6929 15.0863 29.4516C16.2392 32.2104 19.4113 33.5045 22.1713 32.3421Z" fill="#CF7B14"/>
<path d="M21.7821 31.546C24.1209 30.561 25.2247 27.867 24.2474 25.5287C23.2702 23.1904 20.582 22.0933 18.2432 23.0783C15.9044 24.0633 14.8006 26.7574 15.7779 29.0957C16.7551 31.434 19.4433 32.531 21.7821 31.546Z" fill="#201E1E"/>
<path d="M23.211 25.3406C23.9618 25.0244 24.3161 24.1594 24.0023 23.4085C23.6885 22.6577 22.8254 22.3053 22.0746 22.6215C21.3238 22.9377 20.9695 23.8028 21.2833 24.5536C21.5971 25.3045 22.4602 25.6569 23.211 25.3406Z" fill="#FEFEFE"/>
<path d="M45.9254 28.9187C49.3041 26.0686 49.2906 20.47 45.8953 16.4137C42.5 12.3575 37.0085 11.3796 33.6298 14.2297C30.2511 17.0797 30.2646 22.6784 33.6599 26.7346C37.0552 30.7909 42.5467 31.7687 45.9254 28.9187Z" fill="#1A4346"/>
<path d="M47.4037 30.9558C50.7824 28.1057 50.7689 22.5071 47.3736 18.4508C43.9782 14.3946 38.4868 13.4167 35.1081 16.2668C31.7293 19.1168 31.7428 24.7155 35.1382 28.7717C38.5335 32.828 44.025 33.8058 47.4037 30.9558Z" fill="#D6D4C8"/>
<path d="M42.3599 30.5229C45.3409 29.2674 46.7479 25.8338 45.5024 22.8537C44.2569 19.8735 40.8306 18.4754 37.8496 19.7309C34.8686 20.9864 33.4617 24.42 34.7072 27.4001C35.9527 30.3803 39.3789 31.7784 42.3599 30.5229Z" fill="#FAB84A"/>
<path d="M42.0844 29.883C44.7059 28.7789 45.9432 25.7594 44.848 23.1388C43.7527 20.5181 40.7397 19.2887 38.1182 20.3928C35.4967 21.4968 34.2595 24.5163 35.3547 27.1369C36.4499 29.7576 39.4629 30.987 42.0844 29.883Z" fill="#CF7B14"/>
<path d="M41.7294 29.1196C43.951 28.184 44.9995 25.6249 44.0712 23.4037C43.1429 21.1825 40.5894 20.1404 38.3677 21.0761C36.1461 22.0118 35.0976 24.5709 36.0259 26.792C36.9542 29.0132 39.5077 30.0553 41.7294 29.1196Z" fill="#201E1E"/>
<path d="M43.0805 23.2228C43.7938 22.9223 44.1305 22.1006 43.8324 21.3873C43.5343 20.6741 42.7144 20.3394 42.001 20.6399C41.2876 20.9403 40.951 21.762 41.2491 22.4753C41.5472 23.1885 42.3671 23.5232 43.0805 23.2228Z" fill="#FEFEFE"/>
<path d="M31.9253 6.9231L31.9048 6.93788C31.8681 7.11314 31.1073 10.5307 27.6923 11.5385C27.6923 11.5385 31.3939 11.2619 32.0515 9.7793C32.0575 9.76999 32.0643 9.76068 32.072 9.75082C32.5778 8.59574 32.1343 7.3607 31.9867 7.01237C31.9551 6.95979 31.9364 6.9346 31.9253 6.9231Z" fill="#194145"/>
<path d="M29.1511 34.6475C29.9089 33.6135 29.9951 32.3854 29.3438 31.9044C28.6925 31.4234 27.5502 31.8717 26.7925 32.9057C26.0348 33.9396 25.9485 35.1677 26.5998 35.6487C27.2512 36.1297 28.3934 35.6814 29.1511 34.6475Z" fill="#B8475F"/>
<path d="M27.9037 34.6064C28.0079 34.0161 27.7685 33.48 27.3689 33.4089C26.9693 33.3378 26.5608 33.7587 26.4566 34.3489C26.3524 34.9392 26.5919 35.4754 26.9915 35.5464C27.3911 35.6175 27.7995 35.1967 27.9037 34.6064Z" fill="#CD677E"/>
<path fill-rule="evenodd" clip-rule="evenodd" d="M35.5368 31.9283C35.5368 31.9283 34.1612 29.2956 33.0659 28.945C33.0659 28.945 29.1674 27.5594 27.6158 31.5309C27.6158 31.5309 27.2014 32.8725 28.7669 35.5754C28.7669 35.5754 31.0347 38.7074 32.4634 39.8143C32.4634 39.8143 33.0594 40.5173 33.581 39.703C33.581 39.703 35.6662 34.36 35.6616 33.3148C35.7031 32.8489 35.6612 32.3793 35.5377 31.9283H35.5368Z" fill="#E9934C"/>
<path fill-rule="evenodd" clip-rule="evenodd" d="M30.702 28.7902C31.492 28.6578 32.3019 28.7132 33.0666 28.9519C34.8529 29.6998 35.3354 31.1751 35.5402 31.9268C35.5402 31.9324 35.5402 31.9969 35.5402 31.9969C35.5402 31.9969 35.1752 35.2944 33.0313 37.0988C33.0313 37.0988 30.3854 35.6721 29.0806 29.4886C29.5575 29.1311 30.1118 28.8918 30.6983 28.7902H30.702Z" fill="#FAB84A"/>
<path d="M34.3696 31.2719C34.5564 30.7808 33.9144 30.0786 32.9355 29.7034C31.9567 29.3282 31.0118 29.4221 30.825 29.9131C30.6382 30.4042 31.2803 31.1064 32.2591 31.4816C33.2379 31.8568 34.1828 31.7629 34.3696 31.2719Z" fill="#FAD28E"/>
<path d="M37.3826 62.571L24.2089 64.5806C23.6924 64.6593 23.1638 64.6044 22.676 64.4214C22.1883 64.2384 21.7587 63.9338 21.4303 63.5382C21.1019 63.1426 20.8863 62.6699 20.8052 62.1676C20.7241 61.6652 20.7804 61.151 20.9683 60.6765L25.7666 48.5757L30.5629 36.472C30.7507 35.9972 31.0637 35.5788 31.4706 35.2591C31.8774 34.9393 32.3636 34.7294 32.8803 34.6505C33.397 34.5716 33.9259 34.6265 34.4139 34.8096C34.9018 34.9927 35.3316 35.2976 35.6599 35.6936L44.0383 45.7887L52.4156 55.8837C52.7441 56.2793 52.9597 56.7521 53.0408 57.2544C53.1219 57.7568 53.0656 58.2711 52.8775 58.7456C52.6895 59.2201 52.3763 59.638 51.9695 59.9574C51.5627 60.2769 51.0766 60.4865 50.5601 60.5652L37.3826 62.571Z" fill="#163246"/>
<path d="M37.3077 60.6864L26.0154 62.2771C24.0744 62.5549 22.5408 60.8882 23.2555 59.291L27.415 49.9783L31.5723 40.6664C32.2871 39.0655 34.7138 38.722 35.9401 40.0507L43.076 47.7718L50.2078 55.493C51.4341 56.8198 50.5409 58.8262 48.5999 59.0948L37.3077 60.6864Z" fill="#FFB843"/>
<path d="M36.3278 58.7288C36.2314 57.9088 36.8051 57.1498 37.5928 57.0203C38.3806 56.8908 39.1221 57.4414 39.2194 58.2551C39.3159 59.0973 38.7855 59.8436 37.9978 59.9794C37.185 60.1173 36.4242 59.5478 36.3278 58.7288ZM35.4475 50.4494C35.1727 49.2536 34.9548 48.0283 34.733 46.7756C34.6742 46.4085 34.635 46.038 34.6154 45.666C34.6154 44.7849 35.0589 44.1438 35.7329 43.9375C36.4406 43.6807 37.2284 43.9743 37.5649 44.7091C38.5512 46.8219 38.7036 52.1969 38.692 54.2781C38.6805 56.3592 36.8147 56.7698 36.2651 54.6718C35.9787 53.4538 35.6779 51.6527 35.4426 50.4494H35.4475Z" fill="#163246"/>
<path fill-rule="evenodd" clip-rule="evenodd" d="M53.7244 43.9383C53.7244 43.9383 54.9137 42.7229 54.5393 41.1831C54.5393 41.1831 54.2897 39.2038 52.4168 39.8742C52.4168 39.8742 44.3264 43.8635 40.4725 49.7319C40.4725 49.7319 39.2804 51.4316 40.277 52.4292C40.277 52.4292 41.1422 53.4576 43.0979 53.207C43.0979 53.207 42.3845 54.5159 43.26 55.1909C43.26 55.1909 44.4707 56.2305 46.5997 55.6144C46.5997 55.6144 46.1797 56.2941 47.0607 56.5989C47.0607 56.5989 48.7232 56.9729 50.7199 55.8079C50.7199 55.8079 53.5623 54.3962 54.8131 51.2203C54.8131 51.2203 55.5479 49.2112 54.0308 48.6615C54.0308 48.6615 55.2415 47.1207 54.9053 45.7632C54.9053 45.7632 54.6436 44.2748 53.7244 43.9411V43.9383Z" fill="#225054"/>
<path fill-rule="evenodd" clip-rule="evenodd" d="M52.769 39.798C52.6562 39.8216 52.5451 39.8528 52.4365 39.8915L52.335 39.9439C54.2442 39.2165 54.1408 42.0007 54.1408 42.0007C54.0151 43.4264 52.2381 45.7179 52.2381 45.7179C52.3043 45.703 52.9087 45.5141 52.9087 45.5141C54.2414 45.0738 54.2396 45.9105 54.2396 45.9105C54.5879 47.455 52.8137 50.2195 52.8137 50.2195C53.2533 50.07 54.1921 49.0827 54.1921 49.0827C54.6577 49.323 54.7993 50.1943 54.7993 50.1943C54.9325 51.3162 54.0729 52.238 54.0729 52.238C50.9576 55.6972 48.0854 56.2264 46.5673 56.2095C46.6334 56.3591 46.7796 56.5068 47.0805 56.6106C47.0805 56.6106 48.7429 56.9846 50.7396 55.8206C50.7396 55.8206 53.5821 54.4089 54.8375 51.233C54.8375 51.233 55.5732 49.2239 54.0552 48.6741C54.0552 48.6741 55.2659 47.1334 54.9297 45.7759C54.9297 45.7759 54.668 44.2884 53.7488 43.9547C53.7488 43.9547 54.939 42.7393 54.5637 41.1995C54.5637 41.1995 54.3448 39.4596 52.7737 39.7971L52.769 39.798ZM51.5434 47.154C43.2173 54.2874 39.9353 51.4433 39.9353 51.4433L39.8981 51.449C39.8931 51.634 39.9257 51.8181 39.994 51.9901C40.0622 52.1621 40.1645 52.3183 40.2948 52.4493C40.2948 52.4493 41.1591 53.4777 43.1149 53.2272V53.2346C50.3736 50.6505 51.5443 47.1577 51.5443 47.1577L51.5434 47.154ZM52.4123 50.5982C47.2984 54.8399 44.2166 54.5622 42.8597 54.049C42.8103 54.4426 42.8718 54.8951 43.2797 55.2111C43.2797 55.2111 44.4448 56.2058 46.4872 55.6701C49.4218 54.235 52.4123 50.5982 52.4123 50.5982Z" fill="#173C3F"/>
<path d="M21.0273 62.9714C21.0273 62.9714 20.1621 65.6826 22.2809 67.4272C22.2809 67.4272 23.5848 69.4943 26.5771 69.2035C26.5771 69.2035 30.5455 68.9838 31.0642 65.5573C31.0642 65.5573 31.4265 63.0985 29.1001 63.0789C29.1001 63.0789 27.8568 63.0078 28.6251 61.396C28.6251 61.396 31.5821 60.8042 31.434 58.4623C31.434 58.4623 31.3679 56.4643 29.4037 56.4989C29.4037 56.4989 28.0747 56.441 27.203 57.2469C27.0639 56.9374 26.8305 56.6803 26.5363 56.5127C26.2422 56.3452 25.9026 56.2758 25.5666 56.3148C25.5666 56.3148 23.758 56.3353 23.4357 57.7938C23.4357 57.7938 20.8783 57.5049 20.0196 59.5421C20.0196 59.5421 19.2392 61.7419 21.0236 62.9723L21.0273 62.9714Z" fill="#FAB84A"/>
<path d="M20.589 58.7201C20.589 58.7201 24.1159 56.8035 24.6794 60.2645C24.6794 60.2645 24.9876 61.7408 23.7257 62.5196C23.7257 62.5196 25.1003 62.2737 25.1562 60.2122C25.1562 60.2122 25.3276 58.3882 23.396 57.7636C23.396 57.7636 21.6423 57.242 20.589 58.7201Z" fill="#E9934C"/>
<path d="M26.8548 61.3584C29.0676 57.585 25.8173 56.3042 25.8173 56.3042C25.8173 56.3042 28.0524 56.4594 27.9714 59.151C27.9714 59.151 28.0022 60.2879 26.8538 61.3584H26.8548Z" fill="#E9934C"/>
<path d="M29.0221 66.3448C29.8425 65.6082 30.1268 64.5836 29.657 64.0564C29.1872 63.5291 28.1413 63.6988 27.3209 64.4355C26.5004 65.1721 26.2162 66.1967 26.6859 66.724C27.1557 67.2512 28.2016 67.0815 29.0221 66.3448Z" fill="#E9934C"/>
<path d="M23.0798 60.95C23.7396 60.3576 23.9682 59.5336 23.5903 59.1094C23.2124 58.6853 22.3712 58.8218 21.7114 59.4142C21.0516 60.0066 20.8231 60.8306 21.2009 61.2547C21.5788 61.6789 22.42 61.5424 23.0798 60.95Z" fill="#E9934C"/>
<path d="M26.3412 58.9461C26.8936 58.4501 27.0849 57.76 26.7684 57.4048C26.4519 57.0496 25.7475 57.1637 25.195 57.6597C24.6426 58.1558 24.4513 58.8458 24.7678 59.2011C25.0843 59.5563 25.7887 59.4421 26.3412 58.9461Z" fill="#E9934C"/>
<path d="M30.348 59.5261C30.9944 58.9458 31.2182 58.1383 30.8479 57.7227C30.4775 57.3071 29.6533 57.4406 29.0069 58.0209C28.3605 58.6013 28.1368 59.4087 28.5071 59.8244C28.8774 60.24 29.7016 60.1065 30.348 59.5261Z" fill="#E9934C"/>
<path fill-rule="evenodd" clip-rule="evenodd" d="M16.2902 47.9884C16.2902 47.9884 14.8094 47.0872 14.7936 45.4726C14.7936 45.4726 14.5431 43.4541 16.5631 43.642C16.5631 43.642 25.5569 45.5352 30.8375 50.3575C30.8375 50.3575 32.4413 51.7356 31.7074 52.9753C31.7074 52.9753 31.1114 54.2103 29.1165 54.458C29.1165 54.458 30.1493 55.5678 29.4545 56.4587C29.4545 56.4587 28.5157 57.7929 26.261 57.7228C26.261 57.7228 26.8468 58.2837 26.0533 58.811C26.0533 58.811 24.5055 59.6038 22.2395 58.9568C22.2395 58.9568 19.073 58.2809 17.0446 55.4603C17.0446 55.4603 15.8134 53.6615 17.175 52.735C17.175 52.735 15.5871 51.5196 15.5824 50.0892C15.5824 50.0892 15.4669 48.5531 16.2912 47.9912L16.2902 47.9884Z" fill="#225054"/>
<path fill-rule="evenodd" clip-rule="evenodd" d="M16.2065 43.6498C16.3242 43.645 16.4422 43.6485 16.5594 43.66L16.6721 43.6862C14.6046 43.4562 15.4093 46.1796 15.4093 46.1796C15.8908 47.5568 18.2219 49.3715 18.2219 49.3715C18.1529 49.3715 17.5085 49.3397 17.5085 49.3397C16.0817 49.2406 16.2931 50.067 16.2931 50.067C16.3369 51.6816 18.7835 53.9638 18.7835 53.9638C18.3122 53.9264 17.1359 53.1887 17.1359 53.1887C16.7411 53.543 16.8165 54.4415 16.8165 54.4415C16.9655 55.5802 18.0468 56.2767 18.0468 56.2767C21.9937 58.9076 24.9637 58.701 26.4585 58.2999C26.4315 58.4644 26.3235 58.6477 26.0525 58.8263C26.0525 58.8263 24.5046 59.6191 22.2387 58.9712C22.2387 58.9712 19.0722 58.2962 17.0437 55.4755C17.0437 55.4755 15.8125 53.6767 17.1732 52.7493C17.1732 52.7493 15.5899 51.5339 15.5806 50.1044C15.5806 50.1044 15.4661 48.5684 16.2903 48.0055C16.2903 48.0055 14.8095 47.1052 14.7937 45.4906C14.7937 45.4906 14.5729 43.7143 16.2093 43.6498H16.2065ZM19.265 50.6065C29.2776 55.5466 31.8062 51.906 31.8062 51.906H31.8444C31.896 52.087 31.9104 52.2765 31.8869 52.4633C31.8633 52.65 31.8023 52.83 31.7075 52.9924C31.7075 52.9924 31.1114 54.2274 29.1165 54.4752L29.1221 54.4817C21.299 53.7656 19.2687 50.6083 19.2687 50.6083L19.265 50.6065ZM19.2715 54.2283C25.3884 57.1266 28.3649 56.0701 29.5738 55.2203C29.7219 55.5942 29.775 56.0617 29.4509 56.474C29.4509 56.474 28.5503 57.7511 26.398 57.7389C23.1393 57.0639 19.2715 54.2283 19.2715 54.2283Z" fill="#194145"/>
</svg>
