<svg width="55" height="60" viewBox="0 0 55 60" fill="none" xmlns="http://www.w3.org/2000/svg">
<path fill-rule="evenodd" clip-rule="evenodd" d="M12.2046 33.3832C11.7921 33.3444 11.4818 33.4557 11.4818 33.4557C10.5774 33.687 9.06304 34.5245 9.06304 34.5245C7.77195 35.3885 8.07935 36.8393 8.07935 36.8393C8.07172 37.3757 8.41367 38.0672 8.41367 38.0672C7.92419 38.3764 6.96063 39.3358 6.96063 39.3358C4.90268 41.4091 5.71974 43.0909 5.71974 43.0909L6.57138 45.9078C6.34831 45.8812 5.93086 46.0576 5.93086 46.0576C4.62397 46.5801 5.05321 48.6678 5.05321 48.6678C5.05377 50.082 6.17249 52.0826 6.17249 52.0826C7.09451 53.8333 9.40113 53.9393 9.40113 53.9393C11.9533 54.3574 14.6362 53.2075 14.8593 53.2341C24.989 47.9962 18.8563 37.3071 18.8563 37.3071C18.0409 34.664 13.8893 34.8466 13.8893 34.8466L13.5412 34.2109C13.1323 33.6106 12.6173 33.4217 12.2047 33.3831L12.2046 33.3832ZM11.8759 34.9468C12.03 34.97 12.1454 35.0211 12.2107 35.0391C12.4601 35.1288 12.5848 35.424 12.5848 35.424C12.7281 35.731 12.4342 35.846 12.4342 35.846C11.7154 36.1701 9.71971 37.1414 9.71971 37.1414C9.40262 37.2835 9.38085 36.9608 9.38085 36.9608L9.35379 36.5176C9.44757 35.9838 9.71263 35.7757 9.71263 35.7757C10.095 35.4212 11.3077 35.021 11.3077 35.021C11.529 34.9275 11.7219 34.9234 11.8759 34.9468Z" fill="#FFB93E"/>
<path fill-rule="evenodd" clip-rule="evenodd" d="M9.69116 39.1919C7.61743 39.9158 6.22943 41.8001 5.62067 42.7834C5.66549 42.9769 5.71749 43.0847 5.71749 43.0847L6.31997 45.0776C9.78076 42.9431 9.69116 39.1919 9.69116 39.1919Z" fill="#E79615"/>
<path fill-rule="evenodd" clip-rule="evenodd" d="M7.46735 46.6069C6.63083 46.7099 5.64172 47.0918 5.0276 47.3583C4.9219 48.0199 5.05331 48.6627 5.05331 48.6627C5.05397 50.077 6.17243 52.0773 6.17243 52.0773C6.50808 52.7149 7.02775 53.1324 7.55255 53.408C10.6687 53.8902 10.7985 52.705 10.7985 52.705C11.1333 51.7449 10.1655 50.9695 10.1655 50.9695C9.77034 50.7623 8.6347 49.7263 8.6347 49.7263C7.13309 48.5667 7.46735 46.6069 7.46735 46.6069Z" fill="#E79615"/>
<path d="M15.3662 34.9481C15.6397 35.3598 16.0448 36.0566 16.3392 36.9529C16.8229 38.4259 18.4161 41.382 18.5897 43.0269C18.7634 44.6719 19.4862 46.7043 19.3543 47.5409C19.3244 47.73 19.6486 47.7803 20.0757 47.7972C19.5896 49.0749 18.7771 50.3243 17.5052 51.4493C16.2026 52.2302 15.263 52.833 14.5567 53.3066C13.765 53.5408 11.5464 54.2908 9.40128 53.9395C9.40128 53.9395 8.28715 53.8875 7.29811 53.2687C8.87577 52.3905 15.4734 47.9009 13.8743 34.898L14.0502 34.8443C14.2855 34.8435 14.7715 34.8571 15.3662 34.9481Z" fill="#E79615"/>
<path d="M12.552 34.692C13.2348 35.1147 12.9558 35.9385 12.9558 35.9385C12.8403 35.8718 12.6695 35.8272 12.514 35.7972C12.589 35.7379 12.6769 35.6208 12.585 35.4239C12.585 35.4239 12.4603 35.1291 12.2108 35.0393C12.1455 35.0213 12.03 34.9702 11.8758 34.9468C11.7217 34.9234 11.529 34.9277 11.3077 35.0213C11.3077 35.0213 10.095 35.4214 9.71254 35.7756C9.71254 35.7756 9.44763 35.984 9.35386 36.5178L9.38097 36.9609C9.38097 36.9609 9.39709 37.1875 9.58964 37.1764L9.28851 37.3463C8.78068 36.9787 9.04793 36.2144 9.04793 36.2144C9.47395 34.5738 11.7251 34.4584 11.7251 34.4584C12.0942 34.4869 12.361 34.5737 12.552 34.692Z" fill="#E79615"/>
<path d="M9.96069 45.3517C11.0056 45.9999 10.7648 47.216 10.7648 47.216C10.0252 44.788 6.58508 45.8208 6.58508 45.8208L6.54017 45.8053L6.32411 45.0905C8.10003 44.6227 9.5933 45.1708 9.5933 45.1708C9.73073 45.2238 9.85251 45.2848 9.96056 45.3519L9.96069 45.3517Z" fill="#E79615"/>
<path d="M6.91977 47.9391C6.90596 47.8191 6.81649 47.7122 6.67091 47.642C6.52534 47.5717 6.33558 47.5439 6.14336 47.5646C5.95117 47.5852 5.77217 47.6527 5.64569 47.7521C5.51921 47.8515 5.45567 47.9748 5.46883 48.0949C5.482 48.215 5.57087 48.3221 5.71599 48.3927C5.8611 48.4632 6.05067 48.4915 6.24291 48.4712C6.43517 48.451 6.61445 48.3839 6.74144 48.2847C6.86843 48.1855 6.93261 48.0623 6.92008 47.9421L6.19438 48.0178L6.91977 47.9391Z" fill="#FFB93E"/>
<path d="M28.2664 58.0548C35.3887 58.0548 41.1623 50.2277 41.1623 40.5724C41.1623 30.9172 35.3887 23.0901 28.2664 23.0901C21.1442 23.0901 15.3705 30.9172 15.3705 40.5724C15.3705 50.2277 21.1442 58.0548 28.2664 58.0548Z" fill="#BCB9A8"/>
<path d="M33.6129 30.4119C33.1693 35.8607 30.9956 38.3554 30.9956 38.3554C30.8032 38.5117 30.6001 38.4022 30.6001 38.4022C28.4132 37.8675 28.2147 32.8228 27.2741 31.7223C25.365 35.5408 21.2762 37.7462 21.2726 42.0436C21.2726 47.9124 25.7192 52.6701 31.2042 52.6701C36.6893 52.67 41.4418 47.3002 41.4419 41.4313C39.6046 39.1091 36.0869 38.1622 33.6129 30.4119Z" fill="#D5D3C7"/>
<path fill-rule="evenodd" clip-rule="evenodd" d="M43.4816 31.8475C46.4157 38.3892 44.5202 44.2048 44.5202 44.2048C42.2074 51.0753 36.3232 55.9391 36.3232 55.9391C35.5749 56.5513 35.0307 56.4493 35.0307 56.4493C34.3505 56.2452 34.8607 55.633 34.8607 55.633C35.0987 55.2588 37.6497 49.4767 37.6497 49.4767C40.5067 44.4089 39.8945 37.7425 39.8945 37.7425C39.5884 34.4433 37.5817 31.6883 37.5817 31.6883C37.5817 31.6883 36.9158 30.9336 37.5171 30.4526C37.5171 30.4526 41.6537 29.1058 43.4816 31.8475Z" fill="#194145"/>
<path fill-rule="evenodd" clip-rule="evenodd" d="M20.755 55.1743C20.755 55.1743 21.0441 55.3954 20.823 56.0247C20.823 56.0247 20.2107 57.8443 21.044 59.3239C21.044 59.3239 21.4522 60.1912 22.3705 59.3919C22.3705 59.3919 22.6936 59.2048 22.8467 58.2865C22.8467 58.2865 23.1698 59.4429 24.0031 59.8C24.0031 59.8 24.7174 60.2592 25.3976 59.4259C25.3976 59.4259 25.8398 60.2082 26.452 59.9021C26.452 59.9021 27.1833 59.715 27.3364 58.5926C27.3364 58.5926 27.3705 57.3341 26.8262 56.2798C26.8262 56.2798 26.554 55.7356 25.9588 55.3104C25.9588 55.3104 25.0065 54.6982 24.5643 55.2084C24.5643 55.2084 24.2837 54.7577 23.3739 54.7832C23.3739 54.7832 22.7107 54.7662 22.5576 55.2509C22.5576 55.2509 22.1155 54.3836 21.2141 54.6131C21.2141 54.6131 20.5764 54.7067 20.755 55.1743Z" fill="#FAB84A"/>
<path fill-rule="evenodd" clip-rule="evenodd" d="M15.9659 33.4709C15.9659 33.4709 12.5989 39.1948 13.8976 45.496C13.8976 45.496 14.9558 51.9416 18.7558 54.4428C18.7558 54.4428 19.8621 55.1403 20.2229 55.2124C20.2229 55.2124 21.0165 55.5972 21.4013 54.7073C21.4013 54.7073 22.4114 50.7871 23.0848 49.777C23.0848 49.777 24.209 47.8437 24.9232 45.1227C24.9232 45.1227 25.979 40.5786 24.5165 36.6331C24.5165 36.6331 23.4607 33.7966 21.59 32.2661C18.5289 29.1709 15.9659 33.4709 15.9659 33.4709Z" fill="#194145"/>
<path fill-rule="evenodd" clip-rule="evenodd" d="M25.0685 39.1399C25.9343 44.5272 23.7472 48.282 23.7472 48.282C22.1118 50.7111 20.4283 51.0478 20.4283 51.0478C18.6966 51.7933 17.4701 50.2541 17.4701 50.2541C14.5841 47.32 14.8726 43.3757 14.8726 43.3757C14.6802 38.1808 18.4321 36.4492 18.4321 36.4492C18.4321 36.4492 20.0957 36.1402 22.3324 37.4149C22.3324 37.4149 24.6356 37.4564 25.0685 39.1399Z" fill="#225054"/>
<path fill-rule="evenodd" clip-rule="evenodd" d="M37.6576 49.4635C37.6576 49.4635 37.2367 51.5439 39.3171 50.5458C39.3171 50.5458 40.1107 49.9686 41.0848 48.5015C41.0848 48.5015 43.1892 45.6635 43.6702 42.08C43.6702 42.08 44.188 39.279 42.0112 36.9322C42.0112 36.9322 41.6838 36.4574 40.6804 36.0578C40.6804 36.0578 39.5973 35.7575 39.7843 36.965C40.6941 43.0532 37.6576 49.4635 37.6576 49.4635Z" fill="#225054"/>
<path fill-rule="evenodd" clip-rule="evenodd" d="M29.8503 56.8721C29.8503 56.8721 29.7661 58.1708 29.7541 58.4594C29.7541 58.4594 29.6699 59.4575 30.3313 59.7581C30.3313 59.7581 31.1249 60.2151 31.8104 59.3132C31.8104 59.3132 32.1591 58.5797 32.123 57.7379C32.123 57.7379 32.3034 57.9183 32.3755 58.6999C32.3755 58.6999 32.5199 59.5657 33.085 59.6138C33.085 59.6138 33.9028 59.8303 34.2755 58.8202C34.2755 58.8202 34.4439 58.4354 34.4198 58.1227C34.4198 58.1227 34.5882 59.1809 35.0331 59.3613C35.0331 59.3613 35.7787 59.7461 36.3078 58.8322C36.3078 58.8322 36.7527 58.0385 36.0793 56.6436C36.0793 56.6436 35.5983 55.7417 34.7926 55.405C34.7926 55.405 33.566 54.936 33.1933 55.8018C33.1933 55.8018 32.8686 55.3569 32.1952 55.3569C32.1952 55.3569 31.63 55.2727 31.3294 55.6335C31.3294 55.6335 31.0167 55.2607 30.7041 55.2607C30.7041 55.2607 30.1028 55.1164 29.9345 55.7057C29.9345 55.7057 29.8999 55.9015 29.8999 56.2246C29.8999 56.2246 29.877 56.7756 29.8503 56.8721Z" fill="#FAB84A"/>
<path fill-rule="evenodd" clip-rule="evenodd" d="M27.2949 57.94C27.1929 58.6373 26.6401 58.5947 26.6401 58.5947C26.0875 58.5692 26.0194 57.9995 26.0194 57.9995C25.9174 56.1714 24.931 55.0404 24.931 55.0404C24.6929 55.0404 24.5909 55.27 24.5909 55.27C25.8409 56.7156 25.2116 58.3482 25.2116 58.3482C24.7695 58.9349 24.1403 58.3141 24.1403 58.3141C23.6641 57.957 23.7321 57.0982 23.7321 57.0982C23.6983 56.0353 23.2304 55.7207 23.2304 55.7207C22.7798 55.2445 22.9668 54.8704 22.9668 54.8704C22.6012 54.9979 22.5842 55.27 22.5842 55.27C22.8903 56.503 22.7457 57.2427 22.7457 57.2427C22.261 58.4417 21.5468 58.2801 21.5468 58.2801C20.6965 58.2631 20.6115 57.4383 20.6115 57.4383C20.6115 57.4383 20.5094 58.6968 21.0153 59.3515C21.0153 59.3515 21.3792 60.0637 22.1675 59.5556C22.1675 59.5556 22.6862 59.377 22.8478 58.3736C22.8478 58.3736 23.3239 59.6916 24.2253 59.9042C24.2253 59.9042 24.9225 60.1253 25.3902 59.4535C25.3902 59.4535 25.7558 60.0402 26.249 59.9977C26.249 59.9977 26.9122 59.9807 27.2268 59.0879C27.2268 59.0879 27.448 58.4842 27.2949 57.94V57.94Z" fill="#E89C23"/>
<path fill-rule="evenodd" clip-rule="evenodd" d="M29.8889 56.4251C29.8889 56.4251 30.1535 57.2909 30.1535 57.9402C30.1535 57.9402 30.2256 58.6257 30.9111 58.6618C30.9111 58.6618 31.5844 58.8301 31.7408 57.844C31.7408 57.844 32.0054 56.6896 31.5965 55.896C31.5965 55.896 32.0775 55.5352 32.6066 56.0884C32.6066 56.0884 33.0395 56.5934 33.0515 57.5675C33.0515 57.5675 33.0395 58.1807 33.244 58.4693C33.244 58.4693 33.449 58.9604 33.8657 58.5182C33.8657 58.5182 34.1888 58.2121 34.1888 57.3023C34.1888 57.3023 34.1038 56.4945 33.6616 55.9843C33.6616 55.9843 33.5256 55.8057 33.6533 55.7632C33.6533 55.7632 34.1124 55.6867 34.393 55.9418C34.393 55.9418 34.9457 56.554 35.2008 57.5488C35.2008 57.5488 35.2943 58.0505 35.6259 58.1186C35.6259 58.1186 35.8867 58.1661 36.1077 57.8174C36.1077 57.8174 36.2948 57.5708 36.3033 57.2137C36.3033 57.2137 36.5653 57.796 36.4208 58.6378C36.4208 58.6378 36.2342 59.4081 35.5795 59.5357C35.5795 59.5357 34.7671 59.8787 34.4355 58.3481C34.4355 58.3481 34.3407 59.5867 33.5197 59.7072C33.5197 59.7072 32.7944 59.8107 32.5818 59.3855C32.5818 59.3855 32.3608 58.9774 32.3608 58.6713C32.3608 58.6713 32.3013 58.0675 32.1227 57.8465C32.1227 57.8465 32.1056 58.9774 31.723 59.462C31.723 59.462 31.2724 60.0913 30.6176 59.9297C30.6176 59.9297 29.8523 59.8192 29.7418 58.9263C29.7418 58.9263 29.6993 58.5437 29.7418 58.3651L29.8889 56.4251Z" fill="#E89C23"/>
<path fill-rule="evenodd" clip-rule="evenodd" d="M27.583 28.0826C27.583 28.0826 23.8269 34.433 16.7558 35.4841C16.7558 35.4841 13.6981 36.3122 9.90774 31.7893C9.90774 31.7893 5.94614 28.2132 7.12466 23.117C7.12466 23.117 5.85056 24.4866 5.91426 26.1429C5.91426 26.1429 5.99389 27.0506 5.16576 26.3977C5.16576 26.3977 1.80546 21.1422 6.36023 16.7785C6.36023 16.7785 5.34567 16.6666 4.69254 17.3423C4.69254 17.3423 3.9042 18.2207 3.79167 17.027C3.79167 17.027 3.72406 13.1306 8.97181 11.8693C8.97181 11.8693 6.24658 9.23421 9.26461 5.90088C9.26461 5.90088 10.0078 9.97745 15.0529 8.37835C15.0529 8.37835 14.1069 3.19819 18.9267 1.12612C18.9267 1.12612 19.0618 5.72071 22.3051 5.72071C22.3051 5.72071 26.6293 5.72071 31.9897 0C31.9897 0 32.5753 2.38738 31.8095 4.45945C31.8095 4.45945 33.9267 2.2072 34.242 0.675679C34.242 0.675679 36.1339 2.61261 35.9988 5.27025C35.9988 5.27025 41.6744 5.67566 45.3231 2.70269C45.3231 2.70269 46.1788 5.18016 45.0978 7.65764C45.0978 7.65764 47.5303 7.5225 48.9266 4.90989C48.9266 4.90989 50.7284 6.71169 48.9266 9.86483C48.9266 9.86483 54.0617 10.3153 54.6023 15.2702C54.6023 15.2702 54.7268 16.253 53.9942 15.9026C53.9942 15.9026 53.0706 15.2815 52.1469 15.2019C52.1469 15.2019 54.9176 17.4774 54.6924 20.09C54.6924 20.09 54.7374 22.4774 52.4851 23.2432C52.4851 23.2432 53.8816 26.7116 51.1789 29.6846C51.1789 29.6846 50.6383 30.4278 50.2555 29.4594C50.2555 29.4594 50.2104 29.099 49.9176 29.1215C49.9176 29.1215 48.7096 31.9626 46.1871 33.314C46.1871 33.314 43.2118 36.0457 39.5632 33.9736C39.5632 33.9736 36.6529 33.5363 34.5809 28.221C34.5809 28.221 33.662 26.2088 31.4097 25.0827C31.4097 25.0827 29.5331 24.5321 27.583 28.0826Z" fill="#225054"/>
<path d="M45.5903 26.2377C42.0099 27.7111 37.4586 25.5967 35.4247 21.515C33.3908 17.4334 34.6445 12.9301 38.2249 11.4567C41.8053 9.98325 46.3566 12.0977 48.3905 16.1793C50.4244 20.261 49.1707 24.7643 45.5903 26.2377Z" fill="#1A4346"/>
<path d="M17.0457 22.6605C20.6261 24.1339 25.1774 22.0195 27.2113 17.9379C29.2452 13.8562 27.9915 9.35293 24.4111 7.87952C20.8307 6.40611 16.2794 8.52051 14.2455 12.6022C12.2116 16.6838 13.4653 21.1871 17.0457 22.6605Z" fill="#1A4346"/>
<path d="M15.0358 26.3668C18.6162 27.8402 23.1675 25.7258 25.2014 21.6442C27.2353 17.5625 25.9816 13.0592 22.4012 11.5858C18.8208 10.1124 14.2695 12.2268 12.2356 16.3085C10.2017 20.3901 11.4554 24.8934 15.0358 26.3668Z" fill="#1A4346"/>
<path d="M16.0455 24.3724C19.6259 25.8458 24.1772 23.7314 26.2112 19.6498C28.2451 15.5681 26.9914 11.0648 23.411 9.59143C19.8306 8.11802 15.2793 10.2324 13.2454 14.3141C11.2115 18.3957 12.4651 22.899 16.0455 24.3724Z" fill="#D6D4C8"/>
<path d="M43.5804 22.5314C40 24.0048 35.4487 21.8904 33.4148 17.8087C31.3809 13.7271 32.6346 9.22378 36.215 7.75037C39.7954 6.27695 44.3467 8.39136 46.3806 12.473C48.4145 16.5547 47.1608 21.058 43.5804 22.5314Z" fill="#1A4346"/>
<path d="M44.7574 24.3724C41.177 25.8458 36.6257 23.7314 34.5918 19.6498C32.5579 15.5681 33.8116 11.0648 37.392 9.59143C40.9724 8.11802 45.5237 10.2324 47.5576 14.3141C49.5915 18.3957 48.3378 22.899 44.7574 24.3724Z" fill="#D6D4C8"/>
<path d="M18.6802 1.23779C14.1401 3.37776 15.0529 8.3785 15.0529 8.3785C10.0078 9.97761 9.26463 5.90112 9.26463 5.90112C6.2466 9.23445 8.97189 11.8696 8.97189 11.8696C3.72415 13.1308 3.79167 17.0272 3.79167 17.0272C3.9042 18.2209 4.69262 17.3425 4.69262 17.3425C5.34575 16.6668 6.36017 16.7787 6.36017 16.7787C1.8054 21.1423 5.16573 26.3979 5.16573 26.3979C5.99386 27.0508 5.9143 26.1431 5.9143 26.1431C5.8506 24.4868 7.12471 23.1173 7.12471 23.1173C5.9462 28.2135 9.65954 32.0377 9.65954 32.0377C13.667 36.2195 16.7559 35.4843 16.7559 35.4843C23.8269 34.4332 27.5829 28.0827 27.5829 28.0827C28.4098 26.5774 29.4319 26.0436 30.3356 25.9261C30.1843 25.0391 29.9512 23.7241 29.8608 23.5432C29.7247 23.2711 29.1805 22.7268 28.4322 22.5908C27.684 22.4547 26.9656 23.0247 26.9656 23.0247C26.9656 23.0247 25.7741 30.2015 19.0697 32.4016C11.5644 34.4513 8.00339 27.3872 8.05441 21.5183C8.05441 21.5183 6.85188 21.6626 6.46709 22.2398C6.46709 21.6626 6.52829 16.9449 8.94315 15.7204C8.94315 15.7204 7.20861 15.4823 6.56235 15.9245C6.56235 15.9245 7.75271 13.1695 10.6438 12.7953C10.6438 12.7953 9.6915 11.8429 9.82756 10.2443C9.82756 10.2443 14.079 11.0267 16.1538 8.95195C16.1538 8.95195 14.6792 4.4282 18.6802 1.23779Z" fill="#194145"/>
<path d="M45.3231 2.70264C45.3117 2.71195 45.3 2.72083 45.2886 2.73007L45.2854 2.74454C45.5745 5.90769 43.6986 8.64289 43.6986 8.64289C47.8709 9.00361 48.9278 4.91252 48.9281 4.91151C48.9281 4.91149 48.9266 4.91001 48.9266 4.91001C47.5303 7.52262 45.0978 7.65777 45.0978 7.65777C46.1789 5.18029 45.3231 2.70264 45.3231 2.70264V2.70264ZM48.9315 9.85594C48.9286 9.85764 48.9078 9.87003 48.9078 9.87003C52.9213 11.3666 53.5674 14.7338 53.6016 14.9039C52.4111 14.1896 50.4793 14.9764 50.4793 14.9764C53.2692 17.622 52.6439 22.1915 52.6439 22.1915C52.2591 21.7586 51.1527 21.9991 51.1527 21.9991C52.4033 24.9333 50.8401 28.9737 50.8401 28.9737C50.359 28.2041 48.9882 27.9155 48.9882 27.9155C45.4899 34.2858 39.0599 32.8855 36.666 27.6C36.666 27.6 35.5831 24.7847 33.429 22.858C33.429 22.858 33.3328 22.5213 33.0442 22.3289C32.7556 22.1365 32.2972 22.0953 32.0086 22.6244C31.72 23.1535 30.9277 23.3472 30.5429 24.2611C30.4607 24.4564 30.4152 24.6679 30.3915 24.8911C31.4701 24.8598 31.4097 25.0827 31.4097 25.0827C33.6621 26.2088 34.5811 28.221 34.5811 28.221C36.6531 33.5363 39.5632 33.9737 39.5632 33.9737C43.2119 36.0458 46.1872 33.314 46.1872 33.314C48.7097 31.9627 49.9177 29.1216 49.9177 29.1216C50.2105 29.0991 50.2555 29.4594 50.2555 29.4594C50.6383 30.4279 51.1789 29.6845 51.1789 29.6845C53.8816 26.7116 52.4853 23.2432 52.4853 23.2432C54.7375 22.4774 54.6925 20.0901 54.6925 20.0901C54.9177 17.4775 52.1469 15.2019 52.1469 15.2019C53.0706 15.2815 53.9942 15.9025 53.9942 15.9025C54.7268 16.2529 54.6025 15.2703 54.6025 15.2703C54.0619 10.3153 48.9266 9.86495 48.9266 9.86495C48.9283 9.86191 48.9297 9.85898 48.9315 9.85594V9.85594Z" fill="#194145"/>
<path fill-rule="evenodd" clip-rule="evenodd" d="M26.4576 20.0106C26.4576 20.0106 27.4034 17.4881 29.2954 17.1052C29.2954 17.1052 30.5116 16.8349 31.5476 17.2628C31.5476 17.2628 33.7323 17.7809 34.498 20.5061C34.498 20.5061 34.7007 20.7538 34.3629 21.6772C34.3629 21.6772 31.7503 33.3889 31.6152 33.9295C31.6152 33.9295 31.2568 35.2346 30.5243 35.2028C30.5243 35.2028 29.6325 35.3143 29.3298 33.7695C29.3298 33.7695 26.7685 23.1956 26.6596 22.3183C26.044 20.9005 26.4576 20.0106 26.4576 20.0106Z" fill="#FAB84A"/>
<path fill-rule="evenodd" clip-rule="evenodd" d="M26.4575 20.0106C26.4575 20.0106 27.4034 17.4881 29.2953 17.1052C29.2953 17.1052 30.5115 16.8349 31.5475 17.2628C31.5475 17.2628 33.7322 17.7809 34.498 20.5061C34.498 20.5061 34.7007 20.7538 34.3628 21.6772C34.3628 21.6772 31.7502 33.3889 31.6151 33.9294C31.6151 33.9294 31.2568 35.2346 30.5242 35.2028C30.5242 35.2028 29.6324 35.3143 29.3298 33.7694C29.3298 33.7694 26.7684 23.1956 26.6597 22.3183C26.0441 20.9005 26.4575 20.0106 26.4575 20.0106Z" fill="#FAB84A"/>
<path fill-rule="evenodd" clip-rule="evenodd" d="M33.1047 22.9132C32.8794 26.1114 31.3254 30.6835 31.3254 30.6835C30.3119 33.3636 29.5461 30.6835 29.5461 30.6835C29.2984 30.233 27.5191 23.0484 27.5191 23.0484C27.5191 23.0484 27.2893 22.3548 27.9416 22.643C27.9416 22.643 30.2636 24.5298 32.5416 22.5754C32.5416 22.5754 33.0371 22.1249 33.1047 22.9132Z" fill="#501616"/>
<path d="M30.5604 24.8015C29.7378 24.8045 28.9308 25.166 28.2244 25.8481C28.7544 27.9328 29.4014 30.4204 29.5462 30.6836C29.5462 30.6836 30.312 33.3637 31.3255 30.6836C31.3255 30.6836 32.1582 28.229 32.6928 25.6593C32.0356 25.0975 31.3037 24.8031 30.5604 24.8015Z" fill="#9C3A3A"/>
<path d="M31.4879 19.6371C32.3389 20.2383 33.2724 20.3808 33.573 19.9553C33.8736 19.5298 33.4274 18.6975 32.5764 18.0963C31.7255 17.4952 30.792 17.3527 30.4914 17.7782C30.1908 18.2037 30.6369 19.036 31.4879 19.6371Z" fill="#FAD28E"/>
<path d="M22.9268 21.8183C20.2448 22.7478 17.3202 21.3362 16.3944 18.6653C15.4687 15.9944 16.8924 13.0756 19.5744 12.146C22.2564 11.2165 25.181 12.6281 26.1067 15.299C27.0325 17.9699 25.6088 20.8887 22.9268 21.8183Z" fill="#FAB84A"/>
<path d="M22.7247 21.235C20.3661 22.0525 17.7942 20.8111 16.9801 18.4623C16.166 16.1135 17.418 13.5467 19.7766 12.7292C22.1351 11.9117 24.7071 13.1531 25.5212 15.5019C26.3353 17.8508 25.0833 20.4175 22.7247 21.235Z" fill="#CF7B14"/>
<path d="M22.4489 20.5554C20.45 21.2482 18.2704 20.1962 17.5804 18.2056C16.8905 16.2151 17.9516 14.0397 19.9504 13.3469C21.9492 12.6542 24.1289 13.7062 24.8188 15.6968C25.5088 17.6873 24.4477 19.8627 22.4489 20.5554Z" fill="#201E1E"/>
<path d="M23.9629 15.4809C23.3212 15.7033 22.6215 15.3655 22.4 14.7265C22.1785 14.0874 22.5191 13.3891 23.1608 13.1666C23.8025 12.9442 24.5023 13.282 24.7238 13.921C24.9453 14.5601 24.6047 15.2585 23.9629 15.4809Z" fill="#FEFEFE"/>
<path d="M41.2275 21.4954C38.5716 22.416 35.6753 21.018 34.7586 18.373C33.8418 15.7281 35.2517 12.8376 37.9076 11.9171C40.5636 10.9965 43.4599 12.3944 44.3766 15.0394C45.2934 17.6844 43.8835 20.5748 41.2275 21.4954Z" fill="#FAB84A"/>
<path d="M41.0273 20.9179C38.6916 21.7274 36.1447 20.4981 35.3385 18.1721C34.5322 15.846 35.7721 13.3042 38.1078 12.4946C40.4435 11.6851 42.9905 12.9144 43.7967 15.2404C44.6029 17.5665 43.363 20.1083 41.0273 20.9179Z" fill="#CF7B14"/>
<path d="M40.754 20.2446C38.7746 20.9306 36.6161 19.8888 35.9329 17.9175C35.2496 15.9463 36.3004 13.7921 38.2798 13.106C40.2592 12.4199 42.4178 13.4618 43.101 15.433C43.7842 17.4043 42.7335 19.5585 40.754 20.2446Z" fill="#201E1E"/>
<path d="M42.2535 15.2194C41.6181 15.4397 40.9251 15.1052 40.7057 14.4723C40.4864 13.8395 40.8237 13.1479 41.4592 12.9276C42.0947 12.7074 42.7877 13.0418 43.007 13.6747C43.2264 14.3076 42.889 14.9992 42.2535 15.2194Z" fill="#FEFEFE"/>
<path d="M31.9709 0.0195312C31.9639 0.0270638 31.9569 0.0340043 31.9499 0.0415148C31.8963 0.308284 30.8115 5.51134 27.3429 6.84721C27.3429 6.84721 31.0226 6.6548 31.8163 4.41812C31.8243 4.40403 31.8311 4.38978 31.8388 4.37566C32.4505 2.63256 32.1341 0.707426 32.0241 0.162894C31.9943 0.0780972 31.9784 0.0378701 31.9709 0.0195312Z" fill="#194145"/>
<path fill-rule="evenodd" clip-rule="evenodd" d="M18.7678 49.2598C15.3968 55.0304 11.5381 52.1749 11.5381 52.1749C11.5381 52.1749 16.9572 57.5017 23.6605 51.1056C21.5281 51.4098 18.7678 49.2598 18.7678 49.2598Z" fill="#FFB93E"/>
<path fill-rule="evenodd" clip-rule="evenodd" d="M23.3016 50.8653C19.1893 53.9829 15.4357 53.3029 15.4357 53.3029C15.4357 53.3029 18.7569 51.4659 19.0152 48.5994C19.0152 48.5994 23.0671 49.891 23.3016 50.8653Z" fill="#E79615"/>
<path fill-rule="evenodd" clip-rule="evenodd" d="M18.1838 33.0649C18.1838 33.0649 13.0239 35.6168 9.85153 43.3113C9.85153 43.3113 7.35664 49.1731 13.2774 50.7683C13.2774 50.7683 16.1854 51.3075 18.59 51.2224C18.59 51.2224 20.8405 53.2945 22.7744 51.556C22.7744 51.556 24.3223 53.7439 26.552 52.2685C26.552 52.2685 28.5033 51.1454 29.1494 49.4265C29.1494 49.4265 32.4386 49.4578 32.4262 45.4241C32.4262 45.4241 34.662 44.3778 34.0756 42.0216C34.0756 42.0216 33.5724 39.8095 31.0391 38.3333C31.0391 38.3333 27.299 36.3487 24.0559 37.7343C24.0559 37.7343 22.5233 37.3547 22.1399 35.325C22.1399 35.325 21.6442 33.1558 21.5942 31.9822C21.5942 31.9822 19.9578 32.2146 18.1838 33.0649Z" fill="#194145"/>
<path fill-rule="evenodd" clip-rule="evenodd" d="M26.9262 41.9845C30.8934 34.574 25.2084 32.6417 25.2084 32.6417C20.7505 30.7018 16.1152 32.8475 13.9014 36.6319C13.9014 36.6319 19.1325 31.8042 23.0012 34.465C23.0012 34.465 26.4196 36.195 22.1571 40.7913C22.1571 40.7913 25.8923 41.4717 26.9262 41.9845Z" fill="#FFB93E"/>
<path fill-rule="evenodd" clip-rule="evenodd" d="M23.2727 34.615C23.2727 34.615 23.2695 34.6365 23.2727 34.6391C23.9944 35.1929 25.6201 37.0341 22.1469 40.7791C22.1469 40.7791 22.8712 40.913 23.7608 41.1021C24.1193 41.1021 24.4158 41.0707 24.5518 40.9823C25.0634 40.6511 26.3346 39.587 26.3346 39.587L26.1909 39.5453C27.2271 35.945 23.2749 34.6147 23.2749 34.6147L23.2727 34.615Z" fill="#E79615"/>
<path fill-rule="evenodd" clip-rule="evenodd" d="M29.2536 37.6444C27.8738 37.2456 25.9026 36.9596 24.0839 37.7284C23.5463 38.1109 23.2437 38.4789 23.2437 38.4789C16.9881 37.8214 13.7123 41.9787 13.7123 41.9787C11.0353 45.2695 13.5867 47.6147 13.6008 47.6848C15.7838 49.7982 19.5905 48.4698 19.5905 48.4698C19.5905 48.4698 20.0323 46.7651 20.9187 45.8765C20.9187 45.8765 20.7311 47.8651 20.5024 48.2843C20.5024 48.2843 20.4188 48.5932 20.8437 48.741C20.8437 48.741 21.9086 49.0945 22.2398 49.0342C22.2398 49.0342 22.7098 49.0129 22.8699 48.5409C22.8699 48.5409 23.3754 45.7425 22.7995 44.3109C22.7995 44.3109 23.9954 45.5946 23.7919 48.2587C23.7919 48.2587 23.7024 48.8978 24.3225 49.1809C24.3225 49.1809 26.0183 50.0853 27.4407 49.1744C27.4407 49.1744 27.8387 48.8672 27.7911 48.4898C27.7911 48.4898 27.7552 45.1143 27.1789 43.5001C27.1789 43.5001 28.4059 45.6543 28.5982 47.0326C28.5982 47.0326 28.6091 47.4833 29.0541 47.3711C29.0541 47.3711 31.5981 46.9125 31.0458 43.5474C31.0458 43.5474 30.6034 41.8033 30.0478 40.9741C30.0478 40.9741 31.4301 41.1972 31.818 43.5729C31.818 43.5729 33.2733 42.7957 33.6202 40.9195C33.1981 40.1558 32.4237 39.1375 31.046 38.3345C31.046 38.3345 30.3305 37.9545 29.2536 37.6433V37.6444Z" fill="#225054"/>
</svg>
