<svg width="234" height="192" viewBox="0 0 234 192" fill="none" xmlns="http://www.w3.org/2000/svg">
<path d="M96.2326 113.793C96.2326 113.793 106.595 123.589 116.618 120.759C116.618 120.759 126.113 118.6 132.826 109.936C132.826 109.936 131.663 118.984 131.21 120.103C131.21 120.103 130.07 126.648 138.04 122.791C138.04 122.791 144.067 118.199 145.653 110.037C145.653 110.037 147.987 117.911 148.707 119.218C148.707 119.218 152.637 126.045 156.625 117.997C156.625 117.997 159.131 108.593 157.199 102.236C157.199 102.236 161.328 106.513 162.619 106.671C162.619 106.671 167.643 110.086 168.083 103.726C168.083 103.726 166.244 84.983 149.757 74.1123C136.704 73.2057 131.204 74.8609 126.238 88.5778C126.238 88.5778 118.354 108.124 112.914 103.342C112.914 103.342 99.8546 92.6881 91.4695 98.2787C91.4695 98.2787 87.4535 106.918 96.2326 113.793Z" fill="#225054"/>
<path d="M134.521 101.573C134.04 105.426 132.827 109.937 132.827 109.937C126.113 118.601 116.619 120.76 116.619 120.76C108.236 123.126 99.6394 116.679 97.0425 114.5C97.7312 113.329 106.401 116.325 106.401 116.325C115.192 125.779 134.521 101.573 134.521 101.573Z" fill="#173C3F"/>
<path d="M60.8989 118.615C52.2556 100.275 61.1096 88.0482 61.1096 88.0482C70.3852 76.0321 92.7308 81.9348 92.7308 81.9348C110.019 102.092 112.089 135.796 95.8444 156.788C74.722 185.63 47.8243 182.114 47.8243 182.114C42.0107 180.921 43.3523 176.897 43.3523 176.897C43.3523 176.897 57.526 166.891 60.2664 150.658C60.2664 150.658 65.1151 130.632 60.8989 118.615Z" fill="#D6D4C8"/>
<path d="M80.121 102.692C80.121 102.692 78.0341 93.8968 86.8291 89.0522C86.8291 89.0522 94.3227 95.2866 94.5192 110.426C92.8049 108.115 80.121 102.692 80.121 102.692Z" fill="#BCB9A8"/>
<path d="M66.6459 116.68C66.6459 116.68 76.4485 111.305 80.3484 103.399C80.3484 103.399 83.8794 106.72 84.9334 106.93C84.9334 106.93 86.778 108.353 88.9915 105.929C88.9915 105.929 90.7308 103.452 90.7308 100.079C90.7308 100.079 83.8098 92.8217 82.0211 91.7782C80.2324 90.7348 76.8039 89.2441 75.9093 89.2441C75.0151 89.2441 70.3939 91.331 70.3939 91.331L61.0029 105.641C61.0029 105.641 60.705 106.685 60.2576 112.945C59.8105 119.206 66.6459 116.68 66.6459 116.68Z" fill="#BCB9A8"/>
<path d="M73.8338 174.205C73.8338 174.205 72.2 175.997 73.939 178.421C73.939 178.421 74.5189 179.001 75.2569 179.897C75.2569 179.897 76.6271 181.953 77.1012 183.112C77.1012 183.112 77.8392 185.589 80.6323 184.851C80.6323 184.851 81.7392 184.377 82.108 182.585C82.108 182.585 83.2149 184.904 85.1647 184.219C85.1647 184.219 87.6944 183.586 85.1647 178.053C85.1647 178.053 86.4823 179.054 86.9567 181.162C86.9567 181.162 87.3255 182.954 89.2228 182.163C89.2228 182.163 90.7511 181.742 90.5404 178.316C90.5404 178.316 89.7497 174.68 83.3201 172.519C83.3201 172.519 81.1596 171.939 79.3676 173.046C79.3676 173.046 76.0472 172.255 73.8338 174.205Z" fill="#CE9434"/>
<path d="M61.6961 164.837C61.6961 164.837 67.9676 174.745 81.7759 171.161C81.7759 171.161 67.7569 183.704 48.5733 182.439C48.5733 182.439 44.6264 182.044 43.7319 179.994C43.7319 179.994 42.6051 178.084 43.3503 176.855C43.3503 176.855 54.2719 164.367 61.6961 164.837Z" fill="#BCB9A8"/>
<path d="M73.5701 177.789C73.5701 177.789 77.0485 178.316 79.2093 180.951C79.2093 180.951 77.9973 176.313 76.6271 175.154C76.6271 175.154 82.0553 177.262 83.4255 184.008C83.4255 184.008 82.2955 183.376 82.0718 182.556C82.0718 182.556 81.6991 184.941 80.0596 184.979C80.0596 184.979 78.0844 185.202 77.2647 183.525C77.2647 183.525 75.923 180.693 75.4384 180.209C75.4384 180.209 73.6394 177.978 73.5701 177.789Z" fill="#AD7821"/>
<path fill-rule="evenodd" clip-rule="evenodd" d="M78.4014 129.512C86.5676 126.91 93.371 119.924 95.504 132.246C95.504 132.246 98.0526 157.591 81.2504 164.594C81.2504 164.594 75.6973 166.655 72.8193 162.318C72.8193 162.318 69.3368 165.805 66.3411 164.995C66.3411 164.995 64.7422 165.144 62.9149 163.843C62.828 161.176 65.2068 158.058 64.9705 155.508C64.9705 155.508 61.6731 147.38 60.9146 139.112C63.3721 137.256 70.8104 131.931 78.4014 129.512Z" fill="#BCB9A8"/>
<path d="M40.1519 108.071C40.1519 108.071 76.4862 137.399 43.245 173.92C43.245 173.92 41.568 175.373 42.8352 176.901C42.8352 176.901 43.3943 177.982 46.04 176.677C46.04 176.677 79.0578 158.305 80.5484 132.964C80.5484 132.964 82.7842 120.592 69.2196 107.773C69.2196 107.773 51.1825 95.5492 40.1519 108.071Z" fill="#1A4245"/>
<path d="M94.5062 110.443C94.5062 110.443 94.2825 96.2818 86.8294 89.0522C86.8294 89.0522 94.2825 89.723 96.2949 99.1886C96.2949 99.1886 98.1584 106.344 94.5062 110.443Z" fill="#BCB9A8"/>
<path d="M77.759 94.4011C77.759 94.4011 70.0541 122.894 49.1854 117.676C49.1854 117.676 51.935 115.851 51.9879 112.162C51.9879 112.162 46.8229 117.063 37.4948 115.06C37.4948 115.06 39.0758 114.059 39.9716 111.319C39.9716 111.319 29.7476 119.54 20.2084 113.163C20.2084 113.163 23.8449 111.74 24.2664 108.578C24.2664 108.578 19.6288 105.996 18.6274 103.36C18.6274 103.36 17.626 106.628 18.7855 109.527C18.7855 109.527 9.98135 108.062 13.5591 93.0064C13.5591 93.0064 8.87745 95.0863 4.45056 92.8201C4.45056 92.8201 9.19371 91.2917 9.72071 89.0255C9.72071 89.0255 0.217659 82.87 8.71449 74.1498C8.71449 74.1498 2.67746 75.0442 -0.00576782 68.4853C-0.00576782 68.4853 8.86344 70.125 12.143 61.6284C12.143 61.6284 5.95676 56.4857 9.38529 48.2126C9.38529 48.2126 14.1552 54.6969 23.5462 48.2871C23.5462 48.2871 26.3784 46.2748 28.0182 43.219C28.0182 43.219 32.1175 35.1695 43.9681 33.2317C43.9681 33.2317 41.2104 37.4055 42.1794 42.7718C42.1794 42.7718 44.0426 38.1508 46.5021 37.0328C46.5021 37.0328 45.6824 40.4613 48.1419 42.5482C58.5583 43.2263 71.2643 40.906 75.2816 34.1814C75.2816 34.1814 78.2699 38.7996 74.106 42.972C74.106 42.972 80.3736 41.5529 83.986 36.712C83.986 36.712 85.8225 40.5396 84.1886 42.4896C84.1886 42.4896 88.6553 45.1086 99.6003 36.9712C99.6003 36.9712 101.949 41.3301 99.2089 46.0206C99.2089 46.0206 96.7021 52.3552 104.898 51.4487C104.898 51.4487 109.537 51.1762 112.22 47.8223C112.22 47.8223 114.72 54.8603 108.364 59.6905C108.364 59.6905 113.333 60.0921 113.438 65.5204C113.438 65.5204 115.652 66.7325 115.546 71.6338C115.546 71.6338 114.229 70.0528 112.068 69.5785C112.068 69.5785 115.226 78.216 114.816 82.2407C114.816 82.2407 112.915 79.7811 111.127 79.6693C111.127 79.6693 111.02 85.2595 116.796 84.1788C116.796 84.1788 116.211 88.4994 112.206 89.6589C112.206 89.6589 115.437 95.9995 109.777 98.0545C109.777 98.0545 108.763 102.585 104.441 104.43C104.441 104.43 102.866 105.681 101.301 103.542C101.301 103.542 93.6069 93.7514 84.5137 91.6644C84.5137 91.6644 80.8427 88.8643 77.759 94.4011Z" fill="#225054"/>
<path d="M94.9159 88.5134C101.192 88.0233 105.578 78.6353 104.712 67.5448C103.846 56.4543 98.0556 47.861 91.7794 48.3511C85.5031 48.8412 81.1174 58.2291 81.9835 69.3197C82.8497 80.4102 88.6397 89.0035 94.9159 88.5134Z" fill="#1A4245"/>
<path d="M95.7607 96.8468C102.037 96.3567 106.423 86.9688 105.557 75.8783C104.69 64.7878 98.9004 56.1945 92.6242 56.6846C86.348 57.1747 81.9623 66.5626 82.8284 77.6532C83.6945 88.7437 89.4845 97.337 95.7607 96.8468Z" fill="#1A4245"/>
<path d="M96.1681 92.3247C102.323 91.8441 106.623 82.638 105.774 71.7624C104.925 60.8868 99.2469 52.4599 93.0923 52.9405C86.9377 53.4212 82.6369 62.6272 83.4862 73.5029C84.3356 84.3785 90.0134 92.8054 96.1681 92.3247Z" fill="#D6D4C8"/>
<path d="M100.43 82.9552C104.732 81.2992 106.823 75.4034 105.099 69.7866C103.376 64.1697 98.4904 60.9588 94.1878 62.6148C89.8853 64.2708 87.7946 70.1666 89.5183 75.7835C91.242 81.4003 96.1272 84.6112 100.43 82.9552Z" fill="#FAB84A"/>
<path d="M100.767 81.6959C104.666 80.2318 106.56 75.019 104.998 70.0529C103.436 65.0867 99.0097 62.2478 95.111 63.712C91.2123 65.1761 89.3179 70.3889 90.8798 75.355C92.4417 80.3212 96.8684 83.1601 100.767 81.6959Z" fill="#CF7B14"/>
<path d="M101.099 80.6381C104.455 79.3461 106.086 74.7463 104.742 70.3641C103.397 65.9819 99.5855 63.4768 96.2287 64.7688C92.8719 66.0608 91.2408 70.6606 92.5856 75.0428C93.9303 79.425 97.7417 81.9301 101.099 80.6381Z" fill="black"/>
<path d="M93.2843 70.6312C94.6244 70.6312 95.7108 69.5448 95.7108 68.2047C95.7108 66.8647 94.6244 65.7783 93.2843 65.7783C91.9443 65.7783 90.8579 66.8647 90.8579 68.2047C90.8579 69.5448 91.9443 70.6312 93.2843 70.6312Z" fill="white"/>
<path d="M73.1568 111.98C58.2506 128.974 64.9705 155.508 64.9705 155.508C64.9705 155.508 76.6086 147.556 79.59 138.463C79.59 138.463 84.9699 126.589 73.1568 111.98Z" fill="#225054"/>
<path d="M112.487 74.7908C112.759 74.7969 113.226 74.8873 113.767 75.0408C114.435 77.5574 115.005 80.3861 114.816 82.2403C114.816 82.2403 112.915 79.7809 111.126 79.6691C111.126 79.6691 111.02 85.2593 116.796 84.1785C116.796 84.1785 116.211 88.499 112.206 89.6584C112.206 89.6584 115.437 95.9992 109.777 98.0543C109.777 98.0543 108.763 102.585 104.441 104.43C104.441 104.43 102.866 105.681 101.301 103.542C101.301 103.542 97.6472 98.8939 92.4005 95.3201C96.2961 97.1924 99.3725 98.283 101.068 100.089C101.068 100.089 105.922 102.813 106.476 96.5118C106.476 96.5118 112.607 94.8088 109.456 89.1885C109.456 89.1885 111.628 89.1884 113.288 85.5266C113.288 85.5266 108.562 84.4622 107.966 78.5012C107.966 78.5012 111.756 74.8822 112.352 74.7971C112.389 74.7917 112.434 74.7897 112.487 74.7909V74.7908Z" fill="#1A4245"/>
<path fill-rule="evenodd" clip-rule="evenodd" d="M74.3283 104.638C74.3283 104.638 75.0795 103.462 76.522 103.11C76.522 103.11 76.3396 104.742 77.8228 104.486C77.8228 104.486 78.9918 103.687 78.4464 102.346C78.4464 102.346 79.4791 102.022 79.5622 101.767C79.5622 101.767 81.8568 101.664 82.3177 101.776C82.3177 101.776 82.2599 102.716 83.3353 102.743C83.3353 102.743 83.9304 102.738 84.0959 102.142C84.0959 102.142 85.5284 102.446 86.3767 103.5C86.3767 103.5 87.4171 104.197 87.7579 104.279C87.7579 104.279 88.0038 104.402 88.1169 104.812C88.1169 104.812 89.4629 105.561 89.9997 107.728C89.9997 107.728 90.7494 109.627 90.1203 111.702C90.1203 111.702 89.7898 112.98 89.6741 114.161C89.6741 114.161 88.6207 118.34 88.6175 118.53C88.6175 118.53 88.184 118.743 88.2142 119.408C88.2142 119.408 88.2117 120.383 89.2862 120.94C89.2862 120.94 79.9144 117.737 77.6656 115.003C77.6656 115.003 73.7923 112.536 73.2257 109.669C73.2257 109.669 72.7498 106.847 74.3283 104.638Z" fill="#7E7259"/>
<path fill-rule="evenodd" clip-rule="evenodd" d="M81.6058 113.49L82.3283 110.875C82.3283 110.875 84.6436 111.225 84.9809 110.947C84.9809 110.947 86.9235 109.737 86.2684 108.228C86.2684 108.228 84.6596 105.949 81.6765 106.128C81.6765 106.128 78.0072 106.29 77.9902 109.586C77.9902 109.586 77.6439 112.382 81.6058 113.49Z" fill="#8F846A"/>
<path fill-rule="evenodd" clip-rule="evenodd" d="M159.38 125.913C159.35 124.676 157.751 122.849 157.751 122.849C155.508 119.847 151.159 119.347 151.159 119.347C147.921 118.437 145.405 121.183 145.405 121.183C144.999 121.805 144.921 121.756 144.921 121.756C143.153 122.739 143.021 125.015 143.021 125.015C143.103 125.29 144.028 127.253 144.028 127.253C145.51 128.672 144.947 129.681 144.947 129.681C144.756 130.823 143.933 130.454 143.933 130.454L145.78 131.675L146.142 133.513L146.843 132.367L147.975 131.983C147.975 131.983 152.984 132.94 155.59 131.725C155.59 131.725 159.152 130.669 159.38 125.913Z" fill="#7E7259"/>
<path fill-rule="evenodd" clip-rule="evenodd" d="M155.855 126.741C155.855 126.741 154.806 131.541 154.8 132.091C154.8 132.091 149.987 132.672 149.886 132.648C149.786 132.624 146.883 131.561 146.697 131.452C146.511 131.344 145.298 130.393 145.298 130.393L145.734 128.504C145.734 128.504 148.723 129.036 149.113 129.003C149.503 128.97 152.513 128.892 152.623 128.876C152.733 128.86 154.035 128.475 154.134 128.414C154.234 128.354 155.697 126.777 155.697 126.777L155.855 126.741Z" fill="#9A8F74"/>
<path fill-rule="evenodd" clip-rule="evenodd" d="M148.057 125.512L147.911 128.596C147.911 128.596 152.169 129.596 153.899 128.275C153.899 128.275 155.152 127.558 155.186 127.416C155.221 127.274 155.654 125.729 154.722 124.994C154.722 124.994 152.88 123.678 150.388 124.185C149.2 124.258 148.057 125.512 148.057 125.512Z" fill="#8F846A"/>
<path fill-rule="evenodd" clip-rule="evenodd" d="M152.235 119.556C151.582 119.397 151.157 119.349 151.157 119.349C147.92 118.439 145.403 121.185 145.403 121.185C144.998 121.807 144.92 121.758 144.92 121.758C143.152 122.74 143.02 125.017 143.02 125.017C143.102 125.292 144.027 127.255 144.027 127.255C145.508 128.674 144.946 129.683 144.946 129.683C144.755 130.825 143.932 130.456 143.932 130.456L145.779 131.677L145.894 132.601C146.082 132.701 145.975 133.775 146.155 133.866L146.842 132.369L147.974 131.985C147.974 131.985 149.691 132.311 151.637 132.339C150.561 132.203 147.01 131.662 145.916 130.321C145.916 130.321 145.483 129.919 146.034 129.395C146.034 129.395 146.502 129.126 146.822 129.204L146.919 130.648L147.332 129.2L148.359 129.342C148.359 129.342 148.102 131.719 148.239 131.328C148.376 130.937 148.9 129.473 148.9 129.473C148.9 129.473 150.255 129.397 150.594 129.31L150.57 131.425L151.184 129.325C151.184 129.325 152.354 129.226 152.517 129.075C152.517 129.075 152.493 131.105 152.526 130.88C152.559 130.655 153.008 129.066 153.008 129.066C153.008 129.066 153.197 129.07 153.375 129.388C153.552 129.707 153.908 131.045 153.908 131.045L154.338 129.091C154.338 129.091 156.183 127.691 155.863 125.854C155.863 125.854 155.506 124.176 153.472 123.812C153.472 123.812 151.158 123.209 149.085 124.236C149.085 124.236 148.196 124.317 148.031 125.614C148.031 125.614 147.984 128 148.022 127.839C148.061 127.679 148.499 125.43 148.499 125.43C148.499 125.43 149.051 124.991 149.22 124.905C149.22 124.905 149.11 126.766 149.108 126.596C149.107 126.426 149.574 124.757 149.574 124.757C149.574 124.757 150.812 124.462 151.073 124.525L151.041 126.236L151.513 124.547L152.148 124.552L152.196 126.282L152.574 124.634L153.14 124.834C153.14 124.834 153.227 127.019 153.247 126.939C153.266 126.859 153.575 124.791 153.575 124.791C153.575 124.791 155.941 126.148 154.324 127.836C154.324 127.836 151.304 129.269 147.915 128.11C147.915 128.11 144.753 127.324 144.424 126.142C144.424 126.142 144.269 124.238 145.082 123.246C145.082 123.246 145.855 122.245 146.284 122.137L146.625 122.919L146.607 125.715L147.335 121.648L148.42 120.935C148.42 120.935 149.036 120.744 149.658 120.714L149.511 122.809L149.882 121.338L150.241 121.155L150.411 120.701C150.411 120.701 151.795 120.871 152.395 121.121L152.383 122.348L152.894 121.227C152.894 121.227 156.001 121.963 157.438 124.021C157.438 124.021 158.686 125.807 158.641 127.296C158.641 127.296 158.555 128.456 158.273 129.569C158.845 128.705 159.303 127.522 159.38 125.915C159.349 124.678 157.751 122.851 157.751 122.851C156.209 120.787 153.671 119.906 152.236 119.556L152.235 119.556Z" fill="#6D634B"/>
<path fill-rule="evenodd" clip-rule="evenodd" d="M88.7944 121.349C81.2418 119.582 76.2341 113.991 76.2341 113.991L77.5638 108.493C77.5638 108.493 77.645 111.91 79.8762 112.683C79.8762 112.683 82.6332 114.177 84.1344 114.285C84.1344 114.285 86.9281 115.364 89.2586 112.13L89.5978 112.658L88.4839 118.052C88.4839 118.052 87.8505 118.917 87.9996 119.441C87.9996 119.441 88.2156 120.215 89.0253 120.814L88.7944 121.349Z" fill="#9A8F74"/>
<path fill-rule="evenodd" clip-rule="evenodd" d="M86.9127 109.284L85.8162 114.313C85.8162 114.313 83.285 114.856 81.5419 113.505L82.3485 110.79C82.3485 110.79 84.8074 111.414 85.5428 110.482L86.9127 109.284Z" fill="#8F846A"/>
<path fill-rule="evenodd" clip-rule="evenodd" d="M74.4974 104.472C74.4974 104.472 71.5037 106.928 70.8075 112.039C70.8075 112.039 69.7735 121.025 70.9998 129.637C70.9998 129.637 72.4628 144.288 72.353 145.619L72.6277 146.237L72.3608 146.639L72.4885 148.919L74.3884 150.184C74.3884 150.184 74.433 149.474 74.6032 149.473C74.7732 149.472 75.1547 149.648 75.1547 149.648L76.2609 149.109L76.4701 150.348L76.4199 151.609L77.415 152.231L78.082 150.526L79.6401 150.224C79.6401 150.224 79.9418 151.782 79.8934 151.982C79.8449 152.182 79.4976 153.796 79.4976 153.796L84.2583 156.389C84.2583 156.389 85.2474 157.562 86.7594 157.8C86.7594 157.8 86.964 157.128 87.7065 157.393C87.7065 157.393 88.3989 157.688 88.0253 158.531C88.0253 158.531 92.1433 160.8 94.8385 161.409C94.8385 161.409 94.645 160.98 95.285 160.965C95.285 160.965 96.2167 161.148 96.2924 161.888L98.1277 162.544C98.1277 162.544 99.9063 163.61 104.342 164.216L104.612 163.294L105.534 162.827C105.534 162.827 105.9 163.425 105.872 163.538C105.845 163.652 105.73 164.374 105.73 164.374C105.73 164.374 113.759 164.666 114.163 164.733C114.163 164.733 114.547 163.641 114.896 163.441L115.855 163.193C115.855 163.193 116.211 163.834 116.225 163.897C116.24 163.961 116.39 164.702 116.172 164.859C116.172 164.859 118.067 164.916 119.354 165.164C119.354 165.164 121.366 165.396 122.747 165.082C122.747 165.082 124.241 164.999 125.685 165.083C125.685 165.083 127.869 165.183 129.135 164.784C129.135 164.784 131.577 164.115 131.935 164.186C131.935 164.186 132.257 163.29 132.679 163.189C132.679 163.189 133.603 162.745 134.018 163.355C134.018 163.355 134.163 163.593 134.137 163.797C134.137 163.797 136.86 163.113 139.449 163.199C139.449 163.199 143.313 163.099 144.413 162.21C144.413 162.21 145.461 161.285 145.706 160.538C145.706 160.538 150.917 154.777 153.12 148.649C153.12 148.649 154.931 140.814 155.712 139.687C155.712 139.687 159.744 129.828 159.946 128.497C159.946 128.497 160.315 127.064 159.269 125.311C159.269 125.311 159.993 131.983 152.015 132.345C152.015 132.345 148.873 132.179 147.991 131.966L146.834 132.365L146.133 133.51L145.819 131.652L143.697 130.248L141.107 130.258L138.722 132.227L138.011 132.182L137.377 132.877L136.535 132.674L136.209 131.916L136.421 130.864C136.421 130.864 130.245 130.734 128.921 131.373L128.221 132.404L126.405 130.735C126.405 130.735 119.529 130.512 117.751 130.052C117.751 130.052 114.991 132.654 113.58 129.433C113.58 129.433 101.21 126.622 99.8358 125.359L99.004 125.698C99.004 125.698 98.8286 126.796 97.8632 126.322C97.8632 126.322 96.8404 126.705 96.2338 125.988C96.2338 125.988 94.7722 124.465 95.0065 122.751C95.0065 122.751 80.8588 118.61 77.676 114.9C77.676 114.9 72.8568 111.754 73.214 108.541C73.214 108.541 73.0016 106.689 74.498 104.471L74.4974 104.472ZM109.046 128.932C109.179 128.953 109.162 129.024 109.217 129.058C109.272 129.093 109.148 129.254 109.118 129.289C109.088 129.324 108.529 129.136 108.474 129.101C108.419 129.067 108.279 128.768 108.279 128.768C108.279 128.768 108.913 128.91 109.046 128.932L109.046 128.932ZM121.083 133.498C121.569 133.594 122.601 134.501 122.601 134.501C123.227 135.332 122.661 136.446 122.661 136.446C122.28 137.669 121.289 136.857 121.289 136.857C120.911 136.575 120.126 136.491 120.126 136.491C118.878 136.125 119.119 135.038 119.119 135.038C119.209 134.317 119.849 133.687 119.849 133.687C120.091 133.215 121.083 133.498 121.083 133.498ZM121.764 159.974C122.385 160.159 122.364 160.918 122.364 160.918C122.014 162.191 121.253 162.091 121.253 162.091C120.148 162.1 120.124 160.97 120.124 160.97C120.195 160.414 120.768 160.15 120.768 160.15C121.092 160.037 121.281 159.87 121.456 159.934C121.573 159.933 121.675 159.948 121.764 159.974L121.764 159.974Z" fill="#8F846A"/>
<path fill-rule="evenodd" clip-rule="evenodd" d="M155.447 140.212C149.953 153.545 146.687 153.062 139.691 156.767C140.442 156.991 133.893 159.193 133.893 159.193C133.579 159.966 131.711 160.32 131.711 160.32C129.791 160.365 128.501 161.665 128.501 161.665C127.758 161.801 124.53 161.58 122.184 161.392C121.803 162.166 121.248 162.096 121.248 162.096C120.472 162.102 120.233 161.551 120.158 161.22C120.001 161.206 119.64 161.174 119.64 161.174C117.769 160.722 108.9 160.677 108.9 160.677C100.84 161.008 95.6966 157.964 95.6966 157.964C91.8118 154.924 82.7485 151.915 82.7485 151.915C88.0183 150.474 86.7989 145.343 86.7989 145.343C89.1462 144.935 89.0631 141.945 89.0631 141.945C93.8022 140.418 92.677 137.177 92.677 137.177C90.3338 128.823 76.2079 122.599 70.3961 120.358C70.3962 123.183 70.5392 126.438 70.9955 129.642C70.9955 129.642 72.4584 144.293 72.3485 145.624L72.6234 146.242L72.3564 146.644L72.484 148.924L74.3839 150.189C74.3839 150.189 74.4286 149.479 74.5989 149.478C74.7688 149.477 75.1504 149.653 75.1504 149.653L76.2564 149.114L76.4657 150.353L76.4155 151.614L77.4105 152.236L78.0775 150.531L79.6357 150.229C79.6357 150.229 79.9375 151.787 79.889 151.987C79.8405 152.187 79.4931 153.8 79.4931 153.8L84.2539 156.394C84.2539 156.394 85.2431 157.567 86.7551 157.805C86.7551 157.805 86.9597 157.133 87.7021 157.398C87.7021 157.398 88.3945 157.693 88.0209 158.536C88.0209 158.536 92.139 160.805 94.8341 161.414C94.8341 161.414 94.6407 160.985 95.2806 160.97C95.2806 160.97 96.2124 161.153 96.2881 161.893L98.1233 162.549C98.1233 162.549 99.9019 163.615 104.337 164.221L104.607 163.298L105.53 162.832C105.53 162.832 105.895 163.43 105.868 163.543C105.841 163.657 105.726 164.379 105.726 164.379C105.726 164.379 113.755 164.671 114.159 164.738C114.159 164.738 114.543 163.646 114.891 163.446L115.851 163.198C115.851 163.198 116.206 163.839 116.221 163.902C116.235 163.965 116.386 164.707 116.168 164.864C116.168 164.864 118.063 164.921 119.35 165.169C119.35 165.169 121.362 165.401 122.742 165.087C122.742 165.087 124.237 165.004 125.68 165.088C125.68 165.088 127.865 165.188 129.131 164.789C129.131 164.789 131.573 164.12 131.93 164.191C131.93 164.191 132.252 163.294 132.674 163.194C132.674 163.194 133.599 162.75 134.014 163.361C134.014 163.361 134.159 163.598 134.132 163.802C134.132 163.802 136.855 163.118 139.444 163.204C139.444 163.204 143.308 163.104 144.408 162.215C144.408 162.215 145.457 161.29 145.701 160.543C145.701 160.543 150.913 154.782 153.116 148.654C153.116 148.654 154.585 142.296 155.448 140.212L155.447 140.212Z" fill="#7E735A"/>
<path fill-rule="evenodd" clip-rule="evenodd" d="M84.097 102.115C83.9313 102.711 83.3364 102.716 83.3364 102.716C82.261 102.689 82.3189 101.749 82.3189 101.749C81.858 101.637 79.5632 101.74 79.5632 101.74C79.48 101.995 78.4474 102.318 78.4474 102.318C78.9928 103.659 77.8238 104.459 77.8238 104.459C76.3405 104.715 76.523 103.083 76.523 103.083C75.0805 103.435 74.3294 104.611 74.3294 104.611C73.7276 105.453 73.4256 106.383 73.2808 107.214C73.9998 106.047 75.3109 104.469 77.0575 104.719L76.7319 107.43L77.6663 104.806C77.6663 104.806 78.9773 104.223 79.2397 103.387C79.2397 103.387 81.3569 102.819 82.6703 103.466L82.7408 105.283L83.465 103.779C83.465 103.779 87.6817 104.948 88.587 106.787C88.587 106.787 90.0247 108.905 88.5278 111.993C88.5278 111.993 86.7305 114.588 83.2806 113.844C83.2806 113.844 79.3418 113.011 78.5033 110.648C78.5033 110.648 77.7155 108.448 79.6787 107.153C79.6787 107.153 82.1975 105.422 84.6519 107.306C84.6519 107.306 86.9979 108.893 85.453 110.319C85.453 110.319 84.6049 111.344 82.2224 110.528L81.6911 113.115L82.5105 111.044L83.231 111.133L83.0535 112.745C83.0535 112.745 83.4729 111.361 83.5531 111.381C83.6333 111.4 84.1093 111.537 84.1093 111.537L83.9836 112.758L84.5352 111.618C84.5352 111.618 85.4378 111.306 85.5221 111.221L85.0547 113.505L85.856 111.068L86.4671 110.558L86.12 112.871L87.0061 109.734C87.0061 109.734 87.2645 108.227 85.6741 106.909C85.6741 106.909 82.6167 104.727 80.1709 105.981C80.1709 105.981 77.3625 106.893 77.4726 109.507C77.4726 109.507 77.4919 111.357 78.1372 112.023L77.8733 113.157L78.272 112.299C78.272 112.299 78.8011 112.522 78.8512 112.535C78.9011 112.547 78.5708 114.397 78.5708 114.397L79.103 112.723L80.0164 113.156C80.0164 113.156 79.7985 115.065 79.7936 115.085C79.7888 115.105 80.4307 113.415 80.4307 113.415L81.283 113.856L80.7026 116.565L81.6514 113.945L82.3642 114.222C82.3642 114.222 81.9071 116.856 81.9938 116.622C82.0802 116.388 82.7732 114.516 82.7732 114.516C82.7732 114.516 83.0456 114.507 83.0568 114.585C83.0678 114.662 82.5275 117.517 82.5412 117.46C82.5549 117.403 83.5106 114.754 83.5106 114.754L83.7481 114.827C83.7481 114.827 83.2865 117.355 83.3174 117.228C83.3482 117.1 84.3193 115.07 84.3193 115.07C84.3193 115.07 85.3495 115.214 85.5436 115.156C85.5436 115.156 85.175 117.362 85.2376 117.227C85.3001 117.092 86.1438 115.031 86.1438 115.031L86.7966 114.874L86.2396 118.294L87.2928 114.559C87.2928 114.559 87.6239 114.369 87.7641 114.223L87.0554 119.077L88.4631 113.627L89.1985 112.695L88.3817 116.817C88.3817 116.817 88.4556 117.255 88.4849 117.382C88.5145 117.51 87.9662 118.907 87.9662 118.907C87.9662 118.907 87.7579 119.397 87.8809 119.756C87.8809 119.756 88.2529 120.289 88.9161 120.783C89.1355 120.861 89.2875 120.913 89.2875 120.913C88.213 120.357 88.2156 119.381 88.2156 119.381C88.1855 118.717 88.619 118.503 88.619 118.503C88.6229 118.313 89.6756 114.134 89.6756 114.134C89.7915 112.953 90.1216 111.676 90.1216 111.676C90.7507 109.6 90.0011 107.701 90.0011 107.701C89.4644 105.535 88.1185 104.785 88.1185 104.785C88.0054 104.375 87.7593 104.252 87.7593 104.252C87.4186 104.17 86.3781 103.473 86.3781 103.473C85.5299 102.419 84.0973 102.115 84.0973 102.115L84.097 102.115Z" fill="#6D634C"/>
<path fill-rule="evenodd" clip-rule="evenodd" d="M144.466 160.265C144.408 160.208 143.891 161.772 143.618 162.613C143.839 162.536 144.039 162.451 144.203 162.354C144.263 161.936 144.432 160.776 144.47 160.322C144.471 160.287 144.471 160.27 144.466 160.265L144.466 160.265ZM142.129 160.18C142.129 160.18 141.548 162.244 141.321 163.071C141.479 163.053 141.634 163.035 141.798 163.012L142.129 160.18ZM135.679 159.115C135.639 159.089 134.598 162.898 134.598 162.898L133.104 162.409C133.104 162.409 132.289 162.976 132.13 163.107C132.03 163.19 131.812 163.774 131.658 164.212C131.774 164.197 131.867 164.192 131.916 164.201C131.916 164.201 132.238 163.304 132.66 163.204C132.66 163.204 133.585 162.76 134 163.37C134 163.37 134.145 163.608 134.118 163.811C134.118 163.811 134.856 163.628 135.921 163.463L135.081 163.185C135.081 163.185 135.652 159.419 135.68 159.129C135.682 159.12 135.683 159.116 135.676 159.114L135.679 159.115ZM72.3028 143.242L72.2381 143.272C72.2864 144.027 72.3524 145.425 72.3353 145.634L72.61 146.252L72.3431 146.654L72.4707 148.933L74.3706 150.199C74.3706 150.199 74.4153 149.489 74.5855 149.487C74.7554 149.486 75.1369 149.663 75.1369 149.663L76.2431 149.124L76.4524 150.363L76.4021 151.623L77.397 152.246L78.0641 150.54L78.3977 150.476C78.4228 150.16 78.4497 149.845 78.4497 149.845L78.5204 148.933L77.569 150.262C77.569 150.262 77.6233 149.046 77.5941 148.919C77.5644 148.791 76.9277 150.557 76.9277 150.557C76.9277 150.557 76.7657 149.738 76.6779 149.357C76.5901 148.976 76.4819 148.679 76.4819 148.679C76.4819 148.679 76.5309 147.731 76.5721 147.561C76.6132 147.391 76.0137 148.506 75.9589 148.733C75.904 148.96 75.1327 148.923 75.1327 148.923L74.9575 147.291C74.9575 147.291 74.7184 148.403 74.6019 148.885C74.4853 149.367 74.525 148.956 74.1932 149.086C73.8619 149.216 74.1208 148.888 74.1464 148.535C74.1716 148.181 74.3045 147.013 74.3045 147.013C74.3045 147.013 73.7479 148.198 73.6648 148.418C73.5817 148.638 73.4412 147.854 73.4412 147.854C73.4412 147.854 73.0973 147.291 73.1091 146.994C73.1213 146.697 73.2943 146.228 73.3217 146.115C73.3491 146.002 72.9161 145.807 72.9161 145.807L73.2105 143.581L72.3028 143.242ZM137.902 160.242C137.83 160.172 137.309 162.348 137.083 163.311C137.206 163.298 137.332 163.287 137.459 163.276C137.581 162.597 137.944 160.556 137.908 160.262C137.904 160.251 137.905 160.245 137.903 160.242L137.902 160.242ZM139.351 160.611L138.974 163.207C139.126 163.207 139.278 163.208 139.43 163.214C139.43 163.214 139.515 163.21 139.526 163.209L139.351 160.611ZM143.072 161.654C143.012 161.662 142.954 162.268 142.882 162.818C143.042 162.782 143.196 162.742 143.345 162.699C143.267 162.383 143.172 161.999 143.111 161.733C143.098 161.677 143.085 161.652 143.072 161.654L143.072 161.654ZM140.936 161.194C140.845 161.129 140.761 162.629 140.735 163.133C140.853 163.122 140.986 163.106 141.113 163.093C141.071 162.437 141.021 161.368 140.946 161.209C140.941 161.2 140.94 161.197 140.936 161.194L140.936 161.194ZM87.6612 150.333C87.6741 150.157 86.4561 154.572 86.4159 154.862C86.3755 155.152 86.295 156.603 86.2959 156.723C86.2967 156.843 85.4681 156.673 85.122 156.739C85.0179 156.759 84.9195 156.843 84.8309 156.946C85.269 157.288 85.9249 157.686 86.7413 157.815C86.7413 157.815 86.9458 157.143 87.6884 157.408C87.6884 157.408 88.3806 157.703 88.007 158.546C88.007 158.546 89.9172 159.597 91.9868 160.461L88.7064 158.416C88.7064 158.416 88.7262 158.211 88.7586 157.829C88.7913 157.447 88.4223 157.357 88.4223 157.357L88.607 155.602C88.607 155.602 87.8089 156.669 87.7746 156.811C87.7403 156.952 87.1383 156.837 87.1383 156.837C87.1383 156.837 86.8785 156.174 86.8629 155.99C86.8477 155.807 87.6484 150.51 87.6612 150.333ZM85.4027 149.997C85.4027 149.997 84.295 155.134 84.042 156.296L84.2402 156.404C84.2402 156.404 84.2976 156.47 84.3949 156.567C84.6029 155.335 85.4027 149.997 85.4027 149.997L85.4027 149.997ZM116.788 158.158L115.401 162.652L114.958 162.875C114.958 162.875 114.129 163.695 114.068 163.95C114.03 164.105 113.939 164.443 113.861 164.727C113.968 164.735 114.114 164.743 114.144 164.748C114.144 164.748 114.529 163.656 114.877 163.455L115.837 163.207C115.837 163.207 116.192 163.848 116.207 163.912C116.221 163.975 116.372 164.717 116.154 164.874C116.154 164.874 116.315 164.88 116.549 164.891C116.634 164.582 116.762 164.066 116.712 163.929C116.64 163.731 116.117 162.915 116.052 162.69C115.987 162.464 116.788 158.157 116.788 158.157L116.788 158.158ZM81.806 150.684C81.7206 150.756 81.214 153.028 80.8759 154.571L81.1972 154.746C81.364 153.484 81.8668 150.866 81.8157 150.69C81.8174 150.682 81.8102 150.681 81.8056 150.687L81.806 150.684ZM97.3481 155.556C97.326 155.401 95.8885 160.723 95.8885 160.723L95.173 160.58L94.5257 161.023L94.577 161.362C94.6582 161.381 94.7408 161.409 94.821 161.421C94.821 161.421 94.6275 160.992 95.2675 160.977C95.2675 160.977 96.1993 161.16 96.275 161.899L96.6519 162.034C96.6625 161.766 96.6655 161.413 96.6081 161.344C96.5153 161.231 96.3298 161.006 96.2722 160.873C96.2146 160.739 97.3713 155.708 97.3488 155.553L97.3481 155.556ZM106.529 157.868C106.388 157.963 105.246 162.524 105.246 162.524L104.476 163.25L104.204 164.213C104.246 164.216 104.282 164.225 104.323 164.231L104.593 163.309L105.516 162.842C105.516 162.842 105.881 163.44 105.854 163.554C105.827 163.667 105.712 164.389 105.712 164.389C105.712 164.389 105.808 164.393 105.81 164.393C105.922 164.028 106.11 163.402 106.117 163.308C106.126 163.183 105.793 162.805 105.662 162.646C105.531 162.487 106.617 158.083 106.541 157.874C106.535 157.865 106.534 157.865 106.53 157.871L106.529 157.868Z" fill="#6D634B"/>
<path fill-rule="evenodd" clip-rule="evenodd" d="M91.4789 121.614C91.8948 121.985 93.2384 123.206 93.2384 123.206L94.0506 124.76L95.0143 126.563L95.3305 131.221L94.9718 132.704L95.1031 135.494L94.4844 138.229L93.4935 140.747L93.0776 142.64L91.7804 147.824L94.5712 142.859L96.0025 138.625L96.2672 136.653L96.8631 133.488L97.3312 130.674L98.6569 126.765L100.406 125.697C100.141 125.569 99.9373 125.448 99.8194 125.34L98.9876 125.679C98.9876 125.679 98.8123 126.777 97.8469 126.303C97.8469 126.303 96.8241 126.686 96.2174 125.969C96.2174 125.969 94.7558 124.446 94.9901 122.732C94.9901 122.732 93.5436 122.308 91.4789 121.614Z" fill="#6D634B"/>
<path fill-rule="evenodd" clip-rule="evenodd" d="M119.827 133.583C119.827 133.583 118.697 134.836 118.649 135.037C118.6 135.237 118.335 135.895 118.468 136.309C118.601 136.723 118.722 136.837 118.999 137.01C119.275 137.182 119.98 137.777 119.98 137.777L120.408 139.514C120.408 139.514 120 141.113 119.941 141.268C119.882 141.424 119.753 143.45 119.753 143.45C119.753 143.45 119.813 146.01 119.774 146.17C119.735 146.33 119.356 147.724 119.288 148.004C119.22 148.285 119.219 149.515 119.219 149.515L120.05 146.958L120.302 145.916C120.341 145.756 120.194 143.556 120.194 143.556C120.194 143.556 120.516 142.574 120.653 142.183C120.79 141.791 121.154 140.988 121.27 140.507C121.387 140.026 121.517 138.785 121.517 138.785L121.868 137.513L123.172 136.682C123.172 136.682 123.415 135.851 123.374 135.671C123.347 135.555 123.042 135.152 122.788 134.826C123.086 135.591 122.66 136.432 122.66 136.432C122.279 137.655 121.288 136.842 121.288 136.842C120.911 136.56 120.125 136.476 120.125 136.476C118.877 136.111 119.118 135.024 119.118 135.024C119.208 134.303 119.848 133.673 119.848 133.673C119.86 133.655 119.87 133.639 119.882 133.623L119.827 133.583Z" fill="#6D634B"/>
<path fill-rule="evenodd" clip-rule="evenodd" d="M159.25 125.28C159.25 125.28 159.755 130.598 154.397 131.999C154.423 132.026 154.436 132.106 154.423 132.28C154.378 132.905 154.404 132.975 154.321 133.316C154.239 133.656 154.005 133.833 154.253 134.211C154.501 134.589 154.346 135.231 154.521 134.594C154.696 133.958 154.692 134.063 154.809 133.667C154.926 133.271 154.983 132.945 155.067 132.86C155.152 132.774 155.478 132.301 155.583 132.306C155.688 132.31 155.915 131.898 155.978 132.338C156.042 132.777 156.006 133.363 156.013 133.513C156.018 133.663 155.968 133.523 156.029 133.708C156.09 133.892 156.712 132.812 156.712 132.812C156.712 132.812 156.693 132.892 156.8 132.536C156.908 132.181 156.785 131.896 157.235 131.793C157.684 131.689 158.008 131.662 158.103 131.536C158.196 131.41 158.428 130.894 158.527 130.748C158.626 130.602 158.957 129.409 159.036 129.344C159.115 129.278 159.532 128.87 159.687 128.759C159.731 128.727 159.834 128.603 159.954 128.451C160.002 128.283 160.232 126.876 159.249 125.28L159.25 125.28ZM73.8385 105.627C73.8197 105.625 73.4797 105.597 73.4797 105.597C73.4797 105.597 72.3604 108.297 72.3611 108.382C72.3619 108.467 72.4801 108.941 72.4801 108.941L71.6803 112.862C71.6803 112.862 72.6832 109.329 72.7585 109.369C72.8339 109.408 72.9417 109.752 72.9417 109.752L72.1775 113.789L73.0963 110.341L73.4804 111.558L73.5683 111.898L72.7551 116.05L73.9045 112.085C73.9045 112.085 74.2672 112.427 74.4337 112.616C74.6002 112.805 75.9262 114.165 75.9262 114.165C75.9262 114.165 75.1979 118.316 75.2373 118.241C75.2769 118.166 76.3192 114.557 76.3192 114.557L81.8152 118.11L82.6572 119.094L83.322 119.074L85.5521 119.421C82.2337 118.055 79.0013 116.435 77.6745 114.889C77.6745 114.889 72.8553 111.743 73.2124 108.53C73.2124 108.53 73.0718 107.291 73.8388 105.627L73.8385 105.627ZM154.317 132.019C153.734 132.162 153.084 132.263 152.358 132.313C152.429 132.344 152.477 132.398 152.484 132.49C152.523 132.945 152.626 133.309 152.524 133.729C152.422 134.15 152.239 135.082 152.239 135.082C152.239 135.082 152.386 135.966 152.648 134.969C152.911 133.971 152.845 133.892 152.974 133.711C153.103 133.53 153.593 132.906 153.657 132.816C153.721 132.725 154.182 132.222 154.182 132.222C154.182 132.222 154.252 132.084 154.317 132.019L154.317 132.019ZM143.696 130.237L141.105 130.247L140.531 130.721L140.604 130.741L141.351 130.985C141.351 130.985 142.29 130.788 142.38 130.767C142.469 130.747 143.723 130.562 143.723 130.562L145.173 131.761L145.765 131.606L143.696 130.237L143.696 130.237ZM151.873 132.325C151.612 132.311 150.341 132.238 149.233 132.127L149.353 133.069C149.353 133.069 149.321 133.464 149.19 133.92C149.058 134.376 148.723 135.589 148.723 135.589L149.244 135.1C149.244 135.1 149.391 134.754 149.568 134.287C149.744 133.821 150.08 133.223 150.178 133.077C150.277 132.932 150.519 132.545 150.629 132.529C150.739 132.513 151.429 132.468 151.429 132.468C151.429 132.468 151.64 132.38 151.873 132.325L151.873 132.325ZM136.334 131.277L135.907 131.917C135.907 131.917 135.967 132.462 136.023 132.581C136.079 132.701 136.247 133.145 136.247 133.145L135.482 136.396L135.24 137.398C135.24 137.398 135.659 136.715 135.722 136.454C135.785 136.194 135.835 136.163 135.961 135.642C136.087 135.121 136.271 134.275 136.319 134.074C136.368 133.874 136.562 133.157 136.562 133.157L137.182 133.052L137.533 133.265C137.533 133.265 137.089 135.363 137.012 135.684C136.934 136.005 136.717 136.992 136.717 136.992C136.717 136.992 137.504 135.315 137.572 135.035C137.639 134.754 137.737 133.738 137.766 133.618C137.795 133.498 137.944 132.792 137.944 132.792C137.944 132.792 138.544 132.682 138.573 132.562C138.602 132.441 138.745 132.2 138.745 132.2L138.746 132.195L138.72 132.216L138.01 132.171L137.375 132.866L136.534 132.663L136.208 131.905L136.334 131.277L136.334 131.277ZM128.794 131.546L128.22 132.393L127.68 131.897L127.68 131.9L128.037 132.793L127.887 133.499C127.887 133.499 127.62 133.816 127.608 134.301C127.597 134.786 127.488 135.588 127.542 135.367C127.595 135.147 128.113 133.617 128.147 133.477C128.181 133.337 128.401 132.69 128.401 132.69L128.793 131.546L128.794 131.546ZM120.674 130.413C119.437 130.313 118.325 130.189 117.749 130.04C117.749 130.04 114.99 132.643 113.579 129.422C113.579 129.422 113.376 129.375 113.127 129.317L113.765 130.636C113.765 130.636 114.334 131.014 114.533 131.182C114.732 131.35 115.655 131.754 115.655 131.754L115.735 134.893L116.276 131.664L116.825 131.438L117.446 130.888L117.984 130.509L120.674 130.412L120.674 130.413Z" fill="#6D634B"/>
<path fill-rule="evenodd" clip-rule="evenodd" d="M122.15 154.319L121.162 159.278L120.838 159.39C120.838 159.39 119.986 159.757 119.651 159.824C119.317 159.892 119.386 160.397 119.243 160.723C119.101 161.049 119.13 161.629 119.122 161.839C119.114 162.049 119.741 162.349 119.741 162.349L120.981 162.395C120.981 162.395 121.706 162.379 121.976 162.402C122.247 162.425 122.397 161.104 122.397 161.104L122.314 161.051C121.947 162.165 121.249 162.077 121.249 162.077C120.144 162.086 120.12 160.956 120.12 160.956C120.191 160.4 120.764 160.136 120.764 160.136C121.088 160.023 121.277 159.857 121.452 159.92C121.569 159.92 121.671 159.934 121.76 159.96C121.897 160.001 122.002 160.07 122.083 160.153C122.103 159.968 122.104 159.795 122.056 159.706C121.924 159.461 121.745 159.587 121.703 159.323C121.661 159.058 122.15 154.319 122.15 154.319L122.15 154.319Z" fill="#6D634B"/>
<path fill-rule="evenodd" clip-rule="evenodd" d="M48.7318 110.028C48.7318 110.028 54.2813 109.758 56.1524 113.645C56.1524 113.645 58.6434 118.791 58.907 126.939C58.907 126.939 73.5537 116.382 84.4413 116.877C84.4413 116.877 94.1664 116.589 95.4575 129.808C95.4575 129.808 96.7039 142.582 88.8078 152.653C88.8078 152.653 81.0267 162.532 79.0758 150.321C79.0758 150.321 72.4712 157.215 68.5114 157.481C68.5114 157.481 63.474 157.722 63.3633 149.535C63.3633 149.535 58.8382 156.174 53.8039 155.115C53.8039 155.115 48.8677 154.584 45.959 146.636C45.959 146.636 42.1333 135.376 46.8785 122.937C46.8785 122.937 48.2079 119.913 46.6539 116.061C46.6539 116.061 44.0184 110.594 48.7318 110.028V110.028Z" fill="#225054"/>
<path d="M88.7799 182.221C86.6183 175.737 80.9911 174.432 80.9911 174.432C83.1897 175.96 86.0219 183.488 86.0219 183.488C86.0219 183.488 87.0656 182.388 85.2394 178.289C85.2394 178.289 86.5252 179.221 86.7861 180.618C86.7861 180.618 87.2893 182.947 88.7799 182.221Z" fill="#AD7821"/>
<path d="M50.0834 183.177C50.0834 183.177 49.8197 179.33 56.4074 179.488C56.4074 179.488 58.2523 176.379 63.628 177.591C63.628 177.591 64.6819 175.272 68.213 176.273C68.213 176.273 72.8506 177.222 75.5913 181.754C75.5913 181.754 77.2249 185.443 75.0115 187.288C75.0115 187.288 73.1143 189.027 71.3752 187.446C71.3752 187.446 70.7953 190.608 67.6331 188.974C67.6331 188.974 67.159 191.978 63.4698 190.661C63.4698 190.661 61.7305 189.976 60.6765 188.974C60.6765 188.974 55.6697 185.232 52.5604 184.653C52.5604 184.653 50.6103 185.232 50.0834 183.177Z" fill="#CE9434"/>
<path d="M50.2943 182.123C50.2943 182.123 50.3998 183.387 53.0348 183.44C53.0348 183.44 59.2539 182.597 66.4212 189.975C66.4212 189.975 63.6808 182.966 57.2512 180.173C57.2512 180.173 63.4701 178.328 69.3727 186.023C69.3727 186.023 66.7375 180.014 64.9984 178.592C64.9984 178.592 69.689 179.54 72.6402 185.337C72.6402 185.337 74.4321 181.701 72.1658 178.117C72.1658 178.117 75.5916 180.383 76.0657 183.177C76.0657 183.177 76.7508 185.654 75.0643 187.235C75.0643 187.235 73.747 189.027 71.3754 187.551C71.3754 187.551 70.5322 190.766 67.6334 188.974C67.6334 188.974 67.0011 191.662 64.4185 190.924C64.4185 190.924 62.047 190.397 60.993 189.29C60.993 189.29 55.3726 185.223 52.6848 184.749C52.6848 184.749 49.286 185.256 50.2943 182.123Z" fill="#AD7821"/>
<path d="M105.807 80.3601C102.835 80.8907 99.7712 77.6573 98.9645 73.1381C98.1578 68.6189 99.9135 64.5253 102.886 63.9947C105.858 63.4641 108.922 66.6975 109.729 71.2166C110.535 75.7358 108.78 79.8295 105.807 80.3601Z" fill="#4D4D4D"/>
<path d="M122.301 78.5231C119.541 78.4722 110.224 78.5386 108.618 78.2789C108.618 78.2789 106.74 78.2466 105.649 76.6564C102.988 73.5866 102.862 65.8336 106.623 64.2069C106.623 64.2069 116.186 58.8851 121.768 56.559C121.768 56.559 123.603 75.7683 122.301 78.5231Z" fill="#E6E6E6"/>
<path d="M138.996 80.8277C138.996 80.8277 125.337 80.5295 121.374 79.3614C121.374 79.3614 119.061 78.5917 117.699 75.6037C117.699 75.6037 114.274 68.2622 117.493 59.3596C117.493 59.3596 118.507 56.756 121.28 55.0957C121.28 55.0957 132.32 49.1716 134.637 48.2942C134.637 48.2942 140.56 74.8206 138.996 80.8277Z" fill="#CCCCCC"/>
<path d="M173.081 84.8449C173.081 84.8449 156.754 84.1657 139.702 81.9665C139.702 81.9665 135.42 81.1489 133.172 75.8234C133.172 75.8234 127.863 67.4392 131.48 53.3703C131.48 53.3703 132.604 48.4917 136.382 46.1819C136.382 46.1819 157.75 34.7512 172.505 28.7857L173.081 84.8449Z" fill="#B3B3B3"/>
<path d="M201.501 15.7288C201.501 15.7288 183.206 15.8533 165.354 30.8898C152.917 40.9972 150.465 79.252 171.034 85.4013C171.034 85.4013 186.071 88.7137 201.116 86.1613L201.501 15.7288Z" fill="#808080"/>
<path d="M195.242 86.0702C180.098 83.6206 170.36 65.9367 173.492 46.572C176.625 27.2074 191.441 13.4951 206.585 15.9447C221.729 18.3943 231.466 36.0783 228.334 55.4429C225.202 74.8075 210.386 88.5198 195.242 86.0702Z" fill="#4D4D4D"/>
<path d="M195.542 19.4307C203.258 20.6788 210.324 25.4957 214.736 32.4287C219.148 39.3617 220.883 48.3178 219.51 56.8131C218.201 64.9069 214.091 72.5135 208.184 77.6953C203.326 81.9574 197.277 84.5301 191.149 84.9921C184.878 82.6741 179.651 77.5253 176.412 70.4779C173.173 63.4305 172.137 54.9503 173.492 46.5726C174.443 40.6947 176.534 35.098 179.574 30.2972C182.613 25.4964 186.503 21.6455 190.886 19.0985C192.446 19.0747 194.005 19.1822 195.542 19.4307Z" fill="#B3B3B3"/>
<path d="M195.245 21.2575C202.518 22.434 208.967 26.8098 213.174 33.4223C217.381 40.0348 219.002 48.3423 217.68 56.5174C216.421 64.2965 212.593 71.3647 206.962 76.3043C201.332 81.2438 194.316 83.6892 187.321 83.1502C182.104 80.0194 177.949 74.7823 175.461 68.2024C172.974 61.6225 172.284 54.0439 173.492 46.5719C174.326 41.4185 176.038 36.4722 178.506 32.085C180.974 27.6978 184.137 23.9776 187.772 21.1892C190.267 20.8362 192.78 20.8592 195.245 21.2575Z" fill="#AFDDE9"/>
<path d="M213.888 45.1497C213.888 45.1497 214.383 37.9163 208.587 33.4804C208.587 33.4804 204.104 30.2137 201.255 32.6646C201.255 32.6646 198.274 35.3483 200.886 39.3435C200.886 39.3435 202.163 41.0196 203.892 42.3184C203.892 42.3184 206.883 44.6034 206.586 48.0601C206.586 48.0601 206.031 52.3963 209.209 52.5611C209.209 52.5611 213.583 52.7013 213.888 45.1497Z" fill="#D5F6FF"/>
<path d="M206.941 64.3278C204.977 63.815 203.91 61.3845 204.559 58.899C205.208 56.4135 207.326 54.8142 209.29 55.327C211.254 55.8397 212.321 58.2703 211.672 60.7558C211.023 63.2413 208.905 64.8405 206.941 64.3278Z" fill="#D5F6FF"/>
<path d="M171.961 80.7448C170.509 81.9756 168.025 81.4311 166.413 79.5288C164.801 77.6265 164.672 75.0866 166.125 73.8558C167.578 72.6251 170.062 73.1696 171.674 75.0719C173.285 76.9743 173.414 79.5141 171.961 80.7448Z" fill="#4D4D4D"/>
<path d="M163.258 42.3791C164.813 43.4782 167.24 42.7186 168.679 40.6827C170.118 38.6468 170.024 36.1054 168.47 35.0063C166.915 33.9073 164.488 34.6668 163.049 36.7028C161.61 38.7387 161.703 41.2801 163.258 42.3791Z" fill="#4D4D4D"/>
<path d="M162.126 63.53C160.019 63.1892 158.588 61.2053 158.928 59.0987C159.269 56.9921 161.253 55.5606 163.36 55.9013C165.466 56.2421 166.898 58.226 166.557 60.3326C166.216 62.4392 164.232 63.8707 162.126 63.53Z" fill="#4D4D4D"/>
<path d="M140.181 79.1704C139.174 79.9087 137.573 79.438 136.607 78.1192C135.64 76.8003 135.673 75.1327 136.68 74.3944C137.687 73.6561 139.287 74.1267 140.254 75.4456C141.221 76.7645 141.188 78.4321 140.181 79.1704Z" fill="#4D4D4D"/>
<path d="M134.586 55.3648C135.653 56.0135 137.206 55.4066 138.056 54.0093C138.905 52.612 138.729 50.9534 137.662 50.3047C136.595 49.656 135.041 50.2629 134.192 51.6602C133.342 53.0575 133.519 54.7161 134.586 55.3648Z" fill="#4D4D4D"/>
<path d="M134.874 68.1898C133.48 68.0623 132.454 66.829 132.581 65.4352C132.709 64.0414 133.942 63.0148 135.336 63.1424C136.73 63.2699 137.756 64.5032 137.629 65.897C137.501 67.2908 136.268 68.3173 134.874 68.1898Z" fill="#4D4D4D"/>
<path d="M122.805 76.776C122.159 77.322 121.057 77.0796 120.342 76.2347C119.627 75.3898 119.571 74.2622 120.216 73.7163C120.861 73.1704 121.964 73.4127 122.678 74.2577C123.393 75.1026 123.45 76.2301 122.805 76.776Z" fill="#4D4D4D"/>
<path d="M119.659 61.9388C120.382 62.3779 121.433 61.967 122.008 61.0213C122.583 60.0755 122.464 58.953 121.741 58.514C121.019 58.0749 119.968 58.4856 119.393 59.4314C118.818 60.3771 118.937 61.4998 119.659 61.9388Z" fill="#4D4D4D"/>
<path d="M119.387 69.5915C118.444 69.5051 117.749 68.6705 117.835 67.7271C117.922 66.7838 118.756 66.0889 119.7 66.1753C120.643 66.2616 121.338 67.0963 121.251 68.0397C121.165 68.9831 120.33 69.6778 119.387 69.5915Z" fill="#4D4D4D"/>
<path d="M108.612 75.7732C107.923 76.1991 106.913 75.8127 106.355 74.9103C105.797 74.0079 105.904 72.9311 106.593 72.5052C107.282 72.0794 108.293 72.4657 108.85 73.3681C109.408 74.2705 109.302 75.3473 108.612 75.7732Z" fill="#4D4D4D"/>
<path d="M106.119 69.5879C106.858 69.9201 107.81 69.405 108.245 68.4375C108.68 67.4699 108.433 66.4163 107.694 66.0841C106.956 65.752 106.004 66.267 105.569 67.2345C105.134 68.2021 105.38 69.2557 106.119 69.5879Z" fill="#4D4D4D"/>
<path d="M49.087 99.4414C62.8487 102.646 76.4888 95.443 79.5528 83.353C82.6169 71.2629 73.9448 58.8641 60.183 55.6595C46.4212 52.4548 32.7812 59.6579 29.7171 71.7479C26.653 83.838 35.3252 96.2368 49.087 99.4414Z" fill="#1A4245"/>
<path d="M52.3796 89.6667C41.789 86.067 35.1512 76.5291 37.5538 68.3631C39.9564 60.1972 50.4894 56.4955 61.0801 60.0952C71.6707 63.6949 78.3084 73.2329 75.9059 81.3988C73.5033 89.5648 62.9702 93.2664 52.3796 89.6667Z" fill="#225054"/>
<path fill-rule="evenodd" clip-rule="evenodd" d="M78.9075 76.2364C78.9075 76.2364 47.7834 67.535 30.4531 72.9782C30.4531 72.9782 27.7182 74.0087 29.6528 76.2704C29.6528 76.2704 30.3416 76.8494 31.9473 76.7621C31.9473 76.7621 43.1436 72.2167 78.5007 77.7178C78.5007 77.7178 81.0944 77.1186 78.9075 76.2364Z" fill="#1A4245"/>
<path fill-rule="evenodd" clip-rule="evenodd" d="M78.8298 74.7752C78.8298 74.7752 47.8849 65.4566 30.4498 70.5541C30.4498 70.5541 27.6947 71.53 29.584 73.8297C29.584 73.8297 30.2613 74.4223 31.8685 74.3669C31.8685 74.3669 43.1527 70.0451 78.3934 76.2483C78.3934 76.2483 80.9987 75.7008 78.8298 74.7752Z" fill="#0A1E20"/>
<path d="M43.7528 33.269C37.231 37.042 34.6039 47.973 34.6039 47.973C33.9226 46.355 34.6888 42.7783 34.6888 42.7783C31.0271 44.9923 26.8544 53.5082 26.8544 53.5082C22.3411 59.7247 17.1467 59.8097 17.1467 59.8097C19.1053 66.7074 14.5066 71.5615 14.5066 71.5615C8.37533 78.5443 12.3777 84.5053 12.3777 84.5053C13.7402 87.3155 19.3605 87.4005 19.3605 87.4005C17.8277 90.381 18.9087 95.8523 18.9087 95.8523C22.7625 107.654 31.4334 104.764 31.4334 104.764C31.9151 106.209 31.1926 110.183 31.1926 110.183C35.5281 110.304 42.7537 106.33 42.7537 106.33C45.1623 108.859 43.7173 111.869 43.7173 111.869C48.1732 111.147 52.9903 105.968 52.9903 105.968C56.3624 109.1 56.0012 113.676 56.0012 113.676C65.0334 111.99 77.9487 93.7873 77.9487 93.7873C77.9487 93.7873 78.0205 93.8707 78.0508 93.9048C77.9531 94.0624 77.8557 94.2275 77.759 94.4011C77.759 94.4011 70.0543 122.894 49.1856 117.676C49.1856 117.676 51.9351 115.851 51.988 112.162C51.988 112.162 46.823 117.063 37.4948 115.06C37.4948 115.06 39.0759 114.059 39.9718 111.319C39.9718 111.319 29.7476 119.54 20.2085 113.163C20.2085 113.163 23.8449 111.74 24.2664 108.578C24.2664 108.578 19.6288 105.996 18.6275 103.361C18.6275 103.361 17.6261 106.628 18.7856 109.527C18.7856 109.527 9.98149 108.062 13.5592 93.0065C13.5592 93.0065 8.87767 95.0863 4.45079 92.8201C4.45079 92.8201 9.1939 91.2918 9.72089 89.0256C9.72089 89.0256 0.217712 82.87 8.71456 74.1497C8.71456 74.1497 2.67757 75.0443 -0.00566101 68.4854C-0.00566101 68.4854 8.86366 70.1251 12.1432 61.6284C12.1432 61.6284 5.95683 56.4858 9.38536 48.2127C9.38536 48.2127 14.1552 54.6969 23.5463 48.2871C23.5463 48.2871 26.3787 46.275 28.0185 43.2192C28.0185 43.2192 32.069 35.2688 43.7528 33.269Z" fill="#1A4245"/>
<path d="M77.6868 94.8561C77.6868 94.8561 75.5999 86.0614 84.3949 81.2168C84.3949 81.2168 91.8885 87.4512 92.085 102.59C90.3707 100.28 77.6868 94.8561 77.6868 94.8561Z" fill="#FAB84A"/>
<path d="M92.072 102.607C92.072 102.607 91.8483 88.4464 84.3952 81.2168C84.3952 81.2168 91.8483 81.8876 93.8607 91.3532C93.8607 91.3532 95.7242 98.5082 92.072 102.607Z" fill="#D2952F"/>
<path d="M31.8217 58.7105C56.2534 43.0771 78.7218 62.4934 78.7218 62.4934C73.6395 48.3575 39.6583 38.0683 31.8217 58.7105Z" fill="#1A4245"/>
<path fill-rule="evenodd" clip-rule="evenodd" d="M44.6048 133.112C44.6123 133.124 44.6946 133.231 44.6946 133.231C47.2543 141.886 51.5644 143.069 51.5644 143.069C56.0411 144.146 64.7657 137.455 64.7657 137.455C67.7402 135.514 68.7771 138.535 68.7771 138.535C69.2437 139.641 69.2663 144.472 69.2663 144.472C69.6159 147.053 71.9123 145.424 71.9123 145.424C78.3986 141.376 79.5896 138.462 79.5896 138.462C81.9296 134.412 82.2039 138.442 82.2039 138.442C82.28 139.853 82.9492 141.648 82.9492 141.648C84.0432 144.575 86.5396 143.17 86.5396 143.17C94.1275 138.833 95.4484 132.159 95.4484 132.159C95.4484 132.159 95.5003 132.241 95.5037 132.246C95.4574 136.409 94.6076 145.285 88.7875 152.708C88.7875 152.708 81.0062 162.587 79.0554 150.376C79.0554 150.376 72.4502 157.27 68.4904 157.536C68.4904 157.536 63.4534 157.777 63.3427 149.591C63.3427 149.591 58.8179 156.23 53.7835 155.171C53.7835 155.171 48.8472 154.639 45.9385 146.69C45.9385 146.69 43.9856 140.937 44.6033 133.113L44.6048 133.112Z" fill="#173C3F"/>
<path d="M151.439 89.1882C153.057 93.1906 160.04 101.791 160.04 101.791C165.49 107.582 168.083 103.727 168.083 103.727C167.643 110.086 162.619 106.671 162.619 106.671C161.328 106.513 157.199 102.236 157.199 102.236C159.131 108.593 156.625 117.997 156.625 117.997C152.637 126.045 148.707 119.218 148.707 119.218C148.465 118.779 148.036 117.576 147.579 116.199C150.246 122.442 152.982 117.287 152.982 117.287C156.716 109.338 151.439 89.1882 151.439 89.1882Z" fill="#173C3F"/>
<path d="M145.48 95.1895C147.407 103.258 145.653 110.038 145.653 110.038C144.067 118.199 138.04 122.791 138.04 122.791C130.07 126.648 131.21 120.103 131.21 120.103C140.062 127.856 145.48 95.1895 145.48 95.1895Z" fill="#173C3F"/>
<path d="M84.0079 89.1509C82.9298 91.0942 81.2682 92.2327 80.2966 91.6937C79.3249 91.1547 79.4111 89.1423 80.4891 87.1989C81.5671 85.2556 83.2287 84.1171 84.2004 84.6561C85.1721 85.1952 85.0859 87.2075 84.0079 89.1509Z" fill="#FAD28E"/>
<path d="M80.503 59.7241C80.5881 49.5904 90.0405 45.588 90.0405 45.588C90.0405 45.588 77.3522 42.6075 80.503 59.7241Z" fill="#1A4245"/>
<path d="M64.9193 45.8456C75.733 49.8847 77.8631 55.7544 77.8631 55.7544C77.8631 55.7544 79.2174 43.9737 64.9193 45.8456Z" fill="#1A4245"/>
</svg>
