<svg width="61" height="60" viewBox="0 0 61 60" fill="none" xmlns="http://www.w3.org/2000/svg">
<path fill-rule="evenodd" clip-rule="evenodd" d="M22.9613 42.0017C20.0931 49.361 12.5812 50.2131 12.5812 50.2131C12.5812 50.2131 8.5824 49.7007 9.29945 45.7757C9.29945 45.7757 9.48819 44.1529 13.9038 42.4924C13.9038 42.4924 19.3949 40.8129 21.3196 34.5481C21.3196 34.5481 21.9312 33.3216 22.1576 32.0573C22.1576 32.0573 21.697 29.1702 22.8481 29.0947C22.8481 29.0947 24.6974 28.6418 24.8106 30.4156C24.8106 30.4156 24.8106 38.0391 22.9613 42.0017Z" fill="#225054"/>
<path fill-rule="evenodd" clip-rule="evenodd" d="M1.84066 14.3345L0.934814 36.6766L22.2202 39.3184L1.84066 14.3345ZM4.37028 23.9845C4.551 23.9835 4.80346 24.0925 5.15621 24.3965L13.6982 34.775C13.6982 34.775 14.7641 35.6805 12.9228 35.467L4.51795 34.3749C4.51795 34.3749 3.58393 34.2947 3.71736 33.0938L3.91539 24.7034C3.91539 24.7034 3.90842 23.9865 4.37028 23.9845Z" fill="#ACACAC"/>
<path fill-rule="evenodd" clip-rule="evenodd" d="M1.83651 14.3369L0.930664 36.679L22.2161 39.3208L21.6898 38.6754L1.62135 36.0519L2.39273 15.0188L1.83651 14.3369Z" fill="#8C8C8C"/>
<path d="M4.02951 17.0448L3.87402 16.8518L2.61718 17.8642L2.77267 18.0572L4.02951 17.0448Z" fill="black"/>
<path d="M4.5035 17.6219L4.39624 17.4888L3.61882 18.115L3.72608 18.2481L4.5035 17.6219Z" fill="black"/>
<path d="M4.89364 18.109L4.78638 17.9758L4.00896 18.602L4.11622 18.7352L4.89364 18.109Z" fill="black"/>
<path d="M5.29501 18.5846L5.18774 18.4514L4.41032 19.0776L4.51759 19.2108L5.29501 18.5846Z" fill="black"/>
<path d="M5.65927 19.0382L5.552 18.905L4.77458 19.5312L4.88184 19.6644L5.65927 19.0382Z" fill="black"/>
<path d="M6.10178 19.5663L5.94629 19.3733L4.68944 20.3857L4.84493 20.5787L6.10178 19.5663Z" fill="black"/>
<path d="M6.50277 20.0721L6.39551 19.939L5.61809 20.5652L5.72535 20.6983L6.50277 20.0721Z" fill="black"/>
<path d="M6.8934 20.5592L6.78613 20.426L6.00871 21.0522L6.11598 21.1854L6.8934 20.5592Z" fill="black"/>
<path d="M7.29476 21.035L7.1875 20.9019L6.41008 21.5281L6.51734 21.6612L7.29476 21.035Z" fill="black"/>
<path d="M7.65902 21.4886L7.55176 21.3555L6.77434 21.9817L6.8816 22.1148L7.65902 21.4886Z" fill="black"/>
<path d="M8.10154 22.0165L7.94604 21.8235L6.6892 22.8359L6.84469 23.0289L8.10154 22.0165Z" fill="black"/>
<path d="M8.55502 22.5785L8.44775 22.4453L7.67033 23.0715L7.7776 23.2047L8.55502 22.5785Z" fill="black"/>
<path d="M8.94515 23.0655L8.83789 22.9324L8.06047 23.5586L8.16773 23.6917L8.94515 23.0655Z" fill="black"/>
<path d="M9.34652 23.5414L9.23926 23.4082L8.46184 24.0344L8.5691 24.1676L9.34652 23.5414Z" fill="black"/>
<path d="M9.71078 23.9947L9.60352 23.8616L8.82609 24.4878L8.93336 24.6209L9.71078 23.9947Z" fill="black"/>
<path d="M10.1533 24.5229L9.9978 24.3298L8.74096 25.3422L8.89645 25.5352L10.1533 24.5229Z" fill="black"/>
<path d="M10.5575 25.0421L10.4502 24.9089L9.67277 25.5351L9.78004 25.6683L10.5575 25.0421Z" fill="black"/>
<path d="M10.9476 25.5292L10.8403 25.396L10.0629 26.0222L10.1702 26.1554L10.9476 25.5292Z" fill="black"/>
<path d="M11.349 26.0047L11.2417 25.8716L10.4643 26.4978L10.5715 26.631L11.349 26.0047Z" fill="black"/>
<path d="M11.7137 26.4584L11.6064 26.3252L10.829 26.9514L10.9363 27.0846L11.7137 26.4584Z" fill="black"/>
<path d="M12.1555 26.9865L12 26.7935L10.7432 27.8058L10.8986 27.9989L12.1555 26.9865Z" fill="black"/>
<path d="M12.5848 27.5331L12.4775 27.3999L11.7001 28.0261L11.8074 28.1593L12.5848 27.5331Z" fill="black"/>
<path d="M12.9754 28.0201L12.8682 27.887L12.0907 28.5132L12.198 28.6463L12.9754 28.0201Z" fill="black"/>
<path d="M13.3768 28.4957L13.2695 28.3625L12.4921 28.9888L12.5994 29.1219L13.3768 28.4957Z" fill="black"/>
<path d="M13.7408 28.9493L13.6335 28.8162L12.8561 29.4424L12.9634 29.5755L13.7408 28.9493Z" fill="black"/>
<path d="M14.1828 29.4775L14.0273 29.2844L12.7705 30.2968L12.926 30.4898L14.1828 29.4775Z" fill="black"/>
<path d="M14.5702 29.9586L14.4629 29.8254L13.6855 30.4516L13.7927 30.5848L14.5702 29.9586Z" fill="black"/>
<path d="M14.9603 30.4454L14.853 30.3123L14.0756 30.9385L14.1829 31.0716L14.9603 30.4454Z" fill="black"/>
<path d="M15.3617 30.9213L15.2544 30.7881L14.477 31.4143L14.5842 31.5475L15.3617 30.9213Z" fill="black"/>
<path d="M15.7259 31.3746L15.6187 31.2415L14.8412 31.8677L14.9485 32.0008L15.7259 31.3746Z" fill="black"/>
<path d="M16.1684 31.903L16.0129 31.71L14.7561 32.7223L14.9116 32.9154L16.1684 31.903Z" fill="black"/>
<path d="M16.5833 32.4259L16.4761 32.2927L15.6987 32.9189L15.8059 33.0521L16.5833 32.4259Z" fill="black"/>
<path d="M16.974 32.9127L16.8667 32.7795L16.0893 33.4057L16.1965 33.5389L16.974 32.9127Z" fill="black"/>
<path d="M17.3753 33.3885L17.2681 33.2554L16.4906 33.8816L16.5979 34.0147L17.3753 33.3885Z" fill="black"/>
<path d="M17.7393 33.8419L17.6321 33.7087L16.8547 34.3349L16.9619 34.4681L17.7393 33.8419Z" fill="black"/>
<path d="M18.1819 34.3703L18.0264 34.1772L16.7695 35.1896L16.925 35.3827L18.1819 34.3703Z" fill="black"/>
<path d="M18.5763 34.8671L18.469 34.7339L17.6916 35.3601L17.7988 35.4933L18.5763 34.8671Z" fill="black"/>
<path d="M18.9666 35.3541L18.8594 35.2209L18.082 35.8472L18.1892 35.9803L18.9666 35.3541Z" fill="black"/>
<path d="M19.368 35.8297L19.2607 35.6965L18.4833 36.3227L18.5906 36.4559L19.368 35.8297Z" fill="black"/>
<path d="M19.732 36.2833L19.6248 36.1501L18.8473 36.7764L18.9546 36.9095L19.732 36.2833Z" fill="black"/>
<path d="M20.1745 36.8114L20.019 36.6184L18.7622 37.6308L18.9177 37.8238L20.1745 36.8114Z" fill="black"/>
<path fill-rule="evenodd" clip-rule="evenodd" d="M8.6959 32.7364C8.6959 32.7364 7.95994 31.491 6.80888 31.6231C6.80888 31.6231 5.54459 31.5854 5.01623 33.4912C5.01623 33.4912 2.9217 40.5297 5.71444 46.5681C5.71444 46.5681 8.62038 52.0026 14.3191 49.7005C14.3191 49.7005 17.1119 48.3041 17.678 46.5681C17.678 46.5681 18.3573 44.5679 17.1874 42.945C17.1874 42.945 15.6504 40.9529 15.3168 39.9388C15.3168 39.9388 14.5078 37.6049 14.1493 36.0953C14.1493 36.0953 13.2813 32.2835 11.8661 33.6044C11.8661 33.6044 11.7717 32.2835 10.7716 31.925C10.7716 31.925 9.3186 31.4722 8.6959 32.7364Z" fill="#225054"/>
<path fill-rule="evenodd" clip-rule="evenodd" d="M24.6956 29.4114C24.4704 29.8007 24.5231 30.7133 24.5231 30.7133C23.4168 39.2307 19.5328 43.8428 19.5328 43.8428C16.3572 47.899 11.6605 47.1252 11.6605 47.1252C6.75024 45.8976 5.14249 38.8116 5.14249 38.8116C4.85945 38.1889 4.57636 38.604 4.57636 38.604C4.42633 38.6915 4.3271 39.0412 4.27648 39.2692C4.25994 41.5264 4.58294 44.1681 5.7274 46.6426C5.7274 46.6426 8.01944 50.9278 12.5236 50.2751C12.544 50.2783 12.5944 50.2875 12.5944 50.2875C12.5944 50.2875 20.1064 49.4353 22.9746 42.0761C24.8238 38.1134 25.5177 30.6768 25.5177 30.6768C25.4691 29.9152 25.1005 29.5641 24.6956 29.4114Z" fill="#194145"/>
<path d="M35.1075 56.9569C41.5512 56.9569 46.7748 49.742 46.7748 40.842C46.7748 31.9419 41.5512 24.7271 35.1075 24.7271C28.6638 24.7271 23.4402 31.9419 23.4402 40.842C23.4402 49.742 28.6638 56.9569 35.1075 56.9569Z" fill="#BCB9A8"/>
<path fill-rule="evenodd" clip-rule="evenodd" d="M46.2169 30.2534C49.1229 35.3105 49.8776 42.6698 49.8776 42.6698C50.7079 48.3308 47.5378 50.18 47.5378 50.18C47.5378 50.18 43.7051 51.0012 44.3466 47.0385C44.3466 47.0385 46.0793 35.7329 43.5629 31.3387C43.5629 31.3387 42.0655 29.0834 43.1599 28.8947C43.1599 28.8947 45.0092 28.0645 46.2169 30.2534Z" fill="#225054"/>
<path fill-rule="evenodd" clip-rule="evenodd" d="M33.0322 7.66372C33.0322 7.66372 31.2709 5.92914 25.7202 6.86316C25.7202 6.86316 20.2602 7.86877 16.656 4.20801C16.656 4.20801 16.2032 5.24585 16.8825 6.41578C16.8825 6.41578 14.3351 5.79308 12.1273 3.11355C12.1273 3.11355 11.3913 6.54786 13.0707 9.07643C13.0707 9.07643 11.9008 9.37838 10.7875 8.58585C10.7875 8.58585 10.4101 11.7749 13.7878 12.341C13.7878 12.341 11.2404 13.5675 10.9385 17.3604C10.9385 17.3604 11.9574 16.8697 12.8066 16.8509C12.8066 16.8509 10.2214 20.9645 13.7501 23.9837C13.7501 23.9837 13.4482 30.1164 18.1279 31.7392C18.1279 31.7392 27.6006 34.6075 31.4501 27.2859C31.4501 27.2859 32.9974 23.9648 35.7524 25.6254C35.7524 25.6254 36.4317 26.0405 36.9978 27.3614C36.9978 27.3614 39.5714 33.2698 48.8932 31.4206C48.8932 31.4206 55.31 29.9838 56.4339 26.3047C56.4339 26.3047 57.4528 26.8708 57.5283 27.9275C57.5283 27.9275 61.491 26.1915 57.3773 15.5866C57.3773 15.5866 59.0756 15.813 59.8304 17.4736C59.8304 17.4736 61.2268 13.8505 57.2641 10.3785C57.2641 10.3785 59.9814 8.0386 59.5663 4.75522C59.5663 4.75522 56.7735 6.60448 54.2827 6.45353C54.2827 6.45353 56.1319 5.35906 54.7355 0C54.7355 0 52.5467 3.17016 47.4518 3.88722C47.4518 3.88722 43.1872 4.45332 40.5454 4.64202C40.5454 4.64202 34.3879 4.76028 33.0322 7.66372Z" fill="#173C3F"/>
<path fill-rule="evenodd" clip-rule="evenodd" d="M26.4914 32.674C26.4914 32.674 30.0389 31.5796 31.2844 29.2774C31.2844 29.2774 33.9639 31.4663 34.8319 31.6173C34.8319 31.6173 35.4735 29.7869 37.002 29.1265C37.002 29.1265 38.4199 31.7019 42.9864 32.57C42.9864 32.57 45.8997 38.7996 41.2029 48.9937C41.2029 48.9937 37.8938 53.6904 33.4105 52.4095C33.4105 52.4095 28.3935 51.3955 26.5789 42.7492C26.5789 42.7492 25.6567 36.1554 26.4914 32.674Z" fill="#D6D4C8"/>
<path fill-rule="evenodd" clip-rule="evenodd" d="M54.0631 1.60938C54.0631 1.60938 51.3196 4.08537 46.0067 4.07266C44.5321 4.25521 42.2507 4.52373 40.5477 4.64537C40.5477 4.64537 34.3902 4.76368 33.0345 7.66713C33.0345 7.66713 31.2732 5.93252 25.7225 6.86654C25.7225 6.86654 20.2624 7.87212 16.6583 4.21136C16.6583 4.21136 16.2055 5.24915 16.8849 6.41909C16.8849 6.41909 14.773 5.90229 12.7286 3.78741C13.0248 6.6117 14.4695 9.62703 14.4695 9.62703C13.8869 9.49659 13.4215 9.2866 13.0487 9.04127C13.057 9.05406 13.0646 9.06712 13.0731 9.07986C13.0731 9.07986 12.3534 9.26304 11.5063 8.9614C12.1468 12.1393 15.2616 11.8034 15.2616 11.8034C14.3276 12.3371 12.9666 14.045 12.9666 14.045C10.9918 16.6602 13.5804 16.34 13.5804 16.34C11.0185 21.4371 14.2806 21.9303 14.2806 21.9303C14.2806 21.9303 13.4128 28.6857 19.2247 30.1953C19.2247 30.1953 25.3007 31.9314 30.7353 26.6855C30.7353 26.6855 32.2826 25.4401 32.5845 25.0249C32.5845 25.0249 34.1318 22.9869 36.4717 25.138C36.4717 25.138 41.5667 32.6106 51.3791 28.4592C51.3791 28.4592 55.1908 27.3271 55.6059 22.6851C55.6059 22.6851 56.2852 22.8361 56.6248 23.7796C56.6248 23.7796 57.606 19.213 55.5303 12.9482C55.5303 12.9482 58.0212 13.8538 58.4741 14.3445C58.4741 14.3445 58.927 12.5707 55.5681 10.1554C55.5681 10.1554 57.4523 9.02799 58.1461 6.38606C58.1461 6.38606 56.0646 8.20076 52.889 7.07995C52.889 7.07995 54.4367 5.23868 54.0631 1.60938Z" fill="#225054"/>
<path d="M46.3195 26.3732C51.0263 25.4944 54.0412 20.5981 53.0535 15.437C52.0658 10.2759 47.4496 6.80445 42.7428 7.68323C38.036 8.56202 35.0211 13.4583 36.0088 18.6194C36.9965 23.7805 41.6127 27.252 46.3195 26.3732Z" fill="#173C3F"/>
<path d="M21.9392 28.0338C17.2901 27.155 14.3122 22.2587 15.2877 17.0977C16.2633 11.9366 20.823 8.46509 25.472 9.34388C30.1211 10.2227 33.099 15.1189 32.1235 20.28C31.1479 25.4411 26.5882 28.9126 21.9392 28.0338Z" fill="#173C3F"/>
<path d="M22.0387 28.068C17.3897 27.2659 14.4117 22.7969 15.3873 18.0862C16.3629 13.3755 20.9225 10.207 25.5716 11.0091C30.2207 11.8112 33.1986 16.2802 32.2231 20.9909C31.2475 25.7015 26.6878 28.8701 22.0387 28.068Z" fill="#D6D4C8"/>
<path d="M46.3684 26.3839C51.0241 25.5768 54.0064 21.0802 53.0294 16.3403C52.0524 11.6005 47.4862 8.41228 42.8304 9.21935C38.1746 10.0264 35.1924 14.5231 36.1694 19.2629C37.1463 24.0028 41.7126 27.191 46.3684 26.3839Z" fill="#D6D4C8"/>
<path d="M22.1164 25.8186C19.596 26.6922 16.8476 25.3656 15.9776 22.8556C15.1077 20.3457 16.4456 17.6028 18.966 16.7292C21.4864 15.8556 24.2348 17.1822 25.1047 19.6922C25.9747 22.2021 24.6368 24.945 22.1164 25.8186Z" fill="#FAB84A"/>
<path d="M21.667 24.6317C19.7886 25.2828 17.7403 24.2941 17.0919 22.4235C16.4436 20.5528 17.4407 18.5086 19.3191 17.8576C21.1975 17.2065 23.2458 18.1952 23.8942 20.0658C24.5425 21.9364 23.5454 23.9807 21.667 24.6317Z" fill="#201E1E"/>
<path d="M23.0899 19.8629C22.4868 20.0719 21.8292 19.7545 21.621 19.1539C21.4129 18.5534 21.733 17.897 22.3361 17.688C22.9391 17.479 23.5967 17.7964 23.8049 18.397C24.013 18.9975 23.6929 19.6538 23.0899 19.8629Z" fill="#FEFEFE"/>
<path fill-rule="evenodd" clip-rule="evenodd" d="M31.5688 22.9994C22.9521 20.927 16.583 24.5256 16.583 24.5256C16.583 24.5256 18.6645 28.1416 22.8809 28.3017C22.8809 28.3017 28.7658 28.7927 31.5688 22.9994Z" fill="#194145"/>
<path d="M43.4335 23.8371C40.9131 24.7107 38.1647 23.3842 37.2948 20.8742C36.4248 18.3642 37.7627 15.6213 40.2831 14.7478C42.8035 13.8742 45.5519 15.2007 46.4219 17.7107C47.2918 20.2207 45.9539 22.9636 43.4335 23.8371Z" fill="#FAB84A"/>
<path d="M42.9841 22.6503C41.1057 23.3013 39.0574 22.3127 38.4091 20.442C37.7607 18.5714 38.7578 16.5272 40.6362 15.8761C42.5146 15.2251 44.563 16.2137 45.2113 18.0843C45.8597 19.955 44.8625 21.9992 42.9841 22.6503Z" fill="#201E1E"/>
<path d="M44.407 17.8814C43.8039 18.0904 43.1463 17.773 42.9382 17.1725C42.73 16.5719 43.0501 15.9156 43.6532 15.7066C44.2562 15.4976 44.9139 15.815 45.122 16.4155C45.3302 17.0161 45.01 17.6724 44.407 17.8814Z" fill="#FEFEFE"/>
<path fill-rule="evenodd" clip-rule="evenodd" d="M37.7002 22.8776C37.7002 22.8776 40.413 26.598 44.7895 26.7048C44.7895 26.7048 50.7387 26.7048 52.6105 21.2101C42.5372 19.1054 37.7002 22.8776 37.7002 22.8776Z" fill="#194145"/>
<path fill-rule="evenodd" clip-rule="evenodd" d="M33.6108 23.2341C33.6108 23.2341 29.9014 23.6077 30.1683 27.3705C30.1683 27.3705 30.1416 29.6655 33.0237 31.8804C33.0237 31.8804 33.3172 31.9872 33.3973 31.6403C33.3973 31.6403 33.9844 30.0124 35.292 28.9983C35.292 28.9983 36.9199 27.9042 36.8932 26.1696C36.8932 26.1696 37.08 23.3409 33.6108 23.2341Z" fill="#D2952F"/>
<path fill-rule="evenodd" clip-rule="evenodd" d="M33.7549 23.2507C33.6197 23.3788 33.49 23.5338 33.3702 23.723C33.3702 23.723 31.8757 26.9788 33.13 30.7949C33.13 30.7949 34.1974 29.0336 35.6384 28.233C35.6384 28.233 36.1505 27.9637 36.6308 27.4025C36.7923 27.0437 36.8997 26.6333 36.8927 26.1782C36.8927 26.1782 37.0717 23.4318 33.7549 23.2507Z" fill="#FAB84A"/>
<path fill-rule="evenodd" clip-rule="evenodd" d="M7.01267 31.5913C6.95089 31.5896 6.88749 31.5925 6.823 31.5989C6.93314 31.6561 7.80655 32.1256 7.94431 32.7644C7.94431 32.7644 5.74511 36.9595 7.97176 41.5261C7.97176 41.5261 7.02247 36.4602 8.86316 32.4302C8.80018 32.5138 8.74129 32.6072 8.68876 32.7138C8.68876 32.7138 8.04198 31.6193 7.01267 31.5913V31.5913ZM11.0802 32.0652C11.2984 32.461 11.523 33.051 11.4802 33.7652C11.4802 33.7652 9.47883 37.2076 11.08 42.3847C11.08 42.3847 10.8664 35.2862 12.2007 34.0853C12.2007 34.0853 12.6811 33.4717 13.0547 35.0995C13.0547 35.0995 14.2156 41.4773 16.9776 43.9992C16.9776 43.9992 16.4365 42.7382 16.1492 41.4431C16.0221 41.2068 15.3716 40.1043 15.3098 39.9162C15.3098 39.9162 14.5007 37.5824 14.1422 36.0728C14.1422 36.0728 13.2742 32.261 11.8589 33.5819C11.8589 33.5819 11.7851 32.5533 11.0802 32.0652Z" fill="#194145"/>
<path fill-rule="evenodd" clip-rule="evenodd" d="M27.4158 48.4818L28.6025 51.4787L55.9009 38.3611L54.3827 35.0793L27.4158 48.4818Z" fill="#ACACAC"/>
<path fill-rule="evenodd" clip-rule="evenodd" d="M55.6501 37.8108L28.8247 50.6054L27.839 48.2818L27.4158 48.4921L28.609 51.4956L55.8761 38.3608L55.6501 37.8108Z" fill="#8C8C8C"/>
<path d="M28.8722 47.7625L28.6348 47.8784L29.3896 49.4242L29.627 49.3083L28.8722 47.7625Z" fill="black"/>
<path d="M29.5839 47.4059L29.4202 47.4858L29.887 48.442L30.0508 48.362L29.5839 47.4059Z" fill="black"/>
<path d="M30.1823 47.1153L30.0186 47.1953L30.4854 48.1515L30.6492 48.0715L30.1823 47.1153Z" fill="black"/>
<path d="M30.7717 46.8109L30.6079 46.8909L31.0748 47.847L31.2386 47.767L30.7717 46.8109Z" fill="black"/>
<path d="M31.3293 46.5397L31.1655 46.6196L31.6324 47.5758L31.7962 47.4958L31.3293 46.5397Z" fill="black"/>
<path d="M31.9828 46.2049L31.7454 46.3208L32.5002 47.8666L32.7376 47.7507L31.9828 46.2049Z" fill="black"/>
<path d="M32.6037 45.9076L32.4399 45.9875L32.9068 46.9437L33.0706 46.8637L32.6037 45.9076Z" fill="black"/>
<path d="M33.2026 45.617L33.0388 45.697L33.5057 46.6532L33.6695 46.5732L33.2026 45.617Z" fill="black"/>
<path d="M33.7917 45.3126L33.6279 45.3926L34.0948 46.3487L34.2586 46.2688L33.7917 45.3126Z" fill="black"/>
<path d="M34.3491 45.0409L34.1853 45.1208L34.6522 46.077L34.816 45.997L34.3491 45.0409Z" fill="black"/>
<path d="M35.003 44.7063L34.7656 44.8223L35.5204 46.3681L35.7578 46.2521L35.003 44.7063Z" fill="black"/>
<path d="M35.6941 44.3678L35.5303 44.4478L35.9972 45.4039L36.1609 45.3239L35.6941 44.3678Z" fill="black"/>
<path d="M36.2927 44.0775L36.1289 44.1575L36.5958 45.1136L36.7596 45.0336L36.2927 44.0775Z" fill="black"/>
<path d="M36.8818 43.7728L36.718 43.8528L37.1849 44.8089L37.3487 44.729L36.8818 43.7728Z" fill="black"/>
<path d="M37.4397 43.5016L37.2759 43.5815L37.7428 44.5377L37.9065 44.4577L37.4397 43.5016Z" fill="black"/>
<path d="M38.0934 43.1668L37.856 43.2827L38.6108 44.8285L38.8482 44.7126L38.0934 43.1668Z" fill="black"/>
<path d="M38.728 42.8695L38.5642 42.9495L39.0311 43.9056L39.1949 43.8256L38.728 42.8695Z" fill="black"/>
<path d="M39.3269 42.579L39.1631 42.6589L39.63 43.6151L39.7937 43.5351L39.3269 42.579Z" fill="black"/>
<path d="M39.916 42.2745L39.7522 42.3545L40.2191 43.3106L40.3829 43.2307L39.916 42.2745Z" fill="black"/>
<path d="M40.4738 42.0033L40.3101 42.0833L40.7769 43.0394L40.9407 42.9594L40.4738 42.0033Z" fill="black"/>
<path d="M41.1273 41.6685L40.8899 41.7844L41.6447 43.3302L41.8821 43.2143L41.1273 41.6685Z" fill="black"/>
<path d="M41.7968 41.3519L41.6331 41.4319L42.0999 42.388L42.2637 42.3081L41.7968 41.3519Z" fill="black"/>
<path d="M42.3955 41.0616L42.2317 41.1416L42.6986 42.0978L42.8623 42.0178L42.3955 41.0616Z" fill="black"/>
<path d="M42.9846 40.7567L42.8208 40.8367L43.2877 41.7928L43.4515 41.7128L42.9846 40.7567Z" fill="black"/>
<path d="M43.5422 40.4855L43.3784 40.5654L43.8453 41.5216L44.0091 41.4416L43.5422 40.4855Z" fill="black"/>
<path d="M44.1957 40.1509L43.9583 40.2668L44.713 41.8126L44.9505 41.6967L44.1957 40.1509Z" fill="black"/>
<path d="M44.7876 39.8624L44.6238 39.9424L45.0907 40.8985L45.2544 40.8186L44.7876 39.8624Z" fill="black"/>
<path d="M45.3857 39.5721L45.2219 39.6521L45.6888 40.6082L45.8526 40.5283L45.3857 39.5721Z" fill="black"/>
<path d="M45.9753 39.2672L45.8115 39.3472L46.2784 40.3033L46.4422 40.2233L45.9753 39.2672Z" fill="black"/>
<path d="M46.5329 38.996L46.3691 39.0759L46.836 40.0321L46.9998 39.9521L46.5329 38.996Z" fill="black"/>
<path d="M47.1864 38.6614L46.949 38.7773L47.7038 40.3231L47.9412 40.2072L47.1864 38.6614Z" fill="black"/>
<path d="M47.8283 38.3536L47.6646 38.4336L48.1314 39.3897L48.2952 39.3098L47.8283 38.3536Z" fill="black"/>
<path d="M48.4265 38.0631L48.2627 38.1431L48.7296 39.0992L48.8934 39.0192L48.4265 38.0631Z" fill="black"/>
<path d="M49.0161 37.7584L48.8523 37.8384L49.3192 38.7945L49.483 38.7146L49.0161 37.7584Z" fill="black"/>
<path d="M49.5734 37.4874L49.4097 37.5674L49.8765 38.5235L50.0403 38.4436L49.5734 37.4874Z" fill="black"/>
<path d="M50.2272 37.1524L49.9897 37.2683L50.7445 38.8141L50.982 38.6982L50.2272 37.1524Z" fill="black"/>
<path d="M50.8369 36.8602L50.6731 36.9402L51.14 37.8963L51.3038 37.8164L50.8369 36.8602Z" fill="black"/>
<path d="M51.435 36.5699L51.2712 36.6499L51.7381 37.6061L51.9019 37.5261L51.435 36.5699Z" fill="black"/>
<path d="M52.0246 36.265L51.8608 36.345L52.3277 37.3011L52.4915 37.2211L52.0246 36.265Z" fill="black"/>
<path d="M52.5822 35.9938L52.4185 36.0737L52.8853 37.0299L53.0491 36.9499L52.5822 35.9938Z" fill="black"/>
<path d="M53.2357 35.6592L52.9983 35.7751L53.7531 37.3209L53.9905 37.205L53.2357 35.6592Z" fill="black"/>
<path fill-rule="evenodd" clip-rule="evenodd" d="M40.7069 52.6707C37.3858 52.7839 36.5932 50.2177 36.5932 50.2177C35.0082 44.8586 36.7819 39.575 36.7819 39.575C38.2915 35.9142 41.6504 37.8767 41.6504 37.8767C42.7448 38.4051 47.4623 43.5377 47.4623 43.5377C47.4623 43.5377 50.2928 47.2362 47.6888 50.0667C47.6888 50.0667 44.6695 52.0669 40.7069 52.6707Z" fill="#225054"/>
<path fill-rule="evenodd" clip-rule="evenodd" d="M49.7016 42.141C49.5051 44.7793 49.2303 45.5862 49.2303 45.5862C48.5097 48.6551 46.7084 48.6018 46.7084 48.6018C45.3474 48.842 45.0272 45.7195 45.0272 45.7195C44.9471 46.1198 45.1338 48.2815 45.1338 48.2815C45.2406 49.936 44.4934 50.1495 44.4934 50.1495C43.5861 50.5231 42.6255 48.7351 42.6255 48.7351C41.0777 45.5861 41.7714 43.131 41.7714 43.131C40.7573 45.1858 41.2912 47.6676 41.2912 47.6676C41.8516 49.2955 41.6914 50.283 41.6914 50.283C41.4779 51.8841 40.3304 51.8041 40.3304 51.8041C38.8359 51.9909 37.8753 49.9893 37.8753 49.9893C36.1085 46.401 36.4551 41.9813 36.8533 39.5359C36.8419 39.5624 36.8304 39.5882 36.8192 39.6153C36.8192 39.6153 35.0455 44.899 36.6306 50.2581C36.6306 50.2581 37.4231 52.8244 40.7442 52.7112C44.1417 52.1935 46.8305 50.6573 47.5327 50.2273C47.5405 50.2257 47.5751 50.2203 47.5751 50.2203C47.5751 50.2203 50.7454 48.371 49.9151 42.71C49.9151 42.71 49.8305 42.1155 49.6883 41.3271L49.7016 42.141Z" fill="#194145"/>
<path fill-rule="evenodd" clip-rule="evenodd" d="M40.5151 37.4558C41.4096 38.1568 46.0625 41.8783 47.74 45.433C47.74 45.433 47.8679 44.4493 47.4369 43.6138C45.8944 41.7651 43.7525 39.067 41.6639 37.8849C41.6639 37.8849 41.1885 37.6074 40.5151 37.4558Z" fill="#194145"/>
<path fill-rule="evenodd" clip-rule="evenodd" d="M29.7322 59.414C27.9976 60.1078 27.117 59.067 27.117 59.067C27.117 59.067 25.756 59.7342 25.1422 58.9603C25.1422 58.9603 23.8079 58.9603 23.8613 58.0263C23.8613 58.0263 23.4343 57.0389 25.2222 55.7847C25.2222 55.7847 26.9569 54.477 28.1044 54.2902C28.1044 54.2902 29.8923 53.5964 32.1873 56.0248C32.1873 56.0248 32.5877 56.5585 33.068 56.6119C33.068 56.6119 33.6284 56.5585 33.4416 57.0389C33.4416 57.0389 32.7211 58.3732 29.7322 59.414Z" fill="#AD7821"/>
<path fill-rule="evenodd" clip-rule="evenodd" d="M36.5225 55.4634C36.5225 55.4634 35.1615 56.6109 35.375 58.3989C35.375 58.3989 35.6152 59.6798 36.309 59.8666C36.309 59.8666 37.0562 60.4003 37.9369 59.3328C37.9369 59.3328 38.8709 60.5604 40.1251 59.5197C40.1785 59.4129 40.6856 59.066 40.8724 58.5056C40.8724 58.5056 42.3401 59.8933 43.0073 58.6123C43.0339 58.4789 43.5143 57.5449 42.8738 56.0505C42.8738 56.0505 42.2067 54.4493 39.885 54.476C39.885 54.476 38.017 54.3959 36.5225 55.4634Z" fill="#AD7821"/>
<path fill-rule="evenodd" clip-rule="evenodd" d="M35.7577 56.4087C35.7577 56.4087 36.5484 55.2937 37.3976 55.2559C37.3976 55.2559 37.9179 55.205 38.1789 55.8331C38.1789 55.8331 38.2507 54.7295 39.4206 54.937C39.4206 54.937 39.8588 55.0392 40.2488 55.7456C40.2488 55.7456 40.0288 55.1006 40.5572 54.8175C40.5572 54.8175 41.5754 54.5137 42.3245 55.8992C42.3245 55.8992 43.0084 56.944 42.7253 58.2648C42.7253 58.2648 42.249 59.1428 41.2489 58.3691C41.2489 58.3691 40.7772 58.0504 40.5319 57.0503C40.5319 57.0503 40.4994 59.1264 39.5559 59.2962C39.5559 59.2962 38.5248 59.5892 38.2417 58.6645C38.2417 58.6645 38.0976 57.6353 38.1542 57.2579C38.1542 57.2579 37.9989 58.7776 37.112 59.3437C37.112 59.3437 36.3805 59.8242 35.871 58.9939C35.871 58.9939 35.2294 57.4843 35.7577 56.4087Z" fill="#CE9434"/>
<path fill-rule="evenodd" clip-rule="evenodd" d="M29.6087 55.6878C30.8353 54.9896 31.7195 56.1622 31.7195 56.1622C32.7917 56.9248 32.0365 57.8746 32.0365 57.8746C31.1355 58.6155 29.514 59.1246 29.514 59.1246C28.3528 59.5973 27.9455 58.8854 27.9455 58.8854C27.1907 57.923 28.2663 56.4453 28.2663 56.4453C28.2663 56.4453 27.1839 57.3753 26.8442 58.5829C26.8442 58.5829 26.5907 59.2945 25.5147 58.7247C25.5147 58.7247 25.0493 58.0906 25.417 57.0491C25.417 57.0491 25.0018 57.6341 25.0207 58.1813C25.0207 58.1813 25.1088 58.54 24.7419 58.4466C24.7286 58.3932 23.9613 58.48 24.1948 57.1923C24.1948 57.1923 24.4546 56.3038 24.9735 56.3415C24.9735 56.3415 25.3037 56.3321 25.332 56.5774C25.332 56.5774 25.8699 55.7094 26.6247 55.2565C26.6247 55.2565 27.3511 54.7281 28.238 54.6338C28.238 54.6338 29.5401 54.4451 29.3985 55.1338C29.3985 55.1338 29.4252 55.395 29.0478 55.7347C29.0006 55.763 28.725 56.1053 28.6023 56.1714C28.6023 56.1714 29.505 55.7538 29.6087 55.6878Z" fill="#CE9434"/>
</svg>
