<svg width="18" height="18" viewBox="0 0 18 18" fill="none" xmlns="http://www.w3.org/2000/svg">
<g clip-path="url(#clip0_1_41)">
<path d="M4.5 13.5C4.5 13.9125 4.8375 14.25 5.25 14.25H6V16.875C6 17.4975 6.5025 18 7.125 18C7.7475 18 8.25 17.4975 8.25 16.875V14.25H9.75V16.875C9.75 17.4975 10.2525 18 10.875 18C11.4975 18 12 17.4975 12 16.875V14.25H12.75C13.1625 14.25 13.5 13.9125 13.5 13.5V6H4.5V13.5ZM2.625 6C2.0025 6 1.5 6.5025 1.5 7.125V12.375C1.5 12.9975 2.0025 13.5 2.625 13.5C3.2475 13.5 3.75 12.9975 3.75 12.375V7.125C3.75 6.5025 3.2475 6 2.625 6ZM15.375 6C14.7525 6 14.25 6.5025 14.25 7.125V12.375C14.25 12.9975 14.7525 13.5 15.375 13.5C15.9975 13.5 16.5 12.9975 16.5 12.375V7.125C16.5 6.5025 15.9975 6 15.375 6ZM11.6475 1.62L12.6225 0.645C12.7725 0.495 12.7725 0.2625 12.6225 0.1125C12.4725 -0.0375 12.24 -0.0375 12.09 0.1125L10.98 1.2225C10.3875 0.9225 9.7125 0.75 9 0.75C8.28 0.75 7.605 0.9225 7.005 1.2225L5.8875 0.1125C5.7375 -0.0375 5.505 -0.0375 5.355 0.1125C5.205 0.2625 5.205 0.495 5.355 0.645L6.3375 1.6275C5.2275 2.445 4.5 3.7575 4.5 5.25H13.5C13.5 3.7575 12.7725 2.4375 11.6475 1.62V1.62ZM7.5 3.75H6.75V3H7.5V3.75ZM11.25 3.75H10.5V3H11.25V3.75Z" fill="white"/>
</g>
<defs>
<clipPath id="clip0_1_41">
<rect width="18" height="18" fill="white"/>
</clipPath>
</defs>
</svg>
