<svg width="18" height="18" viewBox="0 0 18 18" fill="none" xmlns="http://www.w3.org/2000/svg">
<g clip-path="url(#clip0_1_42)">
<path d="M13.7406 9.56396C13.72 7.28669 15.6022 6.19252 15.687 6.13874C14.628 4.58953 12.9816 4.37856 12.3941 4.35374C10.9938 4.21102 9.65975 5.17902 8.94823 5.17902C8.23671 5.17902 7.14047 4.37442 5.97805 4.39717C4.44952 4.41992 3.04096 5.2845 2.25291 6.65376C0.666473 9.4047 1.84751 13.4856 3.39465 15.7215C4.15168 16.8136 5.05142 18.0443 6.2366 17.9988C7.37834 17.9533 7.80856 17.2604 9.18609 17.2604C10.5636 17.2604 10.9525 17.9988 12.1563 17.976C13.3828 17.9512 14.1605 16.8591 14.9113 15.7629C15.778 14.495 16.1358 13.2663 16.1565 13.2022C16.1296 13.1919 13.7655 12.2859 13.7406 9.56396" fill="white"/>
<path d="M11.4758 2.87501C12.1042 2.11386 12.5282 1.05444 12.4125 0C11.5067 0.037409 10.4103 0.603532 9.76093 1.36518C9.17984 2.03755 8.6636 3.11493 8.80725 4.14941C9.8148 4.22822 10.8473 3.63416 11.4758 2.87551" fill="white"/>
</g>
<defs>
<clipPath id="clip0_1_42">
<rect width="18" height="18" fill="white"/>
</clipPath>
</defs>
</svg>
