<svg width="48" height="48" viewBox="0 0 48 48" fill="none" xmlns="http://www.w3.org/2000/svg">
<rect width="48" height="48" rx="5" fill="#FF9F43" fill-opacity="0.12"/>
<path d="M32.464 15.4287H13.1783C11.9997 15.4287 11.0354 16.393 11.0354 17.5716V26.143C11.0354 27.3216 11.9997 28.2859 13.1783 28.2859H32.464C33.6425 28.2859 34.6068 27.3216 34.6068 26.143V17.5716C34.6068 16.393 33.6425 15.4287 32.464 15.4287ZM32.464 26.143H13.1783V17.5716H32.464V26.143ZM16.3925 25.0716H18.5354V22.9287H20.6783V20.7859H18.5354V18.643H16.3925V20.7859H14.2497V22.9287H16.3925V25.0716Z" fill="#FF9F43"/>
<path d="M25.4995 25.0712C26.3871 25.0712 27.1066 24.3517 27.1066 23.4641C27.1066 22.5765 26.3871 21.8569 25.4995 21.8569C24.6119 21.8569 23.8923 22.5765 23.8923 23.4641C23.8923 24.3517 24.6119 25.0712 25.4995 25.0712Z" fill="#FF9F43"/>
<path d="M29.7854 21.8574C30.673 21.8574 31.3925 21.1378 31.3925 20.2502C31.3925 19.3626 30.673 18.6431 29.7854 18.6431C28.8978 18.6431 28.1782 19.3626 28.1782 20.2502C28.1782 21.1378 28.8978 21.8574 29.7854 21.8574Z" fill="#FF9F43"/>
</svg>
