<svg width="48" height="48" viewBox="0 0 48 48" fill="none" xmlns="http://www.w3.org/2000/svg">
<rect width="48" height="48" rx="5" fill="#00CFE8" fill-opacity="0.12"/>
<g clip-path="url(#clip0_3036_86124)">
<path d="M25.6172 11.1438L26.0565 13.801C25.1458 13.4688 24.1708 13.2867 23.1422 13.2867C22.1244 13.2867 21.1387 13.4688 20.2387 13.7903L20.6779 11.1438H25.6172ZM26.0565 29.9153L25.6172 32.5724H20.6779L20.2387 29.926C21.1387 30.2474 22.1244 30.4295 23.1422 30.4295C24.1708 30.4295 25.1458 30.2474 26.0565 29.9153ZM27.4279 9.00098H18.8565L17.8387 15.1403C15.8458 16.7045 14.5708 19.126 14.5708 21.8581C14.5708 24.5903 15.8458 27.0117 17.8387 28.576L18.8565 34.7153H27.4279L28.4565 28.576C30.4387 27.0117 31.7137 24.5795 31.7137 21.8581C31.7137 19.1367 30.4387 16.7045 28.4565 15.1403L27.4279 9.00098ZM23.1422 28.2867C19.5958 28.2867 16.7137 25.4045 16.7137 21.8581C16.7137 18.3117 19.5958 15.4295 23.1422 15.4295C26.6887 15.4295 29.5708 18.3117 29.5708 21.8581C29.5708 25.4045 26.6887 28.2867 23.1422 28.2867Z" fill="#00CFE8"/>
</g>
<defs>
<clipPath id="clip0_3036_86124">
<rect width="25.7143" height="25.7143" fill="white" transform="translate(10.2852 9.00098)"/>
</clipPath>
</defs>
</svg>
