<svg width="336" height="166" viewBox="0 0 336 166" fill="none" xmlns="http://www.w3.org/2000/svg">
<path d="M149.713 116.464C149.713 116.464 153.215 121.952 167.806 120.901C167.806 120.901 175.978 122.185 184.032 117.515C184.032 117.515 188.702 114.946 189.052 101.518C189.052 101.518 193.605 72.2106 183.799 64.7377C183.799 64.7377 172.826 43.6035 157.65 58.4324C157.65 58.4324 147.378 72.0938 147.611 81.7852C147.611 81.7852 143.642 105.722 149.713 116.464Z" fill="#F2EEE3"/>
<path d="M167.527 122.657C178.497 122.657 187.391 117.823 187.391 111.861C187.391 105.899 178.497 101.066 167.527 101.066C156.556 101.066 147.662 105.899 147.662 111.861C147.662 117.823 156.556 122.657 167.527 122.657Z" fill="#D5D3C7"/>
<path d="M167.924 113.716C178.895 113.716 187.788 108.882 187.788 102.92C187.788 96.9579 178.895 92.1246 167.924 92.1246C156.953 92.1246 148.06 96.9579 148.06 102.92C148.06 108.882 156.953 113.716 167.924 113.716Z" fill="#F2EEE3"/>
<path fill-rule="evenodd" clip-rule="evenodd" d="M156.044 85.0623C156.044 85.0623 161.007 75.2277 162.88 74.7594C162.88 74.7594 163.897 79.1861 167.618 81.0171C167.618 81.0171 171.767 78.966 171.696 74.6095C171.696 74.6095 173.618 75.7657 177.326 83.051C177.326 83.051 184.477 80.9317 184.477 77.8851C184.477 74.8386 185.007 72.7854 184.146 70.07C183.285 67.3545 182.093 64.5728 180.571 62.7184C179.048 60.8639 177.856 59.142 175.009 58.2147C172.161 57.2875 167.857 56.2278 166.533 56.6915C165.209 57.1551 161.832 58.281 160.177 60.1354C158.521 61.9899 156.204 63.182 155.211 65.5663C154.218 67.9506 152.562 69.6063 152.43 71.1296C152.297 72.6529 149.715 69.6063 152.297 74.5736C154.88 79.5409 156.044 85.0623 156.044 85.0623Z" fill="#D5D3C7"/>
<path d="M195.78 75.2521C200.073 83.3435 199.577 94.0768 199.577 94.0768C196.11 112.406 182.912 118.724 182.912 118.724C187.864 99.7339 177.455 83.3435 177.455 83.3435C173.824 76.408 180.922 71.7845 180.922 71.7845C171.677 66.9958 167.55 51.3086 167.55 51.3086C164.083 67.326 153.518 71.7845 153.518 71.7845C160.286 76.5732 157.315 82.1875 157.315 82.1875L152.197 95.0676C148.235 102.663 151.513 118.265 151.513 118.265C123.283 101.091 139.65 72.7752 139.65 72.7752C139.65 72.7752 140.305 70.4869 137.795 71.3626C137.503 71.5378 134.643 72.939 133.359 76.9089C133.184 76.5587 131.725 73.2309 132.542 69.6112C132.309 69.6696 133.301 68.0349 130.266 68.3853C130.266 68.3853 124.429 69.7864 122.678 71.3043C122.678 71.3043 125.129 68.2684 125.012 65.8749C125.012 65.8749 125.246 64.7656 122.503 64.7071C122.503 64.7071 117.24 64.684 114.97 63.363C114.97 63.363 118.065 60.1843 118.065 58.5743C118.065 58.5743 119.056 55.1065 115.052 55.2716C115.052 55.2716 110.925 56.1798 109.77 57.5008C109.77 57.5008 109.852 53.9919 111.255 52.6708C111.255 52.6708 113.339 50.3452 114.215 49.6447C114.215 49.6447 115.324 49.0024 113.689 48.0684C113.689 48.0684 108.028 47.4262 106.86 41.0042C106.86 41.0042 109.37 44.2151 112.172 41.4712C112.172 41.4712 112.405 37.5596 107.152 36.0417C107.152 36.0417 108.67 34.6406 110.888 34.2903C110.888 34.2903 113.748 34.3487 114.156 32.6556C114.156 32.6556 114.448 30.8457 110.596 28.8608C110.596 28.8608 115.09 29.5031 115.966 28.4521C115.966 28.4521 110.362 27.2845 110.888 18.8191C110.888 18.8191 113.631 22.9642 116.141 21.6799C116.141 21.6799 117.833 20.9209 116.724 18.0018C116.724 18.0018 115.615 16.192 114.331 15.7832C114.331 15.7832 116.082 12.2804 123.028 12.5723C123.028 12.5723 126.588 11.9885 123.495 8.95262C123.495 8.95262 127.172 8.36881 129.915 10.2371C129.915 10.2371 128.515 5.44981 130.674 0.312114C130.674 0.312114 140.889 10.5219 156.985 11.4301C156.985 11.4301 156.902 7.63205 161.029 5.48544C161.029 5.48544 160.451 8.62291 162.598 9.69618C162.598 9.69618 163.423 10.1916 164.083 8.8706C164.083 8.8706 165.321 4.57729 164.661 1.68743C164.661 1.68743 167.798 3.7515 168.458 8.62288C168.458 8.62288 168.871 10.4393 169.779 9.20079C169.779 9.20079 171.265 5.23776 172.833 4.24695C172.833 4.24695 171.677 8.62292 173.576 10.6044C173.576 10.6044 174.649 11.5952 175.144 11.5952C175.144 11.5952 193.886 10.8793 204.859 0.253784C204.859 0.253784 207.894 4.45727 205.91 11.2295C205.91 11.2295 215.673 9.77881 218.975 14.4023C218.975 14.4023 215.838 15.3106 215.591 17.4572C215.591 17.4572 215.673 19.3562 217.82 19.6039C217.82 19.6039 221.038 20.1818 222.937 18.5305C222.937 18.5305 223.763 25.0532 217.985 27.6127C217.985 27.6127 217.029 27.8392 217.641 28.277C217.641 28.277 219.947 28.5105 222.077 27.5473C222.077 27.5473 220.764 29.036 220.181 29.9116C220.181 29.9116 218.575 31.2837 220.035 32.5973C220.035 32.5973 227.931 34.3829 229.252 37.8093C229.252 37.8093 224.093 36.2406 221.988 41.0705C221.988 41.0705 222.689 44.2905 226.528 43.465C226.528 43.465 226.513 47.0758 220.035 49.4112C220.035 49.4112 219.101 50.0534 219.626 51.5129C219.626 51.5129 223.07 54.899 222.661 59.2193C222.661 59.2193 221.26 57.4094 218.75 57.0008C218.75 57.0008 216.182 56.3586 216.007 59.1024C216.007 59.1024 216.299 62.4885 218.692 63.6563C218.692 63.6563 216.708 65.4078 209.937 64.0066C209.937 64.0066 208.945 63.4811 209.295 64.8823C209.295 64.8823 210.229 68.6187 208.828 72.2383C208.828 72.2383 208.128 69.6112 206.435 68.7938C206.435 68.7938 204.801 67.4511 203.75 69.5529C203.75 69.5529 203.108 74.2818 199.372 75.858C199.372 75.858 199.606 74.5153 198.789 73.9314C198.789 73.9314 197.441 72.8364 195.78 75.2521Z" fill="#225054"/>
<path d="M167.811 44.6708C164.239 45.9532 160.58 52.9741 160.58 52.9741C161.086 59.7012 167.708 65.7178 167.807 65.8079V65.8318C167.807 65.8318 167.819 65.8194 167.82 65.8192C167.82 65.8192 167.825 65.8244 167.825 65.8244V65.8149C167.924 65.7208 174.276 59.6423 174.782 52.9169C174.782 52.9169 171.381 45.9592 167.81 44.6745V44.6708H167.811Z" fill="#163C3F"/>
<path d="M160.782 54.3634C160.782 54.3634 164.333 48.0346 167.8 46.8787L167.814 65.9466C167.814 65.9466 161.279 60.4731 160.783 54.3634H160.782Z" fill="#FAB84A"/>
<path d="M174.566 54.3115C174.566 54.3115 171.264 48.0367 167.797 46.8808V65.953C167.797 65.953 174.071 60.4212 174.566 54.3115Z" fill="#E9934C"/>
<path d="M140.166 62.3189C152.06 62.3189 161.703 52.6739 161.703 40.7763C161.703 28.8786 152.06 19.2336 140.166 19.2336C128.271 19.2336 118.628 28.8786 118.628 40.7763C118.628 52.6739 128.271 62.3189 140.166 62.3189Z" fill="#173C3F"/>
<path d="M141.459 62.3356C152.239 62.3356 160.977 53.1325 160.977 41.7799C160.977 30.4272 152.239 21.2241 141.459 21.2241C130.679 21.2241 121.94 30.4272 121.94 41.7799C121.94 53.1325 130.679 62.3356 141.459 62.3356Z" fill="#F2EEE3"/>
<path d="M195.561 62.302C207.455 62.302 217.098 52.6571 217.098 40.7594C217.098 28.8618 207.455 19.2168 195.561 19.2168C183.666 19.2168 174.023 28.8618 174.023 40.7594C174.023 52.6571 183.666 62.302 195.561 62.302Z" fill="#173C3F"/>
<path d="M194.212 62.3697C204.992 62.3697 213.731 53.1665 213.731 41.8139C213.731 30.4613 204.992 21.2581 194.212 21.2581C183.432 21.2581 174.693 30.4613 174.693 41.8139C174.693 53.1665 183.432 62.3697 194.212 62.3697Z" fill="#F2EEE3"/>
<path d="M145.801 54.6554C152.116 54.6554 157.236 49.5556 157.236 43.2646C157.236 36.9737 152.116 31.8738 145.801 31.8738C139.485 31.8738 134.365 36.9737 134.365 43.2646C134.365 49.5556 139.485 54.6554 145.801 54.6554Z" fill="#FAB84A"/>
<path d="M145.885 51.6514C150.591 51.6514 154.407 47.8506 154.407 43.1621C154.407 38.4736 150.591 34.6729 145.885 34.6729C141.178 34.6729 137.362 38.4736 137.362 43.1621C137.362 47.8506 141.178 51.6514 145.885 51.6514Z" fill="#201E1E"/>
<path d="M141.182 40.4245C142.693 40.4245 143.918 39.2043 143.918 37.6991C143.918 36.1939 142.693 34.9736 141.182 34.9736C139.671 34.9736 138.446 36.1939 138.446 37.6991C138.446 39.2043 139.671 40.4245 141.182 40.4245Z" fill="#FEFEFE"/>
<path d="M190.415 54.6905C196.731 54.6905 201.85 49.5907 201.85 43.2997C201.85 37.0088 196.731 31.909 190.415 31.909C184.1 31.909 178.98 37.0088 178.98 43.2997C178.98 49.5907 184.1 54.6905 190.415 54.6905Z" fill="#FAB84A"/>
<path d="M190.5 51.6868C195.206 51.6868 199.022 47.886 199.022 43.1975C199.022 38.5089 195.206 34.7082 190.5 34.7082C185.793 34.7082 181.977 38.5089 181.977 43.1975C181.977 47.886 185.793 51.6868 190.5 51.6868Z" fill="#201E1E"/>
<path d="M185.796 40.4601C187.308 40.4601 188.533 39.2399 188.533 37.7347C188.533 36.2295 187.308 35.0093 185.796 35.0093C184.285 35.0093 183.06 36.2295 183.06 37.7347C183.06 39.2399 184.285 40.4601 185.796 40.4601Z" fill="#FEFEFE"/>
<path d="M153.312 124.753C154.34 124.753 155.173 122.672 155.173 120.105C155.173 117.538 154.34 115.456 153.312 115.456C152.284 115.456 151.45 117.538 151.45 120.105C151.45 122.672 152.284 124.753 153.312 124.753Z" fill="#E9934C"/>
<path d="M157.563 124.733C158.591 124.733 159.424 122.652 159.424 120.085C159.424 117.517 158.591 115.436 157.563 115.436C156.535 115.436 155.701 117.517 155.701 120.085C155.701 122.652 156.535 124.733 157.563 124.733Z" fill="#E9934C"/>
<path d="M161.896 124.774C162.924 124.774 163.758 122.693 163.758 120.125C163.758 117.558 162.924 115.477 161.896 115.477C160.868 115.477 160.035 117.558 160.035 120.125C160.035 122.693 160.868 124.774 161.896 124.774Z" fill="#E9934C"/>
<path d="M172.566 124.898C173.594 124.898 174.428 122.817 174.428 120.249C174.428 117.682 173.594 115.601 172.566 115.601C171.538 115.601 170.705 117.682 170.705 120.249C170.705 122.817 171.538 124.898 172.566 124.898Z" fill="#E9934C"/>
<path d="M176.817 124.877C177.845 124.877 178.679 122.796 178.679 120.229C178.679 117.662 177.845 115.581 176.817 115.581C175.789 115.581 174.956 117.662 174.956 120.229C174.956 122.796 175.789 124.877 176.817 124.877Z" fill="#E9934C"/>
<path d="M181.151 124.919C182.179 124.919 183.012 122.837 183.012 120.27C183.012 117.703 182.179 115.622 181.151 115.622C180.123 115.622 179.29 117.703 179.29 120.27C179.29 122.837 180.123 124.919 181.151 124.919Z" fill="#E9934C"/>
<path d="M148.838 73.7354C148.838 73.7354 144.511 75.2867 139.488 72.5819C139.488 72.5819 135.668 70.9509 133.504 77.7128C133.35 77.5537 130.756 75.4458 131.838 70.076C131.838 70.076 132.494 68.6043 129.597 69.0418C129.597 69.0418 122.796 71.2296 121.908 72.4626C121.908 72.4626 124.38 68.6441 124.342 66.178C124.342 66.178 124.342 65.2831 121.869 65.3228C121.869 65.3228 116.479 65.2632 114.335 63.8113C114.335 63.7317 117.136 61.1265 117.599 58.9388C117.599 58.9388 118.237 55.6175 115.223 55.7965C115.223 55.7965 111.649 55.7965 109.37 57.9841C109.37 57.9841 108.655 53.4857 113.491 49.97C113.491 49.97 114.529 49.3793 113.3 48.7605C113.3 48.7605 107.722 47.0968 106.447 40.4542C106.447 40.4542 108.732 43.3466 110.896 42.1533C110.896 42.1533 111.321 41.9943 111.592 41.3578C111.592 41.3578 111.497 37.5102 106.524 35.9633C106.524 35.9633 108.037 34.1981 111.746 33.8799C111.746 33.8799 114.296 33.1242 113.06 31.4138C113.06 31.4138 111.282 29.4648 110.162 28.8284C110.162 28.8284 114.142 28.9875 115.417 28.192C115.301 28.1522 109.952 27.5291 110.764 18.3409C110.764 18.3409 114.798 24.0553 116.46 20.1175C116.344 19.8788 117.084 17.5019 113.606 15.5528C113.606 15.5528 115.88 12.0429 122.449 11.9634C122.449 11.9634 125.578 11.1679 122.912 8.42334C122.912 8.42334 127.317 7.66756 129.288 9.5768C129.326 9.49723 128.481 5.63518 130.606 0.384766C130.606 0.384766 129.906 9.85529 131.374 13.5545C131.181 13.4351 129.017 10.3723 126.197 9.21882C126.197 9.21882 127.626 14.1113 122.603 14.2306C122.603 14.2306 118.546 13.3953 116.614 14.9466C116.614 14.9466 119.667 20.5152 117.31 22.8619C117.31 22.8619 115.146 24.811 112.326 22.0665C112.326 22.0665 112.033 26.5214 117.829 27.7147C117.829 27.7147 116.836 30.0293 113.822 30.1088C113.822 30.1088 116.377 32.5304 114.483 34.3601C114.483 34.3601 112.652 35.9695 110.2 35.988C110.2 35.988 114.314 38.3821 113.767 42.0947C113.767 42.0947 112.44 45.1073 109.093 44.0635C109.093 44.0635 111.305 46.0119 115.021 47.2493C115.021 47.2493 117.278 48.6994 116.24 50.2745C116.24 50.2745 112.816 51.5176 111.778 55.0615C111.778 55.0615 116.915 52.5893 119.265 54.4456C119.265 54.4456 120.912 59.0855 117.016 62.7953C117.016 62.7953 124.387 64.0124 127.392 63.6186C127.392 63.6186 126.48 67.6949 125.661 68.8199C126.098 68.5949 131.713 66.2846 135.1 67.0721C135.1 67.0721 132.643 71.9081 132.917 73.7082C132.917 73.7082 137.276 69.0904 141.046 69.7654C141.046 69.7654 139.788 72.5814 148.838 73.7354Z" fill="#163C3F"/>
<path d="M186.428 74.5243C186.428 74.5243 189.625 77.2158 196.329 75.5603C196.329 75.5603 197.243 75.2074 197.929 74.7369C197.929 74.7369 199.235 73.6298 199.268 75.8119C199.268 75.8119 203.798 74.8545 204.56 69.9534C204.56 69.9534 204.916 67.9761 206.974 69.4661C206.974 69.4661 208.115 70.4212 208.648 73.009C208.648 73.009 211.115 68.934 209.971 64.9739C209.971 64.9739 209.933 64.1113 210.734 64.3073C210.734 64.3073 216.602 66.0718 219.27 63.7192C219.27 63.7192 216.145 61.994 216.831 57.9163C216.831 57.9163 217.42 56.7232 219.859 57.4681C219.859 57.4681 222.401 58.3623 222.744 59.617C222.744 59.617 223.682 54.8924 220.125 51.4545C220.125 51.4545 219.142 50.4188 220.786 49.4762C220.786 49.4762 226.196 47.1842 226.977 43.1918C226.977 43.1918 223.595 44.5853 222.395 41.0958C222.395 41.0958 224.124 36.7175 229.554 38.0113C229.554 38.0113 228.007 34.0612 220.57 32.564C220.57 32.564 219.088 32.0928 220.57 30.0411L223.011 27.0322C223.011 27.0322 219.689 28.7103 218.126 28.045C218.126 28.045 217.714 27.8508 218.495 27.5736C218.495 27.5736 223.807 25.2668 223.322 18.0307C223.322 18.0307 218.603 21.5296 216.339 18.2304C216.339 18.2304 215.534 16.1467 219.98 14.3168C219.98 14.3168 217.898 9.8856 206.618 11.1011C206.618 11.1011 208.513 4.8655 204.891 0.274719C204.891 0.274719 207.878 10.1347 204.106 13.6281C204.106 13.6281 211.166 10.5783 218.172 14.0162C218.172 14.0162 213.914 14.0162 215.369 19.3948C215.369 19.3948 216.986 22.0009 222.052 20.8365C222.052 20.8365 219.358 26.1597 216.124 28.1558C216.124 28.1558 218.495 29.5976 220.112 29.4312C220.032 29.7252 218.127 32.7835 217.479 33.058C217.479 33.058 222.429 33.7008 225.717 36.3069C225.717 36.3069 222.591 37.0277 221.082 41.4083C221.082 41.4083 222.807 44.6243 224.639 45.0679C224.683 44.8988 220.92 48.5613 218.01 49.5593C218.226 49.8366 221.513 55.3261 222.106 57.2668C222.106 57.2668 219.411 54.8825 216.124 56.7678C216.124 56.7678 214.894 60.6097 216.418 63.472C216.418 63.472 212.205 63.9894 209.019 62.6213C209.019 62.6213 209.271 68.2795 208.928 69.7302C208.928 69.7302 206.297 67.2872 203.741 67.5987C203.741 67.5987 203.226 72.6196 201.435 73.3646C201.435 73.3646 200.368 71.9531 198.844 71.4434C198.844 71.4434 193.951 76.2936 186.428 74.5243Z" fill="#163C3F"/>
<path fill-rule="evenodd" clip-rule="evenodd" d="M134.934 91.0333C134.934 91.0333 135.284 78.7583 139.966 71.9209C139.966 71.9209 150.211 75.8274 153.472 71.7729C153.472 71.7729 157.449 73.9163 158.011 78.5058C158.011 78.5058 158.455 80.6336 156.038 85.4684C156.038 85.4684 156.339 76.061 148.388 77.2133C148.388 77.2133 137.781 77.2049 134.934 91.0333Z" fill="#163C3F"/>
<path fill-rule="evenodd" clip-rule="evenodd" d="M150.281 107.889C150.281 107.889 138.035 103.451 134.945 92.4925C134.945 92.4925 133.632 107.319 151.518 118.278C151.518 118.278 150.41 111.401 150.281 107.889Z" fill="#163C3F"/>
<path fill-rule="evenodd" clip-rule="evenodd" d="M199.55 91.6377C199.55 91.6377 199.786 80.6506 195.104 73.8132C195.104 73.8132 187.785 77.0523 180.918 71.7333C180.918 71.7333 176.941 73.5372 176.438 78.9931C176.438 78.9931 175.989 81.7861 178.621 85.4288C178.621 85.4288 178.145 76.6653 186.096 77.8177C186.096 77.8177 196.703 77.8093 199.55 91.6377Z" fill="#163C3F"/>
<path fill-rule="evenodd" clip-rule="evenodd" d="M184.236 109.081C184.236 109.081 196.496 104.049 199.586 93.0906C199.586 93.0906 200.794 107.807 182.908 118.766C182.908 118.766 184.107 112.593 184.236 109.081Z" fill="#163C3F"/>
<path d="M153.358 123.382C154.225 123.382 154.927 121.628 154.927 119.465C154.927 117.302 154.225 115.548 153.358 115.548C152.492 115.548 151.79 117.302 151.79 119.465C151.79 121.628 152.492 123.382 153.358 123.382Z" fill="#FAB84A"/>
<path d="M157.578 123.345C158.444 123.345 159.146 121.591 159.146 119.428C159.146 117.265 158.444 115.511 157.578 115.511C156.712 115.511 156.009 117.265 156.009 119.428C156.009 121.591 156.712 123.345 157.578 123.345Z" fill="#FAB84A"/>
<path d="M161.882 123.444C162.748 123.444 163.451 121.691 163.451 119.528C163.451 117.364 162.748 115.611 161.882 115.611C161.016 115.611 160.313 117.364 160.313 119.528C160.313 121.691 161.016 123.444 161.882 123.444Z" fill="#FAB84A"/>
<path d="M172.592 123.56C173.458 123.56 174.161 121.807 174.161 119.643C174.161 117.48 173.458 115.727 172.592 115.727C171.726 115.727 171.024 117.48 171.024 119.643C171.024 121.807 171.726 123.56 172.592 123.56Z" fill="#FAB84A"/>
<path d="M176.83 123.544C177.696 123.544 178.398 121.79 178.398 119.627C178.398 117.464 177.696 115.71 176.83 115.71C175.964 115.71 175.261 117.464 175.261 119.627C175.261 121.79 175.964 123.544 176.83 123.544Z" fill="#FAB84A"/>
<path d="M181.167 123.593C182.033 123.593 182.735 121.84 182.735 119.677C182.735 117.513 182.033 115.76 181.167 115.76C180.3 115.76 179.598 117.513 179.598 119.677C179.598 121.84 180.3 123.593 181.167 123.593Z" fill="#FAB84A"/>
<path d="M17.5442 127.201C15.4703 127.186 13.2464 127.425 11.2832 128.184C11.2832 128.184 1.26133 132.065 0.345371 143.005C0.345371 143.005 -0.893892 152.059 3.20106 157.934C3.20106 157.934 6.36216 163.23 13.0677 164.755C13.0677 164.755 26.8597 168.718 34.0986 156.218C34.0986 156.218 34.7203 155.103 33.9391 154.187L29.6825 151.6C29.6825 151.6 28.4992 151.088 27.5833 152.409C27.5833 152.409 25.6399 156.027 22.3633 157.132C22.3633 157.132 17.7528 158.809 13.9428 157.132C13.9428 157.132 8.83853 155.455 8.09561 147.205H33.8313C33.8313 147.205 35.1086 147.3 35.299 145.814C35.299 145.814 36.1762 132.119 24.9151 128.184C24.9151 128.184 21.5035 127.231 17.5442 127.201ZM18.1283 134.121C21.1374 134.089 23.0831 135.137 23.0831 135.137C27.3936 137.185 27.2859 141.873 27.2859 141.873H8.58916C10.044 136.43 13.0613 135.191 13.0613 135.191C14.9353 134.412 16.6586 134.137 18.1283 134.121Z" fill="#0C5257"/>
<path d="M67.3988 111.018C67.3988 111.018 66.4031 111.072 66.1876 112.365V134.076C66.1876 134.076 64.4244 129.617 60.043 128.055C60.043 128.055 54.367 126.112 49.3379 128.094C49.3379 128.094 43.0889 129.847 40.1933 139.832C40.1933 139.832 38.6307 144.831 40.0036 152.232C40.0036 152.232 41.1837 159.686 48.3465 163.916C48.3465 163.916 53.4526 167.003 60.9202 163.916C60.9202 163.916 64.1716 162.649 66.2414 159.281V162.392C66.2414 162.392 66.1775 163.573 67.3966 163.763H72.7309C72.7309 163.763 73.9501 163.573 73.9119 162.278V112.419C73.9119 112.419 73.9181 111.314 72.5714 111.018H67.3988ZM56.8662 134.287C62.2821 134.287 66.6724 139.727 66.6724 146.439C66.6724 153.151 62.2821 158.594 56.8662 158.594C51.4503 158.594 47.0598 153.151 47.0598 146.439C47.0598 139.727 51.4503 134.287 56.8662 134.287Z" fill="#0C5257"/>
<path d="M81.0747 128.398H85.9895C85.9895 128.398 87.2468 128.246 87.3992 129.847L87.4436 150.523C87.4436 150.523 87.5514 156.397 92.5085 157.691C92.5085 157.691 96.2801 158.634 99.5669 157.691C99.5669 157.691 104.659 156.559 104.686 150.469V129.881C104.686 129.881 104.524 128.453 105.979 128.399H110.963C110.963 128.399 112.444 128.264 112.498 129.666V148.125C112.498 148.125 112.525 159.281 105.844 162.999C105.844 162.999 97.0075 168.119 86.1236 162.999C86.1236 162.999 80.6816 160.79 79.7656 149.795V129.693C79.7656 129.693 79.7793 128.436 81.0747 128.398Z" fill="#0C5257"/>
<path d="M144.477 135.325V130.043C144.477 130.043 144.557 129.288 143.372 128.749C143.372 128.749 135.182 124.815 125.969 129.342C125.969 129.342 119.441 132.209 117.422 140.174C117.422 140.174 115.745 147.154 117.422 152.22C117.422 152.22 119.314 160.628 126.911 163.646C126.911 163.646 133.751 167.3 143.507 163.376C143.507 163.376 144.5 163.127 144.477 161.975V156.828C144.477 156.828 144.13 155.227 142.625 155.608C142.625 155.608 142.167 155.741 141.634 156.123C141.634 156.123 139.843 157.418 137.71 157.723C137.71 157.723 133.252 158.542 130.109 156.694C130.109 156.694 125.672 155.023 124.702 147.693C124.702 147.693 124.352 144.648 124.702 143.382C124.702 143.382 125.689 136.249 132.166 134.762C132.166 134.762 135.443 133.886 139.443 134.877C139.443 134.877 141.459 135.702 142.133 136.268C142.133 136.268 143.749 137.265 144.477 135.325Z" fill="#0C5257"/>
<path d="M161.857 127.312C160.232 127.304 158.426 127.521 156.697 128.202C156.697 128.202 150.45 129.956 147.554 139.94C147.554 139.94 145.99 144.94 147.363 152.34C147.363 152.34 148.545 159.794 155.708 164.024C155.708 164.024 160.812 167.111 168.279 164.024C168.279 164.024 171.531 162.757 173.601 159.39V162.5C173.601 162.5 173.537 163.683 174.756 163.874H180.09C180.09 163.874 181.309 163.682 181.271 162.386V129.776C181.271 129.776 181.28 128.671 179.933 128.375H174.76C174.76 128.375 173.762 128.428 173.547 129.722V134.187C173.547 134.187 171.786 129.728 167.404 128.165C167.404 128.165 164.959 127.327 161.857 127.312ZM164.225 134.396C169.641 134.396 174.032 139.838 174.032 146.55C174.032 153.262 169.641 158.702 164.225 158.702C158.809 158.702 154.419 153.262 154.419 146.55C154.419 139.838 158.809 134.396 164.225 134.396Z" fill="#0C5257"/>
<path d="M214.044 135.303V130.021C214.044 130.021 214.125 129.267 212.94 128.728C212.94 128.728 204.75 124.793 195.536 129.321C195.536 129.321 189.009 132.187 186.989 140.152C186.989 140.152 185.312 147.133 186.989 152.199C186.989 152.199 188.882 160.606 196.479 163.624C196.479 163.624 203.318 167.278 213.074 163.355C213.074 163.355 214.068 163.105 214.044 161.954V156.806C214.044 156.806 213.697 155.205 212.192 155.586C212.192 155.586 211.735 155.72 211.202 156.101C211.202 156.101 209.411 157.397 207.277 157.701C207.277 157.701 202.82 158.521 199.676 156.673C199.676 156.673 195.24 155.001 194.27 147.672C194.27 147.672 193.92 144.627 194.27 143.36C194.27 143.36 195.257 136.227 201.734 134.741C201.734 134.741 205.01 133.864 209.011 134.855C209.011 134.855 211.027 135.68 211.7 136.246C211.7 136.246 213.317 137.243 214.044 135.303Z" fill="#DF2B3C"/>
<path fill-rule="evenodd" clip-rule="evenodd" d="M260.06 127.148C249.693 127.148 241.288 135.748 241.288 146.356C241.288 156.963 249.693 165.561 260.06 165.561C270.427 165.561 278.832 156.963 278.832 146.356C278.832 135.748 270.427 127.148 260.06 127.148ZM260.06 134.344C265.934 134.344 270.696 139.722 270.696 146.356C270.696 152.99 265.934 158.368 260.06 158.368C254.187 158.368 249.424 152.99 249.424 146.356C249.424 139.722 254.187 134.344 260.06 134.344Z" fill="#DF2B3C"/>
<path d="M219.317 131.255V163.592C219.317 163.592 219.21 165.182 220.934 165.263H225.891C225.891 165.263 227.103 165.263 227.238 163.834V147.453C227.238 147.453 227.111 138.649 231.225 136.249C231.225 136.249 233.664 134.915 237.588 136.134C237.588 136.134 238.883 136.706 239.645 135.867L241.474 131.523C241.474 131.523 241.893 129.884 240.712 129.579C240.712 129.579 235.073 126.912 230.578 130.38C230.578 130.38 228.33 131.98 227.301 135.334V131.227C227.301 131.227 227.347 129.781 225.93 129.77H220.672C220.672 129.77 219.602 129.768 219.317 131.255Z" fill="#DF2B3C"/>
<path d="M299.088 135.594C299.088 135.594 299.789 136.537 301.217 135.81L304.342 133.438C304.342 133.438 305.177 132.684 304.53 131.66C304.53 131.66 302.129 127.674 296.49 127.217C296.49 127.217 292.452 126.874 290.166 127.56C290.166 127.56 282.889 128.894 281.555 135.601C281.555 135.601 281.098 137.544 281.669 140.136C281.669 140.136 282.393 144.328 288.108 146.881C288.108 146.881 295.451 150.226 295.829 150.388C295.829 150.388 299.978 152.059 299.169 155.454C299.169 155.454 298.9 158.364 295.613 159.011C295.613 159.011 289.632 160.52 286.831 155.724C286.831 155.724 286.127 154.198 284.755 154.541L280.755 156.789C280.755 156.789 279.612 157.514 280.336 158.79C280.336 158.79 281.974 161.934 285.175 163.611C285.175 163.611 290.013 166.812 298.547 164.64C298.547 164.64 304.453 162.696 305.939 158.809C305.939 158.809 307.577 155.608 306.548 150.997C306.548 150.997 305.558 147.034 300.834 144.709C300.834 144.709 294.319 141.813 293.442 141.546C293.442 141.546 289.099 139.717 289.175 137.43C289.175 137.43 288.451 134.915 291.461 133.695C291.461 133.695 293.785 132.552 296.795 133.695C296.795 133.695 298.258 134.291 299.088 135.594Z" fill="#DF2B3C"/>
<path d="M328.033 135.945C328.033 135.945 328.733 136.888 330.161 136.16L333.286 133.789C333.286 133.789 334.121 133.034 333.474 132.01C333.474 132.01 331.073 128.025 325.434 127.568C325.434 127.568 321.396 127.225 319.11 127.911C319.11 127.911 311.833 129.244 310.499 135.952C310.499 135.952 310.042 137.895 310.613 140.487C310.613 140.487 311.337 144.679 317.052 147.232C317.052 147.232 324.396 150.577 324.773 150.739C324.773 150.739 328.922 152.409 328.113 155.805C328.113 155.805 327.844 158.715 324.557 159.362C324.557 159.362 318.576 160.871 315.775 156.074C315.775 156.074 315.071 154.549 313.7 154.892L309.699 157.14C309.699 157.14 308.556 157.864 309.28 159.141C309.28 159.141 310.918 162.285 314.119 163.962C314.119 163.962 318.957 167.163 327.492 164.991C327.492 164.991 333.397 163.047 334.883 159.16C334.883 159.16 336.521 155.959 335.493 151.348C335.493 151.348 334.502 147.384 329.778 145.06C329.778 145.06 323.263 142.163 322.386 141.897C322.386 141.897 318.043 140.067 318.119 137.781C318.119 137.781 317.395 135.266 320.405 134.046C320.405 134.046 322.729 132.903 325.739 134.046C325.739 134.046 327.202 134.642 328.033 135.945Z" fill="#DF2B3C"/>
</svg>
