<svg width="36" height="36" viewBox="0 0 36 36" fill="none" xmlns="http://www.w3.org/2000/svg">
<rect width="36" height="36" fill="#E99B83"/>
<path d="M11.5234 17.2109C11.5234 18.487 11.1458 19.474 10.3906 20.1719C9.64062 20.8646 8.57292 21.2109 7.1875 21.2109H6.32031V25H3.23438V13.5781H7.1875C8.63021 13.5781 9.71354 13.8932 10.4375 14.5234C11.1615 15.1536 11.5234 16.0495 11.5234 17.2109ZM6.32031 18.6953H6.88281C7.34635 18.6953 7.71354 18.5651 7.98438 18.3047C8.26042 18.0443 8.39844 17.6849 8.39844 17.2266C8.39844 16.4557 7.97135 16.0703 7.11719 16.0703H6.32031V18.6953ZM23.0391 19.0469C23.0391 20.9531 22.513 22.4219 21.4609 23.4531C20.4141 24.4844 18.9401 25 17.0391 25H13.3438V13.5781H17.2969C19.1302 13.5781 20.5443 14.0469 21.5391 14.9844C22.5391 15.9219 23.0391 17.276 23.0391 19.0469ZM19.8359 19.1562C19.8359 18.1094 19.6276 17.3333 19.2109 16.8281C18.7995 16.3229 18.1719 16.0703 17.3281 16.0703H16.4297V22.4688H17.1172C18.0547 22.4688 18.7422 22.1979 19.1797 21.6562C19.6172 21.1094 19.8359 20.276 19.8359 19.1562ZM28.1328 25H25.0938V13.5781H31.8438V16.0547H28.1328V18.2344H31.5547V20.7109H28.1328V25Z" fill="white"/>
</svg>
