<svg width="36" height="36" viewBox="0 0 36 36" fill="none" xmlns="http://www.w3.org/2000/svg">
<rect width="36" height="36" fill="#83BEE9"/>
<path d="M9.52344 17.2109C9.52344 18.487 9.14583 19.474 8.39062 20.1719C7.64062 20.8646 6.57292 21.2109 5.1875 21.2109H4.32031V25H1.23438V13.5781H5.1875C6.63021 13.5781 7.71354 13.8932 8.4375 14.5234C9.16146 15.1536 9.52344 16.0495 9.52344 17.2109ZM4.32031 18.6953H4.88281C5.34635 18.6953 5.71354 18.5651 5.98438 18.3047C6.26042 18.0443 6.39844 17.6849 6.39844 17.2266C6.39844 16.4557 5.97135 16.0703 5.11719 16.0703H4.32031V18.6953ZM22.2188 25H18.1719L14 16.9531H13.9297C14.0286 18.2188 14.0781 19.1849 14.0781 19.8516V25H11.3438V13.5781H15.375L19.5312 21.5156H19.5781C19.5052 20.3646 19.4688 19.4401 19.4688 18.7422V13.5781H22.2188V25ZM29.2734 18.3125H34.2031V24.4688C32.8646 24.9271 31.3932 25.1562 29.7891 25.1562C28.0286 25.1562 26.6667 24.6458 25.7031 23.625C24.7448 22.6042 24.2656 21.1484 24.2656 19.2578C24.2656 17.4141 24.7917 15.9792 25.8438 14.9531C26.8958 13.9271 28.3698 13.4141 30.2656 13.4141C30.9844 13.4141 31.6615 13.4818 32.2969 13.6172C32.9375 13.7526 33.4948 13.9245 33.9688 14.1328L32.9922 16.5547C32.1693 16.1484 31.2656 15.9453 30.2812 15.9453C29.3802 15.9453 28.6823 16.2396 28.1875 16.8281C27.6979 17.4115 27.4531 18.2474 27.4531 19.3359C27.4531 20.4036 27.6745 21.2188 28.1172 21.7812C28.5651 22.3385 29.2083 22.6172 30.0469 22.6172C30.5052 22.6172 30.9271 22.5729 31.3125 22.4844V20.6953H29.2734V18.3125Z" fill="white"/>
</svg>
