<svg width="36" height="36" viewBox="0 0 36 36" fill="none" xmlns="http://www.w3.org/2000/svg">
<rect width="36" height="36" fill="#5076C1"/>
<path d="M8.73779 16.6714C8.73779 17.7082 8.43099 18.5101 7.81738 19.0771C7.20801 19.64 6.34049 19.9214 5.21484 19.9214H4.51025V23H2.00293V13.7197H5.21484C6.38704 13.7197 7.26725 13.9757 7.85547 14.4878C8.44368 14.9998 8.73779 15.7277 8.73779 16.6714ZM4.51025 17.8774H4.96729C5.34391 17.8774 5.64225 17.7716 5.8623 17.5601C6.08659 17.3485 6.19873 17.0565 6.19873 16.6841C6.19873 16.0578 5.85173 15.7446 5.15771 15.7446H4.51025V17.8774ZM16.9517 16.6714C16.9517 17.7082 16.6449 18.5101 16.0312 19.0771C15.4219 19.64 14.5544 19.9214 13.4287 19.9214H12.7241V23H10.2168V13.7197H13.4287C14.6009 13.7197 15.4811 13.9757 16.0693 14.4878C16.6576 14.9998 16.9517 15.7277 16.9517 16.6714ZM12.7241 17.8774H13.1812C13.5578 17.8774 13.8561 17.7716 14.0762 17.5601C14.3005 17.3485 14.4126 17.0565 14.4126 16.6841C14.4126 16.0578 14.0656 15.7446 13.3716 15.7446H12.7241V17.8774ZM22.5249 23H20.0176V15.77H17.7515V13.7197H24.7847V15.77H22.5249V23ZM34.4712 23H31.5703L29.7612 20.0991L27.9712 23H25.1338L28.2124 18.252L25.3179 13.7197H28.0981L29.7739 16.5889L31.3862 13.7197H34.249L31.3101 18.4487L34.4712 23Z" fill="white"/>
</svg>
