<svg width="231" height="33" viewBox="0 0 231 33" fill="none" xmlns="http://www.w3.org/2000/svg">
<path d="M51.1604 16.041C50.6404 14.5984 47.3906 13.877 47.3906 13.877C46.8056 13.3525 47.4555 12.7623 47.4555 12.7623C47.7155 12.3689 48.2355 11.7787 48.2355 11.7787C47.3905 12.1721 46.4156 12.1066 46.4156 12.1066C46.1556 11.9098 46.5456 11.8443 46.5456 11.8443C48.8855 10.7951 48.5605 8.10656 48.5605 8.10656C47.7805 8.76229 46.4806 8.56557 46.4806 8.56557C45.5706 8.43442 45.5706 7.64754 45.5706 7.64754C45.7006 6.72951 46.9356 6.40164 46.9356 6.40164C45.5706 4.5 41.5409 5.09016 41.5409 5.09016C42.3858 2.27049 41.0859 0.565574 41.0859 0.565574C36.6011 4.95902 28.8665 5.28688 28.8665 5.28688C28.6715 5.28688 28.2165 4.89344 28.2165 4.89344C27.4366 4.04098 27.8916 2.27049 27.8916 2.27049C27.2416 2.66393 26.6566 4.30328 26.6566 4.30328C26.2666 4.82787 26.1367 4.04098 26.1367 4.04098C25.8767 2.0082 24.5767 1.15574 24.5767 1.15574C24.9017 2.27049 24.3817 4.04098 24.3817 4.04098C24.1218 4.56557 23.7968 4.36885 23.7968 4.36885C22.8868 3.90984 23.1468 2.59836 23.1468 2.59836C21.4569 3.51639 21.4569 5.09016 21.4569 5.09016C14.8272 4.69672 10.6675 0.5 10.6675 0.5C9.7575 2.59836 10.3425 4.63115 10.3425 4.63115C9.23753 3.84426 7.74261 4.04098 7.74261 4.04098C9.04254 5.28688 7.54762 5.54918 7.54762 5.54918C4.68777 5.41803 3.9728 6.86065 3.9728 6.86065C4.49278 7.05738 4.94775 7.77869 4.94775 7.77869C5.40273 8.95901 4.68777 9.28688 4.68777 9.28688C3.64782 9.81147 2.54288 8.10656 2.54288 8.10656C2.34789 11.6475 4.62277 12.1721 4.62277 12.1721C4.23279 12.6311 2.41289 12.3689 2.41289 12.3689C4.0378 13.1557 3.90781 13.877 3.90781 13.877C3.71282 14.5984 2.54288 14.5328 2.54288 14.5328C1.63293 14.6639 0.98296 15.2541 0.98296 15.2541C3.12785 15.9098 3.06285 17.4836 3.06285 17.4836C1.89291 18.5984 0.852966 17.2869 0.852966 17.2869C1.30794 19.9754 3.64782 20.2377 3.64782 20.2377C4.29779 20.6311 3.84281 20.8934 3.84281 20.8934C3.58282 21.2213 2.67287 22.1393 2.67287 22.1393C2.0879 22.6639 2.0879 24.1066 2.0879 24.1066C2.54288 23.582 4.23279 23.1885 4.23279 23.1885C5.85771 23.1229 5.46773 24.5656 5.46773 24.5656C5.46773 25.2213 4.16779 26.5328 4.16779 26.5328C5.07775 27.0574 7.28763 27.0574 7.28763 27.0574C8.39258 27.0574 8.32758 27.5164 8.32758 27.5164C8.39257 28.5 7.35263 29.7459 7.35263 29.7459C8.06759 29.0902 10.4725 28.5656 10.4725 28.5656C11.7074 28.4344 11.3174 29.0902 11.3824 29.0902C11.1224 30.6639 11.7074 32.041 11.7724 32.2377C12.2924 30.5984 13.4623 30.0082 13.5923 29.9426C14.5023 29.6148 14.3723 30.4016 14.3723 30.5328C14.6322 30.7295 15.8672 31.5164 17.7521 30.9918C18.792 30.7295 20.027 30.2705 21.1319 29.418C21.7169 29.0246 22.4318 28.3688 23.1468 27.3852C23.4718 26.9262 23.8618 26.4016 24.1868 25.7459H24.2518C24.9017 24.6311 25.4217 23.2541 25.8117 21.5492C25.8117 21.5492 26.2016 23.582 27.1766 25.7459H27.4366C27.4366 25.7459 28.9965 28.7623 31.2064 30.0738C33.6763 31.582 34.7162 32.041 36.8611 31.7787C37.1861 31.7131 37.3811 31.7131 37.4461 31.6475C37.3811 31.582 37.3811 31.5164 37.3161 31.4508C37.966 30.4672 38.551 30.9262 38.551 30.9262C38.876 31.1885 38.811 31.7131 38.811 31.7131C40.3709 31.0574 40.6309 29.0902 40.6309 29.0902C41.0859 28.2377 41.7358 28.7623 41.7358 28.7623C42.4508 29.0902 42.7108 30.2049 42.7108 30.2049C43.2958 28.6967 42.9058 27.1885 42.9058 27.1885C42.7758 26.5984 43.1658 26.7951 43.1658 26.7951C45.9606 27.3852 46.7406 26.6639 46.7406 26.6639C45.7656 26.2049 45.6356 24.7623 45.6356 24.7623C45.7006 23.6475 46.7406 23.9098 46.7406 23.9098C47.7805 24.1066 48.3655 24.8279 48.3655 24.8279C48.5605 23.0574 47.1306 21.6148 47.1306 21.6148C46.9356 21.0246 47.3256 20.7623 47.3256 20.7623C49.9904 19.7787 49.9904 18.2705 49.9904 18.2705C48.4305 18.5984 48.1055 17.2869 48.1055 17.2869C49.0155 15.3852 51.1604 16.041 51.1604 16.041Z" fill="#00B7BD"/>
<path d="M25.9422 18.8585C24.4473 19.3831 22.9524 22.2684 22.9524 22.2684C23.1474 25.0225 25.8772 27.5143 25.9422 27.5799C26.0072 27.5143 28.6071 25.0225 28.8021 22.2684C28.8021 22.2684 27.3722 19.3831 25.9422 18.8585Z" fill="#009A9F"/>
<path d="M23.018 22.8597C23.018 22.8597 24.4479 20.2367 25.8779 19.7777V27.6466C25.9429 27.6466 23.213 25.4171 23.018 22.8597Z" fill="#FAB84A"/>
<path d="M28.6712 22.8597C28.6712 22.8597 27.3063 20.2367 25.8763 19.7777V27.6466C25.8763 27.6466 28.4762 25.3515 28.6712 22.8597Z" fill="#E9934C"/>
<path d="M14.5694 26.1391C19.4513 26.1391 23.4089 22.1464 23.4089 17.2211C23.4089 12.2958 19.4513 8.30305 14.5694 8.30305C9.68745 8.30305 5.72986 12.2958 5.72986 17.2211C5.72986 22.1464 9.68745 26.1391 14.5694 26.1391Z" fill="#009A9F"/>
<path d="M15.0878 26.2029C19.5031 26.2029 23.0824 22.3863 23.0824 17.6783C23.0824 12.9703 19.5031 9.15372 15.0878 9.15372C10.6725 9.15372 7.0932 12.9703 7.0932 17.6783C7.0932 22.3863 10.6725 26.2029 15.0878 26.2029Z" fill="white"/>
<path d="M37.3184 26.1391C42.2004 26.1391 46.158 22.1464 46.158 17.2211C46.158 12.2958 42.2004 8.30304 37.3184 8.30304C32.4365 8.30304 28.4789 12.2958 28.4789 17.2211C28.4789 22.1464 32.4365 26.1391 37.3184 26.1391Z" fill="#009A9F"/>
<path d="M36.7323 26.2029C41.1475 26.2029 44.7268 22.3863 44.7268 17.6783C44.7268 12.9703 41.1475 9.15372 36.7323 9.15372C32.317 9.15372 28.7377 12.9703 28.7377 17.6783C28.7377 22.3863 32.317 26.2029 36.7323 26.2029Z" fill="white"/>
<path d="M16.9077 22.9917C19.4922 22.9917 21.5874 20.8779 21.5874 18.2704C21.5874 15.6629 19.4922 13.549 16.9077 13.549C14.3231 13.549 12.2279 15.6629 12.2279 18.2704C12.2279 20.8779 14.3231 22.9917 16.9077 22.9917Z" fill="#FAB84A"/>
<path d="M16.9079 21.7457C18.8463 21.7457 20.4177 20.1604 20.4177 18.2047C20.4177 16.2491 18.8463 14.6638 16.9079 14.6638C14.9695 14.6638 13.3981 16.2491 13.3981 18.2047C13.3981 20.1604 14.9695 21.7457 16.9079 21.7457Z" fill="#201E1E"/>
<path d="M14.9569 17.0888C15.5672 17.0888 16.0619 16.5897 16.0619 15.974C16.0619 15.3583 15.5672 14.8593 14.9569 14.8593C14.3467 14.8593 13.852 15.3583 13.852 15.974C13.852 16.5897 14.3467 17.0888 14.9569 17.0888Z" fill="white"/>
<path d="M35.1713 22.9917C37.7559 22.9917 39.8511 20.8779 39.8511 18.2704C39.8511 15.6628 37.7559 13.549 35.1713 13.549C32.5868 13.549 30.4916 15.6628 30.4916 18.2704C30.4916 20.8779 32.5868 22.9917 35.1713 22.9917Z" fill="#FAB84A"/>
<path d="M35.2377 21.8091C37.1761 21.8091 38.7475 20.2238 38.7475 18.2681C38.7475 16.3125 37.1761 14.7271 35.2377 14.7271C33.2993 14.7271 31.7279 16.3125 31.7279 18.2681C31.7279 20.2238 33.2993 21.8091 35.2377 21.8091Z" fill="#201E1E"/>
<path d="M33.2868 17.0888C33.897 17.0888 34.3917 16.5897 34.3917 15.974C34.3917 15.3583 33.897 14.8593 33.2868 14.8593C32.6765 14.8593 32.1818 15.3583 32.1818 15.974C32.1818 16.5897 32.6765 17.0888 33.2868 17.0888Z" fill="white"/>
<path d="M18.1432 30.8607C18.1432 30.8607 16.3882 31.5164 14.3084 30.4016C14.3084 30.4016 12.7484 29.7459 11.8385 32.5C11.7735 32.5 10.7335 31.582 11.1235 29.3525C11.1235 29.3525 11.3835 28.7623 10.2136 28.8934C10.2136 28.8934 7.41871 29.8115 7.02873 30.3361C7.02873 30.3361 8.06868 28.7623 8.00368 27.7131C8.00368 27.7131 8.00368 27.3197 6.96374 27.3852C6.96374 27.3852 4.75385 27.3852 3.8439 26.7295C3.97389 26.7295 5.14383 25.6803 5.27382 24.7623C5.27382 24.7623 5.53381 23.3852 4.29887 23.4508C4.29887 23.4508 2.80395 23.4508 1.894 24.3689C1.894 24.3689 1.56902 22.5328 3.58391 21.0246C3.58391 21.0246 4.03889 20.7623 3.51892 20.5C3.51892 20.5 1.24403 19.7787 0.72406 17.0902C0.72406 17.0902 1.63401 18.2705 2.54397 17.8115C2.54397 17.8115 2.73896 17.7459 2.80395 17.4836C2.80395 17.4836 2.73896 15.9098 0.72406 15.2541C0.72406 15.2541 1.37403 14.5328 2.86895 14.4016C2.86895 14.4016 3.90889 14.0738 3.38892 13.3525C3.38892 13.3525 2.67396 12.5656 2.21898 12.3033C2.21898 12.3033 3.8439 12.3689 4.36387 12.041C4.29887 12.041 2.08899 11.7787 2.47897 7.97541C2.47897 7.97541 4.10388 10.3361 4.81885 8.69672C4.75385 8.56557 5.07883 7.58197 3.64891 6.79508C3.64891 6.79508 4.55886 5.35246 7.28872 5.28688C7.28872 5.28688 8.58865 4.95902 7.48371 3.84426C7.48371 3.84426 9.30361 3.51639 10.0836 4.30328C10.0836 4.2377 9.75859 2.66393 10.6035 0.5C10.6035 0.5 10.3436 4.43443 10.9285 5.94262C10.8635 5.87705 9.95358 4.63115 8.78364 4.17213C8.78364 4.17213 9.36861 6.20492 7.28872 6.27049C7.28872 6.27049 5.59881 5.94262 4.81885 6.59836C4.81885 6.59836 6.05378 8.89344 5.07883 9.87705C5.07883 9.87705 4.16888 10.6639 3.06394 9.54918C3.06394 9.54918 2.93395 11.3852 5.33882 11.9098C5.33882 11.9098 4.94884 12.8934 3.7139 12.8934C3.7139 12.8934 4.75385 13.877 3.97389 14.6639C3.97389 14.6639 3.19393 15.3197 2.21898 15.3197C2.21898 15.3197 3.90889 16.3033 3.7139 17.877C3.7139 17.877 3.19393 19.1229 1.76401 18.6639C1.76401 18.6639 2.67396 19.4508 4.16888 19.9754C4.16888 19.9754 5.07883 20.5656 4.68885 21.2213C4.68885 21.2213 3.25893 21.7459 2.86895 23.1885C2.86895 23.1885 4.94884 22.1393 5.92379 22.9262C5.92379 22.9262 6.57376 24.8279 5.01384 26.4016C5.01384 26.4016 8.06868 26.9262 9.30361 26.7295C9.30361 26.7295 8.91364 28.4344 8.58865 28.8934C8.78364 28.8279 11.0585 27.8443 12.4885 28.1721C12.4885 28.1721 11.4485 30.2049 11.5785 30.9262C11.5785 30.9262 13.3984 29.0246 14.8933 29.2869C14.9583 29.2213 14.4383 30.4016 18.1432 30.8607Z" fill="#009A9F"/>
<path d="M33.5472 31.1885C33.5472 31.1885 34.8472 32.3033 37.642 31.6475C37.642 31.6475 38.032 31.5164 38.292 31.3197C38.292 31.3197 38.812 30.8607 38.812 31.7787C38.812 31.7787 40.6969 31.3852 40.9569 29.3525C40.9569 29.3525 41.0869 28.5656 41.9318 29.1557C41.9318 29.1557 42.3868 29.5492 42.6468 30.5984C42.6468 30.5984 43.6867 28.8934 43.1667 27.2541C43.1667 27.2541 43.1667 26.9262 43.4917 26.9918C43.4917 26.9918 45.8966 27.7131 47.0015 26.7295C47.0015 26.7295 45.7016 26.0082 46.0266 24.3033C46.0266 24.3033 46.2866 23.7787 47.2615 24.1066C47.2615 24.1066 48.3015 24.5 48.4315 25.0246C48.4315 25.0246 48.8214 23.0574 47.3265 21.6147C47.3265 21.6147 46.9365 21.1557 47.5865 20.8279C47.5865 20.8279 49.7964 19.9098 50.1214 18.2049C50.1214 18.2049 48.7565 18.7951 48.2365 17.3525C48.2365 17.3525 48.9514 15.5164 51.1613 16.1066C51.1613 16.1066 50.5114 14.4672 47.4565 13.877C47.4565 13.877 46.8716 13.6803 47.4565 12.8279L48.4315 11.582C48.4315 11.582 47.0665 12.3033 46.4166 11.9754C46.4166 11.9754 46.2216 11.9098 46.5466 11.7787C46.5466 11.7787 48.7565 10.7951 48.4965 7.84426C48.4965 7.84426 46.5466 9.28688 45.6366 7.90983C45.6366 7.90983 45.3116 7.05738 47.1315 6.27049C47.1315 6.27049 46.2866 4.43443 41.6718 4.95902C41.6718 4.95902 42.4518 2.40164 40.9569 0.5C40.9569 0.5 42.1918 4.56557 40.6319 6.0082C40.6319 6.0082 43.5567 4.76229 46.4166 6.13934C46.4166 6.13934 44.6617 6.13934 45.2466 8.36885C45.2466 8.36885 45.8966 9.41803 47.9765 8.95901C47.9765 8.95901 46.8715 11.1885 45.5716 11.9754C45.5716 11.9754 46.5466 12.5656 47.1965 12.5C47.1315 12.6311 46.3516 13.877 46.0916 14.0082C46.0916 14.0082 48.1065 14.2705 49.4714 15.3852C49.4714 15.3852 48.1715 15.7131 47.5865 17.4836C47.5865 17.4836 48.3015 18.7951 49.0164 18.9918C49.0164 18.9262 47.5215 20.4344 46.2866 20.8279C46.3516 20.959 47.7165 23.1885 47.9765 24.041C47.9765 24.041 46.8715 23.0574 45.5066 23.8443C45.5066 23.8443 44.9866 25.418 45.6366 26.5984C45.6366 26.5984 43.8817 26.7951 42.5818 26.2705C42.5818 26.2705 42.7118 28.6311 42.5168 29.2213C42.5168 29.2213 41.4118 28.2377 40.3719 28.3688C40.3719 28.3688 40.1769 30.4672 39.3969 30.7295C39.3969 30.7295 38.942 30.1393 38.357 29.9426C38.682 29.9426 36.6671 31.9754 33.5472 31.1885Z" fill="#009A9F"/>
<path d="M65.6252 10.6539C64.5505 10.645 63.3959 10.7704 62.3833 11.1646C62.3833 11.1646 57.1875 13.1897 56.7168 18.9066C56.7168 18.9066 56.0772 23.6377 58.1999 26.7112C58.1999 26.7112 59.8343 29.4801 63.3159 30.2776C63.3159 30.2776 70.4656 32.3474 74.2137 25.8151C74.2137 25.8151 74.5336 25.2326 74.1339 24.7577L71.9312 23.4047C71.9312 23.4047 71.3184 23.136 70.8477 23.826C70.8477 23.826 69.844 25.7166 68.1388 26.299C68.1388 26.299 65.7494 27.1772 63.7777 26.299C63.7777 26.299 61.1308 25.4209 60.7489 21.1108H74.0895C74.0895 21.1108 74.7465 21.1646 74.8531 20.3851C74.8531 20.3851 75.3063 13.2255 69.471 11.1736C69.4444 11.1646 67.6768 10.6629 65.6252 10.6539ZM65.927 14.2649C67.4902 14.247 68.494 14.7937 68.494 14.7937C70.7233 15.86 70.67 18.3152 70.67 18.3152H60.98C61.7349 15.4658 63.2982 14.8206 63.2982 14.8206C64.2663 14.4174 65.1632 14.2739 65.927 14.2649Z" fill="#00B7BD"/>
<path d="M91.4524 2.19414C91.4524 2.19414 90.9371 2.22105 90.8217 2.90206V14.2461C90.8217 14.2461 89.907 11.9164 87.6333 11.101C87.6333 11.101 84.6934 10.0884 82.0822 11.1188C82.0822 11.1188 78.8402 12.0328 77.3392 17.2568C77.3392 17.2568 76.5312 19.8734 77.2417 23.7353C77.2417 23.7353 77.8545 27.6331 81.567 29.8464C81.567 29.8464 84.2136 31.4593 88.086 29.8464C88.086 29.8464 89.7736 29.1833 90.8394 27.427V29.0489C90.8394 29.0489 90.8038 29.6671 91.4344 29.7657H94.1967C94.1967 29.7657 94.8272 29.6672 94.8094 28.9862V2.92883C94.8094 2.92883 94.8097 2.35543 94.1169 2.19414H91.4524ZM85.9988 14.3535C88.8055 14.3535 91.0791 17.1941 91.0791 20.7066C91.0791 24.2192 88.8055 27.0597 85.9988 27.0597C83.1922 27.0597 80.9186 24.2192 80.9186 20.7066C80.9186 17.1941 83.1922 14.3535 85.9988 14.3535Z" fill="#00B7BD"/>
<path d="M98.5419 11.2709H101.091C101.091 11.2709 101.74 11.1903 101.819 12.0236L101.846 22.83C101.846 22.83 101.899 25.9035 104.475 26.5756C104.475 26.5756 106.429 27.0684 108.134 26.5756C108.134 26.5756 110.772 25.9842 110.79 22.8032V12.0416C110.79 12.0416 110.71 11.2977 111.456 11.2709H114.04C114.04 11.2709 114.804 11.1992 114.84 11.934V21.5846C114.84 21.5846 114.858 27.4178 111.394 29.3623C111.394 29.3623 106.811 32.0415 101.171 29.3623C101.171 29.3623 98.3465 28.2064 97.8758 22.4626V11.952C97.8669 11.952 97.8758 11.2977 98.5419 11.2709Z" fill="#00B7BD"/>
<path d="M131.395 14.8925V12.1328C131.395 12.1328 131.439 11.7385 130.826 11.4607C130.826 11.4607 126.581 9.40874 121.811 11.7743C121.811 11.7743 118.427 13.2707 117.379 17.4373C117.379 17.4373 116.509 21.0843 117.379 23.7367C117.379 23.7367 118.356 28.1273 122.3 29.7044C122.3 29.7044 125.844 31.613 130.897 29.561C130.897 29.561 131.412 29.4265 131.403 28.8262V26.138C131.403 26.138 131.226 25.3047 130.444 25.5018C130.444 25.5018 130.205 25.5735 129.929 25.7706C129.929 25.7706 129.005 26.4517 127.895 26.6041C127.895 26.6041 125.586 27.0342 123.961 26.0664C123.961 26.0664 121.66 25.1972 121.163 21.3621C121.163 21.3621 120.985 19.767 121.163 19.104C121.163 19.104 121.678 15.3765 125.027 14.5969C125.027 14.5969 126.723 14.1398 128.801 14.6596C128.801 14.6596 129.849 15.0896 130.196 15.3853C130.187 15.3853 131.022 15.914 131.395 14.8925Z" fill="#00B7BD"/>
<path d="M140.401 10.7063C139.557 10.7063 138.625 10.8138 137.728 11.1722C137.728 11.1722 134.495 12.0862 132.994 17.3102C132.994 17.3102 132.186 19.9267 132.896 23.7887C132.896 23.7887 133.509 27.6865 137.221 29.8998C137.221 29.8998 139.868 31.5127 143.732 29.8998C143.732 29.8998 145.419 29.2367 146.485 27.4804V29.1022C146.485 29.1022 146.449 29.7205 147.08 29.8191H149.842C149.842 29.8191 150.473 29.7206 150.455 29.0396V11.9967C150.455 11.9967 150.455 11.4231 149.763 11.2618H147.08C147.08 11.2618 146.565 11.2887 146.45 11.9697V14.2995C146.45 14.2995 145.535 11.9698 143.27 11.1543C143.279 11.1543 142.009 10.7153 140.401 10.7063ZM141.627 14.4069C144.433 14.4069 146.707 17.2475 146.707 20.76C146.707 24.2636 144.433 27.1131 141.627 27.1131C138.82 27.1131 136.547 24.2725 136.547 20.76C136.547 17.2564 138.82 14.4069 141.627 14.4069Z" fill="#00B7BD"/>
<path d="M167.445 14.8821V12.1221C167.445 12.1221 167.49 11.7279 166.877 11.4501C166.877 11.4501 162.632 9.39814 157.862 11.7637C157.862 11.7637 154.478 13.2602 153.43 17.4269C153.43 17.4269 152.56 21.0737 153.43 23.7261C153.43 23.7261 154.407 28.1169 158.351 29.6939C158.351 29.6939 161.895 31.6024 166.948 29.5504C166.948 29.5504 167.463 29.4161 167.454 28.8157V26.1276C167.454 26.1276 167.277 25.2943 166.495 25.4914C166.495 25.4914 166.255 25.5631 165.98 25.7602C165.98 25.7602 165.056 26.4411 163.946 26.5934C163.946 26.5934 161.637 27.0236 160.012 26.0558C160.012 26.0558 157.711 25.1866 157.214 21.3515C157.214 21.3515 157.036 19.7566 157.214 19.1025C157.214 19.1025 157.729 15.375 161.077 14.5954C161.077 14.5954 162.774 14.1383 164.852 14.6581C164.852 14.6581 165.9 15.0881 166.246 15.3838C166.229 15.3749 167.072 15.8946 167.445 14.8821Z" fill="#DF2B3C"/>
<path fill-rule="evenodd" clip-rule="evenodd" d="M191.292 10.6165C185.918 10.6165 181.566 15.1147 181.566 20.6523C181.566 26.19 185.918 30.6882 191.292 30.6882C196.665 30.6882 201.017 26.19 201.017 20.6523C201.017 15.1147 196.665 10.6165 191.292 10.6165ZM191.292 14.38C194.338 14.38 196.808 17.1935 196.808 20.6613C196.808 24.129 194.338 26.9426 191.292 26.9426C188.245 26.9426 185.777 24.129 185.777 20.6613C185.777 17.1935 188.245 14.38 191.292 14.38Z" fill="#DF2B3C"/>
<path d="M170.181 12.7667V29.6662C170.181 29.6662 170.128 30.4995 171.016 30.5353H173.583C173.583 30.5353 174.214 30.5354 174.285 29.7917V21.2255C174.285 21.2255 174.223 16.6287 176.354 15.3652C176.354 15.3652 177.616 14.6662 179.649 15.3024C179.649 15.3024 180.324 15.5981 180.715 15.1591L181.666 12.8921C181.666 12.8921 181.879 12.0319 181.275 11.8795C181.275 11.8795 178.353 10.4816 176.026 12.3006C176.026 12.3006 174.862 13.134 174.329 14.8902V12.7397C174.329 12.7397 174.356 11.987 173.619 11.9781H170.892C170.883 11.987 170.324 11.9871 170.181 12.7667Z" fill="#DF2B3C"/>
<path d="M211.516 15.034C211.516 15.034 211.881 15.5269 212.618 15.1505L214.234 13.9139C214.234 13.9139 214.669 13.5198 214.332 12.9821C214.332 12.9821 213.088 10.9032 210.166 10.6613C210.166 10.6613 208.07 10.4821 206.889 10.8405C206.889 10.8405 203.114 11.5395 202.43 15.0431C202.43 15.0431 202.191 16.0556 202.493 17.4176C202.493 17.4176 202.865 19.6128 205.832 20.939C205.832 20.939 209.633 22.6863 209.829 22.7759C209.829 22.7759 211.978 23.6451 211.561 25.4193C211.561 25.4193 211.419 26.9427 209.713 27.2742C209.713 27.2742 206.613 28.0626 205.166 25.5537C205.166 25.5537 204.802 24.7562 204.091 24.9354L202.022 26.1093C202.022 26.1093 201.427 26.4856 201.809 27.1577C201.809 27.1577 202.661 28.7974 204.313 29.6755C204.313 29.6755 206.818 31.3512 211.241 30.2132C211.241 30.2132 214.305 29.2006 215.069 27.1666C215.069 27.1666 215.922 25.491 215.389 23.0806C215.389 23.0806 214.874 21.0108 212.431 19.7922C212.431 19.7922 209.056 18.2778 208.603 18.1434C208.603 18.1434 206.356 17.1846 206.392 15.9928C206.392 15.9928 206.019 14.6756 207.573 14.0394C207.573 14.0394 208.781 13.439 210.335 14.0394C210.326 14.0394 211.081 14.353 211.516 15.034Z" fill="#DF2B3C"/>
<path d="M226.508 15.2215C226.508 15.2215 226.873 15.7143 227.61 15.3379L229.226 14.1015C229.226 14.1015 229.661 13.7072 229.324 13.1695C229.324 13.1695 228.081 11.0907 225.158 10.8487C225.158 10.8487 223.063 10.6695 221.881 11.0279C221.881 11.0279 218.106 11.7269 217.422 15.2305C217.422 15.2305 217.183 16.243 217.485 17.605C217.485 17.605 217.858 19.8003 220.824 21.1264C220.824 21.1264 224.625 22.8737 224.821 22.9633C224.821 22.9633 226.97 23.8326 226.553 25.6158C226.553 25.6158 226.411 27.139 224.714 27.4706C224.714 27.4706 221.615 28.2592 220.167 25.7502C220.167 25.7502 219.803 24.9527 219.092 25.1319L217.023 26.3057C217.023 26.3057 216.428 26.682 216.81 27.354C216.81 27.354 217.662 28.9939 219.314 29.8721C219.314 29.8721 221.819 31.5477 226.242 30.4097C226.242 30.4097 229.306 29.3972 230.07 27.3631C230.07 27.3631 230.923 25.6873 230.39 23.277C230.39 23.277 229.875 21.2071 227.432 19.9885C227.432 19.9885 224.057 18.4741 223.604 18.3397C223.604 18.3397 221.357 17.3809 221.393 16.1892C221.393 16.1892 221.019 14.8721 222.574 14.2359C222.574 14.2359 223.782 13.6355 225.336 14.2359C225.327 14.2269 226.082 14.5405 226.508 15.2215Z" fill="#DF2B3C"/>
</svg>
