<svg width="166" height="24" viewBox="0 0 166 24" fill="none" xmlns="http://www.w3.org/2000/svg">
<path d="M35.993 11.3697C35.6219 10.3402 33.3028 9.82544 33.3028 9.82544C32.8853 9.45107 33.3492 9.02991 33.3492 9.02991C33.5347 8.74914 33.9058 8.32798 33.9058 8.32798C33.3028 8.60876 32.607 8.56196 32.607 8.56196C32.4215 8.42157 32.6998 8.37478 32.6998 8.37478C34.3696 7.62605 34.1377 5.70744 34.1377 5.70744C33.5811 6.17539 32.6534 6.03501 32.6534 6.03501C32.004 5.94142 32.004 5.37987 32.004 5.37987C32.0968 4.72474 32.9781 4.49076 32.9781 4.49076C32.004 3.13369 29.1283 3.55485 29.1283 3.55485C29.7312 1.54265 28.8036 0.32597 28.8036 0.32597C25.6031 3.46126 20.0835 3.69524 20.0835 3.69524C19.9443 3.69524 19.6196 3.41447 19.6196 3.41447C19.063 2.80613 19.3877 1.54265 19.3877 1.54265C18.9239 1.82342 18.5064 2.99331 18.5064 2.99331C18.2281 3.36767 18.1354 2.80613 18.1354 2.80613C17.9498 1.35547 17.0222 0.747129 17.0222 0.747129C17.2541 1.54265 16.883 2.80613 16.883 2.80613C16.6975 3.18049 16.4655 3.0401 16.4655 3.0401C15.8162 2.71254 16.0017 1.77663 16.0017 1.77663C14.7957 2.43176 14.7957 3.55485 14.7957 3.55485C10.0646 3.27408 7.09608 0.279175 7.09608 0.279175C6.44671 1.77663 6.86416 3.22728 6.86416 3.22728C6.07564 2.66574 5.00882 2.80613 5.00882 2.80613C5.93649 3.69524 4.86967 3.88242 4.86967 3.88242C2.82879 3.78883 2.31857 4.81833 2.31857 4.81833C2.68964 4.95871 3.01433 5.47346 3.01433 5.47346C3.33901 6.31578 2.82879 6.54976 2.82879 6.54976C2.08665 6.92412 1.29813 5.70744 1.29813 5.70744C1.15898 8.23439 2.78241 8.60876 2.78241 8.60876C2.50411 8.93632 1.20537 8.74914 1.20537 8.74914C2.36496 9.31069 2.27219 9.82544 2.27219 9.82544C2.13304 10.3402 1.29813 10.2934 1.29813 10.2934C0.648765 10.387 0.18493 10.8081 0.18493 10.8081C1.71559 11.2761 1.6692 12.3992 1.6692 12.3992C0.8343 13.1947 0.0921631 12.2588 0.0921631 12.2588C0.416848 14.1774 2.08665 14.3646 2.08665 14.3646C2.55049 14.6454 2.22581 14.8325 2.22581 14.8325C2.04027 15.0665 1.3909 15.7217 1.3909 15.7217C0.97345 16.096 0.97345 17.1255 0.97345 17.1255C1.29813 16.7512 2.50411 16.4704 2.50411 16.4704C3.6637 16.4236 3.38539 17.4531 3.38539 17.4531C3.38539 17.921 2.45772 18.8569 2.45772 18.8569C3.10709 19.2313 4.68413 19.2313 4.68413 19.2313C5.47265 19.2313 5.42627 19.5589 5.42627 19.5589C5.47265 20.2608 4.73052 21.1499 4.73052 21.1499C5.24074 20.682 6.95693 20.3076 6.95693 20.3076C7.83821 20.214 7.55991 20.682 7.60629 20.682C7.42076 21.8051 7.83821 22.7878 7.8846 22.9281C8.25566 21.7583 9.09057 21.3371 9.18333 21.2903C9.8327 21.0563 9.73994 21.6179 9.73994 21.7115C9.92547 21.8519 10.8068 22.4134 12.1519 22.039C12.894 21.8519 13.7753 21.5243 14.5638 20.9159C14.9813 20.6352 15.4915 20.1672 16.0017 19.4653C16.2336 19.1377 16.5119 18.7634 16.7438 18.2954H16.7902C17.2541 17.4999 17.6251 16.5172 17.9034 15.3005C17.9034 15.3005 18.1817 16.7512 18.8775 18.2954H19.063C19.063 18.2954 20.1762 20.448 21.7533 21.3839C23.5158 22.4602 24.258 22.7878 25.7886 22.6006C26.0206 22.5538 26.1597 22.5538 26.2061 22.507C26.1597 22.4602 26.1597 22.4134 26.1133 22.3666C26.5772 21.6647 26.9946 21.9922 26.9946 21.9922C27.2265 22.1794 27.1801 22.5538 27.1801 22.5538C28.2933 22.0858 28.4789 20.682 28.4789 20.682C28.8036 20.0736 29.2674 20.448 29.2674 20.448C29.7776 20.682 29.9632 21.4775 29.9632 21.4775C30.3806 20.4012 30.1023 19.3249 30.1023 19.3249C30.0095 18.9037 30.2878 19.0441 30.2878 19.0441C32.2823 19.4653 32.8389 18.9505 32.8389 18.9505C32.1432 18.623 32.0504 17.5935 32.0504 17.5935C32.0968 16.798 32.8389 16.9851 32.8389 16.9851C33.5811 17.1255 33.9985 17.6403 33.9985 17.6403C34.1377 16.3768 33.1172 15.3473 33.1172 15.3473C32.9781 14.9261 33.2564 14.739 33.2564 14.739C35.1581 14.037 35.1581 12.9607 35.1581 12.9607C34.0449 13.1947 33.813 12.2588 33.813 12.2588C34.4624 10.9017 35.993 11.3697 35.993 11.3697Z" fill="#225054"/>
<path d="M17.9962 13.3804C16.9294 13.7547 15.8625 15.8137 15.8625 15.8137C16.0017 17.7791 17.9498 19.5574 17.9962 19.6042C18.0426 19.5574 19.8979 17.7791 20.0371 15.8137C20.0371 15.8137 19.0166 13.7547 17.9962 13.3804Z" fill="#0A5B59"/>
<path d="M15.9097 16.2355C15.9097 16.2355 16.9301 14.3637 17.9505 14.0361V19.6516C17.9969 19.6516 16.0488 18.0605 15.9097 16.2355Z" fill="#FAB84A"/>
<path d="M19.9438 16.2355C19.9438 16.2355 18.9698 14.3637 17.9493 14.0361V19.6516C17.9493 19.6516 19.8047 18.0137 19.9438 16.2355Z" fill="#E9934C"/>
<path d="M9.8803 18.5759C13.3642 18.5759 16.1885 15.7265 16.1885 12.2117C16.1885 8.69687 13.3642 5.84753 9.8803 5.84753C6.3964 5.84753 3.57214 8.69687 3.57214 12.2117C3.57214 15.7265 6.3964 18.5759 9.8803 18.5759Z" fill="#0A5B59"/>
<path d="M10.2503 18.6213C13.4012 18.6213 15.9555 15.8976 15.9555 12.5379C15.9555 9.1781 13.4012 6.45447 10.2503 6.45447C7.09946 6.45447 4.54517 9.1781 4.54517 12.5379C4.54517 15.8976 7.09946 18.6213 10.2503 18.6213Z" fill="white"/>
<path d="M26.1143 18.5759C29.5982 18.5759 32.4225 15.7265 32.4225 12.2117C32.4225 8.69687 29.5982 5.84753 26.1143 5.84753C22.6304 5.84753 19.8062 8.69687 19.8062 12.2117C19.8062 15.7265 22.6304 18.5759 26.1143 18.5759Z" fill="#0A5B59"/>
<path d="M25.6961 18.6213C28.847 18.6213 31.4013 15.8976 31.4013 12.5379C31.4013 9.1781 28.847 6.45447 25.6961 6.45447C22.5453 6.45447 19.991 9.1781 19.991 12.5379C19.991 15.8976 22.5453 18.6213 25.6961 18.6213Z" fill="white"/>
<path d="M11.5491 16.3298C13.3935 16.3298 14.8887 14.8214 14.8887 12.9606C14.8887 11.0998 13.3935 9.59131 11.5491 9.59131C9.70467 9.59131 8.20947 11.0998 8.20947 12.9606C8.20947 14.8214 9.70467 16.3298 11.5491 16.3298Z" fill="#FAB84A"/>
<path d="M11.5491 15.4405C12.9325 15.4405 14.0539 14.3091 14.0539 12.9135C14.0539 11.518 12.9325 10.3866 11.5491 10.3866C10.1658 10.3866 9.04443 11.518 9.04443 12.9135C9.04443 14.3091 10.1658 15.4405 11.5491 15.4405Z" fill="#201E1E"/>
<path d="M10.1574 12.1174C10.5929 12.1174 10.9459 11.7612 10.9459 11.3219C10.9459 10.8825 10.5929 10.5264 10.1574 10.5264C9.72193 10.5264 9.3689 10.8825 9.3689 11.3219C9.3689 11.7612 9.72193 12.1174 10.1574 12.1174Z" fill="#FEFEFE"/>
<path d="M24.5823 16.3298C26.4267 16.3298 27.9219 14.8214 27.9219 12.9606C27.9219 11.0998 26.4267 9.59131 24.5823 9.59131C22.7379 9.59131 21.2427 11.0998 21.2427 12.9606C21.2427 14.8214 22.7379 16.3298 24.5823 16.3298Z" fill="#FAB84A"/>
<path d="M24.63 15.4858C26.0133 15.4858 27.1347 14.3544 27.1347 12.9588C27.1347 11.5632 26.0133 10.4319 24.63 10.4319C23.2466 10.4319 22.1252 11.5632 22.1252 12.9588C22.1252 14.3544 23.2466 15.4858 24.63 15.4858Z" fill="#201E1E"/>
<path d="M23.238 12.1174C23.6735 12.1174 24.0265 11.7612 24.0265 11.3219C24.0265 10.8825 23.6735 10.5264 23.238 10.5264C22.8025 10.5264 22.4495 10.8825 22.4495 11.3219C22.4495 11.7612 22.8025 12.1174 23.238 12.1174Z" fill="#FEFEFE"/>
<path d="M12.4308 21.9454C12.4308 21.9454 11.1784 22.4134 9.69416 21.6179C9.69416 21.6179 8.58095 21.1499 7.93158 23.1153C7.8852 23.1153 7.14306 22.4602 7.42137 20.8691C7.42137 20.8691 7.6069 20.448 6.772 20.5416C6.772 20.5416 4.7775 21.1967 4.4992 21.5711C4.4992 21.5711 5.24134 20.448 5.19496 19.6993C5.19496 19.6993 5.19496 19.4185 4.45282 19.4653C4.45282 19.4653 2.87578 19.4653 2.22641 18.9973C2.31918 18.9973 3.15408 18.2486 3.24685 17.5935C3.24685 17.5935 3.43238 16.6108 2.55109 16.6576C2.55109 16.6576 1.48427 16.6576 0.834904 17.3127C0.834904 17.3127 0.602986 16.0024 2.04088 14.9261C2.04088 14.9261 2.36556 14.7389 1.99449 14.5518C1.99449 14.5518 0.371068 14.037 0 12.1184C0 12.1184 0.649369 12.9607 1.29874 12.6332C1.29874 12.6332 1.43789 12.5864 1.48427 12.3992C1.48427 12.3992 1.43789 11.2761 0 10.8081C0 10.8081 0.463835 10.2934 1.53066 10.1998C1.53066 10.1998 2.27279 9.96582 1.90172 9.45107C1.90172 9.45107 1.39151 8.88953 1.06682 8.70234C1.06682 8.70234 2.22641 8.74914 2.59748 8.51516C2.55109 8.51516 0.974054 8.32798 1.25236 5.61385C1.25236 5.61385 2.41194 7.29848 2.92216 6.1286C2.87578 6.03501 3.1077 5.33308 2.08726 4.77153C2.08726 4.77153 2.73663 3.74203 4.68474 3.69524C4.68474 3.69524 5.61241 3.46126 4.82389 2.66574C4.82389 2.66574 6.12263 2.43176 6.67923 2.99331C6.67923 2.94651 6.44731 1.82342 7.0503 0.279175C7.0503 0.279175 6.86476 3.0869 7.28222 4.16319C7.23583 4.1164 6.58646 3.22728 5.75156 2.89972C5.75156 2.89972 6.16901 4.35037 4.68474 4.39717C4.68474 4.39717 3.47877 4.16319 2.92216 4.63115C2.92216 4.63115 3.80345 6.26898 3.1077 6.97091C3.1077 6.97091 2.45833 7.53246 1.66981 6.73694C1.66981 6.73694 1.57704 8.04721 3.29323 8.42157C3.29323 8.42157 3.01493 9.1235 2.13364 9.1235C2.13364 9.1235 2.87578 9.82543 2.31918 10.387C2.31918 10.387 1.76257 10.8549 1.06682 10.8549C1.06682 10.8549 2.27279 11.5569 2.13364 12.68C2.13364 12.68 1.76257 13.5691 0.742137 13.2415C0.742137 13.2415 1.39151 13.803 2.45833 14.1774C2.45833 14.1774 3.1077 14.5986 2.8294 15.0665C2.8294 15.0665 1.80896 15.4409 1.53066 16.4704C1.53066 16.4704 3.01493 15.7217 3.71068 16.2832C3.71068 16.2832 4.17452 17.6403 3.06131 18.7634C3.06131 18.7634 5.24134 19.1377 6.12263 18.9973C6.12263 18.9973 5.84433 20.214 5.61241 20.5416C5.75156 20.4948 7.37498 19.7929 8.39542 20.0268C8.39542 20.0268 7.65328 21.4775 7.74605 21.9922C7.74605 21.9922 9.04479 20.6352 10.1116 20.8223C10.158 20.7756 9.78693 21.6179 12.4308 21.9454Z" fill="#163C3F"/>
<path d="M23.424 22.1794C23.424 22.1794 24.3516 22.9749 26.3461 22.507C26.3461 22.507 26.6244 22.4134 26.8099 22.273C26.8099 22.273 27.181 21.9454 27.181 22.6006C27.181 22.6006 28.5261 22.3198 28.7117 20.8691C28.7117 20.8691 28.8044 20.3076 29.4074 20.7288C29.4074 20.7288 29.7321 21.0095 29.9176 21.7583C29.9176 21.7583 30.6598 20.5416 30.2887 19.3717C30.2887 19.3717 30.2887 19.1377 30.5206 19.1845C30.5206 19.1845 32.2368 19.6993 33.0253 18.9973C33.0253 18.9973 32.0977 18.4826 32.3296 17.2659C32.3296 17.2659 32.5151 16.8915 33.2109 17.1255C33.2109 17.1255 33.953 17.4063 34.0458 17.7807C34.0458 17.7807 34.3241 16.3768 33.2573 15.3473C33.2573 15.3473 32.979 15.0197 33.4428 14.7857C33.4428 14.7857 35.0198 14.1306 35.2518 12.9139C35.2518 12.9139 34.2777 13.3351 33.9066 12.3056C33.9066 12.3056 34.4168 10.9953 35.9939 11.4165C35.9939 11.4165 35.5301 10.2466 33.35 9.82543C33.35 9.82543 32.9326 9.68505 33.35 9.07671L34.0458 8.1876C34.0458 8.1876 33.0717 8.70234 32.6079 8.46837C32.6079 8.46837 32.4687 8.42157 32.7007 8.32798C32.7007 8.32798 34.2777 7.62605 34.0922 5.52026C34.0922 5.52026 32.7007 6.54976 32.0513 5.56705C32.0513 5.56705 31.8194 4.95871 33.1181 4.39717C33.1181 4.39717 32.5151 3.0869 29.2219 3.46126C29.2219 3.46126 29.7785 1.63624 28.7117 0.279175C28.7117 0.279175 29.593 3.18049 28.4798 4.20999C28.4798 4.20999 30.567 3.32087 32.6079 4.30358C32.6079 4.30358 31.3555 4.30358 31.773 5.89462C31.773 5.89462 32.2368 6.64335 33.7211 6.31578C33.7211 6.31578 32.9326 7.90682 32.0049 8.46837C32.0049 8.46837 32.7007 8.88953 33.1645 8.84273C33.1181 8.93632 32.5615 9.82543 32.376 9.91903C32.376 9.91903 33.8139 10.1062 34.7879 10.9017C34.7879 10.9017 33.8602 11.1357 33.4428 12.3992C33.4428 12.3992 33.953 13.3351 34.4632 13.4755C34.4632 13.4287 33.3964 14.505 32.5151 14.7857C32.5615 14.8793 33.5356 16.4704 33.7211 17.0787C33.7211 17.0787 32.9326 16.3768 31.9585 16.9383C31.9585 16.9383 31.5875 18.0614 32.0513 18.9037C32.0513 18.9037 30.7989 19.0441 29.8713 18.6698C29.8713 18.6698 29.964 20.3544 29.8249 20.7756C29.8249 20.7756 29.0364 20.0736 28.2942 20.1672C28.2942 20.1672 28.1551 21.6647 27.5985 21.8519C27.5985 21.8519 27.2738 21.4307 26.8563 21.2903C27.0883 21.2903 25.6504 22.741 23.424 22.1794Z" fill="#163C3F"/>
<path d="M48.2733 6.03816C47.5063 6.03176 46.6821 6.12125 45.9595 6.40266C45.9595 6.40266 42.2509 7.84811 41.9149 11.9285C41.9149 11.9285 41.4584 15.3054 42.9735 17.4991C42.9735 17.4991 44.14 19.4755 46.6251 20.0447C46.6251 20.0447 51.7282 21.522 54.4034 16.8596C54.4034 16.8596 54.6318 16.4438 54.3465 16.1048L52.7743 15.1391C52.7743 15.1391 52.3369 14.9473 52.0009 15.4398C52.0009 15.4398 51.2846 16.7892 50.0674 17.205C50.0674 17.205 48.362 17.8317 46.9547 17.205C46.9547 17.205 45.0654 16.5782 44.7929 13.5019H54.3148C54.3148 13.5019 54.7838 13.5403 54.8598 12.9838C54.8598 12.9838 55.1833 7.87364 51.0183 6.40903C50.9993 6.40264 49.7377 6.04455 48.2733 6.03816ZM48.4888 8.61554C49.6045 8.60275 50.321 8.99291 50.321 8.99291C51.9122 9.75399 51.8741 11.5065 51.8741 11.5065H44.9578C45.4966 9.47263 46.6125 9.01214 46.6125 9.01214C47.3034 8.72434 47.9436 8.62193 48.4888 8.61554Z" fill="#0C5257"/>
<path d="M66.7076 0C66.7076 0 66.3398 0.019212 66.2574 0.505283V8.60217C66.2574 8.60217 65.6046 6.93932 63.9817 6.35732C63.9817 6.35732 61.8834 5.63456 60.0196 6.37006C60.0196 6.37006 57.7056 7.02242 56.6342 10.7511C56.6342 10.7511 56.0575 12.6187 56.5646 15.3752C56.5646 15.3752 57.002 18.1573 59.6519 19.737C59.6519 19.737 61.5409 20.8882 64.3049 19.737C64.3049 19.737 65.5093 19.2637 66.2701 18.0102V19.1678C66.2701 19.1678 66.2447 19.6091 66.6948 19.6794H68.6664C68.6664 19.6794 69.1164 19.6091 69.1037 19.123V0.524395C69.1037 0.524395 69.1039 0.115122 68.6094 0H66.7076ZM62.8151 8.67887C64.8183 8.67887 66.4412 10.7063 66.4412 13.2134C66.4412 15.7205 64.8183 17.748 62.8151 17.748C60.8119 17.748 59.189 15.7205 59.189 13.2134C59.189 10.7063 60.8119 8.67887 62.8151 8.67887Z" fill="#0C5257"/>
<path d="M71.7679 6.47844H73.5875C73.5875 6.47844 74.0502 6.4209 74.1073 7.0157L74.1264 14.7289C74.1264 14.7289 74.1642 16.9226 76.0027 17.4023C76.0027 17.4023 77.3973 17.7541 78.6144 17.4023C78.6144 17.4023 80.4974 16.9802 80.5101 14.7097V7.02857C80.5101 7.02857 80.453 6.49763 80.9855 6.47844H82.8301C82.8301 6.47844 83.3753 6.4273 83.4007 6.95174V13.84C83.4007 13.84 83.4135 18.0035 80.9412 19.3913C80.9412 19.3913 77.67 21.3036 73.6445 19.3913C73.6445 19.3913 71.6284 18.5663 71.2925 14.4667V6.96461C71.2861 6.96461 71.2925 6.49763 71.7679 6.47844Z" fill="#0C5257"/>
<path d="M95.2172 9.0636V7.09381C95.2172 7.09381 95.2488 6.8124 94.8113 6.61414C94.8113 6.61414 91.7811 5.14953 88.3769 6.83798C88.3769 6.83798 85.9617 7.90601 85.2136 10.88C85.2136 10.88 84.5924 13.4831 85.2136 15.3762C85.2136 15.3762 85.9108 18.5101 88.7255 19.6357C88.7255 19.6357 91.255 20.998 94.8621 19.5334C94.8621 19.5334 95.2297 19.4374 95.2234 19.0089V17.0902C95.2234 17.0902 95.0968 16.4954 94.5389 16.6361C94.5389 16.6361 94.3677 16.6873 94.1712 16.828C94.1712 16.828 93.5118 17.3141 92.7193 17.4228C92.7193 17.4228 91.0713 17.7298 89.9112 17.0391C89.9112 17.0391 88.2693 16.4187 87.9143 13.6813C87.9143 13.6813 87.7875 12.5428 87.9143 12.0696C87.9143 12.0696 88.282 9.40904 90.6719 8.85262C90.6719 8.85262 91.8827 8.52639 93.3662 8.89734C93.3662 8.89734 94.1142 9.20431 94.3614 9.41536C94.3551 9.41536 94.951 9.79271 95.2172 9.0636Z" fill="#0C5257"/>
<path d="M101.645 6.07568C101.043 6.07568 100.377 6.15238 99.737 6.40821C99.737 6.40821 97.4294 7.06057 96.358 10.7892C96.358 10.7892 95.7811 12.6568 96.2882 15.4134C96.2882 15.4134 96.7256 18.1954 99.3754 19.7752C99.3754 19.7752 101.265 20.9264 104.022 19.7752C104.022 19.7752 105.227 19.3019 105.987 18.0483V19.2059C105.987 19.2059 105.962 19.6472 106.412 19.7176H108.384C108.384 19.7176 108.834 19.6473 108.821 19.1612V6.99668C108.821 6.99668 108.821 6.58729 108.327 6.47216H106.412C106.412 6.47216 106.045 6.49138 105.962 6.97745V8.64032C105.962 8.64032 105.309 6.97747 103.693 6.39547C103.699 6.39547 102.792 6.08208 101.645 6.07568ZM102.52 8.71702C104.523 8.71702 106.146 10.7445 106.146 13.2516C106.146 15.7523 104.523 17.7861 102.52 17.7861C100.517 17.7861 98.8938 15.7587 98.8938 13.2516C98.8938 10.7509 100.517 8.71702 102.52 8.71702Z" fill="#0C5257"/>
<path d="M120.948 9.05604V7.08612C120.948 7.08612 120.98 6.80471 120.543 6.60645C120.543 6.60645 117.513 5.14184 114.108 6.83029C114.108 6.83029 111.693 7.89845 110.945 10.8724C110.945 10.8724 110.324 13.4754 110.945 15.3685C110.945 15.3685 111.642 18.5025 114.457 19.6281C114.457 19.6281 116.986 20.9903 120.594 19.5257C120.594 19.5257 120.961 19.4298 120.955 19.0013V17.0826C120.955 17.0826 120.828 16.4878 120.27 16.6285C120.27 16.6285 120.099 16.6797 119.902 16.8204C119.902 16.8204 119.243 17.3064 118.451 17.4151C118.451 17.4151 116.802 17.7221 115.642 17.0314C115.642 17.0314 114 16.411 113.645 13.6737C113.645 13.6737 113.519 12.5353 113.645 12.0684C113.645 12.0684 114.013 9.40785 116.403 8.85142C116.403 8.85142 117.614 8.5252 119.097 8.89614C119.097 8.89614 119.845 9.20311 120.093 9.41417C120.08 9.40777 120.682 9.77875 120.948 9.05604Z" fill="#DF2B3C"/>
<path fill-rule="evenodd" clip-rule="evenodd" d="M137.969 6.0116C134.134 6.0116 131.027 9.22222 131.027 13.1747C131.027 17.1273 134.134 20.3379 137.969 20.3379C141.804 20.3379 144.911 17.1273 144.911 13.1747C144.911 9.22222 141.804 6.0116 137.969 6.0116ZM137.969 8.69778C140.143 8.69778 141.906 10.706 141.906 13.1811C141.906 15.6562 140.143 17.6645 137.969 17.6645C135.795 17.6645 134.032 15.6562 134.032 13.1811C134.032 10.706 135.795 8.69778 137.969 8.69778Z" fill="#DF2B3C"/>
<path d="M122.901 7.54629V19.6085C122.901 19.6085 122.863 20.2032 123.497 20.2288H125.329C125.329 20.2288 125.779 20.2289 125.83 19.6981V13.5838C125.83 13.5838 125.785 10.3028 127.307 9.40104C127.307 9.40104 128.207 8.9021 129.659 9.35619C129.659 9.35619 130.141 9.56727 130.42 9.25389L131.098 7.63586C131.098 7.63586 131.25 7.02182 130.819 6.9131C130.819 6.9131 128.733 5.91532 127.072 7.21364C127.072 7.21364 126.242 7.80846 125.862 9.06202V7.52706C125.862 7.52706 125.881 6.98982 125.354 6.98342H123.408C123.402 6.98982 123.003 6.98987 122.901 7.54629Z" fill="#DF2B3C"/>
<path d="M152.404 9.16459C152.404 9.16459 152.664 9.5164 153.19 9.24778L154.344 8.36513C154.344 8.36513 154.655 8.08382 154.414 7.70008C154.414 7.70008 153.526 6.21626 151.441 6.04358C151.441 6.04358 149.945 5.91566 149.102 6.17149C149.102 6.17149 146.407 6.67038 145.919 9.17108C145.919 9.17108 145.748 9.89379 145.964 10.8659C145.964 10.8659 146.23 12.4328 148.347 13.3794C148.347 13.3794 151.06 14.6265 151.2 14.6905C151.2 14.6905 152.734 15.3108 152.436 16.5772C152.436 16.5772 152.335 17.6645 151.117 17.9012C151.117 17.9012 148.905 18.4639 147.872 16.6731C147.872 16.6731 147.612 16.1039 147.105 16.2318L145.628 17.0697C145.628 17.0697 145.203 17.3383 145.475 17.818C145.475 17.818 146.084 18.9884 147.263 19.6151C147.263 19.6151 149.051 20.8111 152.208 19.9989C152.208 19.9989 154.395 19.2762 154.94 17.8243C154.94 17.8243 155.549 16.6284 155.168 14.9079C155.168 14.9079 154.801 13.4306 153.057 12.5608C153.057 12.5608 150.648 11.4799 150.325 11.384C150.325 11.384 148.721 10.6996 148.746 9.849C148.746 9.849 148.48 8.90878 149.59 8.45469C149.59 8.45469 150.452 8.02618 151.561 8.45469C151.555 8.45469 152.094 8.67851 152.404 9.16459Z" fill="#DF2B3C"/>
<path d="M163.105 9.29862C163.105 9.29862 163.365 9.65031 163.891 9.38169L165.045 8.49916C165.045 8.49916 165.355 8.21773 165.114 7.83399C165.114 7.83399 164.227 6.35017 162.141 6.17749C162.141 6.17749 160.645 6.04957 159.802 6.3054C159.802 6.3054 157.108 6.80429 156.62 9.30499C156.62 9.30499 156.449 10.0277 156.664 10.9998C156.664 10.9998 156.93 12.5667 159.048 13.5133C159.048 13.5133 161.761 14.7604 161.9 14.8244C161.9 14.8244 163.434 15.4449 163.136 16.7176C163.136 16.7176 163.035 17.8048 161.824 18.0414C161.824 18.0414 159.612 18.6043 158.579 16.8135C158.579 16.8135 158.319 16.2443 157.811 16.3722L156.334 17.21C156.334 17.21 155.91 17.4786 156.182 17.9583C156.182 17.9583 156.791 19.1288 157.97 19.7555C157.97 19.7555 159.758 20.9515 162.915 20.1393C162.915 20.1393 165.102 19.4166 165.647 17.9648C165.647 17.9648 166.255 16.7687 165.875 15.0482C165.875 15.0482 165.508 13.5709 163.764 12.7011C163.764 12.7011 161.355 11.6202 161.032 11.5242C161.032 11.5242 159.428 10.8399 159.453 9.98928C159.453 9.98928 159.187 9.04919 160.296 8.5951C160.296 8.5951 161.159 8.16659 162.268 8.5951C162.262 8.5887 162.8 8.81255 163.105 9.29862Z" fill="#DF2B3C"/>
</svg>
