<svg width="96" height="163" viewBox="0 0 96 163" fill="none" xmlns="http://www.w3.org/2000/svg">
<path d="M48.0316 -1.90441C47.1853 -1.91152 46.3607 -1.63739 45.687 -1.12502C45.0134 -0.612651 44.5289 0.108868 44.3098 0.926364L40.1169 16.5796C33.3534 11.4148 26.8288 8.91722 21.6841 7.97871C15.3269 6.81902 10.7093 7.83543 10.7093 7.83533C9.90279 8.02141 9.17858 8.46439 8.64559 9.0976C8.11261 9.73082 7.7998 10.52 7.75406 11.3464C7.70832 12.1728 7.93201 12.9916 8.39186 13.6798C8.8517 14.368 9.52268 14.8882 10.3037 15.1621C19.1871 18.2791 23.383 23.4391 25.5411 27.2185C10.8479 27.853 2.03261 31.9952 2.03261 31.9952C1.30233 32.3818 0.717148 32.9949 0.364769 33.7423C0.0123903 34.4897 -0.0881383 35.3312 0.0782612 36.1406C0.244661 36.95 0.668882 37.6835 1.28753 38.2313C1.90619 38.7791 2.68587 39.1115 3.50944 39.1786C8.89597 39.6184 13.6252 40.9588 17.5998 42.3453C14.4767 43.541 11.8956 44.8536 9.84898 46.0856C5.79603 48.5251 3.59752 50.854 3.59752 50.854C3.06139 51.4347 2.71863 52.1674 2.61638 52.9511C2.51412 53.7348 2.65737 54.5309 3.02655 55.2297C3.39574 55.9286 3.97249 56.4957 4.67749 56.8529C5.3825 57.2101 6.18106 57.3399 6.9629 57.2243C16.6783 55.7891 22.212 57.0789 25.7459 58.9182C12.0635 63.8855 2.55493 78.292 2.55493 94.7945V124.45C2.55493 144.862 17.0969 162.264 36.0531 162.264H59.9487C78.905 162.264 93.4489 144.862 93.4489 124.45V94.7945C93.4489 78.2922 83.9381 63.8878 70.2558 58.9203C73.791 57.0808 79.3259 55.7891 89.0409 57.2243C89.8227 57.3399 90.6213 57.2101 91.3263 56.8529C92.0313 56.4957 92.6081 55.9286 92.9772 55.2297C93.3464 54.5309 93.4897 53.7348 93.3874 52.9511C93.2852 52.1674 92.9424 51.4347 92.4063 50.854C92.4063 50.854 90.2061 48.525 86.1528 46.0856C84.1058 44.8537 81.5252 43.541 78.4019 42.3453C82.3764 40.9588 87.1059 39.6184 92.4923 39.1786C93.3157 39.1111 94.0951 38.7784 94.7134 38.2305C95.3318 37.6826 95.7558 36.949 95.922 36.1397C96.0881 35.3304 95.9874 34.489 95.6349 33.7418C95.2825 32.9945 94.6973 32.3817 93.9671 31.9952C93.9671 31.9952 85.1534 27.8531 70.4606 27.2185C72.6193 23.439 76.8147 18.279 85.698 15.1621C86.4791 14.8882 87.15 14.368 87.6099 13.6798C88.0697 12.9916 88.2937 12.1728 88.2479 11.3464C88.2022 10.52 87.8891 9.73082 87.3562 9.0976C86.8232 8.46439 86.099 8.02141 85.2925 7.83533C85.2925 7.83533 80.6748 6.81902 74.3176 7.97871C69.1727 8.91722 62.6487 11.4163 55.8848 16.5816L51.6878 0.924316C51.4712 0.118064 50.9965 -0.595091 50.3362 -1.10595C49.6759 -1.6168 48.8664 -1.8972 48.0316 -1.90441Z" fill="white"/>
<path d="M36.0544 60.7971C19.456 60.7971 6.37479 76.1707 6.37479 94.7943V124.449C6.37479 143.073 19.4563 158.444 36.0544 158.444H59.949C76.5474 158.444 89.6286 143.073 89.6286 124.449V94.7943C89.6286 76.1707 76.5476 60.7971 59.949 60.7971H36.0544Z" fill="#333333"/>
<path d="M36.052 66.0032C22.6885 66.0032 11.5805 78.5836 11.5806 94.7943V124.447C11.5806 140.658 22.6885 153.238 36.052 153.238H59.9489C73.3124 153.238 84.4225 140.658 84.4225 124.447V94.7943C84.4225 78.5838 73.3124 66.0032 59.9489 66.0032H36.052Z" fill="#FFDD55"/>
<path fill-rule="evenodd" clip-rule="evenodd" d="M47.9999 1.91357L42.2667 23.3205C26.4873 8.11503 11.5681 11.5563 11.5681 11.5563C27.9214 17.2941 31.3623 30.7796 31.3623 30.7796C13.5746 30.2058 3.82034 35.3702 3.82034 35.3702C17.8784 36.5178 29.0685 43.1177 29.0685 43.1177C13.2891 45.9867 6.40303 53.4448 6.40303 53.4448C31.6503 49.7152 35.379 63.7717 35.379 63.7717L47.9999 64.6348L60.6205 63.7717C60.6205 63.7717 64.3525 49.7152 89.5995 53.4448C89.5995 53.4448 82.7135 45.9867 66.934 43.1177C66.934 43.1177 78.124 36.5178 92.182 35.3702C92.182 35.3702 82.4249 30.2058 64.6372 30.7796C64.6372 30.7796 68.0811 17.2941 84.4344 11.5563C84.4344 11.5563 69.5153 8.11503 53.7359 23.3205L47.9999 1.91357Z" fill="#333333"/>
<path fill-rule="evenodd" clip-rule="evenodd" d="M22.5021 119.556L57.8086 146.335L22.5021 119.556Z" fill="#333333"/>
<path d="M22.5021 119.556L57.8086 146.335" stroke="#333333" stroke-width="4.1634" stroke-linecap="round"/>
<path fill-rule="evenodd" clip-rule="evenodd" d="M21.3933 98.6621L72.7329 137.551L21.3933 98.6621Z" fill="#333333"/>
<path d="M21.3933 98.6621L72.7329 137.551" stroke="#333333" stroke-width="4.1634" stroke-linecap="round"/>
<path fill-rule="evenodd" clip-rule="evenodd" d="M23.2702 80.8384L74.6098 119.727L23.2702 80.8384Z" fill="#333333"/>
<path d="M23.2702 80.8384L74.6098 119.727" stroke="#333333" stroke-width="4.1634" stroke-linecap="round"/>
<path fill-rule="evenodd" clip-rule="evenodd" d="M38.1086 72.907L73.4151 99.6856L38.1086 72.907Z" fill="#333333"/>
<path d="M38.1086 72.907L73.4151 99.6856" stroke="#333333" stroke-width="4.1634" stroke-linecap="round"/>
<path fill-rule="evenodd" clip-rule="evenodd" d="M73.5004 119.556L38.1939 146.335L73.5004 119.556Z" fill="#333333"/>
<path d="M73.5004 119.556L38.1939 146.335" stroke="#333333" stroke-width="4.1634" stroke-linecap="round"/>
<path fill-rule="evenodd" clip-rule="evenodd" d="M74.6092 98.6621L23.2697 137.551L74.6092 98.6621Z" fill="#333333"/>
<path d="M74.6092 98.6621L23.2697 137.551" stroke="#333333" stroke-width="4.1634" stroke-linecap="round"/>
<path fill-rule="evenodd" clip-rule="evenodd" d="M72.7333 80.8384L21.3938 119.727L72.7333 80.8384Z" fill="#333333"/>
<path d="M72.7333 80.8384L21.3938 119.727" stroke="#333333" stroke-width="4.1634" stroke-linecap="round"/>
<path fill-rule="evenodd" clip-rule="evenodd" d="M57.8938 72.907L22.5873 99.6856L57.8938 72.907Z" fill="#333333"/>
<path d="M57.8938 72.907L22.5873 99.6856" stroke="#333333" stroke-width="4.1634" stroke-linecap="round"/>
</svg>
