<svg width="102" height="152" viewBox="0 0 102 152" fill="none" xmlns="http://www.w3.org/2000/svg">
<path fill-rule="evenodd" clip-rule="evenodd" d="M56.6188 1.19134e-05C52.7638 0.0157044 47.9797 1.21878 42.7981 4.70906V4.70454C42.7981 4.70454 26.1633 13.5102 27.3115 29.2021C27.3115 29.2051 27.3115 29.2081 27.3115 29.2111C27.3115 29.2111 27.3564 29.5227 27.3575 29.5438C27.3611 29.5643 27.3648 29.5848 27.3687 29.6052C27.3956 30.0125 27.6202 32.8635 28.7567 36.9457C26.34 37.1979 22.4156 37.7891 17.3398 40.0697C10.1584 43.2964 2.07263 50.1192 0.270358 62.2511C0.255787 62.3345 -0.608919 67.3989 0.832991 74.5721C2.28678 81.8045 6.06391 91.4889 14.9908 101.441L14.8682 101.298C14.8682 101.298 20.6503 108.57 21.0703 118.024C21.0703 118.031 21.0703 118.037 21.0703 118.044C21.0703 118.044 21.2191 121.037 21.3461 124.257C21.41 125.866 21.4678 127.533 21.4994 128.889C21.5307 130.245 21.4994 131.522 21.5106 131.42L21.5363 131.194C21.5363 131.194 20.9023 135.855 23.5701 140.575C26.1929 145.216 32.0702 149.772 42.577 151.303C42.595 151.303 42.7033 151.354 42.7259 151.36C42.8801 151.397 42.9953 151.422 43.1178 151.445C43.3628 151.491 43.6246 151.531 43.9387 151.574C44.5672 151.66 45.3911 151.748 46.4016 151.817C48.4227 151.956 51.1784 152.018 54.4033 151.784C60.8531 151.316 69.2109 149.68 77.0465 144.906C77.204 144.81 77.3547 144.703 77.4975 144.586C76.8931 145.08 77.2203 144.793 77.4425 144.654C77.6648 144.515 77.9954 144.302 78.3751 144.026C79.1346 143.472 80.104 142.653 81.1073 141.504C83.1138 139.205 85.2348 135.584 86.5278 130.183C86.5764 129.982 86.6095 129.778 86.6266 129.572C86.7504 128.035 88.0336 122.2 87.4498 115.701C87.4417 115.605 87.4301 115.508 87.415 115.412C87.415 115.412 85.9121 104.1 90.6113 96.6441C90.6414 96.5965 90.6705 96.5484 90.6986 96.4996C90.6986 96.4996 93.3054 91.9502 95.9922 85.7417C98.6789 79.5332 101.55 71.6618 101.995 64.2018C101.995 64.2011 101.995 64.2003 101.995 64.1995C101.995 64.1995 102.229 59.4137 99.4906 54.2013C96.7934 49.0668 91.0518 43.3292 80.58 40.1574C80.682 39.7765 80.826 39.5228 80.8908 39.0781C81.2003 36.9526 80.747 33.5681 78.4214 30.4897C78.3295 30.3682 78.2309 30.2519 78.1258 30.1416C78.3992 30.4286 77.8092 29.8072 77.3771 29.4279C76.945 29.0486 76.3482 28.5698 75.5841 28.0925C74.0558 27.1379 71.7434 26.0947 68.8697 26.3893C68.7855 26.3975 68.7015 26.4085 68.618 26.4221C68.7486 26.4002 68.1461 26.4827 67.6087 26.2448C67.4978 26.195 67.2318 25.9814 67.1446 25.8091C67.0317 25.5839 66.9498 25.0103 67.0198 24.1847C67.0994 23.9994 67.8611 22.1818 68.9267 20.9578C68.9556 20.9247 68.9839 20.8911 69.0118 20.857L69.1847 20.6446C69.4584 20.3033 69.6743 19.9195 69.824 19.5084C70.3541 18.5715 71.066 17.1312 71.4593 14.9767C72.0207 11.905 71.3697 7.05258 67.4005 3.41755C67.3505 3.37174 67.2994 3.32721 67.2472 3.284C66.7352 2.86082 62.9881 -0.0238383 56.6297 0.000148741L56.6188 1.19134e-05ZM47.0453 11.4957C47.3912 11.3566 49.1569 10.3751 46.6884 11.7102L46.6772 11.6905C46.8031 11.632 46.9259 11.567 47.045 11.4957H47.0453ZM59.4582 21.4064L59.583 21.4546C59.3433 21.8544 59.1751 22.293 59.086 22.7506C59.0569 22.6527 58.835 23.5384 59.2043 22.1573C59.6895 20.3429 58.7434 23.1432 59.4582 21.4064V21.4064ZM35.3153 28.8563C35.3669 32.7567 35.3669 25.1179 35.3153 29.0183C35.3164 28.9643 35.3164 28.9103 35.3153 28.8563ZM31.2675 36.6522C31.2675 36.6522 31.1288 36.6696 31.1252 36.6697C31.0994 36.672 31.0792 36.663 31.0535 36.6652L31.268 36.6521L31.2675 36.6522Z" fill="white"/>
<path fill-rule="evenodd" clip-rule="evenodd" d="M56.6378 4.00846C53.5221 4.02063 49.6021 4.92831 44.952 8.0838C44.8973 8.12052 44.8411 8.1547 44.7832 8.18621C44.7832 8.18621 30.3906 16.3921 31.3065 28.9095C31.3067 28.9283 31.3067 28.9472 31.3065 28.9661C31.3065 28.9661 32.1853 43.4627 41.8195 50.5892C41.9049 50.6521 41.9857 50.7213 42.0608 50.7961C42.0608 50.7961 44.5544 53.2772 48.6004 54.7713C52.6464 56.2653 57.9531 56.813 64.2101 52.6274C64.2383 52.6086 64.2665 52.5904 64.2956 52.5729C69.3757 49.5151 75.8856 41.2558 76.044 41.0549C76.0607 41.0285 76.0941 40.9301 76.117 40.8904C76.204 40.7185 76.3014 40.5243 76.4018 40.2912C76.6037 39.8252 76.8144 39.2162 76.9187 38.5003C77.1251 37.0827 76.9998 35.2689 75.2166 32.9074C75.1608 32.8486 72.5565 30.0392 69.2735 30.3757L69.3808 30.3616C69.3808 30.3616 67.7392 30.6934 65.97 29.9051C65.0859 29.511 64.1232 28.7465 63.5515 27.6066C62.9798 26.4666 62.8112 25.0678 63.0237 23.4636C63.0479 23.2811 63.0954 23.1024 63.1653 22.932C63.1653 22.932 64.1984 20.1518 66.0685 18.1137L65.8959 18.3272C65.8959 18.3272 67.0748 16.6266 67.5076 14.2562C67.9382 11.8996 67.7694 9.19629 64.6856 6.3724C64.6264 6.32336 61.7749 3.98833 56.6345 4.00843L56.6378 4.00846Z" fill="#333333"/>
<path fill-rule="evenodd" clip-rule="evenodd" d="M31.3951 40.6594C31.3951 40.6594 7.34035 41.4207 4.21186 62.9191C4.21186 62.9191 1.08118 79.9393 17.9685 98.7656C17.9685 98.7656 24.58 106.875 25.0675 117.848C25.0675 117.848 25.6612 129.879 25.4961 131.77C25.4961 131.77 23.614 144.773 43.5885 147.442C44.0018 147.662 60.7701 150.127 74.9534 141.485C75.384 141.133 80.3056 138.937 82.6248 129.252C82.8155 126.88 83.9703 121.822 83.4527 116.061C83.4527 116.061 81.4242 103.695 87.2138 94.5085C87.2138 94.5085 97.2063 77.0682 97.9872 63.9642C97.9872 63.9642 98.8378 49.6102 79.0238 43.839C79.0238 43.839 75.4923 42.7805 73.6243 44.2341C73.6243 44.2341 57.2592 31.384 39.4336 42.7594C39.4336 42.7594 35.821 40.2813 31.3951 40.6594Z" fill="#333333"/>
<path fill-rule="evenodd" clip-rule="evenodd" d="M55.2135 42.0624C51.2607 42.0253 46.9123 42.923 42.0843 46.0036C41.2908 46.5101 40.3326 46.7758 39.3538 46.7609C38.375 46.7459 37.4282 46.4512 36.6549 45.9208C36.6549 45.9208 34.1336 44.4455 31.83 44.6423C31.7389 44.6502 31.648 44.6557 31.5566 44.6587C31.5566 44.6587 26.4843 44.8432 21.0288 47.2945C15.5734 49.7458 10.0813 53.9608 8.70359 63.429C8.69699 63.4731 8.68953 63.517 8.68126 63.5609C8.68126 63.5609 8.00022 67.0323 9.21615 73.0827C10.4321 79.1331 13.5704 87.4207 21.5163 96.2794C21.5594 96.3273 21.601 96.3761 21.6416 96.4257C21.6416 96.4257 29.0447 105.378 29.5919 117.69V117.673C29.5919 117.673 29.7403 120.694 29.8686 123.96C29.9327 125.593 29.9925 127.287 30.0255 128.714C30.0589 130.141 30.0956 131.097 30.0086 132.077C30.003 132.144 29.9956 132.21 29.9862 132.277C29.9862 132.277 29.6895 134.318 31.1018 136.816C32.514 139.313 35.3729 142.296 44.2642 143.483C44.4548 143.51 44.6438 143.548 44.829 143.596C44.8736 143.604 44.9828 143.622 45.1624 143.647C45.5578 143.701 46.201 143.772 47.0187 143.828C48.654 143.94 51.0039 143.995 53.7358 143.797C59.1996 143.401 66.1408 141.991 72.3805 138.189L71.875 138.548C72.6464 137.917 72.5631 138.07 72.6953 137.987C72.8275 137.905 72.9572 137.82 73.1245 137.699C73.4586 137.455 73.9272 137.072 74.4928 136.424C75.6122 135.141 77.1189 132.798 78.1575 128.54C78.4531 125.46 79.3748 121.296 78.9364 116.389C78.8081 115.694 76.5944 103.129 83.2547 92.5605L83.1708 92.7001C83.1708 92.7001 92.7778 75.253 93.4627 63.7534V63.7544C93.4627 63.7544 93.6403 61.2038 91.8264 57.7502C90.012 54.2965 86.4339 50.2106 77.6057 47.6392C77.5927 47.6357 77.5795 47.6322 77.5665 47.6286C77.5665 47.6286 77.1564 47.5175 76.6421 47.4794C76.385 47.4603 76.2437 47.5048 76.2336 47.5015C75.399 48.0228 74.3891 48.2793 73.3686 48.2293C72.348 48.1793 71.3768 47.8258 70.6124 47.2261C70.6124 47.2261 63.9075 42.1438 55.2092 42.0623L55.2135 42.0624Z" fill="#FF9955"/>
<path fill-rule="evenodd" clip-rule="evenodd" d="M83.6372 46.1706C82.1437 45.5057 80.4886 44.8973 78.6513 44.3627C78.6513 44.3627 75.1616 43.3166 73.3165 44.7529C73.3165 44.7529 57.1472 32.0567 39.5361 43.2959C39.5361 43.2959 35.9665 40.8474 31.5938 41.221C31.5938 41.221 7.82591 41.9734 4.73632 63.2141C4.73632 63.2141 1.6421 80.0298 18.3271 98.6305C18.3271 98.6305 22.4711 103.731 24.4006 111.288C24.0773 101.448 17.4081 91.9246 17.4081 91.9246C5.44749 69.2002 14.4953 55.8949 14.4953 55.8949C21.9294 44.2741 36.5948 45.5246 36.5948 45.5246C34.3263 47.5495 31.7965 53.1887 31.6144 54.1546C24.9784 71.1765 40.8982 91.6879 40.8982 91.6879C40.8982 91.6879 27.6415 62.7321 40.5185 48.5544C40.5185 48.5544 55.4459 35.8721 69.4569 50.5507C69.4569 50.5507 79.0926 58.3261 72.767 80.0958C72.767 80.0958 68.7357 94.7861 69.1462 104.045C69.4079 103.559 73.4241 85.1383 76.7523 78.6428C76.7523 78.6428 84.3966 61.0022 75.6205 49.1206C75.6205 49.1206 89.4111 50.7461 92.0595 62.7335C92.0595 62.7335 93.2677 71.136 86.9962 83.0975C86.9962 83.0975 78.7311 95.0836 82.6958 109.864C82.7739 105.513 83.5549 99.4833 86.7447 94.4248C86.7447 94.4248 96.6166 77.1937 97.3863 64.2467C97.3863 64.2467 98.0793 52.5985 83.6372 46.1706Z" fill="#333333"/>
<path d="M66.2703 67.6662C69.2073 65.8488 69.2312 60.5663 66.3235 55.8671C63.4158 51.1678 58.6777 48.8318 55.7407 50.6491C52.8037 52.4664 52.7798 57.749 55.6876 62.4482C58.5953 67.1475 63.3333 69.4835 66.2703 67.6662Z" fill="white"/>
</svg>
