<svg width="129" height="127" viewBox="0 0 129 127" fill="none" xmlns="http://www.w3.org/2000/svg">
<path fill-rule="evenodd" clip-rule="evenodd" d="M87.0521 0.00658958C77.35 0.251419 70.4535 6.21833 67.0939 9.79642C65.0365 7.59036 62.2076 6.09068 59.1825 6.16657C58.2298 6.18938 57.2795 6.34137 56.3673 6.617L12.5718 19.2197L12.6602 19.1957C7.22284 20.6412 3.63542 26.974 5.19201 32.3806C6.7486 37.7872 13.1543 41.2426 18.5278 39.5756L20.5596 38.991C19.9926 45.4846 19.8731 52.1152 20.1355 58.3215C20.1809 59.3831 20.252 60.3465 20.3104 61.3596C8.46285 66.706 0.0164388 79.1938 6.66785e-07 92.2481C-2.22262e-07 92.2497 -2.22262e-07 92.2514 6.66785e-07 92.253C-0.000612695 101.129 3.65288 109.95 9.92879 116.227C16.2047 122.503 25.0267 126.158 33.9026 126.158C46.076 126.143 57.8592 118.861 63.7105 108.251C68.0848 110.23 72.8695 111.308 77.6717 111.315C77.6758 111.315 77.6799 111.315 77.684 111.315C86.5604 111.316 95.3813 107.661 101.658 101.384C107.934 95.1075 111.589 86.2865 111.589 77.4102C111.589 68.5343 107.934 59.7123 101.658 53.4363C95.3813 47.1604 86.5599 43.507 77.684 43.5075C74.7129 43.5112 71.7782 44.0432 68.91 44.8181C63.8851 38.9473 60.295 33.3098 57.491 28.3699L62.2302 27.0066C64.5815 26.3687 66.5637 24.7889 67.9636 22.8018C69.1013 23.2645 70.3801 23.9514 71.5528 24.9366C73.3309 26.4306 74.4926 27.8788 74.4926 27.8788L74.4201 27.79C82.6181 38.6527 93.7913 42.3406 93.7913 42.3406C93.9671 42.3995 94.1463 42.4476 94.328 42.4845C107.558 45.151 116.99 39.7912 122.126 33.8207C127.262 27.8502 128.866 21.2252 128.866 21.2252C129.036 20.5417 129.045 19.8277 128.89 19.1405C128.735 18.4532 128.422 17.8116 127.975 17.2672C127.527 16.7228 126.959 16.2906 126.315 16.0051C125.671 15.7197 124.969 15.589 124.265 15.6234C111.715 16.2432 104.815 7.29513 104.815 7.29513C104.623 7.04895 104.406 6.82333 104.168 6.62187C98.4775 1.81125 92.4518 -0.129465 87.0563 0.00666445L87.0521 0.00658958ZM41.2465 33.0419C43.9328 38.4001 47.9301 45.3604 54.1798 53.0768C51.6652 55.5142 49.5163 58.3248 47.8545 61.4075C44.2776 59.791 40.4221 58.8598 36.5097 58.5467C36.495 58.2359 36.4729 57.9433 36.4594 57.6291C36.106 49.2681 36.6556 40.3047 37.9281 33.9955L41.2465 33.0419Z" fill="white"/>
<path fill-rule="evenodd" clip-rule="evenodd" d="M59.2921 10.6779C58.7434 10.6911 58.199 10.7784 57.6737 10.9374L13.821 23.5565C13.0396 23.7666 12.3077 24.1303 11.6683 24.6263C11.0289 25.1223 10.4947 25.7406 10.0968 26.4453C9.69899 27.1499 9.44563 27.9267 9.35127 28.7304C9.25692 29.5341 9.32382 30.3486 9.54763 31.1262C9.77144 31.9039 10.1478 32.6294 10.655 33.26C11.1621 33.8906 11.7897 34.4139 12.5013 34.7993C13.2129 35.1847 13.994 35.4244 14.7992 35.5047C15.6045 35.5849 16.4176 35.5038 17.1912 35.2663L61.0438 22.6496C62.4812 22.2588 63.7256 21.3549 64.5419 20.1089C65.3582 18.863 65.69 17.3612 65.4743 15.8873C65.2587 14.4134 64.5106 13.0697 63.3715 12.1098C62.2325 11.15 60.7812 10.6406 59.2921 10.6779Z" fill="#333333"/>
<path fill-rule="evenodd" clip-rule="evenodd" d="M46.3634 15.8296L29.4935 21.2918L28.8104 22.6723C24.2476 31.8894 24.1271 45.869 24.6453 58.128C24.9044 64.2576 25.4058 69.8998 25.8425 74.0839C26.0609 76.176 26.2622 77.9031 26.409 79.1344C26.4821 79.75 26.5434 80.2427 26.5827 80.5815C26.6217 80.9203 26.6202 81.5676 26.6202 80.8028H33.9317C33.9317 79.9033 33.8869 80.1104 33.8443 79.7389C33.8016 79.3675 33.7432 78.879 33.6705 78.2705C33.5255 77.0534 33.3267 75.3666 33.1136 73.3247C32.6873 69.2409 32.2 63.7388 31.9498 57.8186C31.4763 46.6184 32.222 33.9255 34.9462 27.211L42.1935 24.8643C45.4523 32.5056 59.2306 61.5305 87.6527 74.0363L90.5992 67.3436C61.6803 54.6193 47.6082 19.0593 47.6082 19.0593L46.3634 15.8296Z" fill="#333333"/>
<path d="M77.6837 106.8C93.915 106.8 107.073 93.642 107.073 77.4108C107.073 61.1796 93.915 48.0215 77.6837 48.0215C61.4525 48.0215 48.2947 61.1796 48.2947 77.4108C48.2947 93.642 61.4525 106.8 77.6837 106.8Z" fill="#333333"/>
<path d="M77.6837 102.335C91.4487 102.335 102.608 91.1761 102.608 77.411C102.608 63.646 91.4487 52.4873 77.6837 52.4873C63.9186 52.4873 52.7596 63.646 52.7596 77.411C52.7596 91.1761 63.9186 102.335 77.6837 102.335Z" fill="#C83737"/>
<path d="M86.9886 74.5678C91.1526 74.5678 94.5281 71.1921 94.5281 67.028C94.5281 62.864 91.1526 59.4883 86.9886 59.4883C82.8246 59.4883 79.4492 62.864 79.4492 67.028C79.4492 71.1921 82.8246 74.5678 86.9886 74.5678Z" fill="white"/>
<path d="M33.9026 121.643C50.1339 121.643 63.2922 108.485 63.2922 92.2541C63.2922 76.0228 50.1339 62.8647 33.9026 62.8647C17.6714 62.8647 4.51362 76.0228 4.51362 92.2541C4.51362 108.485 17.6714 121.643 33.9026 121.643Z" fill="#333333"/>
<path d="M33.903 117.178C47.668 117.178 58.827 106.019 58.827 92.254C58.827 78.489 47.668 67.3303 33.903 67.3303C20.1379 67.3303 8.97893 78.489 8.97893 92.254C8.97893 106.019 20.1379 117.178 33.903 117.178Z" fill="#C83737"/>
<path d="M43.2084 89.4103C47.3724 89.4103 50.7478 86.0346 50.7478 81.8705C50.7478 77.7065 47.3724 74.3308 43.2084 74.3308C39.0444 74.3308 35.6689 77.7065 35.6689 81.8705C35.6689 86.0346 39.0444 89.4103 43.2084 89.4103Z" fill="white"/>
<path fill-rule="evenodd" clip-rule="evenodd" d="M68.3231 15.1912C68.3231 15.1912 83.5066 -4.93203 101.251 10.0689C101.251 10.0689 109.667 20.8625 124.485 20.1308C124.485 20.1308 118.813 42.8148 95.2147 38.0584C95.2147 38.0584 85.3358 34.7659 78.0184 25.07C78.0184 25.07 72.3474 17.9356 66.4934 17.7526L68.3231 15.1912Z" fill="#333333"/>
</svg>
