<svg width="108" height="143" viewBox="0 0 108 143" fill="none" xmlns="http://www.w3.org/2000/svg">
<path fill-rule="evenodd" clip-rule="evenodd" d="M75.036 0.0761511C68.3126 0.245737 63.4412 3.87011 60.5127 6.67763C60.4127 6.40442 60.279 6.1447 60.1147 5.90459C57.7806 2.53208 54.4399 0.90132 51.5539 0.730559C46.7447 0.446152 43.3011 3.26974 43.3011 3.26974C42.8478 3.60928 42.4837 4.05377 42.24 4.56504C41.9964 5.0763 41.8805 5.63907 41.9023 6.205C42.0081 8.92582 40.9745 14.9274 40.1075 19.2683C36.9465 19.9792 33.5835 21.0394 29.901 22.8675C29.8148 22.9057 26.112 24.5515 22.7619 28.5429C19.3727 32.5807 16.1946 39.2114 16.5679 48.7319C16.5679 48.7401 16.5679 48.7483 16.5679 48.7564C16.5679 48.7564 16.7242 52.1609 16.2274 56.3338C15.7306 60.5066 14.384 65.2691 12.4693 67.474C12.4168 67.5348 12.3664 67.5973 12.3181 67.6615C12.3181 67.6615 -6.34643 91.389 2.27432 113.585C2.29293 113.633 2.30187 113.681 2.32048 113.728C2.63467 114.895 6.22358 127.372 18.6902 134.863C18.9047 135.005 45.0119 152.256 71.8828 134.925C72.0286 134.84 92.0229 123.049 91.6892 97.7791C91.6892 97.5469 91.8849 80.8925 77.9026 66.9281C77.8223 66.8039 73.3318 59.8556 73.1821 51.0272L73.1723 51.32C73.1723 51.32 73.5251 46.2225 72.4815 40.2123C71.4477 34.2583 69.073 26.9554 62.763 22.7461C62.5873 22.608 59.972 20.5869 55.3004 19.2847C55.7881 18.4131 56.2834 17.6196 56.726 16.7683C57.3047 17.2125 58.0079 17.4648 58.737 17.4897C59.6577 17.5181 61.4565 18.4245 62.8606 19.6042C64.2647 20.7839 65.1816 21.9291 65.1816 21.9291L65.1256 21.8585C71.5689 30.3962 80.3511 33.2972 80.3511 33.2972C80.4872 33.3421 80.6259 33.3785 80.7664 33.4063C91.1649 35.5022 98.5643 31.2952 102.599 26.6058C106.634 21.9166 107.896 16.7132 107.896 16.7132C108.028 16.1832 108.035 15.6296 107.915 15.0967C107.795 14.5637 107.552 14.0662 107.205 13.644C106.858 13.2218 106.418 12.8867 105.918 12.6654C105.419 12.4441 104.874 12.3428 104.329 12.3696C94.4214 12.8589 88.9694 5.79109 88.9694 5.79109C88.8207 5.60079 88.6527 5.42634 88.4681 5.27063C83.9957 1.48988 79.2668 -0.0313319 75.0336 0.0755532L75.036 0.0761511Z" fill="white"/>
<path fill-rule="evenodd" clip-rule="evenodd" d="M20.5761 131.924C20.5761 131.924 44.8235 148.317 70.0955 131.924C70.0955 131.924 88.5374 121.337 88.1957 97.7724C88.1957 97.7724 88.5895 82.1146 75.0302 68.9487C75.0302 68.9487 69.8561 61.1619 69.6852 51.0871C69.6852 51.0871 70.9495 32.2015 60.704 25.542C60.704 25.542 50.1171 16.663 31.3339 26.0547C31.3339 26.0547 19.3807 31.1771 20.0637 48.5944C20.0637 48.5944 20.7469 63.2798 15.112 69.7686C15.112 69.7686 -2.19296 92.7192 5.57601 112.447C5.57601 112.447 8.73677 124.866 20.5761 131.924Z" fill="#333333"/>
<path fill-rule="evenodd" clip-rule="evenodd" d="M60.2887 11.9755C60.2887 11.9755 72.2424 -3.86644 86.2123 7.9432C86.2123 7.9432 92.8372 16.4404 104.503 15.8643C104.503 15.8643 100.038 33.7228 81.4598 29.9784C81.4598 29.9784 73.6825 27.3862 67.9218 19.7531C67.9218 19.7531 63.4571 14.1361 58.8486 13.992L60.2887 11.9755Z" fill="#333333"/>
<path fill-rule="evenodd" clip-rule="evenodd" d="M42.4536 25.209C42.4536 25.209 45.6281 11.9511 45.3993 6.07021C45.3993 6.07021 52.3607 0.851315 57.2365 7.89638C57.2365 7.89638 51.7241 20.5155 47.8237 24.3786L42.4536 25.209Z" fill="#333333"/>
<path fill-rule="evenodd" clip-rule="evenodd" d="M48.6686 27.0683C44.9662 26.9197 40.0356 27.6369 33.7081 30.8008C33.6148 30.8471 33.5203 30.8909 33.4244 30.9317C33.4244 30.9317 31.6726 31.6265 29.508 34.2052C27.3432 36.7838 25.0737 40.9111 25.3669 48.3878V48.3475C25.3669 48.3475 25.5624 52.4226 24.9731 57.3745C24.3837 62.3265 23.3078 68.4272 19.1209 73.2485L19.3521 72.963C19.3521 72.963 4.24638 94.5797 10.5165 110.501C10.5984 110.709 10.667 110.921 10.7221 111.137C10.7221 111.137 13.4527 121.495 23.2971 127.364C23.3832 127.416 23.4676 127.47 23.5506 127.527C23.5506 127.527 44.5926 142.14 67.2089 127.47C67.2894 127.418 67.3713 127.368 67.4545 127.32C67.4545 127.32 83.191 118.622 82.8899 97.849C82.8885 97.7788 82.8885 97.7087 82.8899 97.6385C82.8899 97.6385 83.3476 84.4216 71.3341 72.7566C71.0629 72.4929 70.8206 72.201 70.6115 71.8859C70.6115 71.8859 64.5808 63.0218 64.38 51.177C64.3777 51.0291 64.3817 50.8811 64.3918 50.7335C64.3918 50.7335 64.6542 46.5824 63.81 41.7209C62.9656 36.8592 60.931 32.0189 57.8142 29.9929C57.6338 29.8755 57.4606 29.7468 57.2958 29.6083C57.2958 29.6083 54.8415 27.3159 48.6709 27.0683H48.6686Z" fill="#ABC837"/>
<path d="M57.4486 52.8804C53.8719 54.3221 49.2277 51.1622 47.0754 45.8225C44.923 40.4827 46.0776 34.9854 49.6543 33.5437C53.2309 32.1021 57.8751 35.262 60.0275 40.6017C62.1798 45.9414 61.0252 51.4387 57.4486 52.8804Z" fill="white"/>
<path fill-rule="evenodd" clip-rule="evenodd" d="M15.3756 87.439C15.3756 87.439 16.3011 119.729 49.1999 131.434C4.24734 127.387 15.3756 87.439 15.3756 87.439Z" fill="white"/>
</svg>
