<svg width="259" height="97" viewBox="0 0 259 97" fill="none" xmlns="http://www.w3.org/2000/svg">
<path d="M0 6C0 2.68629 2.68629 0 6 0H252.728C256.042 0 258.728 2.68629 258.728 6V97H0V6Z" fill="#00BDB9"/>
<ellipse cx="129.12" cy="86.5" rx="32.1201" ry="5.5" fill="#00101B" fill-opacity="0.3"/>
<mask id="mask0_4409_18115" style="mask-type:alpha" maskUnits="userSpaceOnUse" x="0" y="0" width="259" height="97">
<path d="M0 6C0 2.68629 2.68629 0 6 0H253C256.314 0 259 2.68629 259 6V97H0V6Z" fill="#7F6CC3"/>
<path d="M0 6C0 2.68629 2.68629 0 6 0H253C256.314 0 259 2.68629 259 6V97H0V6Z" fill="url(#paint0_linear_4409_18115)" fill-opacity="0.3"/>
</mask>
<g mask="url(#mask0_4409_18115)">
<g opacity="0.6">
<path d="M283.32 19.4373C283.029 19.8544 282.428 19.9736 281.978 19.7037C281.528 19.4337 281.399 18.8767 281.69 18.4596C281.982 18.0425 282.583 17.9233 283.033 18.1933C283.483 18.4633 283.611 19.0202 283.32 19.4373Z" fill="white"/>
<path d="M208.077 -70.7507C207.786 -70.3336 207.185 -70.2144 206.735 -70.4844C206.285 -70.7543 206.156 -71.3113 206.448 -71.7284C206.739 -72.1455 207.34 -72.2647 207.79 -71.9947C208.24 -71.7247 208.368 -71.1678 208.077 -70.7507Z" fill="white"/>
<path d="M192.874 -34.8251C192.582 -34.408 191.981 -34.2888 191.531 -34.5588C191.081 -34.8288 190.953 -35.3857 191.244 -35.8028C191.535 -36.2199 192.136 -36.3391 192.586 -36.0692C193.036 -35.7992 193.165 -35.2422 192.874 -34.8251Z" fill="white"/>
<path d="M96.0901 73.3922C95.7988 73.8093 95.1979 73.9285 94.7478 73.6585C94.2978 73.3885 94.1692 72.8316 94.4605 72.4145C94.7518 71.9974 95.3528 71.8782 95.8028 72.1482C96.2528 72.4182 96.3815 72.9751 96.0901 73.3922Z" fill="white"/>
<path d="M126.359 90.4801C126.068 90.8972 125.467 91.0164 125.017 90.7464C124.567 90.4765 124.438 89.9195 124.729 89.5024C125.021 89.0853 125.622 88.9661 126.072 89.2361C126.522 89.5061 126.65 90.063 126.359 90.4801Z" fill="white"/>
<path d="M197.153 95.6238C196.862 96.0409 196.261 96.1602 195.811 95.8902C195.361 95.6202 195.232 95.0632 195.524 94.6461C195.815 94.229 196.416 94.1098 196.866 94.3798C197.316 94.6498 197.445 95.2068 197.153 95.6238Z" fill="white"/>
<path d="M207.089 75.3293C206.797 75.7464 206.196 75.8656 205.746 75.5956C205.296 75.3257 205.168 74.7687 205.459 74.3516C205.75 73.9345 206.351 73.8153 206.801 74.0853C207.251 74.3553 207.38 74.9122 207.089 75.3293Z" fill="white"/>
<path d="M262.569 -6.58631C262.277 -6.16924 261.676 -6.05 261.226 -6.31998C260.776 -6.58997 260.648 -7.14694 260.939 -7.56402C261.23 -7.98109 261.831 -8.10033 262.281 -7.83035C262.731 -7.56036 262.86 -7.00339 262.569 -6.58631Z" fill="white"/>
<path d="M172.122 -60.8487C171.831 -60.4317 171.23 -60.3124 170.78 -60.5824C170.33 -60.8524 170.201 -61.4094 170.492 -61.8264C170.784 -62.2435 171.385 -62.3628 171.835 -62.0928C172.285 -61.8228 172.413 -61.2658 172.122 -60.8487Z" fill="white"/>
<path d="M249.07 52.471C248.779 52.888 248.178 53.0073 247.728 52.7373C247.278 52.4673 247.149 51.9103 247.441 51.4933C247.732 51.0762 248.333 50.9569 248.783 51.2269C249.233 51.4969 249.362 52.0539 249.07 52.471Z" fill="white"/>
<path d="M41.0159 -72.3489C40.7246 -71.9318 40.1236 -71.8125 39.6736 -72.0825C39.2236 -72.3525 39.0949 -72.9095 39.3863 -73.3265C39.6776 -73.7436 40.2785 -73.8629 40.7285 -73.5929C41.1786 -73.3229 41.3072 -72.7659 41.0159 -72.3489Z" fill="white"/>
<path d="M246.251 -86.5137C245.96 -86.0966 245.359 -85.9774 244.909 -86.2474C244.459 -86.5174 244.33 -87.0743 244.621 -87.4914C244.913 -87.9085 245.514 -88.0277 245.964 -87.7578C246.414 -87.4878 246.542 -86.9308 246.251 -86.5137Z" fill="white"/>
<path d="M225.059 -15.5155C224.768 -15.0984 224.167 -14.9792 223.717 -15.2492C223.267 -15.5192 223.139 -16.0761 223.43 -16.4932C223.721 -16.9103 224.322 -17.0295 224.772 -16.7596C225.222 -16.4896 225.351 -15.9326 225.059 -15.5155Z" fill="white"/>
<path d="M134.613 -69.7779C134.322 -69.3609 133.721 -69.2416 133.271 -69.5116C132.821 -69.7816 132.692 -70.3386 132.983 -70.7556C133.274 -71.1727 133.875 -71.292 134.325 -71.022C134.775 -70.752 134.904 -70.195 134.613 -69.7779Z" fill="white"/>
<path d="M36.4809 -47.9216C36.1896 -47.5046 35.5886 -47.3853 35.1386 -47.6553C34.6886 -47.9253 34.5599 -48.4823 34.8512 -48.8993C35.1425 -49.3164 35.7435 -49.4356 36.1935 -49.1657C36.6435 -48.8957 36.7722 -48.3387 36.4809 -47.9216Z" fill="white"/>
<path d="M29.8621 -30.9957C29.5708 -30.5786 28.9698 -30.4594 28.5198 -30.7294C28.0698 -30.9993 27.9411 -31.5563 28.2324 -31.9734C28.5237 -32.3905 29.1247 -32.5097 29.5747 -32.2397C30.0247 -31.9697 30.1534 -31.4128 29.8621 -30.9957Z" fill="white"/>
<path d="M31.9487 90.0324C31.6574 90.4494 31.0565 90.5687 30.6064 90.2987C30.1564 90.0287 30.0278 89.4717 30.3191 89.0547C30.6104 88.6376 31.2113 88.5183 31.6614 88.7883C32.1114 89.0583 32.24 89.6153 31.9487 90.0324Z" fill="white"/>
<path d="M51.6026 71.467C51.3112 71.8841 50.7103 72.0033 50.2603 71.7333C49.8102 71.4633 49.6816 70.9064 49.9729 70.4893C50.2642 70.0722 50.8652 69.953 51.3152 70.223C51.7652 70.493 51.8939 71.0499 51.6026 71.467Z" fill="white"/>
<path d="M25.5235 55.704C25.2321 56.121 24.6312 56.2403 24.1812 55.9703C23.7311 55.7003 23.6025 55.1433 23.8938 54.7263C24.1851 54.3092 24.7861 54.19 25.2361 54.4599C25.6861 54.7299 25.8148 55.2869 25.5235 55.704Z" fill="white"/>
<path d="M173.683 -97.723C173.392 -97.3059 172.791 -97.1867 172.341 -97.4567C171.891 -97.7266 171.762 -98.2836 172.053 -98.7007C172.345 -99.1178 172.946 -99.237 173.396 -98.967C173.846 -98.697 173.974 -98.1401 173.683 -97.723Z" fill="white"/>
<path d="M248.519 -57.0894C248.227 -56.6723 247.626 -56.5531 247.176 -56.823C246.726 -57.093 246.598 -57.65 246.889 -58.0671C247.18 -58.4842 247.781 -58.6034 248.231 -58.3334C248.681 -58.0634 248.81 -57.5065 248.519 -57.0894Z" fill="white"/>
<path d="M256.026 67.8961C255.735 68.3132 255.134 68.4324 254.684 68.1624C254.234 67.8925 254.105 67.3355 254.396 66.9184C254.688 66.5013 255.289 66.3821 255.739 66.6521C256.189 66.9221 256.317 67.479 256.026 67.8961Z" fill="white"/>
<path d="M47.9717 -56.9237C47.6803 -56.5067 47.0794 -56.3874 46.6294 -56.6574C46.1793 -56.9274 46.0507 -57.4844 46.342 -57.9014C46.6333 -58.3185 47.2343 -58.4378 47.6843 -58.1678C48.1343 -57.8978 48.263 -57.3408 47.9717 -56.9237Z" fill="white"/>
<path d="M216.671 138.589C216.38 139.006 215.779 139.125 215.329 138.855C214.879 138.585 214.75 138.029 215.041 137.611C215.333 137.194 215.934 137.075 216.384 137.345C216.834 137.615 216.962 138.172 216.671 138.589Z" fill="white"/>
<path d="M304.835 23.9505C304.544 24.3676 303.943 24.4868 303.493 24.2169C303.043 23.9469 302.914 23.3899 303.205 22.9728C303.497 22.5557 304.098 22.4365 304.548 22.7065C304.998 22.9765 305.126 23.5334 304.835 23.9505Z" fill="white"/>
<path d="M281.676 51.3144C281.53 51.523 281.23 51.5827 281.005 51.4476C280.78 51.3126 280.715 51.034 280.861 50.8254C281.007 50.6168 281.307 50.5572 281.532 50.6922C281.757 50.8273 281.822 51.1058 281.676 51.3144Z" fill="white"/>
<path d="M73.6216 -73.5054C73.4759 -73.2968 73.1753 -73.2372 72.9503 -73.3722C72.7252 -73.5073 72.6608 -73.7858 72.8065 -73.9944C72.9522 -74.203 73.2528 -74.2627 73.4779 -74.1276C73.703 -73.9926 73.7673 -73.714 73.6216 -73.5054Z" fill="white"/>
<path d="M234.59 -72.6677C234.444 -72.4591 234.144 -72.3995 233.919 -72.5345C233.693 -72.6695 233.629 -72.9481 233.775 -73.1567C233.92 -73.3653 234.221 -73.425 234.446 -73.2899C234.671 -73.1549 234.736 -72.8763 234.59 -72.6677Z" fill="white"/>
<path d="M19.205 4.4045C19.0593 4.61311 18.7587 4.67274 18.5337 4.5377C18.3086 4.40266 18.2442 4.12409 18.3899 3.91548C18.5356 3.70687 18.8362 3.64724 19.0613 3.78227C19.2864 3.91731 19.3507 4.19588 19.205 4.4045Z" fill="white"/>
<path d="M171.29 103.683C171.144 103.892 170.844 103.951 170.618 103.816C170.393 103.681 170.329 103.403 170.475 103.194C170.62 102.986 170.921 102.926 171.146 103.061C171.371 103.196 171.436 103.475 171.29 103.683Z" fill="white"/>
<path d="M93.3221 -104.194C93.1764 -103.986 92.8758 -103.926 92.6507 -104.061C92.4256 -104.196 92.3613 -104.475 92.507 -104.683C92.6527 -104.892 92.9532 -104.952 93.1783 -104.817C93.4034 -104.682 93.4678 -104.403 93.3221 -104.194Z" fill="white"/>
<path d="M98.4034 53.5261C98.2577 53.7347 97.9571 53.7944 97.732 53.6593C97.507 53.5243 97.4426 53.2457 97.5883 53.0371C97.734 52.8285 98.0346 52.7689 98.2597 52.9039C98.4848 53.0389 98.5491 53.3175 98.4034 53.5261Z" fill="white"/>
<path d="M268.982 85.4922C268.836 85.7008 268.535 85.7604 268.31 85.6254C268.085 85.4903 268.021 85.2118 268.167 85.0032C268.312 84.7945 268.613 84.7349 268.838 84.8699C269.063 85.005 269.127 85.2836 268.982 85.4922Z" fill="white"/>
<path d="M60.9273 -39.3277C60.7816 -39.1191 60.481 -39.0594 60.2559 -39.1945C60.0309 -39.3295 59.9665 -39.6081 60.1122 -39.8167C60.2579 -40.0253 60.5585 -40.0849 60.7836 -39.9499C61.0087 -39.8148 61.073 -39.5363 60.9273 -39.3277Z" fill="white"/>
<path d="M255.656 82.4984C255.51 82.707 255.209 82.7666 254.984 82.6316C254.759 82.4966 254.695 82.218 254.841 82.0094C254.986 81.8008 255.287 81.7411 255.512 81.8762C255.737 82.0112 255.801 82.2898 255.656 82.4984Z" fill="white"/>
<path d="M47.6013 -42.3215C47.4556 -42.1128 47.1551 -42.0532 46.93 -42.1882C46.7049 -42.3233 46.6405 -42.6019 46.7862 -42.8105C46.9319 -43.0191 47.2325 -43.0787 47.4576 -42.9437C47.6827 -42.8086 47.747 -42.5301 47.6013 -42.3215Z" fill="white"/>
<path d="M53.4773 -20.9357C53.3316 -20.7271 53.031 -20.6675 52.8059 -20.8025C52.5808 -20.9376 52.5165 -21.2161 52.6622 -21.4247C52.8079 -21.6334 53.1085 -21.693 53.3336 -21.558C53.5587 -21.4229 53.623 -21.1443 53.4773 -20.9357Z" fill="white"/>
<path d="M252.695 107.155C252.549 107.364 252.248 107.424 252.023 107.289C251.798 107.154 251.734 106.875 251.879 106.666C252.025 106.458 252.326 106.398 252.551 106.533C252.776 106.668 252.84 106.947 252.695 107.155Z" fill="white"/>
<path d="M268.032 38.8426C267.887 39.0512 267.586 39.1108 267.361 38.9758C267.136 38.8408 267.072 38.5622 267.217 38.3536C267.363 38.145 267.664 38.0853 267.889 38.2204C268.114 38.3554 268.178 38.634 268.032 38.8426Z" fill="white"/>
<path d="M63.1508 -84.0738C63.0051 -83.8652 62.7046 -83.8055 62.4795 -83.9406C62.2544 -84.0756 62.19 -84.3542 62.3357 -84.5628C62.4814 -84.7714 62.782 -84.831 63.0071 -84.696C63.2322 -84.5609 63.2965 -84.2824 63.1508 -84.0738Z" fill="white"/>
<path d="M8.7342 -6.1638C8.5885 -5.95519 8.28792 -5.89554 8.06283 -6.03058C7.83775 -6.16562 7.7734 -6.44419 7.9191 -6.6528C8.0648 -6.86141 8.36538 -6.92106 8.59047 -6.78602C8.81555 -6.65099 8.8799 -6.37241 8.7342 -6.1638Z" fill="white"/>
<path d="M240.839 72.3588C240.693 72.5674 240.392 72.627 240.167 72.492C239.942 72.3569 239.878 72.0784 240.023 71.8698C240.169 71.6611 240.47 71.6015 240.695 71.7365C240.92 71.8716 240.984 72.1502 240.839 72.3588Z" fill="white"/>
<path d="M32.7842 -52.4611C32.6384 -52.2525 32.3379 -52.1928 32.1128 -52.3279C31.8877 -52.4629 31.8233 -52.7415 31.969 -52.9501C32.1147 -53.1587 32.4153 -53.2183 32.6404 -53.0833C32.8655 -52.9483 32.9299 -52.6697 32.7842 -52.4611Z" fill="white"/>
<path d="M310.507 34.1406C310.361 34.3492 310.061 34.4088 309.836 34.2738C309.611 34.1387 309.546 33.8602 309.692 33.6516C309.838 33.443 310.138 33.3833 310.363 33.5184C310.588 33.6534 310.653 33.932 310.507 34.1406Z" fill="white"/>
<path d="M220.06 -20.1218C219.915 -19.9132 219.614 -19.8536 219.389 -19.9886C219.164 -20.1237 219.1 -20.4022 219.245 -20.6108C219.391 -20.8194 219.692 -20.8791 219.917 -20.744C220.142 -20.609 220.206 -20.3304 220.06 -20.1218Z" fill="white"/>
<path d="M252.806 28.6363C252.661 28.8449 252.36 28.9045 252.135 28.7695C251.91 28.6344 251.846 28.3559 251.991 28.1473C252.137 27.9387 252.438 27.879 252.663 28.0141C252.888 28.1491 252.952 28.4277 252.806 28.6363Z" fill="white"/>
<path d="M44.752 -96.1836C44.6063 -95.9749 44.3057 -95.9153 44.0806 -96.0503C43.8556 -96.1854 43.7912 -96.464 43.9369 -96.6726C44.0826 -96.8812 44.3832 -96.9408 44.6083 -96.8058C44.8334 -96.6707 44.8977 -96.3922 44.752 -96.1836Z" fill="white"/>
<path d="M227.619 49.2465C227.473 49.4551 227.173 49.5148 226.948 49.3797C226.723 49.2447 226.658 48.9661 226.804 48.7575C226.95 48.5489 227.25 48.4893 227.475 48.6243C227.7 48.7593 227.765 49.0379 227.619 49.2465Z" fill="white"/>
<path d="M297.291 35.8561C297.193 35.9952 296.993 36.0349 296.843 35.9449C296.693 35.8549 296.65 35.6692 296.747 35.5301C296.844 35.391 297.045 35.3512 297.195 35.4413C297.345 35.5313 297.388 35.717 297.291 35.8561Z" fill="white"/>
<path d="M206.844 -18.4063C206.747 -18.2673 206.546 -18.2275 206.396 -18.3175C206.246 -18.4075 206.203 -18.5933 206.301 -18.7323C206.398 -18.8714 206.598 -18.9112 206.748 -18.8211C206.898 -18.7311 206.941 -18.5454 206.844 -18.4063Z" fill="white"/>
<path d="M89.2363 -88.9637C89.1391 -88.8247 88.9387 -88.7849 88.7887 -88.8749C88.6386 -88.965 88.5957 -89.1507 88.6929 -89.2898C88.79 -89.4288 88.9904 -89.4686 89.1404 -89.3786C89.2905 -89.2885 89.3334 -89.1028 89.2363 -88.9637Z" fill="white"/>
<path d="M34.8197 -11.0538C34.7225 -10.9148 34.5221 -10.875 34.3721 -10.965C34.222 -11.055 34.1791 -11.2408 34.2763 -11.3798C34.3734 -11.5189 34.5738 -11.5587 34.7238 -11.4686C34.8739 -11.3786 34.9168 -11.1929 34.8197 -11.0538Z" fill="white"/>
<path d="M56.0883 25.8177C55.9912 25.9568 55.7908 25.9966 55.6407 25.9066C55.4907 25.8165 55.4478 25.6308 55.5449 25.4917C55.6421 25.3527 55.8424 25.3129 55.9925 25.4029C56.1426 25.493 56.1855 25.6787 56.0883 25.8177Z" fill="white"/>
<path d="M149.583 98.3406C149.486 98.4797 149.286 98.5195 149.136 98.4294C148.986 98.3394 148.943 98.1537 149.04 98.0146C149.137 97.8756 149.337 97.8358 149.487 97.9258C149.637 98.0159 149.68 98.2016 149.583 98.3406Z" fill="white"/>
<path d="M71.6155 -109.537C71.5184 -109.398 71.318 -109.358 71.1679 -109.448C71.0179 -109.538 70.975 -109.724 71.0721 -109.863C71.1692 -110.002 71.3696 -110.042 71.5197 -109.952C71.6697 -109.862 71.7126 -109.676 71.6155 -109.537Z" fill="white"/>
<path d="M288.055 36.3876C287.957 36.5267 287.757 36.5664 287.607 36.4764C287.457 36.3864 287.414 36.2007 287.511 36.0616C287.608 35.9225 287.809 35.8828 287.959 35.9728C288.109 36.0628 288.152 36.2486 288.055 36.3876Z" fill="white"/>
<path d="M197.608 -17.8748C197.511 -17.7357 197.31 -17.696 197.16 -17.786C197.01 -17.876 196.967 -18.0617 197.065 -18.2008C197.162 -18.3399 197.362 -18.3796 197.512 -18.2896C197.662 -18.1996 197.705 -18.0139 197.608 -17.8748Z" fill="white"/>
<path d="M80.0002 -88.4322C79.9031 -88.2932 79.7027 -88.2534 79.5527 -88.3434C79.4026 -88.4334 79.3597 -88.6192 79.4568 -88.7582C79.554 -88.8973 79.7544 -88.9371 79.9044 -88.847C80.0545 -88.757 80.0974 -88.5713 80.0002 -88.4322Z" fill="white"/>
<path d="M206.639 -90.8214C206.542 -90.6823 206.342 -90.6426 206.192 -90.7326C206.042 -90.8226 205.999 -91.0083 206.096 -91.1474C206.193 -91.2865 206.393 -91.3262 206.543 -91.2362C206.694 -91.1462 206.736 -90.9605 206.639 -90.8214Z" fill="white"/>
<path d="M25.5836 -10.5223C25.4865 -10.3832 25.2861 -10.3435 25.1361 -10.4335C24.986 -10.5235 24.9431 -10.7092 25.0402 -10.8483C25.1374 -10.9874 25.3378 -11.0271 25.4878 -10.9371C25.6379 -10.8471 25.6808 -10.6614 25.5836 -10.5223Z" fill="white"/>
<path d="M46.8524 26.3492C46.7552 26.4883 46.5548 26.5281 46.4048 26.438C46.2547 26.348 46.2118 26.1623 46.309 26.0232C46.4061 25.8842 46.6065 25.8444 46.7565 25.9344C46.9066 26.0244 46.9495 26.2102 46.8524 26.3492Z" fill="white"/>
<path d="M177.366 120.367C177.269 120.506 177.069 120.546 176.919 120.456C176.769 120.366 176.726 120.18 176.823 120.041C176.92 119.902 177.12 119.862 177.271 119.952C177.421 120.042 177.463 120.228 177.366 120.367Z" fill="white"/>
<path d="M99.3987 -87.5107C99.3015 -87.3716 99.1011 -87.3318 98.9511 -87.4218C98.801 -87.5119 98.7581 -87.6976 98.8552 -87.8367C98.9524 -87.9757 99.1528 -88.0155 99.3028 -87.9255C99.4529 -87.8354 99.4958 -87.6497 99.3987 -87.5107Z" fill="white"/>
<path d="M221.286 73.4882C221.189 73.6273 220.989 73.667 220.839 73.577C220.689 73.487 220.646 73.3013 220.743 73.1622C220.84 73.0231 221.041 72.9834 221.191 73.0734C221.341 73.1634 221.384 73.3491 221.286 73.4882Z" fill="white"/>
<path d="M263.066 21.3962C262.969 21.5353 262.769 21.5751 262.619 21.485C262.469 21.395 262.426 21.2093 262.523 21.0702C262.62 20.9311 262.82 20.8914 262.971 20.9814C263.121 21.0714 263.163 21.2571 263.066 21.3962Z" fill="white"/>
<path d="M118.899 -76.5261C118.802 -76.387 118.601 -76.3473 118.451 -76.4373C118.301 -76.5273 118.258 -76.713 118.355 -76.8521C118.453 -76.9912 118.653 -77.0309 118.803 -76.9409C118.953 -76.8509 118.996 -76.6652 118.899 -76.5261Z" fill="white"/>
<path d="M172.62 -32.8662C172.523 -32.7271 172.322 -32.6874 172.172 -32.7774C172.022 -32.8674 171.979 -33.0531 172.076 -33.1922C172.173 -33.3313 172.374 -33.371 172.524 -33.281C172.674 -33.191 172.717 -33.0053 172.62 -32.8662Z" fill="white"/>
<path d="M55.012 -103.424C54.9149 -103.285 54.7145 -103.245 54.5644 -103.335C54.4144 -103.425 54.3715 -103.611 54.4686 -103.75C54.5657 -103.889 54.7661 -103.928 54.9162 -103.838C55.0662 -103.748 55.1091 -103.563 55.012 -103.424Z" fill="white"/>
<path d="M0.595398 -25.5137C0.498263 -25.3746 0.297875 -25.3349 0.147819 -25.4249C-0.00223752 -25.5149 -0.0451396 -25.7006 0.0519957 -25.8397C0.149131 -25.9788 0.34952 -26.0185 0.499577 -25.9285C0.649633 -25.8385 0.692534 -25.6528 0.595398 -25.5137Z" fill="white"/>
<path d="M281.51 39.9629C281.413 40.102 281.213 40.1418 281.063 40.0517C280.913 39.9617 280.87 39.776 280.967 39.6369C281.064 39.4978 281.265 39.4581 281.415 39.5481C281.565 39.6381 281.608 39.8239 281.51 39.9629Z" fill="white"/>
<path d="M73.4561 -84.8569C73.359 -84.7178 73.1586 -84.6781 73.0085 -84.7681C72.8585 -84.8581 72.8156 -85.0438 72.9127 -85.1829C73.0098 -85.322 73.2102 -85.3617 73.3603 -85.2717C73.5103 -85.1817 73.5532 -84.996 73.4561 -84.8569Z" fill="white"/>
<path d="M230.451 -84.8665C230.354 -84.7274 230.153 -84.6876 230.003 -84.7777C229.853 -84.8677 229.81 -85.0534 229.907 -85.1925C230.004 -85.3316 230.205 -85.3713 230.355 -85.2813C230.505 -85.1913 230.548 -85.0056 230.451 -84.8665Z" fill="white"/>
<path d="M19.0395 -6.94697C18.9423 -6.8079 18.742 -6.76814 18.5919 -6.85817C18.4418 -6.94819 18.3989 -7.13391 18.4961 -7.27298C18.5932 -7.41206 18.7936 -7.45181 18.9437 -7.36179C19.0937 -7.27176 19.1366 -7.08604 19.0395 -6.94697Z" fill="white"/>
<path d="M40.3082 29.9245C40.2111 30.0636 40.0107 30.1034 39.8606 30.0133C39.7106 29.9233 39.6677 29.7376 39.7648 29.5985C39.8619 29.4595 40.0623 29.4197 40.2124 29.5097C40.3624 29.5997 40.4053 29.7855 40.3082 29.9245Z" fill="white"/>
<path d="M196.174 117.719C196.077 117.858 195.877 117.898 195.727 117.808C195.577 117.718 195.534 117.532 195.631 117.393C195.728 117.254 195.928 117.214 196.079 117.304C196.229 117.395 196.272 117.58 196.174 117.719Z" fill="white"/>
<path d="M118.207 -90.1582C118.109 -90.0191 117.909 -89.9794 117.759 -90.0694C117.609 -90.1594 117.566 -90.3451 117.663 -90.4842C117.76 -90.6233 117.961 -90.6631 118.111 -90.573C118.261 -90.483 118.304 -90.2973 118.207 -90.1582Z" fill="white"/>
<path d="M241.743 94.6913C241.646 94.8304 241.446 94.8702 241.296 94.7802C241.146 94.6901 241.103 94.5044 241.2 94.3653C241.297 94.2263 241.497 94.1865 241.648 94.2765C241.798 94.3666 241.841 94.5523 241.743 94.6913Z" fill="white"/>
<path d="M238.953 103.377C238.856 103.516 238.656 103.555 238.506 103.465C238.356 103.375 238.313 103.19 238.41 103.051C238.507 102.911 238.707 102.872 238.857 102.962C239.008 103.052 239.05 103.237 238.953 103.377Z" fill="white"/>
<path d="M234.317 34.69C234.22 34.829 234.02 34.8688 233.87 34.7788C233.72 34.6888 233.677 34.503 233.774 34.364C233.871 34.2249 234.071 34.1851 234.221 34.2751C234.371 34.3652 234.414 34.5509 234.317 34.69Z" fill="white"/>
<path d="M267.796 59.5978C267.699 59.7369 267.499 59.7766 267.349 59.6866C267.199 59.5966 267.156 59.4109 267.253 59.2718C267.35 59.1327 267.551 59.093 267.701 59.183C267.851 59.273 267.894 59.4587 267.796 59.5978Z" fill="white"/>
<path d="M59.742 -65.2221C59.6449 -65.083 59.4445 -65.0432 59.2945 -65.1333C59.1444 -65.2233 59.1015 -65.409 59.1986 -65.5481C59.2958 -65.6871 59.4962 -65.7269 59.6462 -65.6369C59.7963 -65.5468 59.8392 -65.3611 59.742 -65.2221Z" fill="white"/>
<path d="M5.32543 12.6879C5.2283 12.8269 5.02791 12.8667 4.87785 12.7767C4.7278 12.6866 4.68489 12.5009 4.78203 12.3619C4.87916 12.2228 5.07955 12.183 5.22961 12.273C5.37967 12.3631 5.42257 12.5488 5.32543 12.6879Z" fill="white"/>
<path d="M235.802 118.097C235.705 118.236 235.505 118.275 235.355 118.185C235.205 118.095 235.162 117.91 235.259 117.771C235.356 117.631 235.557 117.592 235.707 117.682C235.857 117.772 235.9 117.957 235.802 118.097Z" fill="white"/>
<path d="M289.567 26.2213C289.47 26.3604 289.269 26.4001 289.119 26.3101C288.969 26.2201 288.926 26.0344 289.023 25.8953C289.12 25.7562 289.321 25.7165 289.471 25.8065C289.621 25.8965 289.664 26.0822 289.567 26.2213Z" fill="white"/>
<path d="M199.12 -28.0411C199.023 -27.9021 198.823 -27.8623 198.672 -27.9523C198.522 -28.0423 198.48 -28.2281 198.577 -28.3671C198.674 -28.5062 198.874 -28.546 199.024 -28.4559C199.174 -28.3659 199.217 -28.1802 199.12 -28.0411Z" fill="white"/>
<path d="M62.0686 45.1228C61.9715 45.2619 61.7711 45.3016 61.621 45.2116C61.471 45.1216 61.4281 44.9359 61.5252 44.7968C61.6223 44.6577 61.8227 44.618 61.9728 44.708C62.1228 44.798 62.1657 44.9837 62.0686 45.1228Z" fill="white"/>
<path d="M289.298 10.8787C289.201 11.0178 289.001 11.0576 288.851 10.9675C288.7 10.8775 288.658 10.6918 288.755 10.5527C288.852 10.4137 289.052 10.3739 289.202 10.4639C289.352 10.5539 289.395 10.7397 289.298 10.8787Z" fill="white"/>
<path d="M198.852 -43.3837C198.754 -43.2446 198.554 -43.2048 198.404 -43.2949C198.254 -43.3849 198.211 -43.5706 198.308 -43.7097C198.405 -43.8488 198.606 -43.8885 198.756 -43.7985C198.906 -43.7085 198.949 -43.5228 198.852 -43.3837Z" fill="white"/>
<path d="M258.308 5.86037C258.211 5.99944 258.01 6.03921 257.86 5.94918C257.71 5.85915 257.667 5.67344 257.764 5.53436C257.861 5.39529 258.062 5.35553 258.212 5.44555C258.362 5.53558 258.405 5.7213 258.308 5.86037Z" fill="white"/>
<path d="M167.861 -48.4021C167.764 -48.263 167.564 -48.2232 167.414 -48.3133C167.263 -48.4033 167.221 -48.589 167.318 -48.7281C167.415 -48.8671 167.615 -48.9069 167.765 -48.8169C167.915 -48.7269 167.958 -48.5411 167.861 -48.4021Z" fill="white"/>
<path d="M249.765 16.9881C249.668 17.1272 249.467 17.1669 249.317 17.0769C249.167 16.9869 249.124 16.8012 249.221 16.6621C249.318 16.523 249.519 16.4833 249.669 16.5733C249.819 16.6633 249.862 16.849 249.765 16.9881Z" fill="white"/>
<path d="M105.597 -80.9342C105.5 -80.7952 105.3 -80.7554 105.15 -80.8454C105 -80.9355 104.957 -81.1212 105.054 -81.2603C105.151 -81.3993 105.351 -81.4391 105.501 -81.3491C105.651 -81.259 105.694 -81.0733 105.597 -80.9342Z" fill="white"/>
<path d="M86.8652 59.2849C86.7681 59.4239 86.5677 59.4637 86.4177 59.3737C86.2676 59.2836 86.2247 59.0979 86.3218 58.9588C86.419 58.8198 86.6194 58.78 86.7694 58.87C86.9195 58.9601 86.9624 59.1458 86.8652 59.2849Z" fill="white"/>
<path d="M286.593 31.5818C286.496 31.7208 286.296 31.7606 286.146 31.6706C285.996 31.5806 285.953 31.3948 286.05 31.2558C286.147 31.1167 286.348 31.0769 286.498 31.167C286.648 31.257 286.691 31.4427 286.593 31.5818Z" fill="white"/>
<path d="M196.147 -22.6806C196.05 -22.5416 195.849 -22.5018 195.699 -22.5918C195.549 -22.6819 195.506 -22.8676 195.603 -23.0067C195.701 -23.1457 195.901 -23.1855 196.051 -23.0955C196.201 -23.0054 196.244 -22.8197 196.147 -22.6806Z" fill="white"/>
<path d="M234.161 -22.2001C234.064 -22.0611 233.863 -22.0213 233.713 -22.1113C233.563 -22.2014 233.52 -22.3871 233.618 -22.5262C233.715 -22.6652 233.915 -22.705 234.065 -22.615C234.215 -22.5249 234.258 -22.3392 234.161 -22.2001Z" fill="white"/>
<path d="M78.5391 -93.2381C78.442 -93.099 78.2416 -93.0592 78.0915 -93.1493C77.9415 -93.2393 77.8986 -93.425 77.9957 -93.5641C78.0928 -93.7032 78.2932 -93.7429 78.4433 -93.6529C78.5933 -93.5629 78.6362 -93.3771 78.5391 -93.2381Z" fill="white"/>
<path d="M24.1226 -15.3282C24.0254 -15.1892 23.825 -15.1494 23.675 -15.2394C23.5249 -15.3295 23.482 -15.5152 23.5792 -15.6543C23.6763 -15.7933 23.8767 -15.8331 24.0267 -15.743C24.1768 -15.653 24.2197 -15.4673 24.1226 -15.3282Z" fill="white"/>
<path d="M45.3912 21.5434C45.2941 21.6825 45.0937 21.7222 44.9436 21.6322C44.7936 21.5422 44.7507 21.3565 44.8478 21.2174C44.9449 21.0783 45.1453 21.0385 45.2954 21.1286C45.4454 21.2186 45.4883 21.4043 45.3912 21.5434Z" fill="white"/>
<path d="M12.7664 -40.1802C12.6693 -40.0412 12.4689 -40.0014 12.3188 -40.0914C12.1688 -40.1814 12.1259 -40.3672 12.223 -40.5062C12.3202 -40.6453 12.5205 -40.6851 12.6706 -40.595C12.8207 -40.505 12.8636 -40.3193 12.7664 -40.1802Z" fill="white"/>
<path d="M113.549 67.4345C113.452 67.5736 113.251 67.6134 113.101 67.5233C112.951 67.4333 112.908 67.2476 113.005 67.1085C113.102 66.9695 113.303 66.9297 113.453 67.0197C113.603 67.1098 113.646 67.2955 113.549 67.4345Z" fill="white"/>
<path d="M155.817 88.8637C155.72 89.0028 155.52 89.0425 155.369 88.9525C155.219 88.8625 155.176 88.6768 155.274 88.5377C155.371 88.3986 155.571 88.3589 155.721 88.4489C155.871 88.5389 155.914 88.7246 155.817 88.8637Z" fill="white"/>
<path d="M184.28 105.226C184.183 105.365 183.983 105.404 183.833 105.314C183.683 105.224 183.64 105.039 183.737 104.9C183.834 104.761 184.035 104.721 184.185 104.811C184.335 104.901 184.378 105.087 184.28 105.226Z" fill="white"/>
<path d="M273.248 5.71485C273.151 5.85393 272.951 5.89368 272.801 5.80366C272.651 5.71363 272.608 5.52792 272.705 5.38884C272.802 5.24977 273.002 5.21001 273.152 5.30004C273.302 5.39006 273.345 5.57578 273.248 5.71485Z" fill="white"/>
<path d="M182.802 -48.5475C182.704 -48.4085 182.504 -48.3687 182.354 -48.4587C182.204 -48.5488 182.161 -48.7345 182.258 -48.8736C182.355 -49.0126 182.556 -49.0524 182.706 -48.9624C182.856 -48.8723 182.899 -48.6866 182.802 -48.5475Z" fill="white"/>
<path d="M236.125 -13.6992C236.028 -13.5602 235.827 -13.5204 235.677 -13.6105C235.527 -13.7005 235.484 -13.8862 235.581 -14.0253C235.678 -14.1643 235.879 -14.2041 236.029 -14.1141C236.179 -14.024 236.222 -13.8383 236.125 -13.6992Z" fill="white"/>
<path d="M145.678 -67.9617C145.581 -67.8226 145.381 -67.7828 145.231 -67.8729C145.08 -67.9629 145.038 -68.1486 145.135 -68.2877C145.232 -68.4267 145.432 -68.4665 145.582 -68.3765C145.732 -68.2865 145.775 -68.1007 145.678 -67.9617Z" fill="white"/>
<path d="M244.542 3.49589C244.445 3.63496 244.245 3.67471 244.095 3.58469C243.945 3.49467 243.902 3.30894 243.999 3.16988C244.096 3.03081 244.296 2.99105 244.446 3.08108C244.596 3.1711 244.639 3.35682 244.542 3.49589Z" fill="white"/>
<path d="M154.096 -50.7665C153.998 -50.6274 153.798 -50.5877 153.648 -50.6777C153.498 -50.7677 153.455 -50.9535 153.552 -51.0925C153.649 -51.2316 153.85 -51.2714 154 -51.1813C154.15 -51.0913 154.193 -50.9056 154.096 -50.7665Z" fill="white"/>
<path d="M293.262 42.7269C293.165 42.866 292.965 42.9057 292.815 42.8157C292.665 42.7257 292.622 42.54 292.719 42.4009C292.816 42.2618 293.017 42.2221 293.167 42.3121C293.317 42.4021 293.36 42.5878 293.262 42.7269Z" fill="white"/>
<path d="M85.2082 -82.0929C85.111 -81.9538 84.9107 -81.9141 84.7606 -82.0041C84.6105 -82.0941 84.5676 -82.2799 84.6648 -82.4189C84.7619 -82.558 84.9623 -82.5978 85.1124 -82.5077C85.2624 -82.4177 85.3053 -82.232 85.2082 -82.0929Z" fill="white"/>
<path d="M30.7916 -4.18301C30.6944 -4.04395 30.4941 -4.00418 30.344 -4.0942C30.1939 -4.18423 30.151 -4.36996 30.2482 -4.50903C30.3453 -4.6481 30.5457 -4.68786 30.6958 -4.59783C30.8458 -4.5078 30.8887 -4.32209 30.7916 -4.18301Z" fill="white"/>
<path d="M52.0602 32.6886C51.9631 32.8276 51.7627 32.8674 51.6127 32.7774C51.4626 32.6873 51.4197 32.5016 51.5168 32.3625C51.614 32.2235 51.8144 32.1837 51.9644 32.2737C52.1145 32.3638 52.1574 32.5495 52.0602 32.6886Z" fill="white"/>
<path d="M143.039 101.916C142.942 102.055 142.742 102.095 142.591 102.005C142.441 101.915 142.398 101.729 142.496 101.59C142.593 101.451 142.793 101.411 142.943 101.501C143.093 101.591 143.136 101.777 143.039 101.916Z" fill="white"/>
<path d="M65.0714 -105.962C64.9742 -105.823 64.7738 -105.783 64.6238 -105.873C64.4737 -105.963 64.4308 -106.149 64.528 -106.288C64.6251 -106.427 64.8255 -106.467 64.9755 -106.377C65.1256 -106.287 65.1685 -106.101 65.0714 -105.962Z" fill="white"/>
<path d="M217.032 95.583C216.934 95.7221 216.734 95.7619 216.584 95.6718C216.434 95.5818 216.391 95.3961 216.488 95.257C216.585 95.118 216.786 95.0782 216.936 95.1682C217.086 95.2582 217.129 95.444 217.032 95.583Z" fill="white"/>
<path d="M225.474 108.328C225.377 108.467 225.176 108.507 225.026 108.417C224.876 108.327 224.833 108.141 224.93 108.002C225.028 107.863 225.228 107.823 225.378 107.913C225.528 108.003 225.571 108.189 225.474 108.328Z" fill="white"/>
<path d="M74.329 -55.7564C74.2319 -55.6173 74.0315 -55.5776 73.8815 -55.6676C73.7314 -55.7576 73.6885 -55.9433 73.7856 -56.0824C73.8828 -56.2215 74.0832 -56.2612 74.2332 -56.1712C74.3833 -56.0812 74.4262 -55.8955 74.329 -55.7564Z" fill="white"/>
<path d="M19.9124 22.1536C19.8153 22.2926 19.6149 22.3324 19.4648 22.2424C19.3148 22.1523 19.2719 21.9666 19.369 21.8276C19.4661 21.6885 19.6665 21.6487 19.8166 21.7387C19.9666 21.8288 20.0095 22.0145 19.9124 22.1536Z" fill="white"/>
<path d="M51.6112 93.3314C51.6112 94.1759 50.8725 94.8605 49.9614 94.8605C49.0502 94.8605 48.3115 94.1759 48.3115 93.3314C48.3115 92.487 49.0502 91.8024 49.9614 91.8024C50.8725 91.8024 51.6112 92.487 51.6112 93.3314Z" fill="white"/>
<path d="M94.6984 -71.6551C94.6984 -70.8106 93.9597 -70.1261 93.0486 -70.1261C92.1374 -70.1261 91.3988 -70.8106 91.3988 -71.6551C91.3988 -72.4996 92.1374 -73.1841 93.0486 -73.1841C93.9597 -73.1841 94.6984 -72.4996 94.6984 -71.6551Z" fill="white"/>
<path d="M233.031 99.9869C233.031 100.831 232.292 101.516 231.381 101.516C230.47 101.516 229.731 100.831 229.731 99.9869C229.731 99.1425 230.47 98.4579 231.381 98.4579C232.292 98.4579 233.031 99.1425 233.031 99.9869Z" fill="white"/>
<path d="M42.9181 12.4145C42.9181 13.2589 42.1795 13.9435 41.2683 13.9435C40.3572 13.9435 39.6185 13.2589 39.6185 12.4145C39.6185 11.57 40.3572 10.8854 41.2683 10.8854C42.1795 10.8854 42.9181 11.57 42.9181 12.4145Z" fill="white"/>
<path d="M292.748 -74.4574C292.748 -73.613 292.01 -72.9284 291.099 -72.9284C290.187 -72.9284 289.449 -73.613 289.449 -74.4574C289.449 -75.3019 290.187 -75.9865 291.099 -75.9865C292.01 -75.9865 292.748 -75.3019 292.748 -74.4574Z" fill="white"/>
</g>
</g>
<path fill-rule="evenodd" clip-rule="evenodd" d="M114.589 54.5546C115.864 56.506 114.886 59.8753 114.886 59.8753C115.103 63.398 117.408 69.2736 117.408 69.2736C121.67 82.4511 112.885 82.9295 112.885 82.9295C108.145 82.6685 103.144 78.624 103.144 78.624C97.8378 74.0575 103.405 67.7949 103.405 67.7949C107.536 62.9675 107.797 56.183 107.797 56.183C107.797 56.183 108.249 54.0612 109.848 53.3231C112.647 51.97 114.589 54.5546 114.589 54.5546Z" fill="#2D97AD"/>
<path fill-rule="evenodd" clip-rule="evenodd" d="M115.549 54.0044C116.824 56.0211 115.846 59.5031 115.846 59.5031C116.064 63.1436 118.369 69.2157 118.369 69.2157C122.631 82.834 113.846 83.3283 113.846 83.3283C109.105 83.0587 104.104 78.8788 104.104 78.8788C98.7983 74.1596 104.365 67.6876 104.365 67.6876C108.497 62.6987 107.714 55.7308 107.714 55.7308C107.714 55.7308 109.209 53.4944 110.809 52.7317C113.607 51.3334 115.549 54.0044 115.549 54.0044Z" fill="#0D6E83"/>
<path fill-rule="evenodd" clip-rule="evenodd" d="M111.562 56.2295C111.685 61.0884 108.18 66.0702 108.18 66.0702C106.642 68.4074 106.15 69.699 106.15 69.699C103.966 74.7423 107.072 79.9395 107.072 79.9395C109.902 84.4908 115.253 84.3985 115.253 84.3985C122.203 84.9213 125.893 81.5078 125.893 81.5078C125.893 81.5078 130.905 78.2788 128.537 69.0839C128.537 69.0839 126.569 62.38 126.508 60.2888C126.508 60.2888 126.815 55.0917 122.541 52.5393C113.008 48.6337 111.562 56.2295 111.562 56.2295Z" fill="#E8E8E8"/>
<path fill-rule="evenodd" clip-rule="evenodd" d="M117.653 51.4678C118.978 51.4721 120.58 51.7909 122.517 52.5842C126.791 55.1367 126.484 60.3339 126.484 60.3339C126.506 61.1049 126.789 62.5037 127.136 63.9616C125.677 64.2112 123.105 64.2928 121.178 62.1847C121.178 62.1847 119.699 59.8582 117.481 60.9454C117.481 60.9454 116.285 62.0762 113.698 61.7935C113.698 61.7935 112.349 61.8804 111.828 62.6633C111.828 62.6633 111.21 64.167 109.902 62.9967C110.76 61.1462 111.599 58.6952 111.538 56.2745C111.538 56.2745 112.456 51.451 117.653 51.4678Z" fill="#CFCFCF"/>
<path fill-rule="evenodd" clip-rule="evenodd" d="M128.778 73.7109C128.734 80.0666 125.754 81.6861 125.754 81.6861C125.754 81.6861 121.51 85.0073 115.114 84.5767C115.114 84.5767 109.868 84.4575 107.039 79.9062C107.039 79.9062 105.722 77.7707 105.453 75.0961C111.982 80.5914 117.975 79.888 117.975 79.888C123.909 79.5052 127.359 75.7086 128.778 73.7109Z" fill="#CFCFCF"/>
<path fill-rule="evenodd" clip-rule="evenodd" d="M129.169 60.6041C131.875 62.5108 131.596 66.8722 131.596 66.8722C133.575 67.3071 134.053 70.6124 134.053 70.6124C135.923 70.0252 135.989 72.4172 135.989 72.4172C137.032 70.9603 138.179 71.3367 138.179 71.3367C140.147 71.8287 139.502 75.4267 139.502 75.4267C138.702 80.9006 133.72 83.6683 133.72 83.6683C127.539 86.3437 122.219 81.6386 122.219 81.6386C118.313 77.6716 120.31 72.9173 120.31 72.9173C120.832 71.3517 122.659 67.6115 122.659 67.6115C124.703 62.9581 123.181 59.3049 123.181 59.3049C123.181 59.3049 122.28 57.4674 124.833 58.1747C127.539 59.2203 129.169 60.6041 129.169 60.6041Z" fill="#0C6E84"/>
<path fill-rule="evenodd" clip-rule="evenodd" d="M82.9833 52.3455C83.3314 57.9123 92.1163 59.9998 92.1163 59.9998C103.554 63.0006 111.72 58.0147 111.72 58.0147C113.811 56.8461 115.656 58.0147 115.656 58.0147C115.656 58.0147 128.634 63.4271 134.477 63.5501C134.477 63.5501 145.348 65.0881 148.697 57.086C148.697 57.086 149.099 59.4453 151.557 58.3907C151.557 58.3907 154.286 57.3469 153.177 51.9759C153.177 51.9759 154.204 53.3711 155.819 52.6946C155.819 52.6946 158.863 51.3415 158.279 46.5134C158.279 46.5134 157.656 40.5597 155.394 38.4287C155.394 38.4287 157.618 38.8561 158.463 37.6721C158.463 37.6721 160.17 35.7348 158.617 33.167C158.617 33.167 156.09 29.0131 152.589 27.7736C152.589 27.7736 155.09 26.9908 155.569 25.4142C155.569 25.4142 156.873 22.4895 152.111 22.707C152.111 22.707 153.881 18.8364 152.62 15.5459C152.62 15.5459 151.606 12.809 148.838 11.4252C148.838 11.4252 146.624 10.2873 146.593 12.5015C146.593 12.5015 146.9 17.7294 143.948 18.9287C143.948 18.9287 141.765 19.636 139.182 18.4367C139.182 18.4367 134.476 16.2487 132.954 15.3354C132.954 15.3354 127.691 12.2476 125.386 13.0739C125.386 13.0739 122.733 13.5523 121.211 15.7268C121.211 15.7268 121.684 14.4081 120.577 13.7008C120.577 13.7008 119.039 12.9935 118.147 14.0698C118.147 14.0698 118.778 11.6558 116.902 11.1023C116.902 11.1023 114.395 10.1951 112.95 13.8238C112.95 13.8238 112.578 12.3998 111.056 12.5738C111.056 12.5738 109.621 12.5085 109.556 14.4221C109.556 14.4221 109.469 15.792 109.578 16.5966C109.578 16.5966 106.107 12.5085 101.453 14.1612C101.453 14.1612 98.4278 15.099 95.8692 17.4431C95.8692 17.4431 92.9303 20.128 89.4553 19.144C89.4553 19.144 88.2674 18.6624 88.5718 17.0315C88.5718 17.0315 88.9416 15.4441 87.4847 15.2267C87.4847 15.2267 85.5928 14.6613 84.3098 18.01C84.3098 18.01 83.3749 21.6415 84.3316 23.8595C84.3316 23.8595 80.9394 24.5553 80.4175 27.6431C80.4175 27.6431 80.0261 30.2525 81.6787 31.2093C81.6787 31.2093 78.7213 34.2536 79.1563 37.9068C79.1563 37.9068 79.1563 39.7334 80.9394 40.6467C80.9394 40.6467 78.3538 43.3152 79.1534 48.3893C79.1534 48.3893 79.7711 52.2732 82.9833 52.3455Z" fill="#17849B"/>
<path fill-rule="evenodd" clip-rule="evenodd" d="M113.322 51.8916C116.254 51.9003 118.226 54.616 118.226 54.616C118.41 55.0158 118.872 55.6 118.872 55.6C122.562 61.3199 131.111 63.0421 131.111 63.0421C131.111 63.0421 131.094 63.1098 131.089 63.132C124.706 61.8005 115.735 58.0602 115.735 58.0602C115.735 58.0602 113.89 56.8916 111.799 58.0602C111.799 58.0602 107.87 60.4581 101.647 60.9268C105.133 60.1643 106.24 59.249 106.24 59.249C107.483 58.4127 107.739 57.2586 107.739 57.2586C108.077 54.3986 110.107 52.9861 110.107 52.9861C111.26 52.1866 112.344 51.8887 113.322 51.8916Z" fill="#0C6E84"/>
<path d="M144.894 40.5798C144.869 36.4167 143.378 32.4348 140.747 29.5082C138.116 26.5816 134.561 24.9496 130.863 24.9704C127.164 24.9912 123.624 26.6632 121.019 29.6192C118.415 32.5753 116.959 36.5738 116.971 40.737C116.983 44.9001 118.463 48.8876 121.085 51.8241C123.707 54.7605 127.257 56.4059 130.956 56.3989C134.655 56.392 138.2 54.7333 140.813 51.7871C143.426 48.8408 144.894 44.8478 144.894 40.6846" fill="#329CB2"/>
<path fill-rule="evenodd" clip-rule="evenodd" d="M113.876 59.4681C111.629 59.7062 110.792 61.8896 110.792 61.8896C110.5 62.3048 110.192 62.028 110.192 62.028C108.962 61.2592 108.47 59.6601 108.47 59.6601C107.825 57.2922 109.393 55.2318 109.393 55.2318C110.992 52.6179 113.821 53.2329 113.821 53.2329C113.821 53.2329 117.219 54.217 118.05 56.8155C118.05 56.8155 118.699 58.7341 117.177 59.3799C117.177 59.3799 116.758 59.5832 115.451 59.491C115.451 59.491 114.539 59.4276 113.876 59.4681Z" fill="#E6AD4F"/>
<path fill-rule="evenodd" clip-rule="evenodd" d="M113.108 53.1676C113.215 53.1688 113.308 53.173 113.394 53.179C108.959 56.959 110.492 62.0563 110.492 62.0563C110.492 62.0563 110.489 62.0985 110.487 62.1091C110.315 62.1421 110.184 62.0256 110.184 62.0256C108.954 61.2568 108.463 59.6577 108.463 59.6577C107.817 57.2898 109.385 55.2294 109.385 55.2294C110.485 53.4323 112.165 53.1614 113.109 53.1676L113.108 53.1676Z" fill="#D38200"/>
<path d="M146.257 38.7797C146.232 34.0751 144.701 29.5752 142.002 26.2679C139.303 22.9607 135.656 21.1163 131.86 21.1399C128.065 21.1634 124.433 23.0528 121.76 26.3934C119.088 29.734 117.594 34.2526 117.607 38.9573C117.62 43.6619 119.138 48.1681 121.828 51.4865C124.518 54.8049 128.161 56.6643 131.956 56.6564C135.751 56.6486 139.389 54.7742 142.07 51.4447C144.751 48.1152 146.257 43.6028 146.257 38.8981" fill="#0B5D71"/>
<path d="M145.919 39.4558C145.894 35.2927 144.403 31.3108 141.772 28.3842C139.141 25.4576 135.586 23.8256 131.888 23.8464C128.189 23.8672 124.649 25.5392 122.044 28.4952C119.44 31.4513 117.984 35.4498 117.996 39.6129C118.008 43.7761 119.488 47.7636 122.11 50.7C124.732 53.6365 128.282 55.2818 131.981 55.2749C135.679 55.268 139.225 53.6093 141.838 50.663C144.451 47.7168 145.919 43.7237 145.919 39.5606" fill="#F4F4F4"/>
<path d="M113.776 40.3708C113.751 36.2077 112.26 32.2258 109.629 29.2992C106.998 26.3726 103.443 24.7406 99.7446 24.7614C96.0458 24.7822 92.5056 26.4542 89.901 29.4103C87.2965 32.3663 85.8406 36.3648 85.8529 40.528C85.8653 44.6911 87.3448 48.6786 89.9668 51.6151C92.5888 54.5515 96.1389 56.1969 99.8376 56.1899C103.536 56.183 107.082 54.5243 109.695 51.5781C112.308 48.6318 113.776 44.6388 113.776 40.4756" fill="#329CB2"/>
<path d="M113.203 38.5575C113.177 33.8529 111.647 29.353 108.948 26.0458C106.249 22.7385 102.601 20.8942 98.8062 20.9177C95.0111 20.9412 91.3786 22.8307 88.7062 26.1712C86.0339 29.5118 84.5401 34.0304 84.5527 38.7351C84.5654 43.4398 86.0834 47.9459 88.7737 51.2643C91.464 54.5827 95.1066 56.4421 98.9018 56.4343C102.697 56.4264 106.334 54.552 109.016 51.2225C111.697 47.893 113.203 43.3806 113.203 38.6759" fill="#0B5D71"/>
<path d="M112.724 39.1897C112.699 35.0266 111.208 31.0447 108.577 28.1181C105.946 25.1915 102.392 23.5595 98.6928 23.5803C94.9941 23.6011 91.4538 25.2731 88.8493 28.2291C86.2448 31.1852 84.7889 35.1837 84.8012 39.3468C84.8135 43.51 86.2931 47.4975 88.9151 50.4339C91.537 53.3704 95.0871 55.0157 98.7859 55.0088C102.485 55.0019 106.03 53.3432 108.643 50.3969C111.256 47.4507 112.724 43.4576 112.724 39.2944" fill="#F4F4F4"/>
<path d="M92.932 34.7214C91.6207 39.994 94.5085 45.4088 99.3821 46.8157C104.256 48.2227 109.269 45.089 110.581 39.8164C111.892 34.5438 109.004 29.129 104.131 27.722C99.2571 26.3151 94.2433 29.4488 92.932 34.7214Z" fill="#E5AA4D"/>
<path d="M94.1872 35.0837C93.0624 39.6064 95.5394 44.251 99.7198 45.4578C103.9 46.6646 108.201 43.9767 109.326 39.4541C110.45 34.9314 107.973 30.2868 103.793 29.08C99.6126 27.8731 95.312 30.5611 94.1872 35.0837Z" fill="#D58508"/>
<path d="M95.2412 35.4644C94.2639 39.3939 96.4162 43.4295 100.048 44.4781C103.681 45.5266 107.417 43.1912 108.395 39.2616C109.372 35.332 107.22 31.2965 103.587 30.2479C99.9552 29.1993 96.2185 31.5348 95.2412 35.4644Z" fill="#1C0E02"/>
<path d="M104.082 31.8591C103.768 33.1207 104.459 34.4163 105.625 34.7529C106.791 35.0896 107.991 34.3398 108.304 33.0782C108.618 31.8167 107.927 30.521 106.761 30.1844C105.595 29.8478 104.395 30.5976 104.082 31.8591Z" fill="#FEFEFE"/>
<path d="M125.692 34.0676C124.381 39.3402 127.269 44.755 132.142 46.1619C137.016 47.5689 142.03 44.4352 143.341 39.1626C144.652 33.89 141.765 28.4752 136.891 27.0682C132.017 25.6613 127.004 28.795 125.692 34.0676Z" fill="#E5AA4D"/>
<path d="M126.947 34.4299C125.823 38.9526 128.3 43.5972 132.48 44.804C136.66 46.0108 140.961 43.3229 142.086 38.8002C143.211 34.2776 140.734 29.633 136.553 28.4262C132.373 27.2193 128.072 29.9073 126.947 34.4299Z" fill="#D58508"/>
<path d="M128.002 34.8106C127.025 38.7401 129.177 42.7757 132.809 43.8242C136.441 44.8728 140.178 42.5373 141.155 38.6078C142.133 34.6782 139.98 30.6426 136.348 29.5941C132.716 28.5455 128.979 30.881 128.002 34.8106Z" fill="#1C0E02"/>
<path d="M136.842 31.2053C136.528 32.4669 137.219 33.7625 138.385 34.0991C139.551 34.4358 140.751 33.686 141.065 32.4244C141.378 31.1628 140.687 29.8672 139.521 29.5306C138.355 29.194 137.156 29.9438 136.842 31.2053Z" fill="#FEFEFE"/>
<path fill-rule="evenodd" clip-rule="evenodd" d="M147.723 11.1335C148.28 11.1412 148.834 11.4256 148.834 11.4256C151.602 12.8094 152.616 15.5463 152.616 15.5463C153.877 18.8368 152.107 22.7073 152.107 22.7073C156.869 22.4899 155.565 25.4147 155.565 25.4147C155.086 26.9912 152.585 27.774 152.585 27.774C156.086 29.0135 158.613 33.1674 158.613 33.1674C160.166 35.7352 158.459 37.6725 158.459 37.6725C157.614 38.8565 155.391 38.4291 155.391 38.4291C157.652 40.5601 158.275 46.5139 158.275 46.5139C158.859 51.342 155.815 52.695 155.815 52.695C154.2 53.3716 153.173 51.9763 153.173 51.9763C154.282 57.3473 151.553 58.391 151.553 58.391C149.095 59.4456 148.693 57.0864 148.693 57.0864C145.344 65.0886 134.472 63.5506 134.472 63.5506C134.46 63.5506 134.447 63.5494 134.434 63.5491C136.01 63.5284 144.757 63.049 147.942 55.0013C147.942 55.0013 148.997 56.8253 150.476 56.2599C150.476 56.2599 152.651 55.8251 152.303 50.041C152.303 50.041 153.478 51.803 154.769 50.9112C154.769 50.9112 156.737 50.1426 156.614 46.2986C156.614 46.2986 157.045 40.0558 149.234 33.5979C149.234 33.5979 151.817 34.8895 154.831 36.8577C154.831 36.8577 155.826 37.7114 156.674 37.4722C156.674 37.4722 158.609 37.3852 157.565 34.3844C157.565 34.3844 156.307 29.8461 146.958 26.2173C146.958 26.2173 152.607 27.6869 153.999 25.8603C153.999 25.8603 155.304 24.3381 153.738 23.6858C153.738 23.6858 153.172 23.2945 149.258 23.2945C149.258 23.2945 152.172 21.033 152.085 17.4233C152.085 17.4233 152.085 13.6396 148.041 12.4653C148.041 12.4653 147.084 12.3348 147.954 14.2049C147.954 14.2049 149.215 19.3802 142.865 20.2935C142.865 20.2935 140.343 20.7285 136.168 18.3366C136.168 18.3366 130.514 14.5964 126.383 14.5964C126.383 14.5964 122.382 14.3791 119.598 18.7281C119.598 18.7281 120.454 16.9423 121.282 15.4048C121.252 15.6004 121.207 15.727 121.207 15.727C122.73 13.5525 125.382 13.0742 125.382 13.0742C127.687 12.2479 132.95 15.3358 132.95 15.3358C134.472 16.2491 139.178 18.437 139.178 18.437C141.761 19.6363 143.944 18.929 143.944 18.929C146.897 17.7297 146.589 12.5017 146.589 12.5017C146.604 11.3947 147.166 11.1258 147.723 11.1335V11.1335Z" fill="#0C6E84"/>
<path fill-rule="evenodd" clip-rule="evenodd" d="M110.663 12.8115C110.663 12.8115 109.611 16.6696 112.091 19.9765C112.091 19.9765 110.358 19.1344 109.607 16.7795C109.607 16.7795 109.235 14.4903 109.811 13.3281C109.811 13.3281 110.15 12.6803 110.663 12.8115Z" fill="#329CB2"/>
<path fill-rule="evenodd" clip-rule="evenodd" d="M103.54 13.7483C107.107 13.6651 109.578 16.5755 109.578 16.5755C109.575 16.5523 109.574 16.5247 109.571 16.5006C110.015 17.2123 110.393 17.9559 110.644 18.7065C110.644 18.7065 106.686 13.7487 102.468 15.1839C102.468 15.1839 100.032 15.6622 96.5095 18.7065C96.5095 18.7065 93.1933 22.1533 88.9313 20.1093C88.7612 19.8741 87.3217 19.1065 87.4267 16.9703C87.4267 16.9703 87.6419 15.9862 86.8115 16.4782C86.8115 16.4782 83.8104 18.2718 85.55 23.2297C85.55 23.2297 86.0719 24.4472 87.6376 23.7296C87.6376 23.7296 87.5188 24.5353 86.1042 24.5968C86.1042 24.5968 83.7362 24.443 82.5368 25.9191C82.5368 25.9191 80.9994 28.4715 82.1987 29.8553C82.1987 29.8553 84.1053 31.0241 84.997 29.2712C84.997 29.2712 85.1509 30.5935 83.7363 31.27C83.7363 31.27 83.5059 31.471 82.6579 31.471C82.6579 31.471 80.1996 33.2381 79.9844 37.4511C79.9844 37.4511 79.6462 39.2348 82.3217 39.2963L83.0596 39.3272C83.0596 39.3272 81.5527 40.2189 80.5072 42.9865C80.5072 42.9865 78.6134 49.389 82.3535 51.1503C82.3535 51.1503 84.2238 51.933 84.8545 50.1064C84.8545 50.1064 84.9414 51.433 84.2456 52.2158C84.2456 52.2158 83.2195 57.4773 96.3778 60.7694C95.0191 60.6204 93.5957 60.3667 92.117 59.9788C92.117 59.9788 83.3321 57.8912 82.984 52.3245C79.7718 52.2522 79.1542 48.3683 79.1542 48.3683C78.3546 43.2942 80.9401 40.6255 80.9401 40.6255C79.157 39.7122 79.1569 37.8857 79.1569 37.8857C78.722 34.2325 81.6794 31.1882 81.6794 31.1882C80.0269 30.2314 80.4183 27.6221 80.4183 27.6221C80.9402 24.5343 84.3323 23.8386 84.3323 23.8386C83.3755 21.6206 84.3108 17.989 84.3108 17.989C85.5938 14.6402 87.4853 15.2055 87.4853 15.2055C88.9422 15.423 88.5728 17.0105 88.5728 17.0105C88.2684 18.6414 89.4561 19.123 89.4561 19.123C92.9311 20.107 95.8701 17.4222 95.8701 17.4222C98.4287 15.0781 101.454 14.14 101.454 14.14C102.181 13.8818 102.879 13.7637 103.54 13.7483H103.54Z" fill="#0C6E84"/>
<path fill-rule="evenodd" clip-rule="evenodd" d="M120.515 13.7001C120.515 13.7001 117.938 13.9937 116.96 18.3101C116.96 18.3101 117.003 16.7227 117.536 14.8308C117.536 14.8308 118.515 13.3957 120.515 13.7001Z" fill="#329CB2"/>
<path fill-rule="evenodd" clip-rule="evenodd" d="M114.277 13.1796C112.624 15.4012 113.32 18.3244 113.32 18.3244C113.516 14.4424 117.18 11.9358 117.18 11.9358C117.18 11.9358 116.603 11.4023 116.06 11.5192C116.06 11.5192 115.299 11.4958 114.277 13.1796Z" fill="#329CB2"/>
<path fill-rule="evenodd" clip-rule="evenodd" d="M116.286 11.0011C116.666 11.0122 116.911 11.1008 116.911 11.1008C118.787 11.6543 118.156 14.0685 118.156 14.0685C119.048 12.9922 120.586 13.6994 120.586 13.6994C120.598 13.7069 120.608 13.7148 120.62 13.7225C120.544 13.7071 118.694 13.3501 117.437 15.2035C117.437 15.2035 118.133 13.2464 117.154 11.9634C117.154 11.9634 116.542 11.1931 115.527 12.0388C115.527 12.0388 113.327 13.9205 113.175 17.1387C113.175 17.1387 112.87 14.6817 111.957 13.8119C111.957 13.8119 110.71 12.5113 109.818 13.3159C109.818 13.3159 109.864 13.241 109.863 13.2333C110.304 12.5373 111.066 12.5723 111.066 12.5723C112.588 12.3983 112.959 13.8223 112.959 13.8223C113.953 11.3276 115.448 10.9768 116.286 11.0011H116.286Z" fill="#0C6E84"/>
<path fill-rule="evenodd" clip-rule="evenodd" d="M119.534 19.2671C119.534 19.2671 116.141 22.3114 115.533 25.4427C115.62 20.7023 119.534 19.2671 119.534 19.2671Z" fill="#329CB2"/>
<path fill-rule="evenodd" clip-rule="evenodd" d="M110.488 19.7021C110.488 19.7021 113.097 22.7465 113.836 25.4863C113.836 25.4863 113.489 20.5719 110.488 19.7021Z" fill="#329CB2"/>
<path fill-rule="evenodd" clip-rule="evenodd" d="M122.06 82.5103C122.06 82.5103 123.213 83.1407 123.752 84.3862C123.752 84.3862 124.228 85.278 123.582 85.77C123.582 85.77 122.706 86.2774 121.937 85.278C121.937 85.278 122.168 86.2159 121.445 86.4773C121.445 86.4773 120.415 86.954 119.569 85.9391C119.569 85.9391 119.554 86.4466 119.169 86.5081C119.169 86.5081 118.37 86.9232 117.616 85.8776C117.616 85.8776 116.848 84.8628 117.247 83.725C117.247 83.725 117.478 83.1868 118.293 83.2637C118.293 83.2637 118.554 83.2945 118.816 83.602C118.816 83.602 118.847 83.0792 119.323 82.8947C119.323 82.8947 120.015 82.6025 120.553 83.0484C120.553 83.0484 120.415 82.3873 120.922 82.2335C121.522 82.049 122.06 82.5103 122.06 82.5103Z" fill="#E89C23"/>
<path fill-rule="evenodd" clip-rule="evenodd" d="M112.496 83.2327C112.496 83.2327 113.049 84.2014 112.511 85.5391C112.511 85.5391 112.204 86.1234 111.627 86.1542C111.627 86.1542 110.774 86.4156 110.42 85.6621C110.42 85.6621 110.313 85.2008 110.359 84.8933C110.359 84.8933 110.066 85.5084 109.344 85.5238C109.344 85.5238 108.206 85.6621 108.068 84.5858C108.068 84.5858 107.991 84.1245 108.16 83.7863C108.16 83.7863 107.652 84.2629 107.191 84.2322C107.191 84.2322 106.33 84.2322 106.761 83.0174C106.761 83.0174 107.145 81.9257 108.498 81.5413C108.498 81.5413 109.34 81.3092 109.557 82.1137C109.557 82.1137 109.612 82.3638 109.59 82.4943C109.59 82.4943 109.862 82.1464 110.308 82.1681C110.308 82.1681 111.221 82.2333 111.156 83.1249C111.156 83.1249 111.395 82.7661 111.895 82.777C112.243 82.777 112.496 83.2327 112.496 83.2327Z" fill="#E89C23"/>
<path fill-rule="evenodd" clip-rule="evenodd" d="M125.546 63.3867C124.285 63.4636 124.393 64.2463 124.393 64.2463C124.175 66.5078 121.827 70.8133 121.827 70.8133C119.783 75.6407 121.296 79.0156 121.296 79.0156C122.833 83.2595 128.123 83.7515 128.123 83.7515C137.41 84.4895 138.394 74.7719 138.394 74.7719C138.396 74.6187 138.679 73.314 138.114 72.8573C138.114 72.8573 137.2 72.031 136.113 73.1835C136.113 73.1835 135.591 73.6836 135.504 73.8793C135.504 73.8793 135.811 72.8037 135.242 71.7274C135.242 71.7274 134.765 70.8663 133.566 71.4506C133.566 71.4506 133.304 67.5297 130.952 67.376C130.952 67.376 131.351 64.9856 130.22 64.7899C130.22 64.7899 129.198 64.7899 128.155 64.5181C128.155 64.5181 127.078 64.3659 126.219 63.6592C126.219 63.6592 125.982 63.4187 125.546 63.3867Z" fill="#17849B"/>
<path fill-rule="evenodd" clip-rule="evenodd" d="M131.831 78.6117C131.831 78.6117 128.69 80.9626 126.037 78.1792C129.039 82.175 131.831 78.6117 131.831 78.6117Z" fill="#0C6E84"/>
<path fill-rule="evenodd" clip-rule="evenodd" d="M127.771 76.859C127.771 76.859 125.096 75.6597 124.666 72.646C124.389 76.5515 127.771 76.859 127.771 76.859Z" fill="#0C6E84"/>
<path fill-rule="evenodd" clip-rule="evenodd" d="M130.416 80.9795C130.416 80.9795 125.926 82.3326 123.712 77.9966C125.865 83.5012 130.416 80.9795 130.416 80.9795Z" fill="#2D97AD"/>
<path fill-rule="evenodd" clip-rule="evenodd" d="M134.045 82.394C134.045 82.394 132.507 83.6241 127.556 82.4863C131.738 84.6389 134.045 82.394 134.045 82.394Z" fill="#2D97AD"/>
<path fill-rule="evenodd" clip-rule="evenodd" d="M135.568 72.832C135.568 72.832 135.655 75.5719 132.763 77.4202C132.763 77.4202 136.459 76.5504 135.568 72.832Z" fill="#2D97AD"/>
<path fill-rule="evenodd" clip-rule="evenodd" d="M133.407 70.4028C133.407 70.4028 133.385 73.4906 131.406 74.7519C131.406 74.7519 134.45 73.6428 133.407 70.4028Z" fill="#2D97AD"/>
<path d="M121.02 85.7818C121.196 85.6783 121.293 85.4576 121.292 85.1681C121.291 84.8787 121.19 84.5442 121.013 84.2381C120.836 83.932 120.596 83.6792 120.347 83.5353C120.098 83.3914 119.859 83.3682 119.683 83.4707C119.507 83.5731 119.408 83.793 119.409 84.0819C119.409 84.3709 119.509 84.7053 119.686 85.0118C119.862 85.3182 120.101 85.5717 120.351 85.7166C120.6 85.8615 120.84 85.8858 121.016 85.7843" fill="#F1BD6A"/>
<path d="M122.922 84.9358C123.082 84.8226 123.153 84.6106 123.119 84.3463C123.084 84.0821 122.948 83.7871 122.738 83.5262C122.529 83.2653 122.264 83.0597 122.002 82.9547C121.74 82.8497 121.503 82.8538 121.341 82.9661C121.18 83.0784 121.108 83.2896 121.142 83.5536C121.175 83.8175 121.311 84.1125 121.52 84.3738C121.729 84.6351 121.993 84.8413 122.255 84.9472C122.517 85.0531 122.755 85.05 122.918 84.9386" fill="#F1BD6A"/>
<path d="M118.779 86.0067C118.945 85.9571 119.072 85.7944 119.131 85.5541C119.189 85.3139 119.175 85.0158 119.092 84.7253C119.008 84.4349 118.862 84.1758 118.685 84.0049C118.508 83.834 118.314 83.7653 118.147 83.814C117.98 83.8626 117.853 84.0245 117.794 84.2642C117.734 84.5038 117.748 84.8017 117.831 85.0923C117.914 85.3829 118.06 85.6426 118.237 85.8142C118.414 85.9859 118.607 86.0556 118.774 86.0079" fill="#F1BD6A"/>
<path d="M108.979 85.0886C108.791 84.978 108.687 84.7422 108.688 84.4329C108.69 84.1236 108.797 83.7661 108.986 83.439C109.176 83.1118 109.432 82.8417 109.698 82.6879C109.965 82.5342 110.22 82.5093 110.408 82.6188C110.596 82.7283 110.701 82.9633 110.701 83.2721C110.7 83.5808 110.594 83.9382 110.405 84.2658C110.216 84.5933 109.961 84.8642 109.694 85.019C109.428 85.1738 109.172 85.1998 108.983 85.0914" fill="#F1BD6A"/>
<path d="M111.321 85.7554C111.126 85.7312 110.964 85.5775 110.87 85.3282C110.776 85.0788 110.758 84.7541 110.819 84.4254C110.881 84.0967 111.018 83.7908 111.2 83.5749C111.382 83.359 111.593 83.2507 111.788 83.2738C111.984 83.2969 112.146 83.4495 112.241 83.6982C112.336 83.9468 112.355 84.2711 112.293 84.5999C112.232 84.9287 112.096 85.2351 111.914 85.4519C111.733 85.6686 111.521 85.778 111.326 85.756" fill="#F1BD6A"/>
<path d="M107.39 83.6319C107.259 83.499 107.223 83.2802 107.292 83.0234C107.361 82.7665 107.528 82.4927 107.756 82.2621C107.985 82.0314 108.257 81.8626 108.512 81.793C108.767 81.7233 108.985 81.7583 109.117 81.8903C109.25 82.0224 109.286 82.2407 109.218 82.4972C109.15 82.7538 108.984 83.0277 108.756 83.2589C108.527 83.49 108.256 83.6594 108 83.73C107.745 83.8005 107.527 83.7664 107.394 83.6352" fill="#F1BD6A"/>
<path d="M129.134 43.0021C124.791 43.0183 121.224 44.2227 118.885 45.3054C119.891 48.2868 121.679 50.8534 124.011 52.6641C126.343 54.4748 129.11 55.4439 131.943 55.4426C134.357 55.4346 136.727 54.7227 138.823 53.3764C140.918 52.0301 142.668 50.0953 143.902 47.7608C138.523 44.1462 133.448 42.986 129.134 43.0021Z" fill="#1F6D80"/>
<path d="M96.6587 42.0254C92.4068 42.0616 88.5978 43.1333 85.5099 44.4382C86.4101 47.6182 88.1865 50.3931 90.5817 52.3607C92.9769 54.3283 95.8664 55.3864 98.8317 55.3818C101.466 55.3738 104.045 54.5271 106.27 52.9395C108.495 51.3518 110.275 49.0881 111.405 46.4097C106.227 43.1289 101.194 41.9867 96.6587 42.0254Z" fill="#1F6D80"/>
<path d="M132.113 86.205C128.835 85.4833 127.134 81.4781 128.314 77.2591C129.494 73.04 133.108 70.2049 136.387 70.9266C139.665 71.6483 141.366 75.6536 140.185 79.8726C139.005 84.0916 135.391 86.9268 132.113 86.205Z" fill="#4A3827"/>
<path d="M159.695 82.5021C162.7 81.0059 163.377 76.7075 161.208 72.9014C159.038 69.0952 154.844 67.2226 151.839 68.7187C148.834 70.2149 148.157 74.5132 150.326 78.3194C152.496 82.1256 156.69 83.9982 159.695 82.5021Z" fill="#4A3827"/>
<path fill-rule="evenodd" clip-rule="evenodd" d="M130.996 70.3109C130.996 70.3109 128.153 75.3864 130.948 80.1188C130.948 80.1188 133.076 84.3303 139.66 84.7252C139.66 84.7252 146.273 85.3678 151.444 83.2727C151.444 83.2727 157.846 81.3778 159.394 76.8137C159.394 76.8137 161.897 71.4282 156.69 66.2894C156.69 66.2894 157.526 65.7339 157.113 64.8298C157.113 64.8298 156.833 63.7835 155.806 63.8096C155.806 63.8096 156.695 63.0716 156.276 62.118C156.276 62.118 156.073 61.2884 154.842 61.2894C154.842 61.2894 156.205 60.3171 155.817 59.2088C155.817 59.2088 155.562 57.9584 153.659 58.2181C153.659 58.2181 155.621 56.1918 155.527 55.2232C155.527 55.2232 155.4 53.5801 153.812 53.7506C153.812 53.7506 152.02 54.0972 151.259 55.6738C151.259 55.6738 151.304 55.0149 150.697 54.9891C150.697 54.9891 149.955 54.8795 149.598 55.6524C149.598 55.6524 149.575 54.6499 148.718 54.6299C148.718 54.6299 147.378 54.5688 147.292 55.9114C147.292 55.9114 146.645 54.7346 145.82 55.5902C145.82 55.5902 146.274 54.177 145.818 53.3285C145.818 53.3285 145.288 51.6847 142.67 52.0577C142.67 52.0577 139.35 52.4418 138.569 56.7102C138.569 56.7102 137.337 55.0776 135.623 55.2386C135.623 55.2386 133.522 55.5227 134.014 57.2717C134.014 57.2717 134.149 57.9588 134.541 58.2874C134.541 58.2874 132.897 58.6157 133.485 60.5288C133.485 60.5288 131.497 59.6931 129.803 60.8319C129.803 60.8319 127.799 61.9082 128.82 63.4663C128.82 63.4663 129.169 64.4538 131.459 63.8699C131.459 63.8699 130.384 64.5302 130.399 65.2573C130.399 65.2573 130.295 66.0492 131.297 66.2273C131.297 66.2273 129.238 67.4613 129.612 69.074C129.612 69.074 129.787 70.284 130.996 70.3109Z" fill="#897762"/>
<path d="M128.347 77.1398C130.084 82.8007 134.149 84.7589 134.149 84.7589C134.149 84.7589 131.496 85.5842 128.769 83.5252C127.857 81.7863 127.686 79.5017 128.307 77.2705C128.32 77.2269 128.334 77.1833 128.347 77.1398Z" fill="#644B35"/>
<path d="M154.633 72.7893C156.659 71.1891 156.704 67.9337 154.734 65.5183C152.763 63.1028 149.523 62.4421 147.497 64.0424C145.471 65.6426 145.426 68.898 147.396 71.3134C149.367 73.7289 152.607 74.3896 154.633 72.7893Z" fill="#483E37"/>
<path d="M154.186 72.6381C156.209 71.057 156.258 67.8465 154.296 65.4671C152.334 63.0877 149.104 62.4406 147.081 64.0216C145.058 65.6027 145.009 68.8131 146.971 71.1925C148.933 73.5719 152.163 74.2191 154.186 72.6381Z" fill="#F4F9FD"/>
<path d="M145.426 66.5608C145.119 68.7388 146.634 70.75 148.81 71.0528C150.987 71.3556 153 69.8355 153.307 67.6575C153.614 65.4795 152.099 63.4684 149.922 63.1655C147.746 62.8627 145.733 64.3828 145.426 66.5608Z" fill="#E5AA4D"/>
<path d="M145.986 66.6388C145.723 68.507 147.023 70.2321 148.889 70.4918C150.756 70.7516 152.483 69.4477 152.746 67.5795C153.01 65.7113 151.71 63.9862 149.843 63.7264C147.976 63.4667 146.25 64.7706 145.986 66.6388Z" fill="#D58508"/>
<path d="M146.461 66.7346C146.232 68.3578 147.361 69.8567 148.983 70.0824C150.605 70.3081 152.105 69.1751 152.334 67.5519C152.563 65.9287 151.434 64.4298 149.812 64.2041C148.19 63.9784 146.689 65.1114 146.461 66.7346Z" fill="#1C0E02"/>
<path d="M150.851 66.0243C150.774 66.571 151.154 67.0759 151.7 67.1519C152.247 67.228 152.752 66.8464 152.829 66.2996C152.906 65.7528 152.526 65.2479 151.98 65.1719C151.433 65.0959 150.928 65.4775 150.851 66.0243Z" fill="#FEFEFE"/>
<path d="M149.792 64.2808C149.744 64.6249 149.983 64.9427 150.327 64.9905C150.671 65.0383 150.989 64.7982 151.037 64.4541C151.086 64.11 150.846 63.7923 150.502 63.7444C150.159 63.6966 149.841 63.9367 149.792 64.2808Z" fill="#FEFEFE"/>
<path d="M134.775 75.2121C132.421 74.1517 131.587 71.0046 132.912 68.183C134.237 65.3614 137.219 63.9337 139.573 64.994C141.927 66.0544 142.761 69.2014 141.436 72.023C140.111 74.8447 137.129 76.2725 134.775 75.2121Z" fill="#483E37"/>
<path d="M135.287 74.8431C132.94 73.8007 132.113 70.6982 133.438 67.9137C134.763 65.1291 137.74 63.7169 140.086 64.7594C142.432 65.8019 143.26 68.9043 141.935 71.6888C140.609 74.4734 137.633 75.8856 135.287 74.8431Z" fill="#F4F9FD"/>
<path d="M141.419 67.4635C142.246 69.5018 141.264 71.8206 139.227 72.6429C137.189 73.4651 134.867 72.4793 134.04 70.4411C133.214 68.4028 134.195 66.0839 136.233 65.2617C138.271 64.4394 140.593 65.4252 141.419 67.4635Z" fill="#E5AA4D"/>
<path d="M140.894 67.6755C141.603 69.4239 140.761 71.4129 139.014 72.1182C137.266 72.8235 135.274 71.978 134.565 70.2296C133.856 68.4813 134.698 66.4922 136.445 65.7869C138.193 65.0816 140.185 65.9272 140.894 67.6755Z" fill="#D58508"/>
<path d="M140.457 67.8839C141.073 69.403 140.342 71.1312 138.823 71.744C137.305 72.3568 135.574 71.6222 134.958 70.1031C134.342 68.584 135.073 66.8558 136.592 66.243C138.111 65.6302 139.841 66.3649 140.457 67.8839Z" fill="#1C0E02"/>
<path d="M141.103 67.6346C141.311 68.1462 141.064 68.7284 140.553 68.9348C140.041 69.1412 139.458 68.8937 139.251 68.382C139.043 67.8704 139.29 67.2882 139.801 67.0818C140.313 66.8754 140.896 67.1229 141.103 67.6346Z" fill="#FEFEFE"/>
<path d="M139.571 65.9495C139.702 66.2716 139.547 66.6379 139.225 66.7678C138.903 66.8977 138.536 66.742 138.405 66.42C138.275 66.0979 138.43 65.7316 138.752 65.6017C139.074 65.4718 139.441 65.6275 139.571 65.9495Z" fill="#FEFEFE"/>
<path fill-rule="evenodd" clip-rule="evenodd" d="M147.573 73.7382C146.317 71.476 144.281 72.1179 144.281 72.1179C142.274 72.4186 141.831 74.5881 141.831 74.5881C141.831 74.5881 141.646 74.9663 142.108 75.0338C142.108 75.0338 142.261 75.0505 142.537 74.9809C142.537 74.9809 143.872 74.4254 144.847 76.1357C144.847 76.1357 144.905 76.311 145.111 76.2982C145.111 76.2982 145.246 76.3255 145.31 76.0789C145.31 76.0789 145.543 74.4541 147.062 74.3361C147.062 74.3361 147.886 74.3837 147.573 73.7382Z" fill="#E4AC53"/>
<path fill-rule="evenodd" clip-rule="evenodd" d="M144.544 72.0633C144.372 72.0879 144.266 72.1195 144.266 72.1195C142.259 72.4201 141.816 74.5897 141.816 74.5897C141.816 74.5897 141.632 74.9678 142.093 75.0353C142.093 75.0353 142.246 75.052 142.522 74.9825C142.522 74.9825 143.857 74.4269 144.832 76.1372C144.832 76.1372 144.886 76.2925 145.066 76.2984L144.544 72.0633Z" fill="#C79341"/>
<path d="M145.481 74.3412C145.737 74.4451 146.105 74.2148 146.304 73.8268C146.503 73.4388 146.456 73.0401 146.2 72.9362C145.944 72.8323 145.575 73.0626 145.377 73.4506C145.178 73.8386 145.225 74.2373 145.481 74.3412Z" fill="#E9B769"/>
<path fill-rule="evenodd" clip-rule="evenodd" d="M138.568 83.3932C138.568 83.3932 137.01 84.4146 137.183 86.4291C137.183 86.4291 137.314 87.6948 138.345 87.4924C138.345 87.4924 139.14 87.4195 139.537 86.7673C139.537 86.7673 139.718 88.0269 140.838 87.9391C140.838 87.9391 141.797 87.9717 142.133 86.8244C142.133 86.8244 142.212 87.4681 142.931 87.1785C142.931 87.1785 144.094 87.035 144.548 84.1893C144.548 84.1893 144.59 82.9023 143.747 82.1768C142.363 80.7389 138.568 83.3932 138.568 83.3932Z" fill="#DF9C31"/>
<path fill-rule="evenodd" clip-rule="evenodd" d="M152.898 81.5202C152.898 81.5202 154.658 82.1327 154.979 84.1289C154.979 84.1289 155.16 85.3885 154.111 85.4424C154.111 85.4424 153.322 85.5648 152.778 85.0286C152.778 85.0286 152.909 86.2942 151.801 86.4811C151.801 86.4811 150.879 86.7456 150.274 85.7142C150.274 85.7142 150.353 86.3579 149.586 86.2514C149.586 86.2514 148.422 86.3948 147.291 83.7444C147.291 83.7444 146.938 82.5062 147.58 81.5977C148.573 79.8667 152.898 81.5202 152.898 81.5202Z" fill="#DF9C31"/>
<path fill-rule="evenodd" clip-rule="evenodd" d="M130.721 79.7334C130.789 79.8633 130.861 79.9932 130.937 80.1227C130.937 80.1227 133.065 84.3342 139.648 84.7291C139.648 84.7291 146.262 85.3716 151.433 83.2766C151.433 83.2766 157.835 81.3817 159.383 76.8176C159.383 76.8176 159.431 76.7105 159.498 76.5258C158.243 78.025 156.318 79.3819 153.918 80.4575C151.519 81.533 148.731 82.2887 145.84 82.6472C142.826 83.0167 139.818 82.9401 137.15 82.4257C134.481 81.9114 132.256 80.9795 130.721 79.7334Z" fill="#6E5F4E"/>
<path fill-rule="evenodd" clip-rule="evenodd" d="M145.105 76.587C142.946 76.8531 140.933 77.5823 139.511 78.6142C138.088 79.6461 137.372 80.8962 137.519 82.0894C137.651 83.1415 138.447 84.0775 139.768 84.7346C140.331 84.784 146.511 85.2724 151.444 83.2734C151.444 83.2734 151.933 83.1256 152.662 82.8257C153.515 81.9563 153.912 80.9993 153.8 80.0827C153.652 78.8894 152.654 77.8508 151.023 77.1952C149.392 76.5397 147.264 76.3209 145.105 76.587Z" fill="#BAAF93"/>
<path fill-rule="evenodd" clip-rule="evenodd" d="M153.809 80.5004C151.435 81.5549 148.687 82.2975 145.839 82.6544C142.998 83.0003 140.161 82.9502 137.607 82.509C137.873 83.3954 138.626 84.174 139.766 84.7422C139.901 84.7541 140.368 84.791 141.057 84.8129C141.101 84.8143 141.143 84.8155 141.189 84.8167C141.288 84.8195 141.398 84.8212 141.506 84.8232C141.638 84.8254 141.773 84.8273 141.916 84.8279C141.979 84.8283 142.045 84.8282 142.111 84.8282C142.303 84.828 142.501 84.8264 142.709 84.8226C142.745 84.822 142.782 84.8211 142.819 84.8204C143.058 84.8153 143.306 84.8076 143.562 84.7966C143.584 84.7957 143.605 84.7948 143.627 84.7939C143.889 84.7821 144.16 84.7668 144.438 84.7476C144.473 84.7451 144.508 84.7432 144.544 84.7406C144.761 84.7248 144.983 84.7059 145.208 84.6848C145.298 84.6764 145.388 84.668 145.479 84.6586C147.387 84.4628 149.509 84.0628 151.431 83.2838C151.431 83.2838 151.519 83.2548 151.559 83.2422C151.608 83.2266 151.638 83.2177 151.763 83.1746C151.778 83.1694 151.798 83.162 151.814 83.1564C151.907 83.1237 152.014 83.0851 152.136 83.0392C152.159 83.0304 152.186 83.0199 152.211 83.0106C152.322 82.9682 152.445 82.9193 152.575 82.8668C152.603 82.8553 152.634 82.8421 152.663 82.8301C153.384 82.0924 153.778 81.2898 153.809 80.5004Z" fill="#958C76"/>
<path d="M161.147 72.7939C160.836 78.7072 157.369 81.5938 157.369 81.5938C157.369 81.5938 160.144 81.75 162.289 79.0905C162.751 77.1821 162.362 74.9244 161.218 72.9109C161.194 72.8718 161.171 72.8327 161.147 72.7939Z" fill="#644B35"/>
<path fill-rule="evenodd" clip-rule="evenodd" d="M134.871 64.4601C134.871 64.4601 137.437 61.324 139.536 61.6339C139.536 61.6339 140.495 61.6224 140.475 62.62C140.475 62.62 140.621 63.459 139.327 63.5682C139.327 63.5682 138.815 63.688 137.825 63.5586C137.825 63.5586 137.022 63.505 136.599 63.6041C136.106 63.7197 135.489 63.9871 134.871 64.4601Z" fill="#9B8975"/>
<path fill-rule="evenodd" clip-rule="evenodd" d="M152.182 62.3715C152.182 62.3715 148.932 59.9522 146.971 60.7627C146.971 60.7627 146.038 60.9842 146.299 61.9473C146.299 61.9473 146.361 62.7966 147.643 62.5884C147.643 62.5884 148.169 62.58 149.098 62.2142C149.098 62.2142 149.864 61.9671 150.299 61.9606C150.805 61.953 151.468 62.0627 152.182 62.3715L152.182 62.3715Z" fill="#9B8975"/>
<path d="M140.858 55.2277C140.488 54.9519 140.592 54.1886 141.089 53.5229C141.586 52.8572 142.288 52.5411 142.658 52.8169C143.027 53.0928 142.924 53.8561 142.427 54.5218C141.93 55.1875 141.227 55.5035 140.858 55.2277Z" fill="#9B8975"/>
<path d="M152.582 56.9498C152.212 56.6739 152.316 55.9107 152.812 55.245C153.309 54.5793 154.012 54.2633 154.381 54.5391C154.751 54.8149 154.647 55.5781 154.151 56.2439C153.654 56.9096 152.951 57.2256 152.582 56.9498Z" fill="#9B8975"/>
<path d="M129.529 62.2732C129.426 61.784 130.058 61.2375 130.939 61.0526C131.82 60.8677 132.618 61.1143 132.721 61.6035C132.824 62.0927 132.192 62.6392 131.311 62.8241C130.429 63.0091 129.632 62.7624 129.529 62.2732Z" fill="#9B8975"/>
<path d="M134.85 56.2443C135.005 55.8533 135.701 55.7629 136.406 56.0424C137.11 56.3219 137.556 56.8654 137.401 57.2564C137.245 57.6474 136.549 57.7378 135.844 57.4583C135.14 57.1788 134.694 56.6353 134.85 56.2443Z" fill="#9B8975"/>
<path d="M130.093 69.1909C129.806 68.8832 130.023 68.2149 130.577 67.6981C131.132 67.1813 131.814 67.0118 132.1 67.3195C132.387 67.6271 132.17 68.2954 131.616 68.8122C131.062 69.329 130.38 69.4986 130.093 69.1909Z" fill="#9B8975"/>
<path d="M131.103 65.6281C130.926 65.4376 131.06 65.0239 131.403 64.704C131.746 64.3842 132.168 64.2793 132.346 64.4697C132.523 64.6602 132.389 65.0737 132.046 65.3936C131.703 65.7134 131.281 65.8185 131.103 65.6281Z" fill="#9B8975"/>
<path d="M134.141 60.2517C133.859 60.074 133.799 59.6844 134.007 59.3813C134.214 59.0781 134.61 58.9763 134.891 59.154C135.173 59.3316 135.233 59.7214 135.025 60.0245C134.818 60.3276 134.422 60.4293 134.141 60.2517Z" fill="#9B8975"/>
<path d="M145.853 57.277C145.572 57.0994 145.512 56.7097 145.719 56.4065C145.926 56.1034 146.322 56.0017 146.604 56.1794C146.885 56.357 146.945 56.7466 146.738 57.0498C146.531 57.3529 146.134 57.4547 145.853 57.277Z" fill="#9B8975"/>
<path d="M148.041 56.6255C147.744 56.4381 147.681 56.0269 147.9 55.7071C148.118 55.3873 148.536 55.2799 148.833 55.4673C149.13 55.6547 149.193 56.0659 148.975 56.3857C148.756 56.7055 148.338 56.8129 148.041 56.6255Z" fill="#9B8975"/>
<path d="M150.054 56.7554C149.804 56.5979 149.751 56.2524 149.935 55.9837C150.119 55.7149 150.47 55.6249 150.719 55.7823C150.969 55.9398 151.022 56.2851 150.838 56.5538C150.654 56.8226 150.303 56.9128 150.054 56.7554Z" fill="#9B8975"/>
<path d="M153.717 60.5974C153.337 60.3576 153.256 59.8316 153.536 59.4224C153.816 59.0132 154.35 58.8759 154.73 59.1156C155.11 59.3554 155.191 59.8815 154.911 60.2907C154.631 60.6999 154.096 60.8372 153.717 60.5974Z" fill="#9B8975"/>
<path d="M154.75 63.3633C154.468 63.1853 154.408 62.7947 154.616 62.4908C154.823 62.187 155.22 62.085 155.502 62.263C155.784 62.4411 155.845 62.8318 155.637 63.1356C155.429 63.4394 155.032 63.5414 154.75 63.3633Z" fill="#9B8975"/>
<path d="M155.674 65.7832C155.425 65.6263 155.372 65.282 155.556 65.0143C155.739 64.7466 156.089 64.6567 156.337 64.8136C156.586 64.9704 156.639 65.3147 156.456 65.5824C156.272 65.8501 155.922 65.9401 155.674 65.7832Z" fill="#9B8975"/>
<path d="M138.172 86.9112C138.555 87.053 139.046 86.682 139.267 86.0826C139.489 85.4832 139.357 84.8823 138.973 84.7405C138.589 84.5988 138.099 84.9698 137.877 85.5692C137.656 86.1686 137.788 86.7694 138.172 86.9112Z" fill="#E6AC52"/>
<path d="M140.541 87.1409C140.904 87.2204 141.299 86.8256 141.423 86.2589C141.547 85.6922 141.354 85.1684 140.991 85.0888C140.628 85.0093 140.233 85.4042 140.109 85.9708C139.985 86.5375 140.178 87.0613 140.541 87.1409Z" fill="#E6AC52"/>
<path d="M142.741 86.7473C143.053 86.8156 143.392 86.4765 143.498 85.9898C143.605 85.5032 143.439 85.0533 143.127 84.985C142.816 84.9167 142.477 85.2558 142.37 85.7424C142.263 86.2291 142.429 86.679 142.741 86.7473Z" fill="#E6AC52"/>
<path d="M154.137 84.8367C153.799 85.0674 153.233 84.8266 152.873 84.2988C152.512 83.7711 152.494 83.1563 152.832 82.9255C153.17 82.6948 153.736 82.9356 154.096 83.4634C154.457 83.9911 154.475 84.6059 154.137 84.8367Z" fill="#E6AC52"/>
<path d="M151.894 85.6348C151.562 85.8001 151.083 85.5129 150.825 84.9933C150.567 84.4738 150.627 83.9187 150.96 83.7534C151.292 83.5881 151.771 83.8753 152.029 84.3948C152.287 84.9143 152.227 85.4695 151.894 85.6348Z" fill="#E6AC52"/>
<path d="M149.665 85.7873C149.38 85.9292 148.968 85.6826 148.747 85.2364C148.525 84.7903 148.577 84.3135 148.863 84.1716C149.148 84.0296 149.56 84.2762 149.781 84.7224C150.003 85.1686 149.951 85.6453 149.665 85.7873Z" fill="#E6AC52"/>
<defs>
<linearGradient id="paint0_linear_4409_18115" x1="129.5" y1="0" x2="129.5" y2="97" gradientUnits="userSpaceOnUse">
<stop stop-opacity="0"/>
<stop offset="1"/>
</linearGradient>
</defs>
</svg>
