<svg width="259" height="97" viewBox="0 0 259 97" fill="none" xmlns="http://www.w3.org/2000/svg">
<path d="M0 6C0 2.68629 2.68629 0 6 0H252.728C256.042 0 258.728 2.68629 258.728 6V97H0V6Z" fill="#00BDB9"/>
<mask id="mask0_3974_7749" style="mask-type:alpha" maskUnits="userSpaceOnUse" x="0" y="0" width="259" height="97">
<path d="M0 6C0 2.68629 2.68629 0 6 0H253C256.314 0 259 2.68629 259 6V97H0V6Z" fill="#7F6CC3"/>
<path d="M0 6C0 2.68629 2.68629 0 6 0H253C256.314 0 259 2.68629 259 6V97H0V6Z" fill="url(#paint0_linear_3974_7749)" fill-opacity="0.3"/>
</mask>
<g mask="url(#mask0_3974_7749)">
<g opacity="0.6">
<path d="M283.32 19.4373C283.029 19.8544 282.428 19.9736 281.978 19.7037C281.528 19.4337 281.399 18.8767 281.69 18.4596C281.982 18.0425 282.583 17.9233 283.033 18.1933C283.483 18.4633 283.611 19.0202 283.32 19.4373Z" fill="white"/>
<path d="M208.077 -70.7507C207.786 -70.3336 207.185 -70.2144 206.735 -70.4844C206.285 -70.7543 206.156 -71.3113 206.448 -71.7284C206.739 -72.1455 207.34 -72.2647 207.79 -71.9947C208.24 -71.7247 208.368 -71.1678 208.077 -70.7507Z" fill="white"/>
<path d="M192.874 -34.8251C192.582 -34.408 191.981 -34.2888 191.531 -34.5588C191.081 -34.8288 190.953 -35.3857 191.244 -35.8028C191.535 -36.2199 192.136 -36.3391 192.586 -36.0692C193.036 -35.7992 193.165 -35.2422 192.874 -34.8251Z" fill="white"/>
<path d="M96.0901 73.3922C95.7988 73.8093 95.1979 73.9285 94.7478 73.6585C94.2978 73.3885 94.1692 72.8316 94.4605 72.4145C94.7518 71.9974 95.3528 71.8782 95.8028 72.1482C96.2528 72.4182 96.3815 72.9751 96.0901 73.3922Z" fill="white"/>
<path d="M126.359 90.4801C126.068 90.8972 125.467 91.0164 125.017 90.7464C124.567 90.4765 124.438 89.9195 124.729 89.5024C125.021 89.0853 125.622 88.9661 126.072 89.2361C126.522 89.5061 126.65 90.063 126.359 90.4801Z" fill="white"/>
<path d="M197.153 95.6238C196.862 96.0409 196.261 96.1602 195.811 95.8902C195.361 95.6202 195.232 95.0632 195.524 94.6461C195.815 94.229 196.416 94.1098 196.866 94.3798C197.316 94.6498 197.445 95.2068 197.153 95.6238Z" fill="white"/>
<path d="M207.089 75.3293C206.797 75.7464 206.196 75.8656 205.746 75.5956C205.296 75.3257 205.168 74.7687 205.459 74.3516C205.75 73.9345 206.351 73.8153 206.801 74.0853C207.251 74.3553 207.38 74.9122 207.089 75.3293Z" fill="white"/>
<path d="M262.569 -6.58631C262.277 -6.16924 261.676 -6.05 261.226 -6.31998C260.776 -6.58997 260.648 -7.14694 260.939 -7.56402C261.23 -7.98109 261.831 -8.10033 262.281 -7.83035C262.731 -7.56036 262.86 -7.00339 262.569 -6.58631Z" fill="white"/>
<path d="M172.122 -60.8487C171.831 -60.4317 171.23 -60.3124 170.78 -60.5824C170.33 -60.8524 170.201 -61.4094 170.492 -61.8264C170.784 -62.2435 171.385 -62.3628 171.835 -62.0928C172.285 -61.8228 172.413 -61.2658 172.122 -60.8487Z" fill="white"/>
<path d="M249.07 52.471C248.779 52.888 248.178 53.0073 247.728 52.7373C247.278 52.4673 247.149 51.9103 247.441 51.4933C247.732 51.0762 248.333 50.9569 248.783 51.2269C249.233 51.4969 249.362 52.0539 249.07 52.471Z" fill="white"/>
<path d="M41.0159 -72.3489C40.7246 -71.9318 40.1236 -71.8125 39.6736 -72.0825C39.2236 -72.3525 39.0949 -72.9095 39.3863 -73.3265C39.6776 -73.7436 40.2785 -73.8629 40.7285 -73.5929C41.1786 -73.3229 41.3072 -72.7659 41.0159 -72.3489Z" fill="white"/>
<path d="M246.251 -86.5137C245.96 -86.0966 245.359 -85.9774 244.909 -86.2474C244.459 -86.5174 244.33 -87.0743 244.621 -87.4914C244.913 -87.9085 245.514 -88.0277 245.964 -87.7578C246.414 -87.4878 246.542 -86.9308 246.251 -86.5137Z" fill="white"/>
<path d="M225.059 -15.5155C224.768 -15.0984 224.167 -14.9792 223.717 -15.2492C223.267 -15.5192 223.139 -16.0761 223.43 -16.4932C223.721 -16.9103 224.322 -17.0295 224.772 -16.7596C225.222 -16.4896 225.351 -15.9326 225.059 -15.5155Z" fill="white"/>
<path d="M134.613 -69.7779C134.322 -69.3609 133.721 -69.2416 133.271 -69.5116C132.821 -69.7816 132.692 -70.3386 132.983 -70.7556C133.274 -71.1727 133.875 -71.292 134.325 -71.022C134.775 -70.752 134.904 -70.195 134.613 -69.7779Z" fill="white"/>
<path d="M36.4809 -47.9216C36.1896 -47.5046 35.5886 -47.3853 35.1386 -47.6553C34.6886 -47.9253 34.5599 -48.4823 34.8512 -48.8993C35.1425 -49.3164 35.7435 -49.4356 36.1935 -49.1657C36.6435 -48.8957 36.7722 -48.3387 36.4809 -47.9216Z" fill="white"/>
<path d="M29.8621 -30.9957C29.5708 -30.5786 28.9698 -30.4594 28.5198 -30.7294C28.0698 -30.9993 27.9411 -31.5563 28.2324 -31.9734C28.5237 -32.3905 29.1247 -32.5097 29.5747 -32.2397C30.0247 -31.9697 30.1534 -31.4128 29.8621 -30.9957Z" fill="white"/>
<path d="M31.9487 90.0324C31.6574 90.4494 31.0565 90.5687 30.6064 90.2987C30.1564 90.0287 30.0278 89.4717 30.3191 89.0547C30.6104 88.6376 31.2113 88.5183 31.6614 88.7883C32.1114 89.0583 32.24 89.6153 31.9487 90.0324Z" fill="white"/>
<path d="M51.6026 71.467C51.3112 71.8841 50.7103 72.0033 50.2603 71.7333C49.8102 71.4633 49.6816 70.9064 49.9729 70.4893C50.2642 70.0722 50.8652 69.953 51.3152 70.223C51.7652 70.493 51.8939 71.0499 51.6026 71.467Z" fill="white"/>
<path d="M25.5235 55.704C25.2321 56.121 24.6312 56.2403 24.1812 55.9703C23.7311 55.7003 23.6025 55.1433 23.8938 54.7263C24.1851 54.3092 24.7861 54.19 25.2361 54.4599C25.6861 54.7299 25.8148 55.2869 25.5235 55.704Z" fill="white"/>
<path d="M173.683 -97.723C173.392 -97.3059 172.791 -97.1867 172.341 -97.4567C171.891 -97.7266 171.762 -98.2836 172.053 -98.7007C172.345 -99.1178 172.946 -99.237 173.396 -98.967C173.846 -98.697 173.974 -98.1401 173.683 -97.723Z" fill="white"/>
<path d="M248.519 -57.0894C248.227 -56.6723 247.626 -56.5531 247.176 -56.823C246.726 -57.093 246.598 -57.65 246.889 -58.0671C247.18 -58.4842 247.781 -58.6034 248.231 -58.3334C248.681 -58.0634 248.81 -57.5065 248.519 -57.0894Z" fill="white"/>
<path d="M256.026 67.8961C255.735 68.3132 255.134 68.4324 254.684 68.1624C254.234 67.8925 254.105 67.3355 254.396 66.9184C254.688 66.5013 255.289 66.3821 255.739 66.6521C256.189 66.9221 256.317 67.479 256.026 67.8961Z" fill="white"/>
<path d="M47.9717 -56.9237C47.6803 -56.5067 47.0794 -56.3874 46.6294 -56.6574C46.1793 -56.9274 46.0507 -57.4844 46.342 -57.9014C46.6333 -58.3185 47.2343 -58.4378 47.6843 -58.1678C48.1343 -57.8978 48.263 -57.3408 47.9717 -56.9237Z" fill="white"/>
<path d="M216.671 138.589C216.38 139.006 215.779 139.125 215.329 138.855C214.879 138.585 214.75 138.029 215.041 137.611C215.333 137.194 215.934 137.075 216.384 137.345C216.834 137.615 216.962 138.172 216.671 138.589Z" fill="white"/>
<path d="M304.835 23.9505C304.544 24.3676 303.943 24.4868 303.493 24.2169C303.043 23.9469 302.914 23.3899 303.205 22.9728C303.497 22.5557 304.098 22.4365 304.548 22.7065C304.998 22.9765 305.126 23.5334 304.835 23.9505Z" fill="white"/>
<path d="M281.676 51.3144C281.53 51.523 281.23 51.5827 281.005 51.4476C280.78 51.3126 280.715 51.034 280.861 50.8254C281.007 50.6168 281.307 50.5572 281.532 50.6922C281.757 50.8273 281.822 51.1058 281.676 51.3144Z" fill="white"/>
<path d="M73.6216 -73.5054C73.4759 -73.2968 73.1753 -73.2372 72.9503 -73.3722C72.7252 -73.5073 72.6608 -73.7858 72.8065 -73.9944C72.9522 -74.203 73.2528 -74.2627 73.4779 -74.1276C73.703 -73.9926 73.7673 -73.714 73.6216 -73.5054Z" fill="white"/>
<path d="M234.59 -72.6677C234.444 -72.4591 234.144 -72.3995 233.919 -72.5345C233.693 -72.6695 233.629 -72.9481 233.775 -73.1567C233.92 -73.3653 234.221 -73.425 234.446 -73.2899C234.671 -73.1549 234.736 -72.8763 234.59 -72.6677Z" fill="white"/>
<path d="M19.205 4.4045C19.0593 4.61311 18.7587 4.67274 18.5337 4.5377C18.3086 4.40266 18.2442 4.12409 18.3899 3.91548C18.5356 3.70687 18.8362 3.64724 19.0613 3.78227C19.2864 3.91731 19.3507 4.19588 19.205 4.4045Z" fill="white"/>
<path d="M171.29 103.683C171.144 103.892 170.844 103.951 170.618 103.816C170.393 103.681 170.329 103.403 170.475 103.194C170.62 102.986 170.921 102.926 171.146 103.061C171.371 103.196 171.436 103.475 171.29 103.683Z" fill="white"/>
<path d="M93.3221 -104.194C93.1764 -103.986 92.8758 -103.926 92.6507 -104.061C92.4256 -104.196 92.3613 -104.475 92.507 -104.683C92.6527 -104.892 92.9532 -104.952 93.1783 -104.817C93.4034 -104.682 93.4678 -104.403 93.3221 -104.194Z" fill="white"/>
<path d="M98.4034 53.5261C98.2577 53.7347 97.9571 53.7944 97.732 53.6593C97.507 53.5243 97.4426 53.2457 97.5883 53.0371C97.734 52.8285 98.0346 52.7689 98.2597 52.9039C98.4848 53.0389 98.5491 53.3175 98.4034 53.5261Z" fill="white"/>
<path d="M268.982 85.4922C268.836 85.7008 268.535 85.7604 268.31 85.6254C268.085 85.4903 268.021 85.2118 268.167 85.0032C268.312 84.7945 268.613 84.7349 268.838 84.8699C269.063 85.005 269.127 85.2836 268.982 85.4922Z" fill="white"/>
<path d="M60.9273 -39.3277C60.7816 -39.1191 60.481 -39.0594 60.2559 -39.1945C60.0309 -39.3295 59.9665 -39.6081 60.1122 -39.8167C60.2579 -40.0253 60.5585 -40.0849 60.7836 -39.9499C61.0087 -39.8148 61.073 -39.5363 60.9273 -39.3277Z" fill="white"/>
<path d="M255.656 82.4984C255.51 82.707 255.209 82.7666 254.984 82.6316C254.759 82.4966 254.695 82.218 254.841 82.0094C254.986 81.8008 255.287 81.7411 255.512 81.8762C255.737 82.0112 255.801 82.2898 255.656 82.4984Z" fill="white"/>
<path d="M47.6013 -42.3215C47.4556 -42.1128 47.1551 -42.0532 46.93 -42.1882C46.7049 -42.3233 46.6405 -42.6019 46.7862 -42.8105C46.9319 -43.0191 47.2325 -43.0787 47.4576 -42.9437C47.6827 -42.8086 47.747 -42.5301 47.6013 -42.3215Z" fill="white"/>
<path d="M53.4773 -20.9357C53.3316 -20.7271 53.031 -20.6675 52.8059 -20.8025C52.5808 -20.9376 52.5165 -21.2161 52.6622 -21.4247C52.8079 -21.6334 53.1085 -21.693 53.3336 -21.558C53.5587 -21.4229 53.623 -21.1443 53.4773 -20.9357Z" fill="white"/>
<path d="M252.695 107.155C252.549 107.364 252.248 107.424 252.023 107.289C251.798 107.154 251.734 106.875 251.879 106.666C252.025 106.458 252.326 106.398 252.551 106.533C252.776 106.668 252.84 106.947 252.695 107.155Z" fill="white"/>
<path d="M268.032 38.8426C267.887 39.0512 267.586 39.1108 267.361 38.9758C267.136 38.8408 267.072 38.5622 267.217 38.3536C267.363 38.145 267.664 38.0853 267.889 38.2204C268.114 38.3554 268.178 38.634 268.032 38.8426Z" fill="white"/>
<path d="M63.1508 -84.0738C63.0051 -83.8652 62.7046 -83.8055 62.4795 -83.9406C62.2544 -84.0756 62.19 -84.3542 62.3357 -84.5628C62.4814 -84.7714 62.782 -84.831 63.0071 -84.696C63.2322 -84.5609 63.2965 -84.2824 63.1508 -84.0738Z" fill="white"/>
<path d="M8.7342 -6.1638C8.5885 -5.95519 8.28792 -5.89554 8.06283 -6.03058C7.83775 -6.16562 7.7734 -6.44419 7.9191 -6.6528C8.0648 -6.86141 8.36538 -6.92106 8.59047 -6.78602C8.81555 -6.65099 8.8799 -6.37241 8.7342 -6.1638Z" fill="white"/>
<path d="M240.839 72.3588C240.693 72.5674 240.392 72.627 240.167 72.492C239.942 72.3569 239.878 72.0784 240.023 71.8698C240.169 71.6611 240.47 71.6015 240.695 71.7365C240.92 71.8716 240.984 72.1502 240.839 72.3588Z" fill="white"/>
<path d="M32.7842 -52.4611C32.6384 -52.2525 32.3379 -52.1928 32.1128 -52.3279C31.8877 -52.4629 31.8233 -52.7415 31.969 -52.9501C32.1147 -53.1587 32.4153 -53.2183 32.6404 -53.0833C32.8655 -52.9483 32.9299 -52.6697 32.7842 -52.4611Z" fill="white"/>
<path d="M310.507 34.1406C310.361 34.3492 310.061 34.4088 309.836 34.2738C309.611 34.1387 309.546 33.8602 309.692 33.6516C309.838 33.443 310.138 33.3833 310.363 33.5184C310.588 33.6534 310.653 33.932 310.507 34.1406Z" fill="white"/>
<path d="M220.06 -20.1218C219.915 -19.9132 219.614 -19.8536 219.389 -19.9886C219.164 -20.1237 219.1 -20.4022 219.245 -20.6108C219.391 -20.8194 219.692 -20.8791 219.917 -20.744C220.142 -20.609 220.206 -20.3304 220.06 -20.1218Z" fill="white"/>
<path d="M252.806 28.6363C252.661 28.8449 252.36 28.9045 252.135 28.7695C251.91 28.6344 251.846 28.3559 251.991 28.1473C252.137 27.9387 252.438 27.879 252.663 28.0141C252.888 28.1491 252.952 28.4277 252.806 28.6363Z" fill="white"/>
<path d="M44.752 -96.1836C44.6063 -95.9749 44.3057 -95.9153 44.0806 -96.0503C43.8556 -96.1854 43.7912 -96.464 43.9369 -96.6726C44.0826 -96.8812 44.3832 -96.9408 44.6083 -96.8058C44.8334 -96.6707 44.8977 -96.3922 44.752 -96.1836Z" fill="white"/>
<path d="M227.619 49.2465C227.473 49.4551 227.173 49.5148 226.948 49.3797C226.723 49.2447 226.658 48.9661 226.804 48.7575C226.95 48.5489 227.25 48.4893 227.475 48.6243C227.7 48.7593 227.765 49.0379 227.619 49.2465Z" fill="white"/>
<path d="M297.291 35.8561C297.193 35.9952 296.993 36.0349 296.843 35.9449C296.693 35.8549 296.65 35.6692 296.747 35.5301C296.844 35.391 297.045 35.3512 297.195 35.4413C297.345 35.5313 297.388 35.717 297.291 35.8561Z" fill="white"/>
<path d="M206.844 -18.4063C206.747 -18.2673 206.546 -18.2275 206.396 -18.3175C206.246 -18.4075 206.203 -18.5933 206.301 -18.7323C206.398 -18.8714 206.598 -18.9112 206.748 -18.8211C206.898 -18.7311 206.941 -18.5454 206.844 -18.4063Z" fill="white"/>
<path d="M89.2363 -88.9637C89.1391 -88.8247 88.9387 -88.7849 88.7887 -88.8749C88.6386 -88.965 88.5957 -89.1507 88.6929 -89.2898C88.79 -89.4288 88.9904 -89.4686 89.1404 -89.3786C89.2905 -89.2885 89.3334 -89.1028 89.2363 -88.9637Z" fill="white"/>
<path d="M34.8197 -11.0538C34.7225 -10.9148 34.5221 -10.875 34.3721 -10.965C34.222 -11.055 34.1791 -11.2408 34.2763 -11.3798C34.3734 -11.5189 34.5738 -11.5587 34.7238 -11.4686C34.8739 -11.3786 34.9168 -11.1929 34.8197 -11.0538Z" fill="white"/>
<path d="M56.0883 25.8177C55.9912 25.9568 55.7908 25.9966 55.6407 25.9066C55.4907 25.8165 55.4478 25.6308 55.5449 25.4917C55.6421 25.3527 55.8424 25.3129 55.9925 25.4029C56.1426 25.493 56.1855 25.6787 56.0883 25.8177Z" fill="white"/>
<path d="M149.583 98.3406C149.486 98.4797 149.286 98.5195 149.136 98.4294C148.986 98.3394 148.943 98.1537 149.04 98.0146C149.137 97.8756 149.337 97.8358 149.487 97.9258C149.637 98.0159 149.68 98.2016 149.583 98.3406Z" fill="white"/>
<path d="M71.6155 -109.537C71.5184 -109.398 71.318 -109.358 71.1679 -109.448C71.0179 -109.538 70.975 -109.724 71.0721 -109.863C71.1692 -110.002 71.3696 -110.042 71.5197 -109.952C71.6697 -109.862 71.7126 -109.676 71.6155 -109.537Z" fill="white"/>
<path d="M288.055 36.3876C287.957 36.5267 287.757 36.5664 287.607 36.4764C287.457 36.3864 287.414 36.2007 287.511 36.0616C287.608 35.9225 287.809 35.8828 287.959 35.9728C288.109 36.0628 288.152 36.2486 288.055 36.3876Z" fill="white"/>
<path d="M197.608 -17.8748C197.511 -17.7357 197.31 -17.696 197.16 -17.786C197.01 -17.876 196.967 -18.0617 197.065 -18.2008C197.162 -18.3399 197.362 -18.3796 197.512 -18.2896C197.662 -18.1996 197.705 -18.0139 197.608 -17.8748Z" fill="white"/>
<path d="M80.0002 -88.4322C79.9031 -88.2932 79.7027 -88.2534 79.5527 -88.3434C79.4026 -88.4334 79.3597 -88.6192 79.4568 -88.7582C79.554 -88.8973 79.7544 -88.9371 79.9044 -88.847C80.0545 -88.757 80.0974 -88.5713 80.0002 -88.4322Z" fill="white"/>
<path d="M206.639 -90.8214C206.542 -90.6823 206.342 -90.6426 206.192 -90.7326C206.042 -90.8226 205.999 -91.0083 206.096 -91.1474C206.193 -91.2865 206.393 -91.3262 206.543 -91.2362C206.694 -91.1462 206.736 -90.9605 206.639 -90.8214Z" fill="white"/>
<path d="M25.5836 -10.5223C25.4865 -10.3832 25.2861 -10.3435 25.1361 -10.4335C24.986 -10.5235 24.9431 -10.7092 25.0402 -10.8483C25.1374 -10.9874 25.3378 -11.0271 25.4878 -10.9371C25.6379 -10.8471 25.6808 -10.6614 25.5836 -10.5223Z" fill="white"/>
<path d="M46.8524 26.3492C46.7552 26.4883 46.5548 26.5281 46.4048 26.438C46.2547 26.348 46.2118 26.1623 46.309 26.0232C46.4061 25.8842 46.6065 25.8444 46.7565 25.9344C46.9066 26.0244 46.9495 26.2102 46.8524 26.3492Z" fill="white"/>
<path d="M177.366 120.367C177.269 120.506 177.069 120.546 176.919 120.456C176.769 120.366 176.726 120.18 176.823 120.041C176.92 119.902 177.12 119.862 177.271 119.952C177.421 120.042 177.463 120.228 177.366 120.367Z" fill="white"/>
<path d="M99.3987 -87.5107C99.3015 -87.3716 99.1011 -87.3318 98.9511 -87.4218C98.801 -87.5119 98.7581 -87.6976 98.8552 -87.8367C98.9524 -87.9757 99.1528 -88.0155 99.3028 -87.9255C99.4529 -87.8354 99.4958 -87.6497 99.3987 -87.5107Z" fill="white"/>
<path d="M221.286 73.4882C221.189 73.6273 220.989 73.667 220.839 73.577C220.689 73.487 220.646 73.3013 220.743 73.1622C220.84 73.0231 221.041 72.9834 221.191 73.0734C221.341 73.1634 221.384 73.3491 221.286 73.4882Z" fill="white"/>
<path d="M263.066 21.3962C262.969 21.5353 262.769 21.5751 262.619 21.485C262.469 21.395 262.426 21.2093 262.523 21.0702C262.62 20.9311 262.82 20.8914 262.971 20.9814C263.121 21.0714 263.163 21.2571 263.066 21.3962Z" fill="white"/>
<path d="M118.899 -76.5261C118.802 -76.387 118.601 -76.3473 118.451 -76.4373C118.301 -76.5273 118.258 -76.713 118.355 -76.8521C118.453 -76.9912 118.653 -77.0309 118.803 -76.9409C118.953 -76.8509 118.996 -76.6652 118.899 -76.5261Z" fill="white"/>
<path d="M172.62 -32.8662C172.523 -32.7271 172.322 -32.6874 172.172 -32.7774C172.022 -32.8674 171.979 -33.0531 172.076 -33.1922C172.173 -33.3313 172.374 -33.371 172.524 -33.281C172.674 -33.191 172.717 -33.0053 172.62 -32.8662Z" fill="white"/>
<path d="M55.012 -103.424C54.9149 -103.285 54.7145 -103.245 54.5644 -103.335C54.4144 -103.425 54.3715 -103.611 54.4686 -103.75C54.5657 -103.889 54.7661 -103.928 54.9162 -103.838C55.0662 -103.748 55.1091 -103.563 55.012 -103.424Z" fill="white"/>
<path d="M0.595398 -25.5137C0.498263 -25.3746 0.297875 -25.3349 0.147819 -25.4249C-0.00223752 -25.5149 -0.0451396 -25.7006 0.0519957 -25.8397C0.149131 -25.9788 0.34952 -26.0185 0.499577 -25.9285C0.649633 -25.8385 0.692534 -25.6528 0.595398 -25.5137Z" fill="white"/>
<path d="M281.51 39.9629C281.413 40.102 281.213 40.1418 281.063 40.0517C280.913 39.9617 280.87 39.776 280.967 39.6369C281.064 39.4978 281.265 39.4581 281.415 39.5481C281.565 39.6381 281.608 39.8239 281.51 39.9629Z" fill="white"/>
<path d="M73.4561 -84.8569C73.359 -84.7178 73.1586 -84.6781 73.0085 -84.7681C72.8585 -84.8581 72.8156 -85.0438 72.9127 -85.1829C73.0098 -85.322 73.2102 -85.3617 73.3603 -85.2717C73.5103 -85.1817 73.5532 -84.996 73.4561 -84.8569Z" fill="white"/>
<path d="M230.451 -84.8665C230.354 -84.7274 230.153 -84.6876 230.003 -84.7777C229.853 -84.8677 229.81 -85.0534 229.907 -85.1925C230.004 -85.3316 230.205 -85.3713 230.355 -85.2813C230.505 -85.1913 230.548 -85.0056 230.451 -84.8665Z" fill="white"/>
<path d="M19.0395 -6.94697C18.9423 -6.8079 18.742 -6.76814 18.5919 -6.85817C18.4418 -6.94819 18.3989 -7.13391 18.4961 -7.27298C18.5932 -7.41206 18.7936 -7.45181 18.9437 -7.36179C19.0937 -7.27176 19.1366 -7.08604 19.0395 -6.94697Z" fill="white"/>
<path d="M40.3082 29.9245C40.2111 30.0636 40.0107 30.1034 39.8606 30.0133C39.7106 29.9233 39.6677 29.7376 39.7648 29.5985C39.8619 29.4595 40.0623 29.4197 40.2124 29.5097C40.3624 29.5997 40.4053 29.7855 40.3082 29.9245Z" fill="white"/>
<path d="M196.174 117.719C196.077 117.858 195.877 117.898 195.727 117.808C195.577 117.718 195.534 117.532 195.631 117.393C195.728 117.254 195.928 117.214 196.079 117.304C196.229 117.395 196.272 117.58 196.174 117.719Z" fill="white"/>
<path d="M118.207 -90.1582C118.109 -90.0191 117.909 -89.9794 117.759 -90.0694C117.609 -90.1594 117.566 -90.3451 117.663 -90.4842C117.76 -90.6233 117.961 -90.6631 118.111 -90.573C118.261 -90.483 118.304 -90.2973 118.207 -90.1582Z" fill="white"/>
<path d="M241.743 94.6913C241.646 94.8304 241.446 94.8702 241.296 94.7802C241.146 94.6901 241.103 94.5044 241.2 94.3653C241.297 94.2263 241.497 94.1865 241.648 94.2765C241.798 94.3666 241.841 94.5523 241.743 94.6913Z" fill="white"/>
<path d="M238.953 103.377C238.856 103.516 238.656 103.555 238.506 103.465C238.356 103.375 238.313 103.19 238.41 103.051C238.507 102.911 238.707 102.872 238.857 102.962C239.008 103.052 239.05 103.237 238.953 103.377Z" fill="white"/>
<path d="M234.317 34.69C234.22 34.829 234.02 34.8688 233.87 34.7788C233.72 34.6888 233.677 34.503 233.774 34.364C233.871 34.2249 234.071 34.1851 234.221 34.2751C234.371 34.3652 234.414 34.5509 234.317 34.69Z" fill="white"/>
<path d="M267.796 59.5978C267.699 59.7369 267.499 59.7766 267.349 59.6866C267.199 59.5966 267.156 59.4109 267.253 59.2718C267.35 59.1327 267.551 59.093 267.701 59.183C267.851 59.273 267.894 59.4587 267.796 59.5978Z" fill="white"/>
<path d="M59.742 -65.2221C59.6449 -65.083 59.4445 -65.0432 59.2945 -65.1333C59.1444 -65.2233 59.1015 -65.409 59.1986 -65.5481C59.2958 -65.6871 59.4962 -65.7269 59.6462 -65.6369C59.7963 -65.5468 59.8392 -65.3611 59.742 -65.2221Z" fill="white"/>
<path d="M5.32543 12.6879C5.2283 12.8269 5.02791 12.8667 4.87785 12.7767C4.7278 12.6866 4.68489 12.5009 4.78203 12.3619C4.87916 12.2228 5.07955 12.183 5.22961 12.273C5.37967 12.3631 5.42257 12.5488 5.32543 12.6879Z" fill="white"/>
<path d="M235.802 118.097C235.705 118.236 235.505 118.275 235.355 118.185C235.205 118.095 235.162 117.91 235.259 117.771C235.356 117.631 235.557 117.592 235.707 117.682C235.857 117.772 235.9 117.957 235.802 118.097Z" fill="white"/>
<path d="M289.567 26.2213C289.47 26.3604 289.269 26.4001 289.119 26.3101C288.969 26.2201 288.926 26.0344 289.023 25.8953C289.12 25.7562 289.321 25.7165 289.471 25.8065C289.621 25.8965 289.664 26.0822 289.567 26.2213Z" fill="white"/>
<path d="M199.12 -28.0411C199.023 -27.9021 198.823 -27.8623 198.672 -27.9523C198.522 -28.0423 198.48 -28.2281 198.577 -28.3671C198.674 -28.5062 198.874 -28.546 199.024 -28.4559C199.174 -28.3659 199.217 -28.1802 199.12 -28.0411Z" fill="white"/>
<path d="M62.0686 45.1228C61.9715 45.2619 61.7711 45.3016 61.621 45.2116C61.471 45.1216 61.4281 44.9359 61.5252 44.7968C61.6223 44.6577 61.8227 44.618 61.9728 44.708C62.1228 44.798 62.1657 44.9837 62.0686 45.1228Z" fill="white"/>
<path d="M289.298 10.8787C289.201 11.0178 289.001 11.0576 288.851 10.9675C288.7 10.8775 288.658 10.6918 288.755 10.5527C288.852 10.4137 289.052 10.3739 289.202 10.4639C289.352 10.5539 289.395 10.7397 289.298 10.8787Z" fill="white"/>
<path d="M198.852 -43.3837C198.754 -43.2446 198.554 -43.2048 198.404 -43.2949C198.254 -43.3849 198.211 -43.5706 198.308 -43.7097C198.405 -43.8488 198.606 -43.8885 198.756 -43.7985C198.906 -43.7085 198.949 -43.5228 198.852 -43.3837Z" fill="white"/>
<path d="M258.308 5.86037C258.211 5.99944 258.01 6.03921 257.86 5.94918C257.71 5.85915 257.667 5.67344 257.764 5.53436C257.861 5.39529 258.062 5.35553 258.212 5.44555C258.362 5.53558 258.405 5.7213 258.308 5.86037Z" fill="white"/>
<path d="M167.861 -48.4021C167.764 -48.263 167.564 -48.2232 167.414 -48.3133C167.263 -48.4033 167.221 -48.589 167.318 -48.7281C167.415 -48.8671 167.615 -48.9069 167.765 -48.8169C167.915 -48.7269 167.958 -48.5411 167.861 -48.4021Z" fill="white"/>
<path d="M249.765 16.9881C249.668 17.1272 249.467 17.1669 249.317 17.0769C249.167 16.9869 249.124 16.8012 249.221 16.6621C249.318 16.523 249.519 16.4833 249.669 16.5733C249.819 16.6633 249.862 16.849 249.765 16.9881Z" fill="white"/>
<path d="M105.597 -80.9342C105.5 -80.7952 105.3 -80.7554 105.15 -80.8454C105 -80.9355 104.957 -81.1212 105.054 -81.2603C105.151 -81.3993 105.351 -81.4391 105.501 -81.3491C105.651 -81.259 105.694 -81.0733 105.597 -80.9342Z" fill="white"/>
<path d="M86.8652 59.2849C86.7681 59.4239 86.5677 59.4637 86.4177 59.3737C86.2676 59.2836 86.2247 59.0979 86.3218 58.9588C86.419 58.8198 86.6194 58.78 86.7694 58.87C86.9195 58.9601 86.9624 59.1458 86.8652 59.2849Z" fill="white"/>
<path d="M286.593 31.5818C286.496 31.7208 286.296 31.7606 286.146 31.6706C285.996 31.5806 285.953 31.3948 286.05 31.2558C286.147 31.1167 286.348 31.0769 286.498 31.167C286.648 31.257 286.691 31.4427 286.593 31.5818Z" fill="white"/>
<path d="M196.147 -22.6806C196.05 -22.5416 195.849 -22.5018 195.699 -22.5918C195.549 -22.6819 195.506 -22.8676 195.603 -23.0067C195.701 -23.1457 195.901 -23.1855 196.051 -23.0955C196.201 -23.0054 196.244 -22.8197 196.147 -22.6806Z" fill="white"/>
<path d="M234.161 -22.2001C234.064 -22.0611 233.863 -22.0213 233.713 -22.1113C233.563 -22.2014 233.52 -22.3871 233.618 -22.5262C233.715 -22.6652 233.915 -22.705 234.065 -22.615C234.215 -22.5249 234.258 -22.3392 234.161 -22.2001Z" fill="white"/>
<path d="M78.5391 -93.2381C78.442 -93.099 78.2416 -93.0592 78.0915 -93.1493C77.9415 -93.2393 77.8986 -93.425 77.9957 -93.5641C78.0928 -93.7032 78.2932 -93.7429 78.4433 -93.6529C78.5933 -93.5629 78.6362 -93.3771 78.5391 -93.2381Z" fill="white"/>
<path d="M24.1226 -15.3282C24.0254 -15.1892 23.825 -15.1494 23.675 -15.2394C23.5249 -15.3295 23.482 -15.5152 23.5792 -15.6543C23.6763 -15.7933 23.8767 -15.8331 24.0267 -15.743C24.1768 -15.653 24.2197 -15.4673 24.1226 -15.3282Z" fill="white"/>
<path d="M45.3912 21.5434C45.2941 21.6825 45.0937 21.7222 44.9436 21.6322C44.7936 21.5422 44.7507 21.3565 44.8478 21.2174C44.9449 21.0783 45.1453 21.0385 45.2954 21.1286C45.4454 21.2186 45.4883 21.4043 45.3912 21.5434Z" fill="white"/>
<path d="M12.7664 -40.1802C12.6693 -40.0412 12.4689 -40.0014 12.3188 -40.0914C12.1688 -40.1814 12.1259 -40.3672 12.223 -40.5062C12.3202 -40.6453 12.5205 -40.6851 12.6706 -40.595C12.8207 -40.505 12.8636 -40.3193 12.7664 -40.1802Z" fill="white"/>
<path d="M113.549 67.4345C113.452 67.5736 113.251 67.6134 113.101 67.5233C112.951 67.4333 112.908 67.2476 113.005 67.1085C113.102 66.9695 113.303 66.9297 113.453 67.0197C113.603 67.1098 113.646 67.2955 113.549 67.4345Z" fill="white"/>
<path d="M155.817 88.8637C155.72 89.0028 155.52 89.0425 155.369 88.9525C155.219 88.8625 155.176 88.6768 155.274 88.5377C155.371 88.3986 155.571 88.3589 155.721 88.4489C155.871 88.5389 155.914 88.7246 155.817 88.8637Z" fill="white"/>
<path d="M184.28 105.226C184.183 105.365 183.983 105.404 183.833 105.314C183.683 105.224 183.64 105.039 183.737 104.9C183.834 104.761 184.035 104.721 184.185 104.811C184.335 104.901 184.378 105.087 184.28 105.226Z" fill="white"/>
<path d="M273.248 5.71485C273.151 5.85393 272.951 5.89368 272.801 5.80366C272.651 5.71363 272.608 5.52792 272.705 5.38884C272.802 5.24977 273.002 5.21001 273.152 5.30004C273.302 5.39006 273.345 5.57578 273.248 5.71485Z" fill="white"/>
<path d="M182.802 -48.5475C182.704 -48.4085 182.504 -48.3687 182.354 -48.4587C182.204 -48.5488 182.161 -48.7345 182.258 -48.8736C182.355 -49.0126 182.556 -49.0524 182.706 -48.9624C182.856 -48.8723 182.899 -48.6866 182.802 -48.5475Z" fill="white"/>
<path d="M236.125 -13.6992C236.028 -13.5602 235.827 -13.5204 235.677 -13.6105C235.527 -13.7005 235.484 -13.8862 235.581 -14.0253C235.678 -14.1643 235.879 -14.2041 236.029 -14.1141C236.179 -14.024 236.222 -13.8383 236.125 -13.6992Z" fill="white"/>
<path d="M145.678 -67.9617C145.581 -67.8226 145.381 -67.7828 145.231 -67.8729C145.08 -67.9629 145.038 -68.1486 145.135 -68.2877C145.232 -68.4267 145.432 -68.4665 145.582 -68.3765C145.732 -68.2865 145.775 -68.1007 145.678 -67.9617Z" fill="white"/>
<path d="M244.542 3.49589C244.445 3.63496 244.245 3.67471 244.095 3.58469C243.945 3.49467 243.902 3.30894 243.999 3.16988C244.096 3.03081 244.296 2.99105 244.446 3.08108C244.596 3.1711 244.639 3.35682 244.542 3.49589Z" fill="white"/>
<path d="M154.096 -50.7665C153.998 -50.6274 153.798 -50.5877 153.648 -50.6777C153.498 -50.7677 153.455 -50.9535 153.552 -51.0925C153.649 -51.2316 153.85 -51.2714 154 -51.1813C154.15 -51.0913 154.193 -50.9056 154.096 -50.7665Z" fill="white"/>
<path d="M293.262 42.7269C293.165 42.866 292.965 42.9057 292.815 42.8157C292.665 42.7257 292.622 42.54 292.719 42.4009C292.816 42.2618 293.017 42.2221 293.167 42.3121C293.317 42.4021 293.36 42.5878 293.262 42.7269Z" fill="white"/>
<path d="M85.2082 -82.0929C85.111 -81.9538 84.9107 -81.9141 84.7606 -82.0041C84.6105 -82.0941 84.5676 -82.2799 84.6648 -82.4189C84.7619 -82.558 84.9623 -82.5978 85.1124 -82.5077C85.2624 -82.4177 85.3053 -82.232 85.2082 -82.0929Z" fill="white"/>
<path d="M30.7916 -4.18301C30.6944 -4.04395 30.4941 -4.00418 30.344 -4.0942C30.1939 -4.18423 30.151 -4.36996 30.2482 -4.50903C30.3453 -4.6481 30.5457 -4.68786 30.6958 -4.59783C30.8458 -4.5078 30.8887 -4.32209 30.7916 -4.18301Z" fill="white"/>
<path d="M52.0602 32.6886C51.9631 32.8276 51.7627 32.8674 51.6127 32.7774C51.4626 32.6873 51.4197 32.5016 51.5168 32.3625C51.614 32.2235 51.8144 32.1837 51.9644 32.2737C52.1145 32.3638 52.1574 32.5495 52.0602 32.6886Z" fill="white"/>
<path d="M143.039 101.916C142.942 102.055 142.742 102.095 142.591 102.005C142.441 101.915 142.398 101.729 142.496 101.59C142.593 101.451 142.793 101.411 142.943 101.501C143.093 101.591 143.136 101.777 143.039 101.916Z" fill="white"/>
<path d="M65.0714 -105.962C64.9742 -105.823 64.7738 -105.783 64.6238 -105.873C64.4737 -105.963 64.4308 -106.149 64.528 -106.288C64.6251 -106.427 64.8255 -106.467 64.9755 -106.377C65.1256 -106.287 65.1685 -106.101 65.0714 -105.962Z" fill="white"/>
<path d="M217.032 95.583C216.934 95.7221 216.734 95.7619 216.584 95.6718C216.434 95.5818 216.391 95.3961 216.488 95.257C216.585 95.118 216.786 95.0782 216.936 95.1682C217.086 95.2582 217.129 95.444 217.032 95.583Z" fill="white"/>
<path d="M225.474 108.328C225.377 108.467 225.176 108.507 225.026 108.417C224.876 108.327 224.833 108.141 224.93 108.002C225.028 107.863 225.228 107.823 225.378 107.913C225.528 108.003 225.571 108.189 225.474 108.328Z" fill="white"/>
<path d="M74.329 -55.7564C74.2319 -55.6173 74.0315 -55.5776 73.8815 -55.6676C73.7314 -55.7576 73.6885 -55.9433 73.7856 -56.0824C73.8828 -56.2215 74.0832 -56.2612 74.2332 -56.1712C74.3833 -56.0812 74.4262 -55.8955 74.329 -55.7564Z" fill="white"/>
<path d="M19.9124 22.1536C19.8153 22.2926 19.6149 22.3324 19.4648 22.2424C19.3148 22.1523 19.2719 21.9666 19.369 21.8276C19.4661 21.6885 19.6665 21.6487 19.8166 21.7387C19.9666 21.8288 20.0095 22.0145 19.9124 22.1536Z" fill="white"/>
<path d="M51.6112 93.3314C51.6112 94.1759 50.8725 94.8605 49.9614 94.8605C49.0502 94.8605 48.3115 94.1759 48.3115 93.3314C48.3115 92.487 49.0502 91.8024 49.9614 91.8024C50.8725 91.8024 51.6112 92.487 51.6112 93.3314Z" fill="white"/>
<path d="M94.6984 -71.6551C94.6984 -70.8106 93.9597 -70.1261 93.0486 -70.1261C92.1374 -70.1261 91.3988 -70.8106 91.3988 -71.6551C91.3988 -72.4996 92.1374 -73.1841 93.0486 -73.1841C93.9597 -73.1841 94.6984 -72.4996 94.6984 -71.6551Z" fill="white"/>
<path d="M233.031 99.9869C233.031 100.831 232.292 101.516 231.381 101.516C230.47 101.516 229.731 100.831 229.731 99.9869C229.731 99.1425 230.47 98.4579 231.381 98.4579C232.292 98.4579 233.031 99.1425 233.031 99.9869Z" fill="white"/>
<path d="M42.9181 12.4145C42.9181 13.2589 42.1795 13.9435 41.2683 13.9435C40.3572 13.9435 39.6185 13.2589 39.6185 12.4145C39.6185 11.57 40.3572 10.8854 41.2683 10.8854C42.1795 10.8854 42.9181 11.57 42.9181 12.4145Z" fill="white"/>
<path d="M292.748 -74.4574C292.748 -73.613 292.01 -72.9284 291.099 -72.9284C290.187 -72.9284 289.449 -73.613 289.449 -74.4574C289.449 -75.3019 290.187 -75.9865 291.099 -75.9865C292.01 -75.9865 292.748 -75.3019 292.748 -74.4574Z" fill="white"/>
</g>
</g>
<ellipse cx="124.912" cy="86.5" rx="32.1201" ry="5.5" fill="#00101B" fill-opacity="0.3"/>
<path fill-rule="evenodd" clip-rule="evenodd" d="M114.586 64.6036C110.686 74.4159 100.473 75.5521 100.473 75.5521C100.473 75.5521 95.0367 74.8688 96.0116 69.6356C96.0116 69.6356 96.2682 67.4718 102.271 65.2577C102.271 65.2577 109.737 63.0185 112.354 54.6654C112.354 54.6654 113.185 53.03 113.493 51.3443C113.493 51.3443 112.867 47.4948 114.432 47.3942C114.432 47.3942 116.946 46.7904 117.1 49.1554C117.1 49.1554 117.1 59.32 114.586 64.6036Z" fill="#225054"/>
<path fill-rule="evenodd" clip-rule="evenodd" d="M85.8712 27.7144L84.6396 57.5039L113.579 61.0262L85.8712 27.7144ZM89.3104 40.5811C89.5561 40.5797 89.8994 40.7251 90.379 41.1304L101.992 54.9684C101.992 54.9684 103.442 56.1757 100.938 55.891L89.5112 54.4349C89.5112 54.4349 88.2413 54.328 88.4227 52.7268L88.692 41.5396C88.692 41.5396 88.6825 40.5837 89.3104 40.5811Z" fill="#ACACAC"/>
<path fill-rule="evenodd" clip-rule="evenodd" d="M85.8654 27.7178L84.6338 57.5073L113.573 61.0297L112.857 60.1691L85.5728 56.6712L86.6216 28.627L85.8654 27.7178Z" fill="#8C8C8C"/>
<path d="M88.8467 31.3282L88.6353 31.0708L86.9265 32.4206L87.1379 32.678L88.8467 31.3282Z" fill="black"/>
<path d="M89.491 32.0975L89.3452 31.9199L88.2882 32.7549L88.4341 32.9324L89.491 32.0975Z" fill="black"/>
<path d="M90.0218 32.7469L89.876 32.5693L88.819 33.4043L88.9648 33.5818L90.0218 32.7469Z" fill="black"/>
<path d="M90.5677 33.3812L90.4219 33.2036L89.3649 34.0386L89.5107 34.2161L90.5677 33.3812Z" fill="black"/>
<path d="M91.0623 33.9861L90.9165 33.8086L89.8595 34.6435L90.0054 34.8211L91.0623 33.9861Z" fill="black"/>
<path d="M91.664 34.69L91.4526 34.4326L89.7439 35.7824L89.9553 36.0398L91.664 34.69Z" fill="black"/>
<path d="M92.2093 35.3646L92.0635 35.187L91.0065 36.022L91.1523 36.1995L92.2093 35.3646Z" fill="black"/>
<path d="M92.7406 36.014L92.5947 35.8364L91.5378 36.6714L91.6836 36.8489L92.7406 36.014Z" fill="black"/>
<path d="M93.286 36.6487L93.1401 36.4712L92.0832 37.3061L92.229 37.4837L93.286 36.6487Z" fill="black"/>
<path d="M93.7816 37.2532L93.6357 37.0757L92.5788 37.9106L92.7246 38.0882L93.7816 37.2532Z" fill="black"/>
<path d="M94.3833 37.9571L94.1719 37.6997L92.4631 39.0495L92.6745 39.3069L94.3833 37.9571Z" fill="black"/>
<path d="M94.9998 38.7064L94.854 38.5288L93.797 39.3637L93.9429 39.5413L94.9998 38.7064Z" fill="black"/>
<path d="M95.5306 39.3558L95.3848 39.1782L94.3278 40.0132L94.4736 40.1907L95.5306 39.3558Z" fill="black"/>
<path d="M96.076 39.9901L95.9302 39.8125L94.8732 40.6474L95.019 40.825L96.076 39.9901Z" fill="black"/>
<path d="M96.5711 40.5945L96.4253 40.417L95.3683 41.2519L95.5142 41.4295L96.5711 40.5945Z" fill="black"/>
<path d="M97.1728 41.2989L96.9614 41.0415L95.2526 42.3913L95.464 42.6487L97.1728 41.2989Z" fill="black"/>
<path d="M97.7225 41.991L97.5767 41.8135L96.5197 42.6484L96.6655 42.826L97.7225 41.991Z" fill="black"/>
<path d="M98.2528 42.6404L98.1069 42.4629L97.05 43.2978L97.1958 43.4754L98.2528 42.6404Z" fill="black"/>
<path d="M98.7987 43.2747L98.6528 43.0972L97.5959 43.9321L97.7417 44.1097L98.7987 43.2747Z" fill="black"/>
<path d="M99.2938 43.8797L99.1479 43.7021L98.091 44.5371L98.2368 44.7146L99.2938 43.8797Z" fill="black"/>
<path d="M99.895 44.5836L99.6836 44.3262L97.9748 45.676L98.1862 45.9334L99.895 44.5836Z" fill="black"/>
<path d="M100.478 45.3123L100.333 45.1348L99.2756 45.9697L99.4214 46.1473L100.478 45.3123Z" fill="black"/>
<path d="M101.01 45.9617L100.864 45.7842L99.8073 46.6191L99.9531 46.7967L101.01 45.9617Z" fill="black"/>
<path d="M101.556 46.596L101.41 46.4185L100.353 47.2534L100.499 47.431L101.556 46.596Z" fill="black"/>
<path d="M102.051 47.201L101.905 47.0234L100.848 47.8584L100.994 48.0359L102.051 47.201Z" fill="black"/>
<path d="M102.651 47.9048L102.44 47.6475L100.731 48.9973L100.943 49.2547L102.651 47.9048Z" fill="black"/>
<path d="M103.178 48.5467L103.032 48.3691L101.975 49.2041L102.121 49.3816L103.178 48.5467Z" fill="black"/>
<path d="M103.708 49.1956L103.562 49.0181L102.506 49.853L102.651 50.0306L103.708 49.1956Z" fill="black"/>
<path d="M104.254 49.8299L104.108 49.6523L103.051 50.4873L103.197 50.6648L104.254 49.8299Z" fill="black"/>
<path d="M104.749 50.4349L104.604 50.2573L103.547 51.0923L103.692 51.2698L104.749 50.4349Z" fill="black"/>
<path d="M105.351 51.1392L105.139 50.8818L103.43 52.2317L103.642 52.4891L105.351 51.1392Z" fill="black"/>
<path d="M105.915 51.8362L105.769 51.6587L104.712 52.4936L104.858 52.6712L105.915 51.8362Z" fill="black"/>
<path d="M106.446 52.4852L106.3 52.3076L105.243 53.1426L105.389 53.3201L106.446 52.4852Z" fill="black"/>
<path d="M106.992 53.1199L106.846 52.9424L105.789 53.7773L105.935 53.9549L106.992 53.1199Z" fill="black"/>
<path d="M107.487 53.7244L107.341 53.5469L106.284 54.3818L106.43 54.5594L107.487 53.7244Z" fill="black"/>
<path d="M108.088 54.4288L107.877 54.1714L106.168 55.5212L106.38 55.7786L108.088 54.4288Z" fill="black"/>
<path d="M108.624 55.0911L108.479 54.9136L107.422 55.7485L107.567 55.9261L108.624 55.0911Z" fill="black"/>
<path d="M109.155 55.7405L109.009 55.563L107.952 56.3979L108.098 56.5755L109.155 55.7405Z" fill="black"/>
<path d="M109.701 56.3748L109.555 56.1973L108.498 57.0322L108.644 57.2098L109.701 56.3748Z" fill="black"/>
<path d="M110.196 56.9798L110.05 56.8022L108.993 57.6372L109.139 57.8147L110.196 56.9798Z" fill="black"/>
<path d="M110.797 57.6837L110.586 57.4263L108.877 58.7761L109.089 59.0335L110.797 57.6837Z" fill="black"/>
<path fill-rule="evenodd" clip-rule="evenodd" d="M95.191 52.2505C95.191 52.2505 94.1904 50.5899 92.6255 50.766C92.6255 50.766 90.9066 50.7157 90.1882 53.2569C90.1882 53.2569 87.3406 62.6415 91.1375 70.6927C91.1375 70.6927 95.0884 77.9387 102.836 74.8692C102.836 74.8692 106.633 73.0074 107.403 70.6927C107.403 70.6927 108.326 68.0257 106.736 65.862C106.736 65.862 104.646 63.2057 104.193 61.8536C104.193 61.8536 103.093 58.7417 102.605 56.7289C102.605 56.7289 101.425 51.6466 99.5011 53.4078C99.5011 53.4078 99.3728 51.6466 98.0131 51.1686C98.0131 51.1686 96.0377 50.5648 95.191 52.2505Z" fill="#225054"/>
<path fill-rule="evenodd" clip-rule="evenodd" d="M116.944 47.8169C116.638 48.3359 116.71 49.5528 116.71 49.5528C115.206 60.9094 109.925 67.0587 109.925 67.0587C105.608 72.4671 99.2221 71.4353 99.2221 71.4353C92.5462 69.7985 90.3604 60.3505 90.3604 60.3505C89.9755 59.5202 89.5907 60.0737 89.5907 60.0737C89.3867 60.1904 89.2518 60.6566 89.1829 60.9606C89.1605 63.9702 89.5996 67.4926 91.1556 70.7919C91.1556 70.7919 94.2718 76.5054 100.396 75.6352C100.423 75.6394 100.492 75.6517 100.492 75.6517C100.492 75.6517 110.705 74.5155 114.605 64.7031C117.119 59.4196 118.062 49.5041 118.062 49.5041C117.996 48.4887 117.495 48.0206 116.944 47.8169Z" fill="#194145"/>
<path d="M131.1 84.5444C139.861 84.5444 146.963 74.9246 146.963 63.0579C146.963 51.1912 139.861 41.5713 131.1 41.5713C122.339 41.5713 115.237 51.1912 115.237 63.0579C115.237 74.9246 122.339 84.5444 131.1 84.5444Z" fill="#BCB9A8"/>
<path fill-rule="evenodd" clip-rule="evenodd" d="M146.204 48.9394C150.155 55.6823 151.181 65.4947 151.181 65.4947C152.31 73.0426 148 75.5083 148 75.5083C148 75.5083 142.789 76.6031 143.661 71.3195C143.661 71.3195 146.017 56.2454 142.595 50.3865C142.595 50.3865 140.559 47.3795 142.047 47.1279C142.047 47.1279 144.562 46.0208 146.204 48.9394Z" fill="#225054"/>
<path fill-rule="evenodd" clip-rule="evenodd" d="M128.279 18.8199C128.279 18.8199 125.884 16.5071 118.337 17.7524C118.337 17.7524 110.914 19.0933 106.014 14.2122C106.014 14.2122 105.398 15.596 106.322 17.1559C106.322 17.1559 102.858 16.3257 99.8567 12.753C99.8567 12.753 98.8561 17.332 101.139 20.7035C101.139 20.7035 99.5488 21.1061 98.0352 20.0494C98.0352 20.0494 97.5221 24.3014 102.114 25.0562C102.114 25.0562 98.6509 26.6916 98.2404 31.7487C98.2404 31.7487 99.6258 31.0945 100.78 31.0694C100.78 31.0694 97.2655 36.5542 102.063 40.5798C102.063 40.5798 101.653 48.7568 108.015 50.9206C108.015 50.9206 120.894 54.7449 126.128 44.9828C126.128 44.9828 128.231 40.5547 131.977 42.7688C131.977 42.7688 132.901 43.3223 133.67 45.0835C133.67 45.0835 137.169 52.9613 149.843 50.4957C149.843 50.4957 158.567 48.58 160.095 43.6745C160.095 43.6745 161.48 44.4293 161.583 45.8383C161.583 45.8383 166.971 43.5235 161.378 29.3837C161.378 29.3837 163.687 29.6856 164.713 31.8997C164.713 31.8997 166.611 27.069 161.224 22.4395C161.224 22.4395 164.918 19.3197 164.354 14.9419C164.354 14.9419 160.557 17.4075 157.17 17.2063C157.17 17.2063 159.685 15.747 157.786 8.60156C157.786 8.60156 154.81 12.8284 147.883 13.7845C147.883 13.7845 142.085 14.5393 138.493 14.7909C138.493 14.7909 130.122 14.9486 128.279 18.8199Z" fill="#173C3F"/>
<path fill-rule="evenodd" clip-rule="evenodd" d="M119.386 52.1671C119.386 52.1671 124.209 50.7078 125.902 47.6383C125.902 47.6383 129.545 50.5569 130.726 50.7581C130.726 50.7581 131.598 48.3176 133.676 47.437C133.676 47.437 135.604 50.871 141.812 52.0283C141.812 52.0283 145.773 60.3346 139.387 73.9267C139.387 73.9267 134.888 80.189 128.793 78.4811C128.793 78.4811 121.972 77.129 119.505 65.6006C119.505 65.6006 118.251 56.809 119.386 52.1671Z" fill="#D6D4C8"/>
<path fill-rule="evenodd" clip-rule="evenodd" d="M156.872 10.7476C156.872 10.7476 153.142 14.0489 145.918 14.0319C143.913 14.2753 140.812 14.6334 138.496 14.7956C138.496 14.7956 130.125 14.9533 128.281 18.8246C128.281 18.8246 125.887 16.5117 118.34 17.7571C118.34 17.7571 110.917 19.0979 106.017 14.2169C106.017 14.2169 105.401 15.6006 106.325 17.1605C106.325 17.1605 103.454 16.4714 100.674 13.6516C101.077 17.4173 103.041 21.4378 103.041 21.4378C102.249 21.2638 101.616 20.9839 101.109 20.6568C101.121 20.6738 101.131 20.6912 101.142 20.7082C101.142 20.7082 100.164 20.9524 99.0122 20.5503C99.883 24.7874 104.118 24.3396 104.118 24.3396C102.848 25.0512 100.997 27.3284 100.997 27.3284C98.3126 30.8154 101.832 30.3885 101.832 30.3885C98.3489 37.1845 102.784 37.8422 102.784 37.8422C102.784 37.8422 101.604 46.8493 109.506 48.8621C109.506 48.8621 117.767 51.1769 125.155 44.1825C125.155 44.1825 127.259 42.5218 127.67 41.9683C127.67 41.9683 129.773 39.2509 132.955 42.1191C132.955 42.1191 139.882 52.0826 153.222 46.5474C153.222 46.5474 158.405 45.0379 158.969 38.8485C158.969 38.8485 159.893 39.0498 160.354 40.3078C160.354 40.3078 161.688 34.2191 158.866 25.866C158.866 25.866 162.253 27.0735 162.869 27.7277C162.869 27.7277 163.484 25.3627 158.918 22.1422C158.918 22.1422 161.479 20.639 162.423 17.1165C162.423 17.1165 159.593 19.5361 155.275 18.0417C155.275 18.0417 157.38 15.5866 156.872 10.7476Z" fill="#225054"/>
<path d="M146.344 43.7656C152.743 42.5939 156.842 36.0655 155.499 29.1841C154.156 22.3027 147.88 17.674 141.481 18.8457C135.082 20.0174 130.983 26.5458 132.325 33.4272C133.668 40.3087 139.944 44.9374 146.344 43.7656Z" fill="#173C3F"/>
<path d="M113.197 45.98C106.876 44.8083 102.827 38.2799 104.154 31.3984C105.48 24.517 111.679 19.8884 118 21.0601C124.321 22.2318 128.37 28.7602 127.043 35.6416C125.717 42.523 119.518 47.1517 113.197 45.98Z" fill="#173C3F"/>
<path d="M113.332 46.0255C107.011 44.9561 102.963 38.9974 104.289 32.7165C105.615 26.4356 111.814 22.2109 118.135 23.2804C124.456 24.3498 128.505 30.3085 127.178 36.5894C125.852 42.8703 119.653 47.095 113.332 46.0255Z" fill="#D6D4C8"/>
<path d="M146.41 43.7804C152.74 42.7044 156.795 36.7088 155.466 30.389C154.138 24.0692 147.93 19.8183 141.6 20.8943C135.27 21.9704 131.215 27.966 132.544 34.2858C133.872 40.6056 140.08 44.8565 146.41 43.7804Z" fill="#D6D4C8"/>
<path d="M113.437 43.0265C110.01 44.1913 106.274 42.4225 105.091 39.0759C103.908 35.7293 105.727 32.0721 109.154 30.9073C112.581 29.7426 116.317 31.5113 117.5 34.8579C118.683 38.2046 116.864 41.8618 113.437 43.0265Z" fill="#FAB84A"/>
<path d="M112.826 41.4443C110.273 42.3124 107.488 40.9942 106.606 38.5C105.725 36.0058 107.08 33.2802 109.634 32.4121C112.188 31.544 114.973 32.8623 115.854 35.3564C116.736 37.8506 115.38 40.5763 112.826 41.4443Z" fill="#201E1E"/>
<path d="M114.761 35.0855C113.941 35.3642 113.047 34.941 112.764 34.1403C112.481 33.3395 112.916 32.4645 113.736 32.1858C114.556 31.9071 115.45 32.3303 115.733 33.131C116.016 33.9318 115.581 34.8069 114.761 35.0855Z" fill="#FEFEFE"/>
<path fill-rule="evenodd" clip-rule="evenodd" d="M126.289 39.2677C114.574 36.5046 105.915 41.3027 105.915 41.3027C105.915 41.3027 108.745 46.124 114.477 46.3375C114.477 46.3375 122.478 46.9922 126.289 39.2677Z" fill="#194145"/>
<path d="M142.42 40.3844C138.993 41.5492 135.257 39.7805 134.074 36.4338C132.891 33.0872 134.71 29.43 138.137 28.2652C141.563 27.1005 145.3 28.8692 146.483 32.2158C147.666 35.5625 145.847 39.2197 142.42 40.3844Z" fill="#FAB84A"/>
<path d="M141.809 38.8022C139.255 39.6703 136.47 38.3521 135.589 35.8579C134.707 33.3637 136.063 30.6381 138.617 29.77C141.17 28.902 143.955 30.2202 144.837 32.7143C145.718 35.2085 144.363 37.9342 141.809 38.8022Z" fill="#201E1E"/>
<path d="M143.743 32.4435C142.924 32.7221 142.029 32.2989 141.746 31.4982C141.463 30.6974 141.899 29.8224 142.719 29.5437C143.538 29.265 144.433 29.6882 144.716 30.489C144.999 31.2897 144.563 32.1648 143.743 32.4435Z" fill="#FEFEFE"/>
<path fill-rule="evenodd" clip-rule="evenodd" d="M134.625 39.105C134.625 39.105 138.313 44.0656 144.264 44.2079C144.264 44.2079 152.352 44.2079 154.897 36.8817C141.201 34.0754 134.625 39.105 134.625 39.105Z" fill="#194145"/>
<path fill-rule="evenodd" clip-rule="evenodd" d="M129.065 39.5801C129.065 39.5801 124.022 40.0782 124.385 45.0952C124.385 45.0952 124.349 48.1552 128.267 51.1085C128.267 51.1085 128.666 51.2508 128.775 50.7883C128.775 50.7883 129.573 48.6178 131.351 47.2657C131.351 47.2657 133.564 45.8069 133.528 43.4941C133.528 43.4941 133.782 39.7224 129.065 39.5801Z" fill="#D2952F"/>
<path fill-rule="evenodd" clip-rule="evenodd" d="M129.261 39.6025C129.077 39.7733 128.901 39.9799 128.738 40.2322C128.738 40.2322 126.706 44.5733 128.411 49.6614C128.411 49.6614 129.862 47.313 131.822 46.2455C131.822 46.2455 132.518 45.8865 133.171 45.1382C133.39 44.6599 133.536 44.1126 133.527 43.5058C133.527 43.5058 133.77 39.844 129.261 39.6025Z" fill="#FAB84A"/>
<path fill-rule="evenodd" clip-rule="evenodd" d="M92.9029 50.7233C92.8189 50.721 92.7327 50.7248 92.645 50.7334C92.7948 50.8097 93.9822 51.4357 94.1695 52.2874C94.1695 52.2874 91.1796 57.8809 94.2069 63.9696C94.2069 63.9696 92.9162 57.2151 95.4188 51.8419C95.3332 51.9532 95.2531 52.0778 95.1817 52.22C95.1817 52.22 94.3023 50.7606 92.9029 50.7233V50.7233ZM98.433 51.3551C98.7296 51.883 99.0351 52.6695 98.9768 53.6218C98.9768 53.6218 96.2558 58.2116 98.4328 65.1144C98.4328 65.1144 98.1423 55.6498 99.9564 54.0486C99.9564 54.0486 100.61 53.2304 101.118 55.4009C101.118 55.4009 102.696 63.9047 106.451 67.2671C106.451 67.2671 105.715 65.5859 105.325 63.859C105.152 63.5439 104.268 62.0739 104.183 61.8232C104.183 61.8232 103.084 58.7115 102.596 56.6987C102.596 56.6987 101.416 51.6163 99.4917 53.3775C99.4917 53.3775 99.3914 52.0059 98.433 51.3551Z" fill="#194145"/>
<path fill-rule="evenodd" clip-rule="evenodd" d="M120.643 73.244L122.256 77.2399L159.37 59.7497L157.306 55.374L120.643 73.244Z" fill="#ACACAC"/>
<path fill-rule="evenodd" clip-rule="evenodd" d="M159.029 59.0156L122.558 76.075L121.218 72.9769L120.643 73.2573L122.265 77.262L159.337 59.749L159.029 59.0156Z" fill="#8C8C8C"/>
<path d="M122.623 72.2849L122.3 72.4395L123.326 74.5005L123.649 74.3459L122.623 72.2849Z" fill="black"/>
<path d="M123.59 71.8099L123.368 71.9165L124.002 73.1914L124.225 73.0847L123.59 71.8099Z" fill="black"/>
<path d="M124.404 71.4222L124.181 71.5288L124.816 72.8037L125.039 72.697L124.404 71.4222Z" fill="black"/>
<path d="M125.205 71.0164L124.982 71.123L125.617 72.3979L125.84 72.2913L125.205 71.0164Z" fill="black"/>
<path d="M125.963 70.6546L125.74 70.7612L126.375 72.0361L126.598 71.9295L125.963 70.6546Z" fill="black"/>
<path d="M126.852 70.2082L126.529 70.3628L127.555 72.4239L127.878 72.2693L126.852 70.2082Z" fill="black"/>
<path d="M127.696 69.8118L127.473 69.9185L128.108 71.1933L128.331 71.0867L127.696 69.8118Z" fill="black"/>
<path d="M128.51 69.4246L128.287 69.5312L128.922 70.8061L129.145 70.6995L128.51 69.4246Z" fill="black"/>
<path d="M129.311 69.0184L129.088 69.125L129.723 70.3999L129.946 70.2932L129.311 69.0184Z" fill="black"/>
<path d="M130.069 68.6566L129.846 68.7632L130.481 70.0381L130.704 69.9314L130.069 68.6566Z" fill="black"/>
<path d="M130.958 68.2102L130.635 68.3647L131.661 70.4258L131.984 70.2712L130.958 68.2102Z" fill="black"/>
<path d="M131.897 67.7586L131.675 67.8652L132.31 69.1401L132.532 69.0335L131.897 67.7586Z" fill="black"/>
<path d="M132.711 67.3719L132.489 67.4785L133.124 68.7534L133.346 68.6468L132.711 67.3719Z" fill="black"/>
<path d="M133.512 66.9656L133.29 67.0723L133.924 68.3471L134.147 68.2405L133.512 66.9656Z" fill="black"/>
<path d="M134.271 66.6038L134.048 66.7104L134.683 67.9853L134.906 67.8787L134.271 66.6038Z" fill="black"/>
<path d="M135.16 66.1574L134.837 66.312L135.863 68.3731L136.186 68.2185L135.16 66.1574Z" fill="black"/>
<path d="M136.022 65.761L135.8 65.8677L136.435 67.1425L136.657 67.0359L136.022 65.761Z" fill="black"/>
<path d="M136.836 65.3738L136.614 65.4805L137.249 66.7553L137.471 66.6487L136.836 65.3738Z" fill="black"/>
<path d="M137.638 64.9681L137.415 65.0747L138.05 66.3496L138.272 66.2429L137.638 64.9681Z" fill="black"/>
<path d="M138.397 64.6063L138.174 64.7129L138.809 65.9878L139.031 65.8811L138.397 64.6063Z" fill="black"/>
<path d="M139.285 64.1599L138.962 64.3145L139.988 66.3755L140.311 66.2209L139.285 64.1599Z" fill="black"/>
<path d="M140.195 63.7376L139.972 63.8442L140.607 65.1191L140.83 65.0125L140.195 63.7376Z" fill="black"/>
<path d="M141.009 63.3504L140.786 63.457L141.421 64.7319L141.644 64.6253L141.009 63.3504Z" fill="black"/>
<path d="M141.81 62.9442L141.587 63.0508L142.222 64.3256L142.445 64.219L141.81 62.9442Z" fill="black"/>
<path d="M142.568 62.5823L142.345 62.689L142.98 63.9638L143.203 63.8572L142.568 62.5823Z" fill="black"/>
<path d="M143.456 62.1364L143.133 62.291L144.16 64.3521L144.482 64.1975L143.456 62.1364Z" fill="black"/>
<path d="M144.261 61.7518L144.038 61.8584L144.673 63.1333L144.896 63.0266L144.261 61.7518Z" fill="black"/>
<path d="M145.074 61.3646L144.852 61.4712L145.486 62.7461L145.709 62.6394L145.074 61.3646Z" fill="black"/>
<path d="M145.876 60.9583L145.653 61.0649L146.288 62.3398L146.511 62.2332L145.876 60.9583Z" fill="black"/>
<path d="M146.634 60.5965L146.411 60.7031L147.046 61.978L147.269 61.8714L146.634 60.5965Z" fill="black"/>
<path d="M147.522 60.1501L147.199 60.3047L148.225 62.3657L148.548 62.2112L147.522 60.1501Z" fill="black"/>
<path d="M148.395 59.74L148.172 59.8467L148.807 61.1215L149.03 61.0149L148.395 59.74Z" fill="black"/>
<path d="M149.209 59.3528L148.986 59.4595L149.621 60.7343L149.843 60.6277L149.209 59.3528Z" fill="black"/>
<path d="M150.01 58.9461L149.787 59.0527L150.422 60.3276L150.645 60.221L150.01 58.9461Z" fill="black"/>
<path d="M150.768 58.5848L150.545 58.6914L151.18 59.9663L151.402 59.8596L150.768 58.5848Z" fill="black"/>
<path d="M151.656 58.1384L151.333 58.293L152.36 60.354L152.682 60.1995L151.656 58.1384Z" fill="black"/>
<path d="M152.485 57.7488L152.263 57.8555L152.897 59.1303L153.12 59.0237L152.485 57.7488Z" fill="black"/>
<path d="M153.299 57.3616L153.076 57.4683L153.711 58.7431L153.934 58.6365L153.299 57.3616Z" fill="black"/>
<path d="M154.1 56.9554L153.877 57.062L154.512 58.3369L154.735 58.2302L154.1 56.9554Z" fill="black"/>
<path d="M154.858 56.5936L154.636 56.7002L155.271 57.9751L155.493 57.8684L154.858 56.5936Z" fill="black"/>
<path d="M155.747 56.1472L155.424 56.3018L156.45 58.3628L156.773 58.2082L155.747 56.1472Z" fill="black"/>
<path fill-rule="evenodd" clip-rule="evenodd" d="M138.713 78.8292C134.198 78.9802 133.12 75.5584 133.12 75.5584C130.965 68.413 133.377 61.3682 133.377 61.3682C135.429 56.4872 139.996 59.1038 139.996 59.1038C141.484 59.8083 147.897 66.6518 147.897 66.6518C147.897 66.6518 151.746 71.5832 148.205 75.3571C148.205 75.3571 144.101 78.0241 138.713 78.8292Z" fill="#225054"/>
<path fill-rule="evenodd" clip-rule="evenodd" d="M150.942 64.7899C150.674 68.3076 150.301 69.3835 150.301 69.3835C149.321 73.4754 146.872 73.4043 146.872 73.4043C145.022 73.7245 144.586 69.5613 144.586 69.5613C144.477 70.095 144.731 72.9772 144.731 72.9772C144.876 75.1833 143.861 75.4679 143.861 75.4679C142.627 75.966 141.321 73.582 141.321 73.582C139.217 69.3834 140.16 66.1099 140.16 66.1099C138.781 68.8497 139.507 72.1587 139.507 72.1587C140.269 74.3292 140.051 75.6459 140.051 75.6459C139.761 77.7807 138.201 77.674 138.201 77.674C136.169 77.9231 134.863 75.2543 134.863 75.2543C132.461 70.4699 132.932 64.577 133.473 61.3164C133.458 61.3517 133.442 61.3862 133.427 61.4224C133.427 61.4224 131.015 68.4672 133.17 75.6126C133.17 75.6126 134.248 79.0344 138.763 78.8835C143.382 78.1932 147.038 76.1449 147.993 75.5716C148.003 75.5695 148.05 75.5623 148.05 75.5623C148.05 75.5623 152.361 73.0965 151.232 65.5485C151.232 65.5485 151.117 64.7559 150.923 63.7048L150.942 64.7899Z" fill="#194145"/>
<path fill-rule="evenodd" clip-rule="evenodd" d="M138.452 58.543C139.668 59.4776 145.994 64.4396 148.274 69.1792C148.274 69.1792 148.448 67.8676 147.862 66.7536C145.765 64.2887 142.853 60.6913 140.014 59.1151C140.014 59.1151 139.367 58.7451 138.452 58.543Z" fill="#194145"/>
<path fill-rule="evenodd" clip-rule="evenodd" d="M123.792 87.8202C121.433 88.7453 120.236 87.3576 120.236 87.3576C120.236 87.3576 118.386 88.2472 117.551 87.2153C117.551 87.2153 115.737 87.2153 115.81 85.9699C115.81 85.9699 115.229 84.6534 117.66 82.9811C117.66 82.9811 120.018 81.2376 121.579 80.9885C121.579 80.9885 124.009 80.0634 127.13 83.3013C127.13 83.3013 127.674 84.013 128.327 84.0841C128.327 84.0841 129.089 84.0129 128.835 84.6534C128.835 84.6534 127.855 86.4325 123.792 87.8202Z" fill="#AD7821"/>
<path fill-rule="evenodd" clip-rule="evenodd" d="M133.024 82.5527C133.024 82.5527 131.173 84.0827 131.464 86.4667C131.464 86.4667 131.79 88.1746 132.733 88.4237C132.733 88.4237 133.749 89.1353 134.947 87.712C134.947 87.712 136.216 89.3488 137.922 87.9611C137.994 87.8188 138.684 87.3562 138.938 86.609C138.938 86.609 140.933 88.4592 141.84 86.7513C141.876 86.5734 142.53 85.3281 141.659 83.3355C141.659 83.3355 140.752 81.2006 137.595 81.2362C137.595 81.2362 135.055 81.1295 133.024 82.5527Z" fill="#AD7821"/>
<path fill-rule="evenodd" clip-rule="evenodd" d="M131.984 83.813C131.984 83.813 133.059 82.3263 134.213 82.276C134.213 82.276 134.921 82.2081 135.276 83.0455C135.276 83.0455 135.373 81.574 136.964 81.8508C136.964 81.8508 137.56 81.987 138.09 82.9289C138.09 82.9289 137.791 82.0689 138.509 81.6915C138.509 81.6915 139.894 81.2864 140.912 83.1337C140.912 83.1337 141.842 84.5267 141.457 86.2879C141.457 86.2879 140.809 87.4584 139.45 86.4269C139.45 86.4269 138.808 86.0019 138.475 84.6685C138.475 84.6685 138.431 87.4366 137.148 87.663C137.148 87.663 135.746 88.0536 135.361 86.8208C135.361 86.8208 135.165 85.4484 135.242 84.9452C135.242 84.9452 135.031 86.9715 133.825 87.7263C133.825 87.7263 132.831 88.367 132.138 87.26C132.138 87.26 131.266 85.2472 131.984 83.813Z" fill="#CE9434"/>
<path fill-rule="evenodd" clip-rule="evenodd" d="M123.624 82.8519C125.291 81.921 126.494 83.4845 126.494 83.4845C127.951 84.5013 126.925 85.7678 126.925 85.7678C125.7 86.7556 123.495 87.4344 123.495 87.4344C121.916 88.0647 121.363 87.1154 121.363 87.1154C120.336 85.8323 121.799 83.8619 121.799 83.8619C121.799 83.8619 120.327 85.1019 119.865 86.7122C119.865 86.7122 119.521 87.6608 118.058 86.9012C118.058 86.9012 117.425 86.0557 117.925 84.667C117.925 84.667 117.36 85.447 117.386 86.1766C117.386 86.1766 117.506 86.6549 117.007 86.5304C116.989 86.4592 115.946 86.5748 116.263 84.858C116.263 84.858 116.616 83.6732 117.322 83.7236C117.322 83.7236 117.771 83.711 117.809 84.0381C117.809 84.0381 118.541 82.8807 119.567 82.2769C119.567 82.2769 120.554 81.5724 121.76 81.4466C121.76 81.4466 123.53 81.195 123.338 82.1133C123.338 82.1133 123.374 82.4616 122.861 82.9145C122.797 82.9522 122.422 83.4087 122.256 83.4967C122.256 83.4967 123.483 82.94 123.624 82.8519Z" fill="#CE9434"/>
<defs>
<linearGradient id="paint0_linear_3974_7749" x1="129.5" y1="0" x2="129.5" y2="97" gradientUnits="userSpaceOnUse">
<stop stop-opacity="0"/>
<stop offset="1"/>
</linearGradient>
</defs>
</svg>
