<svg width="259" height="97" viewBox="0 0 259 97" fill="none" xmlns="http://www.w3.org/2000/svg">
<path d="M0 6C0 2.68629 2.68629 0 6 0H252.728C256.042 0 258.728 2.68629 258.728 6V97H0V6Z" fill="#00BDB9"/>
<mask id="mask0_3974_7890" style="mask-type:alpha" maskUnits="userSpaceOnUse" x="0" y="0" width="259" height="97">
<path d="M0 6C0 2.68629 2.68629 0 6 0H253C256.314 0 259 2.68629 259 6V97H0V6Z" fill="#7F6CC3"/>
<path d="M0 6C0 2.68629 2.68629 0 6 0H253C256.314 0 259 2.68629 259 6V97H0V6Z" fill="url(#paint0_linear_3974_7890)" fill-opacity="0.3"/>
</mask>
<g mask="url(#mask0_3974_7890)">
<g opacity="0.6">
<path d="M283.32 19.4373C283.029 19.8544 282.428 19.9736 281.978 19.7037C281.528 19.4337 281.399 18.8767 281.69 18.4596C281.982 18.0425 282.583 17.9233 283.033 18.1933C283.483 18.4633 283.611 19.0202 283.32 19.4373Z" fill="white"/>
<path d="M208.077 -70.7507C207.786 -70.3336 207.185 -70.2144 206.735 -70.4844C206.285 -70.7543 206.156 -71.3113 206.448 -71.7284C206.739 -72.1455 207.34 -72.2647 207.79 -71.9947C208.24 -71.7247 208.368 -71.1678 208.077 -70.7507Z" fill="white"/>
<path d="M192.874 -34.8251C192.582 -34.408 191.981 -34.2888 191.531 -34.5588C191.081 -34.8288 190.953 -35.3857 191.244 -35.8028C191.535 -36.2199 192.136 -36.3391 192.586 -36.0692C193.036 -35.7992 193.165 -35.2422 192.874 -34.8251Z" fill="white"/>
<path d="M96.0901 73.3922C95.7988 73.8093 95.1979 73.9285 94.7478 73.6585C94.2978 73.3885 94.1692 72.8316 94.4605 72.4145C94.7518 71.9974 95.3528 71.8782 95.8028 72.1482C96.2528 72.4182 96.3815 72.9751 96.0901 73.3922Z" fill="white"/>
<path d="M126.359 90.4801C126.068 90.8972 125.467 91.0164 125.017 90.7464C124.567 90.4765 124.438 89.9195 124.729 89.5024C125.021 89.0853 125.622 88.9661 126.072 89.2361C126.522 89.5061 126.65 90.063 126.359 90.4801Z" fill="white"/>
<path d="M197.153 95.6238C196.862 96.0409 196.261 96.1602 195.811 95.8902C195.361 95.6202 195.232 95.0632 195.524 94.6461C195.815 94.229 196.416 94.1098 196.866 94.3798C197.316 94.6498 197.445 95.2068 197.153 95.6238Z" fill="white"/>
<path d="M207.089 75.3293C206.797 75.7464 206.196 75.8656 205.746 75.5956C205.296 75.3257 205.168 74.7687 205.459 74.3516C205.75 73.9345 206.351 73.8153 206.801 74.0853C207.251 74.3553 207.38 74.9122 207.089 75.3293Z" fill="white"/>
<path d="M262.569 -6.58631C262.277 -6.16924 261.676 -6.05 261.226 -6.31998C260.776 -6.58997 260.648 -7.14694 260.939 -7.56402C261.23 -7.98109 261.831 -8.10033 262.281 -7.83035C262.731 -7.56036 262.86 -7.00339 262.569 -6.58631Z" fill="white"/>
<path d="M172.122 -60.8487C171.831 -60.4317 171.23 -60.3124 170.78 -60.5824C170.33 -60.8524 170.201 -61.4094 170.492 -61.8264C170.784 -62.2435 171.385 -62.3628 171.835 -62.0928C172.285 -61.8228 172.413 -61.2658 172.122 -60.8487Z" fill="white"/>
<path d="M249.07 52.471C248.779 52.888 248.178 53.0073 247.728 52.7373C247.278 52.4673 247.149 51.9103 247.441 51.4933C247.732 51.0762 248.333 50.9569 248.783 51.2269C249.233 51.4969 249.362 52.0539 249.07 52.471Z" fill="white"/>
<path d="M41.0159 -72.3489C40.7246 -71.9318 40.1236 -71.8125 39.6736 -72.0825C39.2236 -72.3525 39.0949 -72.9095 39.3863 -73.3265C39.6776 -73.7436 40.2785 -73.8629 40.7285 -73.5929C41.1786 -73.3229 41.3072 -72.7659 41.0159 -72.3489Z" fill="white"/>
<path d="M246.251 -86.5137C245.96 -86.0966 245.359 -85.9774 244.909 -86.2474C244.459 -86.5174 244.33 -87.0743 244.621 -87.4914C244.913 -87.9085 245.514 -88.0277 245.964 -87.7578C246.414 -87.4878 246.542 -86.9308 246.251 -86.5137Z" fill="white"/>
<path d="M225.059 -15.5155C224.768 -15.0984 224.167 -14.9792 223.717 -15.2492C223.267 -15.5192 223.139 -16.0761 223.43 -16.4932C223.721 -16.9103 224.322 -17.0295 224.772 -16.7596C225.222 -16.4896 225.351 -15.9326 225.059 -15.5155Z" fill="white"/>
<path d="M134.613 -69.7779C134.322 -69.3609 133.721 -69.2416 133.271 -69.5116C132.821 -69.7816 132.692 -70.3386 132.983 -70.7556C133.274 -71.1727 133.875 -71.292 134.325 -71.022C134.775 -70.752 134.904 -70.195 134.613 -69.7779Z" fill="white"/>
<path d="M36.4809 -47.9216C36.1896 -47.5046 35.5886 -47.3853 35.1386 -47.6553C34.6886 -47.9253 34.5599 -48.4823 34.8512 -48.8993C35.1425 -49.3164 35.7435 -49.4356 36.1935 -49.1657C36.6435 -48.8957 36.7722 -48.3387 36.4809 -47.9216Z" fill="white"/>
<path d="M29.8621 -30.9957C29.5708 -30.5786 28.9698 -30.4594 28.5198 -30.7294C28.0698 -30.9993 27.9411 -31.5563 28.2324 -31.9734C28.5237 -32.3905 29.1247 -32.5097 29.5747 -32.2397C30.0247 -31.9697 30.1534 -31.4128 29.8621 -30.9957Z" fill="white"/>
<path d="M31.9487 90.0324C31.6574 90.4494 31.0565 90.5687 30.6064 90.2987C30.1564 90.0287 30.0278 89.4717 30.3191 89.0547C30.6104 88.6376 31.2113 88.5183 31.6614 88.7883C32.1114 89.0583 32.24 89.6153 31.9487 90.0324Z" fill="white"/>
<path d="M51.6026 71.467C51.3112 71.8841 50.7103 72.0033 50.2603 71.7333C49.8102 71.4633 49.6816 70.9064 49.9729 70.4893C50.2642 70.0722 50.8652 69.953 51.3152 70.223C51.7652 70.493 51.8939 71.0499 51.6026 71.467Z" fill="white"/>
<path d="M25.5235 55.704C25.2321 56.121 24.6312 56.2403 24.1812 55.9703C23.7311 55.7003 23.6025 55.1433 23.8938 54.7263C24.1851 54.3092 24.7861 54.19 25.2361 54.4599C25.6861 54.7299 25.8148 55.2869 25.5235 55.704Z" fill="white"/>
<path d="M173.683 -97.723C173.392 -97.3059 172.791 -97.1867 172.341 -97.4567C171.891 -97.7266 171.762 -98.2836 172.053 -98.7007C172.345 -99.1178 172.946 -99.237 173.396 -98.967C173.846 -98.697 173.974 -98.1401 173.683 -97.723Z" fill="white"/>
<path d="M248.519 -57.0894C248.227 -56.6723 247.626 -56.5531 247.176 -56.823C246.726 -57.093 246.598 -57.65 246.889 -58.0671C247.18 -58.4842 247.781 -58.6034 248.231 -58.3334C248.681 -58.0634 248.81 -57.5065 248.519 -57.0894Z" fill="white"/>
<path d="M256.026 67.8961C255.735 68.3132 255.134 68.4324 254.684 68.1624C254.234 67.8925 254.105 67.3355 254.396 66.9184C254.688 66.5013 255.289 66.3821 255.739 66.6521C256.189 66.9221 256.317 67.479 256.026 67.8961Z" fill="white"/>
<path d="M47.9717 -56.9237C47.6803 -56.5067 47.0794 -56.3874 46.6294 -56.6574C46.1793 -56.9274 46.0507 -57.4844 46.342 -57.9014C46.6333 -58.3185 47.2343 -58.4378 47.6843 -58.1678C48.1343 -57.8978 48.263 -57.3408 47.9717 -56.9237Z" fill="white"/>
<path d="M216.671 138.589C216.38 139.006 215.779 139.125 215.329 138.855C214.879 138.585 214.75 138.029 215.041 137.611C215.333 137.194 215.934 137.075 216.384 137.345C216.834 137.615 216.962 138.172 216.671 138.589Z" fill="white"/>
<path d="M304.835 23.9505C304.544 24.3676 303.943 24.4868 303.493 24.2169C303.043 23.9469 302.914 23.3899 303.205 22.9728C303.497 22.5557 304.098 22.4365 304.548 22.7065C304.998 22.9765 305.126 23.5334 304.835 23.9505Z" fill="white"/>
<path d="M281.676 51.3144C281.53 51.523 281.23 51.5827 281.005 51.4476C280.78 51.3126 280.715 51.034 280.861 50.8254C281.007 50.6168 281.307 50.5572 281.532 50.6922C281.757 50.8273 281.822 51.1058 281.676 51.3144Z" fill="white"/>
<path d="M73.6216 -73.5054C73.4759 -73.2968 73.1753 -73.2372 72.9503 -73.3722C72.7252 -73.5073 72.6608 -73.7858 72.8065 -73.9944C72.9522 -74.203 73.2528 -74.2627 73.4779 -74.1276C73.703 -73.9926 73.7673 -73.714 73.6216 -73.5054Z" fill="white"/>
<path d="M234.59 -72.6677C234.444 -72.4591 234.144 -72.3995 233.919 -72.5345C233.693 -72.6695 233.629 -72.9481 233.775 -73.1567C233.92 -73.3653 234.221 -73.425 234.446 -73.2899C234.671 -73.1549 234.736 -72.8763 234.59 -72.6677Z" fill="white"/>
<path d="M19.205 4.4045C19.0593 4.61311 18.7587 4.67274 18.5337 4.5377C18.3086 4.40266 18.2442 4.12409 18.3899 3.91548C18.5356 3.70687 18.8362 3.64724 19.0613 3.78227C19.2864 3.91731 19.3507 4.19588 19.205 4.4045Z" fill="white"/>
<path d="M171.29 103.683C171.144 103.892 170.844 103.951 170.618 103.816C170.393 103.681 170.329 103.403 170.475 103.194C170.62 102.986 170.921 102.926 171.146 103.061C171.371 103.196 171.436 103.475 171.29 103.683Z" fill="white"/>
<path d="M93.3221 -104.194C93.1764 -103.986 92.8758 -103.926 92.6507 -104.061C92.4256 -104.196 92.3613 -104.475 92.507 -104.683C92.6527 -104.892 92.9532 -104.952 93.1783 -104.817C93.4034 -104.682 93.4678 -104.403 93.3221 -104.194Z" fill="white"/>
<path d="M98.4034 53.5261C98.2577 53.7347 97.9571 53.7944 97.732 53.6593C97.507 53.5243 97.4426 53.2457 97.5883 53.0371C97.734 52.8285 98.0346 52.7689 98.2597 52.9039C98.4848 53.0389 98.5491 53.3175 98.4034 53.5261Z" fill="white"/>
<path d="M268.982 85.4922C268.836 85.7008 268.535 85.7604 268.31 85.6254C268.085 85.4903 268.021 85.2118 268.167 85.0032C268.312 84.7945 268.613 84.7349 268.838 84.8699C269.063 85.005 269.127 85.2836 268.982 85.4922Z" fill="white"/>
<path d="M60.9273 -39.3277C60.7816 -39.1191 60.481 -39.0594 60.2559 -39.1945C60.0309 -39.3295 59.9665 -39.6081 60.1122 -39.8167C60.2579 -40.0253 60.5585 -40.0849 60.7836 -39.9499C61.0087 -39.8148 61.073 -39.5363 60.9273 -39.3277Z" fill="white"/>
<path d="M255.656 82.4984C255.51 82.707 255.209 82.7666 254.984 82.6316C254.759 82.4966 254.695 82.218 254.841 82.0094C254.986 81.8008 255.287 81.7411 255.512 81.8762C255.737 82.0112 255.801 82.2898 255.656 82.4984Z" fill="white"/>
<path d="M47.6013 -42.3215C47.4556 -42.1128 47.1551 -42.0532 46.93 -42.1882C46.7049 -42.3233 46.6405 -42.6019 46.7862 -42.8105C46.9319 -43.0191 47.2325 -43.0787 47.4576 -42.9437C47.6827 -42.8086 47.747 -42.5301 47.6013 -42.3215Z" fill="white"/>
<path d="M53.4773 -20.9357C53.3316 -20.7271 53.031 -20.6675 52.8059 -20.8025C52.5808 -20.9376 52.5165 -21.2161 52.6622 -21.4247C52.8079 -21.6334 53.1085 -21.693 53.3336 -21.558C53.5587 -21.4229 53.623 -21.1443 53.4773 -20.9357Z" fill="white"/>
<path d="M252.695 107.155C252.549 107.364 252.248 107.424 252.023 107.289C251.798 107.154 251.734 106.875 251.879 106.666C252.025 106.458 252.326 106.398 252.551 106.533C252.776 106.668 252.84 106.947 252.695 107.155Z" fill="white"/>
<path d="M268.032 38.8426C267.887 39.0512 267.586 39.1108 267.361 38.9758C267.136 38.8408 267.072 38.5622 267.217 38.3536C267.363 38.145 267.664 38.0853 267.889 38.2204C268.114 38.3554 268.178 38.634 268.032 38.8426Z" fill="white"/>
<path d="M63.1508 -84.0738C63.0051 -83.8652 62.7046 -83.8055 62.4795 -83.9406C62.2544 -84.0756 62.19 -84.3542 62.3357 -84.5628C62.4814 -84.7714 62.782 -84.831 63.0071 -84.696C63.2322 -84.5609 63.2965 -84.2824 63.1508 -84.0738Z" fill="white"/>
<path d="M8.7342 -6.1638C8.5885 -5.95519 8.28792 -5.89554 8.06283 -6.03058C7.83775 -6.16562 7.7734 -6.44419 7.9191 -6.6528C8.0648 -6.86141 8.36538 -6.92106 8.59047 -6.78602C8.81555 -6.65099 8.8799 -6.37241 8.7342 -6.1638Z" fill="white"/>
<path d="M240.839 72.3588C240.693 72.5674 240.392 72.627 240.167 72.492C239.942 72.3569 239.878 72.0784 240.023 71.8698C240.169 71.6611 240.47 71.6015 240.695 71.7365C240.92 71.8716 240.984 72.1502 240.839 72.3588Z" fill="white"/>
<path d="M32.7842 -52.4611C32.6384 -52.2525 32.3379 -52.1928 32.1128 -52.3279C31.8877 -52.4629 31.8233 -52.7415 31.969 -52.9501C32.1147 -53.1587 32.4153 -53.2183 32.6404 -53.0833C32.8655 -52.9483 32.9299 -52.6697 32.7842 -52.4611Z" fill="white"/>
<path d="M310.507 34.1406C310.361 34.3492 310.061 34.4088 309.836 34.2738C309.611 34.1387 309.546 33.8602 309.692 33.6516C309.838 33.443 310.138 33.3833 310.363 33.5184C310.588 33.6534 310.653 33.932 310.507 34.1406Z" fill="white"/>
<path d="M220.06 -20.1218C219.915 -19.9132 219.614 -19.8536 219.389 -19.9886C219.164 -20.1237 219.1 -20.4022 219.245 -20.6108C219.391 -20.8194 219.692 -20.8791 219.917 -20.744C220.142 -20.609 220.206 -20.3304 220.06 -20.1218Z" fill="white"/>
<path d="M252.806 28.6363C252.661 28.8449 252.36 28.9045 252.135 28.7695C251.91 28.6344 251.846 28.3559 251.991 28.1473C252.137 27.9387 252.438 27.879 252.663 28.0141C252.888 28.1491 252.952 28.4277 252.806 28.6363Z" fill="white"/>
<path d="M44.752 -96.1836C44.6063 -95.9749 44.3057 -95.9153 44.0806 -96.0503C43.8556 -96.1854 43.7912 -96.464 43.9369 -96.6726C44.0826 -96.8812 44.3832 -96.9408 44.6083 -96.8058C44.8334 -96.6707 44.8977 -96.3922 44.752 -96.1836Z" fill="white"/>
<path d="M227.619 49.2465C227.473 49.4551 227.173 49.5148 226.948 49.3797C226.723 49.2447 226.658 48.9661 226.804 48.7575C226.95 48.5489 227.25 48.4893 227.475 48.6243C227.7 48.7593 227.765 49.0379 227.619 49.2465Z" fill="white"/>
<path d="M297.291 35.8561C297.193 35.9952 296.993 36.0349 296.843 35.9449C296.693 35.8549 296.65 35.6692 296.747 35.5301C296.844 35.391 297.045 35.3512 297.195 35.4413C297.345 35.5313 297.388 35.717 297.291 35.8561Z" fill="white"/>
<path d="M206.844 -18.4063C206.747 -18.2673 206.546 -18.2275 206.396 -18.3175C206.246 -18.4075 206.203 -18.5933 206.301 -18.7323C206.398 -18.8714 206.598 -18.9112 206.748 -18.8211C206.898 -18.7311 206.941 -18.5454 206.844 -18.4063Z" fill="white"/>
<path d="M89.2363 -88.9637C89.1391 -88.8247 88.9387 -88.7849 88.7887 -88.8749C88.6386 -88.965 88.5957 -89.1507 88.6929 -89.2898C88.79 -89.4288 88.9904 -89.4686 89.1404 -89.3786C89.2905 -89.2885 89.3334 -89.1028 89.2363 -88.9637Z" fill="white"/>
<path d="M34.8197 -11.0538C34.7225 -10.9148 34.5221 -10.875 34.3721 -10.965C34.222 -11.055 34.1791 -11.2408 34.2763 -11.3798C34.3734 -11.5189 34.5738 -11.5587 34.7238 -11.4686C34.8739 -11.3786 34.9168 -11.1929 34.8197 -11.0538Z" fill="white"/>
<path d="M56.0883 25.8177C55.9912 25.9568 55.7908 25.9966 55.6407 25.9066C55.4907 25.8165 55.4478 25.6308 55.5449 25.4917C55.6421 25.3527 55.8424 25.3129 55.9925 25.4029C56.1426 25.493 56.1855 25.6787 56.0883 25.8177Z" fill="white"/>
<path d="M149.583 98.3406C149.486 98.4797 149.286 98.5195 149.136 98.4294C148.986 98.3394 148.943 98.1537 149.04 98.0146C149.137 97.8756 149.337 97.8358 149.487 97.9258C149.637 98.0159 149.68 98.2016 149.583 98.3406Z" fill="white"/>
<path d="M71.6155 -109.537C71.5184 -109.398 71.318 -109.358 71.1679 -109.448C71.0179 -109.538 70.975 -109.724 71.0721 -109.863C71.1692 -110.002 71.3696 -110.042 71.5197 -109.952C71.6697 -109.862 71.7126 -109.676 71.6155 -109.537Z" fill="white"/>
<path d="M288.055 36.3876C287.957 36.5267 287.757 36.5664 287.607 36.4764C287.457 36.3864 287.414 36.2007 287.511 36.0616C287.608 35.9225 287.809 35.8828 287.959 35.9728C288.109 36.0628 288.152 36.2486 288.055 36.3876Z" fill="white"/>
<path d="M197.608 -17.8748C197.511 -17.7357 197.31 -17.696 197.16 -17.786C197.01 -17.876 196.967 -18.0617 197.065 -18.2008C197.162 -18.3399 197.362 -18.3796 197.512 -18.2896C197.662 -18.1996 197.705 -18.0139 197.608 -17.8748Z" fill="white"/>
<path d="M80.0002 -88.4322C79.9031 -88.2932 79.7027 -88.2534 79.5527 -88.3434C79.4026 -88.4334 79.3597 -88.6192 79.4568 -88.7582C79.554 -88.8973 79.7544 -88.9371 79.9044 -88.847C80.0545 -88.757 80.0974 -88.5713 80.0002 -88.4322Z" fill="white"/>
<path d="M206.639 -90.8214C206.542 -90.6823 206.342 -90.6426 206.192 -90.7326C206.042 -90.8226 205.999 -91.0083 206.096 -91.1474C206.193 -91.2865 206.393 -91.3262 206.543 -91.2362C206.694 -91.1462 206.736 -90.9605 206.639 -90.8214Z" fill="white"/>
<path d="M25.5836 -10.5223C25.4865 -10.3832 25.2861 -10.3435 25.1361 -10.4335C24.986 -10.5235 24.9431 -10.7092 25.0402 -10.8483C25.1374 -10.9874 25.3378 -11.0271 25.4878 -10.9371C25.6379 -10.8471 25.6808 -10.6614 25.5836 -10.5223Z" fill="white"/>
<path d="M46.8524 26.3492C46.7552 26.4883 46.5548 26.5281 46.4048 26.438C46.2547 26.348 46.2118 26.1623 46.309 26.0232C46.4061 25.8842 46.6065 25.8444 46.7565 25.9344C46.9066 26.0244 46.9495 26.2102 46.8524 26.3492Z" fill="white"/>
<path d="M177.366 120.367C177.269 120.506 177.069 120.546 176.919 120.456C176.769 120.366 176.726 120.18 176.823 120.041C176.92 119.902 177.12 119.862 177.271 119.952C177.421 120.042 177.463 120.228 177.366 120.367Z" fill="white"/>
<path d="M99.3987 -87.5107C99.3015 -87.3716 99.1011 -87.3318 98.9511 -87.4218C98.801 -87.5119 98.7581 -87.6976 98.8552 -87.8367C98.9524 -87.9757 99.1528 -88.0155 99.3028 -87.9255C99.4529 -87.8354 99.4958 -87.6497 99.3987 -87.5107Z" fill="white"/>
<path d="M221.286 73.4882C221.189 73.6273 220.989 73.667 220.839 73.577C220.689 73.487 220.646 73.3013 220.743 73.1622C220.84 73.0231 221.041 72.9834 221.191 73.0734C221.341 73.1634 221.384 73.3491 221.286 73.4882Z" fill="white"/>
<path d="M263.066 21.3962C262.969 21.5353 262.769 21.5751 262.619 21.485C262.469 21.395 262.426 21.2093 262.523 21.0702C262.62 20.9311 262.82 20.8914 262.971 20.9814C263.121 21.0714 263.163 21.2571 263.066 21.3962Z" fill="white"/>
<path d="M118.899 -76.5261C118.802 -76.387 118.601 -76.3473 118.451 -76.4373C118.301 -76.5273 118.258 -76.713 118.355 -76.8521C118.453 -76.9912 118.653 -77.0309 118.803 -76.9409C118.953 -76.8509 118.996 -76.6652 118.899 -76.5261Z" fill="white"/>
<path d="M172.62 -32.8662C172.523 -32.7271 172.322 -32.6874 172.172 -32.7774C172.022 -32.8674 171.979 -33.0531 172.076 -33.1922C172.173 -33.3313 172.374 -33.371 172.524 -33.281C172.674 -33.191 172.717 -33.0053 172.62 -32.8662Z" fill="white"/>
<path d="M55.012 -103.424C54.9149 -103.285 54.7145 -103.245 54.5644 -103.335C54.4144 -103.425 54.3715 -103.611 54.4686 -103.75C54.5657 -103.889 54.7661 -103.928 54.9162 -103.838C55.0662 -103.748 55.1091 -103.563 55.012 -103.424Z" fill="white"/>
<path d="M0.595398 -25.5137C0.498263 -25.3746 0.297875 -25.3349 0.147819 -25.4249C-0.00223752 -25.5149 -0.0451396 -25.7006 0.0519957 -25.8397C0.149131 -25.9788 0.34952 -26.0185 0.499577 -25.9285C0.649633 -25.8385 0.692534 -25.6528 0.595398 -25.5137Z" fill="white"/>
<path d="M281.51 39.9629C281.413 40.102 281.213 40.1418 281.063 40.0517C280.913 39.9617 280.87 39.776 280.967 39.6369C281.064 39.4978 281.265 39.4581 281.415 39.5481C281.565 39.6381 281.608 39.8239 281.51 39.9629Z" fill="white"/>
<path d="M73.4561 -84.8569C73.359 -84.7178 73.1586 -84.6781 73.0085 -84.7681C72.8585 -84.8581 72.8156 -85.0438 72.9127 -85.1829C73.0098 -85.322 73.2102 -85.3617 73.3603 -85.2717C73.5103 -85.1817 73.5532 -84.996 73.4561 -84.8569Z" fill="white"/>
<path d="M230.451 -84.8665C230.354 -84.7274 230.153 -84.6876 230.003 -84.7777C229.853 -84.8677 229.81 -85.0534 229.907 -85.1925C230.004 -85.3316 230.205 -85.3713 230.355 -85.2813C230.505 -85.1913 230.548 -85.0056 230.451 -84.8665Z" fill="white"/>
<path d="M19.0395 -6.94697C18.9423 -6.8079 18.742 -6.76814 18.5919 -6.85817C18.4418 -6.94819 18.3989 -7.13391 18.4961 -7.27298C18.5932 -7.41206 18.7936 -7.45181 18.9437 -7.36179C19.0937 -7.27176 19.1366 -7.08604 19.0395 -6.94697Z" fill="white"/>
<path d="M40.3082 29.9245C40.2111 30.0636 40.0107 30.1034 39.8606 30.0133C39.7106 29.9233 39.6677 29.7376 39.7648 29.5985C39.8619 29.4595 40.0623 29.4197 40.2124 29.5097C40.3624 29.5997 40.4053 29.7855 40.3082 29.9245Z" fill="white"/>
<path d="M196.174 117.719C196.077 117.858 195.877 117.898 195.727 117.808C195.577 117.718 195.534 117.532 195.631 117.393C195.728 117.254 195.928 117.214 196.079 117.304C196.229 117.395 196.272 117.58 196.174 117.719Z" fill="white"/>
<path d="M118.207 -90.1582C118.109 -90.0191 117.909 -89.9794 117.759 -90.0694C117.609 -90.1594 117.566 -90.3451 117.663 -90.4842C117.76 -90.6233 117.961 -90.6631 118.111 -90.573C118.261 -90.483 118.304 -90.2973 118.207 -90.1582Z" fill="white"/>
<path d="M241.743 94.6913C241.646 94.8304 241.446 94.8702 241.296 94.7802C241.146 94.6901 241.103 94.5044 241.2 94.3653C241.297 94.2263 241.497 94.1865 241.648 94.2765C241.798 94.3666 241.841 94.5523 241.743 94.6913Z" fill="white"/>
<path d="M238.953 103.377C238.856 103.516 238.656 103.555 238.506 103.465C238.356 103.375 238.313 103.19 238.41 103.051C238.507 102.911 238.707 102.872 238.857 102.962C239.008 103.052 239.05 103.237 238.953 103.377Z" fill="white"/>
<path d="M234.317 34.69C234.22 34.829 234.02 34.8688 233.87 34.7788C233.72 34.6888 233.677 34.503 233.774 34.364C233.871 34.2249 234.071 34.1851 234.221 34.2751C234.371 34.3652 234.414 34.5509 234.317 34.69Z" fill="white"/>
<path d="M267.796 59.5978C267.699 59.7369 267.499 59.7766 267.349 59.6866C267.199 59.5966 267.156 59.4109 267.253 59.2718C267.35 59.1327 267.551 59.093 267.701 59.183C267.851 59.273 267.894 59.4587 267.796 59.5978Z" fill="white"/>
<path d="M59.742 -65.2221C59.6449 -65.083 59.4445 -65.0432 59.2945 -65.1333C59.1444 -65.2233 59.1015 -65.409 59.1986 -65.5481C59.2958 -65.6871 59.4962 -65.7269 59.6462 -65.6369C59.7963 -65.5468 59.8392 -65.3611 59.742 -65.2221Z" fill="white"/>
<path d="M5.32543 12.6879C5.2283 12.8269 5.02791 12.8667 4.87785 12.7767C4.7278 12.6866 4.68489 12.5009 4.78203 12.3619C4.87916 12.2228 5.07955 12.183 5.22961 12.273C5.37967 12.3631 5.42257 12.5488 5.32543 12.6879Z" fill="white"/>
<path d="M235.802 118.097C235.705 118.236 235.505 118.275 235.355 118.185C235.205 118.095 235.162 117.91 235.259 117.771C235.356 117.631 235.557 117.592 235.707 117.682C235.857 117.772 235.9 117.957 235.802 118.097Z" fill="white"/>
<path d="M289.567 26.2213C289.47 26.3604 289.269 26.4001 289.119 26.3101C288.969 26.2201 288.926 26.0344 289.023 25.8953C289.12 25.7562 289.321 25.7165 289.471 25.8065C289.621 25.8965 289.664 26.0822 289.567 26.2213Z" fill="white"/>
<path d="M199.12 -28.0411C199.023 -27.9021 198.823 -27.8623 198.672 -27.9523C198.522 -28.0423 198.48 -28.2281 198.577 -28.3671C198.674 -28.5062 198.874 -28.546 199.024 -28.4559C199.174 -28.3659 199.217 -28.1802 199.12 -28.0411Z" fill="white"/>
<path d="M62.0686 45.1228C61.9715 45.2619 61.7711 45.3016 61.621 45.2116C61.471 45.1216 61.4281 44.9359 61.5252 44.7968C61.6223 44.6577 61.8227 44.618 61.9728 44.708C62.1228 44.798 62.1657 44.9837 62.0686 45.1228Z" fill="white"/>
<path d="M289.298 10.8787C289.201 11.0178 289.001 11.0576 288.851 10.9675C288.7 10.8775 288.658 10.6918 288.755 10.5527C288.852 10.4137 289.052 10.3739 289.202 10.4639C289.352 10.5539 289.395 10.7397 289.298 10.8787Z" fill="white"/>
<path d="M198.852 -43.3837C198.754 -43.2446 198.554 -43.2048 198.404 -43.2949C198.254 -43.3849 198.211 -43.5706 198.308 -43.7097C198.405 -43.8488 198.606 -43.8885 198.756 -43.7985C198.906 -43.7085 198.949 -43.5228 198.852 -43.3837Z" fill="white"/>
<path d="M258.308 5.86037C258.211 5.99944 258.01 6.03921 257.86 5.94918C257.71 5.85915 257.667 5.67344 257.764 5.53436C257.861 5.39529 258.062 5.35553 258.212 5.44555C258.362 5.53558 258.405 5.7213 258.308 5.86037Z" fill="white"/>
<path d="M167.861 -48.4021C167.764 -48.263 167.564 -48.2232 167.414 -48.3133C167.263 -48.4033 167.221 -48.589 167.318 -48.7281C167.415 -48.8671 167.615 -48.9069 167.765 -48.8169C167.915 -48.7269 167.958 -48.5411 167.861 -48.4021Z" fill="white"/>
<path d="M249.765 16.9881C249.668 17.1272 249.467 17.1669 249.317 17.0769C249.167 16.9869 249.124 16.8012 249.221 16.6621C249.318 16.523 249.519 16.4833 249.669 16.5733C249.819 16.6633 249.862 16.849 249.765 16.9881Z" fill="white"/>
<path d="M105.597 -80.9342C105.5 -80.7952 105.3 -80.7554 105.15 -80.8454C105 -80.9355 104.957 -81.1212 105.054 -81.2603C105.151 -81.3993 105.351 -81.4391 105.501 -81.3491C105.651 -81.259 105.694 -81.0733 105.597 -80.9342Z" fill="white"/>
<path d="M86.8652 59.2849C86.7681 59.4239 86.5677 59.4637 86.4177 59.3737C86.2676 59.2836 86.2247 59.0979 86.3218 58.9588C86.419 58.8198 86.6194 58.78 86.7694 58.87C86.9195 58.9601 86.9624 59.1458 86.8652 59.2849Z" fill="white"/>
<path d="M286.593 31.5818C286.496 31.7208 286.296 31.7606 286.146 31.6706C285.996 31.5806 285.953 31.3948 286.05 31.2558C286.147 31.1167 286.348 31.0769 286.498 31.167C286.648 31.257 286.691 31.4427 286.593 31.5818Z" fill="white"/>
<path d="M196.147 -22.6806C196.05 -22.5416 195.849 -22.5018 195.699 -22.5918C195.549 -22.6819 195.506 -22.8676 195.603 -23.0067C195.701 -23.1457 195.901 -23.1855 196.051 -23.0955C196.201 -23.0054 196.244 -22.8197 196.147 -22.6806Z" fill="white"/>
<path d="M234.161 -22.2001C234.064 -22.0611 233.863 -22.0213 233.713 -22.1113C233.563 -22.2014 233.52 -22.3871 233.618 -22.5262C233.715 -22.6652 233.915 -22.705 234.065 -22.615C234.215 -22.5249 234.258 -22.3392 234.161 -22.2001Z" fill="white"/>
<path d="M78.5391 -93.2381C78.442 -93.099 78.2416 -93.0592 78.0915 -93.1493C77.9415 -93.2393 77.8986 -93.425 77.9957 -93.5641C78.0928 -93.7032 78.2932 -93.7429 78.4433 -93.6529C78.5933 -93.5629 78.6362 -93.3771 78.5391 -93.2381Z" fill="white"/>
<path d="M24.1226 -15.3282C24.0254 -15.1892 23.825 -15.1494 23.675 -15.2394C23.5249 -15.3295 23.482 -15.5152 23.5792 -15.6543C23.6763 -15.7933 23.8767 -15.8331 24.0267 -15.743C24.1768 -15.653 24.2197 -15.4673 24.1226 -15.3282Z" fill="white"/>
<path d="M45.3912 21.5434C45.2941 21.6825 45.0937 21.7222 44.9436 21.6322C44.7936 21.5422 44.7507 21.3565 44.8478 21.2174C44.9449 21.0783 45.1453 21.0385 45.2954 21.1286C45.4454 21.2186 45.4883 21.4043 45.3912 21.5434Z" fill="white"/>
<path d="M12.7664 -40.1802C12.6693 -40.0412 12.4689 -40.0014 12.3188 -40.0914C12.1688 -40.1814 12.1259 -40.3672 12.223 -40.5062C12.3202 -40.6453 12.5205 -40.6851 12.6706 -40.595C12.8207 -40.505 12.8636 -40.3193 12.7664 -40.1802Z" fill="white"/>
<path d="M113.549 67.4345C113.452 67.5736 113.251 67.6134 113.101 67.5233C112.951 67.4333 112.908 67.2476 113.005 67.1085C113.102 66.9695 113.303 66.9297 113.453 67.0197C113.603 67.1098 113.646 67.2955 113.549 67.4345Z" fill="white"/>
<path d="M155.817 88.8637C155.72 89.0028 155.52 89.0425 155.369 88.9525C155.219 88.8625 155.176 88.6768 155.274 88.5377C155.371 88.3986 155.571 88.3589 155.721 88.4489C155.871 88.5389 155.914 88.7246 155.817 88.8637Z" fill="white"/>
<path d="M184.28 105.226C184.183 105.365 183.983 105.404 183.833 105.314C183.683 105.224 183.64 105.039 183.737 104.9C183.834 104.761 184.035 104.721 184.185 104.811C184.335 104.901 184.378 105.087 184.28 105.226Z" fill="white"/>
<path d="M273.248 5.71485C273.151 5.85393 272.951 5.89368 272.801 5.80366C272.651 5.71363 272.608 5.52792 272.705 5.38884C272.802 5.24977 273.002 5.21001 273.152 5.30004C273.302 5.39006 273.345 5.57578 273.248 5.71485Z" fill="white"/>
<path d="M182.802 -48.5475C182.704 -48.4085 182.504 -48.3687 182.354 -48.4587C182.204 -48.5488 182.161 -48.7345 182.258 -48.8736C182.355 -49.0126 182.556 -49.0524 182.706 -48.9624C182.856 -48.8723 182.899 -48.6866 182.802 -48.5475Z" fill="white"/>
<path d="M236.125 -13.6992C236.028 -13.5602 235.827 -13.5204 235.677 -13.6105C235.527 -13.7005 235.484 -13.8862 235.581 -14.0253C235.678 -14.1643 235.879 -14.2041 236.029 -14.1141C236.179 -14.024 236.222 -13.8383 236.125 -13.6992Z" fill="white"/>
<path d="M145.678 -67.9617C145.581 -67.8226 145.381 -67.7828 145.231 -67.8729C145.08 -67.9629 145.038 -68.1486 145.135 -68.2877C145.232 -68.4267 145.432 -68.4665 145.582 -68.3765C145.732 -68.2865 145.775 -68.1007 145.678 -67.9617Z" fill="white"/>
<path d="M244.542 3.49589C244.445 3.63496 244.245 3.67471 244.095 3.58469C243.945 3.49467 243.902 3.30894 243.999 3.16988C244.096 3.03081 244.296 2.99105 244.446 3.08108C244.596 3.1711 244.639 3.35682 244.542 3.49589Z" fill="white"/>
<path d="M154.096 -50.7665C153.998 -50.6274 153.798 -50.5877 153.648 -50.6777C153.498 -50.7677 153.455 -50.9535 153.552 -51.0925C153.649 -51.2316 153.85 -51.2714 154 -51.1813C154.15 -51.0913 154.193 -50.9056 154.096 -50.7665Z" fill="white"/>
<path d="M293.262 42.7269C293.165 42.866 292.965 42.9057 292.815 42.8157C292.665 42.7257 292.622 42.54 292.719 42.4009C292.816 42.2618 293.017 42.2221 293.167 42.3121C293.317 42.4021 293.36 42.5878 293.262 42.7269Z" fill="white"/>
<path d="M85.2082 -82.0929C85.111 -81.9538 84.9107 -81.9141 84.7606 -82.0041C84.6105 -82.0941 84.5676 -82.2799 84.6648 -82.4189C84.7619 -82.558 84.9623 -82.5978 85.1124 -82.5077C85.2624 -82.4177 85.3053 -82.232 85.2082 -82.0929Z" fill="white"/>
<path d="M30.7916 -4.18301C30.6944 -4.04395 30.4941 -4.00418 30.344 -4.0942C30.1939 -4.18423 30.151 -4.36996 30.2482 -4.50903C30.3453 -4.6481 30.5457 -4.68786 30.6958 -4.59783C30.8458 -4.5078 30.8887 -4.32209 30.7916 -4.18301Z" fill="white"/>
<path d="M52.0602 32.6886C51.9631 32.8276 51.7627 32.8674 51.6127 32.7774C51.4626 32.6873 51.4197 32.5016 51.5168 32.3625C51.614 32.2235 51.8144 32.1837 51.9644 32.2737C52.1145 32.3638 52.1574 32.5495 52.0602 32.6886Z" fill="white"/>
<path d="M143.039 101.916C142.942 102.055 142.742 102.095 142.591 102.005C142.441 101.915 142.398 101.729 142.496 101.59C142.593 101.451 142.793 101.411 142.943 101.501C143.093 101.591 143.136 101.777 143.039 101.916Z" fill="white"/>
<path d="M65.0714 -105.962C64.9742 -105.823 64.7738 -105.783 64.6238 -105.873C64.4737 -105.963 64.4308 -106.149 64.528 -106.288C64.6251 -106.427 64.8255 -106.467 64.9755 -106.377C65.1256 -106.287 65.1685 -106.101 65.0714 -105.962Z" fill="white"/>
<path d="M217.032 95.583C216.934 95.7221 216.734 95.7619 216.584 95.6718C216.434 95.5818 216.391 95.3961 216.488 95.257C216.585 95.118 216.786 95.0782 216.936 95.1682C217.086 95.2582 217.129 95.444 217.032 95.583Z" fill="white"/>
<path d="M225.474 108.328C225.377 108.467 225.176 108.507 225.026 108.417C224.876 108.327 224.833 108.141 224.93 108.002C225.028 107.863 225.228 107.823 225.378 107.913C225.528 108.003 225.571 108.189 225.474 108.328Z" fill="white"/>
<path d="M74.329 -55.7564C74.2319 -55.6173 74.0315 -55.5776 73.8815 -55.6676C73.7314 -55.7576 73.6885 -55.9433 73.7856 -56.0824C73.8828 -56.2215 74.0832 -56.2612 74.2332 -56.1712C74.3833 -56.0812 74.4262 -55.8955 74.329 -55.7564Z" fill="white"/>
<path d="M19.9124 22.1536C19.8153 22.2926 19.6149 22.3324 19.4648 22.2424C19.3148 22.1523 19.2719 21.9666 19.369 21.8276C19.4661 21.6885 19.6665 21.6487 19.8166 21.7387C19.9666 21.8288 20.0095 22.0145 19.9124 22.1536Z" fill="white"/>
<path d="M51.6112 93.3314C51.6112 94.1759 50.8725 94.8605 49.9614 94.8605C49.0502 94.8605 48.3115 94.1759 48.3115 93.3314C48.3115 92.487 49.0502 91.8024 49.9614 91.8024C50.8725 91.8024 51.6112 92.487 51.6112 93.3314Z" fill="white"/>
<path d="M94.6984 -71.6551C94.6984 -70.8106 93.9597 -70.1261 93.0486 -70.1261C92.1374 -70.1261 91.3988 -70.8106 91.3988 -71.6551C91.3988 -72.4996 92.1374 -73.1841 93.0486 -73.1841C93.9597 -73.1841 94.6984 -72.4996 94.6984 -71.6551Z" fill="white"/>
<path d="M233.031 99.9869C233.031 100.831 232.292 101.516 231.381 101.516C230.47 101.516 229.731 100.831 229.731 99.9869C229.731 99.1425 230.47 98.4579 231.381 98.4579C232.292 98.4579 233.031 99.1425 233.031 99.9869Z" fill="white"/>
<path d="M42.9181 12.4145C42.9181 13.2589 42.1795 13.9435 41.2683 13.9435C40.3572 13.9435 39.6185 13.2589 39.6185 12.4145C39.6185 11.57 40.3572 10.8854 41.2683 10.8854C42.1795 10.8854 42.9181 11.57 42.9181 12.4145Z" fill="white"/>
<path d="M292.748 -74.4574C292.748 -73.613 292.01 -72.9284 291.099 -72.9284C290.187 -72.9284 289.449 -73.613 289.449 -74.4574C289.449 -75.3019 290.187 -75.9865 291.099 -75.9865C292.01 -75.9865 292.748 -75.3019 292.748 -74.4574Z" fill="white"/>
</g>
</g>
<ellipse cx="126.951" cy="86.5" rx="32.1201" ry="5.5" fill="#00101B" fill-opacity="0.3"/>
<path fill-rule="evenodd" clip-rule="evenodd" d="M127.798 30.2807C127.798 30.2807 130.797 26.2492 136.826 27.7285C136.826 27.7285 132.421 23.6374 126.475 27.0173C126.475 27.0173 125.952 27.2364 126.089 27.6748L127.046 29.9759C127.046 29.9759 127.248 30.7548 127.798 30.2807Z" fill="#241C1C"/>
<path d="M137.067 70.8174C135.631 76.338 132.876 80.7266 129.408 83.02C125.939 85.3133 122.04 85.324 118.567 83.0497C115.093 80.7754 112.329 76.4019 110.88 70.8892C109.432 65.3766 109.418 59.1752 110.842 53.6464C112.266 48.1175 115.01 43.713 118.474 41.3996C121.937 39.0861 125.836 39.0529 129.315 41.3071C132.794 43.5613 135.568 47.9187 137.029 53.423C138.489 58.9272 138.517 65.1284 137.107 70.6655" fill="#BCB9A8"/>
<path fill-rule="evenodd" clip-rule="evenodd" d="M116.493 65.2602C114.063 61.0756 112.738 48.1602 112.738 48.1602C111.811 45.1487 111.364 47.049 111.364 47.049C105.336 54.3789 107.117 65.6045 107.117 65.6045C107.117 65.6045 108.244 68.9795 112.117 67.8143C112.117 67.8143 114.913 67.2475 116.493 65.2602Z" fill="#225054"/>
<path fill-rule="evenodd" clip-rule="evenodd" d="M110.273 48.5447C107.375 52.0107 107.085 57.9769 107.085 57.9769C107.085 57.9769 110.813 51.2141 112.842 49.6231L111.954 48.5447C111.954 48.5447 111.664 48.3174 111.201 48.3174C110.737 48.3174 110.273 48.5447 110.273 48.5447Z" fill="#173C3F"/>
<path fill-rule="evenodd" clip-rule="evenodd" d="M135.131 45.151C135.131 45.151 143.303 52.4241 144.926 60.7199C144.926 60.7199 145.274 64.8963 143.767 67.7941C143.767 67.7941 141.072 70.8909 137.044 68.6464C137.044 68.6464 134.175 67.1975 135.884 63.5894C135.884 63.5894 139.447 57.1234 132.028 47.0788C132.028 47.0788 130.676 45.0297 132.52 44.7886C132.52 44.7886 134.232 44.4692 135.131 45.151Z" fill="#225054"/>
<path fill-rule="evenodd" clip-rule="evenodd" d="M113.469 53.6561C113.674 53.5356 117.855 52.6115 119.617 50.4016C119.617 50.4016 120.723 48.8748 121.748 49.7588C121.871 49.9195 122.977 50.8436 123.346 51.0445C123.346 51.0445 123.961 51.5266 124.74 50.924C124.74 50.924 126.215 49.7186 126.625 49.6784C126.625 49.6784 127.363 49.4373 127.773 50.1606C127.773 50.1606 130.928 53.3347 134.248 53.0534C134.248 53.0534 136.715 59.5996 131.898 66.7141C131.898 66.7141 127.274 74.0526 118.504 67.0616C118.504 67.0616 114.075 61.837 113.469 53.6561Z" fill="#D6D4C8"/>
<path fill-rule="evenodd" clip-rule="evenodd" d="M118.158 19.8321C117.071 17.9638 117.994 15.9749 118.014 15.8946C118.772 17.9637 121.334 18.7874 121.334 18.7874C121.293 15.1713 124.08 13.2026 124.08 13.2026C123.342 14.6088 124.408 17.4615 124.408 17.4615C127.276 14.4481 131.416 14.1267 131.621 14.0464C134.039 13.2428 141.687 13.5508 141.687 13.5508C146.15 13.494 147.107 12.8689 147.107 12.8689C151.396 11.2779 151.164 8.01074 151.164 8.01074C153.801 10.2268 152.932 13.4087 152.932 13.4087C154.294 12.8121 155.714 11.0507 155.714 11.0507C156.96 15.71 153.917 19.3749 153.917 19.3749C158.67 21.3637 158.67 24.4888 158.67 24.4888C157.365 23.466 155.801 23.6088 155.801 23.6088C159.613 31.2427 157.481 34.2561 157.481 34.2561C156.867 32.4883 155.309 31.8454 155.309 31.8454C156.457 43.9793 153.362 45.0641 153.362 45.0641C153.281 44.0396 152.091 43.1261 152.091 43.1261C148.208 51.5356 136.964 50.2287 136.964 50.2287C128.965 49.9446 125.662 43.1261 125.662 43.1261C123.981 41.1373 122.532 43.1829 122.532 43.1829C119.344 47.274 115.403 48.6945 115.403 48.6945C107.81 52.6152 101.261 47.1035 101.261 47.1035C96.7397 44.2057 96.8256 36.707 96.8256 36.707C96.1289 37.3097 95.5551 39.0374 95.5551 39.0374C93.8338 35.14 95.7219 31.9367 95.7219 31.9367C97.6482 28.944 98.342 25.9794 98.342 25.9794C96.7026 26.8231 95.5141 28.832 95.5141 28.832C95.0223 24.8142 97.6671 23.324 97.6671 23.324C95.2617 21.3636 95.8992 19.8011 95.8992 19.8011C96.6527 20.7102 98.2756 20.767 98.2756 20.767C96.334 15.6247 99.6087 12.9826 99.6087 12.9826C99.6087 12.9826 99.261 16.9316 103.463 18.1533C103.463 18.1533 104.622 18.6931 108.129 18.7783C108.129 18.7783 115.986 18.7266 118.158 19.8321Z" fill="#173C3F"/>
<path fill-rule="evenodd" clip-rule="evenodd" d="M151.162 8C151.162 8 151.394 11.2672 147.105 12.8581C147.105 12.8581 146.148 13.4831 141.686 13.5399C141.686 13.5399 134.037 13.2321 131.619 14.0357C131.414 14.116 127.275 14.4375 124.406 17.4509C124.406 17.4509 123.34 14.5982 124.078 13.1919C124.078 13.1919 121.291 15.1606 121.332 18.7767C121.332 18.7767 118.771 17.953 118.012 15.8838C117.992 15.9641 117.07 17.953 118.156 19.8213C115.984 18.7158 108.127 18.7677 108.127 18.7677C104.621 18.6825 103.461 18.1425 103.461 18.1425C99.2591 16.9209 99.6068 12.9717 99.6068 12.9717C99.6068 12.9717 96.3322 15.6139 98.2739 20.7562C98.2739 20.7562 96.6509 20.6994 95.8975 19.7903C95.8975 19.7903 95.2598 21.3528 97.6651 23.3131C97.6651 23.3131 95.0364 24.7955 95.509 28.7876C96.9469 24.1003 99.5288 23.8994 99.5288 23.8994C99.4059 26.973 97.0856 31.4955 97.0856 31.4955C96.1582 33.2854 96.3611 35.3308 96.3611 35.3308C96.68 34.3365 98.3898 32.7172 98.3898 32.7172C97.7522 36.4958 99.259 40.1322 99.259 40.1322C101.49 46.5814 108.764 47.661 108.764 47.661C115.401 48.7974 121.545 42.3766 121.545 42.3766C121.545 42.3766 124.298 39.0526 126.732 42.263C126.732 42.263 129.139 46.7373 136.529 47.3055C136.529 47.3055 141.776 48.2069 146.354 45.7636C146.354 45.7636 150.814 43.4562 151.742 39.4219C151.742 39.4219 153.017 40.5016 153.336 41.8653C153.336 41.8653 155.103 38.8538 154.118 29.0238C154.118 29.0238 156.262 30.359 156.784 31.5239C156.784 31.5239 156.373 22.3124 151.045 19.9419C151.045 19.9419 156.217 16.3884 155.632 11.1357C155.321 11.5036 154.106 12.8828 152.93 13.398C152.93 13.398 153.799 10.216 151.162 8Z" fill="#225054"/>
<path d="M128.461 44.6142C129.296 43.8173 129.612 42.6872 129.167 42.09C128.722 41.4929 127.684 41.6548 126.849 42.4516C126.015 43.2485 125.699 44.3786 126.144 44.9758C126.589 45.573 127.627 45.4111 128.461 44.6142Z" fill="#B8475F"/>
<path fill-rule="evenodd" clip-rule="evenodd" d="M120.312 43.7865C120.312 43.7865 121.075 41.2302 121.998 40.7279C121.998 40.7279 125.256 38.8195 127.366 42.0337C127.366 42.0337 127.981 43.1387 127.059 45.7904C127.059 45.7904 125.584 48.9444 124.498 50.1699C124.498 50.1699 124.088 50.8931 123.473 50.2703C123.473 50.2703 120.635 45.9461 120.45 45.027C120.251 44.4043 120.312 43.7865 120.312 43.7865Z" fill="#D2952F"/>
<path fill-rule="evenodd" clip-rule="evenodd" d="M124.112 40.1765C122.934 40.1996 122.014 40.7384 122.014 40.7384C120.542 41.7106 120.373 43.0935 120.325 43.7906C120.325 43.7955 120.334 43.8521 120.334 43.8521C120.334 43.8521 121.256 46.6847 123.51 47.89C123.51 47.89 125.633 46.1678 125.693 40.5039C125.153 40.2506 124.61 40.1668 124.112 40.1765H124.112Z" fill="#FAB84A"/>
<path d="M128.191 43.9044C128.552 43.9923 128.952 43.6408 129.084 43.1192C129.216 42.5976 129.031 42.1036 128.67 42.0156C128.308 41.9277 127.909 42.2793 127.776 42.8008C127.644 43.3224 127.83 43.8165 128.191 43.9044Z" fill="#CD677E"/>
<path d="M137.995 43.9906C143.774 44.2271 148.648 39.3409 148.882 33.077C149.116 26.8131 144.621 21.5435 138.843 21.307C133.064 21.0706 128.19 25.9568 127.956 32.2207C127.722 38.4846 132.217 43.7542 137.995 43.9906Z" fill="#173C3F"/>
<path d="M137.966 42.521C143.714 42.7263 148.563 38.4839 148.795 33.0454C149.028 27.6068 144.557 23.0316 138.809 22.8263C133.06 22.621 128.212 26.8634 127.979 32.3019C127.746 37.7405 132.218 42.3157 137.966 42.521Z" fill="#D6D4C8"/>
<path d="M137.954 42.3102C134.593 42.3102 131.869 39.6503 131.869 36.369C131.869 33.0877 134.593 30.4277 137.954 30.4277C141.315 30.4277 144.04 33.0877 144.04 36.369C144.04 39.6503 141.315 42.3102 137.954 42.3102Z" fill="#FAB84A"/>
<path d="M137.788 41.5754C135.164 41.5754 133.037 39.4985 133.037 36.9366C133.037 34.3747 135.164 32.2979 137.788 32.2979C140.412 32.2979 142.54 34.3747 142.54 36.9366C142.54 39.4985 140.412 41.5754 137.788 41.5754Z" fill="#201E1E"/>
<path d="M141.635 36.3477C140.793 36.3477 140.11 35.6809 140.11 34.8584C140.11 34.0359 140.793 33.3691 141.635 33.3691C142.478 33.3691 143.161 34.0359 143.161 34.8584C143.161 35.6809 142.478 36.3477 141.635 36.3477Z" fill="#FEFEFE"/>
<path d="M110.457 44.7606C115.753 44.9774 120.22 40.4969 120.434 34.7531C120.649 29.0093 116.529 24.1773 111.233 23.9604C105.937 23.7436 101.47 28.2241 101.255 33.9679C101.041 39.7117 105.16 44.5438 110.457 44.7606Z" fill="#173C3F"/>
<path d="M110.478 43.4428C115.774 43.6319 120.241 39.7232 120.455 34.7124C120.67 29.7016 116.55 25.4862 111.254 25.2971C105.958 25.1079 101.491 29.0166 101.276 34.0275C101.062 39.0383 105.181 43.2536 110.478 43.4428Z" fill="#D6D4C8"/>
<path d="M113.061 42.7931C109.7 42.7931 106.976 40.1332 106.976 36.8519C106.976 33.5706 109.7 30.9106 113.061 30.9106C116.422 30.9106 119.146 33.5706 119.146 36.8519C119.146 40.1332 116.422 42.7931 113.061 42.7931Z" fill="#FAB84A"/>
<path d="M113.217 42.3205C110.593 42.3205 108.466 40.2436 108.466 37.6817C108.466 35.1198 110.593 33.043 113.217 33.043C115.842 33.043 117.969 35.1198 117.969 37.6817C117.969 40.2436 115.842 42.3205 113.217 42.3205Z" fill="#201E1E"/>
<path d="M116.743 36.8301C115.901 36.8301 115.218 36.1633 115.218 35.3408C115.218 34.5183 115.901 33.8516 116.743 33.8516C117.586 33.8516 118.269 34.5183 118.269 35.3408C118.269 36.1633 117.586 36.8301 116.743 36.8301Z" fill="#FEFEFE"/>
<path fill-rule="evenodd" clip-rule="evenodd" d="M119.242 29.7692C110.505 30.6881 102.705 29.4003 102.415 29.4003C102.415 29.4003 104.43 22.305 113.008 23.9528C113.008 23.9528 118.421 25.5341 119.242 29.7692Z" fill="#225054"/>
<path fill-rule="evenodd" clip-rule="evenodd" d="M102.4 29.9659C102.4 29.9659 101.211 29.142 100.979 28.034C100.979 28.034 109.673 30.5341 118.136 29.5681C118.136 29.5681 119.469 29.6249 118.744 27.1816C118.744 27.1816 120.309 28.1192 119.99 30.1363C119.99 30.1363 119.932 31.0739 117.788 30.9602C117.788 30.9602 108.34 31.2727 102.631 29.3693L102.4 29.9659Z" fill="#173C3F"/>
<path fill-rule="evenodd" clip-rule="evenodd" d="M121.439 28.1479C121.439 28.1479 122.221 29.9662 121.555 31.5004C121.555 31.5004 123.062 31.1879 122.975 29.4832C122.975 29.4832 122.888 28.2048 121.439 28.1479Z" fill="#173C3F"/>
<path fill-rule="evenodd" clip-rule="evenodd" d="M125.182 59.8297L116.082 47.5279L117.813 46.2373L127.152 58.5228L125.182 59.8297Z" fill="#D1A04D"/>
<path d="M116.756 46.7115C117.388 46.302 117.534 45.3922 117.084 44.6793C116.634 43.9665 115.757 43.7206 115.126 44.1301C114.495 44.5396 114.348 45.4495 114.798 46.1623C115.249 46.8751 116.125 47.121 116.756 46.7115Z" fill="#BC599E"/>
<path d="M114.945 44.6542C114.993 44.8994 115.374 45.0441 115.795 44.9772C116.216 44.9104 116.518 44.6575 116.47 44.4123C116.422 44.1671 116.041 44.0224 115.62 44.0892C115.199 44.156 114.897 44.409 114.945 44.6542Z" fill="#DE80BF"/>
<path fill-rule="evenodd" clip-rule="evenodd" d="M116.199 47.6838C117.05 47.5063 117.998 46.4857 117.998 46.4857C118.378 46.0028 118.188 45.7309 118.188 45.7309C118.023 45.4134 117.623 45.4653 117.623 45.4653C117.745 45.1117 117.599 44.755 117.044 44.7784C115.465 45.1556 114.94 46.1834 114.94 46.1834C114.94 46.1834 114.667 46.8493 115.318 46.9605C115.318 46.9605 115.222 47.4686 115.483 47.6107C115.483 47.6107 115.698 47.8143 116.199 47.6838Z" fill="#6C6A6A"/>
<path d="M121.53 52.7432C123.818 55.7513 125.798 58.0985 125.952 57.9857C126.106 57.873 124.376 55.343 122.089 52.3349C119.801 49.3268 117.821 46.9796 117.667 47.0923C117.513 47.2051 119.242 49.735 121.53 52.7432Z" fill="#F5B448"/>
<path d="M120.716 53.3003C123.003 56.3084 124.983 58.6556 125.137 58.5429C125.292 58.4301 123.562 55.9002 121.274 52.892C118.986 49.8839 117.007 47.5367 116.853 47.6494C116.698 47.7622 118.428 50.2922 120.716 53.3003Z" fill="#F5B448"/>
<path d="M117.044 47.0473C117.71 46.6172 118.123 46.0632 117.966 45.8101C117.808 45.5569 117.141 45.7003 116.475 46.1304C115.808 46.5605 115.396 47.1144 115.553 47.3676C115.71 47.6208 116.378 47.4774 117.044 47.0473Z" fill="#959595"/>
<path d="M116.448 46.2053C117.05 45.8152 117.427 45.3199 117.291 45.099C117.154 44.878 116.554 45.0151 115.952 45.4051C115.35 45.7951 114.972 46.2904 115.109 46.5114C115.246 46.7324 115.845 46.5953 116.448 46.2053Z" fill="#959595"/>
<path fill-rule="evenodd" clip-rule="evenodd" d="M112.375 58.1914C112.375 58.1914 123.892 58.4726 126.965 59.2762C126.965 59.2762 131.719 60.7226 131.515 65.1423C131.515 65.1423 129.916 69.361 124.179 70.0441C124.179 70.0441 117.375 70.7271 110.531 70.5664C110.531 70.5664 106.883 70.7271 107.047 64.8208C107.047 64.8208 107.211 61.245 109.465 59.3164C109.465 59.3164 110.572 58.2918 112.375 58.1914Z" fill="#225054"/>
<path fill-rule="evenodd" clip-rule="evenodd" d="M110.792 59.2708C110.792 59.2708 112.893 56.9411 122.094 58.7594C114.878 58.2054 110.792 59.2708 110.792 59.2708Z" fill="#173C3F"/>
<path fill-rule="evenodd" clip-rule="evenodd" d="M106.952 59.6094C106.952 59.6094 107.959 66.5841 109.988 68.1751C109.988 68.1751 111.321 69.2547 117.059 66.6978C117.059 66.6978 122.855 63.7431 123.376 66.6978C123.376 66.6978 123.434 69.2547 119.783 70.107C119.783 70.107 112.596 71.0162 110.219 70.6184C110.219 70.6184 107.669 70.3343 107.264 67.1523C107.264 67.1523 106.546 61.939 106.952 59.6094Z" fill="#173C3F"/>
<path d="M119.451 73.9822L137.207 71.3412C137.207 71.3412 138.009 71.1827 138.276 70.2847L140.874 53.7448C140.874 53.7448 141.019 52.4932 139.43 52.7547L119.728 55.2944C119.728 55.2944 118.366 55.4065 118.442 56.9378L118.707 73.0729C118.707 73.0729 118.72 74.0324 119.451 73.9822Z" fill="#241F1C"/>
<path d="M119.95 73.8747L137.439 71.2927C137.439 71.2927 138.229 71.1377 138.492 70.2599L140.858 54.107C140.858 54.107 141.193 52.8655 139.629 53.1211L120.223 55.6042C120.223 55.6042 118.882 55.7137 118.957 57.2109L119.217 72.9857C119.217 72.9857 119.231 73.9239 119.95 73.8747Z" fill="#483E37"/>
<path d="M126.735 54.7494L125.938 54.191L127.105 52.0692L127.134 51.12L132.544 50.5337L132.63 51.3154L134.338 52.9347L133.797 53.8839L126.735 54.7494Z" fill="#AC9D93"/>
<path d="M126.743 54.7537L127.888 54.6028L126.662 54.0081L127.468 52.3696L127.508 51.2444L132.2 50.7706L132.301 51.58L133.61 53.0606L132.925 53.9489L133.791 53.8502L134.335 52.9026L132.603 51.2839L132.542 50.5337L127.105 51.1062L127.085 52.0538L125.938 54.1858L126.743 54.7537Z" fill="#C8BEB7"/>
<path d="M126.242 56.7184C126.565 56.7184 126.826 56.5309 126.826 56.2996C126.826 56.0684 126.565 55.8809 126.242 55.8809C125.92 55.8809 125.659 56.0684 125.659 56.2996C125.659 56.5309 125.92 56.7184 126.242 56.7184Z" fill="#C8BEB7"/>
<path d="M133.998 55.6569C134.32 55.6569 134.582 55.4694 134.582 55.2381C134.582 55.0068 134.32 54.8193 133.998 54.8193C133.675 54.8193 133.414 55.0068 133.414 55.2381C133.414 55.4694 133.675 55.6569 133.998 55.6569Z" fill="#C8BEB7"/>
<path d="M126.966 53.9648L133.402 53.1272L132.491 52.876L127.422 53.4902L126.966 53.9648Z" fill="#917C6F"/>
<path d="M127.758 52.2376V51.8231L132.068 51.29L132.128 51.6256L127.758 52.2376Z" fill="#917C6F"/>
<path d="M126.746 54.7426L125.95 54.1898L127.118 52.0692L127.132 51.0921L132.515 50.5337L126.904 50.9106V51.9994L125.552 54.2608L125.822 54.4702L126.746 54.7426Z" fill="#6C5D53"/>
<path fill-rule="evenodd" clip-rule="evenodd" d="M137.444 60.1764C137.444 60.1764 126.747 57.7255 119.001 60.8996C119.001 60.8996 115.681 62.1853 115.763 66.8862C115.763 66.8862 115.64 73.596 120.353 76.2477C120.353 76.2477 125.927 79.5022 127.976 76.7299C127.976 76.7299 132.28 79.8638 134.042 76.1272C134.042 76.1272 141.255 76.9308 144.534 65.4397C144.452 65.279 145.046 63.7924 143.591 62.8281C141.194 60.9397 137.444 60.1764 137.444 60.1764Z" fill="#225054"/>
<path fill-rule="evenodd" clip-rule="evenodd" d="M112.253 84.9779C112.253 84.9779 111.239 83.9267 112.572 83.046C112.572 83.046 114.369 81.7391 117.267 82.2505C117.267 82.2505 119.005 82.3642 119.817 83.1028C119.817 83.1028 120.57 84.0688 120.049 85.4325C120.049 85.4325 119.44 87.5064 117.267 87.961C117.267 87.961 115.354 88.0462 114.803 86.7678C114.803 86.7678 111.558 87.336 112.253 84.9779Z" fill="#CE9434"/>
<path fill-rule="evenodd" clip-rule="evenodd" d="M127.095 84.0459C127.095 84.0459 126.951 86.3187 129.877 87.2563C129.877 87.2563 132.167 88.2222 133.036 86.546C133.036 86.546 134.804 87.1426 135.471 85.7505C135.471 85.7505 135.731 85.0686 135.586 84.5288C135.586 84.5288 136.195 84.0174 135.702 83.0515C135.702 83.0515 134.949 81.4037 131.877 81.5173C131.877 81.5173 129.906 81.4605 127.878 83.1083C127.385 83.4777 127.095 84.0459 127.095 84.0459Z" fill="#CE9434"/>
<path fill-rule="evenodd" clip-rule="evenodd" d="M133.224 82.4694C133.181 82.4714 133.157 82.474 133.157 82.474C135.206 83.1571 135.021 85.0655 135.021 85.0655C134.898 85.8691 133.853 86.1103 133.853 86.1103C133.403 86.2509 133.28 85.8892 133.28 85.8892C132.521 83.82 130.78 83.7397 130.78 83.7397C132.788 85.4874 132.296 86.5724 132.296 86.5724C131.743 87.5768 129.571 87.1147 129.571 87.1147C129.567 87.1199 129.562 87.1351 129.558 87.1436C129.662 87.1837 129.769 87.2225 129.882 87.2588C129.882 87.2588 132.171 88.2249 133.041 86.5486C133.041 86.5486 134.809 87.1451 135.475 85.753C135.475 85.753 135.676 85.2266 135.627 84.7326C135.496 84.1959 135.349 83.8603 135.349 83.8603C134.776 82.4892 133.527 82.4562 133.224 82.4694L133.224 82.4694Z" fill="#AD7821"/>
<path fill-rule="evenodd" clip-rule="evenodd" d="M115.744 82.9617C115.085 82.9526 114 83.1335 112.905 84.1634C112.905 84.1634 112.57 84.4234 112.264 84.9955C112.269 85.0014 112.281 85.0157 112.281 85.0157C111.586 87.3738 114.831 86.8056 114.831 86.8056C115.382 88.0841 117.295 87.9987 117.295 87.9987C117.3 87.9976 117.305 87.9961 117.31 87.995C117.161 87.9777 115.231 87.7239 115.802 86.1662C115.802 86.1662 116.092 84.831 118.077 83.7088C118.077 83.7088 116.222 83.6236 114.86 85.6123C114.86 85.6123 114.329 86.4871 113.736 86.4677C113.736 86.4677 112.368 86.6066 112.73 85.3992C112.73 85.3992 113.31 83.2826 116.382 83.0411C116.382 83.0411 116.139 82.9673 115.744 82.9618L115.744 82.9617Z" fill="#AD7821"/>
<path fill-rule="evenodd" clip-rule="evenodd" d="M129.04 59.2327C125.835 59.207 122.201 59.5681 119.054 60.8576C119.054 60.8576 118.667 61.0078 118.161 61.3919C118.786 61.1748 126.999 58.4901 142.283 61.8938C140.045 60.6537 137.497 60.1345 137.497 60.1345C137.497 60.1345 133.726 59.2703 129.04 59.2327Z" fill="#173C3F"/>
<path fill-rule="evenodd" clip-rule="evenodd" d="M138.438 48.1699C137.451 48.3024 136.635 48.5198 136.361 48.6129C135.607 48.8686 133.817 49.6378 133.817 49.6378C136.744 52.5357 140.154 53.3735 140.154 53.3735C141.34 54.46 142.75 59.679 142.75 59.679C143.979 63.0942 142.299 66.6298 142.299 66.6298C139.799 71.0495 137.279 72.0338 137.279 72.0338C134.533 73.3396 132.115 71.9133 132.115 71.9133C129.861 71.1298 129.451 68.4379 129.451 68.4379C129.246 69.583 130.373 72.4356 130.373 72.4356C130.455 73.9825 127.811 74.2637 127.811 74.2637C124.082 74.7458 120.66 69.9044 120.66 69.9044C120.865 71.9735 124.02 74.7258 124.02 74.7258C124.246 75.3687 123.221 75.67 123.221 75.67C118.816 75.9301 117.026 72.5878 116.618 71.6674C117.264 73.389 118.384 75.1771 120.332 76.2727C120.332 76.2727 125.906 79.5271 127.955 76.7548C127.955 76.7548 132.258 79.8889 134.02 76.1523C134.02 76.1523 141.029 76.9322 144.369 65.9484C144.387 65.8926 144.403 65.8364 144.419 65.7803C144.45 65.6755 144.482 65.5718 144.512 65.4648C144.512 65.4619 144.512 65.4558 144.509 65.4523C145.169 62.9207 144.952 60.2962 144.952 60.2962C144.016 55.514 140.906 51.0751 138.438 48.1699L138.438 48.1699Z" fill="#173C3F"/>
<defs>
<linearGradient id="paint0_linear_3974_7890" x1="129.5" y1="0" x2="129.5" y2="97" gradientUnits="userSpaceOnUse">
<stop stop-opacity="0"/>
<stop offset="1"/>
</linearGradient>
</defs>
</svg>
