<svg width="259" height="97" viewBox="0 0 259 97" fill="none" xmlns="http://www.w3.org/2000/svg">
<path d="M0 6C0 2.68629 2.68629 0 6 0H252.728C256.042 0 258.728 2.68629 258.728 6V97H0V6Z" fill="#00BDB9"/>
<mask id="mask0_3974_7975" style="mask-type:alpha" maskUnits="userSpaceOnUse" x="0" y="0" width="259" height="97">
<path d="M0 6C0 2.68629 2.68629 0 6 0H253C256.314 0 259 2.68629 259 6V97H0V6Z" fill="#7F6CC3"/>
<path d="M0 6C0 2.68629 2.68629 0 6 0H253C256.314 0 259 2.68629 259 6V97H0V6Z" fill="url(#paint0_linear_3974_7975)" fill-opacity="0.3"/>
</mask>
<g mask="url(#mask0_3974_7975)">
<g opacity="0.6">
<path d="M283.32 19.4373C283.029 19.8544 282.428 19.9736 281.978 19.7037C281.528 19.4337 281.399 18.8767 281.69 18.4596C281.982 18.0425 282.583 17.9233 283.033 18.1933C283.483 18.4633 283.611 19.0202 283.32 19.4373Z" fill="white"/>
<path d="M208.077 -70.7507C207.786 -70.3336 207.185 -70.2144 206.735 -70.4844C206.285 -70.7543 206.156 -71.3113 206.448 -71.7284C206.739 -72.1455 207.34 -72.2647 207.79 -71.9947C208.24 -71.7247 208.368 -71.1678 208.077 -70.7507Z" fill="white"/>
<path d="M192.874 -34.8251C192.582 -34.408 191.981 -34.2888 191.531 -34.5588C191.081 -34.8288 190.953 -35.3857 191.244 -35.8028C191.535 -36.2199 192.136 -36.3391 192.586 -36.0692C193.036 -35.7992 193.165 -35.2422 192.874 -34.8251Z" fill="white"/>
<path d="M96.0901 73.3922C95.7988 73.8093 95.1979 73.9285 94.7478 73.6585C94.2978 73.3885 94.1692 72.8316 94.4605 72.4145C94.7518 71.9974 95.3528 71.8782 95.8028 72.1482C96.2528 72.4182 96.3815 72.9751 96.0901 73.3922Z" fill="white"/>
<path d="M126.359 90.4801C126.068 90.8972 125.467 91.0164 125.017 90.7464C124.567 90.4765 124.438 89.9195 124.729 89.5024C125.021 89.0853 125.622 88.9661 126.072 89.2361C126.522 89.5061 126.65 90.063 126.359 90.4801Z" fill="white"/>
<path d="M197.153 95.6238C196.862 96.0409 196.261 96.1602 195.811 95.8902C195.361 95.6202 195.232 95.0632 195.524 94.6461C195.815 94.229 196.416 94.1098 196.866 94.3798C197.316 94.6498 197.445 95.2068 197.153 95.6238Z" fill="white"/>
<path d="M207.089 75.3293C206.797 75.7464 206.196 75.8656 205.746 75.5956C205.296 75.3257 205.168 74.7687 205.459 74.3516C205.75 73.9345 206.351 73.8153 206.801 74.0853C207.251 74.3553 207.38 74.9122 207.089 75.3293Z" fill="white"/>
<path d="M262.569 -6.58631C262.277 -6.16924 261.676 -6.05 261.226 -6.31998C260.776 -6.58997 260.648 -7.14694 260.939 -7.56402C261.23 -7.98109 261.831 -8.10033 262.281 -7.83035C262.731 -7.56036 262.86 -7.00339 262.569 -6.58631Z" fill="white"/>
<path d="M172.122 -60.8487C171.831 -60.4317 171.23 -60.3124 170.78 -60.5824C170.33 -60.8524 170.201 -61.4094 170.492 -61.8264C170.784 -62.2435 171.385 -62.3628 171.835 -62.0928C172.285 -61.8228 172.413 -61.2658 172.122 -60.8487Z" fill="white"/>
<path d="M249.07 52.471C248.779 52.888 248.178 53.0073 247.728 52.7373C247.278 52.4673 247.149 51.9103 247.441 51.4933C247.732 51.0762 248.333 50.9569 248.783 51.2269C249.233 51.4969 249.362 52.0539 249.07 52.471Z" fill="white"/>
<path d="M41.0159 -72.3489C40.7246 -71.9318 40.1236 -71.8125 39.6736 -72.0825C39.2236 -72.3525 39.0949 -72.9095 39.3863 -73.3265C39.6776 -73.7436 40.2785 -73.8629 40.7285 -73.5929C41.1786 -73.3229 41.3072 -72.7659 41.0159 -72.3489Z" fill="white"/>
<path d="M246.251 -86.5137C245.96 -86.0966 245.359 -85.9774 244.909 -86.2474C244.459 -86.5174 244.33 -87.0743 244.621 -87.4914C244.913 -87.9085 245.514 -88.0277 245.964 -87.7578C246.414 -87.4878 246.542 -86.9308 246.251 -86.5137Z" fill="white"/>
<path d="M225.059 -15.5155C224.768 -15.0984 224.167 -14.9792 223.717 -15.2492C223.267 -15.5192 223.139 -16.0761 223.43 -16.4932C223.721 -16.9103 224.322 -17.0295 224.772 -16.7596C225.222 -16.4896 225.351 -15.9326 225.059 -15.5155Z" fill="white"/>
<path d="M134.613 -69.7779C134.322 -69.3609 133.721 -69.2416 133.271 -69.5116C132.821 -69.7816 132.692 -70.3386 132.983 -70.7556C133.274 -71.1727 133.875 -71.292 134.325 -71.022C134.775 -70.752 134.904 -70.195 134.613 -69.7779Z" fill="white"/>
<path d="M36.4809 -47.9216C36.1896 -47.5046 35.5886 -47.3853 35.1386 -47.6553C34.6886 -47.9253 34.5599 -48.4823 34.8512 -48.8993C35.1425 -49.3164 35.7435 -49.4356 36.1935 -49.1657C36.6435 -48.8957 36.7722 -48.3387 36.4809 -47.9216Z" fill="white"/>
<path d="M29.8621 -30.9957C29.5708 -30.5786 28.9698 -30.4594 28.5198 -30.7294C28.0698 -30.9993 27.9411 -31.5563 28.2324 -31.9734C28.5237 -32.3905 29.1247 -32.5097 29.5747 -32.2397C30.0247 -31.9697 30.1534 -31.4128 29.8621 -30.9957Z" fill="white"/>
<path d="M31.9487 90.0324C31.6574 90.4494 31.0565 90.5687 30.6064 90.2987C30.1564 90.0287 30.0278 89.4717 30.3191 89.0547C30.6104 88.6376 31.2113 88.5183 31.6614 88.7883C32.1114 89.0583 32.24 89.6153 31.9487 90.0324Z" fill="white"/>
<path d="M51.6026 71.467C51.3112 71.8841 50.7103 72.0033 50.2603 71.7333C49.8102 71.4633 49.6816 70.9064 49.9729 70.4893C50.2642 70.0722 50.8652 69.953 51.3152 70.223C51.7652 70.493 51.8939 71.0499 51.6026 71.467Z" fill="white"/>
<path d="M25.5235 55.704C25.2321 56.121 24.6312 56.2403 24.1812 55.9703C23.7311 55.7003 23.6025 55.1433 23.8938 54.7263C24.1851 54.3092 24.7861 54.19 25.2361 54.4599C25.6861 54.7299 25.8148 55.2869 25.5235 55.704Z" fill="white"/>
<path d="M173.683 -97.723C173.392 -97.3059 172.791 -97.1867 172.341 -97.4567C171.891 -97.7266 171.762 -98.2836 172.053 -98.7007C172.345 -99.1178 172.946 -99.237 173.396 -98.967C173.846 -98.697 173.974 -98.1401 173.683 -97.723Z" fill="white"/>
<path d="M248.519 -57.0894C248.227 -56.6723 247.626 -56.5531 247.176 -56.823C246.726 -57.093 246.598 -57.65 246.889 -58.0671C247.18 -58.4842 247.781 -58.6034 248.231 -58.3334C248.681 -58.0634 248.81 -57.5065 248.519 -57.0894Z" fill="white"/>
<path d="M256.026 67.8961C255.735 68.3132 255.134 68.4324 254.684 68.1624C254.234 67.8925 254.105 67.3355 254.396 66.9184C254.688 66.5013 255.289 66.3821 255.739 66.6521C256.189 66.9221 256.317 67.479 256.026 67.8961Z" fill="white"/>
<path d="M47.9717 -56.9237C47.6803 -56.5067 47.0794 -56.3874 46.6294 -56.6574C46.1793 -56.9274 46.0507 -57.4844 46.342 -57.9014C46.6333 -58.3185 47.2343 -58.4378 47.6843 -58.1678C48.1343 -57.8978 48.263 -57.3408 47.9717 -56.9237Z" fill="white"/>
<path d="M216.671 138.589C216.38 139.006 215.779 139.125 215.329 138.855C214.879 138.585 214.75 138.029 215.041 137.611C215.333 137.194 215.934 137.075 216.384 137.345C216.834 137.615 216.962 138.172 216.671 138.589Z" fill="white"/>
<path d="M304.835 23.9505C304.544 24.3676 303.943 24.4868 303.493 24.2169C303.043 23.9469 302.914 23.3899 303.205 22.9728C303.497 22.5557 304.098 22.4365 304.548 22.7065C304.998 22.9765 305.126 23.5334 304.835 23.9505Z" fill="white"/>
<path d="M281.676 51.3144C281.53 51.523 281.23 51.5827 281.005 51.4476C280.78 51.3126 280.715 51.034 280.861 50.8254C281.007 50.6168 281.307 50.5572 281.532 50.6922C281.757 50.8273 281.822 51.1058 281.676 51.3144Z" fill="white"/>
<path d="M73.6216 -73.5054C73.4759 -73.2968 73.1753 -73.2372 72.9503 -73.3722C72.7252 -73.5073 72.6608 -73.7858 72.8065 -73.9944C72.9522 -74.203 73.2528 -74.2627 73.4779 -74.1276C73.703 -73.9926 73.7673 -73.714 73.6216 -73.5054Z" fill="white"/>
<path d="M234.59 -72.6677C234.444 -72.4591 234.144 -72.3995 233.919 -72.5345C233.693 -72.6695 233.629 -72.9481 233.775 -73.1567C233.92 -73.3653 234.221 -73.425 234.446 -73.2899C234.671 -73.1549 234.736 -72.8763 234.59 -72.6677Z" fill="white"/>
<path d="M19.205 4.4045C19.0593 4.61311 18.7587 4.67274 18.5337 4.5377C18.3086 4.40266 18.2442 4.12409 18.3899 3.91548C18.5356 3.70687 18.8362 3.64724 19.0613 3.78227C19.2864 3.91731 19.3507 4.19588 19.205 4.4045Z" fill="white"/>
<path d="M171.29 103.683C171.144 103.892 170.844 103.951 170.618 103.816C170.393 103.681 170.329 103.403 170.475 103.194C170.62 102.986 170.921 102.926 171.146 103.061C171.371 103.196 171.436 103.475 171.29 103.683Z" fill="white"/>
<path d="M93.3221 -104.194C93.1764 -103.986 92.8758 -103.926 92.6507 -104.061C92.4256 -104.196 92.3613 -104.475 92.507 -104.683C92.6527 -104.892 92.9532 -104.952 93.1783 -104.817C93.4034 -104.682 93.4678 -104.403 93.3221 -104.194Z" fill="white"/>
<path d="M98.4034 53.5261C98.2577 53.7347 97.9571 53.7944 97.732 53.6593C97.507 53.5243 97.4426 53.2457 97.5883 53.0371C97.734 52.8285 98.0346 52.7689 98.2597 52.9039C98.4848 53.0389 98.5491 53.3175 98.4034 53.5261Z" fill="white"/>
<path d="M268.982 85.4922C268.836 85.7008 268.535 85.7604 268.31 85.6254C268.085 85.4903 268.021 85.2118 268.167 85.0032C268.312 84.7945 268.613 84.7349 268.838 84.8699C269.063 85.005 269.127 85.2836 268.982 85.4922Z" fill="white"/>
<path d="M60.9273 -39.3277C60.7816 -39.1191 60.481 -39.0594 60.2559 -39.1945C60.0309 -39.3295 59.9665 -39.6081 60.1122 -39.8167C60.2579 -40.0253 60.5585 -40.0849 60.7836 -39.9499C61.0087 -39.8148 61.073 -39.5363 60.9273 -39.3277Z" fill="white"/>
<path d="M255.656 82.4984C255.51 82.707 255.209 82.7666 254.984 82.6316C254.759 82.4966 254.695 82.218 254.841 82.0094C254.986 81.8008 255.287 81.7411 255.512 81.8762C255.737 82.0112 255.801 82.2898 255.656 82.4984Z" fill="white"/>
<path d="M47.6013 -42.3215C47.4556 -42.1128 47.1551 -42.0532 46.93 -42.1882C46.7049 -42.3233 46.6405 -42.6019 46.7862 -42.8105C46.9319 -43.0191 47.2325 -43.0787 47.4576 -42.9437C47.6827 -42.8086 47.747 -42.5301 47.6013 -42.3215Z" fill="white"/>
<path d="M53.4773 -20.9357C53.3316 -20.7271 53.031 -20.6675 52.8059 -20.8025C52.5808 -20.9376 52.5165 -21.2161 52.6622 -21.4247C52.8079 -21.6334 53.1085 -21.693 53.3336 -21.558C53.5587 -21.4229 53.623 -21.1443 53.4773 -20.9357Z" fill="white"/>
<path d="M252.695 107.155C252.549 107.364 252.248 107.424 252.023 107.289C251.798 107.154 251.734 106.875 251.879 106.666C252.025 106.458 252.326 106.398 252.551 106.533C252.776 106.668 252.84 106.947 252.695 107.155Z" fill="white"/>
<path d="M268.032 38.8426C267.887 39.0512 267.586 39.1108 267.361 38.9758C267.136 38.8408 267.072 38.5622 267.217 38.3536C267.363 38.145 267.664 38.0853 267.889 38.2204C268.114 38.3554 268.178 38.634 268.032 38.8426Z" fill="white"/>
<path d="M63.1508 -84.0738C63.0051 -83.8652 62.7046 -83.8055 62.4795 -83.9406C62.2544 -84.0756 62.19 -84.3542 62.3357 -84.5628C62.4814 -84.7714 62.782 -84.831 63.0071 -84.696C63.2322 -84.5609 63.2965 -84.2824 63.1508 -84.0738Z" fill="white"/>
<path d="M8.7342 -6.1638C8.5885 -5.95519 8.28792 -5.89554 8.06283 -6.03058C7.83775 -6.16562 7.7734 -6.44419 7.9191 -6.6528C8.0648 -6.86141 8.36538 -6.92106 8.59047 -6.78602C8.81555 -6.65099 8.8799 -6.37241 8.7342 -6.1638Z" fill="white"/>
<path d="M240.839 72.3588C240.693 72.5674 240.392 72.627 240.167 72.492C239.942 72.3569 239.878 72.0784 240.023 71.8698C240.169 71.6611 240.47 71.6015 240.695 71.7365C240.92 71.8716 240.984 72.1502 240.839 72.3588Z" fill="white"/>
<path d="M32.7842 -52.4611C32.6384 -52.2525 32.3379 -52.1928 32.1128 -52.3279C31.8877 -52.4629 31.8233 -52.7415 31.969 -52.9501C32.1147 -53.1587 32.4153 -53.2183 32.6404 -53.0833C32.8655 -52.9483 32.9299 -52.6697 32.7842 -52.4611Z" fill="white"/>
<path d="M310.507 34.1406C310.361 34.3492 310.061 34.4088 309.836 34.2738C309.611 34.1387 309.546 33.8602 309.692 33.6516C309.838 33.443 310.138 33.3833 310.363 33.5184C310.588 33.6534 310.653 33.932 310.507 34.1406Z" fill="white"/>
<path d="M220.06 -20.1218C219.915 -19.9132 219.614 -19.8536 219.389 -19.9886C219.164 -20.1237 219.1 -20.4022 219.245 -20.6108C219.391 -20.8194 219.692 -20.8791 219.917 -20.744C220.142 -20.609 220.206 -20.3304 220.06 -20.1218Z" fill="white"/>
<path d="M252.806 28.6363C252.661 28.8449 252.36 28.9045 252.135 28.7695C251.91 28.6344 251.846 28.3559 251.991 28.1473C252.137 27.9387 252.438 27.879 252.663 28.0141C252.888 28.1491 252.952 28.4277 252.806 28.6363Z" fill="white"/>
<path d="M44.752 -96.1836C44.6063 -95.9749 44.3057 -95.9153 44.0806 -96.0503C43.8556 -96.1854 43.7912 -96.464 43.9369 -96.6726C44.0826 -96.8812 44.3832 -96.9408 44.6083 -96.8058C44.8334 -96.6707 44.8977 -96.3922 44.752 -96.1836Z" fill="white"/>
<path d="M227.619 49.2465C227.473 49.4551 227.173 49.5148 226.948 49.3797C226.723 49.2447 226.658 48.9661 226.804 48.7575C226.95 48.5489 227.25 48.4893 227.475 48.6243C227.7 48.7593 227.765 49.0379 227.619 49.2465Z" fill="white"/>
<path d="M297.291 35.8561C297.193 35.9952 296.993 36.0349 296.843 35.9449C296.693 35.8549 296.65 35.6692 296.747 35.5301C296.844 35.391 297.045 35.3512 297.195 35.4413C297.345 35.5313 297.388 35.717 297.291 35.8561Z" fill="white"/>
<path d="M206.844 -18.4063C206.747 -18.2673 206.546 -18.2275 206.396 -18.3175C206.246 -18.4075 206.203 -18.5933 206.301 -18.7323C206.398 -18.8714 206.598 -18.9112 206.748 -18.8211C206.898 -18.7311 206.941 -18.5454 206.844 -18.4063Z" fill="white"/>
<path d="M89.2363 -88.9637C89.1391 -88.8247 88.9387 -88.7849 88.7887 -88.8749C88.6386 -88.965 88.5957 -89.1507 88.6929 -89.2898C88.79 -89.4288 88.9904 -89.4686 89.1404 -89.3786C89.2905 -89.2885 89.3334 -89.1028 89.2363 -88.9637Z" fill="white"/>
<path d="M34.8197 -11.0538C34.7225 -10.9148 34.5221 -10.875 34.3721 -10.965C34.222 -11.055 34.1791 -11.2408 34.2763 -11.3798C34.3734 -11.5189 34.5738 -11.5587 34.7238 -11.4686C34.8739 -11.3786 34.9168 -11.1929 34.8197 -11.0538Z" fill="white"/>
<path d="M56.0883 25.8177C55.9912 25.9568 55.7908 25.9966 55.6407 25.9066C55.4907 25.8165 55.4478 25.6308 55.5449 25.4917C55.6421 25.3527 55.8424 25.3129 55.9925 25.4029C56.1426 25.493 56.1855 25.6787 56.0883 25.8177Z" fill="white"/>
<path d="M149.583 98.3406C149.486 98.4797 149.286 98.5195 149.136 98.4294C148.986 98.3394 148.943 98.1537 149.04 98.0146C149.137 97.8756 149.337 97.8358 149.487 97.9258C149.637 98.0159 149.68 98.2016 149.583 98.3406Z" fill="white"/>
<path d="M71.6155 -109.537C71.5184 -109.398 71.318 -109.358 71.1679 -109.448C71.0179 -109.538 70.975 -109.724 71.0721 -109.863C71.1692 -110.002 71.3696 -110.042 71.5197 -109.952C71.6697 -109.862 71.7126 -109.676 71.6155 -109.537Z" fill="white"/>
<path d="M288.055 36.3876C287.957 36.5267 287.757 36.5664 287.607 36.4764C287.457 36.3864 287.414 36.2007 287.511 36.0616C287.608 35.9225 287.809 35.8828 287.959 35.9728C288.109 36.0628 288.152 36.2486 288.055 36.3876Z" fill="white"/>
<path d="M197.608 -17.8748C197.511 -17.7357 197.31 -17.696 197.16 -17.786C197.01 -17.876 196.967 -18.0617 197.065 -18.2008C197.162 -18.3399 197.362 -18.3796 197.512 -18.2896C197.662 -18.1996 197.705 -18.0139 197.608 -17.8748Z" fill="white"/>
<path d="M80.0002 -88.4322C79.9031 -88.2932 79.7027 -88.2534 79.5527 -88.3434C79.4026 -88.4334 79.3597 -88.6192 79.4568 -88.7582C79.554 -88.8973 79.7544 -88.9371 79.9044 -88.847C80.0545 -88.757 80.0974 -88.5713 80.0002 -88.4322Z" fill="white"/>
<path d="M206.639 -90.8214C206.542 -90.6823 206.342 -90.6426 206.192 -90.7326C206.042 -90.8226 205.999 -91.0083 206.096 -91.1474C206.193 -91.2865 206.393 -91.3262 206.543 -91.2362C206.694 -91.1462 206.736 -90.9605 206.639 -90.8214Z" fill="white"/>
<path d="M25.5836 -10.5223C25.4865 -10.3832 25.2861 -10.3435 25.1361 -10.4335C24.986 -10.5235 24.9431 -10.7092 25.0402 -10.8483C25.1374 -10.9874 25.3378 -11.0271 25.4878 -10.9371C25.6379 -10.8471 25.6808 -10.6614 25.5836 -10.5223Z" fill="white"/>
<path d="M46.8524 26.3492C46.7552 26.4883 46.5548 26.5281 46.4048 26.438C46.2547 26.348 46.2118 26.1623 46.309 26.0232C46.4061 25.8842 46.6065 25.8444 46.7565 25.9344C46.9066 26.0244 46.9495 26.2102 46.8524 26.3492Z" fill="white"/>
<path d="M177.366 120.367C177.269 120.506 177.069 120.546 176.919 120.456C176.769 120.366 176.726 120.18 176.823 120.041C176.92 119.902 177.12 119.862 177.271 119.952C177.421 120.042 177.463 120.228 177.366 120.367Z" fill="white"/>
<path d="M99.3987 -87.5107C99.3015 -87.3716 99.1011 -87.3318 98.9511 -87.4218C98.801 -87.5119 98.7581 -87.6976 98.8552 -87.8367C98.9524 -87.9757 99.1528 -88.0155 99.3028 -87.9255C99.4529 -87.8354 99.4958 -87.6497 99.3987 -87.5107Z" fill="white"/>
<path d="M221.286 73.4882C221.189 73.6273 220.989 73.667 220.839 73.577C220.689 73.487 220.646 73.3013 220.743 73.1622C220.84 73.0231 221.041 72.9834 221.191 73.0734C221.341 73.1634 221.384 73.3491 221.286 73.4882Z" fill="white"/>
<path d="M263.066 21.3962C262.969 21.5353 262.769 21.5751 262.619 21.485C262.469 21.395 262.426 21.2093 262.523 21.0702C262.62 20.9311 262.82 20.8914 262.971 20.9814C263.121 21.0714 263.163 21.2571 263.066 21.3962Z" fill="white"/>
<path d="M118.899 -76.5261C118.802 -76.387 118.601 -76.3473 118.451 -76.4373C118.301 -76.5273 118.258 -76.713 118.355 -76.8521C118.453 -76.9912 118.653 -77.0309 118.803 -76.9409C118.953 -76.8509 118.996 -76.6652 118.899 -76.5261Z" fill="white"/>
<path d="M172.62 -32.8662C172.523 -32.7271 172.322 -32.6874 172.172 -32.7774C172.022 -32.8674 171.979 -33.0531 172.076 -33.1922C172.173 -33.3313 172.374 -33.371 172.524 -33.281C172.674 -33.191 172.717 -33.0053 172.62 -32.8662Z" fill="white"/>
<path d="M55.012 -103.424C54.9149 -103.285 54.7145 -103.245 54.5644 -103.335C54.4144 -103.425 54.3715 -103.611 54.4686 -103.75C54.5657 -103.889 54.7661 -103.928 54.9162 -103.838C55.0662 -103.748 55.1091 -103.563 55.012 -103.424Z" fill="white"/>
<path d="M0.595398 -25.5137C0.498263 -25.3746 0.297875 -25.3349 0.147819 -25.4249C-0.00223752 -25.5149 -0.0451396 -25.7006 0.0519957 -25.8397C0.149131 -25.9788 0.34952 -26.0185 0.499577 -25.9285C0.649633 -25.8385 0.692534 -25.6528 0.595398 -25.5137Z" fill="white"/>
<path d="M281.51 39.9629C281.413 40.102 281.213 40.1418 281.063 40.0517C280.913 39.9617 280.87 39.776 280.967 39.6369C281.064 39.4978 281.265 39.4581 281.415 39.5481C281.565 39.6381 281.608 39.8239 281.51 39.9629Z" fill="white"/>
<path d="M73.4561 -84.8569C73.359 -84.7178 73.1586 -84.6781 73.0085 -84.7681C72.8585 -84.8581 72.8156 -85.0438 72.9127 -85.1829C73.0098 -85.322 73.2102 -85.3617 73.3603 -85.2717C73.5103 -85.1817 73.5532 -84.996 73.4561 -84.8569Z" fill="white"/>
<path d="M230.451 -84.8665C230.354 -84.7274 230.153 -84.6876 230.003 -84.7777C229.853 -84.8677 229.81 -85.0534 229.907 -85.1925C230.004 -85.3316 230.205 -85.3713 230.355 -85.2813C230.505 -85.1913 230.548 -85.0056 230.451 -84.8665Z" fill="white"/>
<path d="M19.0395 -6.94697C18.9423 -6.8079 18.742 -6.76814 18.5919 -6.85817C18.4418 -6.94819 18.3989 -7.13391 18.4961 -7.27298C18.5932 -7.41206 18.7936 -7.45181 18.9437 -7.36179C19.0937 -7.27176 19.1366 -7.08604 19.0395 -6.94697Z" fill="white"/>
<path d="M40.3082 29.9245C40.2111 30.0636 40.0107 30.1034 39.8606 30.0133C39.7106 29.9233 39.6677 29.7376 39.7648 29.5985C39.8619 29.4595 40.0623 29.4197 40.2124 29.5097C40.3624 29.5997 40.4053 29.7855 40.3082 29.9245Z" fill="white"/>
<path d="M196.174 117.719C196.077 117.858 195.877 117.898 195.727 117.808C195.577 117.718 195.534 117.532 195.631 117.393C195.728 117.254 195.928 117.214 196.079 117.304C196.229 117.395 196.272 117.58 196.174 117.719Z" fill="white"/>
<path d="M118.207 -90.1582C118.109 -90.0191 117.909 -89.9794 117.759 -90.0694C117.609 -90.1594 117.566 -90.3451 117.663 -90.4842C117.76 -90.6233 117.961 -90.6631 118.111 -90.573C118.261 -90.483 118.304 -90.2973 118.207 -90.1582Z" fill="white"/>
<path d="M241.743 94.6913C241.646 94.8304 241.446 94.8702 241.296 94.7802C241.146 94.6901 241.103 94.5044 241.2 94.3653C241.297 94.2263 241.497 94.1865 241.648 94.2765C241.798 94.3666 241.841 94.5523 241.743 94.6913Z" fill="white"/>
<path d="M238.953 103.377C238.856 103.516 238.656 103.555 238.506 103.465C238.356 103.375 238.313 103.19 238.41 103.051C238.507 102.911 238.707 102.872 238.857 102.962C239.008 103.052 239.05 103.237 238.953 103.377Z" fill="white"/>
<path d="M234.317 34.69C234.22 34.829 234.02 34.8688 233.87 34.7788C233.72 34.6888 233.677 34.503 233.774 34.364C233.871 34.2249 234.071 34.1851 234.221 34.2751C234.371 34.3652 234.414 34.5509 234.317 34.69Z" fill="white"/>
<path d="M267.796 59.5978C267.699 59.7369 267.499 59.7766 267.349 59.6866C267.199 59.5966 267.156 59.4109 267.253 59.2718C267.35 59.1327 267.551 59.093 267.701 59.183C267.851 59.273 267.894 59.4587 267.796 59.5978Z" fill="white"/>
<path d="M59.742 -65.2221C59.6449 -65.083 59.4445 -65.0432 59.2945 -65.1333C59.1444 -65.2233 59.1015 -65.409 59.1986 -65.5481C59.2958 -65.6871 59.4962 -65.7269 59.6462 -65.6369C59.7963 -65.5468 59.8392 -65.3611 59.742 -65.2221Z" fill="white"/>
<path d="M5.32543 12.6879C5.2283 12.8269 5.02791 12.8667 4.87785 12.7767C4.7278 12.6866 4.68489 12.5009 4.78203 12.3619C4.87916 12.2228 5.07955 12.183 5.22961 12.273C5.37967 12.3631 5.42257 12.5488 5.32543 12.6879Z" fill="white"/>
<path d="M235.802 118.097C235.705 118.236 235.505 118.275 235.355 118.185C235.205 118.095 235.162 117.91 235.259 117.771C235.356 117.631 235.557 117.592 235.707 117.682C235.857 117.772 235.9 117.957 235.802 118.097Z" fill="white"/>
<path d="M289.567 26.2213C289.47 26.3604 289.269 26.4001 289.119 26.3101C288.969 26.2201 288.926 26.0344 289.023 25.8953C289.12 25.7562 289.321 25.7165 289.471 25.8065C289.621 25.8965 289.664 26.0822 289.567 26.2213Z" fill="white"/>
<path d="M199.12 -28.0411C199.023 -27.9021 198.823 -27.8623 198.672 -27.9523C198.522 -28.0423 198.48 -28.2281 198.577 -28.3671C198.674 -28.5062 198.874 -28.546 199.024 -28.4559C199.174 -28.3659 199.217 -28.1802 199.12 -28.0411Z" fill="white"/>
<path d="M62.0686 45.1228C61.9715 45.2619 61.7711 45.3016 61.621 45.2116C61.471 45.1216 61.4281 44.9359 61.5252 44.7968C61.6223 44.6577 61.8227 44.618 61.9728 44.708C62.1228 44.798 62.1657 44.9837 62.0686 45.1228Z" fill="white"/>
<path d="M289.298 10.8787C289.201 11.0178 289.001 11.0576 288.851 10.9675C288.7 10.8775 288.658 10.6918 288.755 10.5527C288.852 10.4137 289.052 10.3739 289.202 10.4639C289.352 10.5539 289.395 10.7397 289.298 10.8787Z" fill="white"/>
<path d="M198.852 -43.3837C198.754 -43.2446 198.554 -43.2048 198.404 -43.2949C198.254 -43.3849 198.211 -43.5706 198.308 -43.7097C198.405 -43.8488 198.606 -43.8885 198.756 -43.7985C198.906 -43.7085 198.949 -43.5228 198.852 -43.3837Z" fill="white"/>
<path d="M258.308 5.86037C258.211 5.99944 258.01 6.03921 257.86 5.94918C257.71 5.85915 257.667 5.67344 257.764 5.53436C257.861 5.39529 258.062 5.35553 258.212 5.44555C258.362 5.53558 258.405 5.7213 258.308 5.86037Z" fill="white"/>
<path d="M167.861 -48.4021C167.764 -48.263 167.564 -48.2232 167.414 -48.3133C167.263 -48.4033 167.221 -48.589 167.318 -48.7281C167.415 -48.8671 167.615 -48.9069 167.765 -48.8169C167.915 -48.7269 167.958 -48.5411 167.861 -48.4021Z" fill="white"/>
<path d="M249.765 16.9881C249.668 17.1272 249.467 17.1669 249.317 17.0769C249.167 16.9869 249.124 16.8012 249.221 16.6621C249.318 16.523 249.519 16.4833 249.669 16.5733C249.819 16.6633 249.862 16.849 249.765 16.9881Z" fill="white"/>
<path d="M105.597 -80.9342C105.5 -80.7952 105.3 -80.7554 105.15 -80.8454C105 -80.9355 104.957 -81.1212 105.054 -81.2603C105.151 -81.3993 105.351 -81.4391 105.501 -81.3491C105.651 -81.259 105.694 -81.0733 105.597 -80.9342Z" fill="white"/>
<path d="M86.8652 59.2849C86.7681 59.4239 86.5677 59.4637 86.4177 59.3737C86.2676 59.2836 86.2247 59.0979 86.3218 58.9588C86.419 58.8198 86.6194 58.78 86.7694 58.87C86.9195 58.9601 86.9624 59.1458 86.8652 59.2849Z" fill="white"/>
<path d="M286.593 31.5818C286.496 31.7208 286.296 31.7606 286.146 31.6706C285.996 31.5806 285.953 31.3948 286.05 31.2558C286.147 31.1167 286.348 31.0769 286.498 31.167C286.648 31.257 286.691 31.4427 286.593 31.5818Z" fill="white"/>
<path d="M196.147 -22.6806C196.05 -22.5416 195.849 -22.5018 195.699 -22.5918C195.549 -22.6819 195.506 -22.8676 195.603 -23.0067C195.701 -23.1457 195.901 -23.1855 196.051 -23.0955C196.201 -23.0054 196.244 -22.8197 196.147 -22.6806Z" fill="white"/>
<path d="M234.161 -22.2001C234.064 -22.0611 233.863 -22.0213 233.713 -22.1113C233.563 -22.2014 233.52 -22.3871 233.618 -22.5262C233.715 -22.6652 233.915 -22.705 234.065 -22.615C234.215 -22.5249 234.258 -22.3392 234.161 -22.2001Z" fill="white"/>
<path d="M78.5391 -93.2381C78.442 -93.099 78.2416 -93.0592 78.0915 -93.1493C77.9415 -93.2393 77.8986 -93.425 77.9957 -93.5641C78.0928 -93.7032 78.2932 -93.7429 78.4433 -93.6529C78.5933 -93.5629 78.6362 -93.3771 78.5391 -93.2381Z" fill="white"/>
<path d="M24.1226 -15.3282C24.0254 -15.1892 23.825 -15.1494 23.675 -15.2394C23.5249 -15.3295 23.482 -15.5152 23.5792 -15.6543C23.6763 -15.7933 23.8767 -15.8331 24.0267 -15.743C24.1768 -15.653 24.2197 -15.4673 24.1226 -15.3282Z" fill="white"/>
<path d="M45.3912 21.5434C45.2941 21.6825 45.0937 21.7222 44.9436 21.6322C44.7936 21.5422 44.7507 21.3565 44.8478 21.2174C44.9449 21.0783 45.1453 21.0385 45.2954 21.1286C45.4454 21.2186 45.4883 21.4043 45.3912 21.5434Z" fill="white"/>
<path d="M12.7664 -40.1802C12.6693 -40.0412 12.4689 -40.0014 12.3188 -40.0914C12.1688 -40.1814 12.1259 -40.3672 12.223 -40.5062C12.3202 -40.6453 12.5205 -40.6851 12.6706 -40.595C12.8207 -40.505 12.8636 -40.3193 12.7664 -40.1802Z" fill="white"/>
<path d="M113.549 67.4345C113.452 67.5736 113.251 67.6134 113.101 67.5233C112.951 67.4333 112.908 67.2476 113.005 67.1085C113.102 66.9695 113.303 66.9297 113.453 67.0197C113.603 67.1098 113.646 67.2955 113.549 67.4345Z" fill="white"/>
<path d="M155.817 88.8637C155.72 89.0028 155.52 89.0425 155.369 88.9525C155.219 88.8625 155.176 88.6768 155.274 88.5377C155.371 88.3986 155.571 88.3589 155.721 88.4489C155.871 88.5389 155.914 88.7246 155.817 88.8637Z" fill="white"/>
<path d="M184.28 105.226C184.183 105.365 183.983 105.404 183.833 105.314C183.683 105.224 183.64 105.039 183.737 104.9C183.834 104.761 184.035 104.721 184.185 104.811C184.335 104.901 184.378 105.087 184.28 105.226Z" fill="white"/>
<path d="M273.248 5.71485C273.151 5.85393 272.951 5.89368 272.801 5.80366C272.651 5.71363 272.608 5.52792 272.705 5.38884C272.802 5.24977 273.002 5.21001 273.152 5.30004C273.302 5.39006 273.345 5.57578 273.248 5.71485Z" fill="white"/>
<path d="M182.802 -48.5475C182.704 -48.4085 182.504 -48.3687 182.354 -48.4587C182.204 -48.5488 182.161 -48.7345 182.258 -48.8736C182.355 -49.0126 182.556 -49.0524 182.706 -48.9624C182.856 -48.8723 182.899 -48.6866 182.802 -48.5475Z" fill="white"/>
<path d="M236.125 -13.6992C236.028 -13.5602 235.827 -13.5204 235.677 -13.6105C235.527 -13.7005 235.484 -13.8862 235.581 -14.0253C235.678 -14.1643 235.879 -14.2041 236.029 -14.1141C236.179 -14.024 236.222 -13.8383 236.125 -13.6992Z" fill="white"/>
<path d="M145.678 -67.9617C145.581 -67.8226 145.381 -67.7828 145.231 -67.8729C145.08 -67.9629 145.038 -68.1486 145.135 -68.2877C145.232 -68.4267 145.432 -68.4665 145.582 -68.3765C145.732 -68.2865 145.775 -68.1007 145.678 -67.9617Z" fill="white"/>
<path d="M244.542 3.49589C244.445 3.63496 244.245 3.67471 244.095 3.58469C243.945 3.49467 243.902 3.30894 243.999 3.16988C244.096 3.03081 244.296 2.99105 244.446 3.08108C244.596 3.1711 244.639 3.35682 244.542 3.49589Z" fill="white"/>
<path d="M154.096 -50.7665C153.998 -50.6274 153.798 -50.5877 153.648 -50.6777C153.498 -50.7677 153.455 -50.9535 153.552 -51.0925C153.649 -51.2316 153.85 -51.2714 154 -51.1813C154.15 -51.0913 154.193 -50.9056 154.096 -50.7665Z" fill="white"/>
<path d="M293.262 42.7269C293.165 42.866 292.965 42.9057 292.815 42.8157C292.665 42.7257 292.622 42.54 292.719 42.4009C292.816 42.2618 293.017 42.2221 293.167 42.3121C293.317 42.4021 293.36 42.5878 293.262 42.7269Z" fill="white"/>
<path d="M85.2082 -82.0929C85.111 -81.9538 84.9107 -81.9141 84.7606 -82.0041C84.6105 -82.0941 84.5676 -82.2799 84.6648 -82.4189C84.7619 -82.558 84.9623 -82.5978 85.1124 -82.5077C85.2624 -82.4177 85.3053 -82.232 85.2082 -82.0929Z" fill="white"/>
<path d="M30.7916 -4.18301C30.6944 -4.04395 30.4941 -4.00418 30.344 -4.0942C30.1939 -4.18423 30.151 -4.36996 30.2482 -4.50903C30.3453 -4.6481 30.5457 -4.68786 30.6958 -4.59783C30.8458 -4.5078 30.8887 -4.32209 30.7916 -4.18301Z" fill="white"/>
<path d="M52.0602 32.6886C51.9631 32.8276 51.7627 32.8674 51.6127 32.7774C51.4626 32.6873 51.4197 32.5016 51.5168 32.3625C51.614 32.2235 51.8144 32.1837 51.9644 32.2737C52.1145 32.3638 52.1574 32.5495 52.0602 32.6886Z" fill="white"/>
<path d="M143.039 101.916C142.942 102.055 142.742 102.095 142.591 102.005C142.441 101.915 142.398 101.729 142.496 101.59C142.593 101.451 142.793 101.411 142.943 101.501C143.093 101.591 143.136 101.777 143.039 101.916Z" fill="white"/>
<path d="M65.0714 -105.962C64.9742 -105.823 64.7738 -105.783 64.6238 -105.873C64.4737 -105.963 64.4308 -106.149 64.528 -106.288C64.6251 -106.427 64.8255 -106.467 64.9755 -106.377C65.1256 -106.287 65.1685 -106.101 65.0714 -105.962Z" fill="white"/>
<path d="M217.032 95.583C216.934 95.7221 216.734 95.7619 216.584 95.6718C216.434 95.5818 216.391 95.3961 216.488 95.257C216.585 95.118 216.786 95.0782 216.936 95.1682C217.086 95.2582 217.129 95.444 217.032 95.583Z" fill="white"/>
<path d="M225.474 108.328C225.377 108.467 225.176 108.507 225.026 108.417C224.876 108.327 224.833 108.141 224.93 108.002C225.028 107.863 225.228 107.823 225.378 107.913C225.528 108.003 225.571 108.189 225.474 108.328Z" fill="white"/>
<path d="M74.329 -55.7564C74.2319 -55.6173 74.0315 -55.5776 73.8815 -55.6676C73.7314 -55.7576 73.6885 -55.9433 73.7856 -56.0824C73.8828 -56.2215 74.0832 -56.2612 74.2332 -56.1712C74.3833 -56.0812 74.4262 -55.8955 74.329 -55.7564Z" fill="white"/>
<path d="M19.9124 22.1536C19.8153 22.2926 19.6149 22.3324 19.4648 22.2424C19.3148 22.1523 19.2719 21.9666 19.369 21.8276C19.4661 21.6885 19.6665 21.6487 19.8166 21.7387C19.9666 21.8288 20.0095 22.0145 19.9124 22.1536Z" fill="white"/>
<path d="M51.6112 93.3314C51.6112 94.1759 50.8725 94.8605 49.9614 94.8605C49.0502 94.8605 48.3115 94.1759 48.3115 93.3314C48.3115 92.487 49.0502 91.8024 49.9614 91.8024C50.8725 91.8024 51.6112 92.487 51.6112 93.3314Z" fill="white"/>
<path d="M94.6984 -71.6551C94.6984 -70.8106 93.9597 -70.1261 93.0486 -70.1261C92.1374 -70.1261 91.3988 -70.8106 91.3988 -71.6551C91.3988 -72.4996 92.1374 -73.1841 93.0486 -73.1841C93.9597 -73.1841 94.6984 -72.4996 94.6984 -71.6551Z" fill="white"/>
<path d="M233.031 99.9869C233.031 100.831 232.292 101.516 231.381 101.516C230.47 101.516 229.731 100.831 229.731 99.9869C229.731 99.1425 230.47 98.4579 231.381 98.4579C232.292 98.4579 233.031 99.1425 233.031 99.9869Z" fill="white"/>
<path d="M42.9181 12.4145C42.9181 13.2589 42.1795 13.9435 41.2683 13.9435C40.3572 13.9435 39.6185 13.2589 39.6185 12.4145C39.6185 11.57 40.3572 10.8854 41.2683 10.8854C42.1795 10.8854 42.9181 11.57 42.9181 12.4145Z" fill="white"/>
<path d="M292.748 -74.4574C292.748 -73.613 292.01 -72.9284 291.099 -72.9284C290.187 -72.9284 289.449 -73.613 289.449 -74.4574C289.449 -75.3019 290.187 -75.9865 291.099 -75.9865C292.01 -75.9865 292.748 -75.3019 292.748 -74.4574Z" fill="white"/>
</g>
</g>
<ellipse cx="130.01" cy="86.5" rx="32.1201" ry="5.5" fill="#00101B" fill-opacity="0.3"/>
<path fill-rule="evenodd" clip-rule="evenodd" d="M131.062 85.1211C131.062 85.1211 125.155 83.6498 123.438 80.0453C123.438 80.0453 122.51 78.3534 124.846 78.6476C124.846 78.6476 127.8 78.7948 129.62 79.4936C129.62 79.4936 125.567 75.3374 125.189 72.1007C125.189 72.1007 124.674 70.0409 126.598 70.0409C126.598 70.0409 129.105 69.6731 131.578 72.5053C131.578 72.5053 131.097 71.1076 131.2 70.372C131.2 70.372 131.595 68.6984 132.934 70.5191C132.934 70.5191 135.562 77.4707 132.883 84.2015C132.883 84.2015 132.368 85.3785 131.062 85.1211Z" fill="#833B48"/>
<path d="M133.322 73.6804C132.924 73.8964 132.372 73.4382 132.089 72.657C131.807 71.8757 131.901 71.0672 132.299 70.8512C132.698 70.6351 133.249 71.0933 133.532 71.8746C133.814 72.6558 133.72 73.4643 133.322 73.6804Z" fill="#964857"/>
<path fill-rule="evenodd" clip-rule="evenodd" d="M135.708 51.5714C132.94 53.444 134.737 56.3569 134.737 56.3569C136.583 61.5065 136.097 69.569 136.097 69.569C135.465 78.5157 131.288 84.0294 131.288 84.0294C130.657 85.8499 132.202 86.2255 132.202 86.2255C135.293 87.4761 139.724 86.2255 139.724 86.2255C147.142 84.1658 150.989 79.3107 150.989 79.3107C164.076 64.8681 156.931 52.0194 156.931 52.0194C156.931 52.0194 155.817 49.4908 152.514 49.5948C152.514 49.5948 142.557 48.0344 135.708 51.5714Z" fill="#F0C35A"/>
<path fill-rule="evenodd" clip-rule="evenodd" d="M146.319 81.9413C146.525 82.0148 149.41 81.2424 152.02 82.9711C152.055 83.1183 153.669 83.8539 152.57 84.8102C152.57 84.8102 151.196 85.1412 148.998 84.5159C148.998 84.5159 149.616 84.9941 149.651 85.7297C149.651 85.7297 149.754 86.686 148.586 86.8331C148.586 86.8331 146.147 86.8331 144.808 85.9504C144.808 85.9504 143.091 85.178 142.163 84.1849C142.163 84.1849 141.408 83.5964 142.713 82.824C143.159 82.4562 146.319 81.9413 146.319 81.9413Z" fill="#DC9534"/>
<path fill-rule="evenodd" clip-rule="evenodd" d="M141.167 83.4494C141.167 83.4494 143.228 83.339 144.293 85.3988C144.293 85.3988 144.705 86.4654 144.396 87.3481C144.396 87.3481 144.155 88.5251 142.988 87.6792C142.988 87.6792 143.022 88.709 142.301 88.7458C142.301 88.7458 141.339 89.0033 140.446 87.5688C140.446 87.5688 139.587 86.539 138.626 86.4654C138.626 86.4654 138.248 87.3114 138.488 88.0102C138.488 88.0102 138.488 88.7458 137.836 88.7458C137.836 88.7458 136.909 89.0401 136.393 87.8631C136.393 87.8631 135.741 85.8769 135.878 84.7735C135.878 84.7735 136.393 82.9344 141.167 83.4494Z" fill="#DC9534"/>
<path d="M136.614 87.3011C136.327 86.6566 136.334 86.037 136.629 85.9172C136.925 85.7974 137.397 86.2227 137.685 86.8672C137.972 87.5117 137.965 88.1313 137.669 88.2511C137.374 88.3709 136.902 87.9456 136.614 87.3011Z" fill="#EEA643"/>
<path d="M140.835 86.4971C140.337 85.7029 140.211 84.8736 140.554 84.6447C140.898 84.4159 141.58 84.8742 142.079 85.6684C142.578 86.4626 142.704 87.292 142.36 87.5208C142.017 87.7496 141.334 87.2913 140.835 86.4971Z" fill="#EEA643"/>
<path d="M142.588 85.7447C142.089 84.9505 141.963 84.1211 142.307 83.8923C142.65 83.6635 143.333 84.1218 143.831 84.916C144.33 85.7102 144.456 86.5395 144.113 86.7684C143.769 86.9972 143.087 86.5389 142.588 85.7447Z" fill="#EEA643"/>
<path fill-rule="evenodd" clip-rule="evenodd" d="M136.241 51.3923C137.647 51.4357 141.879 53.1273 141.879 53.1273C150.671 64.6765 145.656 79.5359 145.656 79.5359C150.179 78.0513 153.656 74.6975 156.194 71.5792C154.985 74.0671 153.397 76.6477 150.98 79.3153C150.98 79.3153 147.133 84.1703 139.715 86.23C139.715 86.23 135.284 87.4806 132.193 86.23C132.193 86.23 130.648 85.8544 131.279 84.0338C131.279 84.0338 135.456 78.5202 136.088 69.5735C136.088 69.5735 136.574 61.511 134.728 56.3614C134.728 56.3614 132.931 53.4485 135.699 51.5759C135.815 51.5159 135.933 51.4577 136.051 51.4006C136.107 51.3937 136.169 51.39 136.241 51.3922V51.3923Z" fill="#C69A43"/>
<path fill-rule="evenodd" clip-rule="evenodd" d="M144.069 57.6496C144.069 57.6496 149.152 71.0379 142.214 80.8951C142.214 80.8951 139.055 85.3824 134.727 86.8536C134.727 86.8536 133.275 87.3675 131.575 86.5613C131.575 86.5613 130.653 86.3012 130.725 84.5326C130.725 84.5326 130.725 84.0385 131.405 82.634C131.405 82.634 134.109 76.9228 131.567 62.7254C131.567 62.7254 131.224 60.4828 130.743 59.0116C130.743 59.0116 126.677 53.6416 127.731 46.1814C127.731 46.1814 129.3 41.6868 137.2 47.0568C142.833 52.721 144.069 57.6496 144.069 57.6496Z" fill="#964857"/>
<path fill-rule="evenodd" clip-rule="evenodd" d="M131.964 42.8393C133.314 42.8575 134.793 44.7278 137.015 46.2381C142.647 51.9024 143.884 56.831 143.884 56.831C143.884 56.831 144.28 57.876 144.701 59.595C141.879 59.6139 135.327 59.2849 131.004 56.0954C131.004 56.0954 132.309 60.9872 135.057 63.0469C135.057 63.0469 133.889 63.1941 132.378 62.3481C132.378 62.3481 133.405 69.4964 132.646 74.2939C132.736 71.2279 132.319 67.1389 131.382 61.9067C131.382 61.9067 131.172 60.4575 130.691 58.9863C130.691 58.9863 126.675 54.0368 127.597 46.2548C127.597 46.2548 128.515 42.7928 131.964 42.8393Z" fill="#833B48"/>
<path fill-rule="evenodd" clip-rule="evenodd" d="M156.661 54.3101C158.791 59.0916 158.07 64.0203 158.07 64.0203C157.898 71.119 152.677 77.3349 152.677 77.3349C155.013 75.8269 156.215 74.6131 156.215 74.6131C161.435 69.9788 162.191 61.7399 162.191 61.7399C163.084 54.163 158.894 47.3953 158.894 47.3953C158.894 47.3953 157.959 46.2398 157.376 47.2021C157.376 47.2021 156.21 49.9069 156.016 50.4791C156.016 50.4791 155.388 51.7432 156.661 54.3101Z" fill="#833B48"/>
<path fill-rule="evenodd" clip-rule="evenodd" d="M140.656 26.7413C140.656 26.7413 126.559 29.4766 126.364 38.9435C126.364 38.9435 125.405 46.3613 131.124 50.5226C131.124 50.5226 137.404 57.022 148.136 58.9429C148.136 58.9429 155.842 60.0491 158.144 55.3412C158.144 55.3412 161.475 49.5298 161.235 43.8288C161.235 43.8288 161.979 37.6127 155.276 31.5268C155.276 31.5268 148.639 25.802 140.656 26.7413Z" fill="#F4D282"/>
<path fill-rule="evenodd" clip-rule="evenodd" d="M142.261 26.1574C149.397 26.1816 155.038 31.0469 155.038 31.0469C157.633 33.403 159.108 35.7771 159.946 37.8039C159.946 37.804 159.944 37.8091 159.944 37.8091C159.944 37.8091 155.905 45.7768 148.88 46.2739C148.88 46.2739 146.073 46.3465 144.888 45.9052C144.888 45.9052 146.743 47.358 149.903 48.3695C149.903 48.3695 139.303 48.3567 129.914 32.95L129.681 31.3012C133.914 27.5246 140.418 26.2616 140.418 26.2616C141.041 26.1882 141.657 26.1553 142.262 26.1573L142.261 26.1574Z" fill="#D3AB57"/>
<path fill-rule="evenodd" clip-rule="evenodd" d="M134.651 39.0154C126.459 31.6522 128.071 22.6155 128.071 22.6155C129.002 14.9718 137.726 10.7992 137.726 10.7992C144.932 7.21736 153.277 9.6914 153.277 9.6914C153.277 9.6914 159.228 11.3904 161.374 16.8736C161.374 16.8736 164.421 23.0618 161.886 32.8794C161.886 32.8794 160.471 40.2426 155.059 44.5247C155.059 44.5247 151.064 48.5088 145.602 46.2111C145.602 46.2111 140.069 44.4079 134.651 39.0154Z" fill="#F0C35A"/>
<path d="M158.846 33.4626C156.093 33.4626 153.862 30.2139 153.862 26.2064C153.862 22.1989 156.093 18.9502 158.846 18.9502C161.598 18.9502 163.83 22.1989 163.83 26.2064C163.83 30.2139 161.598 33.4626 158.846 33.4626Z" fill="#964857"/>
<path d="M139.017 35.6529C134.417 35.6529 130.687 31.7521 130.687 26.9402C130.687 22.1283 134.417 18.2275 139.017 18.2275C143.618 18.2275 147.347 22.1283 147.347 26.9402C147.347 31.7521 143.618 35.6529 139.017 35.6529Z" fill="#964857"/>
<path fill-rule="evenodd" clip-rule="evenodd" d="M146.432 8.79144C150.321 8.75053 153.255 9.6193 153.255 9.6193C153.255 9.6193 158.057 10.9904 160.58 15.2413C160.072 14.6737 156.911 11.3676 153.977 13.6284C153.977 13.6284 151.707 15.7249 151.638 18.0421C151.638 18.0421 146.273 12.7273 140.083 13.2422C140.083 13.2422 132.4 13.5552 128.377 21.1012C130.1 14.3739 137.744 10.7227 137.744 10.7227C140.664 9.27332 143.772 8.81945 146.432 8.79144Z" fill="#964857"/>
<path d="M139.544 36.1675C135.051 36.1675 131.408 32.2667 131.408 27.4549C131.408 22.643 135.051 18.7422 139.544 18.7422C144.037 18.7422 147.68 22.643 147.68 27.4549C147.68 32.2667 144.037 36.1675 139.544 36.1675Z" fill="#F4F9FD"/>
<path d="M158.49 34.2146C155.7 34.2146 153.438 30.9659 153.438 26.9584C153.438 22.9509 155.7 19.7021 158.49 19.7021C161.279 19.7021 163.541 22.9509 163.541 26.9584C163.541 30.9659 161.279 34.2146 158.49 34.2146Z" fill="#F4F9FD"/>
<path d="M142.429 27.8279C143.19 30.8613 141.513 33.9766 138.682 34.786C135.851 35.5955 132.938 33.7926 132.177 30.7591C131.415 27.7257 133.092 24.6104 135.923 23.801C138.754 22.9915 141.667 24.7944 142.429 27.8279Z" fill="#E5AA4D"/>
<path d="M141.699 28.0363C142.353 30.6383 140.914 33.3104 138.486 34.0047C136.057 34.6991 133.559 33.1526 132.906 30.5506C132.252 27.9487 133.691 25.2765 136.12 24.5822C138.548 23.8879 141.046 25.4343 141.699 28.0363Z" fill="#D58508"/>
<path d="M141.086 28.2551C141.654 30.5158 140.404 32.8376 138.294 33.4408C136.184 34.0441 134.014 32.7004 133.446 30.4397C132.878 28.1789 134.128 25.8571 136.238 25.2539C138.348 24.6506 140.519 25.9943 141.086 28.2551Z" fill="#1C0E02"/>
<path d="M136.325 25.6579C136.478 26.2665 136.142 26.8916 135.574 27.054C135.006 27.2164 134.421 26.8546 134.268 26.246C134.116 25.6374 134.452 25.0124 135.02 24.85C135.588 24.6876 136.172 25.0493 136.325 25.6579Z" fill="#FEFEFE"/>
<path d="M160.59 26.7316C161.202 29.5864 159.853 32.5181 157.577 33.2798C155.301 34.0416 152.96 32.3449 152.347 29.4902C151.735 26.6355 153.083 23.7038 155.36 22.942C157.636 22.1802 159.977 23.8769 160.59 26.7316Z" fill="#E5AA4D"/>
<path d="M160.003 26.9278C160.528 29.3765 159.372 31.8912 157.419 32.5446C155.467 33.198 153.458 31.7427 152.933 29.294C152.408 26.8454 153.565 24.3307 155.517 23.6772C157.469 23.0238 159.478 24.4792 160.003 26.9278Z" fill="#D58508"/>
<path d="M159.511 27.1338C159.968 29.2614 158.963 31.4463 157.266 32.014C155.57 32.5818 153.825 31.3173 153.368 29.1897C152.912 27.0621 153.917 24.8772 155.613 24.3094C157.31 23.7417 159.055 25.0062 159.511 27.1338Z" fill="#1C0E02"/>
<path d="M155.683 24.6897C155.806 25.2624 155.535 25.8506 155.078 26.0034C154.622 26.1563 154.152 25.8158 154.029 25.2431C153.906 24.6704 154.177 24.0822 154.633 23.9293C155.09 23.7765 155.56 24.1169 155.683 24.6897Z" fill="#FEFEFE"/>
<path fill-rule="evenodd" clip-rule="evenodd" d="M124.546 26.6508C124.804 26.6642 125.037 26.7732 125.037 26.7732L134.124 29.9314C135.095 29.7234 147.276 29.5154 147.276 29.5154C147.835 28.8912 149.678 28.3708 149.678 28.3708C152.59 27.6426 153.998 29.0731 153.998 29.0731L164.043 27.6947C163.792 31.4483 161.79 33.3937 161.79 33.3937C157.397 37.1821 154.57 31.8254 154.57 31.8254C154.152 30.509 153.691 30.3041 153.691 30.3041C151.117 28.0237 148.338 31.5547 148.338 31.5547C146.279 34.1293 143.465 35.7109 143.465 35.7109C141.028 37.0718 138.386 36.2258 138.386 36.2258C133.342 35.2328 130.219 31.0213 130.219 31.0213C129.67 30.1938 130.528 30.157 130.528 30.157L132.158 30.0834L126.496 27.9318C125.689 27.4904 125.277 27.8398 125.277 27.8398C124.917 28.0237 125.294 28.2812 125.294 28.2812C125.483 28.4835 125.432 28.6674 125.432 28.6674C125.449 29.4582 124.746 29.0536 124.746 29.0536C123.87 28.4835 123.87 27.5088 123.87 27.5088C123.841 26.7743 124.214 26.6335 124.546 26.6508ZM162.757 28.5519C162.735 28.5503 162.711 28.5504 162.684 28.5533C162.684 28.5533 156.934 29.2554 155.041 29.6456C155.041 29.6456 154.489 29.624 154.592 30.093C154.592 30.093 155.138 32.7925 158.535 33.8328C158.535 33.8328 160.307 34.2232 161.423 32.7147C161.423 32.7147 162.709 30.868 162.952 29.0214C162.952 29.0214 163.09 28.5758 162.757 28.5522V28.5519ZM146.694 30.3475C146.694 30.3475 135.265 30.3995 132.183 31.0237C132.183 31.0237 131.286 31.1018 132.572 32.2722C132.572 32.2722 134.998 35.055 139.705 35.7052C139.705 35.7052 141.671 35.7831 143.103 35.1069C143.103 35.1069 145.383 33.8846 146.791 31.4139C146.791 31.4139 147.519 30.3215 146.694 30.3475Z" fill="black"/>
<path fill-rule="evenodd" clip-rule="evenodd" d="M152.739 29.6038C152.739 29.6038 156.042 30.4101 155.143 36.4439C155.143 36.4439 154.871 38.3057 153.738 39.2987C153.738 39.2987 152.81 40.0711 152.639 38.9126C152.639 38.9126 152.003 36.2643 150.046 35.308C150.046 35.308 147.231 34.6724 147.815 32.1345C147.815 32.1345 149.335 28.4237 152.739 29.6038Z" fill="#EEA643"/>
<path fill-rule="evenodd" clip-rule="evenodd" d="M151.359 29.3723C151.797 29.3608 152.282 29.4318 152.813 29.6162C152.813 29.6162 156.116 30.4225 155.218 36.4563C155.218 36.4563 154.946 38.3181 153.812 39.3112C153.812 39.3112 153.66 39.4364 153.468 39.5103C154.315 33.6449 152.312 30.6428 151.137 29.3864C151.21 29.3796 151.283 29.3743 151.359 29.3722V29.3723Z" fill="#DC9331"/>
<path d="M151.854 34.7927C151.559 35.0525 150.896 34.7043 150.372 34.0152C149.848 33.326 149.663 32.5567 149.957 32.297C150.252 32.0372 150.916 32.3853 151.44 33.0745C151.963 33.7637 152.149 34.5329 151.854 34.7927Z" fill="#F9B85A"/>
<path fill-rule="evenodd" clip-rule="evenodd" d="M159.599 39.043C158.562 40.9581 157.099 42.9906 155.076 44.5911C155.076 44.5911 151.097 48.5597 145.657 46.271C145.657 46.271 142.682 45.2996 138.965 42.6561C150.854 47.0534 156.89 42.5565 159.599 39.043Z" fill="#D7AA4A"/>
<path fill-rule="evenodd" clip-rule="evenodd" d="M146.442 8.77973C149.123 8.75153 151.322 9.1521 152.447 9.40588C146.77 9.75967 138.726 11.0795 131.698 15.281C134.451 12.2891 137.754 10.711 137.754 10.711C140.674 9.26162 143.781 8.80775 146.442 8.77973Z" fill="#833B48"/>
<path d="M151.084 14.8636C150.576 15.0043 150.008 14.471 149.815 13.6723C149.622 12.8737 149.877 12.1123 150.385 11.9716C150.892 11.8309 151.46 12.3642 151.653 13.1628C151.846 13.9614 151.591 14.7229 151.084 14.8636Z" fill="#9D5260"/>
<path d="M148.051 13.8014C147.645 13.9023 147.191 13.5197 147.037 12.9468C146.883 12.3739 147.087 11.8276 147.492 11.7267C147.898 11.6258 148.352 12.0084 148.506 12.5813C148.66 13.1542 148.456 13.7005 148.051 13.8014Z" fill="#9D5260"/>
<path d="M152.928 12.7438C152.523 12.8447 152.069 12.4621 151.915 11.8892C151.76 11.3163 151.964 10.77 152.37 10.6691C152.775 10.5682 153.229 10.9508 153.383 11.5237C153.538 12.0966 153.334 12.6428 152.928 12.7438Z" fill="#9D5260"/>
<path d="M132.555 47.6631C131.696 47.6631 131 46.0329 131 44.022C131 42.011 131.696 40.3809 132.555 40.3809C133.413 40.3809 134.109 42.011 134.109 44.022C134.109 46.0329 133.413 47.6631 132.555 47.6631Z" fill="#FFE6A3"/>
<path d="M136.831 50.1809C136.033 50.1809 135.386 49.1291 135.386 47.8317C135.386 46.5342 136.033 45.4824 136.831 45.4824C137.629 45.4824 138.276 46.5342 138.276 47.8317C138.276 49.1291 137.629 50.1809 136.831 50.1809Z" fill="#FFE6A3"/>
<path d="M141.104 52.3739C140.553 52.3739 140.107 51.6481 140.107 50.7529C140.107 49.8576 140.553 49.1318 141.104 49.1318C141.655 49.1318 142.101 49.8576 142.101 50.7529C142.101 51.6481 141.655 52.3739 141.104 52.3739Z" fill="#FFE6A3"/>
<path d="M156.467 52.0438C155.916 52.0438 155.47 51.3181 155.47 50.4228C155.47 49.5275 155.916 48.8018 156.467 48.8018C157.017 48.8018 157.464 49.5275 157.464 50.4228C157.464 51.3181 157.017 52.0438 156.467 52.0438Z" fill="#FFE6A3"/>
<path d="M158.391 48.8436C157.84 48.8436 157.394 48.1179 157.394 47.2226C157.394 46.3273 157.84 45.6016 158.391 45.6016C158.941 45.6016 159.388 46.3273 159.388 47.2226C159.388 48.1179 158.941 48.8436 158.391 48.8436Z" fill="#FFE6A3"/>
<path fill-rule="evenodd" clip-rule="evenodd" d="M161.431 53.4834C162.139 55.9117 162.632 58.8903 162.265 62.0074C162.265 62.0074 161.74 66.7015 159.146 70.9965C158.588 69.1632 159.242 67.598 159.242 67.598C160.204 63.2579 158.556 57.7408 158.556 57.7408C159.169 55.4787 160.356 54.2127 161.431 53.4834Z" fill="#964857"/>
<path fill-rule="evenodd" clip-rule="evenodd" d="M128.594 47.9531C136.552 55.3052 145.687 57.4532 145.687 57.4532C152.716 59.0653 156.862 56.1076 158.954 53.7343C158.234 55.3129 157.641 56.3866 157.641 56.3866C155.386 61.0577 148.475 59.4365 148.475 59.4365C138.041 57.1478 131.352 51.0898 131.352 51.0898C130.141 50.1906 129.251 49.0985 128.594 47.9531Z" fill="#D3AB5A"/>
<path d="M140.267 67.6132C139.508 67.6132 138.893 66.4852 138.893 65.0937C138.893 63.7022 139.508 62.5742 140.267 62.5742C141.026 62.5742 141.641 63.7022 141.641 65.0937C141.641 66.4852 141.026 67.6132 140.267 67.6132Z" fill="#9C515F"/>
<path d="M140.999 70.1627C140.601 69.6207 140.905 68.5174 141.677 67.6985C142.449 66.8796 143.397 66.6552 143.795 67.1973C144.192 67.7393 143.889 68.8425 143.117 69.6614C142.345 70.4803 141.397 70.7048 140.999 70.1627Z" fill="#9C515F"/>
<path d="M137.365 64.2108C136.73 64.2108 136.214 63.5707 136.214 62.7812C136.214 61.9916 136.73 61.3516 137.365 61.3516C138 61.3516 138.516 61.9916 138.516 62.7812C138.516 63.5707 138 64.2108 137.365 64.2108Z" fill="#9C515F"/>
<path d="M130.843 75.7969C130.285 76.3585 128.942 75.8757 127.843 74.7185C126.744 73.5612 126.307 72.1679 126.865 71.6062C127.424 71.0446 128.767 71.5275 129.866 72.6847C130.964 73.8419 131.402 75.2353 130.843 75.7969Z" fill="#964857"/>
<path d="M128.654 81.8568C128.443 82.4811 127.478 82.5801 126.498 82.0778C125.518 81.5754 124.895 80.6621 125.106 80.0377C125.317 79.4134 126.282 79.3144 127.262 79.8167C128.241 80.3191 128.865 81.2324 128.654 81.8568Z" fill="#964857"/>
<path d="M150.115 83.9444C149.247 83.718 148.632 83.1964 148.741 82.7794C148.851 82.3625 149.643 82.2081 150.512 82.4346C151.38 82.6611 151.995 83.1827 151.886 83.5996C151.776 84.0166 150.983 84.1709 150.115 83.9444Z" fill="#EEA643"/>
<path d="M147.101 85.4708C146.233 85.2443 145.617 84.7227 145.727 84.3058C145.837 83.8889 146.629 83.7345 147.498 83.961C148.366 84.1875 148.981 84.7091 148.872 85.126C148.762 85.5429 147.969 85.6973 147.101 85.4708Z" fill="#EEA643"/>
<path fill-rule="evenodd" clip-rule="evenodd" d="M115.545 71.3937C116.25 72.4527 115.709 74.2812 115.709 74.2812C115.829 76.193 117.105 79.3816 117.105 79.3816C119.463 86.5329 114.602 86.7925 114.602 86.7925C111.979 86.6509 109.211 84.4559 109.211 84.4559C106.275 81.9777 109.355 78.5791 109.355 78.5791C111.642 75.9593 111.786 72.2775 111.786 72.2775C111.786 72.2775 112.036 71.1259 112.921 70.7254C114.47 69.9911 115.545 71.3937 115.545 71.3937Z" fill="#2D97AD"/>
<path fill-rule="evenodd" clip-rule="evenodd" d="M116.076 71.0951C116.782 72.1895 116.241 74.0791 116.241 74.0791C116.361 76.0548 117.637 79.3501 117.637 79.3501C119.995 86.7406 115.134 87.0089 115.134 87.0089C112.51 86.8625 109.743 84.5942 109.743 84.5942C106.807 82.0331 109.887 78.5208 109.887 78.5208C112.174 75.8134 111.74 72.032 111.74 72.032C111.74 72.032 112.568 70.8183 113.453 70.4044C115.001 69.6455 116.076 71.0951 116.076 71.0951Z" fill="#0D6E83"/>
<path fill-rule="evenodd" clip-rule="evenodd" d="M113.87 72.3024C113.938 74.9392 111.998 77.6428 111.998 77.6428C111.147 78.9112 110.875 79.6121 110.875 79.6121C109.667 82.3491 111.385 85.1695 111.385 85.1695C112.951 87.6395 115.912 87.5894 115.912 87.5894C119.758 87.8731 121.8 86.0206 121.8 86.0206C121.8 86.0206 124.574 84.2683 123.264 79.2783C123.264 79.2783 122.175 75.6402 122.141 74.5053C122.141 74.5053 122.311 71.6849 119.945 70.2997C114.67 68.1802 113.87 72.3024 113.87 72.3024Z" fill="#E8E8E8"/>
<path fill-rule="evenodd" clip-rule="evenodd" d="M117.24 69.7188C117.973 69.7211 118.86 69.8941 119.931 70.3246C122.297 71.7098 122.127 74.5303 122.127 74.5303C122.139 74.9487 122.295 75.7078 122.487 76.499C121.68 76.6345 120.257 76.6788 119.19 75.5347C119.19 75.5347 118.372 74.2721 117.145 74.8622C117.145 74.8622 116.483 75.4758 115.051 75.3224C115.051 75.3224 114.305 75.3696 114.016 75.7944C114.016 75.7944 113.674 76.6105 112.951 75.9754C113.426 74.9711 113.89 73.641 113.856 72.3273C113.856 72.3273 114.364 69.7097 117.24 69.7188Z" fill="#CFCFCF"/>
<path fill-rule="evenodd" clip-rule="evenodd" d="M123.397 81.7891C123.373 85.2382 121.723 86.1171 121.723 86.1171C121.723 86.1171 119.375 87.9195 115.835 87.6858C115.835 87.6858 112.933 87.6211 111.367 85.1512C111.367 85.1512 110.638 83.9923 110.489 82.5408C114.102 85.523 117.419 85.1413 117.419 85.1413C120.702 84.9336 122.612 82.8732 123.397 81.7891Z" fill="#CFCFCF"/>
<path fill-rule="evenodd" clip-rule="evenodd" d="M123.613 74.6769C125.11 75.7116 124.956 78.0785 124.956 78.0785C126.051 78.3145 126.316 80.1082 126.316 80.1082C127.35 79.7896 127.387 81.0877 127.387 81.0877C127.964 80.297 128.599 80.5013 128.599 80.5013C129.688 80.7683 129.331 82.7209 129.331 82.7209C128.888 85.6915 126.131 87.1935 126.131 87.1935C122.711 88.6455 119.767 86.0921 119.767 86.0921C117.606 83.9392 118.711 81.3591 118.711 81.3591C119 80.5094 120.01 78.4797 120.01 78.4797C121.141 75.9543 120.299 73.9718 120.299 73.9718C120.299 73.9718 119.801 72.9746 121.213 73.3584C122.711 73.9259 123.613 74.6769 123.613 74.6769Z" fill="#0C6E84"/>
<path fill-rule="evenodd" clip-rule="evenodd" d="M98.0548 70.1948C98.2474 73.2158 103.109 74.3487 103.109 74.3487C109.438 75.9772 113.957 73.2714 113.957 73.2714C115.114 72.6372 116.135 73.2714 116.135 73.2714C116.135 73.2714 123.316 76.2087 126.55 76.2754C126.55 76.2754 132.566 77.1101 134.419 72.7674C134.419 72.7674 134.642 74.0478 136.001 73.4754C136.001 73.4754 137.512 72.909 136.898 69.9942C136.898 69.9942 137.466 70.7514 138.36 70.3842C138.36 70.3842 140.045 69.6499 139.721 67.0298C139.721 67.0298 139.377 63.7988 138.125 62.6423C138.125 62.6423 139.355 62.8742 139.823 62.2317C139.823 62.2317 140.768 61.1803 139.908 59.7868C139.908 59.7868 138.51 57.5325 136.573 56.8599C136.573 56.8599 137.957 56.435 138.221 55.5795C138.221 55.5795 138.943 53.9923 136.308 54.1103C136.308 54.1103 137.288 52.0098 136.59 50.2241C136.59 50.2241 136.028 48.7387 134.497 47.9877C134.497 47.9877 133.272 47.3703 133.255 48.5719C133.255 48.5719 133.425 51.409 131.791 52.0598C131.791 52.0598 130.583 52.4437 129.153 51.7928C129.153 51.7928 126.549 50.6054 125.707 50.1098C125.707 50.1098 122.795 48.4341 121.52 48.8825C121.52 48.8825 120.051 49.1421 119.209 50.3222C119.209 50.3222 119.471 49.6066 118.858 49.2227C118.858 49.2227 118.007 48.8389 117.514 49.423C117.514 49.423 117.862 48.1129 116.824 47.8125C116.824 47.8125 115.437 47.3202 114.638 49.2895C114.638 49.2895 114.432 48.5167 113.59 48.6111C113.59 48.6111 112.795 48.5757 112.759 49.6142C112.759 49.6142 112.711 50.3576 112.771 50.7942C112.771 50.7942 110.851 48.5757 108.275 49.4725C108.275 49.4725 106.601 49.9815 105.186 51.2536C105.186 51.2536 103.559 52.7107 101.636 52.1767C101.636 52.1767 100.979 51.9153 101.147 51.0303C101.147 51.0303 101.352 50.1688 100.546 50.0508C100.546 50.0508 99.4988 49.744 98.7889 51.5613C98.7889 51.5613 98.2715 53.532 98.8009 54.7357C98.8009 54.7357 96.9238 55.1133 96.635 56.7891C96.635 56.7891 96.4184 58.2052 97.3329 58.7244C97.3329 58.7244 95.6964 60.3765 95.9371 62.3591C95.9371 62.3591 95.9371 63.3503 96.9238 63.846C96.9238 63.846 95.493 65.2941 95.9355 68.0478C95.9355 68.0478 96.2773 70.1556 98.0548 70.1948Z" fill="#17849B"/>
<path fill-rule="evenodd" clip-rule="evenodd" d="M114.843 69.9483C116.466 69.9529 117.557 71.4268 117.557 71.4268C117.659 71.6437 117.915 71.9607 117.915 71.9607C119.957 75.0649 124.688 75.9995 124.688 75.9995C124.688 75.9995 124.678 76.0363 124.675 76.0483C121.143 75.3257 116.179 73.2959 116.179 73.2959C116.179 73.2959 115.158 72.6617 114.001 73.2959C114.001 73.2959 111.827 74.5972 108.383 74.8516C110.312 74.4378 110.925 73.941 110.925 73.941C111.613 73.4872 111.754 72.8608 111.754 72.8608C111.941 71.3088 113.065 70.5422 113.065 70.5422C113.703 70.1083 114.303 69.9467 114.843 69.9483Z" fill="#0C6E84"/>
<path d="M132.314 63.8095C132.301 61.5503 131.475 59.3893 130.02 57.8011C128.564 56.2129 126.597 55.3272 124.55 55.3385C122.503 55.3498 120.544 56.2571 119.103 57.8614C117.662 59.4656 116.856 61.6355 116.863 63.8948C116.869 66.1541 117.688 68.3181 119.139 69.9117C120.59 71.5053 122.555 72.3982 124.601 72.3944C126.648 72.3907 128.61 71.4905 130.056 69.8916C131.502 68.2927 132.314 66.1257 132.314 63.8664" fill="#329CB2"/>
<path fill-rule="evenodd" clip-rule="evenodd" d="M115.15 74.0601C113.907 74.1893 113.444 75.3742 113.444 75.3742C113.282 75.5995 113.112 75.4493 113.112 75.4493C112.431 75.0321 112.159 74.1642 112.159 74.1642C111.802 72.8792 112.669 71.761 112.669 71.761C113.554 70.3425 115.12 70.6763 115.12 70.6763C115.12 70.6763 117 71.2103 117.46 72.6205C117.46 72.6205 117.819 73.6617 116.977 74.0122C116.977 74.0122 116.745 74.1225 116.022 74.0725C116.022 74.0725 115.517 74.0381 115.15 74.0601Z" fill="#E6AD4F"/>
<path fill-rule="evenodd" clip-rule="evenodd" d="M114.725 70.6407C114.784 70.6413 114.835 70.6436 114.883 70.6469C112.429 72.6983 113.277 75.4645 113.277 75.4645C113.277 75.4645 113.275 75.4874 113.275 75.4931C113.179 75.511 113.107 75.4478 113.107 75.4478C112.426 75.0306 112.154 74.1628 112.154 74.1628C111.797 72.8777 112.665 71.7596 112.665 71.7596C113.273 70.7843 114.203 70.6373 114.725 70.6407L114.725 70.6407Z" fill="#D38200"/>
<path d="M133.069 62.8328C133.055 60.2797 132.208 57.8376 130.714 56.0428C129.221 54.248 127.202 53.2471 125.102 53.2599C123.002 53.2727 120.992 54.298 119.513 56.1109C118.034 57.9238 117.207 60.376 117.214 62.9292C117.221 65.4824 118.062 67.9278 119.55 69.7287C121.039 71.5296 123.055 72.5386 125.155 72.5344C127.255 72.5301 129.268 71.5129 130.752 69.706C132.235 67.8991 133.069 65.4503 133.069 62.8971" fill="#0B5D71"/>
<path d="M132.882 63.1997C132.868 60.9404 132.043 58.7795 130.587 57.1912C129.131 55.603 127.164 54.7173 125.117 54.7286C123.071 54.7399 121.111 55.6473 119.67 57.2515C118.229 58.8557 117.423 61.0257 117.43 63.285C117.437 65.5443 118.256 67.7083 119.707 69.3018C121.157 70.8954 123.122 71.7883 125.169 71.7846C127.216 71.7808 129.177 70.8806 130.624 69.2817C132.07 67.6828 132.882 65.5159 132.882 63.2565" fill="#F4F4F4"/>
<path d="M115.095 63.6958C115.081 61.4365 114.256 59.2756 112.8 57.6873C111.344 56.0991 109.377 55.2134 107.33 55.2247C105.283 55.236 103.324 56.1434 101.883 57.7476C100.442 59.3518 99.6361 61.5218 99.6429 63.7811C99.6498 66.0404 100.469 68.2043 101.919 69.7979C103.37 71.3915 105.335 72.2844 107.382 72.2807C109.428 72.2769 111.39 71.3767 112.836 69.7778C114.283 68.1789 115.095 66.0119 115.095 63.7526" fill="#329CB2"/>
<path d="M114.778 62.7117C114.764 60.1586 113.917 57.7165 112.423 55.9217C110.93 54.1269 108.911 53.126 106.811 53.1388C104.711 53.1516 102.701 54.1769 101.222 55.9898C99.7431 57.8027 98.9165 60.2549 98.9235 62.8081C98.9305 65.3613 99.7705 67.8067 101.259 69.6076C102.748 71.4085 104.764 72.4175 106.864 72.4133C108.964 72.409 110.977 71.3918 112.461 69.5849C113.944 67.778 114.778 65.3292 114.778 62.776" fill="#0B5D71"/>
<path d="M114.513 63.0552C114.499 60.7959 113.674 58.6349 112.218 57.0467C110.762 55.4585 108.795 54.5728 106.748 54.5841C104.701 54.5954 102.742 55.5027 101.301 57.107C99.8597 58.7112 99.0541 60.8811 99.0609 63.1404C99.0677 65.3997 99.8865 67.5637 101.337 69.1573C102.788 70.7509 104.753 71.6438 106.8 71.64C108.846 71.6363 110.808 70.7361 112.254 69.1372C113.7 67.5383 114.513 65.3713 114.513 63.112" fill="#F4F4F4"/>
<path d="M103.56 60.6303C102.835 63.4917 104.433 66.4303 107.13 67.1938C109.827 67.9574 112.601 66.2567 113.327 63.3953C114.052 60.534 112.454 57.5954 109.757 56.8319C107.061 56.0683 104.286 57.7689 103.56 60.6303Z" fill="#E5AA4D"/>
<path d="M104.255 60.8267C103.632 63.2811 105.003 65.8017 107.316 66.4566C109.629 67.1115 112.009 65.6528 112.632 63.1984C113.254 60.7441 111.883 58.2235 109.57 57.5685C107.257 56.9136 104.877 58.3723 104.255 60.8267Z" fill="#D58508"/>
<path d="M104.838 61.0335C104.298 63.166 105.488 65.3561 107.498 65.9251C109.508 66.4942 111.576 65.2267 112.117 63.0942C112.658 60.9617 111.467 58.7716 109.457 58.2026C107.447 57.6335 105.379 58.901 104.838 61.0335Z" fill="#1C0E02"/>
<path d="M109.73 59.0771C109.557 59.7617 109.939 60.4648 110.584 60.6475C111.229 60.8302 111.893 60.4233 112.067 59.7387C112.241 59.054 111.858 58.3509 111.213 58.1682C110.568 57.9855 109.904 58.3925 109.73 59.0771Z" fill="#FEFEFE"/>
<path d="M121.689 60.2754C120.963 63.1367 122.561 66.0753 125.258 66.8388C127.955 67.6024 130.73 65.9017 131.455 63.0404C132.181 60.179 130.583 57.2404 127.886 56.4769C125.189 55.7133 122.414 57.414 121.689 60.2754Z" fill="#E5AA4D"/>
<path d="M122.383 60.4717C121.761 62.9261 123.132 65.4467 125.445 66.1016C127.758 66.7566 130.138 65.2978 130.761 62.8435C131.383 60.3891 130.012 57.8685 127.699 57.2135C125.386 56.5586 123.006 58.0174 122.383 60.4717Z" fill="#D58508"/>
<path d="M122.967 60.6785C122.426 62.8111 123.617 65.0011 125.627 65.5701C127.637 66.1392 129.705 64.8718 130.245 62.7392C130.786 60.6067 129.595 58.4166 127.585 57.8476C125.575 57.2785 123.508 58.546 122.967 60.6785Z" fill="#1C0E02"/>
<path d="M127.859 58.7221C127.685 59.4067 128.067 60.1099 128.713 60.2926C129.358 60.4752 130.022 60.0683 130.195 59.3837C130.369 58.6991 129.987 57.9959 129.341 57.8132C128.696 57.6306 128.032 58.0375 127.859 58.7221Z" fill="#FEFEFE"/>
<path fill-rule="evenodd" clip-rule="evenodd" d="M133.88 47.8292C134.189 47.8334 134.495 47.9877 134.495 47.9877C136.027 48.7387 136.588 50.224 136.588 50.224C137.286 52.0097 136.306 54.1102 136.306 54.1102C138.942 53.9922 138.22 55.5794 138.22 55.5794C137.955 56.435 136.571 56.8598 136.571 56.8598C138.508 57.5325 139.907 59.7868 139.907 59.7868C140.766 61.1803 139.821 62.2317 139.821 62.2317C139.353 62.8742 138.123 62.6422 138.123 62.6422C139.375 63.7987 139.719 67.0298 139.719 67.0298C140.043 69.6499 138.358 70.3842 138.358 70.3842C137.464 70.7514 136.896 69.9942 136.896 69.9942C137.51 72.909 135.999 73.4754 135.999 73.4754C134.64 74.0477 134.417 72.7674 134.417 72.7674C132.564 77.1101 126.548 76.2754 126.548 76.2754C126.541 76.2754 126.534 76.2748 126.527 76.2746C127.399 76.2634 132.239 76.0032 134.002 71.6358C134.002 71.6358 134.585 72.6257 135.404 72.3189C135.404 72.3189 136.607 72.0829 136.414 68.9439C136.414 68.9439 137.065 69.9001 137.779 69.4162C137.779 69.4162 138.868 68.9991 138.8 66.9129C138.8 66.9129 139.039 63.5251 134.716 60.0204C134.716 60.0204 136.146 60.7214 137.813 61.7894C137.813 61.7894 138.364 62.2528 138.833 62.123C138.833 62.123 139.904 62.0757 139.327 60.4472C139.327 60.4472 138.63 57.9843 133.457 56.015C133.457 56.015 136.583 56.8126 137.353 55.8213C137.353 55.8213 138.075 54.9952 137.209 54.6412C137.209 54.6412 136.896 54.4289 134.73 54.4289C134.73 54.4289 136.342 53.2016 136.294 51.2426C136.294 51.2426 136.294 49.1892 134.056 48.552C134.056 48.552 133.527 48.4811 134.008 49.496C134.008 49.496 134.706 52.3046 131.192 52.8003C131.192 52.8003 129.796 53.0363 127.486 51.7383C127.486 51.7383 124.357 49.7085 122.071 49.7085C122.071 49.7085 119.857 49.5905 118.317 51.9507C118.317 51.9507 118.79 50.9816 119.249 50.1472C119.232 50.2533 119.207 50.3221 119.207 50.3221C120.05 49.142 121.518 48.8824 121.518 48.8824C122.793 48.434 125.705 50.1098 125.705 50.1098C126.547 50.6054 129.152 51.7927 129.152 51.7927C130.581 52.4436 131.789 52.0598 131.789 52.0598C133.423 51.4089 133.253 48.5717 133.253 48.5717C133.261 47.9709 133.572 47.825 133.88 47.8292V47.8292Z" fill="#0C6E84"/>
<path fill-rule="evenodd" clip-rule="evenodd" d="M113.372 48.74C113.372 48.74 112.79 50.8337 114.162 52.6284C114.162 52.6284 113.203 52.1714 112.788 50.8934C112.788 50.8934 112.582 49.6511 112.901 49.0204C112.901 49.0204 113.088 48.6688 113.372 48.74Z" fill="#329CB2"/>
<path fill-rule="evenodd" clip-rule="evenodd" d="M109.43 49.248C111.405 49.2029 112.772 50.7823 112.772 50.7823C112.77 50.7697 112.769 50.7547 112.768 50.7416C113.014 51.1279 113.223 51.5314 113.362 51.9388C113.362 51.9388 111.172 49.2482 108.837 50.0271C108.837 50.0271 107.489 50.2867 105.54 51.9388C105.54 51.9388 103.705 53.8093 101.347 52.7C101.252 52.5724 100.456 52.1558 100.514 50.9965C100.514 50.9965 100.633 50.4625 100.174 50.7295C100.174 50.7295 98.5128 51.7029 99.4755 54.3935C99.4755 54.3935 99.7643 55.0542 100.631 54.6648C100.631 54.6648 100.565 55.102 99.7821 55.1354C99.7821 55.1354 98.4717 55.0519 97.8081 55.853C97.8081 55.853 96.9573 57.2381 97.6209 57.9891C97.6209 57.9891 98.676 58.6234 99.1695 57.6721C99.1695 57.6721 99.2546 58.3897 98.4718 58.7568C98.4718 58.7568 98.3443 58.8659 97.8751 58.8659C97.8751 58.8659 96.5147 59.8249 96.3956 62.1113C96.3956 62.1113 96.2085 63.0793 97.689 63.1126L98.0973 63.1294C98.0973 63.1294 97.2635 63.6133 96.6849 65.1153C96.6849 65.1153 95.6369 68.5898 97.7066 69.5457C97.7066 69.5457 98.7416 69.9705 99.0906 68.9792C99.0906 68.9792 99.1387 69.6991 98.7536 70.1239C98.7536 70.1239 98.1858 72.9793 105.467 74.7659C104.715 74.685 103.928 74.5473 103.109 74.3368C103.109 74.3368 98.2481 73.2039 98.0555 70.1829C96.278 70.1437 95.9362 68.0359 95.9362 68.0359C95.4937 65.2823 96.9245 63.834 96.9245 63.834C95.9377 63.3384 95.9377 62.3471 95.9377 62.3471C95.697 60.3646 97.3336 58.7124 97.3336 58.7124C96.4191 58.1932 96.6357 56.7771 96.6357 56.7771C96.9245 55.1014 98.8016 54.7239 98.8016 54.7239C98.2722 53.5202 98.7897 51.5494 98.7897 51.5494C99.4997 49.732 100.546 50.0388 100.546 50.0388C101.353 50.1568 101.148 51.0184 101.148 51.0184C100.98 51.9034 101.637 52.1648 101.637 52.1648C103.56 52.6988 105.186 51.2418 105.186 51.2418C106.602 49.9697 108.276 49.4606 108.276 49.4606C108.679 49.3205 109.065 49.2564 109.431 49.248H109.43Z" fill="#0C6E84"/>
<path fill-rule="evenodd" clip-rule="evenodd" d="M118.824 49.2222C118.824 49.2222 117.398 49.3815 116.856 51.724C116.856 51.724 116.88 50.8625 117.175 49.8359C117.175 49.8359 117.717 49.057 118.824 49.2222Z" fill="#329CB2"/>
<path fill-rule="evenodd" clip-rule="evenodd" d="M115.372 48.9395C114.458 50.1451 114.843 51.7315 114.843 51.7315C114.951 49.6248 116.979 48.2645 116.979 48.2645C116.979 48.2645 116.66 47.9749 116.359 48.0384C116.359 48.0384 115.938 48.0257 115.372 48.9395Z" fill="#329CB2"/>
<path fill-rule="evenodd" clip-rule="evenodd" d="M116.483 47.7575C116.694 47.7635 116.829 47.8115 116.829 47.8115C117.868 48.1119 117.519 49.4221 117.519 49.4221C118.012 48.838 118.863 49.2218 118.863 49.2218C118.87 49.2259 118.876 49.2301 118.882 49.2343C118.84 49.226 117.816 49.0322 117.121 50.038C117.121 50.038 117.506 48.9759 116.964 48.2797C116.964 48.2797 116.625 47.8616 116.064 48.3206C116.064 48.3206 114.846 49.3417 114.762 51.0883C114.762 51.0883 114.594 49.7549 114.088 49.2828C114.088 49.2828 113.398 48.577 112.904 49.0136C112.904 49.0136 112.93 48.973 112.929 48.9688C113.173 48.5911 113.595 48.6101 113.595 48.6101C114.437 48.5157 114.643 49.2885 114.643 49.2885C115.193 47.9346 116.02 47.7442 116.484 47.7575H116.483Z" fill="#0C6E84"/>
<path fill-rule="evenodd" clip-rule="evenodd" d="M118.281 52.2432C118.281 52.2432 116.404 53.8953 116.067 55.5946C116.115 53.022 118.281 52.2432 118.281 52.2432Z" fill="#329CB2"/>
<path fill-rule="evenodd" clip-rule="evenodd" d="M113.275 52.4795C113.275 52.4795 114.719 54.1316 115.128 55.6185C115.128 55.6185 114.936 52.9515 113.275 52.4795Z" fill="#329CB2"/>
<path fill-rule="evenodd" clip-rule="evenodd" d="M119.679 86.5645C119.679 86.5645 120.317 86.9066 120.615 87.5825C120.615 87.5825 120.879 88.0665 120.522 88.3335C120.522 88.3335 120.037 88.6089 119.611 88.0665C119.611 88.0665 119.739 88.5755 119.339 88.7173C119.339 88.7173 118.769 88.976 118.301 88.4253C118.301 88.4253 118.292 88.7006 118.08 88.734C118.08 88.734 117.637 88.9593 117.22 88.3919C117.22 88.3919 116.795 87.8412 117.016 87.2237C117.016 87.2237 117.144 86.9316 117.595 86.9733C117.595 86.9733 117.739 86.99 117.884 87.1569C117.884 87.1569 117.901 86.8732 118.165 86.7731C118.165 86.7731 118.548 86.6145 118.845 86.8565C118.845 86.8565 118.769 86.4977 119.05 86.4143C119.381 86.3141 119.679 86.5645 119.679 86.5645Z" fill="#E89C23"/>
<path fill-rule="evenodd" clip-rule="evenodd" d="M114.386 86.9572C114.386 86.9572 114.693 87.4829 114.395 88.2089C114.395 88.2089 114.225 88.526 113.905 88.5427C113.905 88.5427 113.433 88.6845 113.237 88.2756C113.237 88.2756 113.178 88.0253 113.203 87.8584C113.203 87.8584 113.042 88.1922 112.642 88.2005C112.642 88.2005 112.012 88.2756 111.936 87.6915C111.936 87.6915 111.893 87.4412 111.987 87.2576C111.987 87.2576 111.706 87.5163 111.451 87.4996C111.451 87.4996 110.974 87.4996 111.212 86.8404C111.212 86.8404 111.425 86.2479 112.174 86.0393C112.174 86.0393 112.64 85.9133 112.76 86.35C112.76 86.35 112.79 86.4857 112.778 86.5565C112.778 86.5565 112.929 86.3677 113.175 86.3795C113.175 86.3795 113.681 86.4149 113.645 86.8987C113.645 86.8987 113.777 86.704 114.054 86.7099C114.246 86.7099 114.386 86.9572 114.386 86.9572Z" fill="#E89C23"/>
<path fill-rule="evenodd" clip-rule="evenodd" d="M121.608 76.1865C120.91 76.2282 120.97 76.653 120.97 76.653C120.849 77.8803 119.55 80.2168 119.55 80.2168C118.419 82.8366 119.256 84.6682 119.256 84.6682C120.107 86.9713 123.034 87.2383 123.034 87.2383C128.173 87.6388 128.718 82.3651 128.718 82.3651C128.719 82.282 128.875 81.5739 128.562 81.3261C128.562 81.3261 128.057 80.8777 127.455 81.5031C127.455 81.5031 127.167 81.7746 127.119 81.8808C127.119 81.8808 127.288 81.297 126.973 80.7129C126.973 80.7129 126.709 80.2456 126.046 80.5627C126.046 80.5627 125.901 78.4349 124.599 78.3514C124.599 78.3514 124.82 77.0542 124.194 76.948C124.194 76.948 123.629 76.948 123.051 76.8005C123.051 76.8005 122.456 76.7179 121.98 76.3344C121.98 76.3344 121.849 76.2039 121.608 76.1865Z" fill="#17849B"/>
<path fill-rule="evenodd" clip-rule="evenodd" d="M125.086 84.4491C125.086 84.4491 123.348 85.7249 121.88 84.2144C123.541 86.3828 125.086 84.4491 125.086 84.4491Z" fill="#0C6E84"/>
<path fill-rule="evenodd" clip-rule="evenodd" d="M122.839 83.4978C122.839 83.4978 121.359 82.8469 121.121 81.2114C120.967 83.3309 122.839 83.4978 122.839 83.4978Z" fill="#0C6E84"/>
<path fill-rule="evenodd" clip-rule="evenodd" d="M124.303 85.7341C124.303 85.7341 121.818 86.4684 120.593 84.1152C121.784 87.1025 124.303 85.7341 124.303 85.7341Z" fill="#2D97AD"/>
<path fill-rule="evenodd" clip-rule="evenodd" d="M126.311 86.502C126.311 86.502 125.46 87.1695 122.72 86.552C125.035 87.7202 126.311 86.502 126.311 86.502Z" fill="#2D97AD"/>
<path fill-rule="evenodd" clip-rule="evenodd" d="M127.153 81.3125C127.153 81.3125 127.201 82.7994 125.601 83.8025C125.601 83.8025 127.647 83.3304 127.153 81.3125Z" fill="#2D97AD"/>
<path fill-rule="evenodd" clip-rule="evenodd" d="M125.958 79.9941C125.958 79.9941 125.946 81.6699 124.851 82.3543C124.851 82.3543 126.536 81.7525 125.958 79.9941Z" fill="#2D97AD"/>
<path d="M119.104 88.3402C119.201 88.2841 119.255 88.1643 119.254 88.0072C119.253 87.8501 119.198 87.6686 119.1 87.5025C119.002 87.3364 118.869 87.1992 118.731 87.1211C118.593 87.043 118.461 87.0304 118.363 87.086C118.266 87.1416 118.212 87.2609 118.212 87.4177C118.212 87.5745 118.267 87.756 118.365 87.9224C118.463 88.0887 118.595 88.2263 118.733 88.3049C118.871 88.3835 119.003 88.3967 119.101 88.3416" fill="#F1BD6A"/>
<path d="M120.155 87.881C120.244 87.8196 120.284 87.7045 120.265 87.5611C120.246 87.4177 120.17 87.2576 120.054 87.116C119.938 86.9744 119.792 86.8629 119.647 86.8059C119.502 86.7489 119.37 86.7511 119.281 86.8121C119.192 86.873 119.152 86.9876 119.17 87.1309C119.189 87.2741 119.264 87.4342 119.38 87.576C119.495 87.7178 119.642 87.8297 119.787 87.8872C119.932 87.9447 120.063 87.943 120.153 87.8825" fill="#F1BD6A"/>
<path d="M117.863 88.4621C117.955 88.4352 118.025 88.3469 118.058 88.2165C118.09 88.0862 118.082 87.9244 118.036 87.7668C117.99 87.6091 117.909 87.4685 117.811 87.3758C117.713 87.2831 117.606 87.2458 117.514 87.2722C117.421 87.2985 117.351 87.3864 117.318 87.5165C117.285 87.6465 117.293 87.8082 117.338 87.9659C117.384 88.1236 117.465 88.2645 117.563 88.3577C117.661 88.4509 117.768 88.4887 117.861 88.4628" fill="#F1BD6A"/>
<path d="M112.44 87.9638C112.336 87.9037 112.279 87.7757 112.279 87.6079C112.28 87.44 112.34 87.2461 112.444 87.0685C112.549 86.891 112.691 86.7444 112.838 86.6609C112.986 86.5775 113.127 86.564 113.231 86.6234C113.335 86.6829 113.393 86.8104 113.393 86.9779C113.393 87.1455 113.334 87.3395 113.23 87.5172C113.125 87.695 112.984 87.842 112.836 87.926C112.689 88.01 112.547 88.0241 112.443 87.9653" fill="#F1BD6A"/>
<path d="M113.737 88.326C113.629 88.3129 113.539 88.2295 113.487 88.0942C113.435 87.9589 113.425 87.7827 113.459 87.6043C113.493 87.4259 113.569 87.2599 113.669 87.1427C113.77 87.0255 113.887 86.9668 113.995 86.9793C114.103 86.9918 114.193 87.0747 114.246 87.2096C114.298 87.3445 114.308 87.5205 114.275 87.699C114.241 87.8774 114.165 88.0437 114.065 88.1613C113.965 88.279 113.847 88.3383 113.739 88.3264" fill="#F1BD6A"/>
<path d="M111.561 87.1734C111.489 87.1013 111.469 86.9825 111.507 86.8431C111.545 86.7038 111.637 86.5552 111.764 86.43C111.891 86.3048 112.041 86.2132 112.182 86.1754C112.323 86.1376 112.444 86.1566 112.517 86.2283C112.59 86.2999 112.61 86.4184 112.573 86.5576C112.535 86.6969 112.443 86.8455 112.317 86.9709C112.191 87.0964 112.04 87.1883 111.899 87.2266C111.758 87.2649 111.637 87.2464 111.563 87.1752" fill="#F1BD6A"/>
<path d="M123.594 65.1241C121.19 65.1329 119.216 65.7865 117.922 66.3741C118.479 67.9921 119.468 69.3849 120.759 70.3676C122.049 71.3502 123.58 71.8761 125.148 71.8755C126.484 71.8711 127.795 71.4847 128.955 70.7541C130.115 70.0235 131.083 68.9735 131.766 67.7066C128.789 65.745 125.981 65.1154 123.594 65.1241Z" fill="#1F6D80"/>
<path d="M105.622 64.5943C103.269 64.6139 101.162 65.1955 99.4529 65.9037C99.9511 67.6295 100.934 69.1353 102.26 70.2031C103.585 71.2709 105.184 71.8452 106.825 71.8427C108.283 71.8383 109.71 71.3788 110.941 70.5172C112.172 69.6556 113.157 68.4271 113.783 66.9736C110.917 65.1932 108.132 64.5733 105.622 64.5943Z" fill="#1F6D80"/>
<defs>
<linearGradient id="paint0_linear_3974_7975" x1="129.5" y1="0" x2="129.5" y2="97" gradientUnits="userSpaceOnUse">
<stop stop-opacity="0"/>
<stop offset="1"/>
</linearGradient>
</defs>
</svg>
