<svg width="82" height="53" viewBox="0 0 82 53" fill="none" xmlns="http://www.w3.org/2000/svg">
<path d="M52.3727 38.4227C52.3727 38.4227 49.4286 39.752 48.5349 43.7214C48.5349 43.7214 49.5521 42.2267 51.0545 42.5516C51.0545 42.5516 53.38 42.6042 58.2419 45.3735C58.2419 45.3735 62.4178 47.9928 67.6076 46.3382C67.6076 46.3382 75.3912 44.5981 75.5629 34.1897C75.5629 34.1897 75.7739 24.8416 67.5333 21.2294C67.5333 21.2294 59.0872 18.2506 56.5215 18.8074C56.5215 18.8074 58.8211 20.9088 59.0759 21.6656C59.0759 21.6656 58.6965 22.1791 57.531 21.5051C57.531 21.5051 49.5542 16.7185 47.7386 16.1776C47.7386 16.1776 43.5839 14.4771 40.9599 15.5749C40.9599 15.5749 44.5844 17.104 46.5359 18.9655C46.5359 18.9655 48.3819 20.4959 48.8097 21.1136C48.8097 21.1136 49.2623 21.4255 48.5335 21.44C48.5335 21.44 43.3976 21.5172 41.1384 20.7353C41.1384 20.7353 37.9776 20.1071 34.8202 18.2541C34.8202 18.2541 30.5477 15.3744 26.931 15.659C26.931 15.659 30.0412 16.6399 32.0456 18.667C32.0456 18.667 34.5293 21.2182 34.8695 21.6464C34.8695 21.6464 35.6276 22.3625 34.5945 22.2318C34.5945 22.2318 31.8154 21.6083 30.7622 20.8179C30.7622 20.8179 27.8652 19.0153 26.4066 18.7851C26.4066 18.7851 25.6947 18.682 25.487 18.7972C25.487 18.7972 26.6099 19.6356 26.8277 19.8502C26.8277 19.8502 27.2544 20.2089 26.6393 20.3662C26.6393 20.3662 25.2425 20.3723 24.6249 20.0113C24.6249 20.0113 22.6791 19.4453 22.185 19.5569C22.185 19.5569 23.447 20.4912 23.6559 20.6351C23.6559 20.6351 24.004 20.875 23.346 21.1966C23.346 21.1966 19.4127 22.49 17.9721 22.4014C17.9721 22.4014 19.3105 22.9362 20.8802 22.791C20.8802 22.791 23.0216 22.3937 24.1859 22.8087C24.1859 22.8087 27.4198 24.2622 28.5269 25.4772C28.5269 25.4772 26.673 26.1371 26.389 26.6518C26.389 26.6518 29.6116 25.5143 33.1969 27.985C33.1969 27.985 29.624 30.3664 28.8751 31.7232C28.8751 31.7232 32.3749 30.5185 34.3029 30.943C34.3029 30.943 38.6888 31.9634 39.6724 32.7058C39.6724 32.7058 38.9481 33.7566 37.1797 34.0879C37.1797 34.0879 41.8541 35.6301 45.3541 34.4254C45.3541 34.4254 44.3648 36.3915 39.5164 36.7315C39.5164 36.7315 40.6426 38.3472 46.3108 38.9596C46.3108 38.9596 48.7148 39.1309 50.0745 38.5825C50.0745 38.5825 52.0339 38.2537 52.373 38.4228L52.3727 38.4227Z" fill="#5F8DD3"/>
<path d="M22.2779 25.9471C22.2779 25.9471 21.2695 26.8506 20.1636 26.4537C20.1636 26.4537 18.4072 26.0654 17.7959 26.5574C17.9546 26.3928 19.6054 25.0644 20.8154 25.3959C20.8154 25.3959 22.2041 25.8962 22.2779 25.9471Z" fill="#5F8DD3"/>
<path d="M22.104 16.968C22.0063 17.0833 21.2012 18.1725 19.9674 18.0072C19.8571 18.0225 17.9952 17.3331 17.6514 17.2789C17.4918 17.2602 14.7835 16.6268 13.4179 17.1927C13.4179 17.1927 16.0451 14.7106 18.5414 15.9742C18.8058 16.1108 20.9226 17.5695 22.104 16.968Z" fill="#5F8DD3"/>
<path d="M12.0452 23.1881C11.8245 23.2186 10.7677 24.2713 9.43861 23.3554C9.43861 23.3554 7.24164 21.7958 5.91178 22.1123C5.91178 22.1123 7.56951 21.0171 9.51717 21.6742C9.51717 21.6742 11.6491 22.367 12.0452 23.1881Z" fill="#5F8DD3"/>
<path d="M9.34082 16.3925C9.17567 16.5071 8.46584 16.9312 7.13195 16.3317C7.13195 16.3317 6.40626 15.9229 5.72022 16.1808C5.72022 16.1808 7.50829 13.9881 9.34082 16.3925Z" fill="#5F8DD3"/>
<path d="M54.1125 41.5832C54.1125 41.5832 51.767 41.1542 50.9096 41.4767C50.9096 41.4767 52.846 39.5689 53.1732 38.607C53.1732 38.607 53.7654 36.5492 52.3117 36.5977C52.2807 36.5307 49.4296 36.8948 48.958 37.0722C48.958 37.0722 45.8622 37.6331 43.9742 36.5603C43.9742 36.5603 45.9543 36.2353 47.0754 34.4505C47.0754 34.4505 47.2273 34.0528 47.1706 33.7855C47.1706 33.7855 44.1028 33.6806 42.0924 32.7062C42.0924 32.7062 42.6608 32.2303 42.7887 31.9988C42.7887 31.9988 35.2348 30.1725 34.7425 29.8332C34.7425 29.8332 36.9991 29.5616 37.6827 28.7541C37.6827 28.7541 38.3313 28.3791 37.6175 27.8872C37.6175 27.8872 36.3159 27.0346 34.4779 27.3179C34.4779 27.3179 34.9651 26.6527 34.3217 26.3385C34.3217 26.3385 32.0687 24.9797 30.7235 24.8922C30.7235 24.8922 29.019 24.9769 27.5459 23.3805C27.5459 23.3805 29.5018 24.2763 30.0992 23.9776C30.0992 23.9776 30.5759 23.854 30.3575 23.5098C30.3575 23.5098 30.0526 23.2351 30.0997 23.1061C30.0997 23.1061 30.2329 22.7781 31.0189 22.9646C31.0189 22.9646 32.547 23.2427 32.8591 23.1994C32.8591 23.1994 33.3492 23.182 33.1955 22.7208C33.1955 22.7208 32.9686 22.4353 33.0506 22.3303C33.2673 22.286 33.6014 22.2901 34.1488 22.4736C34.1488 22.4736 37.4589 23.5277 37.8413 23.662C37.8413 23.662 38.6795 23.8844 38.9389 23.6757C38.9389 23.6757 38.9591 23.3344 38.7239 23.1077L34.1409 18.6579C34.1409 18.6579 40.1923 21.807 44.4583 22.3265L49.7002 22.9249C49.7002 22.9249 50.4925 23.1513 50.2186 22.2318C50.2186 22.2318 48.0002 18.5568 45.0038 16.5375C45.0038 16.5375 47.0681 17.2294 48.8824 18.2514C48.8824 18.2514 54.9761 21.4918 55.173 21.6274C55.173 21.6274 59.1819 23.6594 59.9608 23.6025C59.9608 23.6025 60.4093 23.7746 60.3768 23.3412L60.1731 22.5509C60.1731 22.5509 60.2202 22.4219 60.6631 22.5334C60.6631 22.5334 70.1462 23.5467 72.4498 29.558C72.4498 29.558 75.5798 35.0732 72.3399 40.2028C72.3399 40.2028 69.5081 45.4198 63.5452 44.8626C63.5452 44.8626 59.5692 44.3184 58.1072 43.3109C58.1072 43.3109 55.3615 41.6286 54.1125 41.5832Z" fill="#87AADE"/>
<path d="M49.1215 35.1755C51.5422 33.1904 56.9397 35.7227 56.9397 35.7227C56.9397 35.7227 52.5237 31.7204 47.9003 33.6946C47.9003 33.6946 48.992 32.2093 50.0147 31.7724C50.0147 31.7724 45.3063 29.7151 40.8959 29.8266C40.8959 29.8266 43.8701 28.1317 44.2377 28.0196C44.2377 28.0196 40.8133 26.3448 36.8013 26.4113C36.8013 26.4113 40.8918 24.6636 43.2174 24.7593C43.2174 24.7593 42.2257 23.8475 41.0157 23.516C41.0157 23.516 46.8577 22.473 51.6756 24.3318C51.6756 24.3318 49.6446 20.0096 48.475 19.1123C48.475 19.1123 55.1056 23.0422 59.1771 23.9757C59.312 23.9774 65.2518 25.6503 65.7377 25.9395C65.7377 25.9395 71.3456 27.4751 72.2436 33.6651C72.2436 33.6651 73.3251 38.292 68.6771 41.6649C68.6771 41.6649 65.2965 44.4041 60.3292 42.0771C60.1324 41.9414 57.3248 41.057 55.2955 38.5168C55.2955 38.5168 53.3661 34.9953 49.1215 35.1755Z" fill="#AFC6E9"/>
<path d="M70.4266 36.6534C70.4518 36.5487 70.4729 36.4465 70.4926 36.346C70.6497 35.5422 70.5395 35.0858 70.5395 35.0858C70.5184 34.9993 70.5008 34.9109 70.487 34.8211C69.9078 31.0593 66.5555 29.4894 65.6202 29.1206L65.6295 29.1077C65.6295 29.1077 65.4271 29.0414 65.1094 28.9344C65.0367 28.9036 64.966 28.8684 64.8973 28.8289C65.0354 28.9098 65.0362 28.9105 65.0236 28.905C65.017 28.9026 65.0058 28.8985 64.9988 28.8967C64.949 28.873 64.8834 28.8424 64.8164 28.8191C64.6352 28.7558 64.3697 28.6691 64.0597 28.572C64.0505 28.5695 64.0383 28.5656 64.0291 28.5628C64.0286 28.5626 64.028 28.5624 64.0274 28.5621C61.0976 27.5283 55.0075 25.2045 53.164 23.1559C53.164 23.1559 54.1055 25.7792 52.6249 26.0782C52.6249 26.0782 50.8122 26.251 48.0536 25.6592C48.0536 25.6592 44.5589 25.1073 42.347 25.9787C42.347 25.9787 49.3771 28.0221 51.4095 29.7188C51.4095 29.7188 52.7303 30.6202 52.7779 31.1633C52.7779 31.1633 51.5317 31.4313 51.1223 32.1716C51.1223 32.1716 56.2841 31.6669 58.0649 35.47C58.0649 35.47 58.6272 36.9351 59.2409 37.6197C59.6559 37.9333 59.9467 38.329 60.3276 38.5416C60.7567 38.7813 61.1382 38.958 61.4311 39.0853C61.5775 39.1489 61.7003 39.1994 61.8124 39.2463C61.8936 39.2804 61.9422 39.2824 62.1201 39.3839C62.3697 39.4977 62.6139 39.599 62.8491 39.6835C64.7264 40.3577 66.13 40.1775 67.057 39.9035C67.9841 39.6296 68.2165 39.4026 68.2165 39.4026C68.26 39.3683 68.3041 39.3354 68.3487 39.3038C69.8694 38.2286 70.2497 37.386 70.4264 36.6537L70.4266 36.6534Z" fill="#D7E3F4"/>
</svg>
