<svg width="97" height="97" viewBox="0 0 97 97" fill="none" xmlns="http://www.w3.org/2000/svg">
<path d="M48.0299 96.0601C74.5561 96.0601 96.06 74.5563 96.06 48.03C96.06 21.5038 74.5561 0 48.0299 0C21.5036 0 0 21.5038 0 48.03C0 74.5563 21.5036 96.0601 48.0299 96.0601Z" fill="#D45500"/>
<path d="M35.5493 94.4056C41.327 95.9528 47.3431 96.4056 53.2873 95.7405C53.4336 95.3839 53.5799 95.0182 53.7537 94.6799C54.2071 93.6753 54.5476 92.6235 54.7687 91.5437C54.7687 91.5437 55.9389 88.7458 57.1733 87.8864C57.7805 87.4652 58.294 86.9227 58.6812 86.2933C59.0683 85.6638 59.3208 84.961 59.4227 84.229C59.4227 84.229 59.6512 80.3797 59.5598 79.6573C59.5598 79.6573 58.9562 78.1487 58.3162 80.0322C58.3162 80.0322 56.9082 83.4061 55.491 84.7868C54.7905 85.6186 54.251 86.5736 53.9001 87.6029C53.9001 87.6029 53.7995 91.2603 50.4439 92.01C49.2583 92.1451 48.0941 92.4277 46.9785 92.8512C44.8129 93.5707 42.4632 93.506 40.3404 92.6683C40.3404 92.6683 35.3756 90.8397 33.4737 93.1895L32.6967 93.5187C33.611 93.857 34.5893 94.1587 35.5493 94.433V94.4056ZM27.5306 88.0783C29.0988 88.5165 30.7454 88.5978 32.3491 88.3161C32.3491 88.3161 36.6832 88.4989 37.6798 88.1423C37.6798 88.1423 42.7726 88.1972 44.0801 88.7184C44.0801 88.7184 45.8448 89.971 46.8231 87.6852C47.4048 86.8485 48.2521 86.233 49.2277 85.9388C49.6315 85.8077 49.9912 85.5675 50.2671 85.2448C50.543 84.9221 50.7244 84.5294 50.7912 84.1102C50.7912 84.1102 50.7913 83.1958 52.5194 80.7271C52.5194 80.7271 55.2623 77.3349 54.9332 74.5645C54.9332 74.5645 55.2807 72.6352 51.8337 73.5587C49.359 74.1974 46.7326 73.8396 44.519 72.5621C42.3951 71.3446 39.9703 70.7519 37.5242 70.8523C35.867 70.8297 34.2163 70.6429 32.596 70.2946C32.596 70.2946 26.8722 69.5174 25.4184 71.3186C25.4184 71.3186 22.9315 75.2685 26.2414 77.6732C26.2414 77.6732 29.8988 79.9133 33.3275 79.5019C33.3275 79.5019 27.8415 78.5875 28.4907 76.0274C28.4907 76.0274 28.774 71.218 32.9617 71.7575C32.9617 71.7575 43.0195 73.0284 47.0517 77.5452C47.0517 77.5452 51.3673 81.8609 45.6253 83.6804C45.6253 83.6804 39.1336 86.6977 30.1731 84.0461C30.1731 84.0461 22.0629 82.126 20.3074 75.8171C19.9253 73.709 20.198 71.5343 21.0889 69.5858C21.9798 67.6373 23.446 66.0084 25.2905 64.9183C25.4002 64.8177 33.6931 59.3042 42.3519 59.9351C42.3519 59.9351 54.156 60.5203 59.5415 67.4967C59.5415 67.4967 68.0082 74.5188 65.6858 82.2815C64.0667 86.5662 62.0496 90.6896 59.6604 94.5976C65.176 93.2282 70.4047 90.8909 75.1035 87.6943C74.5092 87.3377 74.1891 86.5148 74.6463 84.7868C74.6463 84.7868 76.1825 79.6482 78.1666 76.9783C78.1666 76.9783 80.9096 73.769 75.1584 71.5472C75.1584 71.5472 71.2084 71.2454 71.8758 66.5457C71.8758 66.5457 75.2588 57.3567 65.192 56.0035C65.192 56.0035 55.9023 55.1989 52.1444 55.0891C52.1444 55.0891 45.1223 55.2262 42.0867 52.8124C40.5277 51.9842 38.7072 51.7973 37.0123 52.2913C37.0123 52.2913 30.3559 54.2114 25.7385 52.2913C24.0495 51.5923 22.202 51.3668 20.3945 51.6391C18.5869 51.9113 16.8878 52.671 15.4797 53.8365C15.4797 53.8365 12.4988 56.4789 14.0075 59.6608C14.0075 59.6608 15.1413 62.6598 15.8362 63.2633C15.8362 63.2633 17.4547 65.7137 16.9244 67.6704C16.6388 68.3779 16.2994 69.0627 15.9094 69.7185C15.9094 69.7185 13.8978 73.4673 15.6076 74.0068C15.6076 74.0068 17.985 74.3907 18.4879 76.128C18.4879 76.128 18.8262 78.9441 20.0788 79.4562C20.9425 80.0631 21.6916 80.8185 22.2914 81.6871C22.2914 81.6871 25.6014 87.4109 26.7261 87.7492C27.0203 87.8863 27.3263 87.9964 27.6404 88.0783H27.5306ZM15.0408 82.9581C15.5289 82.6485 15.923 82.2115 16.1808 81.6942C16.4387 81.177 16.5502 80.5991 16.5036 80.023C16.3969 79.633 16.2625 79.251 16.1014 78.8801C15.8855 78.3953 15.7974 77.8634 15.8453 77.3349C15.8453 77.3349 16.1564 75.3965 13.962 75.5702C13.962 75.5702 12.3891 75.3142 11.4839 78.0573C11.4189 78.3865 11.3732 78.7193 11.3469 79.0538C12.4901 80.4243 13.7112 81.7279 15.0042 82.9581H15.0408ZM9.74678 76.9966C10.475 76.2835 11.0261 75.4099 11.356 74.4456C11.5373 73.2587 11.9044 72.1078 12.444 71.0352C12.444 71.0352 14.4921 67.6338 14.0441 65.5491C14.0441 65.5491 13.1298 61.1786 9.77423 59.0208C9.77423 59.0208 5.27569 56.68 1.76464 59.7339L1.55436 60.0997C2.00005 61.8267 2.54346 63.5271 3.18191 65.1925C3.42768 65.0718 3.64319 64.8973 3.81252 64.6821C3.98185 64.4669 4.10053 64.2164 4.16008 63.9491C4.16008 63.9491 4.43453 59.6517 7.27811 61.1237C7.27811 61.1237 10.9354 62.1569 11.5388 65.3023C11.5388 65.3023 11.6668 68.5664 9.47243 69.243C7.96829 69.6486 6.37788 69.6008 4.90075 69.1059C6.26146 71.8891 7.88741 74.5346 9.75593 77.0057L9.74678 76.9966ZM32.2759 66.884C32.2759 66.884 37.1861 67.899 37.945 68.1641C40.3222 69.0785 41.2273 67.9173 41.2273 67.9173C42.0225 67.3381 42.9537 66.9741 43.9308 66.8604C44.9079 66.7467 45.8979 66.8871 46.8048 67.2681C48.4232 67.4601 50.3432 69.4076 50.3432 69.4076C50.5444 69.5173 51.6692 70.2397 52.1172 69.2247C52.1172 69.2247 53.6075 67.3961 52.3092 66.7195C49.9723 65.3996 47.5248 64.2859 44.9945 63.3913C44.9945 63.3913 40.4684 61.4072 38.53 63.0896C38.53 63.0896 34.4977 65.6954 31.8187 65.9332C31.8187 65.9332 30.2735 66.1709 32.2851 66.8475L32.2759 66.884ZM83.7348 79.9956C84.5119 79.1453 85.2617 78.2676 85.9748 77.3715C83.9999 74.2262 85.8652 69.0145 85.8652 69.0145C86.603 66.8918 86.7836 64.6153 86.3898 62.4028C85.996 60.1904 85.0409 58.116 83.616 56.3783C80.4798 50.8283 69.6907 47.7653 69.2335 47.9024C65.417 46.9902 61.7127 45.6594 58.1883 43.9342C54.4578 42.7639 50.8736 35.7052 50.8736 35.7052C47.7831 32.185 48.3134 26.4338 48.3134 26.4338C49.6026 20.0335 52.5377 18.8266 52.5377 18.8266C55.3049 16.7092 58.7557 15.687 62.2296 15.9555C67.3681 15.9007 77.6362 19.6129 77.6362 19.6129C78.7136 19.8921 79.6668 20.5234 80.3444 21.4063C81.0219 22.2893 81.385 23.3734 81.3759 24.4863C81.1334 25.6826 81.2091 26.9217 81.5954 28.0796C81.9519 37.0858 76.1093 39.0517 76.1093 39.0517C72.2234 41.3466 67.5877 36.9853 67.5877 36.9853C66.5728 36.151 65.7429 35.1144 65.1509 33.9416C64.559 32.7688 64.2181 31.4855 64.1498 30.1735C64.0583 28.418 65.9236 27.7596 65.9784 27.6408C67.6517 25.9767 66.6916 24.6783 66.6916 24.6783C66.5979 24.2926 66.573 23.8932 66.6184 23.4988C66.7464 22.2553 68.9775 22.8222 68.9775 22.8222C72.3971 23.3525 73.4851 24.7423 73.4851 24.7423C74.692 25.8944 73.3206 28.3997 73.3206 28.3997C72.8965 29.5707 72.226 30.637 71.3546 31.5267C71.2468 31.6679 71.1048 31.7793 70.9419 31.8501C70.779 31.921 70.6008 31.9491 70.424 31.9317C70.2472 31.9143 70.0777 31.852 69.9318 31.7507C69.7858 31.6494 69.6682 31.5125 69.59 31.353C69.4158 30.9431 69.2811 30.5175 69.1878 30.082C69.0506 29.4877 68.4196 29.826 68.4196 29.826C68.2018 29.9052 68.0046 30.032 67.8421 30.1973C67.6797 30.3626 67.5563 30.5621 67.481 30.7812C67.4056 31.0004 67.38 31.2336 67.4064 31.4638C67.4328 31.694 67.5104 31.9155 67.6334 32.1119C67.9169 33.9406 69.2793 33.5016 69.2793 33.5016C69.5999 33.264 69.981 33.1217 70.3789 33.091C70.7768 33.0603 71.1752 33.1424 71.5285 33.3279C72.1959 33.373 72.8643 33.2552 73.4759 32.9844C74.0876 32.7136 74.6241 32.298 75.0394 31.7736C75.5597 31.0675 76.1751 30.4367 76.8681 29.8991C78.9619 28.0705 78.8979 24.788 78.8979 24.788C78.8156 20.4267 68.8402 20.2164 68.8402 20.2164C67.1294 20.1466 65.4235 19.9879 63.7292 19.7409C61.2331 19.302 60.8672 23.316 60.8672 23.316C60.5678 24.8015 60.1206 26.2534 59.5323 27.6499C58.9778 28.8202 58.4953 30.0233 58.0876 31.2524C56.0121 40.5695 62.0559 43.3125 62.0559 43.3125L70.1204 46.0555C76.8865 48.1036 79.0077 47.0704 79.0077 47.0704C84.2834 45.8086 87.0997 37.927 87.0997 37.927C88.8571 33.2284 89.5077 28.188 89.0013 23.1971C84.7321 16.1258 78.7149 10.2722 71.5285 6.19958C66.9568 9.50033 58.8649 11.5119 58.8649 11.5119C53.5617 14.0446 50.4164 13.4686 50.4164 13.4686C45.991 12.4536 42.6995 18.534 42.6995 18.534C40.8068 21.597 39.0421 21.9353 39.0421 21.9353C37.3872 21.8347 35.275 27.2293 35.275 27.2293C34.8784 29.0092 34.2994 30.7434 33.547 32.4045C31.6543 39.4723 36.1893 45.1412 36.1893 45.1412C39.8466 49.2282 45.7807 47.9664 45.7807 47.9664C47.8555 47.7834 49.9461 47.9191 51.9799 48.3687C58.7194 49.5869 65.2439 51.7865 71.3455 54.8971C73.3357 55.9412 75.4019 56.8337 77.5264 57.567C83.2318 59.1762 80.4888 64.4153 80.4888 64.4153C80.087 65.7946 79.9895 67.2447 80.2026 68.6654C80.4157 70.0861 80.9345 71.4436 81.7233 72.6443C82.8527 74.1324 83.4602 75.9514 83.4515 77.8195C83.4718 78.5201 83.5298 79.219 83.6252 79.9133L83.7348 79.9956ZM18.9267 62.2118C18.5528 62.138 18.2009 61.9792 17.8981 61.7478C17.5953 61.5163 17.3496 61.2183 17.1802 60.8769C17.1802 60.8769 15.7631 57.0458 17.9575 56.6252C17.9575 56.6252 22.447 54.9703 26.2597 56.2869C27.0826 56.0949 28.7009 57.3658 28.7009 57.3658C29.6504 57.9236 30.7485 58.1757 31.8462 58.0881C30.0158 58.9894 28.0768 59.6502 26.0769 60.054C26.0769 60.054 22.9407 60.4563 21.8709 61.5444C20.9881 62.0808 19.9546 62.3151 18.9267 62.2118ZM0.640026 55.6286C1.81401 55.7419 2.99886 55.6176 4.1237 55.2629C4.1237 55.2629 9.53645 54.5223 12.0052 51.6055C12.7522 50.6153 13.3813 49.5413 13.8796 48.4054C14.2844 47.6337 14.8624 46.9663 15.5683 46.4555C16.2742 45.9447 17.0888 45.6044 17.9483 45.4612C17.9483 45.4612 23.5715 42.3433 24.7784 39.7192C25.3432 38.6289 25.7437 37.4612 25.9671 36.2538C25.9671 36.2538 26.1409 33.6937 28.1159 32.5965C28.1159 32.5965 29.7159 28.8203 28.2712 26.6624C28.2712 26.6624 25.5281 22.2553 27.5123 17.5191C27.5123 17.5191 29.7799 12.5908 28.0152 10.2775C26.8068 8.61185 25.008 7.47044 22.9863 7.08651C20.5742 8.55092 18.2976 10.2277 16.1837 12.0971C16.5548 12.8437 17.1448 13.4594 17.8751 13.8617C18.1969 14.6113 18.344 15.4242 18.3051 16.239C18.3051 16.239 18.6982 20.5638 19.9051 21.3684C20.2544 21.8751 20.4941 22.449 20.609 23.0536C20.7239 23.6581 20.7116 24.28 20.5726 24.8795C20.4668 26.577 20.568 28.281 20.8742 29.954C20.8742 29.954 22.191 33.2822 17.8296 36.2172C16.772 37.1571 15.7989 38.1882 14.9218 39.2985C14.9218 39.2985 12.7914 41.7033 10.5787 41.7673C9.4925 41.8816 8.4443 42.231 7.5067 42.7913C7.5067 42.7913 5.15685 44.236 3.84935 42.0416C3.07184 40.7728 2.08221 39.647 0.923523 38.7134C-0.156215 44.2871 -0.236718 50.0084 0.685787 55.6103L0.640026 55.6286ZM18.8169 48.643L21.3863 48.3779C23.6852 47.9224 26.0629 48.0673 28.2895 48.7985C30.1927 49.3538 32.1981 49.4632 34.1503 49.1185C31.4073 47.7379 31.8096 45.6349 31.8096 45.6349C31.9902 44.5197 31.7206 43.3785 31.06 42.4622C29.3136 41.2187 30.5754 36.7384 30.5754 36.7384C27.6495 41.429 18.8169 48.6248 18.8169 48.6248V48.643ZM92.9056 64.9548C93.4709 63.4569 93.9593 61.931 94.3686 60.3831L94.4782 59.9077C93.3719 59.3773 91.7354 58.3533 91.4519 56.863C91.3013 56.2627 91.3013 55.6345 91.4519 55.0343C91.5485 54.4998 91.4762 53.9485 91.2452 53.4569C91.0142 52.9654 90.6357 52.558 90.1626 52.2913C90.1626 52.2913 87.7304 50.2706 90.1626 46.5218C90.1626 46.5218 92.3388 43.4222 95.7676 43.3765C95.6032 41.6209 95.3467 39.8752 94.9994 38.1465C92.1221 39.7732 89.7686 42.187 88.2151 45.1046C88.2151 45.1046 85.1337 49.5117 86.9258 53.9188C87.634 55.8668 88.1934 57.8658 88.5991 59.8985C89.3523 62.0401 90.8919 63.8151 92.9056 64.8634V64.9548ZM7.18659 38.6951C7.77766 38.7574 8.37083 38.5976 8.85074 38.247C8.85074 38.247 13.5595 35.4309 14.2635 35.1566C15.3803 34.7413 16.3242 33.9608 16.9416 32.9417C17.559 31.9226 17.8138 30.7248 17.6648 29.5426C17.4087 28.304 17.076 27.0826 16.6684 25.8853C16.6684 25.8853 15.8545 23.444 16.1288 22.2279C16.1288 22.2279 16.7964 19.9238 14.8671 18.9454C13.6165 18.206 12.211 17.7678 10.7618 17.6654C10.0943 18.4974 9.4542 19.3569 8.84159 20.2347C9.01517 20.3539 9.19881 20.4579 9.39028 20.5455C9.58229 20.6004 11.2189 20.957 12.0418 21.1764C12.0418 21.1764 13.715 21.4964 13.4316 22.8954C13.6667 24.3795 14.0026 25.8458 14.4372 27.2842C14.6047 27.9158 14.5667 28.5843 14.3283 29.1927C14.0899 29.8011 13.6635 30.3176 13.1115 30.6672C11.6628 31.6002 10.3255 32.6953 9.12509 33.9314C9.12509 33.9314 7.69866 35.9521 7.46094 34.16C7.71635 32.9964 7.86629 31.8121 7.90895 30.6215C7.90895 30.6215 7.58899 28.6831 8.42103 28.2351C8.81461 27.8794 9.30087 27.6425 9.82357 27.5519C10.3463 27.4612 10.884 27.5206 11.3743 27.7231C11.3743 27.7231 10.4142 25.4921 8.80498 26.0224C8.80498 26.0224 6.61972 26.3241 6.06197 29.2774C6.02249 30.443 5.87869 31.6028 5.63226 32.7428C5.31407 33.5629 5.22245 34.4535 5.36707 35.3212L5.95237 37.5339C6.053 37.8141 6.22045 38.0656 6.44034 38.2663C6.66024 38.4671 6.92583 38.6112 7.21405 38.686L7.18659 38.6951ZM95.4749 54.6777C95.8694 51.8983 96.0223 49.0899 95.9321 46.2841C95.4551 46.2608 94.98 46.3603 94.5525 46.5733C94.1251 46.7862 93.7596 47.1053 93.4909 47.5001C93.4909 47.5001 92.2107 51.9804 95.4749 54.6777ZM30.0084 23.8737C30.301 23.9469 30.5937 23.636 30.5937 23.636C31.2506 22.9276 32.1327 22.4688 33.0898 22.3376C34.6787 21.9301 36.0912 21.0152 37.1128 19.7317C37.9448 18.406 40.5873 17.2082 40.5873 17.2082C43.3303 15.0412 39.4627 14.2915 39.4627 14.2915C37.591 14.0085 35.8068 13.3085 34.2419 12.2433C33.1642 11.589 32.126 10.8715 31.133 10.0947C29.8712 9.7015 30.4472 11.1004 30.4472 11.1004C30.9471 11.9397 31.1652 12.917 31.0691 13.8892C31.0808 14.8248 30.834 15.7455 30.3559 16.5499C29.8183 17.2088 29.4621 17.9968 29.3226 18.8357C28.9295 20.0975 29.5329 23.1697 29.5329 23.1697C29.6426 23.6451 29.8255 23.8371 30.0084 23.8737ZM39.1517 8.60429C40.3221 8.88773 41.3371 9.0249 41.3371 9.0249C43.3867 9.22973 45.4166 9.59662 47.4082 10.1221C48.6105 10.5442 49.9059 10.6276 51.1524 10.3631C52.3989 10.0987 53.5487 9.49655 54.476 8.62259C57.1276 6.48305 58.993 6.62019 58.993 6.62019C63.3544 6.12645 62.9794 3.292 62.9794 3.292V2.37766C62.129 2.07593 61.2787 1.80166 60.4192 1.54564C59.322 1.25305 58.2158 0.997025 57.1094 0.786727C57.3297 1.59865 57.288 2.4594 56.9904 3.24629C56.9396 3.45226 56.8478 3.64586 56.7206 3.81563C56.5933 3.9854 56.4334 4.12788 56.25 4.23452C56.0666 4.34115 55.8636 4.40979 55.6531 4.43637C55.4426 4.46295 55.2289 4.44691 55.0247 4.38921C55.0247 4.38921 52.8485 4.51723 52.1536 5.99845C52.1536 5.99845 51.3125 7.82712 48.3683 7.47967C47.1214 7.15395 45.8117 7.15395 44.5648 7.47967C43.3653 7.84392 42.09 7.88085 40.8715 7.58665C39.6529 7.29246 38.5352 6.67783 37.634 5.80642C37.634 5.80642 35.0007 4.71835 36.4362 1.39016C34.8081 1.79159 33.2026 2.27997 31.6268 2.85314C31.5262 3.09086 31.4258 3.31943 31.3343 3.57544C31.7732 7.23278 33.044 6.06246 33.044 6.06246C34.2853 6.41205 35.4662 6.94849 36.546 7.6534C37.0018 7.8958 37.4792 8.09475 37.9722 8.24768C38.3654 8.36655 38.7769 8.48545 39.17 8.57689L39.1517 8.60429ZM45.1407 4.51723C46.6493 4.87382 48.3683 5.08412 49.2735 4.51723C49.2735 4.51723 51.4679 4.33435 51.285 2.56054C51.285 2.56054 51.8612 1.64619 50.0508 0.082671C46.76 -0.0612453 43.4631 0.134865 40.2125 0.667859C40.4896 1.26072 40.6361 1.90616 40.6422 2.56054C40.6422 2.56054 40.6421 3.4017 42.3702 3.676C43.2634 4.04095 44.1797 4.3464 45.1132 4.59034L45.1407 4.51723Z" fill="#FF9955"/>
<path d="M14.3275 13.8979C9.08396 19.0742 5.10247 25.3881 2.69133 32.3505C0.280176 39.3129 -0.495825 46.7368 0.423344 54.0474C1.34251 61.3579 3.93219 68.3587 7.99184 74.5075C12.0515 80.6562 17.4721 85.788 23.8338 89.5052C30.1955 93.2223 37.3275 95.4251 44.6773 95.9429C52.0272 96.4608 59.3975 95.2797 66.2176 92.4913C73.0376 89.7028 79.1241 85.3818 84.0058 79.863C88.8875 74.3442 92.4333 67.7756 94.3684 60.6662C87.9197 67.7248 79.4873 72.6688 70.1783 74.849C60.8693 77.0292 51.1187 76.3438 42.2062 72.8829C33.2937 69.4219 25.636 63.3471 20.238 55.4557C14.8401 47.5644 11.9541 38.2253 11.9592 28.6644C11.9706 23.6636 12.7698 18.6958 14.3275 13.9436V13.8979Z" fill="#D45500" fill-opacity="0.59"/>
</svg>
