<svg width="88" height="56" viewBox="0 0 88 56" fill="none" xmlns="http://www.w3.org/2000/svg">
<path d="M56.8452 41.4438C56.8452 41.4438 53.5713 42.9941 52.6498 47.4626C52.6498 47.4626 53.76 45.7661 55.4511 46.1C55.4511 46.1 58.0594 46.1117 63.5668 49.1178C63.5668 49.1178 68.3019 51.9699 74.0871 50.0093C74.0871 50.0093 82.7786 47.9004 82.7598 36.2271C82.7598 36.2271 82.8066 25.7419 73.494 21.8592C73.494 21.8592 63.9639 18.6908 61.0986 19.3672C61.0986 19.3672 63.7195 21.6766 64.0206 22.52C64.0206 22.52 63.6056 23.1034 62.2852 22.3713C62.2852 22.3713 53.2446 17.1666 51.1979 16.5971C51.1979 16.5971 46.5052 14.7748 43.5855 16.059C43.5855 16.059 47.6802 17.6997 49.9061 19.7472C49.9061 19.7472 52.0069 21.4256 52.4991 22.1095C52.4991 22.1095 53.0128 22.45 52.196 22.481C52.196 22.481 46.4393 22.6719 43.8904 21.8411C43.8904 21.8411 40.3338 21.2009 36.7561 19.1875C36.7561 19.1875 31.9074 16.0455 27.8582 16.4381C27.8582 16.4381 31.3652 17.4747 33.6537 19.7067C33.6537 19.7067 36.4902 22.5166 36.8803 22.9898C36.8803 22.9898 37.7447 23.7773 36.5838 23.6518C36.5838 23.6518 33.4552 23.0091 32.2584 22.1443C32.2584 22.1443 28.9737 20.182 27.3337 19.9536C27.3337 19.9536 26.5334 19.8524 26.3029 19.9858C26.3029 19.9858 27.5789 20.903 27.8275 21.1393C27.8275 21.1393 28.3131 21.5327 27.6267 21.7215C27.6267 21.7215 26.0607 21.7568 25.3609 21.3645C25.3609 21.3645 23.1678 20.7695 22.6161 20.9046C22.6161 20.9046 24.0501 21.9266 24.2872 22.0837C24.2872 22.0837 24.6824 22.3456 23.9512 22.7194C23.9512 22.7194 19.5674 24.2495 17.9504 24.1794C17.9504 24.1794 19.4619 24.7518 21.2189 24.5571C21.2189 24.5571 23.6117 24.0683 24.9256 24.5099C24.9256 24.5099 28.5808 26.0739 29.8468 27.4137C29.8468 27.4137 27.7817 28.1912 27.4737 28.774C27.4737 28.774 31.0637 27.4332 35.1336 30.1306C35.1336 30.1306 31.1761 32.8731 30.364 34.4095C30.364 34.4095 34.2635 32.9878 36.4337 33.4245C36.4337 33.4245 41.3719 34.4796 42.4897 35.292C42.4897 35.292 41.699 36.4849 39.723 36.8922C39.723 36.8922 44.9952 38.5264 48.8949 37.1046C48.8949 37.1046 47.8257 39.3291 42.3965 39.8087C42.3965 39.8087 43.692 41.5973 50.0596 42.1689C50.0596 42.1689 52.7584 42.3121 54.2718 41.6697C54.2718 41.6697 56.4619 41.2612 56.8455 41.4439L56.8452 41.4438Z" fill="#FF0000"/>
<path d="M22.85 28.0673C22.85 28.0673 21.7377 29.1006 20.4897 28.6782C20.4897 28.6782 18.5126 28.2784 17.8372 28.8425C18.0118 28.6547 19.8357 27.1318 21.1991 27.479C21.1991 27.479 22.7662 28.0117 22.85 28.0673Z" fill="#FF0000"/>
<path d="M22.4726 18.0036C22.3655 18.1349 21.4849 19.3724 20.0982 19.2122C19.9748 19.2316 17.8733 18.4964 17.4868 18.4426C17.3074 18.4249 14.2581 17.7697 12.7385 18.4319C12.7385 18.4319 15.6337 15.5957 18.4581 16.9617C18.7573 17.1094 21.1603 18.702 22.4726 18.0036Z" fill="#FF0000"/>
<path d="M11.3211 25.1816C11.0742 25.2203 9.91082 26.4221 8.40202 25.4221C8.40202 25.4221 5.90715 23.7181 4.42255 24.1C4.42255 24.1 6.25895 22.8384 8.45597 23.5357C8.45597 23.5357 10.8603 24.2691 11.3211 25.1816Z" fill="#FF0000"/>
<path d="M8.1511 17.6174C7.96827 17.7492 7.18103 18.2391 5.67331 17.594C5.67331 17.594 4.85138 17.1504 4.08743 17.4535C4.08743 17.4535 6.04768 14.9587 8.1511 17.6174Z" fill="#FF0000"/>
<path d="M58.8599 44.952C58.8599 44.952 56.2215 44.5187 55.2667 44.8975C55.2667 44.8975 57.3991 42.7192 57.7464 41.6341C57.7464 41.6341 58.3686 39.3149 56.7397 39.3988C56.7036 39.3243 53.5143 39.7905 52.9892 39.9989C52.9892 39.9989 49.5296 40.6907 47.391 39.5262C47.391 39.5262 49.6046 39.1215 50.8253 37.0978C50.8253 37.0978 50.9875 36.6488 50.9185 36.3502C50.9185 36.3502 47.4767 36.2949 45.203 35.2433C45.203 35.2433 45.8306 34.6981 45.9692 34.4359C45.9692 34.4359 37.4628 32.5416 36.904 32.1713C36.904 32.1713 39.4285 31.8209 40.1786 30.9017C40.1786 30.9017 40.8982 30.468 40.0879 29.931C40.0879 29.931 38.6113 29.0016 36.5563 29.3566C36.5563 29.3566 37.0891 28.6008 36.3613 28.2616C36.3613 28.2616 33.8077 26.7838 32.2977 26.7131C32.2977 26.7131 30.3884 26.8427 28.7043 25.0827C28.7043 25.0827 30.9154 26.0474 31.5792 25.7003C31.5792 25.7003 32.1111 25.5521 31.8592 25.1705C31.8592 25.1705 31.5118 24.8688 31.562 24.7232C31.562 24.7232 31.7046 24.3527 32.5897 24.5458C32.5897 24.5458 34.3087 24.8266 34.6577 24.7718C34.6577 24.7718 35.2068 24.7423 35.0251 24.2284C35.0251 24.2284 34.765 23.9129 34.8547 23.7935C35.0969 23.7393 35.4715 23.7372 36.0889 23.9318C36.0889 23.9318 39.8216 25.0464 40.2531 25.1893C40.2531 25.1893 41.1974 25.4217 41.484 25.1823C41.484 25.1823 41.4997 24.7993 41.2313 24.5499L36.0026 19.6538C36.0026 19.6538 42.8513 23.0618 47.6449 23.5577L53.5341 24.1221C53.5341 24.1221 54.4271 24.3598 54.1013 23.3345C54.1013 23.3345 51.5395 19.2592 48.1389 17.056C48.1389 17.056 50.4674 17.7899 52.5224 18.8988C52.5224 18.8988 59.4204 22.4082 59.6438 22.5563C59.6438 22.5563 64.1798 24.7531 65.0519 24.6735C65.0519 24.6735 65.5583 24.8574 65.513 24.3721L65.2686 23.4902C65.2686 23.4902 65.3188 23.3446 65.8177 23.4606C65.8177 23.4606 76.4706 24.4042 79.1754 31.0972C79.1754 31.0972 82.7967 37.2173 79.2683 43.0342C79.2683 43.0342 76.1992 48.941 69.5024 48.4373C69.5024 48.4373 65.0334 47.9079 63.3739 46.808C63.3739 46.808 60.2612 44.9775 58.8599 44.952Z" fill="#FF6600"/>
<path d="M53.134 37.8691C55.8079 35.5944 61.9109 38.3239 61.9109 38.3239C61.9109 38.3239 56.8784 33.9263 51.7348 36.2336C51.7348 36.2336 52.9287 34.5461 54.0664 34.0355C54.0664 34.0355 48.7457 31.8244 43.803 32.0391C43.803 32.0391 47.1033 30.0783 47.5131 29.9452C47.5131 29.9452 43.6397 28.1369 39.143 28.293C39.143 28.293 43.6936 26.2504 46.303 26.3104C46.303 26.3104 45.1726 25.3083 43.8092 24.9612C43.8092 24.9612 50.338 23.6732 55.7776 25.6595C55.7776 25.6595 53.4126 20.8546 52.0831 19.8724C52.0831 19.8724 59.597 24.144 64.1809 25.1079C64.3322 25.107 71.0258 26.8621 71.5764 27.1765C71.5764 27.1765 77.8952 28.7843 79.0276 35.7063C79.0276 35.7063 80.334 40.8719 75.1913 44.7479C75.1913 44.7479 71.4566 47.8877 65.8402 45.3795C65.6167 45.2314 62.451 44.2968 60.1241 41.49C60.1241 41.49 57.8894 37.5809 53.134 37.8691Z" fill="#FFCC00"/>
<path d="M73.7944 25.1777C67.5161 23.0126 60.6713 26.3471 58.5062 32.6255C56.3411 38.9039 59.6756 45.7487 65.9539 47.9137C72.2323 50.0788 79.0771 46.7444 81.2422 40.466C83.4073 34.1876 80.0728 27.3428 73.7944 25.1777Z" fill="#4B4145"/>
<path d="M73.7348 25.3504C67.5517 23.2182 60.8109 26.5021 58.6787 32.6851C56.5465 38.8682 59.8303 45.609 66.0133 47.7412C72.1964 49.8735 78.9375 46.5897 81.0697 40.4066C83.2019 34.2236 79.9179 27.4826 73.7348 25.3504Z" fill="#635B59"/>
<path d="M72.6979 28.1908C67.2916 26.3265 61.3977 29.1978 59.5334 34.6041C57.669 40.0104 60.5402 45.9044 65.9464 47.7687C71.3527 49.6331 77.2469 46.7618 79.1112 41.3555C80.9756 35.9492 78.1042 30.0552 72.6979 28.1908Z" fill="#C5BCB3"/>
<path d="M73.2057 47.5752C76.0837 46.4895 78.2344 44.1424 79.2404 41.2357C81.1048 35.8293 78.2335 29.935 72.8272 28.0706C68.4745 26.5735 63.6703 28.0464 61.0151 31.8064C63.2748 30.9494 65.7493 30.9929 68.0352 31.7777C73.4415 33.6421 76.3126 39.5359 74.4483 44.9421C74.1294 45.8668 73.7723 46.7778 73.2057 47.5752Z" fill="#ADA397"/>
<path d="M65.8574 39.45C64.2529 38.8967 62.6651 39.2801 62.3112 40.3064C61.9572 41.3328 62.9712 42.6134 64.5757 43.1667C66.1803 43.72 67.7678 43.3365 68.1217 42.3102C68.4756 41.2839 67.462 40.0034 65.8574 39.45Z" fill="#DBD3D0"/>
<path d="M69.0083 35.3236C68.141 35.0245 67.1953 35.4851 66.8962 36.3524C66.5971 37.2197 67.0579 38.1653 67.9252 38.4644C68.7925 38.7635 69.7382 38.3029 70.0373 37.4356C70.3364 36.5683 69.8756 35.6227 69.0083 35.3236Z" fill="#DAD2CF"/>
<path d="M64.1831 34.5383C63.4315 34.2791 62.6927 34.4439 62.5331 34.9065C62.3736 35.3691 62.8538 35.9542 63.6055 36.2134C64.3572 36.4727 65.0957 36.3078 65.2552 35.8452C65.4147 35.3826 64.9348 34.7975 64.1831 34.5383Z" fill="#DAD2CF"/>
<path d="M68.9332 29.2988C68.3695 29.1044 67.8235 29.2046 67.7139 29.5226C67.6042 29.8406 67.9724 30.256 68.5361 30.4504C69.0999 30.6448 69.6458 30.5447 69.7555 30.2266C69.8652 29.9086 69.497 29.4932 68.9332 29.2988Z" fill="#A69C93"/>
<path d="M69.1731 43.9321C68.5804 43.7277 67.9787 43.9135 67.8292 44.3472C67.6796 44.7809 68.0389 45.2981 68.6315 45.5025C69.2242 45.7069 69.8259 45.521 69.9755 45.0873C70.125 44.6537 69.7658 44.1364 69.1731 43.9321Z" fill="#DAD2CF"/>
<path d="M76.748 34.8285C77.165 34.9716 77.6114 35.0076 78.046 34.9331C78.4805 34.8586 78.8895 34.676 79.235 34.4022C78.64 32.7284 77.6244 31.2358 76.2858 30.0679C75.7394 30.3845 75.3251 30.8871 75.1186 31.4839C75.0059 31.8105 74.9586 32.1561 74.9795 32.501C75.0004 32.8458 75.089 33.1832 75.2403 33.4938C75.3916 33.8043 75.6028 34.0821 75.8615 34.3112C76.1202 34.5402 76.4213 34.7159 76.748 34.8285Z" fill="#A69C93"/>
<path fill-rule="evenodd" clip-rule="evenodd" d="M76.2412 45.6381L73.1066 44.3635L75.6143 46.2363L78.5391 44.7161L76.2412 45.6381Z" fill="#453C40"/>
<path fill-rule="evenodd" clip-rule="evenodd" d="M63.8382 29.0994C63.8382 29.0994 64.7653 30.151 64.9844 30.122C65.2034 30.093 67.5382 29.992 67.5382 29.992L64.2378 30.7706L63.4054 29.6472L64.6124 25.7943L63.8382 29.0994Z" fill="#453C40"/>
<path fill-rule="evenodd" clip-rule="evenodd" d="M79.4895 35.5543L77.2418 36.1873L75.16 35.1381L77.3478 35.5198L79.2062 34.2141L80.2886 31.3154L79.4895 35.5543Z" fill="#453C40"/>
<path fill-rule="evenodd" clip-rule="evenodd" d="M73.7349 25.2684L72.9254 27.3615L73.2468 25.0708L73.7349 25.2684Z" fill="#4B4145"/>
<path fill-rule="evenodd" clip-rule="evenodd" d="M71.0257 24.5984L70.1853 27.3244L70.4131 24.5921L71.0257 24.5984Z" fill="#4B4145"/>
</svg>
