<svg width="69" height="36" viewBox="0 0 69 36" fill="none" xmlns="http://www.w3.org/2000/svg">
<path d="M33.6843 36C43.4493 36 51.3653 27.9411 51.3653 18C51.3653 8.05887 43.4493 0 33.6843 0C23.9193 0 16.0032 8.05887 16.0032 18C16.0032 27.9411 23.9193 36 33.6843 36Z" fill="#5F5FD3"/>
<path d="M33.7634 29.6738C41.6223 29.6738 47.9931 23.1887 47.9931 15.1889C47.9931 7.18907 41.6223 0.703949 33.7634 0.703949C25.9045 0.703949 19.5337 7.18907 19.5337 15.1889C19.5337 23.1887 25.9045 29.6738 33.7634 29.6738Z" fill="#AAAAFF"/>
<path d="M65.4609 1.29344C61.6268 1.12847 54.832 2.68585 46.4996 5.64222C46.8691 6.04256 47.2203 6.45903 47.5532 6.89164C53.0854 5.0879 57.6168 4.08705 60.6633 4.05185C62.2031 4.03426 63.3601 4.26082 64.0794 4.75135C65.2761 7.94089 51.4753 14.5905 36.0511 21.6735C19.7735 29.1524 6.49176 34.5241 5.29513 31.3345C5.79446 28.6839 9.67468 25.0566 16.2759 21.0158C16.2011 20.6052 16.1396 20.1924 16.0912 19.7774C5.32594 26.0971 -0.830969 31.6293 0.0906978 34.1567C1.4765 37.9314 17.9565 33.9477 36.9024 25.2612C55.8482 16.5746 70.0824 6.4737 68.6988 2.70124C68.3908 1.85437 67.291 1.37703 65.4609 1.29344Z" fill="#D5D5FF"/>
<path d="M30.7521 13.1058C32.3557 13.1058 33.6557 11.7821 33.6557 10.1494C33.6557 8.51662 32.3557 7.193 30.7521 7.193C29.1485 7.193 27.8485 8.51662 27.8485 10.1494C27.8485 11.7821 29.1485 13.1058 30.7521 13.1058Z" fill="#5F5FD3"/>
<path d="M24.0166 20.3493C25.5048 20.3493 26.7112 19.1212 26.7112 17.6063C26.7112 16.0914 25.5048 14.8633 24.0166 14.8633C22.5284 14.8633 21.322 16.0914 21.322 17.6063C21.322 19.1212 22.5284 20.3493 24.0166 20.3493Z" fill="#5F5FD3"/>
<path d="M44.5198 13.1915C45.5427 13.1915 46.3719 12.3475 46.3719 11.3064C46.3719 10.2652 45.5427 9.42123 44.5198 9.42123C43.4969 9.42123 42.6677 10.2652 42.6677 11.3064C42.6677 12.3475 43.4969 13.1915 44.5198 13.1915Z" fill="#5F5FD3"/>
<path d="M31.5527 20.3053C32.2501 20.3053 32.8154 19.7301 32.8154 19.0207C32.8154 18.3112 32.2501 17.736 31.5527 17.736C30.8554 17.736 30.2901 18.3112 30.2901 19.0207C30.2901 19.7301 30.8554 20.3053 31.5527 20.3053Z" fill="#5F5FD3"/>
<path d="M35.0876 5.73451C35.7849 5.73451 36.3502 5.15938 36.3502 4.4499C36.3502 3.74043 35.7849 3.16528 35.0876 3.16528C34.3903 3.16528 33.825 3.74043 33.825 4.4499C33.825 5.15938 34.3903 5.73451 35.0876 5.73451Z" fill="#5F5FD3"/>
</svg>
