<svg
        viewBox="0 0 36 36"
        fill="none"
        xmlns="http://www.w3.org/2000/svg"
>
    <rect width="36" height="36" rx="6" fill="#56124F"/>
    <path
            d="M4.02394 14.6746C4.89598 12.2285 8.02079 12.7288 9.47419 13.2848C10.1282 12.6176 11.9268 12.6362 12.7444 12.7288C17.1046 10.2827 22.0098 11.7096 23.9174 12.7288C25.2254 11.6169 27.5509 11.8949 28.5501 12.1729C33.7823 13.7295 31.6386 19.1221 29.9127 21.6238C31.2207 22.5133 30.947 23.6844 30.6745 24.2403C27.8404 28.6878 23.7513 27.2782 22.207 25.703C18.9369 27.9268 15.5603 26.7198 14.1069 26.0713C10.1827 29.6292 6.65823 24.9594 5.3865 22.1797C4.56896 20.6972 3.1519 17.1207 4.02394 14.6746Z"
            fill="#56124F"
    />
    <path
            d="M4.57478 13.5729C5.44682 11.1268 8.57163 11.6272 10.025 12.1831C10.6791 11.516 12.4776 11.5345 13.2952 11.6271C17.6554 9.18099 22.5606 10.6079 24.4682 11.6271C25.7763 10.5153 28.1017 10.7932 29.1009 11.0712C34.3332 12.6278 32.1971 18.2429 30.4712 20.7446C31.7793 21.6341 31.2947 23.219 31.0222 23.7749C28.1881 28.2224 24.6499 25.7108 23.1056 24.1357C19.8355 26.3594 16.1112 25.6182 14.6578 24.9696C10.7336 28.5276 7.20907 23.8577 5.93734 21.078C5.1198 19.5955 3.70274 16.019 4.57478 13.5729Z"
            fill="#BF3089"
    />
    <path
            d="M4.30099 14.1331C5.18252 11.7089 8.06731 12.166 9.53652 12.7169C10.1977 12.0558 12.0158 12.0741 12.8423 12.1659C17.2499 9.74171 22.2085 11.1558 24.1369 12.1659C25.4592 11.064 27.8099 11.3395 28.82 11.615C34.1092 13.1577 31.9421 18.5019 30.1974 20.9812C31.5197 21.8628 31.2993 23.1851 31.0238 23.736C28.1588 28.1437 24.3205 26.1235 22.7595 24.5624C19.4537 26.7663 15.6889 26.0317 14.2197 25.3889C10.2528 28.915 6.68992 24.287 5.40436 21.5322C4.57792 20.063 3.41946 16.5573 4.30099 14.1331Z"
            fill="#931C57"
    />
    <path
            d="M8.78051 13.0319C8.72887 13.0341 8.6954 13.0434 8.6954 13.0434C8.60363 13.0546 8.51312 13.0717 8.42473 13.0927C8.17404 13.1096 6.8292 13.1509 5.88344 14.0244C5.88344 14.0244 5.2766 14.5096 5.42679 15.4922C5.42679 15.4922 6.11169 18.6618 7.16903 20.9147C7.16903 20.9147 8.38261 23.5391 9.3078 24.6895C9.3078 24.6895 10.281 25.7441 12.588 24.5217C12.588 24.5217 14.3422 23.635 15.0391 22.2569C15.0391 22.2569 15.4056 21.5136 15.335 21.1608C15.3737 21.0321 15.3636 20.9267 15.3636 20.9267C15.3455 20.699 15.0812 20.3815 15.0812 20.3815C14.925 20.2078 14.7869 20.3155 14.7869 20.3155C13.9278 20.8668 11.3925 21.7716 11.3925 21.7716C11.1222 21.8674 11.0658 21.712 11.0658 21.712C10.2502 19.9579 9.32414 13.6875 9.32414 13.6875C9.25405 13.0901 8.93543 13.0264 8.78051 13.0319V13.0319Z"
            fill="#5A1A46"
    />
    <path
            d="M6.80051 14.8097C6.80051 14.8097 6.65182 13.8903 7.36125 13.5429C7.36125 13.5429 7.99845 13.1277 8.69513 13.0429C8.69513 13.0429 9.23041 12.8905 9.32387 13.687C9.32387 13.687 10.2499 19.9574 11.0656 21.7114C11.0656 21.7114 11.1218 21.867 11.3922 21.7711C11.3922 21.7711 13.9274 20.8663 14.7865 20.3151C14.7865 20.3151 14.9247 20.2072 15.0809 20.381C15.0809 20.381 15.3452 20.6986 15.3633 20.9263C15.3633 20.9263 15.3993 21.2438 15.141 21.4535C15.141 21.4535 13.2125 23.2151 11.26 23.7004C11.26 23.7004 9.72463 24.0638 9.17941 22.8808C9.17941 22.8808 7.12336 19.1567 6.80051 14.8097V14.8097Z"
            fill="#FABB59"
    />
    <path
            d="M8.78025 13.0314C8.72861 13.0335 8.68164 13.0398 8.68164 13.0398C7.98497 13.1246 7.36127 13.5427 7.36127 13.5427C6.65184 13.8902 6.8005 14.8097 6.8005 14.8097C7.12336 19.1566 9.17943 22.8808 9.17943 22.8808C9.72464 24.0638 11.2601 23.7004 11.2601 23.7004C13.2126 23.215 15.1411 21.4535 15.1411 21.4535C15.2803 21.3405 15.3328 21.1974 15.3527 21.0882L14.6483 21.8608C13.4403 22.5323 11.5933 23.1872 11.5933 23.1872C10.2592 23.5396 9.60426 22.5756 9.60426 22.5756C8.05796 20.5081 7.37904 14.8026 7.37904 14.8026C7.28893 14.1496 7.52933 13.838 7.52933 13.838C7.7456 13.5024 8.82087 13.0412 8.82087 13.0412L8.82898 13.0325C8.8116 13.031 8.79501 13.031 8.78025 13.031V13.0314Z"
            fill="#D1973B"
    />
    <path
            d="M8.8274 13.0327C8.82885 13.0471 9.45304 19.3707 10.4012 21.5133C10.4012 21.5133 10.658 22.2112 11.5586 21.9147C11.5586 21.9147 13.7422 21.0333 14.2859 20.5927L14.2937 20.5869C13.2161 21.1212 11.3877 21.7712 11.3877 21.7712C11.1174 21.867 11.0612 21.7116 11.0612 21.7116C10.2455 19.9575 9.31945 13.687 9.31945 13.687C9.25641 13.1496 8.99253 13.0446 8.82733 13.033L8.8274 13.0327ZM14.8708 20.2826C14.8168 20.2877 14.7821 20.3149 14.7821 20.3149C14.7618 20.328 14.7362 20.3421 14.714 20.3556C14.7677 20.4053 14.8153 20.487 14.841 20.6204C14.841 20.6204 14.8649 21.01 14.6367 21.3156C14.6367 21.3156 14.4479 21.6419 14.6588 21.8534C14.9583 21.6155 15.1366 21.4533 15.1366 21.4533C15.3949 21.2436 15.3588 20.9261 15.3588 20.9261C15.3408 20.6984 15.0765 20.3807 15.0765 20.3807C14.9983 20.2939 14.9249 20.2774 14.8708 20.2826V20.2826Z"
            fill="#FFEAD0"
    />
    <path
            d="M19.572 11.9297C17.5444 11.9493 15.77 12.6254 15.041 12.9453C15.041 12.9453 13.342 13.5044 13.1225 14.9452C13.1225 14.9452 13.0301 15.5328 13.5617 16.6277C13.5617 16.6277 14.9484 20.0624 15.2488 21.0998C15.2488 21.0998 15.7113 23.1511 17.1674 23.37C17.1674 23.37 18.2536 23.5431 18.5772 22.7133L18.5751 22.7021C18.6982 22.6375 18.6463 22.5463 18.6463 22.5463C18.6174 22.3733 18.7503 22.3733 18.7503 22.3733C19.4957 22.3905 19.9985 22.2292 19.9985 22.2292C24.02 20.4541 23.5694 15.2446 23.5694 15.2446C23.292 12.5823 21.4545 12.1211 21.4545 12.1211C20.8197 11.9786 20.1848 11.9245 19.5722 11.9305L19.572 11.9297ZM18.7289 14.2702C19.2463 14.3696 19.9816 14.6993 20.1474 15.7633C20.1474 15.7633 20.3925 17.6866 19.608 19.0395C19.608 19.0395 19.2316 19.6613 18.3499 20.0763C18.3278 20.0415 18.311 19.9909 18.3052 19.9176C18.2176 18.833 18.6339 15.1001 18.7289 14.2702V14.2702Z"
            fill="#5A1A46"
    />
    <path
            d="M19.5716 11.9299C16.9172 11.9556 14.682 13.112 14.682 13.112C14.0348 13.4579 14.5086 13.8149 14.5086 13.8149C14.8027 14.1567 15.9345 14.5369 15.9467 14.5328C16.1143 14.5777 16.0938 14.7204 16.0938 14.7204C15.6362 20.6535 16.7417 22.3496 16.7417 22.3496C17.1288 22.8276 18.1313 22.7644 18.1313 22.7644C18.7785 22.7755 18.6456 22.5457 18.6456 22.5457C18.6168 22.3728 18.7496 22.3728 18.7496 22.3728C19.495 22.3899 19.9978 22.2286 19.9978 22.2286C24.0193 20.4535 23.5687 15.244 23.5687 15.244C23.2914 12.5817 21.4538 12.1206 21.4538 12.1206C20.819 11.978 20.1841 11.9239 19.5716 11.9299ZM19.3249 13.7197C19.7049 13.7169 20.4972 13.7224 20.7556 13.7913C20.7556 13.7913 21.7354 13.8981 21.6272 15.0367C21.6272 15.0367 21.5926 19.4394 18.5302 20.1425C18.5302 20.1425 18.3278 20.2117 18.3048 19.9178C18.2065 18.7021 18.7654 13.9412 18.7654 13.9412C18.7654 13.9412 18.7558 13.729 19.1173 13.722C19.1173 13.722 19.1982 13.7221 19.3249 13.7193V13.7197Z"
            fill="#FABB59"
    />
    <path
            d="M15.041 12.9449C14.8153 13.044 14.682 13.1117 14.682 13.1117C14.0348 13.4577 14.5086 13.8147 14.5086 13.8147C14.8027 14.1563 15.9345 14.5367 15.9467 14.5325C16.1143 14.5776 16.0938 14.7201 16.0938 14.7201C15.6362 20.6532 16.7417 22.3493 16.7417 22.3493C17.1288 22.8274 18.1314 22.7642 18.1314 22.7642C18.7785 22.7753 18.6456 22.5455 18.6456 22.5455C18.6168 22.3726 18.7496 22.3726 18.7496 22.3726C19.495 22.3895 19.9978 22.2283 19.9978 22.2283C20.4247 22.0399 20.7983 21.8109 21.1303 21.5554C21.1093 21.5261 21.0841 21.4908 21.0841 21.4908C17.2705 22.7124 16.9927 20.539 16.9927 20.539C16.3553 17.8006 16.625 14.9157 16.625 14.9157C16.6985 14.3614 16.3635 14.2717 16.3635 14.2717C16.2981 14.2556 15.1215 13.7177 15.1215 13.7177C14.5576 13.351 15.0405 12.9452 15.0405 12.9452L15.041 12.9449ZM20.5077 13.7538C20.5077 13.7538 20.6958 13.7752 20.7557 13.791C20.7557 13.791 21.7359 13.8961 21.6277 15.0347C21.6277 15.0347 21.5931 19.4375 18.5307 20.1405C18.5307 20.1405 18.483 20.156 18.435 20.1432C18.4308 20.1488 18.327 20.1736 18.327 20.1736C18.327 20.1736 20.1832 20.4504 21.6162 17.8455C21.6162 17.8455 22.2749 16.6699 22.0496 14.6645C22.0496 14.6645 21.8721 13.7188 20.4449 13.7477L20.5077 13.7538Z"
            fill="#D1973B"
    />
    <path
            d="M21.191 12.0665C21.1909 12.0665 21.1885 12.0857 21.1885 12.0857C24.1364 13.647 23.5479 19.1051 20.8256 21.0932C19.4895 22.1852 17.469 22.2752 16.6967 22.2676C16.7245 22.322 16.7422 22.3493 16.7422 22.3493C17.1293 22.8274 18.1318 22.7642 18.1318 22.7642C18.779 22.7753 18.6461 22.5455 18.6461 22.5455C18.6172 22.3726 18.7501 22.3726 18.7501 22.3726C19.4955 22.3897 19.9983 22.2283 19.9983 22.2283C24.0198 20.4533 23.5692 15.2437 23.5692 15.2437C23.2918 12.5814 21.4543 12.1203 21.4543 12.1203C21.3665 12.1006 21.2788 12.0829 21.191 12.0665H21.191ZM18.7896 13.7026C18.1825 13.7205 18.1377 13.9876 18.1377 13.9876C17.167 17.0765 17.892 19.6833 17.892 19.6833C18.0801 20.3063 18.458 20.1704 18.5174 20.1448C18.4824 20.1462 18.3259 20.181 18.3052 19.9176C18.207 18.702 18.7658 13.941 18.7658 13.941C18.7658 13.941 18.7745 13.7476 19.086 13.7232C19.0861 13.7232 19.086 13.7232 19.086 13.7232C19.0311 13.7191 18.9672 13.7041 18.9186 13.7027H18.7896V13.7026Z"
            fill="#FFEAD0"
    />
    <path
            d="M28.8546 13.0312C28.5994 13.0312 28.3097 13.0665 27.9831 13.1545C27.9831 13.1545 23.7971 14.1378 23.5869 19.3074C23.5869 19.3074 23.4234 23.6735 25.77 25.0243C25.77 25.0243 26.4587 25.5015 27.6028 25.1987C27.6028 25.1987 27.6097 25.1952 27.6102 25.1952C27.6204 25.1924 27.6437 25.1873 27.6437 25.1873C29.5175 24.5354 30.2412 22.9663 30.2412 22.9663C30.3725 22.6228 30.2326 22.4167 30.2326 22.4167C30.1707 22.2891 29.9106 22.0793 29.9106 22.0793C29.7757 21.9798 29.6834 22.0737 29.6408 22.1358C29.5866 22.0224 29.4654 21.9285 29.1964 21.997C29.1964 21.997 28.7178 22.0784 28.1399 22.4045C28.1399 22.4045 27.5187 22.7502 26.8249 22.746C25.7886 21.4866 26.4091 19.1676 26.4091 19.1676C26.9469 17.4745 27.6302 16.4703 28.2182 15.8765C27.9866 16.3432 27.7668 16.9252 27.778 17.4444C27.778 17.4444 27.7954 17.9684 28.0698 18.2537C28.0698 18.2537 28.7352 19.121 29.8793 19.0744C29.8793 19.0744 30.1315 19.0476 30.3387 18.9178C30.6559 18.9514 30.7899 18.7427 30.7899 18.7427C31.3853 17.8811 31.362 16.0356 31.362 16.0356C31.45 14.6839 30.7423 13.948 30.3884 13.6674C30.2756 13.5285 29.8068 13.0322 28.8546 13.0313V13.0312Z"
            fill="#5A1A46"
    />
    <path
            d="M29.231 13.2795C27.8596 13.2774 26.6573 14.6381 26.6573 14.6381C24.3108 17.095 24.2849 19.9797 24.2849 19.9797C24.2106 22.5566 25.1104 24.0635 25.1104 24.0635C25.9452 25.676 27.6438 25.1869 27.6438 25.1869C29.5175 24.535 30.2413 22.9661 30.2413 22.9661C30.3726 22.6226 30.2327 22.4164 30.2327 22.4164C30.1707 22.2889 29.9107 22.079 29.9107 22.079C29.7208 21.939 29.6135 22.1819 29.6135 22.1819C28.8741 23.2573 27.9879 23.4844 27.2053 23.1009C25.6526 21.9946 26.4092 19.1673 26.4092 19.1673C27.6 15.4182 29.5058 15.0399 29.5058 15.0399C30.0078 14.8361 29.9961 15.3251 29.9961 15.3251C29.9552 16.245 29.0038 17.2405 29.0038 17.2405C28.747 17.4734 28.9222 17.7412 28.9222 17.7412C29.3775 18.5794 30.1246 18.8647 30.1246 18.8647C30.5974 19.0451 30.79 18.7424 30.79 18.7424C31.3854 17.8808 31.362 16.0353 31.362 16.0353C31.4788 14.2423 30.1946 13.5321 30.1946 13.5321C29.8728 13.3531 29.5474 13.28 29.231 13.2795V13.2795Z"
            fill="#FABB59"
    />
    <path
            d="M30.4932 13.7556C30.7145 14.1056 31.397 15.4062 30.8724 17.4849C30.8724 17.4849 30.6206 18.337 30.3771 18.5552C30.3771 18.5552 30.058 18.7981 29.6122 18.5552C29.8945 18.7762 30.1246 18.8645 30.1246 18.8645C30.5974 19.0449 30.79 18.7423 30.79 18.7423C31.3854 17.8806 31.362 16.0351 31.362 16.0351C31.442 14.8071 30.8649 14.0874 30.4932 13.7555V13.7556ZM26.1553 18.8531C26.1553 18.8531 25.4956 20.3957 26.2078 22.3751C26.2078 22.3751 26.7244 23.6413 27.9064 23.2775L27.9057 23.274C27.6676 23.2712 27.432 23.2118 27.2052 23.1007C25.6525 21.9944 26.4091 19.1671 26.4091 19.1671C27.5595 15.5451 29.3722 15.0706 29.494 15.0425C29.5007 15.0326 29.494 15.0425 29.494 15.0425C27.6923 15.4298 26.5696 17.7682 26.1553 18.8531V18.8531ZM29.9629 22.1234C29.9607 22.1248 29.9629 22.1234 29.9629 22.1234C30.1363 22.3003 30.0675 22.6223 30.0675 22.6223C29.9396 23.0217 29.4242 23.6443 29.4242 23.6443C27.8523 25.3406 26.3439 25.1274 26.2296 25.1085C26.9489 25.3862 27.6438 25.1869 27.6438 25.1869C29.5175 24.535 30.2413 22.9659 30.2413 22.9659C30.3726 22.6225 30.2326 22.4164 30.2326 22.4164C30.1879 22.3242 30.0417 22.1913 29.9629 22.1234V22.1234Z"
            fill="#FFEAD0"
    />
    <path
            d="M29.231 13.2795C27.8596 13.2774 26.6573 14.6381 26.6573 14.6381C24.3108 17.095 24.2849 19.9797 24.2849 19.9797C24.2106 22.5566 25.1104 24.0635 25.1104 24.0635C25.9452 25.676 27.6438 25.1869 27.6438 25.1869C27.8726 25.1074 28.084 25.0138 28.2793 24.9115C27.6574 25.0525 26.258 25.1762 25.4324 23.7174C25.4324 23.7174 24.3262 21.8567 24.8545 19.3868C24.8545 19.3868 25.4198 15.8492 28.0698 13.8697C28.0698 13.8697 29.2344 12.9793 30.4412 13.7098C30.2971 13.5884 30.1946 13.5321 30.1946 13.5321C29.8728 13.3531 29.5474 13.2801 29.2309 13.2795H29.231ZM29.7138 14.9898C29.9959 14.9898 29.9961 15.3251 29.9961 15.3251C29.9552 16.245 29.0038 17.2405 29.0038 17.2405C28.747 17.4734 28.9222 17.7412 28.9222 17.7412C29.1153 18.0967 29.3606 18.3519 29.5795 18.5289C29.5795 18.5289 29.5795 18.5289 29.5795 18.5289C29.5795 18.5289 28.9863 18.0786 29.4767 17.3393C29.4767 17.3393 29.8561 16.7514 29.9378 16.6582C29.9378 16.6582 30.4456 15.9013 30.4398 15.5462C30.417 15.1552 30.3706 14.9122 29.7138 14.9898V14.9898ZM29.7842 22.0361C29.6739 22.0453 29.6135 22.1819 29.6135 22.1819C28.8741 23.2573 27.9879 23.4844 27.2053 23.1009C27.1138 23.0357 27.0306 22.9643 26.9545 22.8882C26.9294 22.8868 26.9291 22.8868 26.9545 22.8882C26.9545 22.8882 27.2819 23.9057 28.7937 23.2828C28.7937 23.2828 29.583 22.9057 29.9391 22.1022C29.9391 22.1022 29.9391 22.1064 29.9391 22.1022C29.9261 22.0915 29.9107 22.0785 29.9107 22.0785C29.8632 22.0434 29.8209 22.0324 29.7842 22.0355L29.7842 22.0361Z"
            fill="#D1973B"
    />
</svg>
