<svg width="862" height="615" viewBox="0 0 862 615" fill="none" xmlns="http://www.w3.org/2000/svg">
    <g filter="url(#filter0_d_13735_278558)">
        <rect width="842" height="595" transform="translate(10 6)" fill="white" />
        <g opacity="0.3">
            <path
                d="M104.737 215C102.668 214.993 100.955 216.691 100.955 218.797L100.883 231.351L88.3218 231.323C86.252 231.316 84.5391 233.007 84.5391 235.12V239.994C84.5391 242.107 86.252 243.806 88.3218 243.813L100.883 243.841V256.389C100.883 258.501 102.525 260.2 104.666 260.207L109.519 260.214C111.66 260.221 113.373 258.522 113.373 256.417V243.863L125.935 243.891C128.005 243.898 129.718 242.2 129.718 240.094V235.213C129.718 233.107 128.076 231.408 125.935 231.401L113.373 231.373L113.445 218.825C113.445 216.713 111.732 215.014 109.662 215.007L104.737 215Z"
                fill="#00BDB9" />
            <path fill-rule="evenodd" clip-rule="evenodd"
                d="M128.558 154.196C129.266 150.896 127.12 147.632 123.841 146.927L92.509 140.199C89.2293 139.495 85.9324 141.59 85.2236 144.89C84.5148 148.191 86.6608 151.455 89.9405 152.159L121.272 158.888C124.552 159.592 127.849 157.497 128.558 154.196Z"
                fill="#00BDB9" />
            <path
                d="M53.5923 173C50.0237 173 47.0974 175.926 47.0974 179.481C47.0974 183.035 50.0237 185.961 53.5923 185.961C57.1609 185.961 60.0871 183.035 60.0871 179.481C60.0871 175.926 57.1609 173 53.5923 173ZM76.2886 183.049C75.9317 183.035 75.5035 183.078 75.0752 183.185L36.5344 193.612C34.3218 194.198 33.1085 196.41 33.6795 198.573L35.0356 203.583C35.6065 205.745 37.8191 207.016 39.9602 206.431L78.5725 196.003C80.7136 195.418 81.9983 193.205 81.4273 191.043L80.0713 186.04C79.5717 184.277 78.0015 183.113 76.2886 183.049ZM62.2997 204.132C58.7311 204.132 55.8048 207.059 55.8048 210.613C55.8048 214.167 58.7311 217.094 62.2997 217.094C65.7969 217.094 68.7231 214.167 68.7231 210.613C68.7231 207.059 65.7969 204.132 62.2997 204.132Z"
                fill="#00BDB9" />
            <path
                d="M70.1439 84.7106C68.5955 84.4404 67.001 85.0924 66.1027 86.4884L59.0015 97.5522L47.9659 90.4547C46.1033 89.2664 43.6601 89.8027 42.4152 91.658L39.7048 95.9663C38.4608 97.8146 39.0093 100.274 40.871 101.469L51.9774 108.576L44.8762 119.64C43.6313 121.495 44.1799 123.954 46.0424 125.142L50.3657 127.905C52.2274 129.101 54.6705 128.564 55.8447 126.7L62.9468 115.629L74.0532 122.736C75.9149 123.931 78.3581 123.395 79.5322 121.53L82.3134 117.231C83.4875 115.366 82.9389 112.907 81.0764 111.719L70.0407 104.622L77.1419 93.5577C78.3161 91.6934 77.7675 89.2342 75.9058 88.0388L71.6534 85.2851C71.1877 84.988 70.6368 84.7953 70.1439 84.7106Z"
                fill="#00BDB9" />
            <path
                d="M118.913 491.077L120.123 513.164C105.295 525.273 85.2118 520.753 77.4688 508.073C64.8219 489.049 74.8381 472.774 74.8381 472.774C82.8875 455.772 99.091 454.953 99.091 454.953C110.411 454.176 114.663 459.462 114.663 459.462L115.141 475.453C115.141 475.453 104.828 471.289 98.437 476.879C98.437 476.879 91.514 481.647 95.0262 490.412C95.0262 490.412 97.5371 497.878 107.665 496.848C107.665 496.848 114.936 496.074 118.913 491.077Z"
                fill="#00BDB9" />
            <path
                d="M103.628 323.526L85.8653 321.325L60.9166 366.323L72.9492 371.804L79.4488 361.113L91.2832 362.756L92.6714 378.845L109.279 378.16L103.628 323.526ZM91.6928 336.428L92.3199 352.981L82.5258 351.204L91.6928 336.428Z"
                fill="#00BDB9" />
            <path
                d="M48.7797 394.945C45.9192 394.058 44.0458 393.64 44.0458 393.64L24.8968 443.02C28.7149 445.292 46.8976 453.044 46.8976 453.044C54.5656 456.456 62.1412 455.606 62.1412 455.606C75.081 454.116 76.4139 440.495 76.4139 440.495C78.6552 426.551 65.9885 423.065 65.9885 423.065C75.3211 419.479 71.6531 410.337 71.6531 410.337C69.5084 403.314 59.2647 398.551 51.8668 395.959C50.7251 395.555 49.6948 395.221 48.7817 394.939L48.7797 394.945ZM56.1008 406.661C56.1008 406.661 62.5668 408.615 61.2488 414.543C61.2488 414.543 60.3199 421.543 51.741 419.496L56.1008 406.661ZM51.6511 426.594C54.5096 427.486 60.1661 430.078 58.8753 436.129C58.8753 436.129 58.385 441.156 54.2813 442.452C54.2813 442.452 49.3764 444.154 44.1431 441.29L50.0437 426.18C50.0437 426.18 50.6774 426.292 51.6511 426.594Z"
                fill="#00BDB9" />
            <path fill-rule="evenodd" clip-rule="evenodd"
                d="M32.8232 275.286C32.1144 271.985 34.2604 268.721 37.5402 268.017L68.8719 261.289C72.1516 260.584 75.4485 262.68 76.1573 265.98C76.8661 269.281 74.7201 272.545 71.4404 273.249L40.1086 279.978C36.8289 280.682 33.532 278.587 32.8232 275.286Z"
                fill="#00BDB9" />
            <path fill-rule="evenodd" clip-rule="evenodd"
                d="M38.0263 296.235C37.3175 292.935 39.4636 289.671 42.7433 288.966L74.075 282.238C77.3547 281.534 80.6516 283.629 81.3604 286.929C82.0692 290.23 79.9232 293.494 76.6435 294.198L45.3118 300.927C42.032 301.631 38.7351 299.536 38.0263 296.235Z"
                fill="#00BDB9" />
        </g>
        <path fill-rule="evenodd" clip-rule="evenodd"
            d="M749.219 455.309C772.402 432.609 760.328 392.764 760.328 392.764C760.328 392.764 756.911 382.23 756.484 380.01C756.484 380.01 754.35 373.094 761.094 375.826C761.094 375.826 771.681 381.547 773.73 396.829C773.73 396.829 775.353 381.376 774.84 379.327C774.84 379.327 775.267 372.497 779.536 376.424C779.536 376.424 792.343 386.669 787.049 408.355C787.049 408.355 789.525 406.05 790.294 403.147C790.294 403.147 794.392 397.598 797.38 405.965C797.38 405.965 802.467 416.55 794.559 433.998C794.559 433.998 792.343 439.775 791.745 440.628C791.745 440.628 795.075 437.555 796.441 434.567C796.441 434.567 798.149 430.725 800.795 432.603C800.795 432.603 802.93 435.677 800.112 445.41C800.112 445.41 790.123 487.757 763.314 498.003C763.314 498.003 747.775 503.808 740.604 479.903C740.604 479.903 737.344 461.793 749.219 455.309Z"
            fill="#173C3F" />
        <path fill-rule="evenodd" clip-rule="evenodd"
            d="M733.921 455.172C710.738 432.472 722.812 392.627 722.812 392.627C722.812 392.627 726.229 382.093 726.656 379.873C726.656 379.873 728.791 372.957 722.046 375.69C722.046 375.69 711.459 381.41 709.41 396.693C709.41 396.693 707.788 381.239 708.3 379.19C708.3 379.19 707.873 372.36 703.604 376.287C703.604 376.287 690.797 386.533 696.091 408.219C696.091 408.219 693.615 405.914 692.846 403.011C692.846 403.011 688.748 397.461 685.76 405.828C685.76 405.828 680.673 416.413 688.582 433.861C688.582 433.861 690.797 439.638 691.395 440.492C691.395 440.492 688.065 437.418 686.699 434.43C686.699 434.43 684.992 430.588 682.345 432.466C682.345 432.466 680.21 435.54 683.028 445.273C683.028 445.273 693.017 487.621 719.826 497.866C719.826 497.866 735.365 503.672 742.537 479.766C742.537 479.766 745.796 461.656 733.921 455.172Z"
            fill="#173C3F" />
        <path fill-rule="evenodd" clip-rule="evenodd"
            d="M751.528 533.623C746.064 530.55 726.683 536.185 726.427 536.099C726.256 534.306 726.683 531.062 726.683 531.062C726.512 527.305 725.573 524.829 725.573 524.829C720.536 513.56 717.377 484.531 717.377 484.531C717.377 484.531 722.67 443.549 757.163 464.894C757.163 464.894 768.006 478.042 766.811 496.142C766.811 496.142 765.849 512.45 761.518 524.232C761.518 524.232 760.016 527.089 760.189 531.158C760.189 531.158 760.13 533.671 759.086 535.904C759.086 535.904 756.224 537.892 751.528 533.623Z"
            fill="#173C3F" />
        <path fill-rule="evenodd" clip-rule="evenodd"
            d="M725.948 537.034C725.586 537.034 718.583 540.475 717.194 544.459C717.194 544.459 715.926 547.78 717.375 549.772C717.375 549.772 718.741 550.974 719.467 549.415C719.467 549.415 719.659 548.967 719.702 548.028C719.702 548.028 719.723 547.153 720.171 546.747C720.171 546.747 719.787 549.309 720.321 550.248C720.321 550.248 721.409 551.87 723.053 550.419C723.053 550.419 723.971 549.714 724.163 548.946C724.163 548.946 724.654 551.102 725.998 550.696C725.998 550.696 727.407 550.696 728.026 547.537C728.026 547.537 729.902 541.26 728.816 538.452C728.816 538.452 728.997 536.128 725.948 537.034Z"
            fill="#CE9434" />
        <path fill-rule="evenodd" clip-rule="evenodd"
            d="M756.217 539.889C756.217 539.889 756.004 541.213 756.943 543.091C756.943 543.091 758.01 545.908 758.01 546.805C758.01 546.805 758.266 549.409 759.462 549.836C759.462 549.836 761.254 551.159 761.98 548.47C761.98 548.47 764.115 550.86 765.865 548.427C765.865 548.427 768.298 550.22 769.323 548.64C769.323 548.64 770.262 546.976 769.408 544.628C769.408 544.628 768.682 542.365 766.036 540.956C766.036 540.956 761.126 538.566 760.529 538.31C760.529 538.31 759.035 537.712 757.925 537.797C756.601 537.797 756.217 539.889 756.217 539.889Z"
            fill="#CE9434" />
        <path fill-rule="evenodd" clip-rule="evenodd"
            d="M761.961 548.513C762.172 546.038 760.361 542.234 760.361 542.234C760.361 542.234 763.621 544.046 763.923 549.449C763.923 549.449 762.686 549.63 761.961 548.513Z"
            fill="#AD7821" />
        <path fill-rule="evenodd" clip-rule="evenodd"
            d="M762.746 542.082C762.957 542.263 766.066 545.704 766.459 548.512C766.459 548.512 767.636 549.538 768.632 548.995C768.632 548.995 767.817 544.225 762.746 542.082Z"
            fill="#AD7821" />
        <path fill-rule="evenodd" clip-rule="evenodd"
            d="M725.214 480.06C725.214 480.06 727.093 509.089 729.483 522.578C729.483 522.578 730.535 528.241 727.577 533.313C727.577 533.313 726.196 536.367 725.94 536.794C725.94 536.794 725.214 538.672 726.324 539.355C726.495 539.441 727.477 540.337 729.184 538.8C729.184 538.8 733.624 535.812 738.192 535.599C738.192 535.599 745.62 534.702 748.523 535.94C748.523 535.94 752.45 537.093 755.908 539.868C755.908 539.868 757.793 541.04 759 540.406C759 540.406 760.208 540.134 759.846 538.686C759.815 538.595 758.427 534.097 758.366 530.717C758.366 530.717 757.642 525.102 758.306 521.963C758.306 521.963 761.159 493.55 759.963 485.183C759.963 485.183 760.057 465.032 745.085 458.874C745.085 458.874 738.294 458.041 735.184 458.874C735.184 458.874 723.697 464.781 725.214 480.06Z"
            fill="#BCB9A8" />
        <path fill-rule="evenodd" clip-rule="evenodd"
            d="M736.234 468.447C736.234 468.447 729.031 484.391 715.629 486.383C715.629 486.383 709.833 487.953 702.649 479.38C702.649 479.38 695.224 468.694 697.457 459.035C697.457 459.035 695.042 461.631 695.163 464.77C695.163 464.77 695.314 466.491 693.744 465.253C693.744 465.253 687.375 455.292 696.008 447.021C696.008 447.021 694.085 446.809 692.847 448.089C692.847 448.089 691.353 449.754 691.14 447.492C691.14 447.492 691.012 440.107 700.958 437.716C700.958 437.716 695.793 432.721 701.513 426.403C701.513 426.403 702.922 434.13 712.484 431.099C712.484 431.099 710.691 421.281 719.827 417.353C719.827 417.353 720.083 426.062 726.23 426.062C726.23 426.062 734.427 426.062 744.587 415.219C744.587 415.219 745.696 419.744 744.245 423.671C744.245 423.671 748.258 419.402 748.855 416.499C748.855 416.499 752.441 420.171 752.185 425.208C752.185 425.208 762.943 425.976 769.859 420.341C769.859 420.341 771.481 425.037 769.432 429.733C769.432 429.733 774.042 429.477 776.689 424.525C776.689 424.525 780.104 427.94 776.689 433.917C776.689 433.917 786.422 434.77 787.446 444.162C787.446 444.162 787.683 446.025 786.294 445.361C786.294 445.361 784.543 444.183 782.793 444.032C782.793 444.032 788.044 448.346 787.617 453.297C787.617 453.297 787.703 457.823 783.434 459.274C783.434 459.274 786.08 465.848 780.958 471.483C780.958 471.483 779.933 472.892 779.207 471.056C779.207 471.056 779.122 470.373 778.567 470.416C778.567 470.416 776.86 480.789 772.078 483.351C772.078 483.351 766.273 488.986 759.357 485.058C759.357 485.058 755.088 481.985 751.161 471.91C751.161 471.91 749.959 467.348 745.69 465.213C745.69 465.213 739.93 461.717 736.234 468.447Z"
            fill="#225054" />
        <path
            d="M770.365 464.948C763.579 467.74 754.952 463.733 751.097 455.996C747.242 448.26 749.618 439.724 756.405 436.932C763.191 434.139 771.818 438.147 775.673 445.883C779.528 453.619 777.151 462.155 770.365 464.948Z"
            fill="#173C3F" />
        <path
            d="M716.262 458.17C723.048 460.963 731.675 456.955 735.53 449.219C739.385 441.483 737.009 432.947 730.222 430.154C723.436 427.362 714.809 431.369 710.954 439.106C707.099 446.842 709.475 455.378 716.262 458.17Z"
            fill="#173C3F" />
        <path
            d="M712.451 465.194C719.238 467.986 727.864 463.979 731.719 456.242C735.574 448.506 733.198 439.97 726.412 437.178C719.625 434.385 710.999 438.393 707.144 446.129C703.289 453.865 705.665 462.401 712.451 465.194Z"
            fill="#173C3F" />
        <path
            d="M714.365 461.416C721.152 464.209 729.778 460.201 733.633 452.465C737.488 444.729 735.112 436.193 728.326 433.4C721.539 430.608 712.913 434.615 709.058 442.352C705.203 450.088 707.579 458.624 714.365 461.416Z"
            fill="#D6D4C8" />
        <path
            d="M766.556 457.924C759.769 460.717 751.143 456.709 747.288 448.973C743.433 441.236 745.809 432.701 752.595 429.908C759.381 427.116 768.008 431.123 771.863 438.86C775.718 446.596 773.342 455.131 766.556 457.924Z"
            fill="#173C3F" />
        <path
            d="M768.787 461.416C762.001 464.209 753.374 460.201 749.519 452.465C745.664 444.729 748.04 436.193 754.827 433.4C761.613 430.608 770.239 434.615 774.094 442.352C777.95 450.088 775.573 458.624 768.787 461.416Z"
            fill="#D6D4C8" />
        <path fill-rule="evenodd" clip-rule="evenodd"
            d="M734.1 453.147C734.1 453.147 735.893 448.366 739.479 447.64C739.479 447.64 741.784 447.128 743.748 447.939C743.748 447.939 747.889 448.921 749.34 454.086C749.34 454.086 749.725 454.556 749.084 456.306C749.084 456.306 744.132 478.504 743.876 479.529C743.876 479.529 743.197 482.003 741.808 481.942C741.808 481.942 740.118 482.154 739.544 479.226C739.544 479.226 734.69 459.184 734.483 457.521C733.317 454.834 734.1 453.147 734.1 453.147Z"
            fill="#FAB84A" />
        <path fill-rule="evenodd" clip-rule="evenodd"
            d="M746.7 458.649C746.273 464.711 743.327 473.377 743.327 473.377C741.406 478.457 739.955 473.377 739.955 473.377C739.485 472.523 736.113 458.905 736.113 458.905C736.113 458.905 735.419 457.88 736.914 458.137C736.914 458.137 741.315 461.713 745.632 458.008C745.632 458.008 746.572 457.155 746.7 458.649Z"
            fill="#93671D" />
        <path
            d="M732.752 439.18C732.752 440.941 731.823 442.63 730.167 443.879C728.512 445.127 726.265 445.832 723.919 445.84C721.572 445.849 719.317 445.159 717.646 443.923C715.975 442.686 715.024 441.003 715.002 439.242C714.98 437.481 715.889 435.785 717.528 434.526C719.168 433.266 721.406 432.545 723.752 432.52C726.099 432.495 728.363 433.169 730.049 434.394C731.735 435.618 732.707 437.294 732.751 439.055"
            fill="#FAB84A" />
        <path
            d="M731.042 438.042C731.042 439.373 730.34 440.65 729.089 441.593C727.838 442.536 726.14 443.069 724.366 443.076C722.593 443.082 720.888 442.561 719.625 441.626C718.362 440.692 717.644 439.42 717.627 438.089C717.611 436.758 718.297 435.476 719.536 434.524C720.776 433.572 722.467 433.027 724.241 433.008C726.014 432.99 727.725 433.499 729 434.424C730.274 435.35 731.008 436.617 731.041 437.948"
            fill="black" />
        <path
            d="M720.674 436.65C720.674 437.067 720.453 437.468 720.061 437.764C719.668 438.06 719.135 438.227 718.579 438.229C718.023 438.231 717.488 438.067 717.092 437.774C716.695 437.481 716.47 437.082 716.465 436.664C716.46 436.247 716.675 435.845 717.064 435.546C717.453 435.247 717.983 435.076 718.54 435.07C719.096 435.065 719.633 435.224 720.033 435.515C720.433 435.805 720.663 436.203 720.673 436.62"
            fill="white" />
        <path
            d="M768.244 439.219C768.244 440.98 767.315 442.669 765.66 443.918C764.004 445.166 761.757 445.871 759.411 445.879C757.064 445.888 754.809 445.198 753.138 443.962C751.467 442.725 750.516 441.042 750.495 439.281C750.473 437.52 751.381 435.825 753.021 434.565C754.66 433.305 756.898 432.584 759.245 432.559C761.591 432.535 763.855 433.208 765.541 434.433C767.227 435.658 768.199 437.334 768.243 439.094"
            fill="#FAB84A" />
        <path
            d="M766.536 438.081C766.536 439.412 765.834 440.689 764.583 441.632C763.332 442.575 761.634 443.109 759.86 443.115C758.087 443.121 756.382 442.6 755.119 441.665C753.856 440.731 753.138 439.459 753.121 438.128C753.105 436.797 753.791 435.515 755.031 434.563C756.27 433.611 757.961 433.066 759.735 433.047C761.508 433.029 763.219 433.538 764.493 434.463C765.768 435.389 766.502 436.656 766.535 437.987"
            fill="black" />
        <path
            d="M756.168 436.689C756.168 437.106 755.947 437.507 755.555 437.803C755.162 438.099 754.63 438.266 754.073 438.268C753.517 438.27 752.982 438.106 752.586 437.813C752.19 437.52 751.964 437.121 751.959 436.703C751.954 436.286 752.169 435.884 752.558 435.585C752.947 435.286 753.477 435.115 754.034 435.11C754.59 435.104 755.127 435.263 755.527 435.554C755.927 435.844 756.157 436.242 756.167 436.659"
            fill="white" />
        <path fill-rule="evenodd" clip-rule="evenodd"
            d="M738.002 532.318C738.002 532.318 745.345 530.525 748.931 532.233C748.931 532.233 756.855 522.777 757.096 504.062C757.096 504.062 757.298 492.105 755.846 487.068C755.846 487.068 749.187 479.042 747.565 474.773C747.565 474.773 745.174 487.751 745.003 488.519C745.003 488.519 743.04 494.581 740.137 489.8C740.137 489.8 736.124 480.835 736.039 475.371C736.039 475.371 733.648 477.676 733.221 478.018C733.221 478.018 730.574 486.726 729.806 488.178C729.806 488.178 725.537 515.243 738.002 532.318Z"
            fill="#D5D3C7" />
        <path fill-rule="evenodd" clip-rule="evenodd"
            d="M721.089 550.482C720.363 545.786 723.565 541.816 723.565 541.816C718.528 544.719 718.57 550.055 718.57 550.055C718.57 550.055 719.467 550.333 719.702 548.284C719.702 548.284 719.915 550.333 721.089 550.482Z"
            fill="#AD7821" />
        <path fill-rule="evenodd" clip-rule="evenodd"
            d="M723.992 549.029C723.992 549.029 724.718 544.248 725.956 542.477C725.956 542.477 725.785 550.011 725.636 550.694C725.636 550.694 724.462 550.545 723.992 549.029Z"
            fill="#AD7821" />
        <path fill-rule="evenodd" clip-rule="evenodd"
            d="M712.524 297.001C711.252 297.033 710.323 297.644 710.323 297.644C710.323 297.644 693.845 308.658 691.369 330.856C691.369 330.856 691.113 334.869 695.638 336.235C695.638 336.235 704.859 339.224 713.567 340.76C713.567 340.76 714.72 341.059 713.951 342.34C713.951 342.34 710.792 345.627 710.109 345.926C710.109 345.926 709.469 346.353 708.231 346.139C708.231 346.139 705.456 345.342 704.309 344.92C704.309 344.92 702.257 344.043 701.442 345.341C701.442 345.341 700.174 346.579 701.502 348.602C701.502 348.602 703.877 352.756 707.719 354.72C707.719 354.72 711.902 357.494 714.079 352.457C714.079 352.457 716.897 346.182 717.281 344.645C717.281 344.645 719.101 352.043 731.235 364.419C731.235 364.419 731.625 364.709 731.753 365.584C731.753 365.584 731.597 373.837 731.567 374.23C731.567 374.23 731.719 377.731 726.557 380.508C726.557 380.508 722.062 382.724 724.624 385.669C724.624 385.669 737.393 394.514 757.98 385.881C757.98 385.881 759.459 384.855 758.523 382.38C758.523 382.38 758.221 381.444 756.893 380.749C756.893 380.749 752.486 378.606 751.067 375.497C751.067 375.497 750.675 373.957 750.826 372.388C750.826 372.388 751.304 365.307 751.518 364.752C751.518 364.752 751.476 363.962 752.457 363.386C752.457 363.386 763.293 355.242 766.915 346.972C766.901 351.048 770.173 354.079 770.173 354.079C772.393 356.214 774.869 355.189 774.869 355.189C781.614 353.396 782.249 347.213 782.249 347.213C782.249 344.194 779.473 345.341 779.473 345.341C778.144 345.764 776.815 345.764 776.815 345.764C774.4 345.764 773.247 342.852 773.247 342.852C772.436 340.934 774.039 340.935 774.039 340.935C775.85 341.358 784.845 340.935 784.845 340.935C788.105 340.875 788.529 337.943 788.529 337.943C791.518 313.439 776.747 300.291 776.747 300.291C774.826 298.285 772.82 299.949 772.82 299.949C771.454 300.718 766.251 305.255 766.251 305.255C766.009 303.806 763.715 303.685 763.715 303.685C745.422 300.908 726.768 306.221 726.768 306.221C724.594 306.764 723.749 308.394 723.749 308.394C722.119 303.504 715.056 297.83 715.056 297.83C714.173 297.173 713.287 296.982 712.524 297.001ZM711.184 303.505C711.6 303.49 712.157 303.655 712.882 304.289C712.882 304.289 719.523 309.783 721.153 314.975C721.153 314.975 717.47 325.178 716.202 333.63C716.202 333.63 715.84 336.105 713.003 335.622C713.003 335.622 698.996 331.939 697.427 331.637C697.427 331.637 696.581 331.275 697.004 329.464C697.004 329.464 701.472 311.594 710.347 303.806C710.498 303.716 710.769 303.52 711.184 303.505ZM773.528 304.627C773.933 304.627 774.379 304.75 774.763 305.135C774.763 305.135 785.797 319.074 784.431 333.503C784.431 333.503 784.26 335.68 782.809 335.51C782.126 335.339 773.204 335.51 773.204 335.51C772.265 335.296 772.051 334.101 772.051 334.101C771.283 324.197 766.19 311.956 766.19 311.956C766.19 311.956 770.174 306.101 772.288 304.953C772.288 304.953 772.853 304.624 773.528 304.627Z"
            fill="#E2CB43" />
        <path fill-rule="evenodd" clip-rule="evenodd"
            d="M717.315 342.828C717.315 342.828 724.861 355.868 738.807 356.05C738.807 356.05 749.553 357.136 760.058 347.356C760.058 347.356 771.33 337.293 770.818 326.535C770.818 326.535 771.778 329.523 772.077 334.262C772.077 334.262 772.37 335.291 773.33 335.526C773.33 335.526 771.529 335.765 770.864 337.938C770.864 337.938 769.234 343.553 767.967 345.847C767.967 345.847 770.381 352.186 776.781 350.616C776.781 350.616 781.988 348.126 781.324 345.288C781.324 345.288 782.365 345.545 782.335 347.356C782.335 347.356 782.109 352.106 776.645 354.753C776.645 354.753 772.248 357.485 769.43 353.472C769.43 353.472 767.552 351.636 766.783 347.538C766.783 347.538 763.027 355.564 753.123 362.992C753.123 362.992 751.364 363.777 751.334 365.739C751.334 365.739 750.873 374.126 751.001 375.023C751.001 375.023 751.107 376.045 752.568 377.624C752.568 377.624 754.469 379.334 755.664 380.06C755.664 380.06 755.684 384.934 744.457 385.062C744.457 385.062 736.858 385.446 732.803 384.379C732.803 384.379 728.651 383.034 725.962 380.857C725.962 380.857 728.523 379.448 729.911 377.848C729.911 377.848 731.565 376.524 731.608 373.579C731.608 373.579 731.778 366.193 731.736 365.809C731.736 365.809 731.778 364.699 730.882 364.102C730.882 364.102 720.295 353.771 717.307 345.148C717.307 345.148 714.062 353.472 713.465 353.814C713.465 353.814 712.269 356.418 709.025 355.564C709.025 355.564 703.761 353.695 701.135 347.96C701.135 347.96 700.773 346.964 700.954 346.42C700.954 346.42 704.757 351.461 708.742 351.19C708.742 351.19 710.221 351.009 710.825 350.013C710.825 350.013 713.511 347.145 715.051 344.187C715.051 344.187 716.077 341.953 717.315 342.828Z"
            fill="#C3AE2F" />
        <path fill-rule="evenodd" clip-rule="evenodd"
            d="M730.15 338.73L733.113 340.441V345.177H742.231L744.185 348.561H729.595L730.15 338.73Z"
            fill="#C3AE2F" />
        <path fill-rule="evenodd" clip-rule="evenodd"
            d="M726.904 324.426H730.362L733.905 329.506L738.772 326.304L738.302 340.093C738.302 340.093 736.232 338.406 736.189 338.065L736.339 331.085L732.795 334.116L726.904 324.426Z"
            fill="#C3AE2F" />
        <path fill-rule="evenodd" clip-rule="evenodd"
            d="M736.852 316.189L738.922 318.259H744.92V336.125L747.672 334.414L747.883 315.805L736.852 316.189Z"
            fill="#F4DE5E" />
        <path fill-rule="evenodd" clip-rule="evenodd"
            d="M745.347 339.626L748.832 337.613H755.336V346.797L751.877 344.801V339.796L745.347 339.626Z"
            fill="#F4DE5E" />
        <path fill-rule="evenodd" clip-rule="evenodd"
            d="M772.465 344.809C772.401 344.894 771.356 345.471 771.716 347.22C771.716 347.22 771.929 350.315 777.543 349.27C777.543 349.27 779.357 348.779 779.443 347.092C779.443 347.092 779.315 345.982 777.735 345.961C777.735 345.961 776.624 346.216 775.828 346.123C775.743 346.166 774.675 345.77 774.035 345.193C774.035 345.193 773.409 344.535 772.465 344.809Z"
            fill="#FFED83" />
        <path fill-rule="evenodd" clip-rule="evenodd"
            d="M760.554 318.017C760.554 318.017 758.743 319.285 760.494 323.873C760.494 323.873 764.418 336.612 762.486 341.985C762.486 341.985 767.135 335.827 767.377 326.832C767.377 326.832 768.101 319.828 764.479 317.293C762.728 316.448 760.554 318.017 760.554 318.017Z"
            fill="#F4DE5E" />
        <path fill-rule="evenodd" clip-rule="evenodd"
            d="M762.426 314.036C762.426 314.036 759.89 314.096 760.554 317.538C760.554 317.538 761.037 319.228 762.064 320.918C762.064 320.918 764.056 326.895 764.78 332.63C764.78 332.63 764.961 334.985 766.35 332.027C766.35 332.027 768.704 327.68 766.108 317.417C766.108 317.417 765.022 313.251 762.426 314.036Z"
            fill="#FFED83" />
        <path fill-rule="evenodd" clip-rule="evenodd"
            d="M783.614 335.747C783.614 335.747 785.919 337.156 787.029 333.698C787.029 333.698 789.58 317.597 774.789 305.16C774.789 305.16 781.234 313.333 783.649 324.321C783.649 324.321 784.98 329.899 784.382 333.228C784.382 333.228 784.19 334.979 783.464 335.47L783.614 335.747Z"
            fill="#C3AE2F" />
        <path fill-rule="evenodd" clip-rule="evenodd"
            d="M697.239 331.573C697.239 331.573 695.488 332.554 694.763 330.505C694.763 330.505 693.979 312.525 710.521 303.59C710.521 303.59 701.586 311.438 697.239 329.55C697.239 329.55 696.897 330.676 697.239 331.573Z"
            fill="#C3AE2F" />
        <path fill-rule="evenodd" clip-rule="evenodd"
            d="M774.976 305.333C774.976 305.333 772.997 303.439 773.21 302.03C773.21 302.03 773.21 299.64 775.686 300.067C775.686 300.067 777.052 300.664 778.888 303.098C778.888 303.098 785.058 311.491 786.688 324.652C786.688 324.652 785.541 316.683 777.813 307.929L774.976 305.333Z"
            fill="#FFED83" />
        <path fill-rule="evenodd" clip-rule="evenodd"
            d="M712.466 297.492C712.013 297.643 709.085 298.307 710.081 300.722C710.081 300.722 709.81 301.416 713.462 302.443C713.462 302.443 715.273 303.197 716.511 304.978C716.511 304.978 718.926 309.023 719.771 303.439C719.771 303.439 715.786 297.673 712.466 297.492Z"
            fill="#F4DE5E" />
        <path fill-rule="evenodd" clip-rule="evenodd"
            d="M733.124 308.719C733.124 308.719 747.674 303.467 761.74 305.459C761.74 305.459 764.668 306.093 764.638 307.3C764.638 307.3 764.91 308.417 763.642 308.991C763.642 308.991 744.957 307.693 733.124 308.719Z"
            fill="#F4DE5E" />
        <path fill-rule="evenodd" clip-rule="evenodd"
            d="M719.824 318.952C719.824 318.952 744.486 312.191 766.703 313.217L766.205 311.964C766.205 311.964 767.982 309.436 768.163 309.255C768.163 309.255 737.108 305.26 719.54 311.66L720.918 314.328C720.918 314.328 736.487 308.863 757.315 310.674C757.315 310.674 728.88 313.111 720.609 316.553L719.824 318.952Z"
            fill="#C3AE2F" />
        <path fill-rule="evenodd" clip-rule="evenodd"
            d="M732.488 311.549C732.488 311.549 749.436 308.177 758.401 310.482C758.401 310.482 759.657 311.285 758.027 311.949C758.027 311.949 756.971 312.372 752.292 312.372C752.292 312.372 742.093 312.915 732.488 311.549Z"
            fill="#F4DE5E" />
        <path fill-rule="evenodd" clip-rule="evenodd"
            d="M528.065 55.3142C528.065 55.3142 528.065 55.3142 528.065 55.3142C530.431 62.1576 525.382 66.7133 522.382 68.2457C522.276 68.2997 522.149 68.2425 522.112 68.1296C519.874 61.2536 525.127 56.7277 528.065 55.3142C528.065 55.3142 528.065 55.3142 528.065 55.3142L528.065 55.3142C528.065 55.3142 528.065 55.3142 528.065 55.3142C528.065 55.3142 528.065 55.3142 528.065 55.3142C528.065 55.3142 528.065 55.3142 528.065 55.3142C528.065 55.3142 528.065 55.3142 528.065 55.3142L528.065 55.3142Z"
            fill="#D19302" />
        <path fill-rule="evenodd" clip-rule="evenodd"
            d="M516.03 60.8093C516.03 60.8093 516.03 60.8093 516.03 60.8093C521.14 65.9389 518.579 72.2391 516.546 74.9249C516.475 75.0196 516.335 75.0236 516.253 74.938C511.244 69.7232 514.001 63.3612 516.03 60.8093C516.03 60.8093 516.03 60.8093 516.03 60.8093L516.03 60.8093C516.03 60.8093 516.03 60.8093 516.03 60.8093C516.03 60.8093 516.03 60.8093 516.03 60.8093C516.03 60.8093 516.03 60.8093 516.03 60.8093C516.03 60.8093 516.03 60.8093 516.03 60.8093L516.03 60.8093Z"
            fill="#D19302" />
        <path fill-rule="evenodd" clip-rule="evenodd"
            d="M532.339 68.6183C532.339 68.6183 532.339 68.6183 532.339 68.6183C529.428 75.2478 522.627 75.1617 519.385 74.2489C519.271 74.2167 519.216 74.0884 519.266 73.9805C522.294 67.414 529.223 67.6603 532.339 68.6183C532.339 68.6183 532.339 68.6183 532.339 68.6183L532.339 68.6183C532.339 68.6183 532.339 68.6183 532.339 68.6183C532.339 68.6183 532.339 68.6183 532.339 68.6183C532.339 68.6183 532.339 68.6183 532.339 68.6183C532.339 68.6183 532.339 68.6183 532.339 68.6183L532.339 68.6183Z"
            fill="#D19302" />
        <path fill-rule="evenodd" clip-rule="evenodd"
            d="M528.853 78.143C528.853 78.143 528.853 78.143 528.853 78.143C524.492 83.923 517.895 82.272 514.95 80.6365C514.846 80.5789 514.823 80.4414 514.896 80.348C519.356 74.656 526.042 76.4926 528.853 78.143C528.853 78.143 528.853 78.143 528.853 78.143L528.853 78.143C528.853 78.143 528.853 78.143 528.853 78.143C528.853 78.143 528.853 78.143 528.853 78.143C528.853 78.143 528.853 78.143 528.853 78.143C528.853 78.143 528.853 78.143 528.853 78.143L528.853 78.143Z"
            fill="#D19302" />
        <path fill-rule="evenodd" clip-rule="evenodd"
            d="M523.148 86.0442C523.148 86.0442 523.148 86.0442 523.148 86.0442C517.548 90.635 511.525 87.4773 509.048 85.1947C508.961 85.1142 508.97 84.9751 509.064 84.9015C514.738 80.4193 520.804 83.7784 523.148 86.0442C523.148 86.0442 523.148 86.0442 523.148 86.0442L523.148 86.0442C523.148 86.0442 523.148 86.0442 523.148 86.0442C523.148 86.0442 523.148 86.0442 523.148 86.0442C523.148 86.0442 523.148 86.0442 523.148 86.0442C523.148 86.0442 523.148 86.0442 523.148 86.0442L523.148 86.0442Z"
            fill="#D19302" />
        <path fill-rule="evenodd" clip-rule="evenodd"
            d="M516.448 93.3856C516.448 93.3856 516.448 93.3856 516.448 93.3856C509.768 96.1814 504.901 91.4315 503.181 88.5353C503.121 88.4333 503.17 88.3026 503.28 88.2588C510 85.5887 514.851 90.5436 516.448 93.3856C516.448 93.3856 516.448 93.3856 516.448 93.3856L516.448 93.3856C516.448 93.3856 516.448 93.3856 516.448 93.3856C516.448 93.3856 516.448 93.3856 516.448 93.3856C516.448 93.3856 516.448 93.3856 516.448 93.3856C516.448 93.3856 516.448 93.3856 516.448 93.3856L516.448 93.3856Z"
            fill="#D19302" />
        <path fill-rule="evenodd" clip-rule="evenodd"
            d="M508.515 97.9326C508.515 97.9326 508.515 97.9326 508.515 97.9326C501.388 99.2117 497.668 93.5185 496.618 90.3181C496.581 90.2053 496.657 90.0884 496.774 90.0695C503.914 88.9219 507.573 94.8116 508.515 97.9326C508.515 97.9326 508.515 97.9326 508.515 97.9326L508.515 97.9326C508.515 97.9326 508.515 97.9326 508.515 97.9326C508.515 97.9326 508.515 97.9326 508.515 97.9326C508.515 97.9326 508.515 97.9326 508.515 97.9326C508.515 97.9326 508.515 97.9326 508.515 97.9326L508.515 97.9326Z"
            fill="#D19302" />
        <path fill-rule="evenodd" clip-rule="evenodd"
            d="M509.761 66.4109C509.761 66.4109 509.761 66.4109 509.761 66.4109C515.149 71.2476 512.944 77.6808 511.064 80.4758C510.998 80.5743 510.859 80.586 510.772 80.5051C505.479 75.5778 507.877 69.072 509.761 66.4109C509.761 66.4109 509.761 66.4109 509.761 66.4109L509.761 66.4109C509.761 66.4109 509.761 66.4109 509.761 66.4109C509.761 66.4109 509.761 66.4109 509.761 66.4109C509.761 66.4109 509.761 66.4109 509.761 66.4109C509.761 66.4109 509.761 66.4109 509.761 66.4109L509.761 66.4109Z"
            fill="#D19302" />
        <path fill-rule="evenodd" clip-rule="evenodd"
            d="M504.277 70.6159C504.277 70.6159 504.277 70.6159 504.277 70.6159C509.532 75.5975 507.152 81.9683 505.196 84.711C505.127 84.8077 504.988 84.8156 504.903 84.7324C499.747 79.6627 502.322 73.2246 504.277 70.6159C504.277 70.6159 504.277 70.6159 504.277 70.6159L504.277 70.6159C504.277 70.6159 504.277 70.6159 504.277 70.6159C504.277 70.6159 504.277 70.6159 504.277 70.6159C504.277 70.6159 504.277 70.6159 504.277 70.6159C504.277 70.6159 504.277 70.6159 504.277 70.6159L504.277 70.6159Z"
            fill="#D19302" />
        <path fill-rule="evenodd" clip-rule="evenodd"
            d="M498.123 72.845C498.123 72.845 498.123 72.845 498.123 72.845C503.075 78.1277 500.324 84.3471 498.21 86.9698C498.136 87.0623 497.996 87.062 497.917 86.9739C493.068 81.6092 496.018 75.334 498.123 72.845C498.123 72.845 498.123 72.845 498.123 72.845L498.123 72.845C498.123 72.845 498.123 72.845 498.123 72.845C498.123 72.845 498.123 72.845 498.123 72.845C498.123 72.845 498.123 72.845 498.123 72.845C498.123 72.845 498.123 72.845 498.123 72.845L498.123 72.845Z"
            fill="#D19302" />
        <path fill-rule="evenodd" clip-rule="evenodd"
            d="M491.154 89.2448C508.533 89.7147 518.51 75.3778 521.611 68.4108C521.633 68.361 521.609 68.3057 521.56 68.2833C521.509 68.2606 521.452 68.2804 521.429 68.3307C518.425 75.0525 507.756 88.3033 491.192 87.8555L491.154 89.2448Z"
            fill="#835C00" />
        <path fill-rule="evenodd" clip-rule="evenodd"
            d="M334.64 55.3142C334.64 55.3142 334.64 55.3142 334.64 55.3142C332.274 62.1576 337.323 66.7133 340.323 68.2457C340.429 68.2997 340.556 68.2425 340.593 68.1296C342.831 61.2536 337.578 56.7277 334.64 55.3142C334.64 55.3142 334.64 55.3142 334.64 55.3142L334.64 55.3142C334.64 55.3142 334.64 55.3142 334.64 55.3142C334.64 55.3142 334.64 55.3142 334.64 55.3142C334.64 55.3142 334.64 55.3142 334.64 55.3142C334.64 55.3142 334.64 55.3142 334.64 55.3142L334.64 55.3142Z"
            fill="#D19302" />
        <path fill-rule="evenodd" clip-rule="evenodd"
            d="M346.676 60.8093C346.676 60.8093 346.676 60.8093 346.676 60.8093C341.565 65.9389 344.126 72.2391 346.159 74.9249C346.23 75.0196 346.37 75.0236 346.452 74.938C351.461 69.7232 348.704 63.3612 346.676 60.8093C346.676 60.8093 346.676 60.8093 346.676 60.8093L346.676 60.8093C346.676 60.8093 346.676 60.8093 346.676 60.8093C346.676 60.8093 346.676 60.8093 346.676 60.8093C346.676 60.8093 346.676 60.8093 346.676 60.8093C346.676 60.8093 346.676 60.8093 346.676 60.8093L346.676 60.8093Z"
            fill="#D19302" />
        <path fill-rule="evenodd" clip-rule="evenodd"
            d="M330.366 68.6183C330.366 68.6183 330.366 68.6183 330.366 68.6183C333.277 75.2478 340.078 75.1617 343.32 74.2489C343.434 74.2167 343.489 74.0884 343.439 73.9805C340.411 67.414 333.482 67.6603 330.366 68.6183C330.366 68.6183 330.366 68.6183 330.366 68.6183L330.366 68.6183C330.366 68.6183 330.366 68.6183 330.366 68.6183C330.366 68.6183 330.366 68.6183 330.366 68.6183C330.366 68.6183 330.366 68.6183 330.366 68.6183C330.366 68.6183 330.366 68.6183 330.366 68.6183L330.366 68.6183Z"
            fill="#D19302" />
        <path fill-rule="evenodd" clip-rule="evenodd"
            d="M333.852 78.143C333.852 78.143 333.852 78.143 333.852 78.143C338.213 83.923 344.81 82.272 347.755 80.6365C347.859 80.5789 347.882 80.4414 347.809 80.348C343.349 74.656 336.663 76.4926 333.852 78.143C333.852 78.143 333.852 78.143 333.852 78.143L333.852 78.143C333.852 78.143 333.852 78.143 333.852 78.143C333.852 78.143 333.852 78.143 333.852 78.143C333.852 78.143 333.852 78.143 333.852 78.143C333.852 78.143 333.852 78.143 333.852 78.143L333.852 78.143Z"
            fill="#D19302" />
        <path fill-rule="evenodd" clip-rule="evenodd"
            d="M339.557 86.0442C339.557 86.0442 339.557 86.0442 339.557 86.0442C345.157 90.635 351.18 87.4773 353.657 85.1947C353.744 85.1142 353.735 84.9751 353.642 84.9015C347.967 80.4193 341.901 83.7784 339.557 86.0442C339.557 86.0442 339.557 86.0442 339.557 86.0442L339.557 86.0442C339.557 86.0442 339.557 86.0442 339.557 86.0442C339.557 86.0442 339.557 86.0442 339.557 86.0442C339.557 86.0442 339.557 86.0442 339.557 86.0442C339.557 86.0442 339.557 86.0442 339.557 86.0442L339.557 86.0442Z"
            fill="#D19302" />
        <path fill-rule="evenodd" clip-rule="evenodd"
            d="M346.257 93.3856C346.257 93.3856 346.257 93.3856 346.257 93.3856C352.937 96.1814 357.804 91.4315 359.524 88.5353C359.584 88.4333 359.535 88.3026 359.425 88.2588C352.705 85.5887 347.855 90.5436 346.257 93.3856C346.257 93.3856 346.257 93.3856 346.257 93.3856L346.257 93.3856C346.257 93.3856 346.257 93.3856 346.257 93.3856C346.257 93.3856 346.257 93.3856 346.257 93.3856C346.257 93.3856 346.257 93.3856 346.257 93.3856C346.257 93.3856 346.257 93.3856 346.257 93.3856L346.257 93.3856Z"
            fill="#D19302" />
        <path fill-rule="evenodd" clip-rule="evenodd"
            d="M354.19 97.9326C354.19 97.9326 354.19 97.9326 354.19 97.9326C361.317 99.2117 365.037 93.5185 366.087 90.3181C366.124 90.2053 366.048 90.0884 365.931 90.0695C358.792 88.9219 355.132 94.8116 354.19 97.9326C354.19 97.9326 354.19 97.9326 354.19 97.9326L354.19 97.9326C354.19 97.9326 354.19 97.9326 354.19 97.9326C354.19 97.9326 354.19 97.9326 354.19 97.9326C354.19 97.9326 354.19 97.9326 354.19 97.9326C354.19 97.9326 354.19 97.9326 354.19 97.9326L354.19 97.9326Z"
            fill="#D19302" />
        <path fill-rule="evenodd" clip-rule="evenodd"
            d="M352.944 66.4109C352.944 66.4109 352.944 66.4109 352.944 66.4109C347.556 71.2476 349.762 77.6808 351.641 80.4758C351.707 80.5743 351.846 80.586 351.933 80.5051C357.226 75.5778 354.828 69.072 352.944 66.4109C352.944 66.4109 352.944 66.4109 352.944 66.4109L352.944 66.4109C352.944 66.4109 352.944 66.4109 352.944 66.4109C352.944 66.4109 352.944 66.4109 352.944 66.4109C352.944 66.4109 352.944 66.4109 352.944 66.4109C352.944 66.4109 352.944 66.4109 352.944 66.4109L352.944 66.4109Z"
            fill="#D19302" />
        <path fill-rule="evenodd" clip-rule="evenodd"
            d="M358.428 70.6159C358.428 70.6159 358.428 70.6159 358.428 70.6159C353.173 75.5975 355.554 81.9683 357.509 84.711C357.578 84.8077 357.717 84.8156 357.802 84.7324C362.958 79.6627 360.383 73.2246 358.428 70.6159C358.428 70.6159 358.428 70.6159 358.428 70.6159L358.428 70.6159C358.428 70.6159 358.428 70.6159 358.428 70.6159C358.428 70.6159 358.428 70.6159 358.428 70.6159C358.428 70.6159 358.428 70.6159 358.428 70.6159C358.428 70.6159 358.428 70.6159 358.428 70.6159L358.428 70.6159Z"
            fill="#D19302" />
        <path fill-rule="evenodd" clip-rule="evenodd"
            d="M364.582 72.845C364.582 72.845 364.582 72.845 364.582 72.845C359.63 78.1277 362.381 84.3471 364.495 86.9698C364.569 87.0623 364.709 87.062 364.788 86.9739C369.637 81.6092 366.687 75.334 364.582 72.845C364.582 72.845 364.582 72.845 364.582 72.845L364.582 72.845C364.582 72.845 364.582 72.845 364.582 72.845C364.582 72.845 364.582 72.845 364.582 72.845C364.582 72.845 364.582 72.845 364.582 72.845C364.582 72.845 364.582 72.845 364.582 72.845L364.582 72.845Z"
            fill="#D19302" />
        <path fill-rule="evenodd" clip-rule="evenodd"
            d="M371.551 89.2448C354.172 89.7147 344.195 75.3778 341.094 68.4108C341.072 68.361 341.096 68.3057 341.145 68.2833C341.196 68.2606 341.253 68.2804 341.276 68.3307C344.28 75.0525 354.95 88.3033 371.513 87.8555L371.551 89.2448Z"
            fill="#835C00" />
        <path
            d="M396.989 67.1173C396.978 67.1173 396.946 67.1198 396.957 67.1189L396.979 67.1178C396.688 67.1253 396.409 67.3042 396.28 67.565L392.697 74.8283L384.687 75.9933C384.319 76.0468 384.014 76.3865 384 76.7582C384 76.7631 384 76.768 384 76.773V78.9614V78.9529C384 78.9643 384 78.9756 384 78.987V78.9785V78.993C384 79.0528 384.014 79.1119 384.04 79.1659C384.04 79.166 384.04 79.1662 384.04 79.1664C384.077 79.3073 384.139 79.4418 384.243 79.5436L389.719 84.8849L388.671 90.9999C388.671 91 388.671 91.0001 388.671 91.0002C388.661 91.0553 388.658 91.1114 388.66 91.1673V91.1515V93.2995V93.2835C388.659 93.3052 388.659 93.3267 388.66 93.3484V93.3323V93.3555C388.66 93.4374 388.685 93.5174 388.732 93.5845C388.8 93.7655 388.911 93.9308 389.081 94.0227C389.311 94.1471 389.603 94.1488 389.835 94.0271C389.835 94.027 389.835 94.0269 389.835 94.0268L397 90.2578L404.165 94.0268C404.165 94.0269 404.165 94.027 404.165 94.0271C404.397 94.1488 404.689 94.1471 404.919 94.0227C405.089 93.931 405.199 93.7663 405.268 93.5859C405.315 93.5185 405.341 93.438 405.341 93.3555V91.1351C405.341 91.09 405.337 91.0449 405.329 91.0004C405.329 91.0003 405.329 91.0001 405.329 90.9999L404.281 84.8847L409.757 79.5436C409.757 79.5435 409.757 79.5434 409.757 79.5433C409.862 79.4416 409.923 79.3072 409.96 79.1664C409.986 79.1124 410 79.0531 410 78.993V78.9783V78.987C410 78.9754 410 78.9637 410 78.9521V78.9608V76.7978V76.8065C410 76.7949 410 76.7832 410 76.7716V76.7803V76.773C410 76.768 410 76.763 410 76.758C409.986 76.3867 409.681 76.0473 409.314 75.9936L401.303 74.8284L397.721 67.5653V67.565C397.588 67.2943 397.291 67.1126 396.989 67.1173L396.989 67.1173Z"
            fill="#9A2201" />
        <path
            d="M396.97 69.6994C396.896 69.7012 396.825 69.7232 396.763 69.7628C396.701 69.8024 396.651 69.8582 396.619 69.9241L392.943 77.3758L384.725 78.571C384.65 78.5819 384.58 78.6133 384.523 78.6619C384.466 78.7104 384.423 78.774 384.4 78.8455C384.376 78.9171 384.374 78.9937 384.392 79.0667C384.41 79.1397 384.448 79.2063 384.502 79.2588L390.448 85.0591L389.044 93.2495C389.032 93.3237 389.04 93.3999 389.068 93.4696C389.097 93.5392 389.144 93.5996 389.205 93.6438C389.266 93.688 389.338 93.7144 389.412 93.7198C389.487 93.7253 389.562 93.7096 389.629 93.6747L396.98 89.8078L404.331 93.6747C404.397 93.7096 404.472 93.7253 404.547 93.7198C404.622 93.7144 404.694 93.688 404.755 93.6438C404.816 93.5996 404.863 93.5392 404.891 93.4696C404.92 93.3999 404.928 93.3237 404.915 93.2495L403.512 85.0591L409.458 79.2588C409.512 79.2063 409.55 79.1397 409.568 79.0667C409.586 78.9937 409.584 78.9171 409.56 78.8455C409.537 78.774 409.494 78.7104 409.437 78.6618C409.379 78.6133 409.31 78.5819 409.235 78.571L401.017 77.3758L397.341 69.9241C397.307 69.855 397.254 69.7971 397.188 69.7573C397.123 69.7175 397.047 69.6974 396.97 69.6994Z"
            fill="#C95429" />
        <path d="M409.58 76.7734H407.526V78.9937H409.58V76.7734Z" fill="#C95429" />
        <path d="M386.434 76.7734H384.38V78.9937H386.434V76.7734Z" fill="#C95429" />
        <path d="M389.845 91.1367H389.038V93.357H389.845V91.1367Z" fill="#C95429" />
        <path d="M404.922 91.1367H404.114V93.357H404.922V91.1367Z" fill="#C95429" />
        <path
            d="M396.97 67.5158C396.896 67.5177 396.825 67.5396 396.763 67.5792C396.701 67.6188 396.651 67.6746 396.619 67.7405L392.943 75.1922L384.725 76.3874C384.65 76.3983 384.58 76.4298 384.523 76.4783C384.466 76.5268 384.423 76.5904 384.4 76.6619C384.376 76.7335 384.374 76.8101 384.392 76.8831C384.41 76.9561 384.448 77.0227 384.502 77.0752L390.448 82.8755L389.044 91.0659C389.032 91.1401 389.04 91.2163 389.068 91.286C389.097 91.3556 389.144 91.416 389.205 91.4602C389.266 91.5045 389.338 91.5308 389.413 91.5362C389.487 91.5417 389.562 91.526 389.629 91.4911L396.98 87.6242L404.331 91.4911C404.397 91.526 404.472 91.5417 404.547 91.5362C404.622 91.5308 404.694 91.5045 404.755 91.4602C404.816 91.416 404.863 91.3556 404.891 91.286C404.92 91.2163 404.928 91.1401 404.915 91.0659L403.512 82.8755L409.458 77.0752C409.512 77.0227 409.55 76.9561 409.568 76.8831C409.586 76.8101 409.584 76.7335 409.56 76.6619C409.537 76.5904 409.494 76.5268 409.437 76.4783C409.379 76.4297 409.31 76.3983 409.235 76.3874L401.017 75.1922L397.341 67.7405C397.307 67.6714 397.254 67.6135 397.188 67.5737C397.123 67.5339 397.047 67.5138 396.97 67.5158V67.5158Z"
            fill="#F6A500" />
        <path
            d="M396.98 67.9219L400.75 75.5639L409.178 76.7894L403.079 82.7378L404.519 91.1372L396.98 87.1716L389.442 91.1372L390.882 82.7378L384.783 76.7894L393.211 75.5639L396.98 67.9219Z"
            fill="#FAC51B" />
        <path
            d="M396.981 71.0938C396.908 71.0934 396.835 71.1139 396.772 71.1528C396.709 71.1916 396.659 71.2474 396.626 71.3137L394.05 76.5373L388.289 77.375C388.216 77.3856 388.148 77.4164 388.091 77.4639C388.035 77.5114 387.993 77.5737 387.97 77.6437C387.948 77.7137 387.945 77.7887 387.963 77.8602C387.98 77.9317 388.018 77.9969 388.07 78.0483L392.239 82.1142L391.255 87.8556C391.242 87.9282 391.251 88.0028 391.278 88.071C391.306 88.1392 391.352 88.1983 391.412 88.2416C391.471 88.2849 391.542 88.3106 391.615 88.3159C391.689 88.3213 391.762 88.3059 391.827 88.2717L396.98 85.561L402.133 88.2717C402.198 88.3059 402.271 88.3213 402.345 88.3159C402.418 88.3106 402.488 88.2849 402.548 88.2416C402.607 88.1983 402.654 88.1392 402.682 88.071C402.709 88.0028 402.717 87.9282 402.705 87.8556L401.721 82.1142L405.89 78.0483C405.942 77.9969 405.979 77.9317 405.997 77.8602C406.015 77.7887 406.012 77.7137 405.989 77.6437C405.967 77.5737 405.925 77.5114 405.868 77.4639C405.812 77.4164 405.744 77.3856 405.671 77.375L399.91 76.5373L397.334 71.3137C397.301 71.2479 397.251 71.1925 397.189 71.1536C397.127 71.1148 397.055 71.094 396.981 71.0938V71.0938Z"
            fill="#FAC51B" />
        <path
            d="M396.98 71.4883L399.648 76.898L405.614 77.7655L401.297 81.9763L402.316 87.9222L396.98 85.1149L391.644 87.9222L392.663 81.9763L388.346 77.7655L394.312 76.898L396.98 71.4883Z"
            fill="#F6A500" />
        <path
            d="M396.98 71.4883L394.312 76.898L388.346 77.7655L390.305 79.6766C392.24 79.6232 396.672 79.791 401.297 81.9763L405.614 77.7655L399.648 76.898L396.98 71.4883Z"
            fill="#F6AE00" />
        <path
            d="M388.346 77.7655L388.722 78.1643L394.521 77.3506L396.978 72.4055L396.98 71.4883L394.312 76.898L388.346 77.7655Z"
            fill="#F08700" />
        <path
            d="M405.616 77.7655L405.24 78.1643L399.44 77.3506L396.984 72.4055L396.981 71.4883L399.65 76.898L405.616 77.7655Z"
            fill="#F08700" />
        <path
            d="M397.111 78.0411C397.588 78.0411 397.975 77.6716 397.975 77.2158C397.975 76.7601 397.588 76.3906 397.111 76.3906C396.634 76.3906 396.247 76.7601 396.247 77.2158C396.247 77.6716 396.634 78.0411 397.111 78.0411Z"
            fill="#FEEE7B" />
        <path
            d="M401.845 79.6377C401.977 79.1841 401.274 78.617 400.275 78.3711C399.276 78.1252 398.36 78.2935 398.229 78.7471C398.098 79.2006 398.801 79.7677 399.8 80.0136C400.798 80.2596 401.714 80.0913 401.845 79.6377Z"
            fill="#FEEE7B" />
        <path
            d="M431.488 56.1173C431.477 56.1173 431.444 56.1198 431.455 56.1189L431.478 56.1178C431.176 56.1253 430.886 56.3042 430.752 56.565L427.032 63.8283L418.713 64.9933C418.331 65.0468 418.014 65.3865 418 65.7582C418 65.7631 418 65.768 418 65.773V67.9614V67.9529C418 67.9643 418 67.9756 418 67.987V67.9785V67.993C418 68.0528 418.014 68.1119 418.041 68.1659C418.041 68.166 418.041 68.1662 418.041 68.1664C418.079 68.3073 418.144 68.4418 418.252 68.5436L423.939 73.8849L422.85 79.9999C422.85 80 422.85 80.0001 422.85 80.0002C422.841 80.0553 422.837 80.1114 422.839 80.1673V80.1515V82.2995V82.2835C422.838 82.3052 422.838 82.3267 422.839 82.3484V82.3323V82.3555C422.839 82.4374 422.866 82.5174 422.914 82.5845C422.985 82.7655 423.1 82.9308 423.276 83.0227C423.516 83.1471 423.819 83.1488 424.06 83.0271C424.06 83.027 424.06 83.0269 424.06 83.0268L431.5 79.2578L438.941 83.0268C438.941 83.0269 438.941 83.027 438.941 83.0271C439.181 83.1488 439.485 83.1471 439.724 83.0227C439.9 82.931 440.015 82.7663 440.086 82.5859C440.135 82.5185 440.162 82.438 440.162 82.3555V80.1351C440.162 80.09 440.158 80.0449 440.15 80.0004C440.15 80.0003 440.15 80.0001 440.15 79.9999L439.061 73.8847L444.748 68.5436C444.748 68.5435 444.748 68.5434 444.748 68.5433C444.856 68.4416 444.92 68.3072 444.959 68.1664C444.986 68.1124 445 68.0531 445 67.993V67.9783V67.987C445 67.9754 445 67.9637 445 67.9521V67.9608V65.7978V65.8065C445 65.7949 445 65.7832 445 65.7716V65.7803V65.773C445 65.768 445 65.763 445 65.758C444.985 65.3867 444.669 65.0473 444.288 64.9936L435.969 63.8284L432.249 56.5653V56.565C432.11 56.2943 431.802 56.1126 431.489 56.1173L431.488 56.1173Z"
            fill="#9A2201" />
        <path
            d="M431.469 58.6994C431.392 58.7012 431.318 58.7232 431.254 58.7628C431.19 58.8024 431.138 58.8582 431.104 58.9241L427.287 66.3758L418.753 67.571C418.675 67.5819 418.603 67.6133 418.543 67.6619C418.484 67.7104 418.439 67.774 418.415 67.8455C418.391 67.9171 418.388 67.9937 418.407 68.0667C418.425 68.1397 418.465 68.2063 418.521 68.2588L424.696 74.0591L423.239 82.2495C423.225 82.3237 423.234 82.3999 423.263 82.4696C423.293 82.5392 423.342 82.5996 423.405 82.6438C423.468 82.688 423.543 82.7144 423.621 82.7198C423.699 82.7253 423.776 82.7096 423.846 82.6747L431.479 78.8078L439.113 82.6747C439.182 82.7096 439.26 82.7253 439.338 82.7198C439.416 82.7144 439.49 82.688 439.553 82.6438C439.617 82.5996 439.666 82.5392 439.695 82.4696C439.724 82.3999 439.733 82.3237 439.72 82.2495L438.262 74.0591L444.438 68.2588C444.493 68.2063 444.533 68.1397 444.552 68.0667C444.57 67.9937 444.568 67.9171 444.543 67.8455C444.519 67.774 444.475 67.7104 444.415 67.6618C444.356 67.6133 444.283 67.5819 444.206 67.571L435.671 66.3758L431.855 58.9241C431.819 58.855 431.764 58.7971 431.696 58.7573C431.627 58.7175 431.548 58.6974 431.469 58.6994Z"
            fill="#C95429" />
        <path d="M444.565 65.7734H442.432V67.9937H444.565V65.7734Z" fill="#C95429" />
        <path d="M420.527 65.7734H418.395V67.9937H420.527V65.7734Z" fill="#C95429" />
        <path d="M424.071 80.1367H423.232V82.357H424.071V80.1367Z" fill="#C95429" />
        <path d="M439.727 80.1367H438.889V82.357H439.727V80.1367Z" fill="#C95429" />
        <path
            d="M431.469 56.5158C431.392 56.5177 431.318 56.5396 431.254 56.5792C431.19 56.6188 431.138 56.6746 431.104 56.7405L427.287 64.1922L418.753 65.3874C418.675 65.3983 418.603 65.4298 418.543 65.4783C418.484 65.5268 418.439 65.5904 418.415 65.6619C418.391 65.7335 418.388 65.8101 418.407 65.8831C418.425 65.9561 418.465 66.0227 418.521 66.0752L424.696 71.8755L423.239 80.0659C423.225 80.1401 423.234 80.2163 423.263 80.286C423.293 80.3556 423.342 80.416 423.405 80.4602C423.468 80.5045 423.543 80.5308 423.621 80.5362C423.699 80.5417 423.776 80.526 423.846 80.4911L431.479 76.6242L439.113 80.4911C439.182 80.526 439.26 80.5417 439.338 80.5362C439.416 80.5308 439.49 80.5045 439.553 80.4602C439.617 80.416 439.666 80.3556 439.695 80.286C439.724 80.2163 439.733 80.1401 439.72 80.0659L438.262 71.8755L444.438 66.0752C444.493 66.0227 444.533 65.9561 444.552 65.8831C444.57 65.8101 444.568 65.7335 444.543 65.6619C444.519 65.5904 444.475 65.5268 444.415 65.4783C444.356 65.4297 444.283 65.3983 444.206 65.3874L435.671 64.1922L431.855 56.7405C431.819 56.6714 431.764 56.6135 431.696 56.5737C431.627 56.5339 431.549 56.5138 431.469 56.5158V56.5158Z"
            fill="#F6A500" />
        <path
            d="M431.48 56.9219L435.394 64.5639L444.146 65.7894L437.813 71.7378L439.308 80.1372L431.48 76.1716L423.652 80.1372L425.147 71.7378L418.813 65.7894L427.566 64.5639L431.48 56.9219Z"
            fill="#FAC51B" />
        <path
            d="M431.48 60.0938C431.403 60.0934 431.328 60.1139 431.263 60.1528C431.198 60.1916 431.145 60.2474 431.111 60.3137L428.436 65.5373L422.453 66.375C422.378 66.3856 422.307 66.4164 422.248 66.4639C422.19 66.5114 422.146 66.5737 422.123 66.6437C422.099 66.7137 422.096 66.7887 422.114 66.8602C422.133 66.9317 422.171 66.9969 422.226 67.0483L426.555 71.1142L425.533 76.8556C425.52 76.9282 425.529 77.0028 425.558 77.071C425.586 77.1392 425.634 77.1983 425.696 77.2416C425.758 77.2849 425.831 77.3106 425.907 77.3159C425.984 77.3213 426.06 77.3059 426.128 77.2717L431.479 74.561L436.829 77.2717C436.897 77.3059 436.973 77.3213 437.05 77.3159C437.126 77.3106 437.199 77.2849 437.261 77.2416C437.323 77.1983 437.371 77.1392 437.399 77.071C437.428 77.0028 437.437 76.9282 437.424 76.8556L436.402 71.1142L440.731 67.0483C440.786 66.9969 440.824 66.9317 440.843 66.8602C440.861 66.7887 440.858 66.7137 440.834 66.6437C440.811 66.5737 440.767 66.5114 440.709 66.4639C440.65 66.4164 440.579 66.3856 440.504 66.375L434.521 65.5373L431.846 60.3137C431.812 60.2479 431.76 60.1925 431.695 60.1536C431.631 60.1148 431.556 60.094 431.48 60.0938V60.0938Z"
            fill="#FAC51B" />
        <path
            d="M431.479 60.4883L434.25 65.898L440.445 66.7655L435.962 70.9763L437.021 76.9222L431.479 74.1149L425.938 76.9222L426.996 70.9763L422.513 66.7655L428.708 65.898L431.479 60.4883Z"
            fill="#F6A500" />
        <path
            d="M431.479 60.4883L428.708 65.898L422.513 66.7655L424.547 68.6766C426.556 68.6232 431.16 68.791 435.962 70.9763L440.446 66.7655L434.25 65.898L431.479 60.4883Z"
            fill="#F6AE00" />
        <path
            d="M422.513 66.7655L422.903 67.1643L428.926 66.3506L431.477 61.4055L431.479 60.4883L428.708 65.898L422.513 66.7655Z"
            fill="#F08700" />
        <path
            d="M440.447 66.7655L440.056 67.1643L434.034 66.3506L431.483 61.4055L431.48 60.4883L434.251 65.898L440.447 66.7655Z"
            fill="#F08700" />
        <path
            d="M431.616 67.0411C432.112 67.0411 432.513 66.6716 432.513 66.2158C432.513 65.7601 432.112 65.3906 431.616 65.3906C431.121 65.3906 430.719 65.7601 430.719 66.2158C430.719 66.6716 431.121 67.0411 431.616 67.0411Z"
            fill="#FEEE7B" />
        <path
            d="M436.531 68.6377C436.667 68.1841 435.937 67.617 434.9 67.3711C433.863 67.1252 432.912 67.2935 432.776 67.7471C432.639 68.2006 433.37 68.7677 434.407 69.0136C435.444 69.2596 436.395 69.0913 436.531 68.6377Z"
            fill="#FEEE7B" />
        <path
            d="M465.989 67.1173C465.978 67.1173 465.946 67.1198 465.957 67.1189L465.979 67.1178C465.688 67.1253 465.409 67.3042 465.28 67.565L461.697 74.8283L453.687 75.9933C453.319 76.0468 453.014 76.3865 453 76.7582C453 76.7631 453 76.768 453 76.773V78.9614V78.9529C453 78.9643 453 78.9756 453 78.987V78.9785V78.993C453 79.0528 453.014 79.1119 453.04 79.1659C453.04 79.166 453.04 79.1662 453.04 79.1664C453.077 79.3073 453.139 79.4418 453.243 79.5436L458.719 84.8849L457.671 90.9999C457.671 91 457.671 91.0001 457.671 91.0002C457.661 91.0553 457.658 91.1114 457.66 91.1673V91.1515V93.2995V93.2835C457.659 93.3052 457.659 93.3267 457.66 93.3484V93.3323V93.3555C457.66 93.4374 457.685 93.5174 457.732 93.5845C457.8 93.7655 457.911 93.9308 458.081 94.0227C458.311 94.1471 458.603 94.1488 458.835 94.0271C458.835 94.027 458.835 94.0269 458.835 94.0268L466 90.2578L473.165 94.0268C473.165 94.0269 473.165 94.027 473.165 94.0271C473.397 94.1488 473.689 94.1471 473.919 94.0227C474.089 93.931 474.199 93.7663 474.268 93.5859C474.315 93.5185 474.341 93.438 474.341 93.3555V91.1351C474.341 91.09 474.337 91.0449 474.329 91.0004C474.329 91.0003 474.329 91.0001 474.329 90.9999L473.281 84.8847L478.757 79.5436C478.757 79.5435 478.757 79.5434 478.757 79.5433C478.862 79.4416 478.923 79.3072 478.96 79.1664C478.986 79.1124 479 79.0531 479 78.993V78.9783V78.987C479 78.9754 479 78.9637 479 78.9521V78.9608V76.7978V76.8065C479 76.7949 479 76.7832 479 76.7716V76.7803V76.773C479 76.768 479 76.763 479 76.758C478.986 76.3867 478.681 76.0473 478.314 75.9936L470.303 74.8284L466.721 67.5653V67.565C466.588 67.2943 466.291 67.1126 465.989 67.1173L465.989 67.1173Z"
            fill="#9A2201" />
        <path
            d="M465.97 69.6994C465.896 69.7012 465.825 69.7232 465.763 69.7628C465.701 69.8024 465.651 69.8582 465.619 69.9241L461.943 77.3758L453.725 78.571C453.65 78.5819 453.58 78.6133 453.523 78.6619C453.466 78.7104 453.423 78.774 453.4 78.8455C453.376 78.9171 453.374 78.9937 453.392 79.0667C453.41 79.1397 453.448 79.2063 453.502 79.2588L459.448 85.0591L458.044 93.2495C458.032 93.3237 458.04 93.3999 458.068 93.4696C458.097 93.5392 458.144 93.5996 458.205 93.6438C458.266 93.688 458.338 93.7144 458.412 93.7198C458.487 93.7253 458.562 93.7096 458.629 93.6747L465.98 89.8078L473.331 93.6747C473.397 93.7096 473.472 93.7253 473.547 93.7198C473.622 93.7144 473.694 93.688 473.755 93.6438C473.816 93.5996 473.863 93.5392 473.891 93.4696C473.92 93.3999 473.928 93.3237 473.915 93.2495L472.512 85.0591L478.458 79.2588C478.512 79.2063 478.55 79.1397 478.568 79.0667C478.586 78.9937 478.584 78.9171 478.56 78.8455C478.537 78.774 478.494 78.7104 478.437 78.6618C478.379 78.6133 478.31 78.5819 478.235 78.571L470.017 77.3758L466.341 69.9241C466.307 69.855 466.254 69.7971 466.188 69.7573C466.123 69.7175 466.047 69.6974 465.97 69.6994Z"
            fill="#C95429" />
        <path d="M478.58 76.7734H476.526V78.9937H478.58V76.7734Z" fill="#C95429" />
        <path d="M455.434 76.7734H453.38V78.9937H455.434V76.7734Z" fill="#C95429" />
        <path d="M458.845 91.1367H458.038V93.357H458.845V91.1367Z" fill="#C95429" />
        <path d="M473.922 91.1367H473.114V93.357H473.922V91.1367Z" fill="#C95429" />
        <path
            d="M465.97 67.5158C465.896 67.5177 465.825 67.5396 465.763 67.5792C465.701 67.6188 465.651 67.6746 465.619 67.7405L461.943 75.1922L453.725 76.3874C453.65 76.3983 453.58 76.4298 453.523 76.4783C453.466 76.5268 453.423 76.5904 453.4 76.6619C453.376 76.7335 453.374 76.8101 453.392 76.8831C453.41 76.9561 453.448 77.0227 453.502 77.0752L459.448 82.8755L458.044 91.0659C458.032 91.1401 458.04 91.2163 458.068 91.286C458.097 91.3556 458.144 91.416 458.205 91.4602C458.266 91.5045 458.338 91.5308 458.413 91.5362C458.487 91.5417 458.562 91.526 458.629 91.4911L465.98 87.6242L473.331 91.4911C473.397 91.526 473.472 91.5417 473.547 91.5362C473.622 91.5308 473.694 91.5045 473.755 91.4602C473.816 91.416 473.863 91.3556 473.891 91.286C473.92 91.2163 473.928 91.1401 473.915 91.0659L472.512 82.8755L478.458 77.0752C478.512 77.0227 478.55 76.9561 478.568 76.8831C478.586 76.8101 478.584 76.7335 478.56 76.6619C478.537 76.5904 478.494 76.5268 478.437 76.4783C478.379 76.4297 478.31 76.3983 478.235 76.3874L470.017 75.1922L466.341 67.7405C466.307 67.6714 466.254 67.6135 466.188 67.5737C466.123 67.5339 466.047 67.5138 465.97 67.5158V67.5158Z"
            fill="#F6A500" />
        <path
            d="M465.98 67.9219L469.75 75.5639L478.178 76.7894L472.079 82.7378L473.519 91.1372L465.98 87.1716L458.442 91.1372L459.882 82.7378L453.783 76.7894L462.211 75.5639L465.98 67.9219Z"
            fill="#FAC51B" />
        <path
            d="M465.981 71.0938C465.908 71.0934 465.835 71.1139 465.772 71.1528C465.709 71.1916 465.659 71.2474 465.626 71.3137L463.05 76.5373L457.289 77.375C457.216 77.3856 457.148 77.4164 457.091 77.4639C457.035 77.5114 456.993 77.5737 456.97 77.6437C456.948 77.7137 456.945 77.7887 456.963 77.8602C456.98 77.9317 457.018 77.9969 457.07 78.0483L461.239 82.1142L460.255 87.8556C460.242 87.9282 460.251 88.0028 460.278 88.071C460.306 88.1392 460.352 88.1983 460.412 88.2416C460.471 88.2849 460.542 88.3106 460.615 88.3159C460.689 88.3213 460.762 88.3059 460.827 88.2717L465.98 85.561L471.133 88.2717C471.198 88.3059 471.271 88.3213 471.345 88.3159C471.418 88.3106 471.488 88.2849 471.548 88.2416C471.607 88.1983 471.654 88.1392 471.682 88.071C471.709 88.0028 471.717 87.9282 471.705 87.8556L470.721 82.1142L474.89 78.0483C474.942 77.9969 474.979 77.9317 474.997 77.8602C475.015 77.7887 475.012 77.7137 474.989 77.6437C474.967 77.5737 474.925 77.5114 474.868 77.4639C474.812 77.4164 474.744 77.3856 474.671 77.375L468.91 76.5373L466.334 71.3137C466.301 71.2479 466.251 71.1925 466.189 71.1536C466.127 71.1148 466.055 71.094 465.981 71.0938V71.0938Z"
            fill="#FAC51B" />
        <path
            d="M465.98 71.4883L468.648 76.898L474.614 77.7655L470.297 81.9763L471.316 87.9222L465.98 85.1149L460.644 87.9222L461.663 81.9763L457.346 77.7655L463.312 76.898L465.98 71.4883Z"
            fill="#F6A500" />
        <path
            d="M465.98 71.4883L463.312 76.898L457.346 77.7655L459.305 79.6766C461.24 79.6232 465.672 79.791 470.297 81.9763L474.614 77.7655L468.648 76.898L465.98 71.4883Z"
            fill="#F6AE00" />
        <path
            d="M457.346 77.7655L457.722 78.1643L463.521 77.3506L465.978 72.4055L465.98 71.4883L463.312 76.898L457.346 77.7655Z"
            fill="#F08700" />
        <path
            d="M474.616 77.7655L474.24 78.1643L468.44 77.3506L465.984 72.4055L465.981 71.4883L468.65 76.898L474.616 77.7655Z"
            fill="#F08700" />
        <path
            d="M466.111 78.0411C466.588 78.0411 466.975 77.6716 466.975 77.2158C466.975 76.7601 466.588 76.3906 466.111 76.3906C465.634 76.3906 465.247 76.7601 465.247 77.2158C465.247 77.6716 465.634 78.0411 466.111 78.0411Z"
            fill="#FEEE7B" />
        <path
            d="M470.845 79.6377C470.977 79.1841 470.274 78.617 469.275 78.3711C468.276 78.1252 467.36 78.2935 467.229 78.7471C467.098 79.2006 467.801 79.7677 468.8 80.0136C469.798 80.2596 470.714 80.0913 470.845 79.6377Z"
            fill="#FEEE7B" />
    </g>
</svg>