<svg width="118" height="116" id="Camada_1" data-name="Camada 1" xmlns="http://www.w3.org/2000/svg" viewBox="0 0 87 85"><defs><style>.cls-1{fill:#fb4d56;fill-rule:evenodd;}</style></defs><path class="cls-1" d="M30.68,8.33l-.08-.05a12.13,12.13,0,0,0-1.46-.75,5.26,5.26,0,0,0-3.42-.27A5.33,5.33,0,0,0,22.89,9.2,12.61,12.61,0,0,0,22,10.58l-.05.08L-6.79,60.45a4.27,4.27,0,0,0,1.56,5.82A4.27,4.27,0,0,0,.59,64.71L11.24,46.27l12.47,7.2-.26,4.25v.11a15.54,15.54,0,0,0-.05,1.83,6.12,6.12,0,0,0,2.65,4.92,17,17,0,0,0,1.55,1h0l.1.06L45.7,76l.09,0h0a11.21,11.21,0,0,0,1.45.75,5.15,5.15,0,0,0,6.25-1.67,13.94,13.94,0,0,0,.89-1.38l0-.09,14.9-25.81,0-.09a11.91,11.91,0,0,0,.75-1.45,5.18,5.18,0,0,0-1.67-6.25,13.94,13.94,0,0,0-1.38-.89L67,39.12,49,28.73l.25-4.25v-.11c0-.54.07-1.22,0-1.84a6.42,6.42,0,0,0-.73-2.78,6.25,6.25,0,0,0-1.92-2.13c-.5-.36-1.09-.7-1.55-1l-.1-.06Z"/></svg>
