<svg width="118" height="116" id="Camada_1" data-name="Camada 1" xmlns="http://www.w3.org/2000/svg" viewBox="0 0 87.52 85"><defs><style>.cls-1{fill:#ffa020;fill-rule:evenodd;}</style></defs><path class="cls-1" d="M45.35,8.42a2.93,2.93,0,0,1,1.07,4L43,18.29q7.2,4.29,14,9.14l1.06.75a17.41,17.41,0,0,1,5.17,22.66L62,53.27A166.89,166.89,0,0,1,43.54,80a10.2,10.2,0,0,1-12.88,2.25l-.74-.43a11.22,11.22,0,0,1-5.55-10.91l1.08-10.15A9.75,9.75,0,0,0,10,51.8l-8.25,6a11.23,11.23,0,0,1-12.22.65l-.75-.43a10.2,10.2,0,0,1-4.49-12.28A167,167,0,0,1-1.81,16.46l1.44-2.39a17.41,17.41,0,0,1,22.2-6.85L23,7.76q7.62,3.51,15,7.6l3.39-5.87A2.93,2.93,0,0,1,45.35,8.42ZM51,37.62a3.91,3.91,0,0,0-6.77-3.91l-.48.85a3.9,3.9,0,1,0,6.76,3.9Zm-29-20.11a2.94,2.94,0,0,1,1.08,4L20.7,25.74l4.22,2.44A2.93,2.93,0,0,1,22,33.25l-4.22-2.44L15.33,35a2.93,2.93,0,1,1-5.07-2.93l2.44-4.23L8.47,25.44a2.93,2.93,0,0,1,2.93-5.07l4.22,2.44,2.44-4.22A2.94,2.94,0,0,1,22.06,17.51ZM42.28,45a3.92,3.92,0,0,1,1.43,5.33l-.49.85a3.9,3.9,0,1,1-6.76-3.9l.49-.85A3.89,3.89,0,0,1,42.28,45Zm6.27,4.75A3.9,3.9,0,0,0,52.46,43l-.85-.49a3.9,3.9,0,0,0-3.9,6.76ZM41.21,41a3.91,3.91,0,0,1-5.34,1.43L35,41.9a3.9,3.9,0,0,1,3.9-6.76l.85.49A3.92,3.92,0,0,1,41.21,41Z"/></svg>
