<svg width="118" height="116" id="Camada_1" data-name="Camada 1" xmlns="http://www.w3.org/2000/svg" viewBox="0 0 87 85"><defs><style>.cls-1{fill:#00c1ec;}</style></defs><path class="cls-1" d="M23.59,9.25A3.15,3.15,0,0,1,24.77,13l-16.06,43L33.32,32.1a3.15,3.15,0,0,1,5.25,3L32.9,57.72l6.3-3.6a3.14,3.14,0,0,1,3.14,0L49.1,58a10.53,10.53,0,1,1-3.16,5.47l-5.2-3L29.6,66.86a3.15,3.15,0,0,1-3.47-.22A3.19,3.19,0,0,1,25,63.35l4.78-19L3.06,70.16a3.16,3.16,0,0,1-3.92.38,3.16,3.16,0,0,1-1.22-3.75L14.33,22.91,1,35a3.16,3.16,0,0,1-3.69.4l-11.8-6.82a3.15,3.15,0,0,1-1.15-4.31,3.16,3.16,0,0,1,4.31-1.16l9.81,5.67L19.71,9.53A3.15,3.15,0,0,1,23.59,9.25Z"/></svg>
