<svg width="118" height="116" id="Camada_1" data-name="Camada 1" xmlns="http://www.w3.org/2000/svg" viewBox="0 0 87 85"><defs><style>.cls-1,.cls-2{fill:#8bc738;fill-rule:evenodd;}.cls-1{fill-opacity:0.2;}</style></defs><path class="cls-1" d="M66.29,80.5a4.66,4.66,0,0,1-6.68,2L46.38,74.83c-2.43-1.4-3.19-4.5-2.44-7.19a20.34,20.34,0,0,0,.55-8.22l24.62-6.54A45.5,45.5,0,0,1,66.29,80.5Z"/><path class="cls-2" d="M67.79,48A45.85,45.85,0,0,0,49.34,24L36.63,46a20.31,20.31,0,0,1,6.53,8.5Zm-46.18-5.9a20.35,20.35,0,0,1,10.62,1.41l12.71-22a45.87,45.87,0,0,0-30-4ZM10.06,18.79A45.53,45.53,0,0,0-12.45,35a4.66,4.66,0,0,0,1.63,6.78L2.41,49.45c2.43,1.4,5.5.51,7.45-1.48a20.25,20.25,0,0,1,6.84-4.59Z"/></svg>
